<svg width="135" height="113" viewBox="0 0 135 113" fill="none" xmlns="http://www.w3.org/2000/svg">
<path d="M10.6768 67.1243C10.4627 67.1243 9.92766 64.9864 9.71364 64.9864C9.60663 64.9864 9.49962 65.2002 9.07157 65.6278C8.32248 66.5898 7.25235 67.2312 6.18223 67.2312C3.61394 67.2312 0.724609 64.1313 0.724609 49.9144V31.5287C0.724609 18.274 3.82797 14.7465 6.50327 14.7465C7.68041 14.7465 8.64351 15.3878 9.3926 16.5637C9.60662 16.9912 9.82065 17.205 9.92766 17.205C9.92766 17.205 10.0347 16.9912 10.0347 16.4568V1.27788C10.0347 0.850303 10.2487 0.422729 10.4627 0.422729H17.0975C17.3115 0.422729 17.5255 0.636517 17.5255 1.17098V66.376C17.5255 66.8036 17.3115 67.1243 17.0975 67.1243H10.6768ZM10.0347 30.8874C10.0347 29.6047 9.60663 28.6426 9.07157 28.6426C8.64352 28.6426 8.4295 29.3909 8.4295 30.3529V52.2661C8.4295 52.8006 8.42949 53.9764 9.07157 53.9764C9.28559 53.9764 9.49962 53.7626 9.60663 53.5488C9.82065 53.2281 10.0347 52.6937 10.0347 51.8385V30.8874Z" fill="#243628"/>
<path d="M19.3447 28.9633C19.3447 18.7016 23.9462 14.8534 28.0127 14.8534C33.7914 14.8534 37.0017 22.4428 37.0017 30.9943V36.339C37.0017 36.7666 36.7877 37.0873 36.5737 37.0873H28.1197C27.9057 37.0873 27.7987 37.301 27.7987 37.8355V51.411C27.7987 52.8006 28.1197 53.3351 28.6548 53.3351C28.9758 53.3351 29.5109 52.8006 29.5109 51.5179V46.1732C29.5109 45.8525 29.6179 45.425 29.9389 45.425L36.4667 46.0663C36.7877 46.1732 37.0017 46.4939 37.0017 47.0284V52.5868C37.0017 63.7037 32.5072 67.1243 27.9057 67.1243C22.4481 67.1243 19.3447 60.4969 19.3447 50.5558V28.9633ZM27.7987 31.9564C27.7987 32.1702 27.9057 32.3839 28.1197 32.3839C29.2969 32.3839 29.4039 32.3839 29.4039 31.9564C29.4039 26.3979 29.4039 25.7565 28.5478 25.7565C28.1197 25.7565 27.7987 26.291 27.7987 27.5737V31.9564Z" fill="#243628"/>
<path d="M48.4522 67.1243C48.2381 67.1243 47.7031 64.9864 47.4891 64.9864C47.382 64.9864 47.275 65.2002 46.847 65.6278C46.0979 66.5898 45.0278 67.2312 43.9576 67.2312C41.3893 67.2312 38.5 64.1313 38.5 49.9144V31.5287C38.5 18.274 41.6034 14.7465 44.2787 14.7465C45.4558 14.7465 46.4189 15.3878 47.168 16.5637C47.382 16.9912 47.5961 17.205 47.7031 17.205C47.7031 17.205 47.8101 16.9912 47.8101 16.4568V1.27788C47.8101 0.850303 48.0241 0.422729 48.2381 0.422729H54.8729C55.0869 0.422729 55.301 0.636517 55.301 1.17098V66.376C55.301 66.8036 55.0869 67.1243 54.8729 67.1243H48.4522ZM47.7031 30.8874C47.7031 29.6047 47.275 28.6426 46.74 28.6426C46.3119 28.6426 46.0979 29.3909 46.0979 30.3529V52.2661C46.0979 52.8006 46.0979 53.9764 46.74 53.9764C46.954 53.9764 47.168 53.7626 47.275 53.5488C47.4891 53.2281 47.7031 52.6937 47.7031 51.8385V30.8874Z" fill="#243628"/>
<path d="M57.6552 32.3839C57.3341 32.3839 57.3341 31.9564 57.3341 27.8944C57.3341 21.0532 60.4375 14.8534 65.6811 14.8534C71.2457 14.8534 74.3491 20.8394 74.3491 27.6806V51.3041C74.3491 52.0524 74.4561 52.0524 75.6332 52.0524C75.8472 52.0524 75.9542 52.373 75.9542 52.8006V58.2522C75.9542 62.5279 73.814 67.5519 70.9247 67.5519C68.5704 67.5519 67.7143 66.2692 66.9652 64.2382C66.7512 63.5969 66.5372 63.49 66.4302 63.49C66.4302 63.49 66.2161 63.7038 65.8951 64.3451C65.36 65.6278 64.0759 67.3381 62.3637 67.3381C60.2235 67.3381 57.1201 64.2382 57.1201 55.5798V49.1662C57.1201 42.325 59.7954 38.5838 62.5777 36.5528C66.3231 33.8804 66.4302 32.9184 66.4302 29.8185C66.4302 28.6427 66.1091 28.0013 65.6811 28.0013C64.825 28.0013 64.825 28.5358 64.825 32.4908C64.825 32.9184 64.611 33.2391 64.3969 33.2391L57.6552 32.3839ZM66.4302 44.7836C66.4302 44.4629 66.3232 44.1422 66.1091 44.0353C65.7881 44.0353 64.825 44.7836 64.825 46.7077V53.1213C64.825 54.1902 65.253 54.6178 65.6811 54.6178C66.1091 54.6178 66.5372 54.1902 66.5372 53.1213V44.7836H66.4302Z" fill="#243628"/>
<path d="M76.7031 28.9633C76.7031 18.7016 81.3046 14.8534 85.3711 14.8534C91.1498 14.8534 94.3601 22.4428 94.3601 30.9943V36.339C94.3601 36.7666 94.1461 37.0873 93.9321 37.0873H85.4781C85.2641 37.0873 85.1571 37.301 85.1571 37.8355V51.411C85.1571 52.8006 85.4781 53.3351 86.0132 53.3351C86.3342 53.3351 86.8693 52.8006 86.8693 51.5179V46.1732C86.8693 45.8525 86.9763 45.425 87.2973 45.425L93.8251 46.0663C94.1461 46.1732 94.3601 46.4939 94.3601 47.0284V52.5868C94.3601 63.7037 89.8656 67.1243 85.2641 67.1243C79.8065 67.1243 76.7031 60.4969 76.7031 50.5558V28.9633ZM85.1571 31.9564C85.1571 32.1702 85.2641 32.3839 85.4781 32.3839C86.6553 32.3839 86.7623 32.3839 86.7623 31.9564C86.7623 26.3979 86.7623 25.7565 85.9062 25.7565C85.4781 25.7565 85.1571 26.291 85.1571 27.5737V31.9564Z" fill="#243628"/>
<path d="M96.6077 67.1243C96.3937 67.1243 96.1797 66.8036 96.1797 66.2692V15.3878C96.1797 15.0671 96.2867 14.7465 96.5007 14.7465H102.814C103.135 14.7465 103.564 18.3808 103.778 18.3808C103.778 18.3808 103.885 18.2739 104.099 17.8464C105.062 15.8154 105.918 14.7465 108.058 14.7465C110.519 14.7465 112.981 18.0602 112.981 24.0462V66.6967C112.981 66.9105 112.874 67.1243 112.767 67.1243H105.811C105.597 67.1243 105.49 66.9105 105.49 66.4829V30.8874C105.49 29.6047 105.062 29.1771 104.634 29.1771C104.206 29.1771 103.778 29.6047 103.778 30.8874V66.6967C103.778 67.0174 103.671 67.2312 103.457 67.2312H96.6077V67.1243Z" fill="#243628"/>
<path d="M115.549 32.3839C115.228 32.3839 115.228 31.9564 115.228 27.8944C115.228 21.0532 118.331 14.8534 123.575 14.8534C129.139 14.8534 132.243 20.8394 132.243 27.6806V51.3041C132.243 52.0524 132.35 52.0524 133.527 52.0524C133.741 52.0524 133.848 52.373 133.848 52.8006V58.2522C133.848 62.5279 131.708 67.5519 128.818 67.5519C126.464 67.5519 125.608 66.2692 124.859 64.2382C124.645 63.5969 124.431 63.49 124.324 63.49C124.324 63.49 124.11 63.7038 123.789 64.3451C123.254 65.6278 121.969 67.3381 120.257 67.3381C118.117 67.3381 115.014 64.2382 115.014 55.5798V49.1662C115.014 42.325 117.689 38.5838 120.471 36.5528C124.217 33.8804 124.324 32.9184 124.324 29.8185C124.324 28.6427 124.003 28.0013 123.575 28.0013C122.719 28.0013 122.719 28.5358 122.719 32.4908C122.719 32.9184 122.505 33.2391 122.291 33.2391L115.549 32.3839ZM124.324 44.7836C124.324 44.4629 124.217 44.1422 124.003 44.0353C123.682 44.0353 122.719 44.7836 122.719 46.7077V53.1213C122.719 54.1902 123.147 54.6178 123.575 54.6178C124.003 54.6178 124.431 54.1902 124.431 53.1213V44.7836H124.324Z" fill="#243628"/>
<path d="M7.14534 93.7408V94.5959C7.14534 95.9856 7.35937 96.9476 7.89443 97.6959C8.32248 98.4441 9.07156 99.0855 10.0347 99.8337L13.245 102.185C15.8133 103.896 17.0975 106.675 17.0975 110.309V112.34H10.6767V109.668C10.6767 108.278 10.0347 107.637 8.75052 107.637H1.04565V101.651H4.57705C3.2929 100.796 2.32979 99.7268 1.68772 98.4441C1.04565 97.1614 0.724609 95.3442 0.724609 92.8856V79.7377C0.724609 77.9205 0.938634 76.424 1.25967 75.3551C1.58071 74.1793 2.11577 73.2172 2.97186 72.469C3.72095 71.7207 4.57705 71.1862 5.54016 70.8656C6.50327 70.5449 7.78741 70.438 9.28558 70.438C10.7838 70.438 11.9609 70.5449 13.031 70.8656C13.9941 71.1862 14.9572 71.7207 15.5993 72.469C16.3484 73.2172 16.9905 74.1793 17.3115 75.3551C17.6325 76.5309 17.8466 78.0274 17.8466 79.7377V86.1513C17.8466 89.8926 17.2045 92.4581 15.8133 94.0615C15.2783 94.7028 14.5292 95.1304 13.7801 95.3442C13.031 95.558 12.1749 95.6649 11.2118 95.6649C9.60662 95.6649 8.21546 95.0235 7.14534 93.7408ZM7.14534 86.472C7.14534 87.6479 7.35936 88.503 7.6804 89.0375C8.00144 89.465 8.5365 89.7857 9.28558 89.7857C10.0347 89.7857 10.5697 89.5719 10.8908 89.0375C11.3188 88.503 11.5328 87.6479 11.5328 86.472V79.7377C11.5328 78.5619 11.3188 77.7067 10.8908 77.1723C10.5697 76.7447 10.0347 76.424 9.28558 76.424C8.5365 76.424 8.00144 76.6378 7.6804 77.1723C7.35936 77.7067 7.14534 78.5619 7.14534 79.7377V86.472Z" fill="#243628"/>
<path d="M36.7876 75.3551C37.1086 76.5309 37.3226 78.0274 37.3226 79.7377V103.041C37.3226 104.858 37.1086 106.354 36.7876 107.423C36.4665 108.599 35.9315 109.561 35.1824 110.309C34.4333 111.058 33.4702 111.592 32.5071 111.913C31.544 112.233 30.2598 112.34 28.7617 112.34C27.2635 112.34 26.0863 112.233 25.0162 111.913C24.0531 111.592 23.09 111.058 22.3409 110.309C21.5918 109.561 21.0568 108.599 20.7357 107.423C20.4147 106.247 20.2007 104.751 20.2007 103.041V93.527H26.6214V103.147C26.6214 104.216 26.8354 105.072 27.1565 105.713C27.4775 106.14 28.0126 106.461 28.7617 106.461C29.5107 106.461 30.0458 106.247 30.3668 105.713C30.6879 105.178 30.9019 104.323 30.9019 103.147V79.5239C30.9019 78.3481 30.6879 77.493 30.3668 76.9585C30.0458 76.5309 29.5107 76.2102 28.7617 76.2102C28.0126 76.2102 27.4775 76.424 27.1565 76.9585C26.8354 77.5999 26.6214 78.455 26.6214 79.5239V85.7238H20.2007V79.7377C20.2007 77.9205 20.4147 76.424 20.7357 75.3551C21.0568 74.1793 21.5918 73.2172 22.3409 72.469C23.09 71.7207 24.0531 71.1862 25.0162 70.8656C25.9793 70.5449 27.2635 70.438 28.7617 70.438C30.2598 70.438 31.437 70.5449 32.5071 70.8656C33.5772 71.1862 34.4333 71.7207 35.1824 72.469C35.8244 73.3241 36.3595 74.2862 36.7876 75.3551Z" fill="#243628"/>
<path d="M46.3118 93.7408V94.5959C46.3118 95.9855 46.5259 96.9476 47.0609 97.6959C47.489 98.4441 48.2381 99.0855 49.2012 99.8337L52.4115 102.185C54.9798 103.896 56.264 106.675 56.264 110.309V112.34H49.8433V109.668C49.8433 108.278 49.2012 107.637 47.917 107.637H40.2122V101.651H43.7436C42.4594 100.796 41.4963 99.7268 40.8542 98.4441C40.2122 97.1614 39.8911 95.3442 39.8911 92.8856V79.7377C39.8911 77.9205 40.1051 76.424 40.4262 75.3551C40.7472 74.1793 41.2823 73.2172 42.1384 72.469C42.8875 71.7207 43.7436 71.1862 44.7067 70.8656C45.6698 70.5449 46.9539 70.438 48.4521 70.438C49.9503 70.438 51.1274 70.5449 52.1975 70.8656C53.1606 71.1862 54.1238 71.7207 54.7658 72.469C55.5149 73.2172 56.157 74.1793 56.478 75.3551C56.7991 76.5309 57.0131 78.0274 57.0131 79.7377V86.1513C57.0131 89.8926 56.371 92.4581 54.9798 94.0615C54.4448 94.7028 53.6957 95.1304 52.9466 95.3442C52.1975 95.558 51.3414 95.6649 50.3783 95.6649C48.7731 95.6649 47.382 95.0235 46.3118 93.7408ZM46.3118 86.472C46.3118 87.6479 46.5259 88.503 46.8469 89.0375C47.1679 89.465 47.703 89.7857 48.4521 89.7857C49.2012 89.7857 49.7362 89.5719 50.0573 89.0375C50.4853 88.503 50.6994 87.6479 50.6994 86.472V79.7377C50.6994 78.5619 50.4853 77.7067 50.0573 77.1723C49.7362 76.7447 49.2012 76.424 48.4521 76.424C47.703 76.424 47.1679 76.6378 46.8469 77.1723C46.5259 77.7067 46.3118 78.5619 46.3118 79.7377V86.472Z" fill="#243628"/>
<path d="M67.9282 74.0723C67.9282 75.2482 68.1422 76.3171 68.5702 77.4929C68.9983 78.6688 69.7474 80.1653 70.7105 81.8756C71.8876 84.1203 72.8507 86.1513 73.4928 87.8616C74.1349 89.6788 74.4559 91.496 74.4559 93.6339V103.147C74.4559 104.965 74.2419 106.461 73.9208 107.53C73.5998 108.706 73.0647 109.668 72.3157 110.416C71.5666 111.164 70.6035 111.699 69.6404 112.02C68.6773 112.34 67.3931 112.447 65.8949 112.447C64.3968 112.447 63.2196 112.34 62.1495 112.02C61.1864 111.699 60.2233 111.164 59.4742 110.416C58.7251 109.668 58.1901 108.706 57.869 107.53C57.548 106.354 57.334 104.858 57.334 103.147V93.6339H63.7547V103.254C63.7547 104.323 63.9687 105.178 64.2898 105.82C64.6108 106.247 65.1459 106.568 65.8949 106.568C66.644 106.568 67.1791 106.354 67.5001 105.82C67.8212 105.285 68.0352 104.43 68.0352 103.254V93.527C68.0352 92.1373 67.8212 90.8546 67.2861 89.5719C66.751 88.2892 66.002 86.5789 65.0388 84.7617C63.8617 82.6238 63.0056 80.6997 62.4706 79.0963C61.8285 77.4929 61.6145 75.8895 61.6145 74.1792V70.6517H68.0352V74.0723H67.9282Z" fill="#243628"/>
<path d="M93.3969 75.3551C93.718 76.5309 93.932 78.0274 93.932 79.7377V103.041C93.932 104.858 93.718 106.354 93.3969 107.423C93.0759 108.599 92.5408 109.561 91.7918 110.309C91.0427 111.058 90.0796 111.592 89.1165 111.913C88.1533 112.233 86.8692 112.34 85.371 112.34C83.8729 112.34 82.6957 112.233 81.6256 111.913C80.6625 111.592 79.6994 111.058 78.9503 110.309C78.2012 109.561 77.6662 108.599 77.3451 107.423C77.0241 106.247 76.8101 104.751 76.8101 103.041V93.527H83.2308V103.147C83.2308 104.216 83.4448 105.072 83.7659 105.713C84.0869 106.14 84.6219 106.461 85.371 106.461C86.1201 106.461 86.6552 106.247 86.9762 105.713C87.2973 105.178 87.5113 104.323 87.5113 103.147V79.5239C87.5113 78.3481 87.2973 77.493 86.9762 76.9585C86.6552 76.5309 86.1201 76.2102 85.371 76.2102C84.6219 76.2102 84.0869 76.424 83.7659 76.9585C83.4448 77.5999 83.2308 78.455 83.2308 79.5239V85.7238H76.8101V79.7377C76.8101 77.9205 77.0241 76.424 77.3451 75.3551C77.6662 74.1793 78.2012 73.2172 78.9503 72.469C79.6994 71.7207 80.6625 71.1862 81.6256 70.8656C82.5887 70.5449 83.8729 70.438 85.371 70.438C86.8692 70.438 88.0463 70.5449 89.1165 70.8656C90.1866 71.1862 91.0427 71.7207 91.7918 72.469C92.4338 73.3241 92.9689 74.2862 93.3969 75.3551Z" fill="#243628"/>
<path d="M114.478 96.7339V103.147C114.478 104.965 114.264 106.461 113.943 107.53C113.622 108.706 113.087 109.668 112.231 110.416C111.482 111.164 110.626 111.699 109.663 112.02C108.7 112.34 107.416 112.447 105.917 112.447C104.419 112.447 103.242 112.34 102.172 112.02C101.209 111.699 100.246 111.164 99.6037 110.416C98.8546 109.668 98.2125 108.706 97.8915 107.53C97.5705 106.354 97.3564 104.858 97.3564 103.147V79.8447C97.3564 78.0275 97.5705 76.531 97.8915 75.462C98.2125 74.2862 98.8546 73.3242 99.6037 72.5759C100.353 71.8276 101.209 71.2932 102.172 70.9725C103.135 70.6518 104.419 70.5449 105.917 70.5449H113.836V76.531H105.917C105.275 76.531 104.74 76.7447 104.312 77.2792C103.991 77.9206 103.777 78.7757 103.777 79.8447V89.4651C104.954 88.1824 106.345 87.541 107.951 87.541C109.984 87.541 111.589 88.0755 112.552 89.1444C113.836 90.3202 114.478 92.8857 114.478 96.7339ZM108.058 96.5201C108.058 95.3442 107.844 94.4891 107.523 93.9546C107.202 93.5271 106.667 93.2064 105.917 93.2064C105.275 93.2064 104.74 93.4202 104.312 93.9546C103.991 94.596 103.777 95.4511 103.777 96.5201V103.254C103.777 104.323 103.991 105.178 104.312 105.82C104.74 106.247 105.275 106.568 105.917 106.568C106.667 106.568 107.202 106.354 107.523 105.82C107.844 105.285 108.058 104.43 108.058 103.254V96.5201Z" fill="#243628"/>
<path d="M127.748 74.0723C127.748 75.2482 127.962 76.3171 128.39 77.4929C128.818 78.6688 129.567 80.1653 130.53 81.8756C131.707 84.1203 132.671 86.1513 133.313 87.8616C133.955 89.6788 134.276 91.496 134.276 93.6339V103.147C134.276 104.965 134.062 106.461 133.741 107.53C133.42 108.706 132.885 109.668 132.136 110.416C131.386 111.164 130.423 111.699 129.46 112.02C128.497 112.34 127.213 112.447 125.715 112.447C124.217 112.447 123.039 112.34 121.969 112.02C121.006 111.699 120.043 111.164 119.294 110.416C118.545 109.668 118.01 108.706 117.689 107.53C117.368 106.354 117.154 104.858 117.154 103.147V93.6339H123.575V103.254C123.575 104.323 123.789 105.178 124.11 105.82C124.431 106.247 124.966 106.568 125.715 106.568C126.464 106.568 126.999 106.354 127.32 105.82C127.641 105.285 127.855 104.43 127.855 103.254V93.527C127.855 92.1373 127.641 90.8546 127.106 89.5719C126.571 88.2892 125.822 86.5789 124.859 84.7617C123.682 82.6238 122.825 80.6997 122.29 79.0963C121.648 77.4929 121.434 75.8895 121.434 74.1792V70.6517H127.855V74.0723H127.748Z" fill="#243628"/>
</svg>
