<svg width="32" height="32" viewBox="0 0 32 32" fill="none" xmlns="http://www.w3.org/2000/svg">
<path d="M1 7C1 5.4087 1.63214 3.88258 2.75736 2.75736C3.88258 1.63214 5.4087 1 7 1H25C26.5913 1 28.1174 1.63214 29.2426 2.75736C30.3679 3.88258 31 5.4087 31 7V25C31 26.5913 30.3679 28.1174 29.2426 29.2426C28.1174 30.3679 26.5913 31 25 31H7C5.4087 31 3.88258 30.3679 2.75736 29.2426C1.63214 28.1174 1 26.5913 1 25V7Z" stroke="#F6F2E7" stroke-linecap="round" stroke-linejoin="round"/>
<path d="M10.75 14.5C12.8211 14.5 14.5 12.8211 14.5 10.75C14.5 8.67893 12.8211 7 10.75 7C8.67893 7 7 8.67893 7 10.75C7 12.8211 8.67893 14.5 10.75 14.5Z" stroke="#F6F2E7" stroke-linecap="round" stroke-linejoin="round"/>
<path d="M19.789 16.9315L7 31H25.1995C26.7379 31 28.2133 30.3889 29.3011 29.3011C30.3889 28.2133 31 26.7379 31 25.1995V25C31 24.301 30.7375 24.0325 30.265 23.515L24.22 16.9225C23.9383 16.6152 23.5956 16.37 23.2138 16.2025C22.832 16.035 22.4194 15.9489 22.0025 15.9498C21.5856 15.9506 21.1734 16.0384 20.7923 16.2074C20.4112 16.3764 20.0695 16.623 19.789 16.9315V16.9315Z" stroke="#F6F2E7" stroke-linecap="round" stroke-linejoin="round"/>
</svg>
