<svg width="83" height="60" viewBox="0 0 83 60" fill="none" xmlns="http://www.w3.org/2000/svg">
<path d="M13.7106 19.7327L6.04505 27.389L0 21.3512L7.66552 13.6941L0 6.03781L6.04505 0L13.7106 7.65633L21.3761 0L27.4211 6.03781L19.7564 13.6941L27.4219 21.3505L21.3768 27.3883L13.7106 19.7327ZM83 6.03781L76.9549 0L69.2894 7.65633L61.6239 0L55.5789 6.03781L63.2436 13.6941L55.5781 21.3505L61.6232 27.3883L69.2894 19.7327L76.9549 27.389L83 21.3512L75.3345 13.6941L83 6.03781ZM11.27 53.9622L17.315 60C23.7753 53.5475 32.3641 49.9911 41.5011 49.9911C50.6381 49.9911 59.2262 53.544 65.6872 59.9965L71.7322 53.9587C63.6609 45.8956 52.9221 41.4505 41.5015 41.4505C30.0809 41.4505 19.3419 45.8955 11.2707 53.9622H11.27Z" fill="#212121"/>
</svg>
