<?xml version="1.0" standalone="no"?>
<!DOCTYPE svg PUBLIC "-//W3C//DTD SVG 1.1//EN" "http://www.w3.org/Graphics/SVG/1.1/DTD/svg11.dtd" >
<svg xmlns="http://www.w3.org/2000/svg" xmlns:xlink="http://www.w3.org/1999/xlink" version="1.1">
<metadata>
Created by FontForge 20170731 at Mon Nov 28 15:38:10 2016
 By Aleksey,,,
Copyright (c) 2016 Monotype Imaging Inc. All rights reserved.
</metadata>
<defs>
<font id="HelveticaNeueLTGEOW82-45Lt" horiz-adv-x="556" >
  <font-face 
    font-family="HelveticaNeueLTGEOW82-45Lt"
    font-weight="300"
    font-stretch="normal"
    units-per-em="1000"
    panose-1="2 11 4 3 2 2 2 2 2 4"
    ascent="800"
    descent="-200"
    x-height="516"
    cap-height="714"
    bbox="-166 -215 1050 967"
    underline-thickness="50"
    underline-position="-225"
    unicode-range="U+000D-FEFF"
  />
<missing-glyph horiz-adv-x="512" 
d="M512 0h-512v718h512v-718zM462 667h-412v-617h412v617zM322 592.5q28 -16.5 44.5 -46.5t16.5 -68q0 -36 -14 -62t-50 -59t-42 -51q-6 -19 -6 -72h-46l-2 19q0 37 5 58t18.5 39.5t43.5 47.5q25 26 33.5 41.5t8.5 34.5q0 23 -10.5 42.5t-28 31t-37.5 11.5q-33 0 -54.5 -23
t-27.5 -72l-50 8q7 68 43 102.5t92 34.5q35 0 63 -16.5zM278 184v-67h-56v67h56z" />
    <glyph glyph-name=".notdef" horiz-adv-x="512" 
d="M512 0h-512v718h512v-718zM462 667h-412v-617h412v617zM322 592.5q28 -16.5 44.5 -46.5t16.5 -68q0 -36 -14 -62t-50 -59t-42 -51q-6 -19 -6 -72h-46l-2 19q0 37 5 58t18.5 39.5t43.5 47.5q25 26 33.5 41.5t8.5 34.5q0 23 -10.5 42.5t-28 31t-37.5 11.5q-33 0 -54.5 -23
t-27.5 -72l-50 8q7 68 43 102.5t92 34.5q35 0 63 -16.5zM278 184v-67h-56v67h56z" />
    <glyph glyph-name="glyph1" horiz-adv-x="0" 
 />
    <glyph glyph-name="glyph1" horiz-adv-x="0" 
 />
    <glyph glyph-name="uni000D" unicode="&#xd;" horiz-adv-x="278" 
 />
    <glyph glyph-name="space" unicode=" " horiz-adv-x="278" 
 />
    <glyph glyph-name="exclam" unicode="!" horiz-adv-x="241" 
d="M155 501l-15 -323h-38l-15 323v213h68v-213zM163 0h-84v106h84v-106z" />
    <glyph glyph-name="quotedbl" unicode="&#x22;" horiz-adv-x="370" 
d="M150 471h-63v243h63v-243zM283 471h-63v243h63v-243z" />
    <glyph glyph-name="numbersign" unicode="#" 
d="M260 691l-31 -222h141l31 222h50l-31 -222h105v-45h-111l-22 -156h105v-45h-111l-31 -223h-50l31 223h-141l-31 -223h-50l31 223h-110v45h116l22 156h-110v45h116l31 222h50zM342 268l22 156h-141l-22 -156h141z" />
    <glyph glyph-name="dollar" unicode="$" 
d="M296 807v-78q60 -1 108 -28t75.5 -74t28.5 -106v-9h-63q-1 47 -18.5 84t-51 58.5t-79.5 21.5v-288q134 -28 183 -77q48 -49 48 -126q0 -58 -29 -103t-81.5 -70.5t-120.5 -26.5v-85h-39v86q-77 7 -126.5 34.5t-74 78t-27.5 129.5h63q1 -85 42.5 -133t122.5 -57v296
q-79 16 -125 41.5t-65.5 64t-19.5 94.5q0 55 26 98.5t73.5 69.5t110.5 27v78h39zM123 467.5q13 -23.5 45 -41t89 -29.5v279q-69 0 -108 -39.5t-39 -109.5q0 -36 13 -59.5zM385 56q38 18 58.5 51t20.5 77q0 36 -16.5 62t-53 46t-98.5 34v-288q51 0 89 18z" />
    <glyph glyph-name="percent" unicode="%" horiz-adv-x="889" 
d="M690 725l-452 -759h-48l453 759h47zM346 656.5q41 -49.5 41 -139.5q0 -88 -40 -138.5t-119 -50.5q-76 0 -117.5 49t-41.5 140t41.5 140t117.5 49q77 0 118 -49.5zM148.5 412.5q26.5 -39.5 79.5 -39.5q54 0 80 41t26 102q0 60 -25.5 102.5t-81.5 42.5q-49 0 -77 -38
t-28 -107q0 -64 26.5 -103.5zM785 313.5q41 -49.5 41 -139.5q0 -88 -40 -138.5t-119 -50.5t-119 51t-40 138q0 90 41 139.5t118 49.5t118 -49.5zM587 70q26 -40 80 -40q53 0 79.5 40t26.5 103q0 58 -24.5 101.5t-82.5 43.5q-50 0 -77.5 -38t-27.5 -107q0 -63 26 -103z" />
    <glyph glyph-name="ampersand" unicode="&#x26;" horiz-adv-x="611" 
d="M364 695.5q36 -18.5 57 -51.5t21 -75q0 -51 -32 -95t-108 -90l156 -188q12 25 16.5 50t4.5 70h63q0 -43 -11.5 -89.5t-30.5 -81.5l120 -145h-79l-76 93q-42 -53 -96.5 -80.5t-114.5 -27.5q-62 0 -110.5 23.5t-76.5 68.5t-28 108q0 119 175 212l-15 19q-23 28 -38 49.5
t-25 48t-10 55.5q0 43 21.5 76t57.5 51t79 18q44 0 80 -18.5zM208 507.5q19 -33.5 61 -82.5q60 37 85 72t25 72q0 42 -26.5 67t-69.5 25q-25 0 -46.5 -10.5t-34.5 -31t-13 -50.5q0 -28 19 -61.5zM123.5 106q21.5 -32 57.5 -50t76 -18q47 0 89.5 25t79.5 77l-178 216
q-74 -39 -110 -82.5t-36 -94.5q0 -41 21.5 -73z" />
    <glyph glyph-name="quotesingle" unicode="'" horiz-adv-x="278" 
d="M171 471h-63v243h63v-243z" />
    <glyph glyph-name="parenleft" unicode="(" horiz-adv-x="241" 
d="M146 504.5q-32 -122.5 -32 -260.5q0 -108 35 -225t93 -210h-50q-77 127 -109 234.5t-32 222.5q0 121 35.5 237.5t105.5 225.5h50q-64 -102 -96 -224.5z" />
    <glyph glyph-name="parenright" unicode=")" horiz-adv-x="241" 
d="M156.5 500q33.5 -107 33.5 -228q0 -123 -36 -240t-105 -223h-50q64 103 96 225.5t32 259.5q0 105 -34 219t-94 216h50q74 -122 107.5 -229z" />
    <glyph glyph-name="asterisk" unicode="*" horiz-adv-x="352" 
d="M195 714v-123l115 41l15 -37l-118 -39l72 -98l-32 -23l-73 100l-73 -100l-32 23l73 98l-115 39l14 37l115 -41v123h39z" />
    <glyph glyph-name="plus" unicode="+" horiz-adv-x="600" 
d="M327 503v-225h225v-53h-225v-225h-53v225h-225v53h225v225h53z" />
    <glyph glyph-name="comma" unicode="," horiz-adv-x="278" 
d="M181 -1q0 -31 -10.5 -59.5t-30.5 -49t-47 -27.5v43q19 6 32.5 32t13.5 53v9h-42v106h84v-107z" />
    <glyph glyph-name="hyphen" unicode="-" horiz-adv-x="370" 
d="M310 246h-250v58h250v-58z" />
    <glyph glyph-name="period" unicode="." horiz-adv-x="278" 
d="M181 0h-84v106h84v-106z" />
    <glyph glyph-name="slash" unicode="/" horiz-adv-x="333" 
d="M346 729l-305 -744h-54l308 744h51z" />
    <glyph glyph-name="zero" unicode="0" 
d="M460.5 614.5q61.5 -91.5 61.5 -268.5q0 -179 -62 -270t-182 -91t-182 91t-62 269q0 180 62 270.5t182 90.5q121 0 182.5 -91.5zM142.5 116q45.5 -78 135.5 -78t135.5 77.5t45.5 230.5q0 152 -45.5 229.5t-136.5 77.5q-88 0 -134 -77.5t-46 -229.5t45.5 -230z" />
    <glyph glyph-name="one" unicode="1" 
d="M345 0h-63v520h-185v45q45 1 73.5 4.5t46.5 10.5q33 13 51 41.5t26 78.5h51v-700z" />
    <glyph glyph-name="two" unicode="2" 
d="M388 683.5q49 -22.5 77.5 -67t28.5 -107.5q0 -73 -45 -135q-23 -32 -63.5 -65.5t-111.5 -76.5q-82 -50 -120 -90.5t-46 -83.5h389v-58h-461q2 60 24.5 106t65 85.5t113.5 85.5q58 38 92 64.5t57 52.5q22 25 32.5 52.5t10.5 63.5q0 43 -20.5 75.5t-56.5 50t-80 17.5
q-52 0 -87.5 -24t-53 -65.5t-17.5 -95.5v-10h-63v10q0 71 26 125t76.5 83.5t121.5 29.5q62 0 111 -22.5z" />
    <glyph glyph-name="three" unicode="3" 
d="M377.5 686.5q49.5 -19.5 79.5 -60t30 -98.5t-31 -99.5t-87 -55.5v-2q70 -12 107 -58.5t37 -114.5q0 -66 -32.5 -114t-87 -73.5t-120.5 -25.5q-69 0 -123.5 25.5t-86 75t-31.5 118.5l1 19h63v-13q0 -52 21.5 -90.5t61.5 -60t93 -21.5q46 0 86.5 18t66 53t25.5 84
q0 46 -20.5 79t-58.5 51t-90 18h-52v53h51q38 0 71 14.5t53 43.5t20 69q0 63 -41.5 97.5t-110.5 34.5q-48 0 -84 -20t-56 -59t-20 -94v-4h-63q0 70 29 122t79 80t114 28q57 0 106.5 -19.5z" />
    <glyph glyph-name="four" unicode="4" 
d="M411 700v-473h105v-53h-105v-174h-58v174h-323v61l324 465h57zM353 227v381h-2l-264 -381h266z" />
    <glyph glyph-name="five" unicode="5" 
d="M475 633h-306l-45 -232l2 -2q27 31 66.5 48t81.5 17q70 0 123.5 -30.5t82.5 -85.5t29 -126q0 -65 -32 -119.5t-87.5 -86t-123.5 -31.5q-64 0 -116 25.5t-82.5 74.5t-31.5 115h63q1 -48 24 -84.5t61.5 -57t86.5 -20.5q52 0 92 26t61.5 70t21.5 95t-23 92.5t-64 65.5
t-92 24q-47 0 -88 -21t-68 -62h-54l68 363h350v-58z" />
    <glyph glyph-name="six" unicode="6" 
d="M440 659.5q54 -46.5 65 -136.5h-63q-5 39 -24.5 68.5t-51 45.5t-70.5 16q-94 0 -143 -80.5t-50 -232.5h2q26 54 76.5 85t110.5 31q67 0 119.5 -29.5t81.5 -82.5t29 -122q0 -68 -30.5 -122t-84.5 -84.5t-122 -30.5q-87 0 -140.5 36.5t-79 117.5t-25.5 216q0 81 21.5 160.5
t77.5 135t151 55.5q96 0 150 -46.5zM162 85.5q46 -47.5 129 -47.5q48 0 86.5 24t60 65.5t21.5 90.5q0 53 -20.5 95t-59 66t-90.5 24q-53 0 -92 -24.5t-60 -67t-21 -93.5q0 -85 46 -132.5z" />
    <glyph glyph-name="seven" unicode="7" 
d="M501 633q-129 -135 -201.5 -296t-81.5 -337h-68q9 122 40.5 225t91.5 201t156 207h-387v58h450v-58z" />
    <glyph glyph-name="eight" unicode="8" 
d="M379 687q49 -19 80 -58.5t31 -97.5q0 -57 -30 -97.5t-84 -56.5v-2q69 -14 106 -61t37 -118q0 -66 -30.5 -113.5t-85.5 -72.5t-125 -25q-71 0 -125.5 25.5t-85 72.5t-30.5 111q0 40 15.5 78t47.5 66t79 37v2q-56 18 -85 57.5t-29 96.5q0 54 28.5 94t77 60.5t106.5 20.5
q53 0 102 -19zM146.5 462.5q18.5 -29.5 51.5 -45.5t77 -16q46 0 80.5 15.5t53 44.5t18.5 70q0 37 -18.5 64.5t-52 42.5t-79.5 15q-40 0 -74 -14.5t-54.5 -42.5t-20.5 -65q0 -39 18.5 -68.5zM123 110q23 -36 63.5 -54t91.5 -18q54 0 94.5 18.5t62 54.5t21.5 85q0 44 -21 78.5
t-61.5 54t-96.5 19.5q-55 0 -95 -19t-61 -53.5t-21 -79.5q0 -50 23 -86z" />
    <glyph glyph-name="nine" unicode="9" 
d="M413.5 667.5q53.5 -38.5 78 -119t24.5 -212.5q0 -84 -22.5 -163t-78 -133.5t-149.5 -54.5t-149 46t-66 137h63q6 -40 26 -69.5t51 -45t69 -15.5q95 0 144 81.5t49 231.5h-2q-17 -36 -46.5 -62.5t-66 -40t-73.5 -13.5q-68 0 -120.5 30t-81.5 83t-29 121t31 122t85 84.5
t121 30.5q89 0 142.5 -38.5zM118 378q21 -42 59.5 -66t88.5 -24q54 0 93.5 24.5t60 67t20.5 93.5q0 55 -20 95.5t-59.5 62.5t-95.5 22q-48 0 -86 -24t-60 -65t-22 -91q0 -53 21 -95z" />
    <glyph glyph-name="colon" unicode=":" horiz-adv-x="278" 
d="M181 394h-84v106h84v-106zM181 0h-84v106h84v-106z" />
    <glyph glyph-name="semicolon" unicode=";" horiz-adv-x="278" 
d="M181 394h-84v106h84v-106zM181 -3q0 -29 -10.5 -57t-30.5 -49t-47 -28v43q21 8 33.5 33.5t12.5 53.5v7h-42v106h84v-109z" />
    <glyph glyph-name="less" unicode="&#x3c;" horiz-adv-x="600" 
d="M554 459l-446 -206l446 -206v-55l-508 234v54l508 234v-55z" />
    <glyph glyph-name="equal" unicode="=" horiz-adv-x="600" 
d="M552 325h-503v53h503v-53zM552 128h-503v53h503v-53z" />
    <glyph glyph-name="greater" unicode="&#x3e;" horiz-adv-x="600" 
d="M554 280v-54l-508 -234v55l446 206l-446 206v55z" />
    <glyph glyph-name="question" unicode="?" horiz-adv-x="537" 
d="M384.5 706q46.5 -23 73 -65t26.5 -97q0 -36 -10.5 -64.5t-27.5 -51.5t-44 -49l-54 -53q-20 -20 -28.5 -37.5t-11 -38.5t-4.5 -71h-63v20q0 63 21 107q19 39 86 99q73 64 73 136q0 38 -19 69t-52 48.5t-73 17.5q-48 0 -84 -21t-56 -60.5t-20 -91.5v-9h-63q0 72 27.5 125
t79 81.5t120.5 28.5q57 0 103.5 -23zM315 0h-84v106h84v-106z" />
    <glyph glyph-name="at" unicode="@" horiz-adv-x="800" 
d="M585.5 690.5q77.5 -38.5 122.5 -109.5t45 -163q0 -79 -34.5 -145.5t-88.5 -105.5t-109 -39q-27 0 -45.5 17.5t-21.5 49.5h-2q-65 -66 -127 -66q-39 0 -69 19t-46.5 52t-16.5 74q0 70 30 137t84.5 109.5t122.5 42.5q37 0 63.5 -21.5t42.5 -62.5l25 65h53l-92 -276
q-15 -43 -15 -67q0 -28 24 -28q42 0 81.5 38t63.5 96t24 114q0 79 -37.5 138.5t-102 92t-144.5 32.5q-92 0 -164 -44t-112 -119.5t-40 -167.5q0 -90 41.5 -164t114.5 -116.5t162 -42.5q49 0 98 16.5t90.5 46.5t69.5 70h51q-30 -53 -78.5 -93.5t-108.5 -62.5t-122 -22
q-105 0 -189.5 49t-133 134.5t-48.5 191.5q0 100 48 184.5t132 134.5t187 50q94 0 171.5 -38.5zM279 209q23 -27 60 -27q44 0 82 39.5t61 95.5t23 100q0 23 -11.5 44.5t-29.5 35t-38 13.5q-48 0 -87 -37t-61 -91.5t-22 -102.5q0 -43 23 -70z" />
    <glyph glyph-name="A" unicode="A" horiz-adv-x="630" 
d="M637 0h-73l-87 222h-325l-86 -222h-73l288 714h76zM454 280l-138 366l-143 -366h281z" />
    <glyph glyph-name="B" unicode="B" horiz-adv-x="667" 
d="M541.5 671q61.5 -43 61.5 -131q0 -37 -15 -70.5t-43 -57.5t-66 -33v-2q46 -6 80 -29.5t52.5 -61t18.5 -83.5q0 -99 -65.5 -151t-189.5 -52h-303v714h302q106 0 167.5 -43zM460 416q36 15 55.5 42.5t19.5 63.5q0 134 -162 134h-233v-255h235q49 0 85 15zM562 205
q0 68 -48.5 103t-139.5 35h-234v-285h235q187 0 187 147z" />
    <glyph glyph-name="C" unicode="C" horiz-adv-x="704" 
d="M508.5 701q62.5 -28 103.5 -80.5t50 -122.5h-68q-12 53 -43.5 92.5t-77 60t-98.5 20.5q-89 0 -149.5 -44t-90 -115.5t-29.5 -154.5q0 -81 28.5 -152.5t89 -116.5t151.5 -45q61 0 110.5 29t80.5 81t38 119h68q-9 -89 -48.5 -153.5t-103.5 -99t-145 -34.5q-107 0 -183 50
t-115 135t-39 187q0 100 38 185t114 136t185 51q71 0 133.5 -28z" />
    <glyph glyph-name="D" unicode="D" horiz-adv-x="685" 
d="M559 627.5q88 -86.5 88 -270.5q0 -357 -341 -357h-234v714h235q164 0 252 -86.5zM449.5 87q64.5 29 97 94.5t32.5 175.5q0 109 -31 174.5t-96 95t-170 29.5h-142v-598h144q101 0 165.5 29z" />
    <glyph glyph-name="E" unicode="E" horiz-adv-x="593" 
d="M565 656h-425v-258h398v-58h-398v-282h430v-58h-498v714h493v-58z" />
    <glyph glyph-name="F" unicode="F" horiz-adv-x="537" 
d="M525 656h-385v-258h342v-58h-342v-340h-68v714h453v-58z" />
    <glyph glyph-name="G" unicode="G" horiz-adv-x="741" 
d="M515 701.5q63 -27.5 104 -81t54 -128.5h-68q-5 45 -35.5 86t-81.5 67t-113 26q-90 0 -150.5 -44.5t-89.5 -116t-29 -153.5q0 -83 29 -154.5t89.5 -115.5t150.5 -44q73 0 129 31t87 89t31 136v6h-243v58h303v-363h-49l-9 130h-2q-33 -70 -97.5 -107.5t-149.5 -37.5
q-107 0 -183 50t-115 134.5t-39 187.5q0 101 38.5 185.5t114.5 135.5t184 51q77 0 140 -27.5z" />
    <glyph glyph-name="H" unicode="H" horiz-adv-x="704" 
d="M140 404h424v310h68v-714h-68v346h-424v-346h-68v714h68v-310z" />
    <glyph glyph-name="I" unicode="I" horiz-adv-x="222" 
d="M145 0h-68v714h68v-714z" />
    <glyph glyph-name="J" unicode="J" horiz-adv-x="500" 
d="M428 197q0 -74 -20.5 -120.5t-66 -69t-120.5 -22.5q-101 0 -150.5 60t-49.5 182v2h68q0 -61 11.5 -101t42 -62.5t84.5 -22.5q50 0 78.5 17t41.5 56t13 107v491h68v-517z" />
    <glyph glyph-name="K" unicode="K" horiz-adv-x="648" 
d="M140 330l415 384h92l-319 -295l334 -419h-88l-297 372l-137 -127v-245h-68v714h68v-384z" />
    <glyph glyph-name="L" unicode="L" horiz-adv-x="537" 
d="M140 58h400v-58h-468v714h68v-656z" />
    <glyph glyph-name="M" unicode="M" horiz-adv-x="833" 
d="M417 88l246 626h100v-714h-68v617h-2l-244 -617h-64l-245 617h-2v-617h-68v714h100z" />
    <glyph glyph-name="N" unicode="N" horiz-adv-x="704" 
d="M563 110h2v604h68v-714h-76l-416 604h-2v-604h-68v714h76z" />
    <glyph glyph-name="O" unicode="O" horiz-adv-x="741" 
d="M554 678.5q76 -50.5 114.5 -135t38.5 -186.5q0 -100 -38 -184.5t-114 -136t-184 -51.5q-107 0 -183.5 50.5t-115 135t-38.5 186.5q0 101 38.5 186t114.5 135.5t184 50.5q107 0 183 -50.5zM131 202.5q29 -71.5 89.5 -115.5t150.5 -44q89 0 149 44t89.5 115.5t29.5 154.5
q0 82 -29 153.5t-89.5 116t-150.5 44.5q-87 0 -147 -43t-90.5 -114t-30.5 -157q0 -83 29 -154.5z" />
    <glyph glyph-name="P" unicode="P" horiz-adv-x="630" 
d="M500 690.5q48 -23.5 74.5 -69.5t26.5 -111q0 -66 -27.5 -112t-75 -69t-108.5 -23h-250v-306h-68v714h318q62 0 110 -23.5zM490.5 400.5q42.5 36.5 42.5 109.5q0 69 -40.5 107.5t-119.5 38.5h-233v-292h235q73 0 115.5 36.5z" />
    <glyph glyph-name="Q" unicode="Q" horiz-adv-x="741" 
d="M553 679q76 -50 115 -134.5t39 -187.5q0 -89 -28.5 -162t-79.5 -121l102 -78l-34 -42l-111 84q-74 -53 -185 -53q-107 0 -183.5 50.5t-115 135t-38.5 186.5q0 103 39.5 188t115.5 134.5t182 49.5t182 -50zM131 202.5q29 -71.5 89.5 -115.5t150.5 -44q76 0 132 35l-94 71
l35 43l104 -79q45 43 68 106t23 138q0 83 -29 154.5t-89.5 115.5t-150.5 44q-87 0 -147 -43t-90.5 -114t-30.5 -157q0 -83 29 -154.5z" />
    <glyph glyph-name="R" unicode="R" horiz-adv-x="667" 
d="M511.5 693q49.5 -21 77 -63t27.5 -102q0 -72 -36.5 -120.5t-102.5 -61.5v-2q52 -7 79 -34t36 -62t11 -83q2 -59 8 -102t24 -63h-75q-9 14 -12.5 42t-5.5 55t-2 34q-3 53 -12 88t-27 58q-31 40 -93 40h-268v-317h-68v714h325q65 0 114.5 -21zM471 391.5q35 16.5 56 48.5
t21 74q0 69 -40 105.5t-113 36.5h-255v-281h255q41 0 76 16.5z" />
    <glyph glyph-name="S" unicode="S" horiz-adv-x="630" 
d="M440 702.5q60 -26.5 94.5 -76.5t34.5 -119h-68q-2 52 -28.5 89t-70 56t-97.5 19q-79 0 -128.5 -35t-49.5 -107q0 -49 29.5 -73t70.5 -34l174 -43q102 -25 147.5 -71t45.5 -119q0 -45 -21.5 -91t-82.5 -79.5t-169 -33.5q-88 0 -152 26.5t-98.5 78.5t-34.5 127v18h68v-6
q0 -95 60.5 -140.5t170.5 -45.5q44 0 88 16t73.5 48.5t29.5 80.5t-36 79t-107 49l-163 40q-82 20 -121.5 61t-39.5 111q0 46 23.5 92t78.5 77.5t143 31.5q76 0 136 -26.5z" />
    <glyph glyph-name="T" unicode="T" 
d="M561 656h-249v-656h-68v656h-249v58h566v-58z" />
    <glyph glyph-name="U" unicode="U" horiz-adv-x="685" 
d="M133 271q0 -112 50 -170t159 -58q107 0 158.5 56.5t51.5 172.5v442h68v-455q0 -84 -31.5 -145.5t-94 -95t-152.5 -33.5q-91 0 -153 34.5t-93 96t-31 143.5v455h68v-443z" />
    <glyph glyph-name="V" unicode="V" horiz-adv-x="593" 
d="M298 75h2l230 639h72l-265 -713l-1 -1h-78l-265 714h73z" />
    <glyph glyph-name="W" unicode="W" horiz-adv-x="907" 
d="M235 89h2l174 625h85l175 -625h2l163 625h68l-197 -714h-72l-181 639h-2l-180 -639h-74l-198 714h73z" />
    <glyph glyph-name="X" unicode="X" horiz-adv-x="574" 
d="M285 415l209 299h76l-244 -348l258 -366h-82l-217 315l-220 -315h-77l257 368l-242 346h80z" />
    <glyph glyph-name="Y" unicode="Y" horiz-adv-x="611" 
d="M306 352l234 362h81l-282 -420v-294h-68v294l-281 420h81z" />
    <glyph glyph-name="Z" unicode="Z" horiz-adv-x="574" 
d="M551 654l-470 -596h480v-58h-556v60l470 596h-438v58h514v-60z" />
    <glyph glyph-name="bracketleft" unicode="[" horiz-adv-x="241" 
d="M237 676h-98v-814h98v-53h-161v920h161v-53z" />
    <glyph glyph-name="backslash" unicode="\" horiz-adv-x="333" 
d="M38 729l308 -744h-54l-305 744h51z" />
    <glyph glyph-name="bracketright" unicode="]" horiz-adv-x="241" 
d="M165 -191h-161v53h98v814h-98v53h161v-920z" />
    <glyph glyph-name="asciicircum" unicode="^" horiz-adv-x="600" 
d="M326 691l230 -453h-57l-200 390l-197 -390h-58l230 453h52z" />
    <glyph glyph-name="underscore" unicode="_" horiz-adv-x="500" 
d="M500 -125h-500v50h500v-50z" />
    <glyph glyph-name="grave" unicode="`" horiz-adv-x="185" 
d="M152 589h-51l-132 141h78z" />
    <glyph glyph-name="a" unicode="a" horiz-adv-x="519" 
d="M453 365v-274q0 -38 37 -38q10 0 20 4v-53q-20 -4 -40 -4q-41 0 -58 20t-17 67v3h-2q-26 -40 -53 -63t-59.5 -32.5t-75.5 -9.5q-52 0 -91 17.5t-60.5 51.5t-21.5 82q0 74 51 111q27 19 69.5 31t130.5 21q45 5 65 10t31 19t11 44q0 56 -34 81t-101 25q-64 0 -100 -30.5
t-38 -89.5h-63q5 85 59 129t151 44q189 0 189 -166zM366.5 266.5q-15.5 -5.5 -43.5 -9.5l-31 -5q-65 -8 -95 -16q-47 -12 -74.5 -33t-27.5 -63q0 -30 16 -53.5t42 -36t57 -12.5q51 0 92 20.5t64.5 57t23.5 83.5v83h-2q-6 -10 -21.5 -15.5z" />
    <glyph glyph-name="b" unicode="b" horiz-adv-x="574" 
d="M123 418h2q12 34 38.5 59.5t63.5 39.5t78 14q73 0 125 -35.5t79 -97.5t27 -140q0 -76 -26.5 -138t-78.5 -98.5t-127 -36.5q-62 0 -112 29.5t-72 83.5h-2v-98h-58v714h63v-296zM204.5 450q-40.5 -28 -61 -77.5t-20.5 -113.5q0 -60 19 -110t59.5 -80.5t102.5 -30.5
q57 0 95 31.5t56 81.5t18 107q0 58 -18.5 108t-56.5 81t-95 31q-58 0 -98.5 -28z" />
    <glyph glyph-name="c" unicode="c" horiz-adv-x="519" 
d="M422 484q54 -47 65 -130h-63q-13 61 -50 92.5t-96 31.5q-57 0 -98 -31.5t-62 -81.5t-21 -107t21 -107.5t62 -81.5t98 -31q37 0 70 18.5t54.5 52t25.5 76.5h63q-8 -62 -36.5 -107t-74 -69t-102.5 -24q-75 0 -130.5 36.5t-84.5 98.5t-29 138q0 78 30 140t85.5 97.5
t128.5 35.5q90 0 144 -47z" />
    <glyph glyph-name="d" unicode="d" horiz-adv-x="574" 
d="M514 0h-58v98h-2q-14 -34 -43.5 -60t-66.5 -39.5t-74 -13.5q-74 0 -126.5 35.5t-79 97.5t-26.5 140q0 76 26 138t78.5 98.5t127.5 36.5q39 0 75.5 -13.5t64 -39t39.5 -60.5h2v296h63v-714zM119.5 149q18.5 -50 56.5 -80.5t94 -30.5q60 0 100.5 29.5t60.5 79.5t20 111
q0 60 -19 109.5t-59.5 80t-102.5 30.5q-57 0 -95 -31t-56 -81t-18 -108q0 -59 18.5 -109z" />
    <glyph glyph-name="e" unicode="e" horiz-adv-x="519" 
d="M389 496q51 -35 78 -97.5t27 -142.5v-15h-397q1 -53 20 -99.5t57 -75t93 -28.5q63 0 104.5 33.5t57.5 98.5h63q-22 -94 -77.5 -139.5t-147.5 -45.5q-76 0 -128 34.5t-78.5 96.5t-26.5 142q0 73 25.5 135.5t78 100t129.5 37.5q71 0 122 -35zM409 385q-20 42 -57 67.5
t-86 25.5q-45 0 -80.5 -22.5t-58.5 -64t-30 -97.5h334q-2 49 -22 91z" />
    <glyph glyph-name="f" unicode="f" horiz-adv-x="259" 
d="M94 463h-88v53h88v50q0 76 28.5 112t97.5 36q26 0 52 -4v-54q-27 5 -46 5q-28 0 -43 -9.5t-20.5 -27.5t-5.5 -49v-59h102v-53h-102v-463h-63v463z" />
    <glyph glyph-name="g" unicode="g" 
d="M335.5 517.5q32.5 -13.5 57.5 -37t38 -53.5h2v89h63v-476q0 -123 -56 -184.5t-172 -61.5q-58 0 -105.5 18t-77 53.5t-32.5 84.5h63q8 -49 48 -76t103 -27q86 0 126 49t40 144v72h-2q-22 -50 -66 -78t-98 -28q-76 0 -128.5 32.5t-78.5 92t-26 140.5q0 74 28.5 133.5
t81.5 93t123 33.5q36 0 68.5 -13.5zM116 162.5q19 -46.5 57.5 -75t93.5 -28.5q50 0 87.5 27.5t58 74.5t20.5 103t-17.5 104.5t-55.5 79t-94 30.5q-52 0 -90.5 -27.5t-58.5 -76t-20 -110.5q0 -55 19 -101.5z" />
    <glyph glyph-name="h" unicode="h" horiz-adv-x="537" 
d="M122 427h2q12 31 37 54.5t58.5 36.5t70.5 13q98 0 143 -48t45 -149v-334h-63v324q0 77 -32.5 115.5t-98.5 38.5q-54 0 -90.5 -26.5t-54 -68t-17.5 -87.5v-296h-63v714h63v-287z" />
    <glyph glyph-name="i" unicode="i" horiz-adv-x="185" 
d="M124 613h-63v101h63v-101zM124 0h-63v516h63v-516z" />
    <glyph glyph-name="j" unicode="j" horiz-adv-x="185" 
d="M124 613h-63v101h63v-101zM124 -50q0 -71 -27 -106t-83 -35l-44 2v52q9 -1 30 -1q22 0 35 6.5t19.5 22.5t6.5 45v580h63v-566z" />
    <glyph glyph-name="k" unicode="k" horiz-adv-x="500" 
d="M123 266l286 250h84l-220 -191l235 -325h-79l-204 281l-102 -85v-196h-63v714h63v-448z" />
    <glyph glyph-name="l" unicode="l" horiz-adv-x="185" 
d="M124 0h-63v714h63v-714z" />
    <glyph glyph-name="m" unicode="m" horiz-adv-x="833" 
d="M384.5 504.5q40.5 -26.5 53.5 -74.5q22 49 66 75t99 26q85 0 127.5 -45.5t42.5 -133.5v-352h-63v348q0 68 -29.5 99t-92.5 31q-71 0 -105.5 -49t-34.5 -138v-291h-63v349q0 63 -27 96t-81 33q-77 0 -115.5 -51.5t-38.5 -138.5v-288h-63v516h58v-87h3q53 102 169 102
q54 0 94.5 -26.5z" />
    <glyph glyph-name="n" unicode="n" horiz-adv-x="537" 
d="M433 483q45 -48 45 -148v-335h-63v323q0 77 -32 116t-99 39q-53 0 -89.5 -25.5t-54.5 -67t-18 -89.5v-296h-63v516h63v-89h2q12 31 37 54.5t58.5 36.5t70.5 13q98 0 143 -48z" />
    <glyph glyph-name="o" unicode="o" 
d="M409 494.5q55 -36.5 84 -99t29 -137.5q0 -76 -29 -138.5t-84.5 -98.5t-130.5 -36t-130.5 36.5t-84.5 98.5t-29 138t29 138t84.5 98.5t130.5 36.5q76 0 131 -36.5zM118.5 149.5q21.5 -50.5 62.5 -81t97 -30.5q57 0 98 31t62 81.5t21 107.5q0 56 -20.5 106.5t-62 82
t-99.5 31.5q-56 0 -96.5 -30.5t-62 -81t-21.5 -108.5t21.5 -108.5z" />
    <glyph glyph-name="p" unicode="p" horiz-adv-x="574" 
d="M60 516h58v-98h2q22 54 71.5 83.5t112.5 29.5q75 0 127.5 -36.5t78.5 -98.5t26 -138q0 -80 -27.5 -142t-79.5 -96.5t-124 -34.5q-41 0 -77.5 13.5t-63.5 39t-39 60.5h-2v-289h-63v707zM169 422.5q-46 -55.5 -46 -164.5q0 -59 19 -108.5t59.5 -80.5t102.5 -31
q57 0 95 31.5t56 81.5t18 107t-18 107t-56 81.5t-96 31.5q-88 0 -134 -55.5z" />
    <glyph glyph-name="q" unicode="q" horiz-adv-x="574" 
d="M345.5 516.5q37.5 -14.5 66.5 -40t42 -58.5h2v98h58v-707h-63v289h-2q-12 -35 -39 -60.5t-63 -39t-77 -13.5q-76 0 -128 36.5t-78 98.5t-26 138q0 75 26 137t78 99t128 37q38 0 75.5 -14.5zM119.5 150q18.5 -50 56.5 -81t94 -31q63 0 104 31.5t59 81.5t18 107
q0 59 -19 109t-59.5 80.5t-102.5 30.5q-57 0 -95 -31.5t-56 -81.5t-18 -107q0 -58 18.5 -108z" />
    <glyph glyph-name="r" unicode="r" horiz-adv-x="315" 
d="M305 460q-54 0 -95.5 -24.5t-64 -67t-22.5 -94.5v-274h-63v516h58v-121h2q23 61 71 94.5t111 33.5h13v-63h-10z" />
    <glyph glyph-name="s" unicode="s" horiz-adv-x="481" 
d="M340 511.5q42 -19.5 66 -57t26 -89.5h-63q-1 53 -37.5 83t-97.5 30q-50 0 -86 -21.5t-36 -67.5q0 -33 29 -54.5t87 -34.5l66 -15q40 -9 73 -22.5t58 -43.5t25 -79q0 -53 -30.5 -88t-77.5 -51t-99 -16q-96 0 -150 45.5t-62 136.5h63q4 -61 44.5 -95t107.5 -34
q35 0 67.5 10.5t53 32.5t20.5 54q0 39 -29 61t-93 36l-67 15q-77 18 -113 50t-36 89q0 50 28.5 82.5t72.5 47.5t93 15q55 0 97 -19.5z" />
    <glyph glyph-name="t" unicode="t" horiz-adv-x="296" 
d="M160 516h105v-53h-105v-352q0 -35 12.5 -49.5t45.5 -14.5q20 0 47 3v-54q-10 0 -23.5 -1t-32.5 -1q-42 0 -66.5 10.5t-35 34.5t-10.5 67v357h-90v53h90v155h63v-155z" />
    <glyph glyph-name="u" unicode="u" horiz-adv-x="537" 
d="M122 193q0 -49 11.5 -83t41.5 -53t84 -19q52 0 87 28.5t52 76t17 103.5v270h63v-516h-58v93h-2q-25 -51 -72 -79.5t-106 -28.5q-94 0 -137.5 50.5t-43.5 145.5v335h63v-323z" />
    <glyph glyph-name="v" unicode="v" horiz-adv-x="463" 
d="M234 63h2l160 453h65l-193 -516h-67l-199 516h70z" />
    <glyph glyph-name="w" unicode="w" horiz-adv-x="741" 
d="M207 74h2l126 442h71l126 -442h2l132 442h67l-166 -516h-69l-127 434h-2l-126 -434h-69l-166 516h67z" />
    <glyph glyph-name="x" unicode="x" horiz-adv-x="481" 
d="M242 320l144 196h79l-186 -247l201 -269h-80l-162 217l-159 -217h-78l200 268l-185 248h79z" />
    <glyph glyph-name="y" unicode="y" horiz-adv-x="463" 
d="M239 76l159 440h63l-224 -595q-25 -63 -48 -85q-15 -14 -35 -20.5t-50 -6.5q-36 0 -51 5v53q25 -5 43 -5q21 0 35.5 6.5t24.5 18.5q11 15 21 36.5t31 78.5l-206 514h67z" />
    <glyph glyph-name="z" unicode="z" horiz-adv-x="463" 
d="M432 471l-341 -418h355v-53h-431v51l337 412h-314v53h394v-45z" />
    <glyph glyph-name="braceleft" unicode="{" horiz-adv-x="333" 
d="M275 676q-10 0 -18 -3.5t-16 -11.5q-12 -13 -17.5 -36.5t-5.5 -51.5v-142q0 -54 -19 -96.5t-51 -64.5v-2q32 -21 51 -63.5t19 -97.5v-140q0 -47 13.5 -76t42.5 -29h19v-53h-50q-41 0 -64.5 33.5t-23.5 91.5v150q0 158 -72 158v53q72 0 72 157v155q0 48 21 85t68 37h49
v-53h-18z" />
    <glyph glyph-name="bar" unicode="|" horiz-adv-x="222" 
d="M138 786v-1000h-53v1000h53z" />
    <glyph glyph-name="braceright" unicode="}" horiz-adv-x="333" 
d="M90 729q44 0 66 -35.5t22 -86.5v-153q0 -158 72 -158v-53q-72 0 -72 -157v-153q0 -55 -23 -89.5t-65 -34.5h-50v53h19q32 0 44 32t12 73v143q0 49 18.5 92t51.5 66v2q-32 22 -51 64.5t-19 95.5v144q0 39 -12.5 70.5t-43.5 31.5h-19v53h50z" />
    <glyph glyph-name="asciitilde" unicode="~" horiz-adv-x="600" 
d="M472 213q-29 -20 -66 -20q-21 0 -44.5 6.5t-61.5 24.5q-39 19 -63.5 26.5t-47.5 7.5q-53 0 -84 -69l-36 36q21 43 52.5 64.5t72.5 21.5q26 0 55.5 -9.5t68.5 -26.5q36 -16 55.5 -22.5t33.5 -6.5q23 0 43.5 16t44.5 53l36 -36q-30 -46 -59 -66z" />
    <glyph glyph-name="uni00A0" unicode="&#xa0;" horiz-adv-x="278" 
 />
    <glyph glyph-name="exclamdown" unicode="&#xa1;" horiz-adv-x="241" 
d="M163 410h-84v106h84v-106zM140 338l15 -323v-206h-68v206l15 323h38z" />
    <glyph glyph-name="cent" unicode="&#xa2;" 
d="M309 618v-87q55 -1 97.5 -23t68.5 -61.5t32 -92.5h-63q-26 120 -135 124v-440q35 1 65.5 21t50 53t23.5 73h63q-8 -60 -35 -104.5t-70 -69t-97 -26.5v-101h-39v102q-66 6 -115 43.5t-75 97t-26 131.5q0 73 26 132.5t75 96t115 42.5v89h39zM135.5 155.5
q18.5 -47.5 53.5 -78.5t81 -38v437q-47 -7 -81.5 -37.5t-53 -77.5t-18.5 -103q0 -55 18.5 -102.5z" />
    <glyph glyph-name="sterling" unicode="&#xa3;" 
d="M405.5 702q52.5 -27 80.5 -79t28 -125v-6h-63q0 58 -20.5 99.5t-58.5 63t-90 21.5q-43 0 -80.5 -17t-61 -52.5t-23.5 -87.5q0 -25 5.5 -45.5t19.5 -45.5q12 -21 20.5 -37.5t13.5 -28.5h160v-32h-142q9 -14 16.5 -43.5t7.5 -53.5q0 -47 -28 -93.5t-82 -88.5l2 -2
q30 16 53 23t45 7q52 0 101 -20q29 -11 47.5 -16t38.5 -5q30 0 61 15t54 41l32 -48q-36 -32 -70 -46.5t-76 -14.5q-26 0 -50.5 5t-53.5 15q-32 11 -55 16t-45 5t-37 -3t-31 -11.5t-45 -26.5l-36 54q58 48 85 92.5t27 93.5q0 23 -7.5 52.5t-20.5 52.5h-81v32h63
q-28 45 -41.5 84t-13.5 77q0 66 31 112.5t83 70t114 23.5q71 0 123.5 -27z" />
    <glyph glyph-name="currency" unicode="&#xa4;" 
d="M193.5 579q40.5 15 84.5 15q87 0 154 -55l55 55l38 -38l-54 -54q56 -70 56 -156q0 -43 -14 -82.5t-42 -73.5l54 -54l-38 -38l-55 55q-32 -27 -71 -41t-83 -14q-41 0 -80.5 14t-74.5 42l-56 -56l-38 38l57 57q-55 67 -55 153q0 88 54 154l-56 56l38 38l56 -56
q30 26 70.5 41zM119 249.5q25 -43.5 67 -68.5t92 -25q52 0 94.5 25.5t67 69t24.5 95.5t-24.5 95.5t-67 69t-94.5 25.5q-49 0 -91 -24.5t-67.5 -68t-25.5 -97.5q0 -53 25 -96.5z" />
    <glyph glyph-name="yen" unicode="&#xa5;" 
d="M277 349l201 365h69l-211 -365h109v-45h-131l-6 -10v-73h137v-45h-137v-176h-63v176h-135v45h135v73l-6 10h-129v45h106l-210 365h72z" />
    <glyph glyph-name="brokenbar" unicode="&#xa6;" horiz-adv-x="222" 
d="M138 661v-250h-53v250h53zM138 161v-250h-53v250h53z" />
    <glyph glyph-name="section" unicode="&#xa7;" 
d="M372.5 708q41.5 -21 63.5 -60.5t22 -95.5h-63v7q0 31 -14.5 58t-41 43t-60.5 16q-49 0 -80.5 -23.5t-31.5 -65.5q0 -39 31 -71q18 -19 47 -37.5t85 -47.5q59 -31 96.5 -57t61 -61.5t23.5 -82.5q0 -43 -28.5 -80.5t-80.5 -58.5q50 -44 50 -109q0 -44 -24 -76.5t-63 -49.5
t-82 -17q-56 0 -97.5 20t-64.5 60t-23 97h63v-7q0 -32 15 -58.5t41.5 -42.5t59.5 -16q29 0 54.5 9.5t41.5 29.5t16 50q0 40 -33 73q-19 19 -49 38t-92 51q-59 30 -95.5 59t-55.5 61.5t-19 73.5q0 46 30 83t79 57q-50 44 -50 109q0 44 24 76.5t63 49.5t82 17q58 0 99.5 -21z
M139 267.5q31 -35.5 110 -79.5l34 -19q27 -15 46 -25.5t35 -21.5q84 35 84 108q0 40 -35 77.5t-116 79.5q-41 22 -65.5 35.5t-41.5 24.5q-41 -17 -61.5 -43.5t-20.5 -63.5t31 -72.5z" />
    <glyph glyph-name="dieresis" unicode="&#xa8;" horiz-adv-x="185" 
d="M38 610h-68v101h68v-101zM215 610h-68v101h68v-101z" />
    <glyph glyph-name="copyright" unicode="&#xa9;" horiz-adv-x="800" 
d="M588 680q85 -49 134.5 -134t49.5 -189q0 -102 -48.5 -187.5t-133.5 -135t-190 -49.5q-104 0 -189 49.5t-134 134.5t-49 188q0 104 49.5 189t134.5 134t188 49t188 -49zM126 197.5q40 -73.5 111.5 -116.5t162.5 -43q88 0 160 42.5t113 115.5t41 161q0 89 -41.5 162
t-114 115t-159.5 42q-88 0 -159.5 -42.5t-112.5 -115.5t-41 -161q0 -86 40 -159.5zM494.5 569q39.5 -17 66 -51t33.5 -83h-51q-10 50 -46.5 78t-87.5 28q-50 0 -87 -23t-57 -64.5t-20 -96.5t20 -96.5t57 -64.5t88 -23t87 28.5t46 77.5h51q-6 -47 -31.5 -81t-65 -52
t-88.5 -18q-66 0 -115 29t-75.5 81t-26.5 119t26.5 119t76 81t114.5 29q46 0 85.5 -17z" />
    <glyph glyph-name="ordfeminine" unicode="&#xaa;" horiz-adv-x="311" 
d="M240 684.5q35 -21.5 35 -78.5v-169q0 -12 6.5 -19t18.5 -7q7 0 13 3v-34q-2 0 -10.5 -1.5t-16.5 -1.5q-26 0 -37 11.5t-11 41.5v3h-2q-41 -65 -123 -65q-56 0 -87 24.5t-31 71.5q0 36 17.5 57t49 31t80.5 14q39 3 55 6t23.5 9t7.5 19q0 67 -87 67q-40 0 -63 -18.5
t-24 -51.5h-47q3 54 38.5 81.5t101.5 27.5q58 0 93 -21.5zM205 537.5q-18 -4.5 -54 -9.5l-41 -6q-37 -7 -52.5 -20t-15.5 -36q0 -17 10.5 -30.5t26.5 -21t32 -7.5q31 0 58 11.5t43 33t16 50.5v47h-2q-3 -7 -21 -11.5z" />
    <glyph glyph-name="guillemotleft" unicode="&#xab;" horiz-adv-x="426" 
d="M193 364l-94 -89l94 -89v-67l-133 125v62l133 125v-67zM354 364l-94 -89l94 -89v-67l-133 125v62l133 125v-67z" />
    <glyph glyph-name="logicalnot" unicode="&#xac;" horiz-adv-x="600" 
d="M552 111h-53v214h-450v53h503v-267z" />
    <glyph glyph-name="uni00AD" unicode="&#xad;" horiz-adv-x="370" 
d="M310 246h-250v58h250v-58z" />
    <glyph glyph-name="registered" unicode="&#xae;" horiz-adv-x="800" 
d="M588 680q85 -49 134.5 -134t49.5 -189q0 -102 -48.5 -187.5t-133.5 -135t-190 -49.5q-104 0 -189 49.5t-134 134.5t-49 188q0 104 49.5 189t134.5 134t188 49t188 -49zM126.5 196.5q40.5 -73.5 112 -116t161.5 -42.5q89 0 160.5 43t112.5 116t41 160q0 89 -41.5 162
t-113.5 115t-160 42t-159.5 -42.5t-112.5 -115.5t-41 -161q0 -87 40.5 -160.5zM534.5 543q35.5 -29 35.5 -90q0 -49 -27 -79.5t-81 -40.5l128 -191h-62l-121 191h-89v-191h-53v430h165q69 0 104.5 -29zM456 382q25 4 43 20.5t18 50.5q0 37 -25.5 55.5t-73.5 18.5h-100v-149
h75q38 0 63 4z" />
    <glyph glyph-name="macron" unicode="&#xaf;" horiz-adv-x="185" 
d="M257 638h-329v45h329v-45z" />
    <glyph glyph-name="degree" unicode="&#xb0;" horiz-adv-x="400" 
d="M272 686.5q33 -19.5 52.5 -53t19.5 -71.5q0 -39 -19 -72t-52 -52.5t-73 -19.5q-39 0 -72 18.5t-52.5 51.5t-19.5 74q0 40 19.5 73t52.5 52t72 19t72 -19.5zM109 509q14 -24 38 -38t53 -14t53 14.5t38 38.5t14 52t-14 52.5t-38 38.5t-54 14q-28 0 -52 -14t-38 -38t-14 -53
t14 -53z" />
    <glyph glyph-name="plusminus" unicode="&#xb1;" horiz-adv-x="600" 
d="M327 503v-180h225v-53h-225v-180h-53v180h-224v53h224v180h53zM552 0h-503v53h503v-53z" />
    <glyph glyph-name="uni00B2" unicode="&#xb2;" horiz-adv-x="370" 
d="M289.5 796.5q34.5 -32.5 34.5 -92.5q0 -44 -22 -76.5t-67 -61.5l-55 -35q-41 -26 -61.5 -48.5t-25.5 -46.5h230v-39h-284q1 28 7.5 50t20.5 42q13 18 33.5 36t55.5 40l53 34q34 22 51 47.5t17 61.5q0 38 -23.5 59.5t-62.5 21.5q-46 0 -71 -30.5t-25 -82.5h-47
q0 74 37.5 113.5t105.5 39.5q64 0 98.5 -32.5z" />
    <glyph glyph-name="uni00B3" unicode="&#xb3;" horiz-adv-x="370" 
d="M282.5 800q35.5 -29 35.5 -82q0 -34 -19.5 -59t-57.5 -36q44 -6 69 -33t25 -70q0 -42 -20 -71.5t-54.5 -45t-76.5 -15.5q-70 0 -109.5 35t-39.5 97l1 15h47v-4q0 -50 27.5 -77t72.5 -27q29 0 53 10.5t38 31t14 48.5q0 39 -29 61.5t-82 22.5h-24v39h25q23 0 44.5 8t35 25
t13.5 41q0 37 -22 56.5t-61 19.5q-46 0 -70.5 -28t-24.5 -75h-47q0 44 18 76t50.5 49t75.5 17q57 0 92.5 -29z" />
    <glyph glyph-name="acute" unicode="&#xb4;" horiz-adv-x="185" 
d="M84 589h-51l105 141h78z" />
    <glyph glyph-name="mu" unicode="&#xb5;" horiz-adv-x="537" 
d="M122 190q0 -77 31 -114.5t106 -37.5q49 0 84 26.5t53.5 74t18.5 110.5v267h63v-516h-58v93h-2q-24 -51 -72 -79.5t-106 -28.5q-34 0 -65 9t-53 26v-211h-63v707h63v-326z" />
    <glyph glyph-name="paragraph" unicode="&#xb6;" horiz-adv-x="600" 
d="M456 -177v838h-120v-838h-63v505q-56 0 -103.5 25t-75.5 69t-28 97q0 62 26 105.5t75.5 66.5t119.5 23h232v-891h-63z" />
    <glyph glyph-name="periodcentered" unicode="&#xb7;" horiz-adv-x="278" 
d="M168 367q14 -8 22 -22t8 -30q0 -15 -8 -28.5t-21.5 -21.5t-29.5 -8t-29.5 8.5t-21.5 22.5t-8 29t8.5 28.5t22 21.5t28.5 8t29 -8z" />
    <glyph glyph-name="cedilla" unicode="&#xb8;" horiz-adv-x="185" 
d="M126 0l-44 -54q16 4 34 4q35 0 58.5 -18t23.5 -49q0 -28 -15.5 -47.5t-41 -29t-53.5 -9.5q-53 0 -94 21l14 32q12 -5 34.5 -9.5t43.5 -4.5q26 0 40 11.5t14 31.5q0 17 -12.5 27.5t-30.5 10.5q-34 0 -51 -8l-16 15l61 76h35z" />
    <glyph glyph-name="uni00B9" unicode="&#xb9;" horiz-adv-x="370" 
d="M230 397h-47v312h-116v35l34 2q35 2 51.5 7.5t25 20.5t13.5 46h39v-423z" />
    <glyph glyph-name="ordmasculine" unicode="&#xba;" horiz-adv-x="334" 
d="M254.5 684q38.5 -22 57.5 -60.5t19 -86.5t-19 -86.5t-57 -60.5t-93 -22q-50 0 -86 22.5t-54.5 60.5t-18.5 86t18.5 86t54.5 60.5t86 22.5q54 0 92.5 -22zM63.5 474q13.5 -30 40 -48.5t63.5 -18.5t63.5 18.5t40 48.5t13.5 63q0 32 -13 62t-40 49t-65 19q-36 0 -62.5 -18.5
t-40 -48.5t-13.5 -63t13.5 -63z" />
    <glyph glyph-name="guillemotright" unicode="&#xbb;" horiz-adv-x="426" 
d="M205 244l-133 -125v67l94 89l-94 89v67l133 -125v-62zM366 244l-133 -125v67l94 89l-94 89v67l133 -125v-62z" />
    <glyph glyph-name="onequarter" unicode="&#xbc;" horiz-adv-x="834" 
d="M633 725l-452 -759h-48l453 759h47zM216 274h-47v312h-116v35l34 2q35 2 51.5 7.5t25 20.5t13.5 46h39v-423zM689 423v-284h68v-39h-68v-100h-47v100h-210v39l213 284h44zM642 139v217l-164 -217h164z" />
    <glyph glyph-name="onehalf" unicode="&#xbd;" horiz-adv-x="834" 
d="M216 274h-47v312h-116v35l34 2q35 2 51.5 7.5t25 20.5t13.5 46h39v-423zM633 725l-452 -759h-48l453 759h47zM740.5 399.5q34.5 -32.5 34.5 -92.5q0 -44 -22 -76.5t-67 -61.5l-55 -35q-41 -26 -61.5 -48.5t-25.5 -46.5h230v-39h-284q1 28 7.5 50t20.5 42q13 18 33.5 36
t55.5 40l53 34q34 22 51 47.5t17 61.5q0 38 -23.5 59.5t-62.5 21.5q-46 0 -71 -30.5t-25 -82.5h-47q0 74 37.5 113.5t105.5 39.5q64 0 98.5 -32.5z" />
    <glyph glyph-name="threequarters" unicode="&#xbe;" horiz-adv-x="834" 
d="M708 725l-452 -759h-48l453 759h47zM319.5 677q35.5 -29 35.5 -82q0 -34 -19.5 -59t-57.5 -36q44 -6 69 -33t25 -70q0 -42 -20 -71.5t-54.5 -45t-76.5 -15.5q-70 0 -109.5 35t-39.5 97l1 15h47v-4q0 -50 27.5 -77t72.5 -27q29 0 53 10.5t38 31t14 48.5q0 39 -29 61.5
t-82 22.5h-24v39h25q23 0 44.5 8t35 25t13.5 41q0 37 -22 56.5t-61 19.5q-46 0 -70.5 -28t-24.5 -75h-47q0 44 18 76t50.5 49t75.5 17q57 0 92.5 -29zM709 423v-284h68v-39h-68v-100h-47v100h-210v39l213 284h44zM662 139v217l-164 -217h164z" />
    <glyph glyph-name="questiondown" unicode="&#xbf;" horiz-adv-x="537" 
d="M307 410h-84v106h84v-106zM297 327q0 -36 -5 -62t-16 -47q-10 -20 -28.5 -42t-54.5 -55q-42 -37 -59 -71t-17 -68q0 -39 19.5 -69.5t52 -48t71.5 -17.5q50 0 86.5 22t55.5 61t19 90v9h63q0 -73 -28 -126t-79 -81t-120 -28q-57 0 -103 22.5t-73 64.5t-27 98q0 39 12 69.5
t32.5 55t53.5 56.5l19 18q17 16 26.5 26.5t18.5 24.5q8 14 12.5 38t5.5 77h63v-17z" />
    <glyph glyph-name="Agrave" unicode="&#xc0;" horiz-adv-x="630" 
d="M637 0h-73l-87 222h-325l-86 -222h-73l288 714h76zM454 280l-138 366l-143 -366h281zM358 779h-51l-132 141h78z" />
    <glyph glyph-name="Aacute" unicode="&#xc1;" horiz-adv-x="630" 
d="M637 0h-73l-87 222h-325l-86 -222h-73l288 714h76zM454 280l-138 366l-143 -366h281zM331 779h-51l105 141h78z" />
    <glyph glyph-name="Acircumflex" unicode="&#xc2;" horiz-adv-x="630" 
d="M637 0h-73l-87 222h-325l-86 -222h-73l288 714h76zM454 280l-138 366l-143 -366h281zM466 779h-65l-86 102l-88 -102h-58l114 141h69z" />
    <glyph glyph-name="Atilde" unicode="&#xc3;" horiz-adv-x="630" 
d="M637 0h-73l-87 222h-325l-86 -222h-73l288 714h76zM454 280l-138 366l-143 -366h281zM442 829.5q-23 -24.5 -55 -24.5q-17 0 -34 5.5t-41 17.5t-37 17.5t-26 5.5q-38 0 -50 -51h-39q3 27 15.5 49t31.5 34.5t42 12.5q18 0 35 -5.5t40 -16.5q22 -11 35.5 -16.5t24.5 -5.5
q20 0 32 11.5t20 36.5h38q-9 -46 -32 -70.5z" />
    <glyph glyph-name="Adieresis" unicode="&#xc4;" horiz-adv-x="630" 
d="M637 0h-73l-87 222h-325l-86 -222h-73l288 714h76zM454 280l-138 366l-143 -366h281zM261 800h-68v101h68v-101zM438 800h-68v101h68v-101z" />
    <glyph glyph-name="Aring" unicode="&#xc5;" horiz-adv-x="630" 
d="M637 0h-73l-87 222h-325l-86 -222h-73l288 714h76zM454 280l-138 366l-143 -366h281zM372.5 952.5q24.5 -14.5 38.5 -39.5t14 -53q0 -29 -14.5 -53.5t-39 -39t-53.5 -14.5t-53.5 14.5t-39 39t-14.5 53.5t14.5 53.5t39 39t53.5 14.5q30 0 54.5 -14.5zM269 811.5
q19 -19.5 49 -19.5t49 19.5t19 48.5t-19 48.5t-50 19.5q-18 0 -33.5 -8.5t-24.5 -24t-9 -35.5q0 -29 19 -48.5z" />
    <glyph glyph-name="AE" unicode="&#xc6;" horiz-adv-x="907" 
d="M880 656h-367v-258h344v-58h-344v-282h371v-58h-439v226h-259l-116 -226h-77l374 714h513v-58zM445 284v372h-40l-189 -372h229z" />
    <glyph glyph-name="Ccedilla" unicode="&#xc7;" horiz-adv-x="704" 
d="M508.5 701q62.5 -28 103.5 -80.5t50 -122.5h-68q-12 53 -43.5 92.5t-77 60t-98.5 20.5q-88 0 -148.5 -43t-90.5 -114.5t-30 -156.5q0 -84 29.5 -155.5t90 -115t149.5 -43.5q61 0 110.5 28.5t80.5 80.5t38 120h68q-10 -89 -49 -153.5t-103 -99t-146 -34.5l-32 -39
q16 4 35 4t37.5 -7t31 -22t12.5 -38q0 -28 -16 -47.5t-41.5 -29t-52.5 -9.5q-53 0 -94 21l14 32q12 -5 34 -9.5t45 -4.5q25 0 39 11.5t14 31.5q0 17 -12 27.5t-32 10.5q-32 0 -50 -8l-16 15l50 63q-94 7 -162.5 57.5t-104 132t-35.5 180.5q0 101 38.5 185.5t114.5 135.5
t184 51q71 0 133.5 -28z" />
    <glyph glyph-name="Egrave" unicode="&#xc8;" horiz-adv-x="593" 
d="M565 656h-425v-258h398v-58h-398v-282h430v-58h-498v714h493v-58zM357 779h-51l-132 141h78z" />
    <glyph glyph-name="Eacute" unicode="&#xc9;" horiz-adv-x="593" 
d="M565 656h-425v-258h398v-58h-398v-282h430v-58h-498v714h493v-58zM330 779h-51l105 141h78z" />
    <glyph glyph-name="Ecircumflex" unicode="&#xca;" horiz-adv-x="593" 
d="M565 656h-425v-258h398v-58h-398v-282h430v-58h-498v714h493v-58zM465 779h-65l-86 102l-88 -102h-58l114 141h69z" />
    <glyph glyph-name="Edieresis" unicode="&#xcb;" horiz-adv-x="593" 
d="M565 656h-425v-258h398v-58h-398v-282h430v-58h-498v714h493v-58zM260 800h-68v101h68v-101zM437 800h-68v101h68v-101z" />
    <glyph glyph-name="Igrave" unicode="&#xcc;" horiz-adv-x="222" 
d="M145 0h-68v714h68v-714zM153 779h-51l-132 141h78z" />
    <glyph glyph-name="Iacute" unicode="&#xcd;" horiz-adv-x="222" 
d="M145 0h-68v714h68v-714zM126 779h-51l105 141h78z" />
    <glyph glyph-name="Icircumflex" unicode="&#xce;" horiz-adv-x="222" 
d="M145 0h-68v714h68v-714zM261 779h-65l-86 102l-88 -102h-58l114 141h69z" />
    <glyph glyph-name="Idieresis" unicode="&#xcf;" horiz-adv-x="222" 
d="M145 0h-68v714h68v-714zM56 800h-68v101h68v-101zM233 800h-68v101h68v-101z" />
    <glyph glyph-name="Eth" unicode="&#xd0;" horiz-adv-x="685" 
d="M559.5 627q87.5 -87 87.5 -270q0 -357 -341 -357h-234v348h-72v45h72v321h232q168 0 255.5 -87zM376 348h-236v-290h144q103 0 167.5 29.5t96 95t31.5 174.5q0 104 -29.5 169.5t-94 97.5t-170.5 32h-145v-263h236v-45z" />
    <glyph glyph-name="Ntilde" unicode="&#xd1;" horiz-adv-x="704" 
d="M563 110h2v604h68v-714h-76l-416 604h-2v-604h-68v714h76zM487 829.5q-23 -24.5 -55 -24.5q-17 0 -34 5.5t-41 17.5t-37 17.5t-26 5.5q-38 0 -50 -51h-39q3 27 15.5 49t31.5 34.5t42 12.5q18 0 35 -5.5t40 -16.5q22 -11 35.5 -16.5t24.5 -5.5q20 0 32 11.5t20 36.5h38
q-9 -46 -32 -70.5z" />
    <glyph glyph-name="Ograve" unicode="&#xd2;" horiz-adv-x="741" 
d="M554 678.5q76 -50.5 114.5 -135t38.5 -186.5q0 -100 -38 -184.5t-114 -136t-184 -51.5q-107 0 -183.5 50.5t-115 135t-38.5 186.5q0 101 38.5 186t114.5 135.5t184 50.5q107 0 183 -50.5zM131 202.5q29 -71.5 89.5 -115.5t150.5 -44q89 0 149 44t89.5 115.5t29.5 154.5
q0 82 -29 153.5t-89.5 116t-150.5 44.5q-87 0 -147 -43t-90.5 -114t-30.5 -157q0 -83 29 -154.5zM413 779h-51l-132 141h78z" />
    <glyph glyph-name="Oacute" unicode="&#xd3;" horiz-adv-x="741" 
d="M554 678.5q76 -50.5 114.5 -135t38.5 -186.5q0 -100 -38 -184.5t-114 -136t-184 -51.5q-107 0 -183.5 50.5t-115 135t-38.5 186.5q0 101 38.5 186t114.5 135.5t184 50.5q107 0 183 -50.5zM131 202.5q29 -71.5 89.5 -115.5t150.5 -44q89 0 149 44t89.5 115.5t29.5 154.5
q0 82 -29 153.5t-89.5 116t-150.5 44.5q-87 0 -147 -43t-90.5 -114t-30.5 -157q0 -83 29 -154.5zM386 779h-51l105 141h78z" />
    <glyph glyph-name="Ocircumflex" unicode="&#xd4;" horiz-adv-x="741" 
d="M554 678.5q76 -50.5 114.5 -135t38.5 -186.5q0 -100 -38 -184.5t-114 -136t-184 -51.5q-107 0 -183.5 50.5t-115 135t-38.5 186.5q0 101 38.5 186t114.5 135.5t184 50.5q107 0 183 -50.5zM131 202.5q29 -71.5 89.5 -115.5t150.5 -44q89 0 149 44t89.5 115.5t29.5 154.5
q0 82 -29 153.5t-89.5 116t-150.5 44.5q-87 0 -147 -43t-90.5 -114t-30.5 -157q0 -83 29 -154.5zM521 779h-65l-86 102l-88 -102h-58l114 141h69z" />
    <glyph glyph-name="Otilde" unicode="&#xd5;" horiz-adv-x="741" 
d="M554 678.5q76 -50.5 114.5 -135t38.5 -186.5q0 -100 -38 -184.5t-114 -136t-184 -51.5q-107 0 -183.5 50.5t-115 135t-38.5 186.5q0 101 38.5 186t114.5 135.5t184 50.5q107 0 183 -50.5zM131 202.5q29 -71.5 89.5 -115.5t150.5 -44q89 0 149 44t89.5 115.5t29.5 154.5
q0 82 -29 153.5t-89.5 116t-150.5 44.5q-87 0 -147 -43t-90.5 -114t-30.5 -157q0 -83 29 -154.5zM497 829.5q-23 -24.5 -55 -24.5q-17 0 -34 5.5t-41 17.5t-37 17.5t-26 5.5q-38 0 -50 -51h-39q3 27 15.5 49t31.5 34.5t42 12.5q18 0 35 -5.5t40 -16.5q22 -11 35.5 -16.5
t24.5 -5.5q20 0 32 11.5t20 36.5h38q-9 -46 -32 -70.5z" />
    <glyph glyph-name="Odieresis" unicode="&#xd6;" horiz-adv-x="741" 
d="M554 678.5q76 -50.5 114.5 -135t38.5 -186.5q0 -100 -38 -184.5t-114 -136t-184 -51.5q-107 0 -183.5 50.5t-115 135t-38.5 186.5q0 101 38.5 186t114.5 135.5t184 50.5q107 0 183 -50.5zM131 202.5q29 -71.5 89.5 -115.5t150.5 -44q89 0 149 44t89.5 115.5t29.5 154.5
q0 82 -29 153.5t-89.5 116t-150.5 44.5q-87 0 -147 -43t-90.5 -114t-30.5 -157q0 -83 29 -154.5zM316 800h-68v101h68v-101zM493 800h-68v101h68v-101z" />
    <glyph glyph-name="multiply" unicode="&#xd7;" horiz-adv-x="600" 
d="M300 288l189 189l37 -37l-189 -189l189 -189l-37 -37l-189 188l-189 -188l-37 37l188 189l-188 189l37 37z" />
    <glyph glyph-name="Oslash" unicode="&#xd8;" horiz-adv-x="741" 
d="M601 641l71 78l26 -23l-73 -81q40 -48 61 -114.5t21 -143.5q0 -100 -38 -184.5t-114 -136t-184 -51.5q-142 0 -231 89l-76 -86l-27 25l79 88q-40 50 -61 115.5t-21 140.5q0 101 38.5 186t114.5 135.5t184 50.5q141 0 230 -88zM117 243.5q15 -53.5 43 -93.5l398 443
q-72 78 -188 78q-87 0 -147.5 -43.5t-90.5 -114.5t-30 -156q0 -60 15 -113.5zM265.5 63q47.5 -20 105.5 -20q88 0 148.5 43t90 114.5t29.5 156.5q0 61 -15 114.5t-44 93.5l-397 -443q35 -39 82.5 -59z" />
    <glyph glyph-name="Ugrave" unicode="&#xd9;" horiz-adv-x="685" 
d="M133 271q0 -112 50 -170t159 -58q107 0 158.5 56.5t51.5 172.5v442h68v-455q0 -84 -31.5 -145.5t-94 -95t-152.5 -33.5q-91 0 -153 34.5t-93 96t-31 143.5v455h68v-443zM383 779h-51l-132 141h78z" />
    <glyph glyph-name="Uacute" unicode="&#xda;" horiz-adv-x="685" 
d="M133 271q0 -112 50 -170t159 -58q107 0 158.5 56.5t51.5 172.5v442h68v-455q0 -84 -31.5 -145.5t-94 -95t-152.5 -33.5q-91 0 -153 34.5t-93 96t-31 143.5v455h68v-443zM356 779h-51l105 141h78z" />
    <glyph glyph-name="Ucircumflex" unicode="&#xdb;" horiz-adv-x="685" 
d="M133 271q0 -112 50 -170t159 -58q107 0 158.5 56.5t51.5 172.5v442h68v-455q0 -84 -31.5 -145.5t-94 -95t-152.5 -33.5q-91 0 -153 34.5t-93 96t-31 143.5v455h68v-443zM491 779h-65l-86 102l-88 -102h-58l114 141h69z" />
    <glyph glyph-name="Udieresis" unicode="&#xdc;" horiz-adv-x="685" 
d="M133 271q0 -112 50 -170t159 -58q107 0 158.5 56.5t51.5 172.5v442h68v-455q0 -84 -31.5 -145.5t-94 -95t-152.5 -33.5q-91 0 -153 34.5t-93 96t-31 143.5v455h68v-443zM286 800h-68v101h68v-101zM463 800h-68v101h68v-101z" />
    <glyph glyph-name="Yacute" unicode="&#xdd;" horiz-adv-x="611" 
d="M306 352l234 362h81l-282 -420v-294h-68v294l-281 420h81zM322 779h-51l105 141h78z" />
    <glyph glyph-name="Thorn" unicode="&#xde;" horiz-adv-x="630" 
d="M140 597h247q66 0 114 -24.5t74 -70.5t26 -109q0 -65 -26.5 -111t-74.5 -69.5t-111 -23.5h-249v-189h-68v714h68v-117zM490 284q43 37 43 109q0 69 -41 107.5t-120 38.5h-232v-292h235q72 0 115 37z" />
    <glyph glyph-name="germandbls" unicode="&#xdf;" horiz-adv-x="537" 
d="M360.5 708q44.5 -21 70 -61t25.5 -94q0 -37 -13.5 -68t-39 -52.5t-60.5 -29.5v-2q44 -3 78 -28.5t52.5 -66.5t18.5 -91q0 -69 -28 -119t-80 -77t-123 -27q-25 0 -41 2v55q21 -4 47 -4q48 0 84.5 18.5t57 54t20.5 85.5q0 59 -20 95t-64 53t-119 17h-6v53q87 0 130 33.5
t43 96.5q0 36 -17.5 64.5t-47.5 44.5t-67 16q-74 0 -105.5 -36.5t-31.5 -108.5v-531h-63v536q0 57 21.5 100.5t66 68t111.5 24.5q56 0 100.5 -21z" />
    <glyph glyph-name="agrave" unicode="&#xe0;" horiz-adv-x="519" 
d="M453 365v-274q0 -38 37 -38q10 0 20 4v-53q-20 -4 -40 -4q-41 0 -58 20t-17 67v3h-2q-26 -40 -53 -63t-59.5 -32.5t-75.5 -9.5q-52 0 -91 17.5t-60.5 51.5t-21.5 82q0 74 51 111q27 19 69.5 31t130.5 21q45 5 65 10t31 19t11 44q0 56 -34 81t-101 25q-64 0 -100 -30.5
t-38 -89.5h-63q5 85 59 129t151 44q189 0 189 -166zM366.5 266.5q-15.5 -5.5 -43.5 -9.5l-31 -5q-65 -8 -95 -16q-47 -12 -74.5 -33t-27.5 -63q0 -30 16 -53.5t42 -36t57 -12.5q51 0 92 20.5t64.5 57t23.5 83.5v83h-2q-6 -10 -21.5 -15.5zM300 589h-51l-132 141h78z" />
    <glyph glyph-name="aacute" unicode="&#xe1;" horiz-adv-x="519" 
d="M453 365v-274q0 -38 37 -38q10 0 20 4v-53q-20 -4 -40 -4q-41 0 -58 20t-17 67v3h-2q-26 -40 -53 -63t-59.5 -32.5t-75.5 -9.5q-52 0 -91 17.5t-60.5 51.5t-21.5 82q0 74 51 111q27 19 69.5 31t130.5 21q45 5 65 10t31 19t11 44q0 56 -34 81t-101 25q-64 0 -100 -30.5
t-38 -89.5h-63q5 85 59 129t151 44q189 0 189 -166zM366.5 266.5q-15.5 -5.5 -43.5 -9.5l-31 -5q-65 -8 -95 -16q-47 -12 -74.5 -33t-27.5 -63q0 -30 16 -53.5t42 -36t57 -12.5q51 0 92 20.5t64.5 57t23.5 83.5v83h-2q-6 -10 -21.5 -15.5zM273 589h-51l105 141h78z" />
    <glyph glyph-name="acircumflex" unicode="&#xe2;" horiz-adv-x="519" 
d="M453 365v-274q0 -38 37 -38q10 0 20 4v-53q-20 -4 -40 -4q-41 0 -58 20t-17 67v3h-2q-26 -40 -53 -63t-59.5 -32.5t-75.5 -9.5q-52 0 -91 17.5t-60.5 51.5t-21.5 82q0 74 51 111q27 19 69.5 31t130.5 21q45 5 65 10t31 19t11 44q0 56 -34 81t-101 25q-64 0 -100 -30.5
t-38 -89.5h-63q5 85 59 129t151 44q189 0 189 -166zM366.5 266.5q-15.5 -5.5 -43.5 -9.5l-31 -5q-65 -8 -95 -16q-47 -12 -74.5 -33t-27.5 -63q0 -30 16 -53.5t42 -36t57 -12.5q51 0 92 20.5t64.5 57t23.5 83.5v83h-2q-6 -10 -21.5 -15.5zM408 589h-65l-86 102l-88 -102h-58
l114 141h69z" />
    <glyph glyph-name="atilde" unicode="&#xe3;" horiz-adv-x="519" 
d="M453 365v-274q0 -38 37 -38q10 0 20 4v-53q-20 -4 -40 -4q-41 0 -58 20t-17 67v3h-2q-26 -40 -53 -63t-59.5 -32.5t-75.5 -9.5q-52 0 -91 17.5t-60.5 51.5t-21.5 82q0 74 51 111q27 19 69.5 31t130.5 21q45 5 65 10t31 19t11 44q0 56 -34 81t-101 25q-64 0 -100 -30.5
t-38 -89.5h-63q5 85 59 129t151 44q189 0 189 -166zM366.5 266.5q-15.5 -5.5 -43.5 -9.5l-31 -5q-65 -8 -95 -16q-47 -12 -74.5 -33t-27.5 -63q0 -30 16 -53.5t42 -36t57 -12.5q51 0 92 20.5t64.5 57t23.5 83.5v83h-2q-6 -10 -21.5 -15.5zM117 658q12 22 31 35t43 13
q17 0 35 -5.5t42 -17.5q3 -2 15.5 -8t23 -9.5t19.5 -3.5q19 0 32 11t20 37h38q-8 -45 -31 -70t-56 -25q-18 0 -35 5.5t-38 16.5q-4 2 -17.5 9t-25.5 11t-22 4q-19 0 -31 -12t-19 -39h-39q3 26 15 48z" />
    <glyph glyph-name="adieresis" unicode="&#xe4;" horiz-adv-x="519" 
d="M453 365v-274q0 -38 37 -38q10 0 20 4v-53q-20 -4 -40 -4q-41 0 -58 20t-17 67v3h-2q-26 -40 -53 -63t-59.5 -32.5t-75.5 -9.5q-52 0 -91 17.5t-60.5 51.5t-21.5 82q0 74 51 111q27 19 69.5 31t130.5 21q45 5 65 10t31 19t11 44q0 56 -34 81t-101 25q-64 0 -100 -30.5
t-38 -89.5h-63q5 85 59 129t151 44q189 0 189 -166zM366.5 266.5q-15.5 -5.5 -43.5 -9.5l-31 -5q-65 -8 -95 -16q-47 -12 -74.5 -33t-27.5 -63q0 -30 16 -53.5t42 -36t57 -12.5q51 0 92 20.5t64.5 57t23.5 83.5v83h-2q-6 -10 -21.5 -15.5zM203 610h-68v101h68v-101zM380 610
h-68v101h68v-101z" />
    <glyph glyph-name="aring" unicode="&#xe5;" horiz-adv-x="519" 
d="M453 365v-274q0 -38 37 -38q10 0 20 4v-53q-20 -4 -40 -4q-41 0 -58 20t-17 67v3h-2q-26 -40 -53 -63t-59.5 -32.5t-75.5 -9.5q-52 0 -91 17.5t-60.5 51.5t-21.5 82q0 74 51 111q27 19 69.5 31t130.5 21q45 5 65 10t31 19t11 44q0 56 -34 81t-101 25q-64 0 -100 -30.5
t-38 -89.5h-63q5 85 59 129t151 44q189 0 189 -166zM366.5 266.5q-15.5 -5.5 -43.5 -9.5l-31 -5q-65 -8 -95 -16q-47 -12 -74.5 -33t-27.5 -63q0 -30 16 -53.5t42 -36t57 -12.5q51 0 92 20.5t64.5 57t23.5 83.5v83h-2q-6 -10 -21.5 -15.5zM310.5 772.5q24.5 -14.5 39 -39
t14.5 -53.5t-14.5 -53.5t-39 -39t-53.5 -14.5q-30 0 -54.5 15t-38.5 39.5t-14 52.5q0 29 14.5 53.5t39 39t53.5 14.5t53.5 -14.5zM208 631.5q19 -19.5 49 -19.5q29 0 48.5 19.5t19.5 48.5q0 18 -8.5 33.5t-24 25t-36.5 9.5q-18 0 -33.5 -8.5t-24.5 -24t-9 -35.5
q0 -29 19 -48.5z" />
    <glyph glyph-name="ae" unicode="&#xe6;" horiz-adv-x="870" 
d="M383.5 503q43.5 -28 51.5 -79h2q13 34 40.5 58t64.5 36.5t77 12.5q108 0 165 -75t57 -215h-388v-21q0 -55 20.5 -96t58.5 -63.5t89 -22.5q61 0 99.5 33t53.5 96h63q-20 -88 -78.5 -135t-146.5 -47q-70 0 -118 33t-71 97h-2q-8 -42 -42.5 -71.5t-81 -44t-92.5 -14.5
q-51 0 -90 17t-61 51t-22 83q0 78 54 113q22 15 48.5 24t66.5 15.5t109 13.5q28 3 44.5 8.5t26 19.5t9.5 41q0 54 -32 80.5t-103 26.5q-65 0 -100.5 -31t-37.5 -89h-63q4 84 58 128.5t151 44.5q77 0 120.5 -28zM758 384q-20 42 -57.5 68t-86.5 26q-47 0 -83.5 -23t-57 -63.5
t-20.5 -91.5v-6h325q0 48 -20 90zM371.5 268.5q-11.5 -5.5 -36.5 -9.5q-14 -2 -27 -4t-25 -4q-49 -7 -63 -10q-63 -12 -94 -35.5t-31 -65.5q0 -30 16 -53.5t42.5 -36t56.5 -12.5q52 0 93 21t64 57.5t23 81.5v84h-2q-5 -8 -16.5 -13.5z" />
    <glyph glyph-name="ccedilla" unicode="&#xe7;" horiz-adv-x="519" 
d="M382.5 509.5q44.5 -21.5 71 -61t33.5 -94.5h-63q-13 61 -50 92.5t-96 31.5q-58 0 -99 -31.5t-61.5 -82t-20.5 -106.5t20.5 -106.5t61.5 -82t99 -31.5q37 0 70 18.5t54.5 52t25.5 76.5h63q-8 -61 -36 -106t-72 -69t-100 -25l-32 -39q16 4 34 4q33 0 57.5 -17.5t24.5 -49.5
q0 -28 -15.5 -47.5t-41 -29t-53.5 -9.5q-53 0 -94 21l14 32q10 -5 33 -9.5t45 -4.5q26 0 40 11.5t14 31.5q0 17 -12.5 27.5t-31.5 10.5q-33 0 -50 -8l-16 15l50 63q-66 6 -114.5 43t-74.5 96.5t-26 131.5q0 74 28.5 136.5t83.5 99.5t132 37q60 0 104.5 -21.5z" />
    <glyph glyph-name="egrave" unicode="&#xe8;" horiz-adv-x="519" 
d="M389 496q51 -35 78 -97.5t27 -142.5v-15h-397q1 -53 20 -99.5t57 -75t93 -28.5q63 0 104.5 33.5t57.5 98.5h63q-22 -94 -77.5 -139.5t-147.5 -45.5q-76 0 -128 34.5t-78.5 96.5t-26.5 142q0 73 25.5 135.5t78 100t129.5 37.5q71 0 122 -35zM409 385q-20 42 -57 67.5
t-86 25.5q-45 0 -80.5 -22.5t-58.5 -64t-30 -97.5h334q-2 49 -22 91zM309 589h-51l-132 141h78z" />
    <glyph glyph-name="eacute" unicode="&#xe9;" horiz-adv-x="519" 
d="M389 496q51 -35 78 -97.5t27 -142.5v-15h-397q1 -53 20 -99.5t57 -75t93 -28.5q63 0 104.5 33.5t57.5 98.5h63q-22 -94 -77.5 -139.5t-147.5 -45.5q-76 0 -128 34.5t-78.5 96.5t-26.5 142q0 73 25.5 135.5t78 100t129.5 37.5q71 0 122 -35zM409 385q-20 42 -57 67.5
t-86 25.5q-45 0 -80.5 -22.5t-58.5 -64t-30 -97.5h334q-2 49 -22 91zM282 589h-51l105 141h78z" />
    <glyph glyph-name="ecircumflex" unicode="&#xea;" horiz-adv-x="519" 
d="M389 496q51 -35 78 -97.5t27 -142.5v-15h-397q1 -53 20 -99.5t57 -75t93 -28.5q63 0 104.5 33.5t57.5 98.5h63q-22 -94 -77.5 -139.5t-147.5 -45.5q-76 0 -128 34.5t-78.5 96.5t-26.5 142q0 73 25.5 135.5t78 100t129.5 37.5q71 0 122 -35zM409 385q-20 42 -57 67.5
t-86 25.5q-45 0 -80.5 -22.5t-58.5 -64t-30 -97.5h334q-2 49 -22 91zM417 589h-65l-86 102l-88 -102h-58l114 141h69z" />
    <glyph glyph-name="edieresis" unicode="&#xeb;" horiz-adv-x="519" 
d="M389 496q51 -35 78 -97.5t27 -142.5v-15h-397q1 -53 20 -99.5t57 -75t93 -28.5q63 0 104.5 33.5t57.5 98.5h63q-22 -94 -77.5 -139.5t-147.5 -45.5q-76 0 -128 34.5t-78.5 96.5t-26.5 142q0 73 25.5 135.5t78 100t129.5 37.5q71 0 122 -35zM409 385q-20 42 -57 67.5
t-86 25.5q-45 0 -80.5 -22.5t-58.5 -64t-30 -97.5h334q-2 49 -22 91zM212 610h-68v101h68v-101zM389 610h-68v101h68v-101z" />
    <glyph glyph-name="igrave" unicode="&#xec;" horiz-adv-x="185" 
d="M124 0h-63v516h63v-516zM134 589h-51l-132 141h78z" />
    <glyph glyph-name="iacute" unicode="&#xed;" horiz-adv-x="185" 
d="M124 0h-63v516h63v-516zM107 589h-51l105 141h78z" />
    <glyph glyph-name="icircumflex" unicode="&#xee;" horiz-adv-x="185" 
d="M124 0h-63v516h63v-516zM242 589h-65l-86 102l-88 -102h-58l114 141h69z" />
    <glyph glyph-name="idieresis" unicode="&#xef;" horiz-adv-x="185" 
d="M124 0h-63v516h63v-516zM38 610h-68v101h68v-101zM215 610h-68v101h68v-101z" />
    <glyph glyph-name="eth" unicode="&#xf0;" 
d="M205.5 726.5q20.5 -11.5 38.5 -23t38 -25.5l114 64l33 -32l-109 -61q96 -78 146 -177t50 -214q0 -77 -27 -138.5t-82 -98t-136 -36.5q-76 0 -129.5 33.5t-80.5 93t-27 137.5q0 71 28.5 129.5t82 93t126.5 34.5q47 0 81 -10.5t52 -29.5h2q-45 87 -133 157l-105 -59l-33 32
l100 56q-57 37 -93 55l36 35q7 -4 27.5 -15.5zM116.5 141.5q19.5 -47.5 59 -75.5t98.5 -28t99 27.5t60 75.5t20 109q0 53 -18.5 99t-58.5 75t-101 29q-57 0 -97 -25t-60.5 -71.5t-20.5 -108.5q0 -59 19.5 -106.5z" />
    <glyph glyph-name="ntilde" unicode="&#xf1;" horiz-adv-x="537" 
d="M433 483q45 -48 45 -148v-335h-63v323q0 77 -32 116t-99 39q-53 0 -89.5 -25.5t-54.5 -67t-18 -89.5v-296h-63v516h63v-89h2q12 31 37 54.5t58.5 36.5t70.5 13q98 0 143 -48zM127 658q12 22 31 35t43 13q17 0 35 -5.5t42 -17.5q3 -2 15.5 -8t23 -9.5t19.5 -3.5
q19 0 32 11t20 37h38q-8 -45 -31 -70t-56 -25q-18 0 -35 5.5t-38 16.5q-4 2 -17.5 9t-25.5 11t-22 4q-19 0 -31 -12t-19 -39h-39q3 26 15 48z" />
    <glyph glyph-name="ograve" unicode="&#xf2;" 
d="M409 494.5q55 -36.5 84 -99t29 -137.5q0 -76 -29 -138.5t-84.5 -98.5t-130.5 -36t-130.5 36.5t-84.5 98.5t-29 138t29 138t84.5 98.5t130.5 36.5q76 0 131 -36.5zM118.5 149.5q21.5 -50.5 62.5 -81t97 -30.5q57 0 98 31t62 81.5t21 107.5q0 56 -20.5 106.5t-62 82
t-99.5 31.5q-56 0 -96.5 -30.5t-62 -81t-21.5 -108.5t21.5 -108.5zM321 589h-51l-132 141h78z" />
    <glyph glyph-name="oacute" unicode="&#xf3;" 
d="M409 494.5q55 -36.5 84 -99t29 -137.5q0 -76 -29 -138.5t-84.5 -98.5t-130.5 -36t-130.5 36.5t-84.5 98.5t-29 138t29 138t84.5 98.5t130.5 36.5q76 0 131 -36.5zM118.5 149.5q21.5 -50.5 62.5 -81t97 -30.5q57 0 98 31t62 81.5t21 107.5q0 56 -20.5 106.5t-62 82
t-99.5 31.5q-56 0 -96.5 -30.5t-62 -81t-21.5 -108.5t21.5 -108.5zM294 589h-51l105 141h78z" />
    <glyph glyph-name="ocircumflex" unicode="&#xf4;" 
d="M409 494.5q55 -36.5 84 -99t29 -137.5q0 -76 -29 -138.5t-84.5 -98.5t-130.5 -36t-130.5 36.5t-84.5 98.5t-29 138t29 138t84.5 98.5t130.5 36.5q76 0 131 -36.5zM118.5 149.5q21.5 -50.5 62.5 -81t97 -30.5q57 0 98 31t62 81.5t21 107.5q0 56 -20.5 106.5t-62 82
t-99.5 31.5q-56 0 -96.5 -30.5t-62 -81t-21.5 -108.5t21.5 -108.5zM429 589h-65l-86 102l-88 -102h-58l114 141h69z" />
    <glyph glyph-name="otilde" unicode="&#xf5;" 
d="M409 494.5q55 -36.5 84 -99t29 -137.5q0 -76 -29 -138.5t-84.5 -98.5t-130.5 -36t-130.5 36.5t-84.5 98.5t-29 138t29 138t84.5 98.5t130.5 36.5q76 0 131 -36.5zM118.5 149.5q21.5 -50.5 62.5 -81t97 -30.5q57 0 98 31t62 81.5t21 107.5q0 56 -20.5 106.5t-62 82
t-99.5 31.5q-56 0 -96.5 -30.5t-62 -81t-21.5 -108.5t21.5 -108.5zM138 658q12 22 31 35t43 13q17 0 35 -5.5t42 -17.5q3 -2 15.5 -8t23 -9.5t19.5 -3.5q19 0 32 11t20 37h38q-8 -45 -31 -70t-56 -25q-18 0 -35 5.5t-38 16.5q-4 2 -17.5 9t-25.5 11t-22 4q-19 0 -31 -12
t-19 -39h-39q3 26 15 48z" />
    <glyph glyph-name="odieresis" unicode="&#xf6;" 
d="M409 494.5q55 -36.5 84 -99t29 -137.5q0 -76 -29 -138.5t-84.5 -98.5t-130.5 -36t-130.5 36.5t-84.5 98.5t-29 138t29 138t84.5 98.5t130.5 36.5q76 0 131 -36.5zM118.5 149.5q21.5 -50.5 62.5 -81t97 -30.5q57 0 98 31t62 81.5t21 107.5q0 56 -20.5 106.5t-62 82
t-99.5 31.5q-56 0 -96.5 -30.5t-62 -81t-21.5 -108.5t21.5 -108.5zM224 610h-68v101h68v-101zM401 610h-68v101h68v-101z" />
    <glyph glyph-name="divide" unicode="&#xf7;" horiz-adv-x="600" 
d="M339.5 492.5q16.5 -16.5 16.5 -39.5q0 -14 -8 -27t-20.5 -21t-26.5 -8q-23 0 -40 16.5t-17 39.5t16.5 39.5t39.5 16.5t39.5 -16.5zM552 225h-503v53h503v-53zM339.5 89.5q16.5 -16.5 16.5 -39.5q0 -14 -8 -27t-20.5 -21t-26.5 -8q-24 0 -40.5 16.5t-16.5 39.5
q0 24 16.5 40t39.5 16t39.5 -16.5z" />
    <glyph glyph-name="oslash" unicode="&#xf8;" 
d="M373.5 514q43.5 -17 74.5 -51l52 56l22 -20l-54 -59q27 -38 40.5 -84.5t13.5 -97.5q0 -75 -28.5 -137t-84 -99t-131.5 -37q-105 0 -168 68l-59 -64l-22 20l61 67q-27 35 -41.5 82t-14.5 100q0 76 29 138t84 98.5t131 36.5q52 0 95.5 -17zM133 123l273 295q-49 60 -129 60
q-56 0 -96.5 -31t-62 -81.5t-21.5 -107.5q0 -76 36 -135zM206 53.5q32 -15.5 72 -15.5q58 0 99 32t61.5 82.5t20.5 105.5q0 38 -9 72t-26 62l-273 -295q23 -28 55 -43.5z" />
    <glyph glyph-name="ugrave" unicode="&#xf9;" horiz-adv-x="537" 
d="M122 193q0 -49 11.5 -83t41.5 -53t84 -19q52 0 87 28.5t52 76t17 103.5v270h63v-516h-58v93h-2q-25 -51 -72 -79.5t-106 -28.5q-94 0 -137.5 50.5t-43.5 145.5v335h63v-323zM310 589h-51l-132 141h78z" />
    <glyph glyph-name="uacute" unicode="&#xfa;" horiz-adv-x="537" 
d="M122 193q0 -49 11.5 -83t41.5 -53t84 -19q52 0 87 28.5t52 76t17 103.5v270h63v-516h-58v93h-2q-25 -51 -72 -79.5t-106 -28.5q-94 0 -137.5 50.5t-43.5 145.5v335h63v-323zM283 589h-51l105 141h78z" />
    <glyph glyph-name="ucircumflex" unicode="&#xfb;" horiz-adv-x="537" 
d="M122 193q0 -49 11.5 -83t41.5 -53t84 -19q52 0 87 28.5t52 76t17 103.5v270h63v-516h-58v93h-2q-25 -51 -72 -79.5t-106 -28.5q-94 0 -137.5 50.5t-43.5 145.5v335h63v-323zM418 589h-65l-86 102l-88 -102h-58l114 141h69z" />
    <glyph glyph-name="udieresis" unicode="&#xfc;" horiz-adv-x="537" 
d="M122 193q0 -49 11.5 -83t41.5 -53t84 -19q52 0 87 28.5t52 76t17 103.5v270h63v-516h-58v93h-2q-25 -51 -72 -79.5t-106 -28.5q-94 0 -137.5 50.5t-43.5 145.5v335h63v-323zM213 610h-68v101h68v-101zM390 610h-68v101h68v-101z" />
    <glyph glyph-name="yacute" unicode="&#xfd;" horiz-adv-x="463" 
d="M239 76l159 440h63l-224 -595q-25 -63 -48 -85q-15 -14 -35 -20.5t-50 -6.5q-36 0 -51 5v53q25 -5 43 -5q21 0 35.5 6.5t24.5 18.5q11 15 21 36.5t31 78.5l-206 514h67zM252 589h-51l105 141h78z" />
    <glyph glyph-name="thorn" unicode="&#xfe;" horiz-adv-x="574" 
d="M123 418h2q12 34 38.5 60t63.5 39.5t78 13.5q73 0 125.5 -35.5t79 -97.5t26.5 -140t-27 -140t-79 -97.5t-125 -35.5q-41 0 -77.5 13.5t-63.5 39t-39 60.5h-2v-289h-63v905h63v-296zM202.5 448q-40.5 -30 -60 -80t-19.5 -110q0 -59 19 -108.5t59.5 -80.5t102.5 -31
q57 0 95 31.5t56 81.5t18 107t-18 107t-56 81.5t-96 31.5q-60 0 -100.5 -30z" />
    <glyph glyph-name="ydieresis" unicode="&#xff;" horiz-adv-x="463" 
d="M239 76l159 440h63l-224 -595q-25 -63 -48 -85q-15 -14 -35 -20.5t-50 -6.5q-36 0 -51 5v53q25 -5 43 -5q21 0 35.5 6.5t24.5 18.5q11 15 21 36.5t31 78.5l-206 514h67zM182 610h-68v101h68v-101zM359 610h-68v101h68v-101z" />
    <glyph glyph-name="Gbreve" unicode="&#x11e;" horiz-adv-x="741" 
d="M515 701.5q63 -27.5 104 -81t54 -128.5h-68q-5 45 -35.5 86t-81.5 67t-113 26q-90 0 -150.5 -44.5t-89.5 -116t-29 -153.5q0 -83 29 -154.5t89.5 -115.5t150.5 -44q73 0 129 31t87 89t31 136v6h-243v58h303v-363h-49l-9 130h-2q-33 -70 -97.5 -107.5t-149.5 -37.5
q-107 0 -183 50t-115 134.5t-39 187.5q0 101 38.5 185.5t114.5 135.5t184 51q77 0 140 -27.5zM286.5 870.5q14.5 -18.5 37.5 -28.5t50 -10q40 0 70 22.5t36 59.5h39q-8 -59 -46.5 -93t-98.5 -34q-62 0 -99.5 34t-42.5 93h39q1 -25 15.5 -43.5z" />
    <glyph glyph-name="gbreve" unicode="&#x11f;" 
d="M335.5 517.5q32.5 -13.5 57.5 -37t38 -53.5h2v89h63v-476q0 -123 -56 -184.5t-172 -61.5q-58 0 -105.5 18t-77 53.5t-32.5 84.5h63q8 -49 48 -76t103 -27q86 0 126 49t40 144v72h-2q-22 -50 -66 -78t-98 -28q-76 0 -128.5 32.5t-78.5 92t-26 140.5q0 74 28.5 133.5
t81.5 93t123 33.5q36 0 68.5 -13.5zM116 162.5q19 -46.5 57.5 -75t93.5 -28.5q50 0 87.5 27.5t58 74.5t20.5 103t-17.5 104.5t-55.5 79t-94 30.5q-52 0 -90.5 -27.5t-58.5 -76t-20 -110.5q0 -55 19 -101.5zM187.5 680.5q14.5 -18.5 37.5 -28.5t50 -10t49.5 10t38 29t18.5 43
h39q-8 -59 -46.5 -93t-98.5 -34q-62 0 -99.5 34.5t-42.5 92.5h39q1 -25 15.5 -43.5z" />
    <glyph glyph-name="Idotaccent" unicode="&#x130;" horiz-adv-x="222" 
d="M145 0h-68v714h68v-714zM145 800h-68v101h68v-101z" />
    <glyph glyph-name="dotlessi" unicode="&#x131;" horiz-adv-x="185" 
d="M124 0h-63v516h63v-516z" />
    <glyph glyph-name="Lslash" unicode="&#x141;" horiz-adv-x="537" 
d="M140 353l243 168v-56l-243 -167v-240h400v-58h-468v251l-82 -57v56l82 56v408h68v-361z" />
    <glyph glyph-name="lslash" unicode="&#x142;" horiz-adv-x="185" 
d="M124 447l67 55v-55l-67 -55v-392h-63v340l-67 -55v55l67 55v319h63v-267z" />
    <glyph glyph-name="OE" unicode="&#x152;" horiz-adv-x="1074" 
d="M486 710q50 -19 83 -55v59h474v-58h-406v-258h368v-58h-368v-282h409v-58h-477v70q-34 -40 -86.5 -62.5t-107.5 -22.5q-103 0 -179.5 50.5t-117.5 135.5t-41 186q0 99 40.5 184.5t117 136.5t180.5 51q61 0 111 -19zM136 201.5q31 -71.5 92 -115t147 -43.5q50 0 83.5 11.5
t58.5 32.5q30 25 41 45.5t11 49.5v331q0 50 -5 62q-10 27 -40.5 49t-70.5 34.5t-78 12.5q-85 0 -146 -43t-92.5 -115t-31.5 -156t31 -155.5z" />
    <glyph glyph-name="oe" unicode="&#x153;" horiz-adv-x="889" 
d="M384 498q47 -33 66 -94h2q21 58 71.5 92.5t119.5 34.5q110 0 165 -71.5t55 -218.5h-384q1 -57 19 -103t54.5 -73t88.5 -27q121 0 158 128h63q-21 -87 -80 -134t-148 -47q-45 0 -83.5 16.5t-65 46t-35.5 68.5h-2q-18 -63 -67 -97t-118 -34q-76 0 -127 36t-75.5 97.5
t-24.5 139.5q0 71 24.5 133.5t76.5 101t129 38.5q71 0 118 -33zM117.5 140.5q18.5 -47.5 55.5 -75t91 -27.5q75 0 113.5 56t38.5 168q0 216 -152 216q-56 0 -93 -30t-54.5 -82t-17.5 -119q0 -59 18.5 -106.5zM781.5 385q-18.5 42 -55 67.5t-87.5 25.5q-46 0 -82.5 -22.5
t-57 -64t-20.5 -97.5h321q0 49 -18.5 91z" />
    <glyph glyph-name="Scedilla" unicode="&#x15e;" horiz-adv-x="630" 
d="M441 702.5q60 -26.5 94 -77t34 -118.5h-68q-2 51 -28 88t-70 56.5t-97 19.5q-82 0 -130.5 -35.5t-48.5 -106.5q0 -82 99 -107l175 -43q104 -25 148.5 -72t44.5 -118q0 -45 -18.5 -83t-48.5 -63q-36 -30 -89 -44t-114 -14l-32 -39q16 4 34 4q35 0 58.5 -18t23.5 -49
q0 -28 -15.5 -47.5t-41 -29t-53.5 -9.5q-53 0 -94 21l14 32q10 -5 33 -9.5t45 -4.5q25 0 39.5 11t14.5 32q0 17 -12 27.5t-32 10.5q-32 0 -50 -8l-16 15l50 62q-122 8 -188 67.5t-66 164.5v17h68v-6q0 -94 59 -140t173 -46q44 0 88 16t73 49t29 80q0 92 -139 127l-167 41
q-83 20 -122 62t-39 109q0 43 21.5 89t76.5 79.5t148 33.5q76 0 136 -26.5z" />
    <glyph glyph-name="scedilla" unicode="&#x15f;" horiz-adv-x="481" 
d="M340 511.5q42 -19.5 66 -56.5t26 -90h-63q-1 53 -38 83t-97 30q-32 0 -59.5 -9t-45 -29t-17.5 -51t28 -53.5t88 -35.5l89 -20q58 -13 95.5 -47t37.5 -93q0 -49 -26.5 -83t-71.5 -52t-100 -20l-32 -39q18 4 34 4q33 0 57.5 -17.5t24.5 -49.5q0 -28 -16 -47.5t-41.5 -29
t-52.5 -9.5q-53 0 -94 21l14 32q13 -5 35 -9.5t44 -4.5q24 0 38.5 11t14.5 32q0 17 -12 27.5t-32 10.5q-32 0 -50 -8l-16 15l49 62q-84 6 -131.5 52t-54.5 129h63q2 -40 21 -69t53 -44.5t78 -15.5q35 0 67 10.5t53 32.5t21 55q0 37 -28 59t-90 36l-67 15q-56 13 -89.5 31
t-48.5 44.5t-15 64.5q0 49 28 81.5t72 48t94 15.5q55 0 97 -19.5z" />
    <glyph glyph-name="Scaron" unicode="&#x160;" horiz-adv-x="630" 
d="M440 702.5q60 -26.5 94.5 -76.5t34.5 -119h-68q-2 52 -28.5 89t-70 56t-97.5 19q-79 0 -128.5 -35t-49.5 -107q0 -49 29.5 -73t70.5 -34l174 -43q102 -25 147.5 -71t45.5 -119q0 -45 -21.5 -91t-82.5 -79.5t-169 -33.5q-88 0 -152 26.5t-98.5 78.5t-34.5 127v18h68v-6
q0 -95 60.5 -140.5t170.5 -45.5q44 0 88 16t73.5 48.5t29.5 80.5t-36 79t-107 49l-163 40q-82 20 -121.5 61t-39.5 111q0 46 23.5 92t78.5 77.5t143 31.5q76 0 136 -26.5zM317 818l88 102h58l-114 -141h-69l-114 141h65z" />
    <glyph glyph-name="scaron" unicode="&#x161;" horiz-adv-x="481" 
d="M340 511.5q42 -19.5 66 -57t26 -89.5h-63q-1 53 -37.5 83t-97.5 30q-50 0 -86 -21.5t-36 -67.5q0 -33 29 -54.5t87 -34.5l66 -15q40 -9 73 -22.5t58 -43.5t25 -79q0 -53 -30.5 -88t-77.5 -51t-99 -16q-96 0 -150 45.5t-62 136.5h63q4 -61 44.5 -95t107.5 -34
q35 0 67.5 10.5t53 32.5t20.5 54q0 39 -29 61t-93 36l-67 15q-77 18 -113 50t-36 89q0 50 28.5 82.5t72.5 47.5t93 15q55 0 97 -19.5zM247 628l88 102h58l-114 -141h-69l-114 141h65z" />
    <glyph glyph-name="Ydieresis" unicode="&#x178;" horiz-adv-x="611" 
d="M306 352l234 362h81l-282 -420v-294h-68v294l-281 420h81zM252 800h-68v101h68v-101zM429 800h-68v101h68v-101z" />
    <glyph glyph-name="Zcaron" unicode="&#x17d;" horiz-adv-x="574" 
d="M551 654l-470 -596h480v-58h-556v60l470 596h-438v58h514v-60zM289 818l88 102h58l-114 -141h-69l-114 141h65z" />
    <glyph glyph-name="zcaron" unicode="&#x17e;" horiz-adv-x="463" 
d="M432 471l-341 -418h355v-53h-431v51l337 412h-314v53h394v-45zM234 628l88 102h58l-114 -141h-69l-114 141h65z" />
    <glyph glyph-name="uni018F" unicode="&#x18f;" horiz-adv-x="718" 
d="M185 32q-73 47 -112 131.5t-39 194.5v15h583q-1 89 -32 156t-89.5 104t-139.5 37q-71 0 -125 -27.5t-86.5 -78t-40.5 -116.5h-68q10 81 53 145t112 100t155 36q99 0 173.5 -47.5t114.5 -132t40 -193.5t-40 -193t-114.5 -131t-173.5 -47q-98 0 -171 47zM136 174.5
q30 -62.5 86.5 -97t134.5 -34.5q76 0 133 34.5t89 97t38 145.5h-513q2 -83 32 -145.5z" />
    <glyph glyph-name="florin" unicode="&#x192;" 
d="M490 709l-12 -52q-21 4 -41 4q-38 0 -59.5 -18.5t-33 -49.5t-22.5 -87l-14 -67h113l-9 -53h-113l-70 -370q-11 -60 -25 -94.5t-35 -55.5q-39 -39 -110 -39q-24 0 -52 5l9 54q27 -6 49 -6q38 0 62 31t35 92l73 383h-100l9 53h101l11 58q15 79 31.5 123t49.5 69t92 25
q26 0 61 -5z" />
    <glyph glyph-name="uni0259" unicode="&#x259;" horiz-adv-x="519" 
d="M131 17.5q-52 34.5 -79 96.5t-27 144v15h398q-1 53 -19.5 99.5t-56 75t-91.5 28.5q-66 0 -107.5 -33.5t-58.5 -98.5h-63q22 94 78.5 139.5t150.5 45.5q73 0 124.5 -35t78 -97t26.5 -141q0 -73 -25.5 -135.5t-77.5 -100t-126 -37.5q-73 0 -125 34.5zM112.5 129
q20.5 -42 58 -67.5t86.5 -25.5q43 0 78 22.5t58 64.5t30 97h-333q2 -49 22.5 -91z" />
    <glyph glyph-name="circumflex" unicode="&#x2c6;" horiz-adv-x="185" 
d="M244 589h-65l-86 102l-88 -102h-58l114 141h69z" />
    <glyph glyph-name="caron" unicode="&#x2c7;" horiz-adv-x="185" 
d="M91 628l88 102h58l-114 -141h-69l-114 141h65z" />
    <glyph glyph-name="breve" unicode="&#x2d8;" horiz-adv-x="185" 
d="M3.5 680.5q14.5 -18.5 37.5 -28.5t50 -10t49.5 10t38 29t18.5 43h39q-8 -59 -46.5 -93t-98.5 -34q-62 0 -99.5 34.5t-42.5 92.5h39q1 -25 15.5 -43.5z" />
    <glyph glyph-name="dotaccent" unicode="&#x2d9;" horiz-adv-x="185" 
d="M127 610h-68v101h68v-101z" />
    <glyph glyph-name="ring" unicode="&#x2da;" horiz-adv-x="185" 
d="M146.5 772.5q24.5 -14.5 39 -39t14.5 -53.5t-14.5 -53.5t-39 -39t-53.5 -14.5q-30 0 -54.5 15t-38.5 39.5t-14 52.5q0 29 14.5 53.5t39 39t53.5 14.5t53.5 -14.5zM44 631.5q19 -19.5 49 -19.5q29 0 48.5 19.5t19.5 48.5q0 18 -8.5 33.5t-24 25t-36.5 9.5
q-18 0 -33.5 -8.5t-24.5 -24t-9 -35.5q0 -29 19 -48.5z" />
    <glyph glyph-name="ogonek" unicode="&#x2db;" horiz-adv-x="185" 
d="M136.5 -48.5q-17.5 -19.5 -23.5 -35t-6 -33.5q0 -22 12.5 -34.5t31.5 -12.5q15 0 29.5 10.5t25.5 30.5l29 -13q-16 -35 -39 -51t-59 -16q-43 0 -67 22.5t-24 60.5q0 29 24 57t81 63h38q-35 -29 -52.5 -48.5z" />
    <glyph glyph-name="tilde" unicode="&#x2dc;" horiz-adv-x="185" 
d="M-50 658q12 22 31 35t43 13q17 0 35 -5.5t42 -17.5q3 -2 15.5 -8t23 -9.5t19.5 -3.5q19 0 32 11t20 37h38q-8 -45 -31 -70t-56 -25q-18 0 -35 5.5t-38 16.5q-4 2 -17.5 9t-25.5 11t-22 4q-19 0 -31 -12t-19 -39h-39q3 26 15 48z" />
    <glyph glyph-name="hungarumlaut" unicode="&#x2dd;" horiz-adv-x="185" 
d="M18 589h-51l101 141h76zM174 589h-51l101 141h76z" />
    <glyph glyph-name="uni0394" unicode="&#x394;" horiz-adv-x="630" 
d="M637 0h-644l288 714h76zM541 58l-225 588l-228 -588h453z" />
    <glyph glyph-name="uni03A9" unicode="&#x3a9;" horiz-adv-x="759" 
d="M555 682q76 -47 117.5 -124.5t41.5 -165.5q0 -102 -43 -186.5t-128 -143.5v-4h182v-58h-264v60q94 66 139 146.5t45 185.5q0 78 -32.5 141.5t-92.5 100.5t-139 37q-81 0 -141.5 -34.5t-94 -97.5t-33.5 -146q0 -102 46.5 -185t141.5 -148v-60h-266v58h178v4
q-82 57 -125.5 141.5t-43.5 188.5q0 96 43 173t120 120.5t175 43.5t174 -47z" />
    <glyph glyph-name="uni03BC" unicode="&#x3bc;" horiz-adv-x="537" 
d="M122 190q0 -77 31 -114.5t106 -37.5q49 0 84 26.5t53.5 74t18.5 110.5v267h63v-516h-58v93h-2q-24 -51 -72 -79.5t-106 -28.5q-34 0 -65 9t-53 26v-211h-63v707h63v-326z" />
    <glyph glyph-name="pi" unicode="&#x3c0;" horiz-adv-x="591" 
d="M564 463h-82v-371q0 -18 10 -28.5t32 -10.5q8 0 15.5 1t11.5 3v-53q-19 -4 -51 -4q-43 0 -62 21.5t-19 66.5v375h-258v-463h-63v463h-75v53h541v-53z" />
    <glyph glyph-name="uni10D0" unicode="&#x10d0;" horiz-adv-x="501" 
d="M137 12q-47 27 -71.5 72.5t-24.5 101.5q0 43 18 85h60q-15 -39 -15 -79q0 -41 17 -76t50 -56.5t79 -21.5q45 0 78.5 21.5t50.5 56.5t17 74q0 43 -12.5 74.5t-32.5 54t-51 47.5q-30 24 -49.5 43.5t-33 46t-13.5 59.5h63q2 -24 14 -44.5t27.5 -36t39.5 -34.5
q35 -28 58.5 -55.5t38 -65t14.5 -87.5q0 -54 -25 -101.5t-72.5 -76.5t-111.5 -29q-66 0 -113 27z" />
    <glyph glyph-name="uni10D1" unicode="&#x10d1;" horiz-adv-x="550" 
d="M151 19.5q-53 34.5 -81 94.5t-28 136q0 72 25 129.5t74.5 93t120.5 39.5v53q0 24 -8.5 40.5t-20 25.5t-31.5 22q-19 11 -31.5 24t-21 34.5t-8.5 53.5h62q0 -29 12.5 -47t36.5 -33t38 -26.5t24.5 -32.5t10.5 -52v-65q56 -11 97.5 -47t63.5 -91t22 -121q0 -74 -27 -134.5
t-80 -95.5t-126 -35q-71 0 -124 34.5zM367.5 67.5q38.5 29.5 58 78t19.5 104.5q0 57 -19.5 105t-58 76.5t-92.5 28.5q-53 0 -91.5 -29t-58.5 -77t-20 -104q0 -57 19.5 -105.5t58 -77.5t92.5 -29t92.5 29.5z" />
    <glyph glyph-name="uni10D2" unicode="&#x10d2;" horiz-adv-x="512" 
d="M140.5 -186.5q-51.5 28.5 -81 83t-29.5 128.5q0 67 27 116.5t73 79.5t104 42q54 11 82.5 37.5t28.5 66.5q0 29 -13 51.5t-35 35t-49 12.5q-26 0 -48.5 -13.5t-36 -38t-13.5 -57.5h-61q0 49 22 85t58 54.5t77 18.5q45 0 81.5 -18.5t57 -51t20.5 -73.5q0 -44 -25.5 -75.5
t-69.5 -47.5v-4q50 -6 89 -35.5t61 -77t22 -107.5q0 -72 -29 -126.5t-80.5 -84t-116.5 -29.5q-64 0 -115.5 28.5zM341.5 -138q36.5 24 57 66.5t20.5 96.5q0 55 -20.5 96.5t-57.5 64.5t-85 23q-47 0 -84.5 -23.5t-58 -65.5t-20.5 -95q0 -55 20.5 -97.5t58 -66t85.5 -23.5
t84.5 24z" />
    <glyph glyph-name="uni10D3" unicode="&#x10d3;" horiz-adv-x="811" 
d="M452 -141.5q-27 25.5 -71.5 39t-100.5 13.5h-156v48h100v3q-52 15 -93 53.5t-65 99.5t-24 141q0 79 21 137.5t61 90t94 31.5q57 0 97.5 -31.5t52.5 -91.5h4q23 60 71.5 91.5t112.5 31.5q62 0 110.5 -33t75.5 -90.5t27 -128.5q0 -70 -26.5 -126.5t-76 -89t-116.5 -32.5
t-116 31.5t-75 88t-26 128.5v62q0 40 -14 71.5t-38.5 48.5t-56.5 17q-58 0 -88.5 -55t-30.5 -151q0 -90 33.5 -152.5t87.5 -97.5t116 -46q195 -35 202 -160h-62q-3 33 -30 58.5zM635.5 95q35.5 27 53 71.5t17.5 96.5q0 54 -18 99.5t-53 72.5t-85 27q-48 0 -83 -26
t-53.5 -71.5t-18.5 -101.5q0 -53 18 -97.5t53 -71t85 -26.5q49 0 84.5 27z" />
    <glyph glyph-name="uni10D4" unicode="&#x10d4;" horiz-adv-x="520" 
d="M135.5 -188q-48.5 27 -74 76t-25.5 114q0 26 6.5 52t16.5 47h59q-8 -21 -13.5 -47t-5.5 -46q0 -51 17.5 -89t52 -59t82.5 -21q73 0 112 49.5t39 141.5v253q0 81 -34.5 130t-104.5 49q-44 0 -75 -17.5t-47.5 -47.5t-16.5 -66q0 -31 6 -57h-62q-3 8 -5 25.5t-2 33.5
q0 47 24.5 89t70 67.5t107.5 25.5q66 0 111.5 -30.5t68 -83t22.5 -116.5v-260q0 -77 -25.5 -130.5t-73.5 -81.5t-115 -28t-115.5 27z" />
    <glyph glyph-name="uni10D5" unicode="&#x10d5;" horiz-adv-x="516" 
d="M143 -187.5q-51 27.5 -79 76t-28 108.5q0 46 19 93h61q-8 -20 -12.5 -44t-4.5 -43q0 -48 20.5 -85.5t57 -58.5t84.5 -21q46 0 82 21t55.5 58.5t19.5 83.5q0 50 -18.5 85t-50.5 53t-73 18h-47v54h47q37 0 63.5 17t40 44.5t13.5 59.5q0 34 -16 64t-45.5 48t-69.5 18
q-43 0 -74 -17.5t-47.5 -48t-16.5 -67.5q0 -11 1.5 -23t3.5 -21h-63q-5 18 -5 46q0 50 24 92t70 67t107 25q59 0 103 -25.5t67.5 -67t23.5 -87.5q0 -56 -25 -94.5t-72 -54.5v-4q55 -16 88.5 -61.5t33.5 -120.5q0 -59 -27 -108t-77 -78t-116 -29q-67 0 -118 27.5z" />
    <glyph glyph-name="uni10D6" unicode="&#x10d6;" horiz-adv-x="597" 
d="M197.5 18.5q-52.5 33.5 -80.5 93t-28 135.5q0 115 73 183v3q-43 1 -76.5 23t-52 59t-18.5 83q0 47 21.5 85t59 60t84.5 22q46 0 84 -21.5t59.5 -58.5t21.5 -81q0 -29 -11.5 -56t-32.5 -45v-3q5 2 17 4t21 2q61 0 110 -34t77.5 -93t28.5 -132q0 -74 -27.5 -133.5t-80 -94
t-125.5 -34.5q-72 0 -124.5 33.5zM234.5 493.5q24.5 15.5 38.5 43t14 61.5q0 31 -13 58t-37.5 43.5t-57.5 16.5q-32 0 -56.5 -16.5t-37.5 -43.5t-13 -58q0 -33 13 -60.5t37 -43.5t57 -16q31 0 55.5 15.5zM414.5 67q38.5 29 58 76.5t19.5 103.5q0 57 -20 104t-58.5 74.5
t-92.5 27.5q-53 0 -91 -28t-58 -75t-20 -103q0 -57 19.5 -104.5t58 -76t92.5 -28.5t92.5 29z" />
    <glyph glyph-name="uni10D7" unicode="&#x10d7;" horiz-adv-x="838" 
d="M714.5 122q18.5 63 18.5 134q0 65 -15 111.5t-43.5 71t-67.5 24.5q-34 0 -59.5 -18t-40 -51.5t-14.5 -79.5v-64q0 -75 -25.5 -135t-76.5 -95t-124 -35q-71 0 -122 34t-77 94.5t-26 136.5q0 73 26.5 133.5t76.5 96t118 35.5q65 0 114 -30.5t77 -95.5h3q17 64 58.5 95
t97.5 31q55 0 96.5 -31.5t64 -90t22.5 -137.5q0 -74 -17 -136.5t-53 -119.5h-66q36 59 54.5 122zM357.5 66.5q36.5 28.5 55 77t18.5 106.5q0 62 -19.5 110t-56.5 75t-88 27q-53 0 -89.5 -28.5t-54.5 -76.5t-18 -107t18.5 -107t55 -76.5t89.5 -28.5t89.5 28.5z" />
    <glyph glyph-name="uni10D8" unicode="&#x10d8;" horiz-adv-x="515" 
d="M393.5 120.5q16.5 60.5 16.5 133.5q0 60 -17.5 107t-51.5 73.5t-83 26.5q-50 0 -84 -26.5t-51.5 -73.5t-17.5 -107q0 -72 16.5 -132.5t48.5 -121.5h-63q-32 56 -48.5 117t-16.5 137q0 80 26.5 139t75.5 90.5t114 31.5t113.5 -31.5t75 -90.5t26.5 -139q0 -76 -16.5 -137
t-48.5 -117h-63q32 60 48.5 120.5z" />
    <glyph glyph-name="uni10D9" unicode="&#x10d9;" horiz-adv-x="504" 
d="M138.5 -187q-50.5 28 -78 76.5t-27.5 107.5q0 49 18 93h60q-7 -19 -11 -42.5t-4 -44.5q0 -48 19.5 -85.5t55.5 -58.5t84 -21q46 0 81 21.5t53.5 60.5t18.5 88q0 50 -18.5 88.5t-51.5 59.5t-77 21h-55v54h56q37 0 62.5 15.5t38 41t12.5 55.5q0 45 -22 74t-65 39v52
q49 -6 83 -29.5t50.5 -57.5t16.5 -73q0 -52 -23.5 -88t-67.5 -52v-4q37 -10 65 -36.5t43.5 -67.5t15.5 -93q0 -63 -26.5 -113.5t-75.5 -79.5t-114 -29q-66 0 -116.5 28z" />
    <glyph glyph-name="uni10DA" unicode="&#x10da;" horiz-adv-x="946" 
d="M560.5 -133q-37.5 26 -91.5 38t-115 12h-214v48h101v3q-54 15 -99 53.5t-72 99t-27 135.5q0 122 43 190.5t126 68.5q48 0 82 -28t48 -83h4q11 55 45.5 83t82.5 28q101 0 126 -111h4q13 55 49 83t83 28q55 0 92.5 -32t56 -89.5t18.5 -135.5q0 -61 -11.5 -114t-34.5 -100
h-65q48 93 48 212q0 99 -28 152.5t-82 53.5q-29 0 -51 -17.5t-34 -48t-12 -69.5v-183h-62v183q0 62 -25.5 98.5t-71.5 36.5q-47 0 -73 -37.5t-26 -97.5v-183h-62v183q0 40 -12 70.5t-33.5 47.5t-51.5 17q-55 0 -82.5 -54t-27.5 -152q0 -88 39 -149.5t96 -94t114 -40.5l29 -4
q51 -6 89 -12.5t67 -17.5q122 -43 131 -138h-65q-8 41 -45.5 67z" />
    <glyph glyph-name="uni10DB" unicode="&#x10db;" horiz-adv-x="555" 
d="M473 111.5q-27 -59.5 -78 -93t-121 -33.5q-71 0 -123.5 33.5t-80.5 93.5t-28 138q0 79 28 137.5t78.5 90t114.5 31.5q122 0 172 -97h2v121q0 56 -19 96.5t-53 61t-80 20.5q-45 0 -80 -17t-54 -46t-19 -64h-63q0 47 27 89t76 67t112 25q66 0 115 -28.5t75 -80t26 -118.5
v-289q0 -78 -27 -137.5zM360.5 64.5q36.5 26.5 56.5 74.5t20 109q0 101 -43 154.5t-124 53.5q-50 0 -87.5 -26t-57.5 -73t-20 -109q0 -60 20.5 -108t58.5 -75t90 -27q50 0 86.5 26.5z" />
    <glyph glyph-name="uni10DC" unicode="&#x10dc;" horiz-adv-x="555" 
d="M120 419q22 44 65.5 70t105.5 26q64 0 114.5 -32.5t79 -92.5t28.5 -139t-28 -139t-80.5 -93.5t-122.5 -33.5t-121.5 33.5t-78.5 93t-27 138.5v323q0 92 46.5 134.5t143.5 42.5h215v-53h-212q-47 0 -75 -12t-41.5 -39.5t-13.5 -74.5v-152h2zM371 65q38 27 58 75t20 109
q0 62 -20 110.5t-57 75.5t-87 27q-80 0 -123.5 -55.5t-43.5 -157.5q0 -62 20 -110t56.5 -74.5t86.5 -26.5q52 0 90 27z" />
    <glyph glyph-name="uni10DD" unicode="&#x10dd;" horiz-adv-x="719" 
d="M595.5 122q18.5 63 18.5 134q0 65 -15 111t-42.5 70t-65.5 24q-29 0 -52.5 -18.5t-36.5 -50t-13 -69.5v-179h-62v179q0 40 -13 71.5t-35.5 49t-51.5 17.5q-58 0 -90 -54t-32 -151q0 -68 18.5 -134t52.5 -122h-64q-35 58 -52.5 122t-17.5 138q0 78 20.5 135.5t60.5 88.5
t95 31q51 0 86.5 -29t51.5 -85h4q17 55 54 84.5t85 29.5q55 0 95 -32t61.5 -90t21.5 -135q0 -75 -18 -138.5t-54 -119.5h-65q37 59 55.5 122z" />
    <glyph glyph-name="uni10DE" unicode="&#x10de;" horiz-adv-x="516" 
d="M141 12.5q-51 27.5 -79.5 74.5t-28.5 102q0 41 14 78h61q-12 -38 -12 -71q0 -44 20 -80t56.5 -57t84.5 -21q46 0 81 22t54 60t19 84q0 50 -19.5 88t-53.5 59t-76 21h-44v53h52q53 0 79.5 23t26.5 62q0 27 -13 47t-33 33t-50 27q-108 50 -108 133h64q0 -32 23.5 -53.5
t63.5 -41.5q53 -26 84.5 -59t31.5 -86q0 -41 -21.5 -69.5t-67.5 -41.5v-3q31 -9 59 -33.5t46.5 -65t18.5 -94.5q0 -59 -27 -109t-76 -79.5t-114 -29.5t-116 27.5z" />
    <glyph glyph-name="uni10DF" unicode="&#x10df;" horiz-adv-x="538" 
d="M153 -187.5q-49 27.5 -75.5 76t-26.5 110.5q0 16 3.5 34t8.5 32h61q-4 -12 -6.5 -31.5t-2.5 -31.5q0 -50 18.5 -87t52.5 -56.5t81 -19.5q72 0 112.5 50t40.5 145v425l-228 -35v-3q37 -15 58.5 -46.5t21.5 -67.5q0 -37 -21 -67t-57.5 -46.5t-80.5 -16.5h-71v51h64
q50 0 78 22.5t28 64.5q0 26 -14 47.5t-36.5 34t-48.5 12.5v50l306 48h64v-476q0 -77 -26.5 -132.5t-75.5 -84.5t-114 -29t-114 27.5z" />
    <glyph glyph-name="uni10E0" unicode="&#x10e0;" horiz-adv-x="718" 
d="M595 121q18 63 18 135q0 98 -32 151t-89 53q-29 0 -52.5 -18t-36.5 -49.5t-13 -69.5v-179h-63v179q0 40 -12.5 71t-35.5 48.5t-52 17.5q-35 0 -62 -22.5t-43 -68t-16 -113.5t18.5 -134t52.5 -122h-66q-36 59 -52 128.5t-16 177.5q0 120 31.5 199.5t92 124.5t152.5 64
l84 17q60 12 72 39h64q-6 -40 -40 -61t-100 -34l-77 -15q-93 -18 -148 -72.5t-76 -155.5h3q17 49 51 75t75 26q50 0 81.5 -28t48.5 -85h3q18 56 54.5 84.5t85.5 28.5q55 0 94.5 -31.5t60.5 -89t21 -134.5q0 -76 -16.5 -138.5t-51.5 -119.5h-67q36 58 54 121z" />
    <glyph glyph-name="uni10E1" unicode="&#x10e1;" horiz-adv-x="538" 
d="M159 14q-50 29 -77 83t-27 128v525h63v-522q0 -56 19 -99t54.5 -66.5t85.5 -23.5q49 0 84 21.5t53.5 57.5t18.5 78q0 50 -16.5 83.5t-47.5 66.5q-26 28 -41.5 48t-27 46.5t-12.5 59.5h64q1 -30 19 -60t49 -62q24 -26 39.5 -50t26 -58t10.5 -79q0 -56 -28 -103.5t-78 -75
t-113 -27.5q-68 0 -118 29z" />
    <glyph glyph-name="uni10E2" unicode="&#x10e2;" horiz-adv-x="644" 
d="M173.5 -170q-63.5 45 -97.5 127t-34 190q0 102 30 180.5t86 125.5t132 55h6q-4 33 -4 102h60q0 -69 -4 -102h6q76 -7 132 -54t86 -126t30 -181q0 -109 -34 -191t-97.5 -126.5t-148.5 -44.5t-148.5 45zM440.5 -121q48.5 39 73.5 108.5t25 159.5q0 83 -21.5 150
t-63.5 109.5t-101 50.5l-8 3q8 -76 8 -121v-195h-61v196q0 55 7 120l-8 -2q-59 -9 -101 -51.5t-63.5 -110t-21.5 -149.5q0 -90 25 -159t74 -108.5t118 -39.5q70 0 118.5 39z" />
    <glyph glyph-name="uni10E3" unicode="&#x10e3;" horiz-adv-x="543" 
d="M149 -188.5q-51 26.5 -79 74.5t-28 111q0 26 6 51.5t15 46.5h61q-8 -19 -13.5 -45t-5.5 -47q0 -50 20 -87.5t56.5 -57.5t85.5 -20q47 0 82.5 23t55.5 65t20 99v308q0 60 -24 94.5t-72 34.5q-44 0 -67 -33t-23 -86v-90h-63v89q0 50 -25 80.5t-73 30.5h-48v56h44
q54 0 84 -18t45 -64h3q31 88 132 88q43 0 77 -20t53.5 -60.5t19.5 -98.5v-311q0 -73 -27 -127.5t-77 -83.5t-117 -29t-118 26.5z" />
    <glyph glyph-name="uni10E4" unicode="&#x10e4;" horiz-adv-x="786" 
d="M289 -173q-70 42 -79 129h65q11 -65 64 -91.5t129 -26.5q53 0 97 13.5t72 45t28 82.5q0 34 -13.5 62.5t-40.5 45.5t-66 17h-19v54h31q60 1 92 38.5t32 106.5q0 76 -30.5 118t-86.5 42q-33 0 -58 -16t-38.5 -45t-13.5 -68v-49q0 -68 -24.5 -119.5t-71 -79.5t-110.5 -28
q-63 0 -110 28.5t-71.5 80t-24.5 118.5q0 68 26 120.5t72 81t103 28.5q62 0 109.5 -29t65.5 -85h3q13 57 52 85.5t95 28.5q53 0 93 -25.5t61.5 -72t21.5 -109.5q0 -70 -29 -115.5t-80 -62.5v-4q49 -22 71 -60t22 -92q0 -60 -32 -102.5t-91 -64.5t-139 -22q-107 0 -177 42z
M327 131q33 22 50 62t17 92q0 55 -17.5 95t-50 62t-77.5 22q-46 0 -79.5 -23t-50.5 -63.5t-17 -92.5q0 -51 17 -90.5t49.5 -62.5t79.5 -23q46 0 79 22z" />
    <glyph glyph-name="uni10E5" unicode="&#x10e5;" horiz-adv-x="520" 
d="M439.5 -102.5q-25.5 -55.5 -74 -84t-116.5 -28.5q-67 0 -115.5 27t-74 76t-25.5 114q0 26 6 52.5t15 46.5h61q-8 -20 -13.5 -46t-5.5 -47q0 -51 18 -89t52 -59.5t82 -21.5q49 0 83.5 23t52 65.5t17.5 100.5v233q0 58 -18.5 104t-53 72t-81.5 26q-41 0 -70 -17.5
t-43.5 -47.5t-14.5 -68q0 -14 1.5 -29t4.5 -26h-62q-3 11 -5 27t-2 31q0 50 21.5 91.5t63 66.5t98.5 25q56 0 96.5 -26.5t62.5 -70.5h2v332h63v-717q0 -80 -25.5 -135.5z" />
    <glyph glyph-name="uni10E6" unicode="&#x10e6;" horiz-adv-x="717" 
d="M441.5 -141q-23.5 25 -65 38.5t-96.5 13.5h-156v48h99v4q-54 17 -95 57t-63.5 100t-22.5 136q0 79 20.5 137.5t60.5 90t95 31.5q51 0 86 -27.5t51 -83.5h4q17 55 54 83t86 28q55 0 94.5 -32t60.5 -90t21 -135q0 -62 -11 -114.5t-34 -99.5h-66q48 96 48 212q0 64 -14 110
t-41.5 70.5t-65.5 24.5q-29 0 -52 -17.5t-36 -48t-13 -68.5v-183h-64v183q0 40 -12.5 70.5t-35.5 47t-53 16.5q-38 0 -65 -25t-41 -71.5t-14 -108.5q0 -89 34.5 -152t88.5 -98.5t114 -45.5q90 -16 138 -56t51 -104h-63q-3 34 -26.5 59z" />
    <glyph glyph-name="uni10E7" unicode="&#x10e7;" horiz-adv-x="532" 
d="M154 -195q-49 20 -78 61t-29 100q0 25 8 47h60q-5 -22 -5 -41q0 -63 40.5 -98.5t112.5 -35.5t111.5 46.5t39.5 127.5v169h-2q-29 -48 -70 -70.5t-101 -22.5q-58 0 -103 27t-70.5 79.5t-25.5 125.5q0 52 17 101.5t39 78.5h59q-21 -37 -36.5 -84.5t-15.5 -97.5
q0 -55 18 -95t51.5 -61t80.5 -21q78 0 118.5 54t40.5 155v150h63v-485q0 -75 -26 -126.5t-74 -77.5t-114 -26q-60 0 -109 20z" />
    <glyph glyph-name="uni10E8" unicode="&#x10e8;" 
d="M183 742q32 -23 44 -61h4q16 42 48.5 63t78.5 21q43 0 75 -20.5t50 -60.5t18 -99v-339q0 -78 -27 -136t-78 -89.5t-121 -31.5q-71 0 -123.5 31.5t-80.5 90t-28 137.5t28 137t78 88.5t115 30.5q62 0 104 -24t68 -70h2v175q0 60 -23 93.5t-68 33.5q-28 0 -47.5 -13t-30 -35
t-10.5 -49v-31h-63v32q0 26 -11.5 48t-33.5 34.5t-51 12.5q-13 0 -28 -1.5t-26 -4.5v54q13 3 28.5 4.5t29.5 1.5q47 0 79 -23zM362 67q37 25 56.5 70.5t19.5 107.5q0 100 -43 153t-124 53q-50 0 -87.5 -26t-57.5 -72.5t-20 -107.5q0 -60 20 -106t58.5 -71.5t90.5 -25.5
q50 0 87 25z" />
    <glyph glyph-name="uni10E9" unicode="&#x10e9;" horiz-adv-x="544" 
d="M423.5 119.5q16.5 57.5 16.5 128.5q0 63 -19.5 110t-56.5 73t-86 26q-45 0 -81 -25.5t-56.5 -72t-20.5 -109.5v-250h-64v575q0 55 20.5 98t59.5 67.5t90 24.5q52 0 91 -24.5t60 -67.5t21 -98h-63q0 59 -27.5 97.5t-81.5 38.5q-53 0 -79.5 -37t-26.5 -99v-161h2
q54 96 172 96q63 0 110.5 -31.5t73.5 -91t26 -139.5q0 -76 -16 -133.5t-49 -114.5h-64q32 62 48.5 119.5z" />
    <glyph glyph-name="uni10EA" unicode="&#x10ea;" horiz-adv-x="570" 
d="M166 -174q-60 41 -92 125t-32 209q0 93 26.5 184.5t64.5 155.5h61q-38 -63 -63.5 -156t-25.5 -184q0 -108 25.5 -180t71 -107t107.5 -35q53 0 89.5 22t55 60t18.5 86q0 45 -19.5 80.5t-52.5 55.5t-72 20h-45v53h50q35 0 61.5 11.5t40.5 31t14 45.5q0 31 -14 52t-39 41
q-21 17 -33 29t-21.5 30.5t-12.5 44.5h64q3 -22 17.5 -39t39.5 -39q20 -17 32.5 -31t21 -35.5t8.5 -51.5q0 -40 -25 -70t-72 -44v-4q32 -10 59.5 -34.5t44 -62.5t16.5 -87q0 -61 -26.5 -110.5t-78 -78t-121.5 -28.5q-83 0 -143 41z" />
    <glyph glyph-name="uni10EB" unicode="&#x10eb;" horiz-adv-x="554" 
d="M150 18q-52 33 -80 93.5t-28 139.5t28 139t78 92.5t114 32.5q122 0 172 -96h2v331h63v-501q0 -78 -27 -138t-78 -93t-121 -33q-71 0 -123 33zM360 65q37 26 56.5 73.5t19.5 109.5q0 102 -43 157.5t-123 55.5q-50 0 -87 -27t-57.5 -75.5t-20.5 -110.5q0 -61 20.5 -108.5
t58.5 -74t90 -26.5q49 0 86 26z" />
    <glyph glyph-name="uni10EC" unicode="&#x10ec;" 
d="M481.5 763.5q15.5 -1.5 28.5 -4.5v-54q-11 3 -26 4.5t-28 1.5q-29 0 -51 -12.5t-33.5 -34.5t-11.5 -48v-32h-63v31q0 27 -10.5 49t-30 35t-47.5 13q-45 0 -68 -33.5t-23 -93.5v-175h2q26 46 68 70t104 24q65 0 115 -30.5t78 -88.5t28 -137t-28 -137.5t-80.5 -90
t-123.5 -31.5q-70 0 -121 31.5t-78 89.5t-27 136v339q0 59 18 99t50 60.5t75 20.5q46 0 78.5 -21t48.5 -63h4q12 38 44 61t79 23q14 0 29.5 -1.5zM371.5 67.5q38.5 25.5 58.5 71.5t20 106q0 61 -20 107.5t-57.5 72.5t-87.5 26q-81 0 -124 -53t-43 -153q0 -62 19.5 -107.5
t56.5 -70.5t87 -25q52 0 90.5 25.5z" />
    <glyph glyph-name="uni10ED" unicode="&#x10ed;" horiz-adv-x="592" 
d="M132 -188.5q-48 26.5 -73.5 74t-25.5 111.5q0 17 3.5 36t9.5 33h60q-4 -14 -7 -32t-3 -31q0 -49 17.5 -86t51.5 -57.5t82 -20.5q49 0 83.5 23.5t52 66t17.5 99.5v226h-2q-19 -39 -60 -62t-96 -23q-48 0 -90 19t-67 56t-25 89q0 54 27 92t72 56.5t99 18.5h142v250h63v-250
h114v-53h-114v-415q0 -79 -26 -134.5t-74.5 -84t-115.5 -28.5t-115 26.5zM328 239q33 17 52.5 49.5t19.5 76.5v82h-138q-62 0 -100.5 -28.5t-38.5 -85.5q0 -55 37 -83t96 -28q39 0 72 17z" />
    <glyph glyph-name="uni10EE" unicode="&#x10ee;" horiz-adv-x="554" 
d="M160 18q-51 33 -78 93t-27 138v501h63v-331h2q50 96 172 96q64 0 114 -32.5t78 -92.5t28 -139t-28 -139.5t-80 -93.5t-123 -33q-70 0 -121 33zM370 65.5q38 26.5 58.5 74t20.5 108.5q0 62 -20.5 110.5t-57.5 75.5t-87 27q-80 0 -123 -55.5t-43 -157.5q0 -62 19.5 -109.5
t56.5 -73.5t86 -26q52 0 90 26.5z" />
    <glyph glyph-name="uni10EF" unicode="&#x10ef;" horiz-adv-x="493" 
d="M133.5 -187.5q-48.5 27.5 -74.5 76t-26 109.5q0 16 3.5 32.5t7.5 27.5h59q-3 -11 -5 -26t-2 -28q0 -49 18.5 -86.5t53 -58.5t79.5 -21q47 0 80.5 22t51.5 59.5t18 83.5q0 48 -17.5 86.5t-52 61t-84.5 22.5h-35v165h-173v51h173v126h61v-126h180v-51h-180v-115
q60 -5 103 -34.5t65.5 -77t22.5 -108.5q0 -59 -26.5 -109t-74.5 -79.5t-112 -29.5q-65 0 -113.5 27.5z" />
    <glyph glyph-name="uni10F0" unicode="&#x10f0;" horiz-adv-x="512" 
d="M137 6q-50 21 -77 59t-27 87q0 27 12 58h60q-4 -12 -6.5 -27t-2.5 -28q0 -34 20 -60.5t56 -41.5t82 -15q47 0 81.5 14.5t53 42t18.5 64.5q0 38 -17.5 63.5t-47.5 38.5t-66 13h-78v53h86q47 0 74 17t27 51q0 36 -27.5 54.5t-73.5 18.5h-86v52h88q47 0 67.5 16.5t20.5 42.5
q0 21 -12.5 35.5t-31 23t-47.5 17.5q-106 33 -115 95h64q5 -18 24.5 -29t42 -18.5t29.5 -10.5q47 -17 78 -43t31 -68q0 -30 -20 -52.5t-64 -32.5v-3q40 -7 67.5 -32.5t27.5 -65.5q0 -39 -23 -60t-66 -32v-3q30 -8 55 -26.5t40.5 -48t15.5 -67.5q0 -53 -26.5 -92t-75 -60
t-114.5 -21q-67 0 -117 21z" />
    <glyph glyph-name="uni10F1" unicode="&#x10f1;" horiz-adv-x="576" 
d="M112.5 83.5q-70.5 98.5 -70.5 298.5q0 65 12.5 135.5t33 132t44.5 100.5h62q-23 -39 -43.5 -102t-33 -133.5t-12.5 -132.5q0 -174 56.5 -259.5t159.5 -85.5q47 0 80.5 15t51.5 43t18 65q0 38 -17.5 64t-47.5 38.5t-67 12.5h-57v52h65q48 0 75 17t27 51q0 36 -28 54.5
t-74 18.5h-65v52h68q47 0 67.5 16.5t20.5 42.5q0 19 -7 32t-18.5 22t-29.5 20q-20 12 -33 23t-24 29t-16 45h64q5 -22 21 -38t41 -31q21 -14 34 -26t22 -30.5t9 -44.5q0 -28 -19.5 -51t-64.5 -33v-3q40 -7 67.5 -32.5t27.5 -65.5q0 -39 -22.5 -60.5t-65.5 -31.5v-3
q47 -13 78.5 -49t31.5 -94q0 -52 -26 -91t-74.5 -60t-114.5 -21q-136 0 -206.5 98.5z" />
    <glyph glyph-name="uni10F2" unicode="&#x10f2;" horiz-adv-x="516" 
d="M157 7.5q-53 -10.5 -120 -10.5v53q45 0 85 4t84 14v2q-51 14 -88.5 49.5t-57 82t-19.5 94.5q0 60 26 110t75.5 79.5t115.5 29.5t115.5 -29.5t75.5 -79.5t26 -110q0 -48 -19.5 -94.5t-57 -82t-88.5 -49.5v-2q44 -10 84 -14t85 -4v-53q-67 0 -120 10.5t-101 29.5
q-48 -19 -101 -29.5zM345.5 141q34.5 35 50.5 75t16 80q0 45 -18.5 83t-53.5 60.5t-82 22.5t-82 -22.5t-53.5 -60.5t-18.5 -83q0 -40 16 -80t50.5 -75t87.5 -57q53 22 87.5 57z" />
    <glyph glyph-name="uni10F3" unicode="&#x10f3;" horiz-adv-x="514" 
d="M141 -187.5q-51 27.5 -79.5 76t-28.5 108.5q0 46 19 93h61q-8 -19 -12.5 -43t-4.5 -44q0 -48 20.5 -85.5t57.5 -58.5t85 -21q46 0 81.5 23.5t55.5 63t20 86.5q0 48 -19.5 86t-53 59t-72.5 21h-52v54h52q37 0 62.5 16t38 42.5t12.5 58.5v99h-298v53h361v-145
q0 -56 -25.5 -94.5t-72.5 -54.5v-4q37 -12 66.5 -38t46.5 -65.5t17 -88.5q0 -60 -27 -112t-77.5 -82.5t-115.5 -30.5q-67 0 -118 27.5z" />
    <glyph glyph-name="uni10F4" unicode="&#x10f4;" horiz-adv-x="515" 
d="M141 -187.5q-51 27.5 -79.5 76t-28.5 108.5q0 22 5 48t13 45h61q-7 -20 -11.5 -44t-4.5 -43q0 -48 20.5 -85.5t57.5 -58.5t85 -21q46 0 82 22.5t56 61.5t20 89q0 48 -19.5 86t-53 59.5t-75.5 21.5h-42v53h47q35 0 62 14t41.5 39.5t14.5 57.5v105h-144q-52 0 -91 18.5
t-61 55t-22 89.5h63q0 -54 33.5 -82t96.5 -28h188v-158q0 -48 -24 -83t-75 -53v-4q35 -11 63 -37t44.5 -66t16.5 -89q0 -63 -27.5 -114.5t-77.5 -81t-116 -29.5q-67 0 -118 27.5z" />
    <glyph glyph-name="uni10F5" unicode="&#x10f5;" horiz-adv-x="576" 
d="M141 3.5q-45 18.5 -72 55t-27 87.5q0 52 26 87.5t72 53t104 17.5h140v153h-140q-90 0 -143.5 38t-53.5 115q0 52 25.5 86.5t69 51.5t98.5 17q90 0 148 -42t58 -136v-78h115v-52h-115v-153h115v-51h-115v-86q0 -64 -28 -105t-74.5 -59t-103.5 -18q-54 0 -99 18.5zM384 588
q0 65 -39.5 95t-103.5 30q-59 0 -95.5 -26t-36.5 -77q0 -52 36 -76.5t94 -24.5h145v79zM344 68.5q40 31.5 40 97.5v87h-145q-37 0 -67.5 -12t-49 -35.5t-18.5 -58.5t18.5 -60t49.5 -37.5t69 -12.5q63 0 103 31.5z" />
    <glyph glyph-name="uni10F6" unicode="&#x10f6;" horiz-adv-x="717" 
d="M230 -152h27q28 0 42.5 7t21 23.5t6.5 49.5v71q-86 3 -150 33.5t-99.5 88t-35.5 137.5q0 81 38 138t102.5 86t144.5 31v110q0 68 30 97.5t98 29.5h30v-52h-26q-28 0 -43 -6.5t-21 -23.5t-6 -50v-105q83 -2 147.5 -33t101.5 -88t37 -134q0 -82 -36.5 -139.5t-101.5 -87.5
t-149 -32v-76q0 -46 -13 -73.5t-41 -40.5t-73 -14h-31v53zM213.5 437q-50.5 -24 -79.5 -70t-29 -109q0 -66 29 -112.5t79.5 -69.5t113.5 -23v409q-63 -1 -113.5 -25zM502.5 75.5q50.5 22.5 80 69t29.5 113.5q0 65 -30 110.5t-81 69t-113 24.5v-410q64 1 114.5 23.5z" />
    <glyph glyph-name="uni10F7" unicode="&#x10f7;" horiz-adv-x="516" 
d="M143.5 -187.5q-51.5 27.5 -81.5 76.5t-30 111q0 66 24.5 111t62 71.5t90.5 50.5q47 21 74 37t45 39.5t18 57.5q0 29 -13 51t-35 34t-49 12q-26 0 -48.5 -13t-36 -37t-13.5 -57h-61q0 49 22.5 85t58.5 54.5t77 18.5q45 0 81.5 -18.5t57 -51t20.5 -73.5q0 -52 -23 -86
t-56 -54t-89 -45q-44 -20 -74.5 -42t-50 -57.5t-19.5 -87.5q0 -44 21 -81.5t58 -59t84 -21.5q49 0 86 23t57 61.5t20 83.5q0 51 -18 94h61q7 -14 13.5 -41.5t6.5 -52.5q0 -65 -29 -115t-80.5 -78t-116.5 -28q-63 0 -114.5 27.5z" />
    <glyph glyph-name="uni10F8" unicode="&#x10f8;" horiz-adv-x="532" 
d="M155 -189q-48 26 -74 77.5t-26 126.5v485h63v-150q0 -101 40.5 -155t118.5 -54q47 0 80.5 21t51.5 61t18 95q0 50 -15.5 97.5t-36.5 84.5h59q22 -29 39 -78.5t17 -101.5q0 -73 -25.5 -125.5t-70.5 -79.5t-103 -27q-60 0 -101 22.5t-70 70.5h-2v-169q0 -81 39.5 -127.5
t111.5 -46.5t112.5 35.5t40.5 98.5q0 19 -5 41h60q8 -22 8 -47q0 -59 -29 -100t-78 -61t-109 -20q-66 0 -114 26z" />
    <glyph glyph-name="uni10F9" unicode="&#x10f9;" horiz-adv-x="536" 
d="M383.5 486.5q51.5 -28.5 81 -83t29.5 -128.5q0 -67 -27 -116.5t-73 -79.5t-104 -42q-54 -11 -82.5 -37.5t-28.5 -66.5q0 -29 13 -50.5t35 -33.5t49 -12q26 0 48.5 12.5t36 36.5t13.5 57h61q0 -49 -22 -85t-58 -54.5t-77 -18.5q-45 0 -81.5 18.5t-57 51t-20.5 73.5
q0 44 25.5 75.5t69.5 47.5v4q-50 6 -89 35.5t-61 77t-22 107.5q0 72 29 126.5t80.5 84t116.5 29.5q64 0 115.5 -28.5zM182.5 438q-36.5 -24 -57 -66.5t-20.5 -96.5q0 -55 20.5 -96.5t57.5 -64.5t85 -23q47 0 84.5 23.5t58 65.5t20.5 95q0 55 -20.5 97.5t-58 66t-85.5 23.5
t-84.5 -24z" />
    <glyph glyph-name="uni10FA" unicode="&#x10fa;" horiz-adv-x="495" 
d="M286 56.5q-41 19.5 -104 19.5h-93v45h80v3q-63 22 -95.5 70.5t-32.5 119.5q0 55 24.5 101t71 73t111.5 27q66 0 112.5 -27t70.5 -72.5t24 -101.5q0 -39 -15 -78h-61q13 35 13 72q0 42 -16.5 77.5t-49 56t-78.5 20.5t-78.5 -21t-49 -55.5t-16.5 -75.5q0 -69 40 -116.5
t119 -69.5q57 -16 92 -46t42 -78h-61q-9 37 -50 56.5z" />
    <glyph glyph-name="uni10FB" unicode="&#x10fb;" horiz-adv-x="502" 
d="M181 394h-84v106h84v-106zM445 197h-84v106h84v-106zM181 0h-84v106h84v-106z" />
    <glyph glyph-name="uni10FC" unicode="&#x10fc;" horiz-adv-x="365" 
d="M124.5 406q-29.5 18 -45 52t-15.5 80v174q0 58 28.5 82.5t89.5 24.5h112v-41h-108q-39 0 -57 -15.5t-18 -51.5v-85h2q11 25 34 41t57 16q36 0 63 -18t42 -51t15 -76q0 -70 -34.5 -110t-95.5 -40q-40 0 -69.5 18zM253.5 461q21.5 29 21.5 76q0 44 -21 73.5t-59 29.5
q-40 0 -62 -27.5t-22 -75.5q0 -47 22.5 -76t60.5 -29t59.5 29z" />
    <glyph glyph-name="uni10FD" unicode="&#x10fd;" horiz-adv-x="574" 
d="M156.5 15q-57.5 30 -87 87.5t-29.5 137.5h63q0 -97 51.5 -149.5t143.5 -52.5q53 0 92 18t60 51t21 77q0 47 -20 79t-60.5 54t-107.5 41q-72 20 -119.5 46.5t-74 65.5t-26.5 95q0 63 28.5 108.5t79 68.5t114.5 23q73 0 125 -27t79.5 -77.5t27.5 -121.5h-63q0 83 -43 127.5
t-127 44.5q-47 0 -82.5 -18t-55 -50t-19.5 -74q0 -55 41 -94.5t136 -65.5q83 -23 133 -50.5t74 -67.5t24 -100q0 -64 -29.5 -110.5t-83.5 -71t-125 -24.5q-83 0 -140.5 30z" />
    <glyph glyph-name="uni10FE" unicode="&#x10fe;" horiz-adv-x="523" 
d="M145.5 14.5q-49.5 29.5 -75.5 79.5t-26 110q0 48 19.5 94.5t57 82t88.5 49.5v2q-44 10 -84 14t-85 4v53q67 0 120 -10.5t101 -29.5q48 19 101 29.5t120 10.5v-53q-45 0 -85 -4t-84 -14v-2q51 -14 88.5 -49.5t57 -82t19.5 -94.5q0 -60 -26 -110t-75.5 -79.5t-115.5 -29.5
t-115.5 29.5zM343 60.5q35 22.5 53.5 60.5t18.5 83q0 40 -16 80t-50.5 75t-87.5 57q-53 -22 -87.5 -57t-50.5 -75t-16 -80q0 -45 18.5 -83t53.5 -60.5t82 -22.5t82 22.5z" />
    <glyph glyph-name="uni10FF" unicode="&#x10ff;" horiz-adv-x="551" 
d="M151 19q-53 34 -81 94.5t-28 136.5q0 74 27.5 134t80 95.5t125.5 35.5q71 0 124 -34.5t81.5 -94.5t28.5 -136q0 -74 -27.5 -134.5t-80.5 -95.5t-126 -35q-71 0 -124 34zM367.5 67.5q38.5 29.5 58 78t19.5 104.5q0 57 -20 105.5t-58.5 77.5t-92.5 29q-53 0 -91.5 -29.5
t-58 -77.5t-19.5 -105t19.5 -105.5t58 -77.5t92.5 -29t92.5 29.5z" />
    <glyph glyph-name="endash" unicode="&#x2013;" horiz-adv-x="500" 
d="M500 246h-500v58h500v-58z" />
    <glyph glyph-name="emdash" unicode="&#x2014;" horiz-adv-x="1000" 
d="M870 246h-740v58h740v-58z" />
    <glyph glyph-name="quoteleft" unicode="&#x2018;" horiz-adv-x="278" 
d="M150.5 639.5q-13.5 -24.5 -13.5 -53.5v-9h42v-106h-84v108q0 29 10 57.5t30.5 49.5t48.5 28v-43q-20 -7 -33.5 -31.5z" />
    <glyph glyph-name="quoteright" unicode="&#x2019;" horiz-adv-x="278" 
d="M183 607q0 -30 -10 -58.5t-30 -49t-49 -28.5v43q20 6 33.5 31.5t13.5 54.5v8h-42v106h84v-107z" />
    <glyph glyph-name="quotesinglbase" unicode="&#x201a;" horiz-adv-x="278" 
d="M183 -1q0 -48 -24 -86.5t-65 -49.5v43q20 6 33.5 31t13.5 57v6h-42v106h84v-107z" />
    <glyph glyph-name="quotedblleft" unicode="&#x201c;" horiz-adv-x="370" 
d="M64 579q0 30 10 58t30 48.5t49 28.5v-43q-23 -9 -35 -34t-12 -51v-9h42v-106h-84v108zM218 579q0 30 10 58t30 48.5t49 28.5v-43q-20 -7 -33.5 -31.5t-13.5 -53.5v-9h42v-106h-84v108z" />
    <glyph glyph-name="quotedblright" unicode="&#x201d;" horiz-adv-x="370" 
d="M152 606q0 -29 -10 -57.5t-30.5 -49.5t-48.5 -28v43q20 5 33.5 30.5t13.5 57.5v6h-42v106h84v-108zM306 606q0 -29 -10 -57.5t-30.5 -49.5t-48.5 -28v43q20 5 33.5 30.5t13.5 57.5v6h-42v106h84v-108z" />
    <glyph glyph-name="quotedblbase" unicode="&#x201e;" horiz-adv-x="370" 
d="M152 -1q0 -48 -24 -86.5t-65 -49.5v43q20 6 33.5 31.5t13.5 55.5v7h-42v106h84v-107zM306 -1q0 -48 -24 -86.5t-65 -49.5v43q20 6 33.5 31.5t13.5 55.5v7h-42v106h84v-107z" />
    <glyph glyph-name="dagger" unicode="&#x2020;" 
d="M309 493h199v-53h-199v-591h-63v591h-198v53h198v221h63v-221z" />
    <glyph glyph-name="daggerdbl" unicode="&#x2021;" 
d="M309 516h199v-53h-199v-363h199v-53h-199v-198h-63v198h-198v53h198v363h-198v53h198v198h63v-198z" />
    <glyph glyph-name="bullet" unicode="&#x2022;" horiz-adv-x="500" 
d="M340.5 511q41.5 -24 65 -65t23.5 -89q0 -49 -24 -90t-65.5 -65t-89.5 -24t-89 24t-65 65t-24 90q0 47 23 88t64 65.5t91 24.5q49 0 90.5 -24z" />
    <glyph glyph-name="ellipsis" unicode="&#x2026;" horiz-adv-x="1000" 
d="M209 0h-84v106h84v-106zM542 0h-84v106h84v-106zM875 0h-84v106h84v-106z" />
    <glyph glyph-name="perthousand" unicode="&#x2030;" horiz-adv-x="1111" 
d="M629 725l-452 -759h-48l453 759h47zM325 662.5q38 -43.5 38 -125.5q0 -80 -37.5 -124.5t-111.5 -44.5q-73 0 -111 43.5t-38 125.5q0 78 36.5 123.5t112.5 45.5q73 0 111 -43.5zM142 443q24 -30 72 -30q49 0 72.5 32t23.5 92t-23.5 92t-73.5 32q-95 0 -95 -124
q0 -64 24 -94zM657.5 279.5q38.5 -43.5 38.5 -125.5t-38 -125.5t-111 -43.5q-74 0 -111.5 44t-37.5 125q0 80 37.5 124.5t111.5 44.5q72 0 110.5 -43.5zM1012.5 279q37.5 -44 37.5 -125q0 -82 -38 -125.5t-111 -43.5q-75 0 -112 45t-37 124q0 81 38 125t111 44
q74 0 111.5 -44zM547 30q48 0 72 31.5t24 92.5q0 124 -97 124q-95 0 -95 -124t96 -124zM829 60.5q24 -30.5 72 -30.5t72 31.5t24 92.5q0 124 -97 124q-95 0 -95 -124q0 -63 24 -93.5z" />
    <glyph glyph-name="guilsinglleft" unicode="&#x2039;" horiz-adv-x="259" 
d="M186 364l-94 -89l94 -89v-67l-133 125v62l133 125v-67z" />
    <glyph glyph-name="guilsinglright" unicode="&#x203a;" horiz-adv-x="259" 
d="M206 244l-133 -125v67l94 89l-94 89v67l133 -125v-62z" />
    <glyph glyph-name="fraction" unicode="&#x2044;" horiz-adv-x="167" 
d="M334 725l-452 -759h-48l453 759h47z" />
    <glyph glyph-name="Euro" unicode="&#x20ac;" 
d="M557 635l-27 -59q-65 79 -160 79q-87 0 -143 -58.5t-76 -162.5h333l-18 -45h-321q-3 -25 -3 -36q0 -17 1 -23h304l-19 -45h-282q16 -117 73.5 -180.5t147.5 -63.5q52 0 91 21t83 65v-77q-77 -65 -176 -65q-78 0 -138.5 35.5t-98 103t-47.5 161.5h-66l19 45h44q-1 8 -1 23
l2 36h-64l18 45h51q15 83 52.5 145.5t97 97.5t136.5 35q125 0 187 -77z" />
    <glyph glyph-name="uni20BE" unicode="&#x20be;" horiz-adv-x="737" 
d="M369 705q22 0 54 -4v99h40v-109q70 -20 121.5 -69t79 -119.5t27.5 -153.5h-66q0 107 -40.5 184t-121.5 105v-289h-40v299q-28 5 -54 5q-29 0 -49 -4v-300h-39v289q-83 -27 -123 -104t-40 -185q0 -81 35 -148t99.5 -106.5t147.5 -39.5h208v-55h-494v53h120v4
q-58 21 -99 67.5t-62 107.5t-21 126q0 74 27 143.5t78.5 120t123.5 70.5v108h39v-99q30 4 49 4z" />
    <glyph glyph-name="uni2113" unicode="&#x2113;" horiz-adv-x="500" 
d="M336.5 706.5q22.5 -14.5 35 -42t12.5 -66.5q0 -141 -166 -321v-159q0 -45 21 -68.5t57 -23.5q23 0 46 10.5t43 29.5l21 -28q-26 -25 -56.5 -38.5t-63.5 -13.5q-56 0 -87.5 32.5t-31.5 90.5v131l-60 -65l-22 28l82 84v266q0 48 14.5 86.5t41 60t62.5 21.5q29 0 51.5 -14.5
zM309 465q32 70 32 128q0 26 -7.5 47t-21 32.5t-28.5 11.5q-31 0 -48.5 -34.5t-17.5 -88.5v-236q59 70 91 140z" />
    <glyph glyph-name="uni2116" unicode="&#x2116;" horiz-adv-x="969" 
d="M524 110h2v581h68v-691h-76l-376 581h-2v-581h-68v691h76zM870 404q32 -18 48.5 -51t16.5 -76t-17.5 -76t-49.5 -51t-74 -18q-43 0 -75 18t-49 50.5t-17 76.5q0 43 17.5 76t49.5 51t74 18q44 0 76 -18zM731 205q24 -27 63 -27q40 0 63.5 26t23.5 73q0 45 -24 72t-64 27
q-39 0 -62.5 -26t-23.5 -73q0 -45 24 -72zM935 0h-280v53h280v-53z" />
    <glyph glyph-name="trademark" unicode="&#x2122;" horiz-adv-x="990" 
d="M403 669h-134v-367h-53v367h-134v45h321v-45zM694 380l129 334h85v-412h-53v364h-2l-146 -364h-30l-146 364h-2v-364h-53v412h85z" />
    <glyph glyph-name="Omega" unicode="&#x2126;" horiz-adv-x="759" 
d="M555 682q76 -47 117.5 -124.5t41.5 -165.5q0 -102 -43 -186.5t-128 -143.5v-4h182v-58h-264v60q94 66 139 146.5t45 185.5q0 78 -32.5 141.5t-92.5 100.5t-139 37q-81 0 -141.5 -34.5t-94 -97.5t-33.5 -146q0 -102 46.5 -185t141.5 -148v-60h-266v58h178v4
q-82 57 -125.5 141.5t-43.5 188.5q0 96 43 173t120 120.5t175 43.5t174 -47z" />
    <glyph glyph-name="partialdiff" unicode="&#x2202;" horiz-adv-x="511" 
d="M363.5 670q56.5 -51 81 -132.5t24.5 -176.5q0 -172 -56.5 -272.5t-175.5 -100.5q-61 0 -107.5 30.5t-71.5 82t-25 112.5q0 60 25 109t70 77t104 28q46 0 88 -19.5t73 -56.5l1 45q0 61 -17 121t-56 100.5t-100 40.5q-29 0 -56 -11t-58 -36l-42 50q67 60 153 60
q89 0 145.5 -51zM122 132.5q15 -37.5 44.5 -61t72.5 -23.5q52 0 85.5 37t49 91t15.5 104q-31 41 -70 63t-79 22q-41 0 -71 -21t-46 -56.5t-16 -77.5q0 -40 15 -77.5z" />
    <glyph glyph-name="Delta" unicode="&#x2206;" horiz-adv-x="630" 
d="M637 0h-644l288 714h76zM541 58l-225 588l-228 -588h453z" />
    <glyph glyph-name="product" unicode="&#x220f;" horiz-adv-x="719" 
d="M650 -214h-78v928h-426v-928h-78v1000h582v-1000z" />
    <glyph glyph-name="summation" unicode="&#x2211;" horiz-adv-x="615" 
d="M577 714h-437l301 -424l-319 -432h467v-72h-564v64l322 440l-308 432v64h538v-72z" />
    <glyph glyph-name="minus" unicode="&#x2212;" horiz-adv-x="600" 
d="M552 225h-503v53h503v-53z" />
    <glyph glyph-name="uni2215" unicode="&#x2215;" horiz-adv-x="167" 
d="M334 725l-452 -759h-48l453 759h47z" />
    <glyph glyph-name="uni2219" unicode="&#x2219;" horiz-adv-x="278" 
d="M168 367q14 -8 22 -22t8 -30q0 -15 -8 -28.5t-21.5 -21.5t-29.5 -8t-29.5 8.5t-21.5 22.5t-8 29t8.5 28.5t22 21.5t28.5 8t29 -8z" />
    <glyph glyph-name="radical" unicode="&#x221a;" horiz-adv-x="504" 
d="M303 -214h-75l-162 334l-47 -22l-28 60l112 52l151 -317l184 893h76z" />
    <glyph glyph-name="infinity" unicode="&#x221e;" horiz-adv-x="759" 
d="M647 389.5q34 -20.5 52 -56t18 -78.5q0 -44 -18 -80t-51 -56.5t-78 -20.5q-43 0 -89 25t-101 84q-42 -39 -68.5 -60t-56.5 -34.5t-64 -13.5q-48 0 -81.5 21t-50.5 56t-17 76q0 44 18 79.5t51 56t76 20.5q45 0 89 -25.5t104 -88.5q41 41 65.5 63t56 37.5t67.5 15.5
q44 0 78 -20.5zM506.5 184.5q34.5 -18.5 66.5 -18.5q37 0 58 24.5t21 61.5q0 39 -21.5 64.5t-61.5 25.5q-31 0 -64 -22t-82 -69q49 -48 83.5 -66.5zM129 189.5q22 -23.5 61 -23.5q62 0 147 85q-47 45 -83.5 67.5t-66.5 22.5q-25 0 -43 -12.5t-27.5 -33t-9.5 -43.5
q0 -39 22 -62.5z" />
    <glyph glyph-name="integral" unicode="&#x222b;" horiz-adv-x="554" 
d="M397 771.5q23 -14.5 23 -41.5q0 -17 -12 -27.5t-30 -10.5q-11 0 -19 6t-17 18q-6 9 -11 14t-9 5q-15 0 -23 -23t-8 -68l1 -51q1 -16 1 -45v-542q0 -108 -29 -163.5t-97 -55.5q-28 0 -48.5 14.5t-20.5 37.5q0 15 11.5 25.5t25.5 10.5q20 0 35 -25q6 -10 10 -13.5t7 -3.5
q15 0 22 31.5t7 79.5l-1 51v607q0 44 9 82t26 60q32 42 90 42q34 0 57 -14.5z" />
    <glyph glyph-name="approxequal" unicode="&#x2248;" horiz-adv-x="600" 
d="M524 324q-33 -35 -88 -35q-27 0 -59.5 8.5t-82.5 27.5q-49 19 -78.5 27t-52.5 8q-30 0 -50 -20t-27 -55h-51q8 60 42 94t87 34q26 0 58.5 -8t83.5 -28q50 -19 79 -27t53 -8q28 0 48.5 20t27.5 55h51q-8 -58 -41 -93zM521.5 125q-34.5 -33 -85.5 -33q-26 0 -59 8.5
t-88 29.5q-52 20 -79.5 26.5t-47.5 6.5q-28 0 -48.5 -20t-27.5 -55h-51q8 58 41 93t88 35q26 0 58 -8t87 -29q51 -20 79.5 -27t48.5 -7q29 0 49.5 19t27.5 56h51q-9 -62 -43.5 -95z" />
    <glyph glyph-name="notequal" unicode="&#x2260;" horiz-adv-x="600" 
d="M477 503l-72 -125h147v-53h-178l-83 -144h261v-53h-292l-90 -156l-46 25l75 131h-150v53h181l83 144h-264v53h295l87 150z" />
    <glyph glyph-name="lessequal" unicode="&#x2264;" horiz-adv-x="600" 
d="M108 307l443 -166v-55l-503 194v54l503 194v-55zM551 0h-503v53h503v-53z" />
    <glyph glyph-name="greaterequal" unicode="&#x2265;" horiz-adv-x="600" 
d="M552 334v-54l-503 -194v55l443 166l-443 166v55zM552 0h-503v53h503v-53z" />
    <glyph glyph-name="uniFB01" unicode="&#xfb01;" horiz-adv-x="444" 
d="M94 463h-88v53h88v50q0 76 28.5 112t97.5 36q26 0 52 -4v-54q-27 5 -46 5q-28 0 -43 -9.5t-20.5 -27.5t-5.5 -49v-59h102v-53h-102v-463h-63v463zM383 613h-63v101h63v-101zM383 0h-63v516h63v-516z" />
    <glyph glyph-name="uniFB02" unicode="&#xfb02;" horiz-adv-x="444" 
d="M94 463h-88v53h88v50q0 76 28.5 112t97.5 36q26 0 52 -4v-54q-27 5 -46 5q-28 0 -43 -9.5t-20.5 -27.5t-5.5 -49v-59h102v-53h-102v-463h-63v463zM383 0h-63v714h63v-714z" />
    <glyph glyph-name="uniFEFF" unicode="&#xfeff;" horiz-adv-x="0" 
 />
    <glyph glyph-name="glyph176" horiz-adv-x="185" 
d="M152 779h-51l-132 141h78z" />
    <glyph glyph-name="glyph178" horiz-adv-x="185" 
d="M84 779h-51l105 141h78z" />
    <glyph glyph-name="glyph180" horiz-adv-x="185" 
d="M244 779h-65l-86 102l-88 -102h-58l114 141h69z" />
    <glyph glyph-name="glyph182" horiz-adv-x="185" 
d="M91 818l88 102h58l-114 -141h-69l-114 141h65z" />
    <glyph glyph-name="glyph183" horiz-adv-x="185" 
d="M135 573h-47l55 141h78z" />
    <glyph glyph-name="glyph185" horiz-adv-x="185" 
d="M217 829.5q-23 -24.5 -55 -24.5q-17 0 -34 5.5t-41 17.5t-37 17.5t-26 5.5q-38 0 -50 -51h-39q3 27 15.5 49t31.5 34.5t42 12.5q18 0 35 -5.5t40 -16.5q22 -11 35.5 -16.5t24.5 -5.5q20 0 32 11.5t20 36.5h38q-9 -46 -32 -70.5z" />
    <glyph glyph-name="glyph187" horiz-adv-x="185" 
d="M38 800h-68v101h68v-101zM215 800h-68v101h68v-101z" />
    <glyph glyph-name="glyph189" horiz-adv-x="185" 
d="M257 828h-329v45h329v-45z" />
    <glyph glyph-name="glyph191" horiz-adv-x="185" 
d="M3.5 870.5q14.5 -18.5 37.5 -28.5t50 -10q40 0 70 22.5t36 59.5h39q-8 -59 -46.5 -93t-98.5 -34q-62 0 -99.5 34t-42.5 93h39q1 -25 15.5 -43.5z" />
    <glyph glyph-name="glyph193" horiz-adv-x="185" 
d="M147.5 952.5q24.5 -14.5 38.5 -39.5t14 -53q0 -29 -14.5 -53.5t-39 -39t-53.5 -14.5t-53.5 14.5t-39 39t-14.5 53.5t14.5 53.5t39 39t53.5 14.5q30 0 54.5 -14.5zM44 811.5q19 -19.5 49 -19.5t49 19.5t19 48.5t-19 48.5t-50 19.5q-18 0 -33.5 -8.5t-24.5 -24t-9 -35.5
q0 -29 19 -48.5z" />
    <glyph glyph-name="glyph195" horiz-adv-x="185" 
d="M18 779h-51l101 141h76zM174 779h-51l101 141h76z" />
    <glyph glyph-name="glyph197" horiz-adv-x="185" 
d="M127 800h-68v101h68v-101z" />
    <glyph glyph-name="uni10D0.case" horiz-adv-x="549" 
d="M146 15.5q-54 30.5 -84 85.5t-30 124q0 37 9.5 74t21.5 61h64q-13 -24 -21.5 -60.5t-8.5 -73.5q0 -52 22 -94t60.5 -66.5t88.5 -24.5t89 25t61 67.5t22 93.5t-14.5 91.5t-35.5 70.5t-57 72q-37 44 -59 76t-37.5 76.5t-15.5 100.5h65q0 -48 14 -86.5t35 -68.5t56 -71
q38 -46 60.5 -78.5t38.5 -78.5t16 -104q0 -69 -31 -124t-85.5 -86.5t-121.5 -31.5q-68 0 -122 30.5z" />
    <glyph glyph-name="uni10D1.case" horiz-adv-x="572" 
d="M161.5 16q-55.5 31 -88 88.5t-32.5 132.5q0 69 29 124.5t80.5 88t116.5 36.5v28q0 25 -7 41.5t-17 25.5t-29 22q-17 11 -28 23.5t-18.5 33.5t-7.5 54h63q0 -28 11.5 -46t33.5 -34q21 -15 33.5 -28t21.5 -33.5t9 -50.5v-39q56 -10 101 -42.5t71 -85t26 -118.5
q0 -74 -32 -131t-88 -89t-126 -32q-67 0 -122.5 31zM378 66q41 25 64.5 69.5t23.5 101.5t-23.5 101t-65 68.5t-93.5 24.5q-51 0 -91 -24.5t-63 -68.5t-23 -101q0 -58 23 -102.5t63.5 -69t91.5 -24.5q52 0 93 25z" />
    <glyph glyph-name="uni10D2.case" horiz-adv-x="576" 
d="M164 15q-56 30 -89.5 85.5t-33.5 128.5q0 66 27 116t72.5 81t102.5 45q73 17 106 46t33 68q0 27 -14.5 48t-39.5 32.5t-54 11.5q-28 0 -53 -12.5t-40.5 -35.5t-15.5 -54h-64q0 49 25 83.5t64.5 52.5t82.5 18q46 0 85 -17.5t62.5 -49.5t23.5 -75q0 -49 -28.5 -78.5
t-78.5 -45.5v-2q57 -7 102 -39t70 -82.5t25 -110.5q0 -72 -33 -127.5t-90 -86t-125 -30.5q-66 0 -122 30zM378.5 64.5q41.5 23.5 66.5 66.5t25 98q0 58 -25 101.5t-67 67t-92 23.5q-48 0 -89 -23.5t-65.5 -67.5t-24.5 -101q0 -56 24.5 -98.5t65.5 -66t90 -23.5
q50 0 91.5 23.5z" />
    <glyph glyph-name="uni10D3.case" horiz-adv-x="864" 
d="M487.5 60.5q-34.5 25.5 -87.5 38t-113 12.5h-153v53h100v3q-50 16 -95.5 54t-74.5 100t-29 144q0 80 26.5 140t73 92t103.5 32t99 -29t60 -89h4q26 58 78.5 88t116.5 30q63 0 116.5 -32.5t85 -89t31.5 -126.5q0 -69 -31 -126t-85.5 -90t-122.5 -33q-67 0 -120.5 32
t-83 89t-29.5 128v62q0 39 -15.5 68t-41 44.5t-56.5 15.5q-42 0 -73.5 -24.5t-49 -71t-17.5 -110.5q0 -88 39 -151.5t99.5 -100t127.5 -49.5q99 -20 159 -58.5t64 -105.5h-67q-4 35 -38.5 60.5zM678.5 316q39.5 26 61.5 70t22 95q0 53 -22 96.5t-61.5 68.5t-88.5 25
q-48 0 -86 -24t-59.5 -67.5t-21.5 -98.5q0 -53 21 -97t59.5 -69t86.5 -25q49 0 88.5 26z" />
    <glyph glyph-name="uni10D4.case" horiz-adv-x="561" 
d="M148 11q-53 26 -83 74.5t-30 114.5q0 26 5.5 51.5t14.5 46.5h63q-17 -48 -17 -91q0 -50 21.5 -87.5t59.5 -58t86 -20.5q49 0 87.5 21.5t59.5 61.5t21 93v287q0 46 -19 85t-54.5 61.5t-82.5 22.5t-82 -20t-53.5 -52.5t-18.5 -69.5q0 -23 7 -53h-64q-8 30 -8 59
q0 52 27.5 96t77.5 70t115 26q66 0 116 -29.5t77.5 -80t27.5 -111.5v-291q0 -71 -30 -123.5t-83 -80.5t-121 -28q-67 0 -120 26z" />
    <glyph glyph-name="uni10D5.case" horiz-adv-x="557" 
d="M152 11q-55 26 -86 73t-31 108q0 26 5 52t13 44h62q-14 -36 -14 -83q0 -53 23.5 -90t63.5 -55.5t89 -18.5q46 0 86 17.5t64 52t24 81.5q0 48 -20 85.5t-56 58.5t-81 21h-50v56h50q43 0 73 17t44.5 45.5t14.5 64.5q0 37 -19 67.5t-53 48t-75 17.5q-45 0 -79.5 -17.5
t-54 -48t-19.5 -67.5q0 -27 6 -45h-64q-3 12 -5 25.5t-2 26.5q0 51 28.5 92.5t78.5 65.5t112 24q59 0 107.5 -24t76.5 -65.5t28 -91.5q0 -55 -28.5 -99t-76.5 -62v-3q36 -11 65.5 -36.5t47 -65t17.5 -90.5q0 -61 -31.5 -108t-86.5 -73t-122 -26q-70 0 -125 26z" />
    <glyph glyph-name="uni10D6.case" horiz-adv-x="599" 
d="M191 16q-56 31 -88 86.5t-32 124.5q0 54 21.5 105t68.5 84v3q-45 3 -77.5 23.5t-50 53t-17.5 71.5q0 49 22.5 85.5t62 56.5t89.5 20q49 0 89 -20t63 -54t23 -75q0 -33 -11.5 -61t-35.5 -45q68 0 123 -30t87 -84.5t32 -126.5q0 -71 -32 -127.5t-88 -88.5t-126 -32
q-67 0 -123 31zM247 473q26 14 42 39t16 57t-15 56.5t-41.5 38t-57.5 13.5q-32 0 -58.5 -13.5t-42 -38t-15.5 -56.5q0 -33 14.5 -58t40.5 -38.5t60 -13.5q31 0 57 14zM408 65.5q41 24.5 64.5 68.5t23.5 99q0 56 -23 99.5t-64 67t-94 23.5q-50 0 -90.5 -24t-64 -67t-23.5 -99
q0 -57 23 -100.5t63.5 -67.5t91.5 -24q52 0 93 24.5z" />
    <glyph glyph-name="uni10D7.case" horiz-adv-x="898" 
d="M752.5 149.5q23.5 86.5 23.5 180.5v145q0 68 -17.5 112t-48.5 65t-70 21q-33 0 -62 -19t-47 -56t-18 -87v-258q0 -84 -28.5 -144.5t-80 -92t-118.5 -31.5q-68 0 -120 31t-81.5 91t-29.5 145v210q0 84 29 144.5t79.5 91.5t116.5 31q73 0 123.5 -33.5t70.5 -92.5h3
q10 38 36 66.5t60.5 44t70.5 15.5q58 0 102 -28.5t69.5 -85t25.5 -138.5v-144q0 -100 -22.5 -186.5t-59.5 -146.5h-67q37 63 60.5 149.5zM371.5 66q36.5 25 56.5 74.5t20 119.5v194q0 109 -41 164t-121 55q-50 0 -87 -25.5t-57.5 -74.5t-20.5 -119v-194q0 -70 20.5 -119
t57.5 -74.5t87 -25.5q49 0 85.5 25z" />
    <glyph glyph-name="uni10D8.case" horiz-adv-x="578" 
d="M431.5 156q24.5 93 24.5 185v123q0 59 -19.5 106.5t-57.5 75t-90 27.5q-53 0 -91 -27.5t-57.5 -75t-19.5 -106.5v-123q0 -93 24 -186t57 -155h-67q-33 58 -56.5 151.5t-23.5 189.5v131q0 76 29.5 134.5t82.5 90.5t122 32q68 0 120.5 -32.5t82 -90.5t29.5 -134v-131
q0 -96 -23 -189t-56 -152h-68q33 63 57.5 156z" />
    <glyph glyph-name="uni10D9.case" horiz-adv-x="547" 
d="M148.5 12q-54.5 27 -86.5 75t-32 108q0 26 4.5 50.5t13.5 42.5h62q-15 -43 -15 -86q0 -48 24 -84.5t64 -56.5t87 -20t86.5 21t62.5 60t23 91q0 51 -23 91t-62 62.5t-85 22.5h-51v56h66q38 0 66 15.5t43 41t15 55.5q0 42 -26.5 73t-71.5 40v55q52 -7 88.5 -30.5t55.5 -58
t19 -73.5q0 -56 -28.5 -93.5t-76.5 -51.5v-3q63 -23 100.5 -75.5t37.5 -129.5q0 -64 -31.5 -115.5t-86 -80.5t-121.5 -29t-121.5 27z" />
    <glyph glyph-name="uni10DA.case" horiz-adv-x="1011" 
d="M626.5 68.5q-44.5 26.5 -105.5 38t-122 11.5h-260v50h114v3q-54 17 -102.5 56.5t-80 101.5t-31.5 143q0 78 23 136t65 89.5t98 31.5q31 0 59 -13t49 -38t30 -60h4q8 35 29 60t50 38t59 13q31 0 60 -13t50 -38t28 -60h4q16 52 53 81.5t85 29.5q56 0 97 -33t63.5 -92.5
t22.5 -137.5q0 -57 -11.5 -111.5t-32.5 -101.5h-67q22 50 34.5 104t12.5 107q0 65 -14.5 112t-41.5 72t-64 25q-31 0 -55.5 -17.5t-38 -48.5t-13.5 -68v-188h-64v188q0 41 -14 71t-38.5 46.5t-55.5 16.5t-55.5 -17t-38.5 -47.5t-14 -69.5v-188h-66v188q0 39 -13.5 69.5
t-37 47.5t-53.5 17q-38 0 -65.5 -23.5t-42 -67.5t-14.5 -105q0 -93 42.5 -158t107 -99.5t132.5 -41.5q68 -5 121.5 -12.5t106.5 -25.5q59 -20 92 -57t37 -83h-65q-8 42 -52.5 68.5z" />
    <glyph glyph-name="uni10DB.case" horiz-adv-x="586" 
d="M161 16.5q-55 31.5 -87.5 90t-32.5 136.5q0 70 31 126.5t83.5 88.5t115.5 32q40 0 77.5 -12.5t66.5 -34.5t44 -51h2v109q0 59 -23 97.5t-61.5 56.5t-85.5 18q-40 0 -73.5 -15t-55 -40.5t-26.5 -57.5h-67q3 44 33 83t79.5 62.5t109.5 23.5q67 0 120.5 -25.5t84 -75
t30.5 -118.5v-268q0 -78 -32 -136.5t-87 -89.5t-124 -31q-67 0 -122 31.5zM375.5 65.5q40.5 24.5 63.5 70t23 104.5t-23 103t-64.5 67.5t-93.5 23.5q-51 0 -90.5 -25t-61.5 -69.5t-22 -99.5q0 -59 22.5 -104.5t62.5 -70t91 -24.5q52 0 92.5 24.5z" />
    <glyph glyph-name="uni10DC.case" horiz-adv-x="586" 
d="M125 389q15 28 44 50.5t66 35.5t74 13q65 0 118.5 -32t84.5 -89t31 -127q0 -78 -32.5 -135.5t-87.5 -88.5t-122 -31q-69 0 -124.5 30.5t-87.5 88.5t-32 136v302q0 90 48.5 131t145.5 41h229v-59h-227q-66 0 -98 -28t-32 -89v-149h2zM391 65q40 24 63 68.5t23 103.5
q0 55 -22.5 99t-62 69t-90.5 25q-52 0 -93 -23.5t-64.5 -67t-23.5 -102.5t23 -103.5t64 -68.5t93 -24q50 0 90 24z" />
    <glyph glyph-name="uni10DD.case" horiz-adv-x="798" 
d="M653.5 150.5q23.5 90.5 23.5 186.5v135q0 101 -35.5 151t-94.5 50q-33 0 -59 -18t-41.5 -50.5t-15.5 -75.5v-320h-66v320q0 43 -15 76t-41 50.5t-58 17.5q-39 0 -69 -22.5t-46.5 -68t-16.5 -112.5v-133q0 -93 24 -185.5t59 -151.5h-67q-37 60 -59.5 148.5t-22.5 188.5
v138q0 81 24.5 138t67.5 86.5t99 29.5q35 0 66.5 -13t54.5 -38.5t32 -61.5h3q10 36 33.5 61.5t55 38.5t64.5 13q57 0 100 -28.5t66.5 -85.5t23.5 -139v-139q0 -101 -22.5 -189.5t-59.5 -147.5h-69q38 60 61.5 150.5z" />
    <glyph glyph-name="uni10DE.case" horiz-adv-x="536" 
d="M146.5 10.5q-53.5 25.5 -85 70t-31.5 97.5q0 38 13 73h64q-11 -33 -11 -65q0 -41 21.5 -74.5t60 -52t85.5 -18.5q46 0 83.5 19.5t59 53.5t21.5 75q0 48 -21 83t-58 54t-83 19h-42v55h72q33 0 56 10.5t34.5 28.5t11.5 39q0 26 -12.5 44t-31 29.5t-49.5 25.5q-36 17 -61 33
t-42 42t-17 62h65q4 -32 29 -53.5t68 -42.5q38 -19 61 -33.5t39 -39.5t16 -63t-26 -68.5t-71 -43.5v-3q29 -8 58.5 -30t49.5 -60.5t20 -90.5q0 -57 -30.5 -102.5t-83 -72t-116.5 -26.5q-63 0 -116.5 25.5z" />
    <glyph glyph-name="uni10DF.case" horiz-adv-x="569" 
d="M154 11q-53 26 -84 74t-31 111q0 16 3 34.5t9 31.5h64q-4 -13 -7 -31t-3 -33q0 -45 22.5 -81t61 -56t83.5 -20q46 0 84.5 21t61.5 62t23 100v445l-227 -35v-2q38 -13 58.5 -46t20.5 -71q0 -39 -19.5 -70t-57 -48.5t-90.5 -17.5h-82v52h72q53 0 85.5 25t32.5 69
q0 31 -18 53t-46 33.5t-57 11.5v49l316 49h78v-502q0 -76 -31 -129t-84.5 -79t-119.5 -26q-65 0 -118 26z" />
    <glyph glyph-name="uni10E0.case" horiz-adv-x="738" 
d="M628 244q0 60 -15.5 101.5t-43 63t-63.5 21.5q-30 0 -54 -16.5t-38 -47.5t-14 -73v-154h-65v154q0 42 -13.5 73t-36.5 47.5t-53 16.5q-33 0 -61.5 -19.5t-45.5 -61t-17 -105.5t18.5 -126t51.5 -118h-67q-37 62 -53.5 126.5t-16.5 161.5q0 119 33 195.5t93 117.5t146 57
l97 19q28 5 46.5 13.5t25.5 23.5h66q-6 -40 -40.5 -61.5t-100.5 -33.5l-88 -16q-93 -17 -149 -68t-73 -143h2q11 31 33.5 52.5t50 32t53.5 10.5q46 0 80.5 -28t49.5 -78h3q17 50 55.5 78t86.5 28q53 0 94.5 -30t65 -85t23.5 -126q0 -70 -17.5 -130t-52.5 -116h-68
q72 117 72 244z" />
    <glyph glyph-name="uni10E1.case" horiz-adv-x="570" 
d="M177.5 12q-53.5 27 -85 81t-31.5 130v491h66v-486q0 -59 22.5 -101.5t61 -64t86.5 -21.5q46 0 84 19t60 52t22 72q0 45 -15 76t-44 62q-5 6 -28 30.5t-36 54t-16 64.5h64q4 -30 17 -51.5t28.5 -39.5t21.5 -24q24 -27 38.5 -49t24.5 -54t10 -76q0 -57 -32 -100.5
t-85 -67.5t-114 -24q-66 0 -119.5 27z" />
    <glyph glyph-name="uni10E2.case" horiz-adv-x="701" 
d="M192 27.5q-70 42.5 -110.5 123.5t-40.5 193q0 106 36.5 184.5t100 123.5t141.5 53h6q-4 20 -4 37h56q0 -10 -1.5 -21.5t-1.5 -15.5h6q78 -7 141 -51.5t99.5 -124t36.5 -185.5q0 -112 -40.5 -193.5t-110 -123.5t-156.5 -42q-88 0 -158 42.5zM475.5 78q54.5 37 85 106
t30.5 160q0 88 -26.5 154.5t-74 106t-108.5 48.5l-6 2q7 -65 7 -121v-214h-67v216q0 61 8 119l-7 -2q-62 -9 -109.5 -48.5t-74 -106.5t-26.5 -154q0 -91 30.5 -159.5t85.5 -106t127 -37.5q71 0 125.5 37z" />
    <glyph glyph-name="uni10E3.case" horiz-adv-x="594" 
d="M172 11.5q-56 26.5 -89 74.5t-33 110q0 26 6 51.5t15 43.5h62q-7 -19 -12 -44.5t-5 -46.5q0 -47 24 -83.5t65 -56t91 -19.5q48 0 87.5 21t63.5 62.5t24 99.5v320q0 38 -12.5 67t-36 45.5t-55.5 16.5q-30 0 -52.5 -15.5t-34.5 -43t-12 -61.5v-116h-65v123q0 47 -24.5 75
t-71.5 28h-63v58h56q55 0 88 -19.5t45 -63.5h4q14 44 51 67.5t88 23.5q46 0 82.5 -21t57.5 -61t21 -94v-334q0 -71 -32 -124t-87 -81.5t-122 -28.5q-68 0 -124 26.5z" />
    <glyph glyph-name="uni10E4.case" horiz-adv-x="799" 
d="M326 3q-59 18 -96.5 57t-42.5 100h65q12 -66 69.5 -92.5t136.5 -26.5q51 0 99 14.5t79.5 46.5t31.5 82q0 39 -15.5 68.5t-44.5 46t-68 16.5h-25v56h48q60 0 93.5 40.5t33.5 109.5q0 73 -33.5 112.5t-90.5 39.5q-34 0 -61.5 -16.5t-43 -46.5t-15.5 -70v-37
q0 -67 -25.5 -118t-72.5 -79.5t-110 -28.5t-110 28.5t-71.5 79.5t-24.5 118q0 68 25.5 119.5t71.5 79t104 27.5q63 0 109.5 -28.5t67.5 -87.5h3q10 37 33 63t55.5 39.5t69.5 13.5q54 0 96 -25t65.5 -71t23.5 -108q0 -73 -30 -120t-85 -66v-3q44 -18 68 -60.5t24 -100.5
q0 -60 -37 -103t-99.5 -65t-138.5 -22q-73 0 -132 18zM316 352.5q33 21.5 50.5 60t17.5 90.5q0 55 -18 94t-51 58.5t-77 19.5q-45 0 -77.5 -21t-50 -60t-17.5 -91q0 -51 17 -90t49.5 -60.5t77.5 -21.5q46 0 79 21.5z" />
    <glyph glyph-name="uni10E5.case" horiz-adv-x="560" 
d="M146 9q-52 26 -81.5 73.5t-29.5 109.5q0 14 3 30.5t8 29.5h61q-3 -14 -5 -28t-2 -25q0 -47 21 -83.5t58.5 -56.5t83.5 -20q50 0 88.5 21t60 61t21.5 94v148q0 57 -22 100t-59.5 65.5t-82.5 22.5q-42 0 -73.5 -17.5t-48.5 -47t-17 -65.5q0 -18 4 -38h-64q-6 24 -6 44
q0 50 24.5 91.5t67.5 65t97 23.5q62 0 106.5 -26.5t69.5 -70.5h2v204h65v-502q0 -74 -29.5 -125.5t-82.5 -77.5t-121 -26q-65 0 -117 26z" />
    <glyph glyph-name="uni10E6.case" horiz-adv-x="751" 
d="M453 59q-23 25 -63 39t-94 14h-167v51h104v3q-53 16 -98 57t-72.5 103.5t-27.5 140.5t24 137.5t67 92t98 32.5t95 -26.5t55 -81.5h3q18 55 57 81.5t92 26.5q56 0 98.5 -31.5t66 -89t23.5 -134.5q0 -118 -42 -211h-67q22 46 33 99.5t11 109.5q0 63 -16.5 108.5t-46 69
t-68.5 23.5q-32 0 -57.5 -16.5t-39.5 -48t-14 -76.5v-183h-65v183q0 45 -14 76.5t-39 48t-57 16.5q-40 0 -69.5 -25t-45.5 -72t-16 -109q0 -91 40 -156t99.5 -101.5t120.5 -46.5q88 -15 133.5 -56.5t50.5 -106.5h-65q-4 34 -27 59z" />
    <glyph glyph-name="uni10E7.case" horiz-adv-x="579" 
d="M170.5 4.5q-53.5 19.5 -87.5 59.5t-34 98q0 28 9 53h61q-6 -19 -6 -42q0 -41 23.5 -71t62 -45.5t84.5 -15.5q49 0 87 20.5t59.5 60t21.5 94.5v180h-2q-23 -45 -72 -71t-113 -26q-58 0 -109.5 27.5t-82.5 78.5t-31 117q0 59 17 108.5t40 83.5h62q-22 -36 -37.5 -85
t-15.5 -100q0 -54 23.5 -93.5t62.5 -60.5t85 -21q49 0 89.5 24.5t64 67.5t23.5 96v172h62v-505q0 -70 -30.5 -121t-84 -77t-119.5 -26q-59 0 -112.5 19.5z" />
    <glyph glyph-name="uni10E8.case" horiz-adv-x="586" 
d="M161 15q-55 30 -87.5 87t-32.5 134q0 69 30.5 124t83 86.5t114.5 31.5q61 0 113 -25.5t77 -68.5h2v163q0 58 -26 92.5t-73 34.5q-27 0 -48.5 -13t-33.5 -34t-12 -45v-29h-65v30q0 37 -24 59.5t-68 22.5h-61v56h68q42 0 73.5 -18.5t42.5 -56.5h3q16 41 52 62t81 21
t80.5 -19.5t55.5 -58.5t20 -96v-320q0 -77 -32 -133.5t-87 -86.5t-124 -30q-67 0 -122 30zM376 64.5q41 23.5 64 67t23 101.5q0 57 -23.5 100t-64.5 66t-93 23q-51 0 -91 -24.5t-62 -67.5t-22 -97q0 -58 22.5 -101.5t62.5 -67t91 -23.5q52 0 93 23.5z" />
    <glyph glyph-name="uni10E9.case" horiz-adv-x="574" 
d="M182.5 655.5q-27.5 -16.5 -43.5 -47t-16 -69.5v-154h2q15 27 42.5 50t64.5 37t79 14q59 0 109 -29.5t80 -85t30 -130.5q0 -133 -67 -241h-65q33 62 49.5 116.5t16.5 121.5q0 60 -22.5 103t-60.5 65.5t-84 22.5q-49 0 -89 -24.5t-63 -69t-23 -103.5v-232h-65v544
q0 54 25 96.5t68 65.5t95 23q56 0 100.5 -24.5t69.5 -66.5t25 -93h-63q0 35 -17 64t-47 46t-68 17q-35 0 -62.5 -16.5z" />
    <glyph glyph-name="uni10EA.case" horiz-adv-x="629" 
d="M189 28q-68 43 -108 128.5t-40 208.5q0 102 32.5 190t83.5 159h66q-49 -72 -82.5 -164t-33.5 -185q0 -106 32.5 -179t86 -109t115.5 -36q52 0 93 20.5t63.5 57t22.5 83.5q0 48 -20 85.5t-58 58t-92 20.5h-44v55h70q58 0 89.5 22t31.5 65q0 20 -8 36t-19.5 28t-32.5 30
q-22 18 -36 32.5t-23.5 34t-9.5 45.5h61q2 -17 11 -31.5t22.5 -28t27.5 -25.5q23 -19 38 -34.5t25 -37t10 -49.5q0 -40 -28 -71.5t-76 -46.5v-3q33 -9 62 -35.5t47 -66.5t18 -87q0 -60 -30 -108.5t-85.5 -76.5t-129.5 -28q-84 0 -152 43z" />
    <glyph glyph-name="uni10EB.case" horiz-adv-x="590" 
d="M161 16q-55 31 -87.5 89t-32.5 136q0 70 30.5 126.5t82.5 88.5t115 32q40 0 78 -12.5t67.5 -34.5t44.5 -51h2v324h65v-474q0 -78 -32 -136t-87 -88.5t-124 -30.5q-67 0 -122 31zM376 65q41 24 64 69t23 104t-23.5 103t-65 67.5t-93.5 23.5q-51 0 -90.5 -25t-61.5 -69
t-22 -100q0 -59 22.5 -104t62.5 -69t91 -24q52 0 93 24z" />
    <glyph glyph-name="uni10EC.case" horiz-adv-x="590" 
d="M180 15q-55 30 -87 86.5t-32 133.5v320q0 57 20 96t55.5 58.5t80.5 19.5t81 -21t52 -62h4q10 38 41.5 56.5t74.5 18.5h67v-56h-61q-44 0 -67.5 -22.5t-23.5 -59.5v-30h-66v29q0 24 -12 45t-33.5 34t-48.5 13q-47 0 -72.5 -34.5t-25.5 -92.5v-163h2q25 43 76.5 68.5
t112.5 25.5q62 0 114.5 -31.5t83 -86.5t30.5 -124q0 -77 -32.5 -134t-87.5 -87t-122 -30q-69 0 -124 30zM395 64.5q40 23.5 62.5 67t22.5 101.5q0 54 -22 97t-62 67.5t-91 24.5q-52 0 -93 -23t-64 -66t-23 -100q0 -58 23 -101.5t63.5 -67t92.5 -23.5q51 0 91 23.5z" />
    <glyph glyph-name="uni10ED.case" horiz-adv-x="619" 
d="M152.5 10q-52.5 25 -83 71.5t-30.5 108.5q0 12 3 26.5t7 25.5h63q-3 -10 -4.5 -23.5t-1.5 -24.5q0 -46 21.5 -80.5t58.5 -53.5t84 -19q48 0 86 20t59 58t21 91v195h-2q-12 -26 -39 -47.5t-65.5 -34t-80.5 -12.5q-47 0 -91 17.5t-72 51.5t-28 82q0 50 28 83.5t72.5 49.5
t96.5 16h181v105h66v-105h100v-52h-100v-343q0 -73 -30 -125.5t-82.5 -79t-119.5 -26.5q-65 0 -117.5 25zM345.5 382.5q39.5 16.5 65 49.5t25.5 79v48h-172q-61 0 -100.5 -23t-39.5 -70q0 -31 19 -54t51 -34.5t70 -11.5q42 0 81.5 16.5z" />
    <glyph glyph-name="uni10EE.case" horiz-adv-x="590" 
d="M180 15.5q-55 30.5 -87 88.5t-32 136v474h66v-324h2q15 29 44.5 51t67.5 34.5t78 12.5q63 0 114.5 -32t82 -88t30.5 -127q0 -78 -32 -136t-87 -89t-123 -31q-69 0 -124 30.5zM395 65q40 24 62.5 69t22.5 104q0 56 -22 100t-61.5 69t-90.5 25q-52 0 -93 -23.5t-64.5 -67.5
t-23.5 -103t23 -104t64 -69t92 -24t91 24z" />
    <glyph glyph-name="uni10EF.case" horiz-adv-x="551" 
d="M153.5 9.5q-54.5 26.5 -86.5 74.5t-32 108q0 17 3 36t8 32h62q-8 -32 -8 -62q0 -47 24 -83t63.5 -56t85.5 -20q45 0 84 20t62.5 57.5t23.5 89.5q0 53 -22 93t-59.5 62t-84.5 22h-41v176h-190v52h190v111h63v-111h191v-52h-191v-121q59 -5 106.5 -33t76 -79.5t28.5 -122.5
q0 -63 -32 -113.5t-86 -78.5t-119 -28t-119.5 26.5z" />
    <glyph glyph-name="uni10F0.case" horiz-adv-x="547" 
d="M151 3q-54 18 -87.5 54t-33.5 87q0 25 10 54h61q-7 -26 -7 -42q0 -39 24.5 -65t64.5 -38t86 -12q47 0 85.5 12t61.5 36.5t23 61.5q0 52 -34.5 80.5t-94.5 28.5h-102v51h113q98 0 98 64q0 33 -26.5 50.5t-71.5 17.5h-113v52h113q46 0 66.5 14t20.5 40q0 19 -13 31.5
t-33 20.5t-51 17q-37 10 -62.5 20.5t-43 29t-19.5 46.5h58q7 -18 32 -29.5t73 -25.5q41 -13 65.5 -24t41.5 -31.5t17 -53.5q0 -63 -76 -80v-2q24 -4 44 -16.5t32 -32t12 -44.5q0 -37 -21 -58.5t-61 -30.5v-2q45 -12 73.5 -45t28.5 -88q0 -52 -32.5 -90t-87 -57t-119.5 -19
q-61 0 -115 18z" />
    <glyph glyph-name="uni10F1.case" horiz-adv-x="617" 
d="M190.5 26.5q-69.5 41.5 -111 127t-41.5 209.5q0 98 27.5 186t76.5 165h64q-47 -76 -74.5 -166.5t-27.5 -184.5q0 -109 34 -181t88.5 -106.5t118.5 -34.5q47 0 84 13t58 38t21 58q0 52 -34.5 79.5t-89.5 27.5h-86v54h97q92 0 92 62q0 33 -24.5 50.5t-67.5 17.5h-97v54h97
q43 0 62 14t19 38q0 19 -6.5 32t-16 21.5t-25.5 19.5q-19 13 -31 23.5t-22 28t-15 42.5h64q7 -22 20.5 -35.5t38.5 -31.5q20 -14 32.5 -25.5t20.5 -29.5t8 -43q0 -27 -19 -49t-61 -30v-3q38 -6 64 -31t26 -62q0 -38 -21.5 -58.5t-62.5 -30.5v-3q45 -12 74.5 -46.5
t29.5 -90.5q0 -47 -30.5 -83.5t-83 -56.5t-117.5 -20q-83 0 -152.5 41.5z" />
    <glyph glyph-name="uni10F2.case" horiz-adv-x="576" 
d="M395 13.5q-55 15.5 -108 43.5q-115 -59 -216 -59v56q40 0 86.5 9.5t82.5 26.5v3q-58 31 -103 83.5t-70.5 123t-25.5 150.5t32.5 143.5t88.5 99.5t125 36t125.5 -36t88.5 -99.5t32 -143.5t-25.5 -150.5t-70 -123t-102.5 -83.5v-3q36 -17 82 -26.5t86 -9.5v-56
q-53 0 -108 15.5zM419.5 253.5q48.5 85.5 48.5 191.5q0 65 -23 117t-64.5 81.5t-93.5 29.5t-93 -29.5t-64 -81.5t-23 -117q0 -106 48.5 -191.5t131.5 -135.5q84 50 132.5 135.5z" />
    <glyph glyph-name="uni10F3.case" horiz-adv-x="557" 
d="M156 11.5q-56 26.5 -88.5 74t-32.5 107.5q0 24 5.5 49.5t13.5 43.5h64q-8 -18 -12 -42t-4 -44q0 -46 23.5 -82t64 -56.5t89.5 -20.5q47 0 86 23t62 61.5t23 83.5q0 50 -21 88.5t-58.5 59t-84.5 20.5h-45v56h67q38 0 63.5 16t38 42.5t12.5 58.5v107h-344v56h410v-156
q0 -55 -27 -95.5t-74 -56.5v-2q37 -12 66.5 -40t46 -69t16.5 -90q0 -61 -31 -111t-85.5 -79t-120.5 -29q-67 0 -123 26.5z" />
    <glyph glyph-name="uni10F4.case" horiz-adv-x="557" 
d="M156 11.5q-56 26.5 -88.5 73.5t-32.5 108q0 22 4.5 45.5t11.5 40.5h64q-6 -17 -9.5 -39t-3.5 -41q0 -45 24 -81.5t64.5 -56.5t88.5 -20q47 0 86 19t62 54t23 80t-21.5 78.5t-58.5 51t-81 17.5h-43v56h62q37 0 63 15.5t38.5 42t12.5 58.5v52h-191q-52 0 -89 19t-55.5 53.5
t-18.5 79.5h64q0 -44 27 -70t85 -26h244v-101q0 -55 -26 -95t-73 -55v-4q57 -15 92 -61t35 -117q0 -57 -31 -103.5t-85.5 -73t-120.5 -26.5q-67 0 -123 26.5z" />
    <glyph glyph-name="uni10F5.case" horiz-adv-x="604" 
d="M147.5 2.5q-48.5 17.5 -77.5 52.5t-29 85t25.5 85t70 52.5t101.5 17.5h180v136h-180q-88 0 -140 37t-52 113q0 50 29 83t77 49t106 16q57 0 107.5 -17t83 -56t32.5 -102v-70h107v-53h-107v-136h107v-54h-107v-77q0 -63 -33.5 -103t-85.5 -58t-109 -18t-105.5 17.5z
M418 552q0 44 -22.5 71.5t-57.5 40t-76 12.5q-66 0 -109 -24t-43 -72t36 -72t93 -24h179v68zM336 51q36 12 59 39.5t23 71.5v79h-181q-36 0 -65.5 -11.5t-47 -34t-17.5 -55.5q0 -32 20.5 -55t55 -34.5t76.5 -11.5q41 0 77 12z" />
    <glyph glyph-name="uni10F6.case" horiz-adv-x="738" 
d="M241 50h25q29 0 43.5 7t20 24t5.5 51v69q-90 5 -156 35t-102 86.5t-36 137.5q0 80 39 136t106.5 85t151.5 33l-3 30h64l-1 -30q87 -4 154.5 -34.5t105.5 -86.5t38 -133q0 -82 -37.5 -138.5t-104 -86.5t-155.5 -34v-74q0 -46 -13.5 -73.5t-42 -40t-73.5 -13.5h-29v50z
M215.5 635.5q-51.5 -23.5 -80 -68t-28.5 -107.5q0 -100 61.5 -151t166.5 -55v408q-68 -3 -119.5 -26.5zM568 308.5q62 50.5 62 151.5q0 65 -29.5 109.5t-81.5 67t-120 25.5v-408q107 4 169 54.5z" />
    <glyph glyph-name="uni10F7.case" horiz-adv-x="564" 
d="M358.5 711.5q39.5 -17.5 63 -49.5t23.5 -75q0 -49 -22 -82t-54 -52.5t-88 -45.5q-58 -26 -94 -48.5t-61 -61.5t-25 -99q0 -43 24 -79t65 -57t92 -21q52 0 93 21.5t64 57.5t23 78q0 28 -5 51.5t-14 50.5h64q8 -16 14.5 -45t6.5 -57q0 -63 -33 -111.5t-89.5 -75
t-124.5 -26.5q-65 0 -121.5 25.5t-90.5 74t-34 113.5q0 74 30 122.5t72 75.5t108 56q48 22 74.5 37.5t44.5 38.5t18 55q0 46 -30 70t-78 24q-30 0 -54.5 -11.5t-39.5 -34.5t-15 -56h-64q0 49 25 83.5t64.5 52.5t82.5 18q46 0 85.5 -17.5z" />
    <glyph glyph-name="uni10F8.case" horiz-adv-x="576" 
d="M173 11q-53 26 -84 77t-31 121v505h62v-172q0 -54 23 -96.5t63.5 -67t89.5 -24.5q46 0 85.5 21t63 60.5t23.5 93.5q0 51 -16 100t-38 85h62q23 -34 40 -83.5t17 -108.5q0 -66 -31 -117t-82 -78.5t-109 -27.5q-65 0 -114 26t-71 71h-2v-180q0 -55 21.5 -94.5t59.5 -60
t87 -20.5q46 0 84.5 15.5t62 45.5t23.5 71q0 19 -7 42h62q8 -22 8 -53q0 -58 -33.5 -98t-87 -59.5t-112.5 -19.5q-66 0 -119 26z" />
    <glyph glyph-name="uni10F9.case" horiz-adv-x="567" 
d="M406.5 699q56.5 -30 90 -85.5t33.5 -128.5q0 -66 -27 -116t-72.5 -81t-102.5 -45q-73 -17 -106 -46t-33 -68q0 -27 14.5 -48t39 -32.5t53.5 -11.5t54 12.5t40.5 35.5t15.5 54h64q0 -49 -25 -83.5t-65 -52.5t-83 -18q-45 0 -84 17.5t-62.5 49.5t-23.5 75q0 49 28.5 78.5
t78.5 45.5v2q-57 7 -102 39t-70 82.5t-25 110.5q0 72 33 127.5t89.5 86t124.5 30.5q66 0 122.5 -30zM192 649.5q-42 -23.5 -66.5 -66.5t-24.5 -98q0 -58 24.5 -101.5t66.5 -67t92 -23.5q49 0 90 23.5t65.5 67.5t24.5 101q0 56 -24.5 98.5t-66 66t-90.5 23.5t-91 -23.5z" />
    <glyph glyph-name="uni10FA.case" horiz-adv-x="565" 
d="M334 81q-37 29 -110 29h-113v51h112v3q-78 36 -130.5 107.5t-52.5 183.5q0 88 32 150t86.5 93t122.5 31q69 0 123 -31t85.5 -93t31.5 -151q0 -38 -8.5 -79.5t-17.5 -59.5h-65q11 26 18.5 62.5t7.5 76.5q0 69 -23 118t-63 74.5t-89 25.5q-50 0 -89.5 -25.5t-62.5 -74.5
t-23 -117q0 -81 26.5 -134.5t64.5 -84t99 -64.5q48 -27 76 -47t47.5 -50.5t21.5 -74.5h-65q-5 52 -42 81z" />
    <glyph glyph-name="uni10FD.case" horiz-adv-x="629" 
d="M448.5 705q57.5 -26 89 -76t32.5 -121h-65q-13 164 -197 164q-85 0 -134 -35.5t-49 -101.5q0 -31 12.5 -53.5t46 -40.5t96.5 -32l88 -20q79 -16 128.5 -41t73.5 -64t24 -96q0 -64 -36.5 -110.5t-98 -70.5t-134.5 -24q-88 0 -153 29t-100.5 86t-35.5 137h65
q0 -62 27.5 -105.5t78 -66t120.5 -22.5q61 0 105.5 17t69 49.5t24.5 78.5q0 44 -23 72t-69 46t-125 34q-108 21 -162.5 48t-72 60.5t-17.5 84.5q0 63 32.5 108t90 68.5t131.5 23.5q80 0 137.5 -26z" />
    <glyph glyph-name="uni10FE.case" horiz-adv-x="576" 
d="M417 650.5q-46 -9.5 -82 -26.5v-3q58 -31 102.5 -83.5t70 -123t25.5 -150.5t-32 -143.5t-88.5 -99.5t-125.5 -36t-125 36t-88.5 99.5t-32.5 143.5t25.5 150.5t70.5 123t103 83.5v3q-36 17 -82.5 26.5t-86.5 9.5v56q101 0 216 -59q53 28 108 43.5t108 15.5v-56
q-40 0 -86 -9.5zM155.5 460.5q-48.5 -85.5 -48.5 -191.5q0 -65 23 -117t64 -81.5t93 -29.5t93.5 29.5t64.5 81.5t23 117q0 106 -48.5 191.5t-132.5 135.5q-83 -50 -131.5 -135.5z" />
    <glyph glyph-name="uni10FF.case" horiz-adv-x="691" 
d="M187 31.5q-69 46.5 -107.5 131t-38.5 194.5q0 107 37.5 191.5t106.5 132.5t160 48q89 0 157.5 -45.5t107 -129.5t38.5 -197t-39.5 -197.5t-108.5 -129.5t-155 -45q-89 0 -158 46.5zM469.5 80.5q53.5 39.5 83 111t29.5 165.5q0 92 -28.5 163.5t-82.5 112t-127 40.5
q-72 0 -125.5 -40.5t-82 -112t-28.5 -163.5q0 -91 28 -162.5t81.5 -112.5t127.5 -41q71 0 124.5 39.5z" />
    <glyph glyph-name="uni10FB.case" horiz-adv-x="501" 
d="M176 561v-116h-75v116h75zM438 364v-115h-75v115h75zM176 165v-115h-75v115h75z" />
    </font>
</defs>
</svg>
