<?xml version="1.0" standalone="no"?>
<!DOCTYPE svg PUBLIC "-//W3C//DTD SVG 1.1//EN" "http://www.w3.org/Graphics/SVG/1.1/DTD/svg11.dtd" >
<svg xmlns="http://www.w3.org/2000/svg" xmlns:xlink="http://www.w3.org/1999/xlink" version="1.1">
<metadata>
Created by FontForge 20170731 at Thu Jan 14 18:23:52 2016
 By Aleksey,,,
Copyright (c) 2016 Monotype Imaging Inc. All rights reserved.
</metadata>
<defs>
<font id="HelveticaNeueLTGEOW82-25UltLt" horiz-adv-x="130" >
  <font-face 
    font-family="HelveticaNeueLTGEOW82-25UltLt"
    font-weight="250"
    font-stretch="normal"
    units-per-em="1000"
    panose-1="2 11 3 3 2 2 2 2 2 4"
    ascent="800"
    descent="-200"
    x-height="514"
    cap-height="714"
    bbox="-166 -219 1016 938"
    underline-thickness="50"
    underline-position="-225"
    unicode-range="U+000D-FEFF"
  />
<missing-glyph horiz-adv-x="512" 
d="M512 0h-512v718h512v-718zM462 667h-412v-617h412v617zM322.5 592.5q28.5 -16.5 44.5 -46.5t16 -68q0 -26 -7 -46t-20.5 -36.5t-36.5 -38.5q-34 -31 -41 -49q-7 -17 -7 -74h-46q-2 12 -2 22q0 28 3.5 46.5t11.5 33.5q15 26 48 59q13 12 24 24.5t16.5 25.5t5.5 29
q0 24 -10.5 43.5t-28 30.5t-37.5 11q-34 0 -55 -24t-27 -71l-50 8q7 67 41.5 102t93.5 35q35 0 63.5 -16.5zM278 184v-67h-56v67h56z" />
    <glyph glyph-name=".notdef" horiz-adv-x="512" 
d="M512 0h-512v718h512v-718zM462 667h-412v-617h412v617zM322.5 592.5q28.5 -16.5 44.5 -46.5t16 -68q0 -26 -7 -46t-20.5 -36.5t-36.5 -38.5q-34 -31 -41 -49q-7 -17 -7 -74h-46q-2 12 -2 22q0 28 3.5 46.5t11.5 33.5q15 26 48 59q13 12 24 24.5t16.5 25.5t5.5 29
q0 24 -10.5 43.5t-28 30.5t-37.5 11q-34 0 -55 -24t-27 -71l-50 8q7 67 41.5 102t93.5 35q35 0 63.5 -16.5zM278 184v-67h-56v67h56z" />
    <glyph glyph-name="glyph1" horiz-adv-x="0" 
 />
    <glyph glyph-name="glyph1" horiz-adv-x="0" 
 />
    <glyph glyph-name="uni000D" unicode="&#xd;" horiz-adv-x="278" 
 />
    <glyph glyph-name="space" unicode=" " horiz-adv-x="278" 
 />
    <glyph glyph-name="exclam" unicode="!" horiz-adv-x="185" 
d="M103 714v-532h-20v532h20zM103 98v-98h-20v98h20z" />
    <glyph glyph-name="quotedbl" unicode="&#x22;" horiz-adv-x="278" 
d="M93 714v-225h-20v225h20zM205 714v-225h-20v225h20z" />
    <glyph glyph-name="numbersign" unicode="#" horiz-adv-x="556" 
d="M245 680l-31 -234h171l31 234h20l-31 -234h116v-20h-121l-24 -177h117v-20h-121l-31 -229h-20l31 229h-172l-31 -229h-20l31 229h-125v20h130l24 177h-126v20h131l31 234h20zM185 249h171l24 177h-171z" />
    <glyph glyph-name="dollar" unicode="$" horiz-adv-x="556" 
d="M285 774v-44q114 -3 173.5 -57.5t64.5 -158.5h-20q-3 95 -59 144.5t-159 51.5v-334q36 -9 71 -18.5t62 -18.5q61 -22 90 -60t29 -104q0 -58 -31.5 -101t-88.5 -66.5t-132 -24.5v-88h-20v89q-126 4 -192.5 68t-66.5 178v7h20q0 -111 59.5 -170t179.5 -63v356
q-61 13 -98.5 25t-59 23.5t-37.5 27.5q-21 20 -32 47t-11 64q0 58 29 99t82.5 62.5t126.5 22.5v43h20zM87 448q22 -21 62.5 -37t115.5 -30v330q-64 0 -113 -19t-77 -55.5t-28 -89.5q0 -62 40 -99zM407.5 25q52.5 21 81 60t28.5 91q0 34 -9 58t-30 46q-21 23 -64.5 40.5
t-128.5 34.5v-352q70 1 122.5 22z" />
    <glyph glyph-name="percent" unicode="%" horiz-adv-x="685" 
d="M587 714l-476 -748h-23l476 748h23zM257 670q35 -22 53 -60.5t18 -89.5q0 -48 -19 -87t-54 -61t-82 -22q-48 0 -82 21.5t-52 60t-18 87.5q0 51 18.5 90.5t52.5 61t81 21.5q49 0 84 -22zM57 441q16 -34 46 -52.5t70 -18.5q41 0 71.5 19t47 53t16.5 78q0 72 -35 112
t-101 40q-63 0 -97 -40.5t-34 -112.5q0 -44 16 -78zM592 309q35 -21 53.5 -60t18.5 -91q0 -50 -19.5 -88.5t-54.5 -60t-81 -21.5t-80.5 21t-53 59.5t-18.5 88.5q0 51 18.5 90.5t53 61t80.5 21.5q48 0 83 -21zM393 79.5q16 -33.5 45.5 -52.5t70.5 -19q40 0 71 19t47.5 53
t16.5 78q0 72 -34.5 112t-101.5 40q-62 0 -96.5 -40t-34.5 -113q0 -44 16 -77.5z" />
    <glyph glyph-name="ampersand" unicode="&#x26;" horiz-adv-x="574" 
d="M351 697.5q33 -16.5 52 -47t19 -69.5q0 -78 -88 -142l-69 -50l188 -238q13 29 18.5 55.5t5.5 56.5v14h20v-6q0 -40 -6.5 -69.5t-23.5 -68.5l105 -133h-26l-89 113q-37 -66 -90 -98t-119 -32q-39 0 -76 13t-67 37q-30 25 -45.5 57.5t-15.5 69.5q0 30 9.5 57.5t29.5 54.5
q21 28 57.5 57.5t95.5 64.5q-3 4 -15.5 20.5t-36.5 47.5q-54 69 -54 120q0 40 19.5 70t52.5 46t74 16q42 0 75 -16.5zM170 519q16 -29 83 -115q93 62 120 99q15 20 22 39t7 39q0 31 -16 57t-45 41t-65 15t-64.5 -14t-45 -39.5t-16.5 -57.5q0 -29 20 -64zM89 77.5
q25 -35.5 67 -55t92 -19.5q64 0 114 32t82 97l-196 246l-32 -20q-90 -57 -119 -99q-33 -46 -33 -99q0 -47 25 -82.5z" />
    <glyph glyph-name="quotesingle" unicode="'" horiz-adv-x="167" 
d="M94 714v-225h-20v225h20z" />
    <glyph glyph-name="parenleft" unicode="(" horiz-adv-x="222" 
d="M118 513.5q-30 -115.5 -30 -231.5q0 -119 29.5 -236t87.5 -223h-20q-61 117 -89 226.5t-28 232.5q0 117 30.5 233t85.5 216h20q-56 -102 -86 -217.5z" />
    <glyph glyph-name="parenright" unicode=")" horiz-adv-x="222" 
d="M127.5 499q26.5 -105 26.5 -227q0 -115 -29 -228t-86 -220h-21q58 106 87 219.5t29 228.5q0 245 -117 459h20q64 -127 90.5 -232z" />
    <glyph glyph-name="asterisk" unicode="*" horiz-adv-x="352" 
d="M184 714v-140l132 43l4 -19l-130 -43l83 -109l-16 -12l-83 108l-84 -104l-16 13l88 104l-130 43l6 19l126 -43v140h20z" />
    <glyph glyph-name="plus" unicode="+" horiz-adv-x="600" 
d="M310 506v-243h242v-20h-242v-243h-20v243h-242v20h242v243h20z" />
    <glyph glyph-name="comma" unicode="," horiz-adv-x="278" 
d="M149 98v-107q0 -81 -44 -110v20q13 13 18.5 35t5.5 58v104h20z" />
    <glyph glyph-name="hyphen" unicode="-" horiz-adv-x="333" 
d="M254 258h-175v20h175v-20z" />
    <glyph glyph-name="period" unicode="." horiz-adv-x="278" 
d="M149 98v-98h-20v98h20z" />
    <glyph glyph-name="slash" unicode="/" horiz-adv-x="333" 
d="M340 731l-327 -748h-20l327 748h20z" />
    <glyph glyph-name="zero" unicode="0" horiz-adv-x="556" 
d="M419.5 648.5q57.5 -43.5 86.5 -123t29 -185.5q0 -107 -29 -186t-87 -122.5t-141 -43.5t-140.5 43t-87 122.5t-29.5 186.5q0 106 29 185.5t86.5 123t141.5 43.5t141.5 -43.5zM68 164q27 -75 80.5 -115.5t129.5 -40.5q77 0 130 41t80 115.5t27 175.5q0 99 -26 173.5
t-79.5 116.5t-132.5 42q-75 0 -128 -40.5t-80.5 -115.5t-27.5 -176t27 -176z" />
    <glyph glyph-name="one" unicode="1" horiz-adv-x="556" 
d="M318 0h-20v654h-2q-30 -42 -78 -73.5t-103 -46.5v20q55 18 95 45t86 81h22v-680z" />
    <glyph glyph-name="two" unicode="2" horiz-adv-x="556" 
d="M396.5 670q47.5 -22 73 -63.5t25.5 -96.5q0 -64 -45 -125t-146 -130q-79 -54 -122 -87t-73.5 -71t-33.5 -77h438v-20h-458v4q0 55 37 105q38 52 174 145q126 86 167 141q21 29 31.5 56.5t10.5 57.5q0 51 -23.5 87.5t-66.5 56t-99 19.5q-98 0 -148.5 -55.5t-50.5 -159.5
h-20q1 115 57 175t162 60q63 0 110.5 -22z" />
    <glyph glyph-name="three" unicode="3" horiz-adv-x="556" 
d="M403 672.5q48 -19.5 74.5 -57t26.5 -90.5q0 -68 -39 -109.5t-107 -48.5v-2q76 -9 117.5 -56t41.5 -121q0 -59 -30 -104.5t-82.5 -70.5t-117.5 -25q-74 0 -130 26t-87 75.5t-31 118.5l1 22h20q-1 -7 -1 -22q0 -62 28 -107t79.5 -69t120.5 -24q60 0 107.5 22.5t75 63.5
t27.5 94q0 87 -57.5 127.5t-150.5 40.5h-36v20h50q53 0 94 17t64 50t23 80q0 45 -23 78.5t-66.5 52t-103.5 18.5q-66 0 -114 -22.5t-73 -66.5t-25 -106v-8h-20v9q0 66 27.5 114.5t79.5 74t125 25.5q64 0 112 -19.5z" />
    <glyph glyph-name="four" unicode="4" horiz-adv-x="556" 
d="M399 680v-483h123v-20h-123v-177h-20v177h-345v24l340 479h25zM379 197v455h-2l-323 -455h325z" />
    <glyph glyph-name="five" unicode="5" horiz-adv-x="556" 
d="M480 660h-333l-62 -291h2q28 45 75 68.5t111 23.5q68 0 121.5 -29.5t83.5 -83t30 -122.5q0 -71 -29.5 -125t-83 -83.5t-122.5 -29.5q-70 0 -123.5 27t-83 76.5t-29.5 114.5v12h21q-1 -4 -1 -12q0 -61 27 -105.5t75.5 -68.5t113.5 -24q63 0 112 26.5t76 75.5t27 116
q0 64 -27.5 113t-76.5 75.5t-111 26.5q-63 0 -113 -27.5t-77 -76.5h-25l73 343h349v-20z" />
    <glyph glyph-name="six" unicode="6" horiz-adv-x="556" 
d="M395 670.5q45 -21.5 74 -61t36 -89.5h-20q-16 74 -66.5 113t-124.5 39q-79 0 -132 -46t-78.5 -127t-25.5 -188v-24h2q10 49 43 88t80.5 61t98.5 22q46 0 88 -17.5t75 -48.5q34 -32 53 -75.5t19 -93.5q0 -46 -17 -89.5t-52 -77.5q-34 -34 -77 -51t-89 -17q-36 0 -71 11
t-64 32q-41 30 -64.5 67t-33.5 89t-10 132q0 110 28.5 194.5t86 131.5t141.5 47q55 0 100 -21.5zM83 141q16 -39 47 -70q65 -63 152 -63q43 0 82 16t70 47q63 65 63 152t-63 152q-31 31 -70 47t-83 16q-43 0 -81.5 -16t-69.5 -47t-47 -70t-16 -82t16 -82z" />
    <glyph glyph-name="seven" unicode="7" horiz-adv-x="556" 
d="M495 653q-108 -108 -176 -212.5t-99.5 -212.5t-31.5 -228h-20v11q0 174 74.5 333.5t230.5 315.5h-412v20h434v-27z" />
    <glyph glyph-name="eight" unicode="8" horiz-adv-x="556" 
d="M393.5 671.5q47.5 -20.5 72.5 -59t25 -91.5q0 -37 -17 -68t-49 -51.5t-74 -26.5v-2q83 -9 128.5 -57.5t45.5 -125.5q0 -65 -31 -110t-87 -68.5t-129 -23.5q-74 0 -129.5 23.5t-86.5 69t-31 109.5q0 77 45.5 125.5t128.5 57.5v2q-41 6 -73 26.5t-49.5 51.5t-17.5 68
q0 53 25 91.5t72.5 59t115.5 20.5t115.5 -20.5zM110.5 446.5q25.5 -31.5 69.5 -48t98 -16.5q53 0 97 16t70 47.5t26 75.5q0 72 -50 111.5t-144 39.5q-91 0 -141.5 -39t-50.5 -112q0 -43 25.5 -74.5zM78.5 92q27.5 -41 78.5 -62.5t121 -21.5t121 21t78.5 62t27.5 99
q0 84 -59.5 128t-169.5 44q-108 0 -166.5 -44.5t-58.5 -127.5q0 -57 27.5 -98z" />
    <glyph glyph-name="nine" unicode="9" horiz-adv-x="556" 
d="M364.5 673.5q43.5 -18.5 77 -51.5t50.5 -74q13 -33 19.5 -76t6.5 -112q0 -111 -29 -195t-86.5 -130.5t-141.5 -46.5q-54 0 -99 21t-74 60t-37 91h20q10 -48 36.5 -82t66 -52t88.5 -18q76 0 129 43t80 125.5t27 201.5v15h-2q-11 -49 -43.5 -88t-79 -61t-99.5 -22
q-45 0 -87 17t-77 50t-53 76.5t-18 91.5q0 98 69 167q34 33 77 50.5t89 17.5q47 0 90.5 -18.5zM122 305q31 -31 70 -47t82 -16t82.5 16t69.5 47q63 63 63 152q0 43 -16 82.5t-48 70.5q-31 31 -69.5 46.5t-82.5 15.5q-42 0 -81 -16t-70 -47t-47 -70t-16 -82q0 -89 63 -152z
" />
    <glyph glyph-name="colon" unicode=":" horiz-adv-x="278" 
d="M149 514v-98h-20v98h20zM149 98v-98h-20v98h20z" />
    <glyph glyph-name="semicolon" unicode=";" horiz-adv-x="278" 
d="M149 514v-98h-20v98h20zM149 98v-103q0 -43 -10 -70t-34 -44v20q13 13 18.5 35t5.5 58v104h20z" />
    <glyph glyph-name="less" unicode="&#x3c;" horiz-adv-x="600" 
d="M554 493l-490 -240l490 -240v-21l-508 249v24l508 249v-21z" />
    <glyph glyph-name="equal" unicode="=" horiz-adv-x="600" 
d="M552 340h-504v20h504v-20zM552 146h-504v20h504v-20z" />
    <glyph glyph-name="greater" unicode="&#x3e;" horiz-adv-x="600" 
d="M554 241l-508 -249v21l490 240l-490 240v21l508 -249v-24z" />
    <glyph glyph-name="question" unicode="?" horiz-adv-x="500" 
d="M243.5 270q11.5 37 37 69.5t70.5 72.5q41 36 59.5 73.5t18.5 79.5q0 44 -22 77t-62 51t-93 18q-62 0 -106 -25t-67.5 -72t-23.5 -111v-10h-20v13q0 67 26 117.5t75 79t116 28.5q57 0 102 -20.5t70 -58t25 -87.5q0 -31 -6.5 -53.5t-18.5 -45.5q-9 -17 -23.5 -32.5
t-42.5 -41.5q-39 -36 -59.5 -61t-33.5 -60t-13 -85v-4h-20q0 51 11.5 88zM252 98v-98h-20v98h20z" />
    <glyph glyph-name="at" unicode="@" horiz-adv-x="800" 
d="M545.5 691q60.5 -21 105.5 -63q92 -84 92 -217q0 -53 -19 -105t-54 -94q-34 -40 -71.5 -60t-71.5 -20q-27 0 -43.5 14t-16.5 38l1 11h-2q-24 -32 -57.5 -47.5t-77.5 -15.5q-38 0 -69.5 19.5t-49.5 52.5t-18 73q0 45 17 97t50 96q35 47 78.5 71.5t91.5 24.5t86.5 -23.5
t50.5 -61.5h2l24 66h21l-104 -270q-2 -6 -9 -23.5t-11 -33t-4 -29.5q0 -39 42 -39q31 0 65 19.5t65 57.5q32 39 48 86.5t16 95.5q0 59 -21.5 110.5t-63.5 90.5t-98.5 59.5t-120.5 20.5q-70 0 -131 -24.5t-112 -73.5q-49 -47 -74 -111t-25 -130q0 -77 24.5 -142t72.5 -111
t110.5 -69t133.5 -23q85 0 161.5 42t129.5 116h23q-31 -53 -81.5 -93.5t-111 -62.5t-121.5 -22q-73 0 -141.5 25t-117.5 73q-51 50 -76.5 117.5t-25.5 149.5q0 72 26.5 138t78.5 117t118 77.5t139 26.5q66 0 126.5 -21zM230 212.5q16 -28.5 43.5 -44.5t60.5 -16
q54 0 92.5 30.5t60.5 86.5l72 187q-11 42 -47 66t-86 24q-39 0 -79 -23t-71 -66t-46.5 -90t-15.5 -90q0 -36 16 -64.5z" />
    <glyph glyph-name="A" unicode="A" horiz-adv-x="575" 
d="M304 714l282 -714h-22l-94 235h-364l-95 -235h-23l290 714h26zM114 255h348l-170 439h-2z" />
    <glyph glyph-name="B" unicode="B" horiz-adv-x="611" 
d="M460 693q45 -21 70 -61t25 -95q0 -43 -19.5 -79.5t-54 -59.5t-77.5 -25v-2q51 -2 90 -25t61 -62.5t22 -89.5q0 -62 -29 -105.5t-81.5 -66t-120.5 -22.5h-299v714h309q59 0 104 -21zM446 400.5q41 18.5 65 53t24 82.5q0 51 -23 86.5t-63.5 53.5t-92.5 18h-289v-312h288
q50 0 91 18.5zM459 40q46 20 72 59t26 94q0 54 -25.5 92t-71 57.5t-106.5 19.5h-287v-342h287q59 0 105 20z" />
    <glyph glyph-name="C" unicode="C" horiz-adv-x="685" 
d="M470 713q51 -18 91 -53q39 -35 60.5 -76t24.5 -84h-20q-9 87 -83 149q-36 30 -84 46t-98 16q-72 0 -131.5 -27t-101.5 -80q-41 -51 -62 -119.5t-21 -133.5q0 -70 21.5 -134.5t62.5 -113.5q41 -50 97.5 -75t121.5 -25q78 0 140 32.5t102 95t52 149.5h20
q-13 -92 -55.5 -159t-109 -102.5t-149.5 -35.5q-69 0 -128 26.5t-104 77.5q-45 52 -68 119t-23 145q0 77 22.5 146t66.5 124t107 82.5t140 27.5q58 0 109 -18z" />
    <glyph glyph-name="D" unicode="D" horiz-adv-x="648" 
d="M470 671q69 -43 103.5 -123.5t34.5 -190.5q0 -117 -43.5 -197t-119.5 -120t-174 -40h-217v714h247q100 0 169 -43zM437 58.5q70 38.5 110.5 114.5t40.5 184q0 113 -34.5 188t-98.5 112t-154 37h-227v-674h206q87 0 157 38.5z" />
    <glyph glyph-name="E" unicode="E" horiz-adv-x="537" 
d="M528 694h-454v-312h427v-20h-427v-342h458v-20h-478v714h474v-20z" />
    <glyph glyph-name="F" unicode="F" horiz-adv-x="481" 
d="M494 694h-420v-312h380v-20h-380v-362h-20v714h440v-20z" />
    <glyph glyph-name="G" unicode="G" horiz-adv-x="722" 
d="M507.5 702.5q62.5 -28.5 102.5 -83t53 -128.5h-20q-13 68 -51 117.5t-96 76t-129 26.5q-91 0 -162.5 -44t-112 -124.5t-40.5 -185.5q0 -102 37 -182t108.5 -126t172.5 -46q65 0 119.5 24t91.5 63q36 39 54.5 86t18.5 110v28h-277v20h297v-335h-20v178h-2
q-19 -61 -60.5 -105t-99 -66.5t-125.5 -22.5q-103 0 -179 48t-116 132.5t-40 193.5q0 107 41 192t117 133.5t177 48.5q78 0 140.5 -28.5z" />
    <glyph glyph-name="H" unicode="H" horiz-adv-x="648" 
d="M74 714v-332h500v332h20v-714h-20v362h-500v-362h-20v714h20z" />
    <glyph glyph-name="I" unicode="I" horiz-adv-x="128" 
d="M74 714v-714h-20v714h20z" />
    <glyph glyph-name="J" unicode="J" horiz-adv-x="463" 
d="M404 714v-531q0 -96 -48.5 -148t-147.5 -52q-94 0 -142 51.5t-48 148.5v38h20v-47q0 -80 42 -125.5t128 -45.5q64 0 103 22t56 65t17 109v515h20z" />
    <glyph glyph-name="K" unicode="K" horiz-adv-x="593" 
d="M74 714v-434l495 434h30l-345 -304l365 -410h-27l-354 398l-164 -145v-253h-20v714h20z" />
    <glyph glyph-name="L" unicode="L" horiz-adv-x="481" 
d="M74 714v-694h417v-20h-437v714h20z" />
    <glyph glyph-name="M" unicode="M" horiz-adv-x="780" 
d="M87 714l303 -689l303 689h33v-714h-20v689h-2l-303 -689h-22l-303 689h-2v-689h-20v714h33z" />
    <glyph glyph-name="N" unicode="N" horiz-adv-x="648" 
d="M84 714l488 -689h2v689h20v-714h-30l-488 689h-2v-689h-20v714h30z" />
    <glyph glyph-name="O" unicode="O" horiz-adv-x="721" 
d="M533.5 683.5q74.5 -47.5 115.5 -132.5t41 -194q0 -110 -41 -194.5t-115.5 -132t-172.5 -47.5q-102 0 -176.5 49.5t-113.5 134.5t-39 190q0 100 37 185t111.5 137t180.5 52q98 0 172.5 -47.5zM87 181.5q35 -80.5 105 -129.5t169 -49q94 0 164 46t107.5 126.5t37.5 181.5
q0 97 -36 177.5t-106 128.5t-168 48q-97 0 -166.5 -48t-105.5 -129t-36 -177q0 -95 35 -175.5z" />
    <glyph glyph-name="P" unicode="P" horiz-adv-x="574" 
d="M504 664q56 -50 56 -145q0 -60 -28 -104t-79 -67t-117 -23h-262v-325h-20v714h292q102 0 158 -50zM445.5 366q44.5 21 69.5 60.5t25 93.5q0 86 -50.5 130t-143.5 44h-272v-349h271q56 0 100.5 21z" />
    <glyph glyph-name="Q" unicode="Q" horiz-adv-x="721" 
d="M538.5 680.5q74.5 -50.5 113 -135.5t38.5 -188q0 -87 -26.5 -160.5t-79.5 -125.5l115 -79l-10 -14l-118 80q-41 -36 -94.5 -55.5t-115.5 -19.5q-103 0 -177.5 50t-113 135.5t-38.5 188.5q0 104 38 189t112.5 135t178.5 50q103 0 177.5 -50.5zM89.5 176
q37.5 -81 107.5 -127t164 -46q56 0 103.5 16.5t88.5 50.5l-126 86l11 16l129 -89q51 51 77 122.5t26 151.5q0 94 -35 175t-105 130t-170 49q-92 0 -162 -45.5t-108 -126t-38 -182.5q0 -100 37.5 -181z" />
    <glyph glyph-name="R" unicode="R" horiz-adv-x="611" 
d="M511 667q53 -47 53 -143q0 -68 -40 -114t-113 -63v-2q54 -7 85 -29t43.5 -59t12.5 -94q0 -65 5 -109.5t12 -53.5h-22q-8 19 -11.5 54.5t-3.5 64.5q0 59 -3.5 91t-14 53t-32.5 39q-17 14 -50.5 23.5t-75.5 9.5h-282v-335h-20v714h297q107 0 160 -47zM446.5 375.5
q45.5 20.5 71.5 61t26 96.5q0 79 -48.5 120t-139.5 41h-282v-339h270q57 0 102.5 20.5z" />
    <glyph glyph-name="S" unicode="S" horiz-adv-x="611" 
d="M551 514h-20q-4 98 -62.5 147.5t-169.5 49.5q-66 0 -116.5 -18.5t-79 -55.5t-28.5 -90q0 -41 16.5 -70.5t57 -51.5t111.5 -37q67 -14 161 -41q76 -21 110 -61.5t34 -110.5q0 -61 -34 -104.5t-91.5 -65.5t-126.5 -22q-89 0 -151.5 28.5t-95 83t-32.5 132.5v10h20
q0 -117 65.5 -175.5t193.5 -58.5q67 0 119.5 20.5t82.5 59.5t30 93q0 61 -31 95.5t-79 51t-137 35.5q-91 19 -135 37t-66 41q-22 22 -32 48t-10 63q0 60 30.5 101t85.5 62t128 21q240 0 252 -217z" />
    <glyph glyph-name="T" unicode="T" horiz-adv-x="500" 
d="M517 694h-257v-694h-20v694h-257v20h534v-20z" />
    <glyph glyph-name="U" unicode="U" horiz-adv-x="632" 
d="M74 714v-452q0 -127 60.5 -193t181.5 -66t181.5 66.5t60.5 191.5v453h20v-453q0 -134 -65.5 -206t-196.5 -72t-196.5 72t-65.5 207v452h20z" />
    <glyph glyph-name="V" unicode="V" horiz-adv-x="538" 
d="M2 714l270 -688h2l262 688h20l-272 -714h-22l-280 714h20z" />
    <glyph glyph-name="W" unicode="W" horiz-adv-x="870" 
d="M11 714l202 -689h2l206 689h29l209 -689h2l199 689h20l-207 -714h-27l-210 689h-2l-206 -689h-27l-211 714h21z" />
    <glyph glyph-name="X" unicode="X" horiz-adv-x="520" 
d="M14 714l247 -331l249 331h25l-260 -347l272 -367h-25l-261 351l-263 -351h-25l275 367l-260 347h26z" />
    <glyph glyph-name="Y" unicode="Y" horiz-adv-x="538" 
d="M-5 714l274 -392l275 392h24l-289 -413v-301h-20v301l-289 413h25z" />
    <glyph glyph-name="Z" unicode="Z" horiz-adv-x="500" 
d="M500 687l-499 -667h507v-20h-527v27l499 667h-471v20h491v-27z" />
    <glyph glyph-name="bracketleft" unicode="[" horiz-adv-x="222" 
d="M209 711h-93v-868h93v-20h-113v908h113v-20z" />
    <glyph glyph-name="backslash" unicode="\" horiz-adv-x="333" 
d="M340 -17h-20l-327 748h20z" />
    <glyph glyph-name="bracketright" unicode="]" horiz-adv-x="222" 
d="M126 -177h-113v20h93v868h-93v20h113v-908z" />
    <glyph glyph-name="asciicircum" unicode="^" horiz-adv-x="600" 
d="M310 680l231 -453h-20l-221 433l-221 -433h-20l231 453h20z" />
    <glyph glyph-name="underscore" unicode="_" horiz-adv-x="500" 
d="M500 -125h-500v50h500v-50z" />
    <glyph glyph-name="grave" unicode="`" 
d="M-9 732l125 -144h-15l-139 144h29z" />
    <glyph glyph-name="a" unicode="a" horiz-adv-x="481" 
d="M379 485q41 -41 41 -109v-323q0 -17 9 -26t30 -9q12 0 26 2v-20l-26 -1q-26 0 -42.5 11t-16.5 41v66h-2q-13 -38 -43 -67t-71.5 -45.5t-89.5 -16.5q-81 0 -126.5 36.5t-45.5 102.5q0 75 41 111.5t126 41.5l105 7q39 3 61.5 10.5t33.5 23.5t11 44q0 74 -36.5 107.5
t-113.5 33.5q-80 0 -125 -39t-51 -112h-20q3 52 27 90.5t67 59.5t102 21q88 0 129 -41zM346 273.5q-38 -8.5 -119 -10.5q-110 -3 -148 -38q-37 -34 -37 -98q0 -55 39.5 -87t110.5 -32q45 0 83.5 14.5t66.5 42.5q29 29 43.5 65.5t14.5 76.5v95h-2q-14 -20 -52 -28.5z" />
    <glyph glyph-name="b" unicode="b" horiz-adv-x="537" 
d="M75 714v-344h2q19 74 74 115t132 41q66 0 116 -35.5t76.5 -97.5t26.5 -137q0 -79 -27 -139.5t-76.5 -94.5t-115.5 -34q-74 0 -128.5 41.5t-77.5 114.5h-2v-144h-20v714h20zM389 39.5q45 31.5 69 88t24 128.5q0 69 -23 125.5t-68 90.5t-109 34q-62 0 -109 -29.5t-72.5 -86
t-25.5 -134.5q0 -71 26.5 -127.5t73.5 -88.5t108 -32t106 31.5z" />
    <glyph glyph-name="c" unicode="c" horiz-adv-x="500" 
d="M364 505q42 -21 69 -59t32 -88h-20q-11 70 -57 109t-117 39t-120.5 -34t-74.5 -93t-25 -133q0 -67 25.5 -121.5t73 -85.5t109.5 -31q49 0 90.5 20t68.5 57.5t31 89.5h20q-5 -57 -33 -99.5t-74 -65t-103 -22.5q-69 0 -120.5 33t-79.5 92t-28 133q0 77 26.5 140.5t81 101.5
t132.5 38q51 0 93 -21z" />
    <glyph glyph-name="d" unicode="d" horiz-adv-x="537" 
d="M475 714v-714h-20v144h-2q-15 -48 -45 -83.5t-71.5 -54t-89.5 -18.5q-65 0 -115 33.5t-77 94.5t-27 140q0 74 26 135.5t75.5 98t117.5 36.5q76 0 130.5 -40t75.5 -116h2v344h20zM72 127q24 -56 69 -87.5t106 -31.5q62 0 109 32.5t73 89t26 126.5q0 77 -25 133t-72 86.5
t-112 30.5q-63 0 -107.5 -34.5t-67.5 -91.5t-23 -124q0 -73 24 -129z" />
    <glyph glyph-name="e" unicode="e" horiz-adv-x="500" 
d="M371 492.5q51 -33.5 77.5 -92t26.5 -133.5v-14h-430q3 -120 55 -182.5t148 -62.5q82 0 135.5 44t65.5 126h20q-7 -55 -34.5 -98t-75.5 -67.5t-113 -24.5q-74 0 -123.5 33.5t-73.5 94t-24 141.5q0 82 31.5 143t83 93.5t110.5 32.5q70 0 121 -33.5zM429.5 395.5
q-25.5 52.5 -71.5 81.5t-107 29q-62 0 -108 -33t-71 -86.5t-27 -113.5h410q0 70 -25.5 122.5z" />
    <glyph glyph-name="f" unicode="f" horiz-adv-x="204" 
d="M87 494h-88v20h88v114q0 44 22 65t73 21q18 0 32 -2t17 -2v-20q-29 4 -47 4q-28 0 -44.5 -6t-24.5 -21t-8 -42v-111h111v-20h-111v-494h-20v494z" />
    <glyph glyph-name="g" unicode="g" horiz-adv-x="519" 
d="M335 507.5q40 -18.5 68.5 -52t40.5 -78.5h2v137h20v-500q0 -98 -54 -150.5t-160 -52.5q-59 0 -102.5 19t-68 55.5t-25.5 87.5h20q1 -44 22.5 -76t60.5 -49t92 -17q98 0 146.5 47t48.5 135v159h-2q-11 -44 -41 -76.5t-72.5 -50t-88.5 -17.5q-65 0 -113.5 31t-74.5 87
t-26 128q0 74 27 131t77 89t117 32q46 0 86 -18.5zM71.5 156q23.5 -51 67 -79.5t102.5 -28.5q60 0 106.5 28t72 79.5t25.5 118.5q0 63 -23.5 116t-68 84.5t-105.5 31.5q-60 0 -105.5 -29.5t-70 -82t-24.5 -120.5q0 -67 23.5 -118z" />
    <glyph glyph-name="h" unicode="h" horiz-adv-x="500" 
d="M75 714v-327h2q15 64 64.5 101.5t120.5 37.5q57 0 98 -23t63 -64t22 -95v-344h-20v341q0 51 -19.5 88t-56.5 57t-87 20q-58 0 -100 -28t-64.5 -77.5t-22.5 -111.5v-289h-20v714h20z" />
    <glyph glyph-name="i" unicode="i" 
d="M75 714v-101h-20v101h20zM75 514v-514h-20v514h20z" />
    <glyph glyph-name="j" unicode="j" 
d="M75 714v-101h-20v101h20zM75 514v-589q0 -55 -22 -78q-22 -24 -89 -24h-13v20h15q38 0 56.5 7.5t25.5 26t7 55.5v582h20z" />
    <glyph glyph-name="k" unicode="k" horiz-adv-x="444" 
d="M75 714v-495l355 295h29l-236 -196l253 -318h-27l-241 304l-133 -110v-194h-20v714h20z" />
    <glyph glyph-name="l" unicode="l" 
d="M75 714v-714h-20v714h20z" />
    <glyph glyph-name="m" unicode="m" horiz-adv-x="778" 
d="M342.5 495q39.5 -31 52.5 -89h2q16 56 60.5 88t103.5 32q162 0 162 -183v-343h-20v340q0 84 -34 125t-108 41q-49 0 -85.5 -24.5t-56.5 -66t-20 -91.5v-324h-20v335q0 88 -33.5 129.5t-103.5 41.5q-51 0 -89 -30t-58 -79t-20 -105v-292h-20v514h20v-127h2q9 38 32 69.5
t58.5 50.5t81.5 19q54 0 93.5 -31z" />
    <glyph glyph-name="n" unicode="n" horiz-adv-x="500" 
d="M360 503q41 -23 63 -63.5t22 -94.5v-345h-20v342q0 50 -19.5 87t-56.5 57t-87 20q-57 0 -99.5 -28.5t-65 -77t-22.5 -107.5v-293h-20v514h20v-127h2q15 64 64.5 101.5t120.5 37.5q57 0 98 -23z" />
    <glyph glyph-name="o" unicode="o" horiz-adv-x="519" 
d="M380.5 491q52.5 -35 81.5 -96.5t29 -137.5q0 -73 -27 -134t-79.5 -98t-125.5 -37q-69 0 -121.5 35t-81 96.5t-28.5 137.5q0 72 27.5 133.5t80 98.5t124.5 37q68 0 120.5 -35zM74 129.5q26 -56.5 74 -89t112 -32.5q65 0 112.5 33.5t73 90t25.5 125.5q0 70 -26 126.5
t-74.5 89.5t-111.5 33q-64 0 -111.5 -33.5t-73.5 -90.5t-26 -125q0 -71 26 -127.5z" />
    <glyph glyph-name="p" unicode="p" horiz-adv-x="537" 
d="M55 514h20v-144h2q23 73 77.5 114.5t128.5 41.5q66 0 116 -34t76.5 -95t26.5 -139q0 -77 -27 -138.5t-76.5 -96.5t-115.5 -35q-78 0 -132.5 41t-73.5 115h-2v-321h-20v691zM390 41q45 33 68.5 90t23.5 127q0 72 -24 128t-69 88t-107 32q-60 0 -107 -31.5t-73.5 -88.5
t-26.5 -129q0 -78 25.5 -134t72.5 -85.5t110 -29.5q62 0 107 33z" />
    <glyph glyph-name="q" unicode="q" horiz-adv-x="537" 
d="M376 484.5q55 -41.5 77 -114.5h2v144h20v-691h-20v321h-2q-19 -75 -74 -115.5t-131 -40.5q-68 0 -117.5 35.5t-76 97t-26.5 137.5q0 79 27 139.5t76.5 94.5t115.5 34q74 0 129 -41.5zM68 141.5q20 -57.5 65 -95.5t114 -38q63 0 110 29.5t72.5 85.5t25.5 134
q0 70 -25.5 126.5t-73 89.5t-110.5 33q-60 0 -105 -31.5t-69 -88t-24 -128.5q0 -59 20 -116.5z" />
    <glyph glyph-name="r" unicode="r" horiz-adv-x="259" 
d="M279 506h-16q-60 0 -102.5 -29.5t-64 -78.5t-21.5 -107v-291h-20v514h20v-127h2q17 67 67.5 103t124.5 36h10v-20z" />
    <glyph glyph-name="s" unicode="s" horiz-adv-x="463" 
d="M363 484.5q47 -41.5 47 -122.5h-20q0 71 -42 107.5t-124 36.5q-49 0 -84 -14.5t-52.5 -40t-17.5 -59.5q0 -24 10.5 -45t30.5 -32q19 -11 46.5 -19t82.5 -22q54 -14 83 -23.5t50 -22.5q51 -33 51 -97q0 -45 -24 -77t-66.5 -49t-97.5 -17q-206 0 -206 188h20
q0 -83 48 -125.5t139 -42.5q46 0 84 14t60.5 41t22.5 66q0 30 -12.5 51.5t-39.5 36.5q-20 11 -46 19t-75 19q-94 22 -131 42q-25 14 -37.5 38.5t-12.5 56.5q0 41 21 71.5t60.5 46.5t92.5 16q92 0 139 -41.5z" />
    <glyph glyph-name="t" unicode="t" horiz-adv-x="241" 
d="M110 676v-162h116v-20h-116v-395q0 -42 15.5 -60.5t47.5 -18.5q40 0 50 3v-20q-24 -3 -49 -3q-43 0 -63.5 25t-20.5 70v399h-95v20h95v162h20z" />
    <glyph glyph-name="u" unicode="u" horiz-adv-x="500" 
d="M75 514v-342q0 -50 20 -87t57 -57t86 -20q58 0 100.5 28.5t64.5 77t22 107.5v293h20v-514h-20v127h-2q-10 -43 -36 -74t-64.5 -48t-84.5 -17q-56 0 -97.5 22.5t-63.5 65t-22 100.5v338h20z" />
    <glyph glyph-name="v" unicode="v" horiz-adv-x="407" 
d="M12 514l199 -494h2l184 494h22l-194 -514h-25l-212 514h24z" />
    <glyph glyph-name="w" unicode="w" horiz-adv-x="685" 
d="M165 20h2l159 494h31l158 -494h2l156 494h20l-164 -514h-26l-160 494h-2l-161 -494h-28l-160 514h20z" />
    <glyph glyph-name="x" unicode="x" horiz-adv-x="407" 
d="M30 514l173 -233l177 233h24l-188 -248l206 -266h-25l-194 251l-193 -251h-25l206 266l-187 248h26z" />
    <glyph glyph-name="y" unicode="y" horiz-adv-x="407" 
d="M10 514l204 -487l184 487h21l-233 -609q-13 -34 -29 -51.5t-39.5 -24t-62.5 -6.5h-9v20h13q35 0 54.5 6t30.5 19t20 37l39 100l-215 509h22z" />
    <glyph glyph-name="z" unicode="z" horiz-adv-x="407" 
d="M386 489l-360 -469h376v-20h-397v25l360 469h-333v20h354v-25z" />
    <glyph glyph-name="braceleft" unicode="{" horiz-adv-x="333" 
d="M280 711h-49q-31 0 -42.5 -24.5t-11.5 -77.5v-172q0 -34 -9 -67.5t-25 -58.5t-38 -33q33 -16 52.5 -61.5t19.5 -98.5v-171q0 -54 11 -79t42 -25h50v-20h-51q-41 0 -56.5 26.5t-15.5 79.5v174q0 63 -16.5 102t-55.5 65v20q22 4 38 28t25 60t9 75v174q0 55 16.5 79.5
t54.5 24.5h52v-20z" />
    <glyph glyph-name="bar" unicode="|" horiz-adv-x="222" 
d="M121 786v-1000h-20v1000h20z" />
    <glyph glyph-name="braceright" unicode="}" horiz-adv-x="333" 
d="M104 731q38 0 55 -25t17 -81v-173q0 -63 16.5 -103.5t55.5 -64.5v-20q-21 -3 -37.5 -28t-25.5 -61.5t-9 -73.5v-174q0 -55 -16.5 -79.5t-54.5 -24.5h-52v20h50q29 0 41 23.5t12 77.5v173q0 27 7 59t23 60t42 40q-23 10 -39 36t-24.5 59t-8.5 65v172q0 54 -11.5 78.5
t-40.5 24.5h-51v20h51z" />
    <glyph glyph-name="asciitilde" unicode="~" horiz-adv-x="600" 
d="M468.5 228q-24.5 -19 -54.5 -19q-13 0 -27.5 4t-35.5 13l-76 34q-39 18 -80 18q-58 0 -98 -73l-20 6q23 42 52 64.5t71 22.5q19 0 38.5 -5t42.5 -15l32 -14q40 -18 63 -26.5t39 -8.5q23 0 42 15t46 57l20 -6q-30 -48 -54.5 -67z" />
    <glyph glyph-name="uni00A0" unicode="&#xa0;" horiz-adv-x="278" 
 />
    <glyph glyph-name="exclamdown" unicode="&#xa1;" horiz-adv-x="185" 
d="M103 542v-98h-20v98h20zM103 360v-537h-20v537h20z" />
    <glyph glyph-name="cent" unicode="&#xa2;" horiz-adv-x="556" 
d="M292 613v-88q55 -2 98 -22t69.5 -57t32.5 -88h-20q-10 68 -57.5 106.5t-122.5 40.5v-497q50 0 89.5 20t64 57.5t31.5 89.5h20q-12 -88 -66 -136.5t-139 -50.5v-109h-20v109q-67 2 -115 38.5t-73 97t-25 134.5q0 73 26.5 133.5t75 96.5t111.5 37v88h20zM102.5 132.5
q23.5 -56.5 67.5 -90t102 -34.5v497q-62 -2 -105.5 -37t-65.5 -90.5t-22 -119.5q0 -69 23.5 -125.5z" />
    <glyph glyph-name="sterling" unicode="&#xa3;" horiz-adv-x="556" 
d="M394 704.5q52 -26.5 80.5 -75.5t28.5 -116q0 -11 -2 -33h-20l1 25q0 68 -27 114.5t-74.5 69t-109.5 22.5q-61 0 -107.5 -20t-72.5 -57.5t-26 -88.5q0 -46 42 -124l31 -56h158v-20h-149q30 -52 30 -136q0 -107 -99 -191l2 -2q50 37 102 37q23 0 47 -6.5t57 -19.5
q31 -12 51.5 -18t39.5 -6q25 0 46.5 7t47 24.5t59.5 51.5l13 -14q-42 -48 -80 -68.5t-86 -20.5q-23 0 -46 6.5t-60 20.5q-31 12 -51 17.5t-38 5.5q-63 0 -125 -50l-18 20q62 54 90 105t28 101q0 37 -8 73t-24 63h-76v20h66q-42 76 -56 113t-14 67q0 58 29.5 100t80.5 64
t116 22q71 0 123 -26.5z" />
    <glyph glyph-name="currency" unicode="&#xa4;" horiz-adv-x="556" 
d="M367.5 571q43.5 -17 78.5 -49l57 57l14 -14l-57 -57q33 -35 49.5 -78.5t16.5 -89.5q0 -45 -16.5 -88.5t-49.5 -79.5l57 -57l-14 -14l-57 57q-36 -33 -81 -49.5t-89 -16.5t-87.5 17t-78.5 49l-57 -57l-14 14l57 57q-32 35 -49 78.5t-17 87.5t16.5 89t49.5 81l-57 57l14 14
l57 -57q72 66 168 66q46 0 89.5 -17zM82 225q32 -52 84.5 -82.5t111.5 -30.5q61 0 113.5 31t83.5 83.5t31 113.5t-31 113.5t-83.5 83.5t-114.5 31q-64 0 -116 -32.5t-81.5 -85t-29.5 -110.5q0 -63 32 -115z" />
    <glyph glyph-name="yen" unicode="&#xa5;" horiz-adv-x="556" 
d="M43 714l234 -383h2l234 383h22l-237 -389h136v-20h-147v-102h147v-20h-147v-183h-20v183h-147v20h147v102h-147v20h138l-237 389h22z" />
    <glyph glyph-name="brokenbar" unicode="&#xa6;" horiz-adv-x="222" 
d="M121 661v-250h-20v250h20zM121 161v-250h-20v250h20z" />
    <glyph glyph-name="section" unicode="&#xa7;" horiz-adv-x="556" 
d="M360.5 709q38.5 -22 60 -64t21.5 -99h-20q-2 80 -41.5 122.5t-110.5 42.5q-36 0 -67.5 -12.5t-50.5 -36.5t-19 -58q0 -35 13 -58.5t37 -43.5q15 -12 35.5 -24.5t40.5 -23.5q26 -14 39 -22l25 -15q35 -22 74.5 -51t62.5 -54q20 -23 29.5 -48t9.5 -59q0 -29 -15.5 -56.5
t-42.5 -49t-59 -31.5q29 -25 44 -50.5t15 -58.5q0 -45 -20 -78.5t-57 -51.5t-86 -18q-84 0 -129.5 48.5t-45.5 138.5v7h20v-4q0 -84 40 -127t115 -43q46 0 78 17t48.5 43.5t16.5 54.5q0 24 -4 41t-13 29q-12 17 -28.5 31.5t-46.5 34.5t-89 57q-65 40 -97 63t-51 46
q-18 21 -26.5 45t-8.5 57q0 44 31 82t78 57q-29 24 -41 50.5t-12 58.5q0 46 22.5 76t58.5 43.5t77 13.5q51 0 89.5 -22zM103.5 265.5q26.5 -34.5 81.5 -67.5q38 -23 178 -116q29 7 56 25t43.5 43.5t16.5 55.5q0 37 -15 64t-44 52q-53 43 -96.5 70.5t-139.5 82.5
q-47 -15 -77 -52t-30 -81q0 -42 26.5 -76.5z" />
    <glyph glyph-name="dieresis" unicode="&#xa8;" 
d="M-3 695v-81h-20v81h20zM153 695v-81h-20v81h20z" />
    <glyph glyph-name="copyright" unicode="&#xa9;" horiz-adv-x="800" 
d="M587.5 681q85.5 -50 136 -135.5t50.5 -188.5q0 -101 -50 -187t-136 -136.5t-188 -50.5t-187.5 50t-136 135.5t-50.5 188.5q0 101 50 187t135.5 136.5t188.5 50.5q102 0 187.5 -50zM92 181.5q46 -81.5 127 -130t181 -48.5q94 0 175 46t130 127.5t49 180.5
q0 93 -46.5 174.5t-128 130.5t-180.5 49q-93 0 -174 -46.5t-130 -127.5t-49 -180q0 -94 46 -175.5zM496.5 560q39.5 -19 65 -53t31.5 -79h-20q-6 41 -29 70.5t-58.5 45t-77.5 15.5q-60 0 -104.5 -26.5t-68.5 -73.5t-24 -107t24.5 -108.5t70 -76t105.5 -27.5q38 0 71.5 16.5
t57 47t33.5 72.5h20q-11 -47 -36.5 -82t-63 -54.5t-82.5 -19.5q-65 0 -115 30t-77.5 82.5t-27.5 118.5q0 68 27 119.5t76 80t114 28.5q49 0 88.5 -19z" />
    <glyph glyph-name="ordfeminine" unicode="&#xaa;" horiz-adv-x="300" 
d="M238.5 666.5q27.5 -25.5 27.5 -67.5v-187q0 -20 20 -20q6 0 14 2v-20h-16q-20 0 -29 8t-9 26v38h-2v-7q-12 -34 -46 -53t-86 -19q-51 0 -81.5 22.5t-30.5 61.5q0 24 7.5 41.5t24.5 30.5q31 22 115 24q32 1 49.5 3t28.5 7t16 13.5t5 21.5q0 42 -22.5 61t-74.5 19
q-96 0 -108 -84h-20q5 51 37.5 77.5t90.5 26.5q62 0 89.5 -25.5zM212.5 533.5q-24.5 -4.5 -63.5 -5.5l-31 -2q-27 -3 -44.5 -8t-28.5 -14q-25 -20 -25 -53q0 -31 25 -47.5t67 -16.5q41 0 71.5 15t46.5 41.5t16 59.5v49h-2q-7 -14 -31.5 -18.5z" />
    <glyph glyph-name="guillemotleft" unicode="&#xab;" horiz-adv-x="352" 
d="M169 380l-83 -112l83 -112v-35l-103 139v16l103 139v-35zM262 380l-83 -112l83 -112v-35l-103 139v16l103 139v-35z" />
    <glyph glyph-name="logicalnot" unicode="&#xac;" horiz-adv-x="600" 
d="M552 93h-20v247h-484v20h504v-267z" />
    <glyph glyph-name="uni00AD" unicode="&#xad;" horiz-adv-x="333" 
d="M254 258h-175v20h175v-20z" />
    <glyph glyph-name="registered" unicode="&#xae;" horiz-adv-x="800" 
d="M587 681q86 -50 136.5 -136t50.5 -188t-50 -187.5t-135.5 -136t-188.5 -50.5q-102 0 -187.5 50t-136 135.5t-50.5 188.5q0 102 50 187.5t135.5 136t188.5 50.5q101 0 187 -50zM92 181.5q46 -81.5 127.5 -130t180.5 -48.5q94 0 175 46t130 127t49 181q0 93 -46.5 174.5
t-128 130.5t-180.5 49q-93 0 -174 -46.5t-130 -128t-49 -179.5q0 -94 46 -175.5zM520.5 535.5q36.5 -29.5 36.5 -86.5q0 -48 -29 -77.5t-83 -34.5l132 -202h-25l-129 199h-129v-199h-20v430h144q66 0 102.5 -29.5zM504.5 378q32.5 24 32.5 71q0 96 -120 96h-123v-191h109
q69 0 101.5 24z" />
    <glyph glyph-name="macron" unicode="&#xaf;" 
d="M181 640h-232v20h232v-20z" />
    <glyph glyph-name="degree" unicode="&#xb0;" horiz-adv-x="400" 
d="M271.5 672.5q32.5 -19.5 52 -52.5t19.5 -71q0 -41 -19 -74t-52 -52t-72 -19t-72 19t-52 52t-19 74q0 38 19 71t52 52.5t72 19.5t71.5 -19.5zM93.5 485.5q16.5 -28.5 45 -45t61.5 -16.5q35 0 63 17t44 46t16 62t-16 61t-44 45t-63 17q-32 0 -60.5 -17t-45.5 -45.5
t-17 -60.5q0 -35 16.5 -63.5z" />
    <glyph glyph-name="plusminus" unicode="&#xb1;" horiz-adv-x="600" 
d="M310 506v-198h242v-20h-242v-198h-20v198h-242v20h242v198h20zM552 0h-504v20h504v-20z" />
    <glyph glyph-name="uni00B2" unicode="&#xb2;" horiz-adv-x="350" 
d="M245.5 814q28.5 -15 44 -42t15.5 -62q0 -27 -9.5 -49.5t-35 -46.5t-71.5 -52q-47 -28 -73 -51t-38 -45t-16 -49h242v-20h-263q1 36 12.5 64t39 54.5t76.5 55.5q71 43 93 72q12 16 17.5 31.5t5.5 34.5q0 46 -28 73t-76 27q-52 0 -83 -29.5t-31 -83.5h-20q1 63 37 98t97 35
q36 0 64.5 -15z" />
    <glyph glyph-name="uni00B3" unicode="&#xb3;" horiz-adv-x="350" 
d="M266 799.5q32 -29.5 32 -81.5q0 -34 -20 -59.5t-57 -35.5q44 -8 69 -38t25 -71q0 -38 -17.5 -66.5t-49 -44t-74.5 -15.5q-66 0 -102 34t-36 97h20q0 -54 30 -82.5t88 -28.5q56 0 88.5 28.5t32.5 77.5q0 29 -13.5 51t-38 34t-56.5 12h-40v20h39q24 0 45 10.5t34 30.5
t13 46q0 43 -26.5 67t-72.5 24q-52 0 -81 -25.5t-32 -76.5h-20q2 58 38 90t95 32q55 0 87 -29.5z" />
    <glyph glyph-name="acute" unicode="&#xb4;" 
d="M171 732l-146 -144h-15l132 144h29z" />
    <glyph glyph-name="mu" unicode="&#xb5;" horiz-adv-x="500" 
d="M75 514v-342q0 -50 20 -87t57 -57t86 -20q57 0 99.5 28t65 76t22.5 107v295h20v-514h-20v127h-2q-16 -65 -65.5 -102t-119.5 -37q-60 0 -101.5 25t-61.5 72v-262h-20v691h20z" />
    <glyph glyph-name="paragraph" unicode="&#xb6;" horiz-adv-x="600" 
d="M491 -140h-20v834h-163v-834h-20v468q-65 0 -115.5 26t-78.5 69.5t-28 95.5q0 61 26.5 105t75.5 67t117 23h206v-854z" />
    <glyph glyph-name="periodcentered" unicode="&#xb7;" horiz-adv-x="278" 
d="M161.5 363.5q9.5 -8.5 9.5 -23.5q0 -14 -9 -23t-23 -9q-15 0 -23.5 9.5t-8.5 22.5q0 14 9 23t23 9q13 0 22.5 -8.5z" />
    <glyph glyph-name="cedilla" unicode="&#xb8;" 
d="M88 0l-42 -57q17 7 36 7q35 0 54.5 -16.5t19.5 -47.5q0 -33 -26 -53.5t-67 -20.5q-43 0 -80 18l9 19q16 -9 35 -13t37 -4q32 0 50 14.5t18 38.5q0 22 -14.5 33.5t-37.5 11.5q-25 0 -54 -14l-14 11l56 73h20z" />
    <glyph glyph-name="uni00B9" unicode="&#xb9;" horiz-adv-x="350" 
d="M208 397h-20v394q-15 -24 -52 -48.5t-70 -34.5v20q33 10 69 36.5t53 55.5h20v-423z" />
    <glyph glyph-name="ordmasculine" unicode="&#xba;" horiz-adv-x="300" 
d="M229 671.5q34 -20.5 53 -57t19 -83.5q0 -46 -18.5 -83.5t-52.5 -59t-80 -21.5q-44 0 -78.5 22t-53 59t-18.5 83q0 45 18.5 82t53 58t79.5 21q44 0 78 -20.5zM37 459q17 -33 46.5 -52.5t67.5 -19.5t67.5 19.5t46 52.5t16.5 72q0 37 -16.5 69.5t-46 52t-68.5 19.5
q-37 0 -66.5 -19t-46.5 -51.5t-17 -70.5q0 -39 17 -72z" />
    <glyph glyph-name="guillemotright" unicode="&#xbb;" horiz-adv-x="352" 
d="M193 276v-16l-103 -139v35l83 112l-83 112v35zM286 276v-16l-103 -139v35l83 112l-83 112v35z" />
    <glyph glyph-name="onequarter" unicode="&#xbc;" horiz-adv-x="834" 
d="M624 714l-476 -748h-23l476 748h23zM206 274h-20v394q-15 -23 -52 -48t-70 -35v20q35 12 70 37.5t52 54.5h20v-423zM680 423v-300h70v-20h-70v-103h-20v103h-220v20l223 300h17zM463 123h197v265z" />
    <glyph glyph-name="onehalf" unicode="&#xbd;" horiz-adv-x="834" 
d="M594 714l-476 -748h-23l476 748h23zM206 274h-20v394q-15 -24 -52 -48.5t-70 -34.5v20q36 12 70.5 37.5t51.5 54.5h20v-423zM690 417q28 -15 43.5 -42t15.5 -62q0 -29 -10.5 -52t-36.5 -46.5t-72 -51.5q-46 -27 -71.5 -50t-37 -44.5t-15.5 -48.5h242v-20h-263
q1 53 29.5 93t96.5 80q47 28 73 50.5t35.5 43t9.5 45.5q0 46 -28 73t-76 27q-53 0 -83.5 -29.5t-30.5 -83.5h-20q0 41 17 71t47 46t70 16q37 0 65 -15z" />
    <glyph glyph-name="threequarters" unicode="&#xbe;" horiz-adv-x="834" 
d="M714 714l-476 -748h-23l476 748h23zM305 676q32 -30 32 -81q0 -34 -19.5 -59t-57.5 -36q44 -8 69 -37.5t25 -71.5q0 -38 -17.5 -66.5t-49.5 -44t-74 -15.5q-66 0 -102 34t-36 97h20q0 -54 30 -82.5t88 -28.5q56 0 88.5 29t32.5 77q0 29 -14 51t-39 34t-56 12h-39v20h39
q24 0 45 10.5t34 30.5t13 46q0 43 -26 67t-73 24q-52 0 -81 -25.5t-32 -76.5h-20q2 59 38 90.5t95 31.5q55 0 87 -30zM700 423v-300h70v-20h-70v-103h-20v103h-220v20l223 300h17zM483 123h197v265z" />
    <glyph glyph-name="questiondown" unicode="&#xbf;" horiz-adv-x="500" 
d="M268 542v-98h-20v98h20zM267 360q0 -42 -7.5 -73.5t-22.5 -56.5q-27 -47 -87 -98q-39 -33 -59 -73t-20 -82q0 -44 22 -77t62.5 -51t92.5 -18q62 0 106.5 25.5t67.5 71t23 106.5v15h20v-13q0 -67 -26 -118t-75.5 -79t-115.5 -28q-58 0 -103 20.5t-69.5 58.5t-24.5 87
q0 92 74 158q48 43 74 74t37 65t11 82v4h20z" />
    <glyph glyph-name="Agrave" unicode="&#xc0;" horiz-adv-x="575" 
d="M304 714l282 -714h-22l-94 235h-364l-95 -235h-23l290 714h26zM114 255h348l-170 439h-2zM196 922l125 -144h-15l-139 144h29z" />
    <glyph glyph-name="Aacute" unicode="&#xc1;" horiz-adv-x="575" 
d="M304 714l282 -714h-22l-94 235h-364l-95 -235h-23l290 714h26zM114 255h348l-170 439h-2zM419 922l-146 -144h-15l132 144h29z" />
    <glyph glyph-name="Acircumflex" unicode="&#xc2;" horiz-adv-x="575" 
d="M304 714l282 -714h-22l-94 235h-364l-95 -235h-23l290 714h26zM114 255h348l-170 439h-2zM298 922l114 -144h-20l-102 125l-100 -125h-20l113 144h15z" />
    <glyph glyph-name="Atilde" unicode="&#xc3;" horiz-adv-x="575" 
d="M304 714l282 -714h-22l-94 235h-364l-95 -235h-23l290 714h26zM114 255h348l-170 439h-2zM259.5 876.5q15.5 -7.5 35.5 -22.5q21 -15 33.5 -21.5t25.5 -6.5q20 0 32 13t17 42h20q-11 -75 -69 -75q-19 0 -33.5 8t-35.5 23q-19 14 -31 20.5t-27 6.5q-20 0 -33 -17t-15 -42
h-20q2 20 10.5 38t23.5 29.5t34 11.5q17 0 32.5 -7.5z" />
    <glyph glyph-name="Adieresis" unicode="&#xc4;" horiz-adv-x="575" 
d="M304 714l282 -714h-22l-94 235h-364l-95 -235h-23l290 714h26zM114 255h348l-170 439h-2zM223 885v-81h-20v81h20zM379 885v-81h-20v81h20z" />
    <glyph glyph-name="Aring" unicode="&#xc5;" horiz-adv-x="575" 
d="M304 714l282 -714h-22l-94 235h-364l-95 -235h-23l290 714h26zM114 255h348l-170 439h-2zM335 926q20 -12 32 -32t12 -44t-12 -44t-32 -32t-44 -12t-44 12.5t-32 32.5t-12 43q0 24 12 44t32 32t44 12t44 -12zM232 816q9 -16 24.5 -25t34.5 -9q18 0 34 9t25 24.5t9 34.5
q0 18 -9.5 33.5t-25 25t-34.5 9.5q-17 0 -32.5 -9t-25 -24.5t-9.5 -34.5q0 -18 9 -34z" />
    <glyph glyph-name="AE" unicode="&#xc6;" horiz-adv-x="852" 
d="M835 694h-392v-312h360v-20h-360v-342h392v-20h-412v274h-268l-145 -274h-22l378 714h469v-20zM423 294v402h-47l-211 -402h258z" />
    <glyph glyph-name="Ccedilla" unicode="&#xc7;" horiz-adv-x="685" 
d="M504.5 697.5q63.5 -33.5 100.5 -86.5t41 -111h-20q-6 61 -43.5 109t-96.5 75t-125 27q-110 0 -181 -57t-103 -139.5t-32 -163.5q0 -91 36 -170.5t104.5 -128.5t162.5 -49q78 0 140 32.5t102 95t52 149.5h20q-13 -92 -55 -159t-108.5 -102.5t-151.5 -35.5l-29 -40
q17 7 36 7q34 0 54 -17.5t20 -46.5q0 -22 -12 -38.5t-33 -26t-48 -9.5q-43 0 -80 18l9 19q31 -17 72 -17q32 0 50 14.5t18 38.5q0 22 -14.5 33.5t-37.5 11.5q-25 0 -54 -14l-14 11l43 57q-90 6 -158.5 55t-106 130.5t-37.5 181.5q0 92 34.5 179t110 144t191.5 57
q80 0 143.5 -33.5z" />
    <glyph glyph-name="Egrave" unicode="&#xc8;" horiz-adv-x="537" 
d="M528 694h-454v-312h427v-20h-427v-342h458v-20h-478v714h474v-20zM197 922l125 -144h-15l-139 144h29z" />
    <glyph glyph-name="Eacute" unicode="&#xc9;" horiz-adv-x="537" 
d="M528 694h-454v-312h427v-20h-427v-342h458v-20h-478v714h474v-20zM400 922l-146 -144h-15l132 144h29z" />
    <glyph glyph-name="Ecircumflex" unicode="&#xca;" horiz-adv-x="537" 
d="M528 694h-454v-312h427v-20h-427v-342h458v-20h-478v714h474v-20zM289 922l114 -144h-20l-102 125l-100 -125h-20l113 144h15z" />
    <glyph glyph-name="Edieresis" unicode="&#xcb;" horiz-adv-x="537" 
d="M528 694h-454v-312h427v-20h-427v-342h458v-20h-478v714h474v-20zM214 885v-81h-20v81h20zM370 885v-81h-20v81h20z" />
    <glyph glyph-name="Igrave" unicode="&#xcc;" horiz-adv-x="128" 
d="M74 714v-714h-20v714h20zM-46 922l125 -144h-15l-139 144h29z" />
    <glyph glyph-name="Iacute" unicode="&#xcd;" horiz-adv-x="128" 
d="M74 714v-714h-20v714h20zM207 922l-146 -144h-15l132 144h29z" />
    <glyph glyph-name="Icircumflex" unicode="&#xce;" horiz-adv-x="128" 
d="M74 714v-714h-20v714h20zM71 922l114 -144h-20l-102 125l-100 -125h-20l113 144h15z" />
    <glyph glyph-name="Idieresis" unicode="&#xcf;" horiz-adv-x="128" 
d="M74 714v-714h-20v714h20zM-4 885v-81h-20v81h20zM152 885v-81h-20v81h20z" />
    <glyph glyph-name="Eth" unicode="&#xd0;" horiz-adv-x="648" 
d="M463 675q69 -39 107 -119t38 -199q0 -113 -42 -193.5t-117.5 -122t-175.5 -41.5h-219v362h-80v20h80v332h248q92 0 161 -39zM331 362h-257v-342h206q89 0 159 39t109.5 115t39.5 183q0 168 -75.5 252.5t-212.5 84.5h-226v-312h257v-20z" />
    <glyph glyph-name="Ntilde" unicode="&#xd1;" horiz-adv-x="648" 
d="M84 714l488 -689h2v689h20v-714h-30l-488 689h-2v-689h-20v714h30zM293.5 876.5q15.5 -7.5 35.5 -22.5q21 -15 33.5 -21.5t25.5 -6.5q20 0 32 13t17 42h20q-11 -75 -69 -75q-19 0 -33.5 8t-35.5 23q-19 14 -31 20.5t-27 6.5q-20 0 -33 -17t-15 -42h-20q2 20 10.5 38
t23.5 29.5t34 11.5q17 0 32.5 -7.5z" />
    <glyph glyph-name="Ograve" unicode="&#xd2;" horiz-adv-x="721" 
d="M533.5 683.5q74.5 -47.5 115.5 -132.5t41 -194q0 -110 -41 -194.5t-115.5 -132t-172.5 -47.5q-102 0 -176.5 49.5t-113.5 134.5t-39 190q0 100 37 185t111.5 137t180.5 52q98 0 172.5 -47.5zM87 181.5q35 -80.5 105 -129.5t169 -49q94 0 164 46t107.5 126.5t37.5 181.5
q0 97 -36 177.5t-106 128.5t-168 48q-97 0 -166.5 -48t-105.5 -129t-36 -177q0 -95 35 -175.5zM277 922l125 -144h-15l-139 144h29z" />
    <glyph glyph-name="Oacute" unicode="&#xd3;" horiz-adv-x="721" 
d="M533.5 683.5q74.5 -47.5 115.5 -132.5t41 -194q0 -110 -41 -194.5t-115.5 -132t-172.5 -47.5q-102 0 -176.5 49.5t-113.5 134.5t-39 190q0 100 37 185t111.5 137t180.5 52q98 0 172.5 -47.5zM87 181.5q35 -80.5 105 -129.5t169 -49q94 0 164 46t107.5 126.5t37.5 181.5
q0 97 -36 177.5t-106 128.5t-168 48q-97 0 -166.5 -48t-105.5 -129t-36 -177q0 -95 35 -175.5zM480 922l-146 -144h-15l132 144h29z" />
    <glyph glyph-name="Ocircumflex" unicode="&#xd4;" horiz-adv-x="721" 
d="M533.5 683.5q74.5 -47.5 115.5 -132.5t41 -194q0 -110 -41 -194.5t-115.5 -132t-172.5 -47.5q-102 0 -176.5 49.5t-113.5 134.5t-39 190q0 100 37 185t111.5 137t180.5 52q98 0 172.5 -47.5zM87 181.5q35 -80.5 105 -129.5t169 -49q94 0 164 46t107.5 126.5t37.5 181.5
q0 97 -36 177.5t-106 128.5t-168 48q-97 0 -166.5 -48t-105.5 -129t-36 -177q0 -95 35 -175.5zM372 922l114 -144h-20l-102 125l-100 -125h-20l113 144h15z" />
    <glyph glyph-name="Otilde" unicode="&#xd5;" horiz-adv-x="721" 
d="M533.5 683.5q74.5 -47.5 115.5 -132.5t41 -194q0 -110 -41 -194.5t-115.5 -132t-172.5 -47.5q-102 0 -176.5 49.5t-113.5 134.5t-39 190q0 100 37 185t111.5 137t180.5 52q98 0 172.5 -47.5zM87 181.5q35 -80.5 105 -129.5t169 -49q94 0 164 46t107.5 126.5t37.5 181.5
q0 97 -36 177.5t-106 128.5t-168 48q-97 0 -166.5 -48t-105.5 -129t-36 -177q0 -95 35 -175.5zM330.5 876.5q15.5 -7.5 35.5 -22.5q21 -15 33.5 -21.5t25.5 -6.5q20 0 32 13t17 42h20q-11 -75 -69 -75q-19 0 -33.5 8t-35.5 23q-19 14 -31 20.5t-27 6.5q-20 0 -33 -17
t-15 -42h-20q2 20 10.5 38t23.5 29.5t34 11.5q17 0 32.5 -7.5z" />
    <glyph glyph-name="Odieresis" unicode="&#xd6;" horiz-adv-x="721" 
d="M533.5 683.5q74.5 -47.5 115.5 -132.5t41 -194q0 -110 -41 -194.5t-115.5 -132t-172.5 -47.5q-102 0 -176.5 49.5t-113.5 134.5t-39 190q0 100 37 185t111.5 137t180.5 52q98 0 172.5 -47.5zM87 181.5q35 -80.5 105 -129.5t169 -49q94 0 164 46t107.5 126.5t37.5 181.5
q0 97 -36 177.5t-106 128.5t-168 48q-97 0 -166.5 -48t-105.5 -129t-36 -177q0 -95 35 -175.5zM294 885v-81h-20v81h20zM450 885v-81h-20v81h20z" />
    <glyph glyph-name="multiply" unicode="&#xd7;" horiz-adv-x="600" 
d="M299 265l191 191l14 -13l-191 -190l191 -190l-14 -14l-191 191l-189 -191l-14 14l190 190l-190 190l14 13z" />
    <glyph glyph-name="Oslash" unicode="&#xd8;" horiz-adv-x="721" 
d="M491 706q59 -25 104 -74l59 65l15 -12l-61 -68q41 -51 61.5 -117t20.5 -143q0 -105 -39 -190t-113.5 -134.5t-176.5 -49.5q-72 0 -131 25t-104 76l-71 -79l-15 12l73 81q-40 52 -60.5 118t-20.5 141q0 106 39.5 191t114 134t175.5 49q71 0 130 -25zM71.5 223.5
q19.5 -66.5 55.5 -109.5l454 503q-83 94 -221 94q-95 0 -164.5 -47t-106.5 -128t-37 -180q0 -66 19.5 -132.5zM236.5 27.5q55.5 -24.5 124.5 -24.5q95 0 165 46.5t107 127t37 180.5q0 69 -18.5 131.5t-57.5 112.5l-454 -502q41 -47 96.5 -71.5z" />
    <glyph glyph-name="Ugrave" unicode="&#xd9;" horiz-adv-x="632" 
d="M74 714v-452q0 -127 60.5 -193t181.5 -66t181.5 66.5t60.5 191.5v453h20v-453q0 -134 -65.5 -206t-196.5 -72t-196.5 72t-65.5 207v452h20zM232 922l125 -144h-15l-139 144h29z" />
    <glyph glyph-name="Uacute" unicode="&#xda;" horiz-adv-x="632" 
d="M74 714v-452q0 -127 60.5 -193t181.5 -66t181.5 66.5t60.5 191.5v453h20v-453q0 -134 -65.5 -206t-196.5 -72t-196.5 72t-65.5 207v452h20zM435 922l-146 -144h-15l132 144h29z" />
    <glyph glyph-name="Ucircumflex" unicode="&#xdb;" horiz-adv-x="632" 
d="M74 714v-452q0 -127 60.5 -193t181.5 -66t181.5 66.5t60.5 191.5v453h20v-453q0 -134 -65.5 -206t-196.5 -72t-196.5 72t-65.5 207v452h20zM324 922l114 -144h-20l-102 125l-100 -125h-20l113 144h15z" />
    <glyph glyph-name="Udieresis" unicode="&#xdc;" horiz-adv-x="632" 
d="M74 714v-452q0 -127 60.5 -193t181.5 -66t181.5 66.5t60.5 191.5v453h20v-453q0 -134 -65.5 -206t-196.5 -72t-196.5 72t-65.5 207v452h20zM249 885v-81h-20v81h20zM405 885v-81h-20v81h20z" />
    <glyph glyph-name="Yacute" unicode="&#xdd;" horiz-adv-x="538" 
d="M-5 714l274 -392l275 392h24l-289 -413v-301h-20v301l-289 413h25zM388 922l-146 -144h-15l132 144h29z" />
    <glyph glyph-name="Thorn" unicode="&#xde;" horiz-adv-x="574" 
d="M74 714v-124h268q106 0 162 -50.5t56 -144.5q0 -61 -28.5 -105t-80 -66.5t-118.5 -22.5h-259v-201h-20v714h20zM445 242q45 21 70 60.5t25 93.5q0 85 -50 129.5t-149 44.5h-267v-349h268q58 0 103 21z" />
    <glyph glyph-name="germandbls" unicode="&#xdf;" horiz-adv-x="481" 
d="M323.5 705q42.5 -21 67 -58.5t24.5 -85.5q0 -66 -33 -108t-94 -53v-2q82 -8 123 -55.5t41 -132.5q0 -106 -56.5 -158.5t-171.5 -52.5l-22 1v20l27 -1q103 0 153 47.5t50 143.5q0 63 -23.5 102t-73 57t-130.5 18h-3v20h13q83 0 131.5 40t48.5 114q0 43 -21 76t-58.5 51
t-84.5 18q-75 0 -115.5 -39.5t-40.5 -111.5v-555h-20v560q0 51 21.5 88.5t61 57.5t93.5 20q50 0 92.5 -21z" />
    <glyph glyph-name="agrave" unicode="&#xe0;" horiz-adv-x="481" 
d="M379 485q41 -41 41 -109v-323q0 -17 9 -26t30 -9q12 0 26 2v-20l-26 -1q-26 0 -42.5 11t-16.5 41v66h-2q-13 -38 -43 -67t-71.5 -45.5t-89.5 -16.5q-81 0 -126.5 36.5t-45.5 102.5q0 75 41 111.5t126 41.5l105 7q39 3 61.5 10.5t33.5 23.5t11 44q0 74 -36.5 107.5
t-113.5 33.5q-80 0 -125 -39t-51 -112h-20q3 52 27 90.5t67 59.5t102 21q88 0 129 -41zM346 273.5q-38 -8.5 -119 -10.5q-110 -3 -148 -38q-37 -34 -37 -98q0 -55 39.5 -87t110.5 -32q45 0 83.5 14.5t66.5 42.5q29 29 43.5 65.5t14.5 76.5v95h-2q-14 -20 -52 -28.5zM161 732
l125 -144h-15l-139 144h29z" />
    <glyph glyph-name="aacute" unicode="&#xe1;" horiz-adv-x="481" 
d="M379 485q41 -41 41 -109v-323q0 -17 9 -26t30 -9q12 0 26 2v-20l-26 -1q-26 0 -42.5 11t-16.5 41v66h-2q-13 -38 -43 -67t-71.5 -45.5t-89.5 -16.5q-81 0 -126.5 36.5t-45.5 102.5q0 75 41 111.5t126 41.5l105 7q39 3 61.5 10.5t33.5 23.5t11 44q0 74 -36.5 107.5
t-113.5 33.5q-80 0 -125 -39t-51 -112h-20q3 52 27 90.5t67 59.5t102 21q88 0 129 -41zM346 273.5q-38 -8.5 -119 -10.5q-110 -3 -148 -38q-37 -34 -37 -98q0 -55 39.5 -87t110.5 -32q45 0 83.5 14.5t66.5 42.5q29 29 43.5 65.5t14.5 76.5v95h-2q-14 -20 -52 -28.5zM364 732
l-146 -144h-15l132 144h29z" />
    <glyph glyph-name="acircumflex" unicode="&#xe2;" horiz-adv-x="481" 
d="M379 485q41 -41 41 -109v-323q0 -17 9 -26t30 -9q12 0 26 2v-20l-26 -1q-26 0 -42.5 11t-16.5 41v66h-2q-13 -38 -43 -67t-71.5 -45.5t-89.5 -16.5q-81 0 -126.5 36.5t-45.5 102.5q0 75 41 111.5t126 41.5l105 7q39 3 61.5 10.5t33.5 23.5t11 44q0 74 -36.5 107.5
t-113.5 33.5q-80 0 -125 -39t-51 -112h-20q3 52 27 90.5t67 59.5t102 21q88 0 129 -41zM346 273.5q-38 -8.5 -119 -10.5q-110 -3 -148 -38q-37 -34 -37 -98q0 -55 39.5 -87t110.5 -32q45 0 83.5 14.5t66.5 42.5q29 29 43.5 65.5t14.5 76.5v95h-2q-14 -20 -52 -28.5zM253 732
l114 -144h-20l-102 125l-100 -125h-20l113 144h15z" />
    <glyph glyph-name="atilde" unicode="&#xe3;" horiz-adv-x="481" 
d="M379 485q41 -41 41 -109v-323q0 -17 9 -26t30 -9q12 0 26 2v-20l-26 -1q-26 0 -42.5 11t-16.5 41v66h-2q-13 -38 -43 -67t-71.5 -45.5t-89.5 -16.5q-81 0 -126.5 36.5t-45.5 102.5q0 75 41 111.5t126 41.5l105 7q39 3 61.5 10.5t33.5 23.5t11 44q0 74 -36.5 107.5
t-113.5 33.5q-80 0 -125 -39t-51 -112h-20q3 52 27 90.5t67 59.5t102 21q88 0 129 -41zM346 273.5q-38 -8.5 -119 -10.5q-110 -3 -148 -38q-37 -34 -37 -98q0 -55 39.5 -87t110.5 -32q45 0 83.5 14.5t66.5 42.5q29 29 43.5 65.5t14.5 76.5v95h-2q-14 -20 -52 -28.5z
M209.5 687.5q13.5 -6.5 25.5 -14t15 -9.5q21 -15 33.5 -21.5t25.5 -6.5q40 0 49 55h20q-11 -75 -69 -75q-17 0 -32 8t-37 23q-18 13 -31.5 20t-26.5 7q-20 0 -33 -17t-15 -42h-20q2 21 11 39t24 29t33 11q14 0 27.5 -6.5z" />
    <glyph glyph-name="adieresis" unicode="&#xe4;" horiz-adv-x="481" 
d="M379 485q41 -41 41 -109v-323q0 -17 9 -26t30 -9q12 0 26 2v-20l-26 -1q-26 0 -42.5 11t-16.5 41v66h-2q-13 -38 -43 -67t-71.5 -45.5t-89.5 -16.5q-81 0 -126.5 36.5t-45.5 102.5q0 75 41 111.5t126 41.5l105 7q39 3 61.5 10.5t33.5 23.5t11 44q0 74 -36.5 107.5
t-113.5 33.5q-80 0 -125 -39t-51 -112h-20q3 52 27 90.5t67 59.5t102 21q88 0 129 -41zM346 273.5q-38 -8.5 -119 -10.5q-110 -3 -148 -38q-37 -34 -37 -98q0 -55 39.5 -87t110.5 -32q45 0 83.5 14.5t66.5 42.5q29 29 43.5 65.5t14.5 76.5v95h-2q-14 -20 -52 -28.5zM178 695
v-81h-20v81h20zM334 695v-81h-20v81h20z" />
    <glyph glyph-name="aring" unicode="&#xe5;" horiz-adv-x="481" 
d="M379 485q41 -41 41 -109v-323q0 -17 9 -26t30 -9q12 0 26 2v-20l-26 -1q-26 0 -42.5 11t-16.5 41v66h-2q-13 -38 -43 -67t-71.5 -45.5t-89.5 -16.5q-81 0 -126.5 36.5t-45.5 102.5q0 75 41 111.5t126 41.5l105 7q39 3 61.5 10.5t33.5 23.5t11 44q0 74 -36.5 107.5
t-113.5 33.5q-80 0 -125 -39t-51 -112h-20q3 52 27 90.5t67 59.5t102 21q88 0 129 -41zM346 273.5q-38 -8.5 -119 -10.5q-110 -3 -148 -38q-37 -34 -37 -98q0 -55 39.5 -87t110.5 -32q45 0 83.5 14.5t66.5 42.5q29 29 43.5 65.5t14.5 76.5v95h-2q-14 -20 -52 -28.5zM288 746
q20 -12 32 -32t12 -44t-12 -44t-32 -32t-44 -12t-44 12.5t-32 32.5t-12 43q0 24 12 44t32 32t44 12t44 -12zM185 636q9 -16 24.5 -25t34.5 -9q18 0 34 9t25 24.5t9 34.5q0 18 -9.5 33.5t-25 25t-34.5 9.5q-17 0 -32.5 -9t-25 -24.5t-9.5 -34.5q0 -18 9 -34z" />
    <glyph glyph-name="ae" unicode="&#xe6;" horiz-adv-x="889" 
d="M430 376h2q23 71 77 110.5t128 39.5q69 0 118.5 -32.5t75.5 -91t26 -134.5v-15h-427q4 -121 56.5 -183t148.5 -62q52 0 95 20t70.5 58.5t33.5 91.5h20q-6 -58 -36 -101t-77.5 -66t-105.5 -23q-83 0 -136.5 42t-75.5 125h-2q-10 -52 -41.5 -89.5t-77.5 -57.5t-98 -20
q-81 0 -126.5 36.5t-45.5 102.5q0 75 42 111.5t127 41.5q96 5 134.5 10.5t56.5 21.5t18 53q0 76 -38 108.5t-112 32.5q-80 0 -125.5 -39t-50.5 -112h-20q5 81 56.5 126t139.5 45q165 0 170 -150zM813 396q-24 53 -69.5 81.5t-107.5 28.5q-89 0 -142.5 -60.5t-63.5 -172.5
h407q0 70 -24 123zM354 273.5q-40 -8.5 -122 -11.5q-54 -1 -89 -10.5t-54 -26.5q-37 -33 -37 -98q0 -55 39 -87t111 -32q65 0 112 28.5t71.5 73.5t24.5 94v98h-2q-14 -20 -54 -28.5z" />
    <glyph glyph-name="ccedilla" unicode="&#xe7;" horiz-adv-x="500" 
d="M365 505.5q42 -20.5 68 -59t32 -88.5h-20q-11 70 -57 109t-117 39q-73 0 -122.5 -35t-73.5 -94t-24 -131q0 -68 25.5 -122t72.5 -85t110 -31q49 0 90.5 20t68.5 57.5t31 89.5h20q-5 -57 -32 -98.5t-72 -64.5t-104 -24l-33 -45q17 7 36 7q34 0 54 -17t20 -47
q0 -22 -12 -38.5t-33 -26t-47 -9.5q-45 0 -81 18l9 19q35 -17 72 -17q32 0 50 14.5t18 38.5q0 22 -14.5 33.5t-37.5 11.5q-26 0 -54 -14l-14 11l47 62q-64 4 -112 38.5t-73 92t-25 127.5q0 80 28 143.5t82.5 99.5t129.5 36q52 0 94 -20.5z" />
    <glyph glyph-name="egrave" unicode="&#xe8;" horiz-adv-x="500" 
d="M371 492.5q51 -33.5 77.5 -92t26.5 -133.5v-14h-430q3 -120 55 -182.5t148 -62.5q82 0 135.5 44t65.5 126h20q-7 -55 -34.5 -98t-75.5 -67.5t-113 -24.5q-74 0 -123.5 33.5t-73.5 94t-24 141.5q0 82 31.5 143t83 93.5t110.5 32.5q70 0 121 -33.5zM429.5 395.5
q-25.5 52.5 -71.5 81.5t-107 29q-62 0 -108 -33t-71 -86.5t-27 -113.5h410q0 70 -25.5 122.5zM169 732l125 -144h-15l-139 144h29z" />
    <glyph glyph-name="eacute" unicode="&#xe9;" horiz-adv-x="500" 
d="M371 492.5q51 -33.5 77.5 -92t26.5 -133.5v-14h-430q3 -120 55 -182.5t148 -62.5q82 0 135.5 44t65.5 126h20q-7 -55 -34.5 -98t-75.5 -67.5t-113 -24.5q-74 0 -123.5 33.5t-73.5 94t-24 141.5q0 82 31.5 143t83 93.5t110.5 32.5q70 0 121 -33.5zM429.5 395.5
q-25.5 52.5 -71.5 81.5t-107 29q-62 0 -108 -33t-71 -86.5t-27 -113.5h410q0 70 -25.5 122.5zM372 732l-146 -144h-15l132 144h29z" />
    <glyph glyph-name="ecircumflex" unicode="&#xea;" horiz-adv-x="500" 
d="M371 492.5q51 -33.5 77.5 -92t26.5 -133.5v-14h-430q3 -120 55 -182.5t148 -62.5q82 0 135.5 44t65.5 126h20q-7 -55 -34.5 -98t-75.5 -67.5t-113 -24.5q-74 0 -123.5 33.5t-73.5 94t-24 141.5q0 82 31.5 143t83 93.5t110.5 32.5q70 0 121 -33.5zM429.5 395.5
q-25.5 52.5 -71.5 81.5t-107 29q-62 0 -108 -33t-71 -86.5t-27 -113.5h410q0 70 -25.5 122.5zM261 732l114 -144h-20l-102 125l-100 -125h-20l113 144h15z" />
    <glyph glyph-name="edieresis" unicode="&#xeb;" horiz-adv-x="500" 
d="M371 492.5q51 -33.5 77.5 -92t26.5 -133.5v-14h-430q3 -120 55 -182.5t148 -62.5q82 0 135.5 44t65.5 126h20q-7 -55 -34.5 -98t-75.5 -67.5t-113 -24.5q-74 0 -123.5 33.5t-73.5 94t-24 141.5q0 82 31.5 143t83 93.5t110.5 32.5q70 0 121 -33.5zM429.5 395.5
q-25.5 52.5 -71.5 81.5t-107 29q-62 0 -108 -33t-71 -86.5t-27 -113.5h410q0 70 -25.5 122.5zM186 695v-81h-20v81h20zM342 695v-81h-20v81h20z" />
    <glyph glyph-name="igrave" unicode="&#xec;" 
d="M75 514v-514h-20v514h20zM-42 732l125 -144h-15l-139 144h29z" />
    <glyph glyph-name="iacute" unicode="&#xed;" 
d="M75 514v-514h-20v514h20zM205 732l-146 -144h-15l132 144h29z" />
    <glyph glyph-name="icircumflex" unicode="&#xee;" 
d="M75 514v-514h-20v514h20zM72 732l114 -144h-20l-102 125l-100 -125h-20l113 144h15z" />
    <glyph glyph-name="idieresis" unicode="&#xef;" 
d="M75 514v-514h-20v514h20zM-3 695v-81h-20v81h20zM153 695v-81h-20v81h20z" />
    <glyph glyph-name="eth" unicode="&#xf0;" horiz-adv-x="519" 
d="M406 710l-120 -67q107 -99 156 -192.5t49 -201.5q0 -68 -26.5 -127.5t-78.5 -96t-127 -36.5q-70 0 -122.5 34.5t-80.5 93.5t-28 131t28.5 131t81 93.5t122.5 34.5q52 0 93.5 -18.5t68.5 -53.5h4q-24 50 -71 106.5t-90 92.5l-122 -68l-15 15l121 67q-15 12 -42.5 30.5
t-50.5 29.5l16 14q27 -15 47.5 -28.5t48.5 -35.5l123 68zM74 126q26 -54 74 -85.5t112 -31.5q65 0 113 33t73 87.5t25 118.5q0 62 -24.5 117t-72.5 88.5t-115 33.5q-63 0 -111 -31.5t-74 -86t-26 -121.5q0 -68 26 -122z" />
    <glyph glyph-name="ntilde" unicode="&#xf1;" horiz-adv-x="500" 
d="M360 503q41 -23 63 -63.5t22 -94.5v-345h-20v342q0 50 -19.5 87t-56.5 57t-87 20q-57 0 -99.5 -28.5t-65 -77t-22.5 -107.5v-293h-20v514h20v-127h2q15 64 64.5 101.5t120.5 37.5q57 0 98 -23zM212.5 687.5q13.5 -6.5 25.5 -14t15 -9.5q21 -15 33.5 -21.5t25.5 -6.5
q40 0 49 55h20q-11 -75 -69 -75q-17 0 -32 8t-37 23q-18 13 -31.5 20t-26.5 7q-20 0 -33 -17t-15 -42h-20q2 21 11 39t24 29t33 11q14 0 27.5 -6.5z" />
    <glyph glyph-name="ograve" unicode="&#xf2;" horiz-adv-x="519" 
d="M380.5 491q52.5 -35 81.5 -96.5t29 -137.5q0 -73 -27 -134t-79.5 -98t-125.5 -37q-69 0 -121.5 35t-81 96.5t-28.5 137.5q0 72 27.5 133.5t80 98.5t124.5 37q68 0 120.5 -35zM74 129.5q26 -56.5 74 -89t112 -32.5q65 0 112.5 33.5t73 90t25.5 125.5q0 70 -26 126.5
t-74.5 89.5t-111.5 33q-64 0 -111.5 -33.5t-73.5 -90.5t-26 -125q0 -71 26 -127.5zM175 732l125 -144h-15l-139 144h29z" />
    <glyph glyph-name="oacute" unicode="&#xf3;" horiz-adv-x="519" 
d="M380.5 491q52.5 -35 81.5 -96.5t29 -137.5q0 -73 -27 -134t-79.5 -98t-125.5 -37q-69 0 -121.5 35t-81 96.5t-28.5 137.5q0 72 27.5 133.5t80 98.5t124.5 37q68 0 120.5 -35zM74 129.5q26 -56.5 74 -89t112 -32.5q65 0 112.5 33.5t73 90t25.5 125.5q0 70 -26 126.5
t-74.5 89.5t-111.5 33q-64 0 -111.5 -33.5t-73.5 -90.5t-26 -125q0 -71 26 -127.5zM378 732l-146 -144h-15l132 144h29z" />
    <glyph glyph-name="ocircumflex" unicode="&#xf4;" horiz-adv-x="519" 
d="M380.5 491q52.5 -35 81.5 -96.5t29 -137.5q0 -73 -27 -134t-79.5 -98t-125.5 -37q-69 0 -121.5 35t-81 96.5t-28.5 137.5q0 72 27.5 133.5t80 98.5t124.5 37q68 0 120.5 -35zM74 129.5q26 -56.5 74 -89t112 -32.5q65 0 112.5 33.5t73 90t25.5 125.5q0 70 -26 126.5
t-74.5 89.5t-111.5 33q-64 0 -111.5 -33.5t-73.5 -90.5t-26 -125q0 -71 26 -127.5zM267 732l114 -144h-20l-102 125l-100 -125h-20l113 144h15z" />
    <glyph glyph-name="otilde" unicode="&#xf5;" horiz-adv-x="519" 
d="M380.5 491q52.5 -35 81.5 -96.5t29 -137.5q0 -73 -27 -134t-79.5 -98t-125.5 -37q-69 0 -121.5 35t-81 96.5t-28.5 137.5q0 72 27.5 133.5t80 98.5t124.5 37q68 0 120.5 -35zM74 129.5q26 -56.5 74 -89t112 -32.5q65 0 112.5 33.5t73 90t25.5 125.5q0 70 -26 126.5
t-74.5 89.5t-111.5 33q-64 0 -111.5 -33.5t-73.5 -90.5t-26 -125q0 -71 26 -127.5zM223.5 687.5q13.5 -6.5 25.5 -14t15 -9.5q21 -15 33.5 -21.5t25.5 -6.5q40 0 49 55h20q-11 -75 -69 -75q-17 0 -32 8t-37 23q-18 13 -31.5 20t-26.5 7q-20 0 -33 -17t-15 -42h-20
q2 21 11 39t24 29t33 11q14 0 27.5 -6.5z" />
    <glyph glyph-name="odieresis" unicode="&#xf6;" horiz-adv-x="519" 
d="M380.5 491q52.5 -35 81.5 -96.5t29 -137.5q0 -73 -27 -134t-79.5 -98t-125.5 -37q-69 0 -121.5 35t-81 96.5t-28.5 137.5q0 72 27.5 133.5t80 98.5t124.5 37q68 0 120.5 -35zM74 129.5q26 -56.5 74 -89t112 -32.5q65 0 112.5 33.5t73 90t25.5 125.5q0 70 -26 126.5
t-74.5 89.5t-111.5 33q-64 0 -111.5 -33.5t-73.5 -90.5t-26 -125q0 -71 26 -127.5zM192 695v-81h-20v81h20zM348 695v-81h-20v81h20z" />
    <glyph glyph-name="divide" unicode="&#xf7;" horiz-adv-x="600" 
d="M325.5 495.5q10.5 -10.5 10.5 -25.5t-10.5 -25.5t-25.5 -10.5t-25.5 10.5t-10.5 25.5t10.5 25.5t25.5 10.5t25.5 -10.5zM552 243h-504v20h504v-20zM325.5 61.5q10.5 -10.5 10.5 -25.5t-10.5 -25.5t-25.5 -10.5q-14 0 -25 10.5t-11 25.5t10.5 25.5t25.5 10.5t25.5 -10.5z
" />
    <glyph glyph-name="oslash" unicode="&#xf8;" horiz-adv-x="519" 
d="M353 507q41 -19 74 -58l45 47l14 -14l-47 -49q26 -35 39 -80t13 -96q0 -73 -27.5 -134.5t-80 -98t-124.5 -36.5q-52 0 -95.5 20.5t-74.5 58.5l-57 -59l-14 14l60 62q-23 33 -36.5 78t-13.5 95q0 72 27 133.5t79.5 98.5t125.5 37q52 0 93 -19zM92 99l320 335
q-58 72 -153 72q-64 0 -112 -33.5t-73.5 -90.5t-25.5 -125q0 -92 44 -158zM171.5 27q39.5 -19 88.5 -19q64 0 112 33t73.5 90t25.5 126q0 44 -12 85.5t-35 75.5l-320 -335q28 -37 67.5 -56z" />
    <glyph glyph-name="ugrave" unicode="&#xf9;" horiz-adv-x="500" 
d="M75 514v-342q0 -50 20 -87t57 -57t86 -20q58 0 100.5 28.5t64.5 77t22 107.5v293h20v-514h-20v127h-2q-10 -43 -36 -74t-64.5 -48t-84.5 -17q-56 0 -97.5 22.5t-63.5 65t-22 100.5v338h20zM165 732l125 -144h-15l-139 144h29z" />
    <glyph glyph-name="uacute" unicode="&#xfa;" horiz-adv-x="500" 
d="M75 514v-342q0 -50 20 -87t57 -57t86 -20q58 0 100.5 28.5t64.5 77t22 107.5v293h20v-514h-20v127h-2q-10 -43 -36 -74t-64.5 -48t-84.5 -17q-56 0 -97.5 22.5t-63.5 65t-22 100.5v338h20zM368 732l-146 -144h-15l132 144h29z" />
    <glyph glyph-name="ucircumflex" unicode="&#xfb;" horiz-adv-x="500" 
d="M75 514v-342q0 -50 20 -87t57 -57t86 -20q58 0 100.5 28.5t64.5 77t22 107.5v293h20v-514h-20v127h-2q-10 -43 -36 -74t-64.5 -48t-84.5 -17q-56 0 -97.5 22.5t-63.5 65t-22 100.5v338h20zM257 732l114 -144h-20l-102 125l-100 -125h-20l113 144h15z" />
    <glyph glyph-name="udieresis" unicode="&#xfc;" horiz-adv-x="500" 
d="M75 514v-342q0 -50 20 -87t57 -57t86 -20q58 0 100.5 28.5t64.5 77t22 107.5v293h20v-514h-20v127h-2q-10 -43 -36 -74t-64.5 -48t-84.5 -17q-56 0 -97.5 22.5t-63.5 65t-22 100.5v338h20zM182 695v-81h-20v81h20zM338 695v-81h-20v81h20z" />
    <glyph glyph-name="yacute" unicode="&#xfd;" horiz-adv-x="407" 
d="M10 514l204 -487l184 487h21l-233 -609q-13 -34 -29 -51.5t-39.5 -24t-62.5 -6.5h-9v20h13q35 0 54.5 6t30.5 19t20 37l39 100l-215 509h22zM329 732l-146 -144h-15l132 144h29z" />
    <glyph glyph-name="thorn" unicode="&#xfe;" horiz-adv-x="537" 
d="M75 370h2q23 76 76 116t130 40q68 0 117.5 -32.5t75.5 -93t26 -142.5q0 -81 -26 -142t-75.5 -94.5t-117.5 -33.5q-49 0 -91.5 18.5t-72.5 54t-42 83.5h-2v-321h-20v891h20v-344zM391.5 38.5q44.5 30.5 67.5 87t23 132.5q0 75 -23.5 131t-68.5 86.5t-108 30.5
q-62 0 -109 -31t-72.5 -87.5t-25.5 -129.5q0 -77 26 -133.5t73 -86.5t109 -30q64 0 108.5 30.5z" />
    <glyph glyph-name="ydieresis" unicode="&#xff;" horiz-adv-x="407" 
d="M10 514l204 -487l184 487h21l-233 -609q-13 -34 -29 -51.5t-39.5 -24t-62.5 -6.5h-9v20h13q35 0 54.5 6t30.5 19t20 37l39 100l-215 509h22zM143 695v-81h-20v81h20zM299 695v-81h-20v81h20z" />
    <glyph glyph-name="Gbreve" unicode="&#x11e;" horiz-adv-x="722" 
d="M507.5 702.5q62.5 -28.5 102.5 -83t53 -128.5h-20q-13 68 -51 117.5t-96 76t-129 26.5q-91 0 -162.5 -44t-112 -124.5t-40.5 -185.5q0 -102 37 -182t108.5 -126t172.5 -46q65 0 119.5 24t91.5 63q36 39 54.5 86t18.5 110v28h-277v20h297v-335h-20v178h-2
q-19 -61 -60.5 -105t-99 -66.5t-125.5 -22.5q-103 0 -179 48t-116 132.5t-40 193.5q0 107 41 192t117 133.5t177 48.5q78 0 140.5 -28.5zM296.5 840q27.5 -23 65.5 -23q47 0 74.5 23t31.5 64h20q-6 -51 -40.5 -79t-85.5 -28q-47 0 -80 28.5t-40 78.5h20q7 -41 34.5 -64z" />
    <glyph glyph-name="gbreve" unicode="&#x11f;" horiz-adv-x="519" 
d="M335 507.5q40 -18.5 68.5 -52t40.5 -78.5h2v137h20v-500q0 -98 -54 -150.5t-160 -52.5q-59 0 -102.5 19t-68 55.5t-25.5 87.5h20q1 -44 22.5 -76t60.5 -49t92 -17q98 0 146.5 47t48.5 135v159h-2q-11 -44 -41 -76.5t-72.5 -50t-88.5 -17.5q-65 0 -113.5 31t-74.5 87
t-26 128q0 74 27 131t77 89t117 32q46 0 86 -18.5zM71.5 156q23.5 -51 67 -79.5t102.5 -28.5q60 0 106.5 28t72 79.5t25.5 118.5q0 63 -23.5 116t-68 84.5t-105.5 31.5q-60 0 -105.5 -29.5t-70 -82t-24.5 -120.5q0 -67 23.5 -118zM189.5 650q27.5 -23 65.5 -23q47 0 74.5 23
t31.5 64h20q-5 -50 -40 -78.5t-86 -28.5q-32 0 -58 13.5t-42.5 38t-19.5 55.5h20q7 -41 34.5 -64z" />
    <glyph glyph-name="Idotaccent" unicode="&#x130;" horiz-adv-x="128" 
d="M74 714v-714h-20v714h20zM74 885v-81h-20v81h20z" />
    <glyph glyph-name="dotlessi" unicode="&#x131;" 
d="M75 514v-514h-20v514h20z" />
    <glyph glyph-name="Lslash" unicode="&#x141;" horiz-adv-x="481" 
d="M74 714v-407l248 174v-24l-248 -174v-263h417v-20h-437v269l-74 -52v24l74 52v421h20z" />
    <glyph glyph-name="lslash" unicode="&#x142;" 
d="M75 714v-297l73 63v-25l-73 -63v-392h-20v375l-73 -63v25l73 63v314h20z" />
    <glyph glyph-name="OE" unicode="&#x152;" horiz-adv-x="1019" 
d="M474.5 711q47.5 -20 83.5 -62v65h434v-20h-414v-312h366v-20h-366v-342h414v-20h-434v65q-40 -41 -90.5 -61.5t-106.5 -20.5q-99 0 -174 48t-115 132t-40 190q0 104 38 190t112.5 137t179.5 51q65 0 112.5 -20zM87.5 180q35.5 -80 105.5 -128.5t168 -48.5q57 0 108.5 24
t88.5 67v529q-33 34 -61.5 52.5t-60.5 27t-75 8.5q-98 0 -168 -48.5t-105.5 -130t-35.5 -178.5q0 -94 35.5 -174z" />
    <glyph glyph-name="oe" unicode="&#x153;" horiz-adv-x="890" 
d="M375.5 480q52.5 -46 66.5 -130h2q17 87 69.5 131.5t137.5 44.5q64 0 110 -31.5t70.5 -91t24.5 -141.5v-9h-402v-5q0 -120 48.5 -180t143.5 -60q74 0 121 41.5t62 123.5h20q-16 -92 -68.5 -138.5t-134.5 -46.5q-84 0 -136 43t-65 126h-2q-18 -85 -69 -127t-131 -42
q-67 0 -114.5 34.5t-72 95t-24.5 139.5t24 140t71.5 95t115.5 34q80 0 132.5 -46zM74 127q22 -56 65 -87.5t104 -31.5q94 0 142.5 64t48.5 185q0 117 -48.5 183t-143.5 66q-61 0 -103.5 -31.5t-64.5 -87.5t-22 -130t22 -130zM785 445q-48 61 -139 61q-89 0 -138.5 -57.5
t-53.5 -175.5h382q-3 111 -51 172z" />
    <glyph glyph-name="Scedilla" unicode="&#x15e;" horiz-adv-x="611" 
d="M481.5 676.5q63.5 -54.5 69.5 -162.5h-20q-4 98 -63 147.5t-170 49.5q-58 0 -108.5 -16.5t-82.5 -53t-32 -94.5q0 -37 13.5 -65t51.5 -51.5t107 -39.5q117 -27 172 -43q77 -22 111.5 -62t34.5 -111q0 -61 -33.5 -104.5t-92 -65.5t-133.5 -22h-10l-29 -40q8 3 17.5 5
t16.5 2q36 0 56 -17t20 -47q0 -33 -26 -53.5t-67 -20.5q-44 0 -80 18l9 19q35 -17 71 -17q32 0 50.5 14.5t18.5 38.5q0 22 -14.5 33.5t-38.5 11.5q-12 0 -24.5 -3t-28.5 -11l-14 11l44 58q-119 8 -181 70.5t-62 170.5v11h20q0 -116 65.5 -175t192.5 -59q63 0 116 19t85 58
t32 96q0 67 -41 106q-17 15 -37 26.5t-60.5 23.5t-112.5 27q-84 18 -129 35.5t-68 41.5q-22 22 -32 48t-10 63q0 66 35 107t89.5 59t118.5 18q120 0 183.5 -54.5z" />
    <glyph glyph-name="scedilla" unicode="&#x15f;" horiz-adv-x="463" 
d="M363 484.5q47 -41.5 47 -122.5h-20q0 71 -42 107.5t-124 36.5q-48 0 -83 -14.5t-53 -40t-18 -59.5q0 -28 9.5 -46t30.5 -31q40 -24 137 -43q67 -13 105.5 -31.5t55 -44.5t16.5 -65q0 -47 -25.5 -79t-67.5 -48t-91 -16h-10l-33 -45q8 3 17.5 5t17.5 2q36 0 55.5 -17
t19.5 -47q0 -33 -26 -53.5t-67 -20.5q-21 0 -40 4t-40 14l9 19q33 -17 72 -17q32 0 50 14.5t18 38.5q0 21 -14 33t-38 12q-25 0 -54 -14l-14 11l47 62q-180 12 -180 187h20q0 -83 48 -125.5t139 -42.5q37 0 75.5 11.5t65 38.5t26.5 71q0 36 -16.5 58.5t-52.5 37.5t-101 29
q-48 10 -81 20.5t-54 23.5q-26 16 -37.5 37.5t-11.5 56.5q0 39 21 69.5t60 47.5t93 17q92 0 139 -41.5z" />
    <glyph glyph-name="Scaron" unicode="&#x160;" horiz-adv-x="611" 
d="M551 514h-20q-4 98 -62.5 147.5t-169.5 49.5q-66 0 -116.5 -18.5t-79 -55.5t-28.5 -90q0 -41 16.5 -70.5t57 -51.5t111.5 -37q67 -14 161 -41q76 -21 110 -61.5t34 -110.5q0 -61 -34 -104.5t-91.5 -65.5t-126.5 -22q-89 0 -151.5 28.5t-95 83t-32.5 132.5v10h20
q0 -117 65.5 -175.5t193.5 -58.5q67 0 119.5 20.5t82.5 59.5t30 93q0 61 -31 95.5t-79 51t-137 35.5q-91 19 -135 37t-66 41q-22 22 -32 48t-10 63q0 60 30.5 101t85.5 62t128 21q240 0 252 -217zM204 922l102 -125l100 125h20l-113 -144h-15l-114 144h20z" />
    <glyph glyph-name="scaron" unicode="&#x161;" horiz-adv-x="463" 
d="M363 484.5q47 -41.5 47 -122.5h-20q0 71 -42 107.5t-124 36.5q-49 0 -84 -14.5t-52.5 -40t-17.5 -59.5q0 -24 10.5 -45t30.5 -32q19 -11 46.5 -19t82.5 -22q54 -14 83 -23.5t50 -22.5q51 -33 51 -97q0 -45 -24 -77t-66.5 -49t-97.5 -17q-206 0 -206 188h20
q0 -83 48 -125.5t139 -42.5q46 0 84 14t60.5 41t22.5 66q0 30 -12.5 51.5t-39.5 36.5q-20 11 -46 19t-75 19q-94 22 -131 42q-25 14 -37.5 38.5t-12.5 56.5q0 41 21 71.5t60.5 46.5t92.5 16q92 0 139 -41.5zM131 732l102 -125l100 125h20l-113 -144h-15l-114 144h20z" />
    <glyph glyph-name="Ydieresis" unicode="&#x178;" horiz-adv-x="538" 
d="M-5 714l274 -392l275 392h24l-289 -413v-301h-20v301l-289 413h25zM202 885v-81h-20v81h20zM358 885v-81h-20v81h20z" />
    <glyph glyph-name="Zcaron" unicode="&#x17d;" horiz-adv-x="500" 
d="M500 687l-499 -667h507v-20h-527v27l499 667h-471v20h491v-27zM148 922l102 -125l100 125h20l-113 -144h-15l-114 144h20z" />
    <glyph glyph-name="zcaron" unicode="&#x17e;" horiz-adv-x="407" 
d="M386 489l-360 -469h376v-20h-397v25l360 469h-333v20h354v-25zM104 732l102 -125l100 125h20l-113 -144h-15l-114 144h20z" />
    <glyph glyph-name="uni018F" unicode="&#x18f;" horiz-adv-x="701" 
d="M185.5 29q-72.5 46 -113 129t-40.5 189v14h618q-1 102 -39.5 181.5t-105.5 124t-152 44.5q-79 0 -144 -35t-105 -97.5t-46 -142.5h-20q5 84 47 151.5t112.5 105.5t157.5 38q91 0 163 -48.5t112 -133.5t40 -192q0 -109 -40.5 -194t-113 -132.5t-165.5 -47.5t-165.5 46z
M90.5 166q38.5 -77 106 -120t153.5 -43q85 0 152.5 43t106.5 120t41 175h-598q0 -98 38.5 -175z" />
    <glyph glyph-name="florin" unicode="&#x192;" horiz-adv-x="556" 
d="M489 724l-4 -19q-35 6 -53 6q-35 0 -56.5 -10.5t-34.5 -32.5t-20 -58l-36 -179h127l-4 -20h-127l-89 -452q-12 -64 -42.5 -100t-87.5 -36q-30 0 -49 6l5 20q23 -6 41 -6q44 0 71 24.5t39 86.5l90 457h-119l4 20h119l39 196q10 51 41.5 77.5t90.5 26.5q33 0 55 -7z" />
    <glyph glyph-name="uni0259" unicode="&#x259;" horiz-adv-x="500" 
d="M128.5 20.5q-50.5 32.5 -77 91t-26.5 135.5v14h430q-3 120 -55 182.5t-148 62.5q-82 0 -135.5 -44t-65.5 -126h-20q7 55 35 98t76 67.5t112 24.5q72 0 121.5 -34t74.5 -94.5t25 -140.5q0 -83 -31.5 -144t-83 -93t-110.5 -32q-71 0 -121.5 32.5zM70.5 118.5
q25.5 -52.5 71.5 -81.5t107 -29q62 0 108 33t71 86.5t27 113.5h-410q0 -70 25.5 -122.5z" />
    <glyph glyph-name="circumflex" unicode="&#x2c6;" 
d="M72 732l114 -144h-20l-102 125l-100 -125h-20l113 144h15z" />
    <glyph glyph-name="caron" unicode="&#x2c7;" 
d="M-36 732l102 -125l100 125h20l-113 -144h-15l-114 144h20z" />
    <glyph glyph-name="breve" unicode="&#x2d8;" 
d="M-3.5 650q27.5 -23 65.5 -23q47 0 74.5 23t31.5 64h20q-5 -50 -40 -78.5t-86 -28.5q-32 0 -58 13.5t-42.5 38t-19.5 55.5h20q7 -41 34.5 -64z" />
    <glyph glyph-name="dotaccent" unicode="&#x2d9;" 
d="M75 695v-81h-20v81h20z" />
    <glyph glyph-name="ring" unicode="&#x2da;" 
d="M109 746q20 -12 32 -32t12 -44t-12 -44t-32 -32t-44 -12t-44 12.5t-32 32.5t-12 43q0 24 12 44t32 32t44 12t44 -12zM6 636q9 -16 24.5 -25t34.5 -9q18 0 34 9t25 24.5t9 34.5q0 18 -9.5 33.5t-25 25t-34.5 9.5q-17 0 -32.5 -9t-25 -24.5t-9.5 -34.5q0 -18 9 -34z" />
    <glyph glyph-name="ogonek" unicode="&#x2db;" 
d="M32.5 -67.5q-23.5 -28.5 -23.5 -54.5q0 -20 14.5 -33t39.5 -13q39 0 72 33l15 -13q-18 -20 -41 -30t-48 -10q-35 0 -55.5 17.5t-20.5 46.5q0 61 97 124h26q-52 -39 -75.5 -67.5z" />
    <glyph glyph-name="tilde" unicode="&#x2dc;" 
d="M28.5 687.5q13.5 -6.5 25.5 -14t15 -9.5q21 -15 33.5 -21.5t25.5 -6.5q40 0 49 55h20q-11 -75 -69 -75q-17 0 -32 8t-37 23q-18 13 -31.5 20t-26.5 7q-20 0 -33 -17t-15 -42h-20q2 21 11 39t24 29t33 11q14 0 27.5 -6.5z" />
    <glyph glyph-name="hungarumlaut" unicode="&#x2dd;" 
d="M116 732l-146 -144h-15l132 144h29zM266 732l-146 -144h-15l132 144h29z" />
    <glyph glyph-name="uni0394" unicode="&#x394;" horiz-adv-x="575" 
d="M304 714l282 -714h-598l290 714h26zM19 20h537l-264 674h-2z" />
    <glyph glyph-name="uni03A9" unicode="&#x3a9;" horiz-adv-x="721" 
d="M489.5 706q59.5 -25 106.5 -75q46 -49 70 -114t24 -137q0 -121 -50 -209t-156 -148v-3h196v-20h-237v21q78 41 127.5 91t74 115.5t24.5 151.5q0 70 -22 130.5t-65 107.5t-99 70.5t-122 23.5t-123 -24t-99 -71q-86 -97 -86 -237q0 -86 24.5 -151.5t74 -115.5t127.5 -91
v-21h-237v20h196v3q-106 60 -156 147t-50 210q0 72 24 137t70 114q47 50 106.5 75t128.5 25t128.5 -25z" />
    <glyph glyph-name="uni03BC" unicode="&#x3bc;" horiz-adv-x="500" 
d="M75 514v-342q0 -50 20 -87t57 -57t86 -20q57 0 99.5 28t65 76t22.5 107v295h20v-514h-20v127h-2q-16 -65 -65.5 -102t-119.5 -37q-60 0 -101.5 25t-61.5 72v-262h-20v691h20z" />
    <glyph glyph-name="pi" unicode="&#x3c0;" horiz-adv-x="540" 
d="M526 494h-99v-440q0 -19 10 -30t31 -11q16 0 43 3v-19q-3 0 -15 -1.5t-27 -1.5q-34 0 -48 15.5t-14 44.5v440h-286v-494h-20v494h-93v20h518v-20z" />
    <glyph glyph-name="uni10D0" unicode="&#x10d0;" horiz-adv-x="465" 
d="M127.5 14q-44.5 26 -68.5 68.5t-24 91.5q0 44 18 86h20q-18 -42 -18 -86q0 -42 22 -80t62 -62t91 -24t91 24t62 64t22 84q0 48 -13.5 84t-35.5 62t-55 56q-29 25 -45.5 41t-28.5 39t-12 50h20q0 -22 12 -42.5t28.5 -36.5t42.5 -39q33 -29 55.5 -57t37 -66.5t14.5 -87.5
q0 -52 -24 -96.5t-68 -71.5t-103 -27q-58 0 -102.5 26z" />
    <glyph glyph-name="uni10D1" unicode="&#x10d1;" horiz-adv-x="521" 
d="M143 22q-50 34 -76.5 94t-26.5 134q0 72 25 131.5t76.5 95t128.5 35.5v38q0 39 -13 57.5t-29 29.5t-21 15q-23 16 -35 37.5t-12 60.5h20q0 -31 10.5 -49.5t29.5 -33.5q7 -6 27.5 -21t31.5 -36t11 -52v-48q58 -7 101 -42.5t66.5 -92t23.5 -125.5q0 -71 -25 -130.5
t-75 -95.5t-121 -36q-67 0 -117 34zM368.5 40.5q45.5 32.5 69 87.5t23.5 122q0 68 -24.5 123t-70 87t-106.5 32q-62 0 -107 -32.5t-69 -87.5t-24 -122q0 -69 24 -124t69.5 -86.5t107.5 -31.5t107.5 32.5z" />
    <glyph glyph-name="uni10D2" unicode="&#x10d2;" horiz-adv-x="491" 
d="M136 -183.5q-49 28.5 -77.5 82.5t-28.5 126q0 65 24.5 115.5t69.5 81.5t105 39q42 6 72.5 24.5t46 45t15.5 53.5q0 35 -16.5 59.5t-44 36.5t-59.5 12q-29 0 -57 -13t-46 -39t-18 -63h-20q0 46 22 76.5t54.5 44.5t64.5 14q37 0 69 -13.5t51.5 -42.5t19.5 -71
q0 -27 -12 -53t-37 -45.5t-62 -28.5v-3q53 -3 96 -32.5t68 -81t25 -116.5q0 -68 -27.5 -122t-76.5 -84.5t-112 -30.5q-60 0 -109 28.5zM344.5 -165q44.5 27 70.5 76.5t26 113.5q0 65 -26.5 114.5t-71.5 76t-98 26.5q-54 0 -98.5 -27t-70.5 -76.5t-26 -113.5q0 -66 26 -115.5
t71 -75.5t99 -26t98.5 27z" />
    <glyph glyph-name="uni10D3" unicode="&#x10d3;" horiz-adv-x="778" 
d="M466.5 -135.5q-30.5 27.5 -77.5 42.5t-101 15h-151v18h109v2q-49 10 -96 45.5t-78.5 103.5t-31.5 167q0 78 19 135t55 88t86 31q38 0 69 -16t51.5 -47.5t25.5 -77.5h3q19 68 68.5 104.5t118.5 36.5q60 0 106 -31.5t71 -86.5t25 -124q0 -65 -23 -120t-69 -88t-111 -33
t-110.5 31.5t-69 86t-23.5 123.5v62q0 50 -17 86.5t-46 55t-65 18.5q-45 0 -77.5 -29.5t-49.5 -82t-17 -122.5q0 -108 39 -177t98.5 -102t127.5 -41q83 -9 137 -45.5t62 -92.5h-20q-7 37 -37.5 64.5zM634 79q41 30 62.5 80t21.5 111q0 62 -22 112.5t-63.5 80t-97.5 29.5
q-54 0 -95.5 -27t-64.5 -77t-23 -118q0 -63 22 -113t63.5 -79t98.5 -29t98 30z" />
    <glyph glyph-name="uni10D4" unicode="&#x10d4;" horiz-adv-x="490" 
d="M130 -186.5q-45 25.5 -70 74.5t-25 116q0 25 7 54t14 42h20q-8 -18 -14.5 -46.5t-6.5 -49.5q0 -60 22.5 -104.5t63.5 -68t94 -23.5t94 24.5t63.5 71.5t22.5 113v281q0 55 -19.5 99t-57 69.5t-88.5 25.5t-88.5 -21.5t-57 -57t-19.5 -75.5q0 -13 3.5 -30t6.5 -27h-20
q-10 33 -10 57q0 46 21.5 86t63.5 64t100 24q57 0 99 -28t64 -76.5t22 -109.5v-281q0 -72 -24.5 -123.5t-69.5 -78.5t-106 -27q-60 0 -105 25.5z" />
    <glyph glyph-name="uni10D5" unicode="&#x10d5;" horiz-adv-x="488" 
d="M136.5 -186q-47.5 26 -74.5 74.5t-27 115.5q0 21 5.5 46t11.5 40h20q-8 -17 -12.5 -41.5t-4.5 -44.5q0 -59 25 -103.5t68.5 -68.5t97.5 -24q53 0 95.5 24t67 67.5t24.5 100.5q0 58 -23 98.5t-61.5 61t-83.5 20.5h-45v20h45q43 0 75 19t48.5 50.5t16.5 67.5q0 43 -22 78.5
t-58.5 56t-77.5 20.5q-44 0 -81 -20t-59 -55.5t-22 -78.5q0 -18 7 -46h-21q-6 24 -6 46q0 46 23 86t64.5 64t94.5 24q50 0 91 -24t64 -64t23 -86q0 -50 -26.5 -90t-79.5 -55v-4q62 -16 98 -64.5t36 -124.5q0 -64 -26.5 -112t-73.5 -74t-107 -26q-62 0 -109.5 26z" />
    <glyph glyph-name="uni10D6" unicode="&#x10d6;" horiz-adv-x="561" 
d="M183 21.5q-50 33.5 -76.5 92.5t-26.5 133q0 62 20.5 118t70.5 96v2q-49 0 -83 20t-51 55t-17 79q0 40 18 73t51.5 52.5t79.5 19.5q44 0 77.5 -19.5t51.5 -52.5t18 -73q0 -31 -12 -62.5t-37 -51.5q17 3 34 3q66 0 116 -33.5t77 -92.5t27 -133q0 -71 -25 -130t-75 -94
t-121 -35q-67 0 -117 33.5zM232 497.5q30 17.5 47.5 48.5t17.5 71q0 34 -15.5 62.5t-44.5 46t-69 17.5q-39 0 -68.5 -17.5t-45 -46.5t-15.5 -62q0 -37 15 -68.5t44 -50t69 -18.5q35 0 65 17.5zM409 40q45 32 68.5 86t23.5 121t-24 121.5t-70 86t-107 31.5q-62 0 -107 -31.5
t-69 -86t-24 -121.5q0 -69 24 -123t69.5 -85t107.5 -31q63 0 108 32z" />
    <glyph glyph-name="uni10D7" unicode="&#x10d7;" horiz-adv-x="823" 
d="M763 258q0 73 -19.5 125.5t-54.5 80.5t-81 28q-38 0 -69.5 -20t-49.5 -56.5t-18 -83.5v-82q0 -71 -24 -131t-72.5 -95.5t-119.5 -35.5q-67 0 -115.5 34t-74 93.5t-25.5 134.5q0 71 24.5 130.5t73 95.5t117.5 36q46 0 86 -18t69 -53.5t43 -85.5h2q4 50 25.5 85.5t55 53.5
t74.5 18q51 0 90 -30.5t61 -88t22 -135.5q0 -75 -16.5 -137.5t-50.5 -120.5h-21q68 122 68 258zM362 40.5q44 32.5 66.5 87.5t22.5 122q0 72 -25.5 127t-70 85t-100.5 30q-61 0 -105.5 -32.5t-67 -87.5t-22.5 -122q0 -69 23 -124t67 -86.5t106 -31.5t106 32.5z" />
    <glyph glyph-name="uni10D8" unicode="&#x10d8;" horiz-adv-x="480" 
d="M420 258q0 73 -22.5 125.5t-63.5 80.5t-94 28q-54 0 -94.5 -28t-63 -80.5t-22.5 -125.5q0 -136 68 -258h-21q-34 58 -50.5 120.5t-16.5 137.5q0 79 25 136t70 87.5t105 30.5t105.5 -30.5t70 -87.5t24.5 -136q0 -75 -16.5 -137.5t-50.5 -120.5h-21q68 122 68 258z" />
    <glyph glyph-name="uni10D9" unicode="&#x10d9;" horiz-adv-x="481" 
d="M136 -185q-47 27 -74 76t-27 113q0 21 5.5 46t11.5 40h20q-8 -17 -12.5 -41.5t-4.5 -44.5q0 -60 24.5 -104t67 -68t96.5 -24q53 0 94.5 25.5t65 71t23.5 105.5q0 58 -22.5 101t-60.5 66t-83 23h-65v20h65q43 0 73 20t45.5 51.5t15.5 65.5q0 49 -24.5 82t-69.5 45v21
q56 -13 85 -52t29 -95q0 -49 -26 -89.5t-74 -55.5v-4q40 -10 70 -37.5t46 -69t16 -92.5q0 -66 -25.5 -116.5t-71.5 -78t-106 -27.5t-107 27z" />
    <glyph glyph-name="uni10DA" unicode="&#x10da;" horiz-adv-x="904" 
d="M563 -122.5q-47 29.5 -109 42t-120 12.5h-180v18h127v2q-58 12 -112 48t-90.5 101t-36.5 157q0 120 39 187t115 67q31 0 57.5 -14.5t44.5 -42.5t24 -68h4q9 59 43.5 92t82.5 33q31 0 57.5 -14.5t44.5 -42.5t24 -68h4q10 60 44 92.5t82 32.5q75 0 114.5 -66.5t39.5 -187.5
q0 -61 -10.5 -112.5t-32.5 -98.5h-21q44 97 44 211q0 109 -34 171.5t-100 62.5q-34 0 -61 -21.5t-42 -58t-15 -80.5v-175h-20v175q0 45 -15 81.5t-42 57.5t-61 21t-61 -21.5t-42 -58t-15 -80.5v-175h-20v175q0 45 -15 81.5t-42 57.5t-61 21q-66 0 -100 -63t-34 -171
q0 -105 51 -173.5t121 -100.5t128 -34q36 -2 78.5 -9.5t78.5 -20.5q61 -22 88 -54.5t31 -65.5h-20q-8 48 -55 77.5z" />
    <glyph glyph-name="uni10DB" unicode="&#x10db;" horiz-adv-x="520" 
d="M140 21q-48 33 -74 93.5t-26 141.5q0 70 24.5 128.5t72 93t112.5 34.5q72 0 123.5 -37.5t70.5 -110.5h2v182q0 65 -22 109t-62 65.5t-93 21.5q-51 0 -92 -20t-63.5 -53.5t-22.5 -72.5h-20q0 46 25.5 84t71 60t101.5 22q59 0 103.5 -24.5t69 -71t24.5 -109.5v-302
q0 -81 -25.5 -141t-73.5 -93t-113 -33t-113 33zM357 39q43 31 65.5 87t22.5 130q0 73 -23.5 126t-68 81.5t-105.5 28.5q-58 0 -101 -32.5t-65 -86.5t-22 -117q0 -74 22.5 -130t66 -87t104.5 -31t104 31z" />
    <glyph glyph-name="uni10DC" unicode="&#x10dc;" horiz-adv-x="517" 
d="M157 21q-49 33 -75.5 93.5t-26.5 140.5v333q0 87 43 124.5t134 37.5h198v-20h-198q-54 0 -88 -14t-51.5 -45.5t-17.5 -84.5v-222h2q19 73 70.5 110.5t123.5 37.5q65 0 112.5 -34.5t72 -93t24.5 -128.5q0 -81 -25 -141.5t-72 -93.5t-112 -33t-114 33zM374.5 39
q42.5 31 64 86.5t21.5 130.5q0 63 -22 117t-65 86.5t-101 32.5q-61 0 -105.5 -28.5t-68 -81.5t-23.5 -126q0 -74 23.5 -130t67.5 -87t105 -31t103.5 31z" />
    <glyph glyph-name="uni10DD" unicode="&#x10dd;" horiz-adv-x="684" 
d="M624 258q0 70 -17.5 123t-50 82t-76.5 29q-35 0 -64 -21.5t-46.5 -58t-17.5 -80.5v-175h-20v175q0 44 -17.5 81t-46.5 58t-64 21q-45 0 -77.5 -29.5t-49.5 -82t-17 -122.5q0 -69 17.5 -135.5t49.5 -122.5h-21q-34 59 -50 122.5t-16 135.5q0 78 19.5 135t56.5 88t88 31
q31 0 59 -14.5t48.5 -42.5t29.5 -68h3q16 60 52 92.5t84 32.5q51 0 88 -30.5t56.5 -87.5t19.5 -136q0 -75 -16.5 -137.5t-50.5 -120.5h-21q68 122 68 258z" />
    <glyph glyph-name="uni10DE" unicode="&#x10de;" horiz-adv-x="487" 
d="M138.5 13.5q-47.5 25.5 -75.5 71.5t-28 105q0 19 4 38.5t8 31.5h20q-4 -11 -8 -32t-4 -38q0 -53 25 -94.5t68 -64.5t96 -23q52 0 94 24t65.5 66.5t23.5 95.5q0 57 -25.5 102t-66 69.5t-83.5 24.5h-46v20h55q43 0 72.5 14t43.5 36t14 48q0 34 -14 57t-34 37t-55 32
q-40 21 -66 48t-31 68h20q6 -35 28.5 -57.5t59.5 -42.5q38 -20 59.5 -35.5t37 -41.5t15.5 -65q0 -41 -27.5 -70.5t-75.5 -38.5v-3q30 -7 62 -32t54.5 -68.5t22.5 -101.5t-26 -105t-72.5 -74t-104.5 -27t-105.5 25.5z" />
    <glyph glyph-name="uni10DF" unicode="&#x10df;" horiz-adv-x="506" 
d="M149.5 -187q-45.5 25 -72 73t-26.5 114q0 18 4 39.5t9 35.5h20q-5 -15 -9 -37.5t-4 -37.5q0 -59 24.5 -102.5t65.5 -66.5t90 -23q50 0 91 23t65 72.5t24 123.5v461l-271 -42v-2q27 -7 48 -26t33 -44t12 -49q0 -40 -19 -70t-53.5 -46t-77.5 -16h-61v19h61q38 0 67.5 13.5
t46 39t16.5 60.5q0 30 -17.5 56t-45 42t-57.5 16v18l318 49h20v-479q0 -81 -26 -134.5t-71.5 -79t-102.5 -25.5q-56 0 -101.5 25z" />
    <glyph glyph-name="uni10E0" unicode="&#x10e0;" horiz-adv-x="684" 
d="M624 258q0 70 -17.5 123t-50 82t-76.5 29q-35 0 -64 -21.5t-46.5 -58t-17.5 -80.5v-175h-20v175q0 44 -17.5 81t-46.5 58t-64 21q-38 0 -70.5 -26t-53 -79t-20.5 -129q0 -69 17.5 -135.5t49.5 -122.5h-21q-36 62 -51 128t-15 166q0 135 33.5 217t92.5 122.5t146 56.5
l72 13q36 6 62.5 17.5t34.5 29.5h20q-6 -28 -39.5 -43.5t-85.5 -24.5l-71 -13q-77 -14 -126 -50t-76.5 -92.5t-41.5 -139.5h3q17 63 55.5 94t84.5 31q31 0 59 -14.5t48.5 -42.5t29.5 -68h3q16 60 52 92.5t84 32.5q51 0 88 -30.5t56.5 -87.5t19.5 -136q0 -75 -16.5 -137.5
t-50.5 -120.5h-21q68 122 68 258z" />
    <glyph glyph-name="uni10E1" unicode="&#x10e1;" horiz-adv-x="514" 
d="M156 16q-48 28 -74.5 81t-26.5 128v525h20v-524q0 -68 24 -117t67.5 -75t100.5 -26q55 0 98 23.5t66 63.5t23 88q0 44 -12 77t-29.5 55t-47.5 53q-23 23 -38 40.5t-27 40.5t-17 51h21q6 -25 17 -45.5t25 -36.5t36 -38q30 -30 48.5 -53.5t31 -59.5t12.5 -84
q0 -55 -26.5 -99.5t-73.5 -70t-107 -25.5q-63 0 -111 28z" />
    <glyph glyph-name="uni10E2" unicode="&#x10e2;" horiz-adv-x="614" 
d="M164.5 -169.5q-59.5 44.5 -91 126t-31.5 190.5q0 106 30 186.5t86.5 126t134.5 49.5h5q-1 33 -1 101h20q0 -69 -1 -101h5q79 -3 135.5 -48t86 -126t29.5 -188q0 -109 -31.5 -190.5t-91.5 -126t-142 -44.5q-83 0 -142.5 44.5zM439.5 -150q55.5 44 84 121t28.5 176
q0 97 -27.5 173.5t-80 121.5t-124.5 48h-5q2 -72 2 -108v-225h-20v228q0 35 2 105h-5q-72 -4 -124.5 -49.5t-80 -121.5t-27.5 -172q0 -98 29 -175.5t84 -121.5t132 -44t132.5 44z" />
    <glyph glyph-name="uni10E3" unicode="&#x10e3;" horiz-adv-x="516" 
d="M145 -186.5q-48 25.5 -75 74.5t-27 116q0 25 7 54t14 42h20q-8 -18 -14.5 -46.5t-6.5 -49.5q0 -60 25 -104t68 -68t97 -24t97 25t68 74.5t25 119.5v308q0 71 -29.5 114t-86.5 43q-35 0 -59.5 -18.5t-37 -50.5t-12.5 -71v-86h-20v86q0 61 -25.5 98t-76.5 37h-56v20h48
q53 0 82 -23.5t37 -70.5h4q10 47 41.5 73t78.5 26q39 0 69 -20.5t46.5 -58.5t16.5 -90v-316q0 -77 -27 -130.5t-74.5 -81t-108.5 -27.5q-60 0 -108 25.5z" />
    <glyph glyph-name="uni10E4" unicode="&#x10e4;" horiz-adv-x="760" 
d="M290.5 -177q-70.5 35 -80.5 122h21q9 -77 74 -107t154 -30q59 0 109.5 15t83 51t32.5 94q0 38 -18 71.5t-51.5 54t-78.5 20.5h-23v20h35q44 0 78 22t53 61t19 89q0 93 -36.5 139.5t-101.5 46.5q-38 0 -68.5 -19.5t-48 -56t-17.5 -84.5v-42q0 -64 -23 -114.5t-66.5 -78.5
t-103.5 -28q-61 0 -104.5 28.5t-66 78.5t-22.5 114q0 67 24.5 117.5t68 77.5t99.5 27q42 0 79 -15.5t63.5 -46t36.5 -74.5h3q6 43 26 74t51 46.5t68 15.5q76 0 117.5 -52t41.5 -154q0 -69 -31.5 -117t-87.5 -64v-3q50 -18 77.5 -58t27.5 -97q0 -65 -34.5 -105t-89.5 -57
t-121 -17q-98 0 -168.5 35zM324 113q39 24 60.5 69.5t21.5 107.5q0 67 -22 112.5t-61 67.5t-90 22q-52 0 -91 -25t-60.5 -70.5t-21.5 -106.5q0 -60 20.5 -105.5t59.5 -70.5t92 -25t92 24z" />
    <glyph glyph-name="uni10E5" unicode="&#x10e5;" horiz-adv-x="500" 
d="M135.5 -186.5q-45.5 25.5 -70.5 74.5t-25 116q0 25 7 54t14 42h20q-8 -18 -14.5 -46.5t-6.5 -49.5q0 -60 23 -104.5t64 -68t94 -23.5q54 0 94 24t62.5 70.5t22.5 114.5v246q0 67 -25 119.5t-66 81t-86 28.5q-48 0 -82.5 -19t-52.5 -53.5t-18 -81.5q0 -13 3.5 -30t6.5 -27
h-20q-10 33 -10 57q0 53 22 92.5t60.5 60.5t87.5 21q41 0 77.5 -18.5t63 -52t37.5 -77.5h2v386h20v-733q0 -74 -24.5 -125.5t-69 -77.5t-105.5 -26q-60 0 -105.5 25.5z" />
    <glyph glyph-name="uni10E6" unicode="&#x10e6;" horiz-adv-x="684" 
d="M417 -110.5q-49 32.5 -129 32.5h-151v18h112v3q-56 11 -103.5 51.5t-76.5 108.5t-29 155q0 78 19.5 135t56.5 88t88 31q31 0 59 -14.5t48.5 -42.5t29.5 -68h3q16 60 52 92.5t84 32.5q51 0 88 -30.5t56.5 -87.5t19.5 -136q0 -61 -10.5 -112.5t-32.5 -98.5h-21
q44 97 44 211q0 70 -17.5 123t-50 82t-76.5 29q-35 0 -64 -21.5t-46.5 -58t-17.5 -80.5v-175h-20v175q0 44 -17.5 81t-46.5 58t-64 21q-45 0 -77.5 -29.5t-49.5 -82t-17 -122.5q0 -105 40.5 -175t101 -104.5t123.5 -40.5q52 -4 89 -24t58 -49.5t25 -64.5h-20
q-11 57 -60 89.5z" />
    <glyph glyph-name="uni10E7" unicode="&#x10e7;" horiz-adv-x="502" 
d="M146.5 -192q-46.5 20 -73 59.5t-26.5 96.5q0 28 8 50h20q-8 -22 -8 -50q0 -48 23.5 -83.5t65.5 -54t96 -18.5q53 0 92.5 25t61 70.5t21.5 106.5v207h-2q-10 -41 -35.5 -72.5t-64 -49t-85.5 -17.5q-56 0 -101.5 27t-72 78t-26.5 119q0 61 18.5 111.5t44.5 86.5h21
q-26 -37 -45 -88.5t-19 -109.5q0 -61 24 -107.5t65 -71.5t91 -25q56 0 97.5 27t64.5 73.5t25 103.5v198h20v-490q0 -70 -24.5 -120t-68.5 -76t-102 -26q-59 0 -105.5 20z" />
    <glyph glyph-name="uni10E8" unicode="&#x10e8;" horiz-adv-x="520" 
d="M139.5 20.5q-48.5 32.5 -74 92.5t-25.5 141q0 70 24.5 128t72 92t112.5 34q72 0 123.5 -37.5t70.5 -110.5h2v228q0 70 -29.5 112t-86.5 42q-31 0 -56 -15.5t-39 -41.5t-14 -56v-33h-20v33q0 30 -15 56t-40.5 41.5t-57.5 15.5q-27 0 -47 -4v20q21 4 49 4t53 -11.5
t42.5 -31.5t23.5 -44h4q13 41 46.5 64t74.5 23q40 0 69.5 -19.5t46 -57t16.5 -89.5v-343q0 -80 -25.5 -140t-73.5 -92.5t-113 -32.5t-113.5 32.5zM357 38.5q43 30.5 65.5 86t22.5 129.5q0 73 -23.5 125.5t-67.5 80.5t-106 28q-58 0 -101 -32t-65 -85.5t-22 -116.5
q0 -74 22.5 -129.5t66 -86t104.5 -30.5t104 30.5z" />
    <glyph glyph-name="uni10E9" unicode="&#x10e9;" horiz-adv-x="508" 
d="M451 258q0 73 -22.5 125.5t-63.5 80.5t-94 28q-61 0 -105.5 -29t-67.5 -82t-23 -125v-256h-20v566q0 55 19.5 99.5t57 70.5t90.5 26q56 0 94 -25.5t56.5 -68t18.5 -94.5h-20q0 46 -16.5 84t-50 61t-82.5 23q-46 0 -79.5 -23.5t-50.5 -64t-17 -90.5v-200h2
q19 73 70.5 110.5t123.5 37.5q60 0 105.5 -30.5t70 -87.5t24.5 -136q0 -75 -16.5 -137.5t-50.5 -120.5h-21q68 122 68 258z" />
    <glyph glyph-name="uni10EA" unicode="&#x10ea;" horiz-adv-x="542" 
d="M162.5 -172.5q-57.5 39.5 -89 119t-31.5 196.5q0 105 29 195t77 162h21q-46 -69 -76.5 -163t-30.5 -194q0 -110 30.5 -185.5t83 -112.5t120.5 -37q61 0 104 24t65 67.5t22 100.5q0 49 -24 90.5t-62 65.5t-76 24h-55v20h55q44 0 75.5 12.5t48 34.5t16.5 52q0 33 -13 55.5
t-38 47.5q-5 5 -23.5 22.5t-30 36t-16.5 39.5h20q7 -23 20.5 -40t27.5 -30t18 -17q26 -24 40.5 -50t14.5 -64q0 -44 -29 -71.5t-78 -37.5v-3q34 -9 63.5 -36t47.5 -66.5t18 -84.5q0 -63 -24 -111t-71.5 -74.5t-115.5 -26.5q-76 0 -133.5 39.5z" />
    <glyph glyph-name="uni10EB" unicode="&#x10eb;" horiz-adv-x="520" 
d="M140 21q-48 33 -74 93.5t-26 141.5q0 70 24.5 128.5t72 93t112.5 34.5q72 0 123.5 -37.5t70.5 -110.5h2v386h20v-495q0 -81 -25.5 -141t-73.5 -93t-113 -33t-113 33zM357 39q43 31 65.5 87t22.5 130q0 73 -23.5 126t-68 81.5t-105.5 28.5q-58 0 -101 -32.5t-65 -86.5
t-22 -117q0 -74 22.5 -130t66 -87t104.5 -31t104 31z" />
    <glyph glyph-name="uni10EC" unicode="&#x10ec;" horiz-adv-x="520" 
d="M154 20.5q-48 32.5 -73.5 92.5t-25.5 140v343q0 52 16.5 89.5t46 57t69.5 19.5q41 0 75 -23t47 -64h4q6 24 23 44t42 31.5t53 11.5t49 -4v-20q-20 4 -47 4q-32 0 -57.5 -15.5t-40.5 -41.5t-15 -56v-33h-20v33q0 30 -14 56t-39 41.5t-56 15.5q-57 0 -86.5 -42t-29.5 -112
v-228h2q19 73 70.5 110.5t123.5 37.5q65 0 112.5 -34t72 -92t24.5 -128q0 -81 -25.5 -141t-74 -92.5t-113.5 -32.5t-113 32.5zM371.5 38.5q43.5 30.5 66 86t22.5 129.5q0 63 -22 116.5t-65 85.5t-101 32q-62 0 -106 -28t-67.5 -80.5t-23.5 -125.5q0 -74 22.5 -129.5
t65.5 -86t104 -30.5t104.5 30.5z" />
    <glyph glyph-name="uni10ED" unicode="&#x10ed;" horiz-adv-x="558" 
d="M128 -187.5q-45 24.5 -70 72.5t-25 115q0 18 4 39.5t9 35.5h20q-5 -15 -9 -37.5t-4 -37.5q0 -60 22.5 -103.5t63 -66t94.5 -22.5q53 0 94 24.5t63.5 71.5t22.5 113v283h-2q-37 -108 -173 -108q-47 0 -87 17t-64 52t-24 87t27 86.5t70.5 50t96.5 15.5h156v250h20v-250h123
v-20h-123v-463q0 -72 -24.5 -123.5t-69.5 -78.5t-106 -27q-60 0 -105 24.5zM330 231q38 19 60.5 61.5t22.5 108.5v79h-162q-43 0 -81.5 -14t-62.5 -43.5t-24 -74.5t21 -75.5t57.5 -45.5t82.5 -15q48 0 86 19z" />
    <glyph glyph-name="uni10EE" unicode="&#x10ee;" horiz-adv-x="520" 
d="M154 21q-48 33 -73.5 93t-25.5 141v495h20v-386h2q19 73 70.5 110.5t123.5 37.5q65 0 112.5 -34.5t72 -93t24.5 -128.5q0 -81 -26 -141.5t-74 -93.5t-113 -33t-113 33zM371.5 39q43.5 31 66 87t22.5 130q0 63 -22 117t-65 86.5t-101 32.5q-61 0 -105.5 -28.5t-68 -81.5
t-23.5 -126q0 -74 22.5 -130t65.5 -87t104 -31t104.5 31z" />
    <glyph glyph-name="uni10EF" unicode="&#x10ef;" horiz-adv-x="465" 
d="M131 -185.5q-46 26.5 -72.5 75t-26.5 110.5q0 25 9 55h20q-9 -27 -9 -55q0 -58 24.5 -101.5t65.5 -67t90 -23.5t90 24.5t65.5 70.5t24.5 107q0 53 -23 99.5t-64 74.5t-93 28h-18v148h-176v19h176v133h20v-133h177v-19h-177v-128q57 -2 102.5 -32t70.5 -80t25 -110
q0 -66 -26.5 -116.5t-72 -78t-101.5 -27.5q-55 0 -101 26.5z" />
    <glyph glyph-name="uni10F0" unicode="&#x10f0;" horiz-adv-x="474" 
d="M137.5 7q-46.5 19 -74.5 55.5t-28 86.5q0 30 10 61h20q-9 -30 -9 -56q0 -44 24 -77t65.5 -51t93.5 -18q51 0 91 19t62.5 52t22.5 76q0 44 -18.5 74t-50.5 45.5t-73 15.5h-95v20h95q53 0 84.5 21t31.5 61q0 42 -32 65t-84 23h-95v20h95q59 0 82.5 22.5t23.5 56.5
q0 27 -12.5 44t-30.5 26.5t-51 22.5q-28 10 -46.5 19t-34.5 23.5t-25 35.5h20q13 -23 35.5 -36t61.5 -28q36 -14 55.5 -25t33.5 -31t14 -52q0 -29 -17.5 -53t-57.5 -33v-3q39 -7 62 -33.5t23 -63.5q0 -72 -85 -90v-3q52 -12 81 -48.5t29 -95.5q0 -48 -23.5 -86t-68 -59.5
t-103.5 -21.5q-55 0 -101.5 19z" />
    <glyph glyph-name="uni10F1" unicode="&#x10f1;" horiz-adv-x="543" 
d="M168.5 26.5q-59.5 38.5 -94 122.5t-34.5 214q0 73 14 145.5t38 135t54 106.5h20q-29 -42 -53 -106.5t-38.5 -138t-14.5 -142.5q0 -124 32.5 -203t87.5 -115.5t125 -36.5q56 0 96 19t61 52.5t21 75.5q0 47 -20 77.5t-52 44t-70 13.5h-75v20h75q53 0 84.5 21t31.5 61
q0 42 -32 65t-84 23h-75v20h75q61 0 83.5 22t22.5 57q0 31 -16 50t-46 36q-29 17 -48 35t-30 50h20q10 -25 27.5 -40.5t44.5 -30.5q32 -19 50 -41.5t18 -59.5q0 -70 -75 -86v-3q39 -6 62 -33t23 -64q0 -38 -22.5 -60.5t-62.5 -29.5v-3q52 -12 81.5 -49t29.5 -95
q0 -48 -22.5 -86t-67 -59.5t-108.5 -21.5q-77 0 -136.5 38.5z" />
    <glyph glyph-name="uni10F2" unicode="&#x10f2;" horiz-adv-x="494" 
d="M33 0v20q54 0 100.5 6t92.5 19v1q-67 23 -107 67t-56 93t-16 92q0 64 25 112.5t70 75t105 26.5t105 -26.5t70 -75t25 -112.5q0 -43 -16 -92t-56 -93t-107 -67v-1q46 -13 92.5 -19t100.5 -6v-20q-123 0 -214 34q-91 -34 -214 -34zM354.5 120q40.5 42 56.5 88t16 90
q0 58 -22.5 102t-63.5 68t-94 24t-94 -24t-63.5 -68t-22.5 -102q0 -44 16 -90t56.5 -88t107.5 -68q67 26 107.5 68z" />
    <glyph glyph-name="uni10F3" unicode="&#x10f3;" horiz-adv-x="489" 
d="M136 -186.5q-48 25.5 -75.5 74.5t-27.5 116q0 21 5.5 46t11.5 40h20q-8 -17 -12.5 -41.5t-4.5 -44.5q0 -59 25 -103.5t68.5 -68.5t97.5 -24q53 0 95 25.5t66 71.5t24 105q0 54 -23 97.5t-61 68t-82 24.5h-45v20h45q43 0 75 19t48.5 50.5t16.5 67.5v123h-324v20h344v-142
q0 -50 -26.5 -90t-79.5 -55v-4q40 -10 70 -39.5t46 -71t16 -88.5q0 -64 -26.5 -115t-73.5 -79t-105 -28q-60 0 -108 25.5z" />
    <glyph glyph-name="uni10F4" unicode="&#x10f4;" horiz-adv-x="489" 
d="M136 -186.5q-48 25.5 -75.5 74.5t-27.5 116q0 21 5.5 46t11.5 40h20q-8 -17 -12.5 -41.5t-4.5 -44.5q0 -59 25 -103.5t68.5 -68.5t97.5 -24q53 0 95 25t66 71t24 106q0 54 -23 97.5t-61 68t-82 24.5h-45v20h45q43 0 75 19t48.5 50.5t16.5 67.5v123h-177q-50 0 -82 18
t-46.5 47.5t-14.5 64.5h20q0 -48 31 -79t92 -31h197v-142q0 -50 -26.5 -90t-79.5 -55v-4q40 -12 70 -41.5t46 -70.5t16 -87q0 -66 -26 -116t-72.5 -78t-106.5 -28t-108 25.5z" />
    <glyph glyph-name="uni10F5" unicode="&#x10f5;" horiz-adv-x="541" 
d="M122 5.5q-40 17.5 -64.5 51.5t-24.5 82t24.5 81t66.5 49.5t93 16.5h166v188h-166q-52 0 -93.5 15t-66 47t-24.5 80q0 47 24.5 80t64 49.5t86.5 16.5q84 0 139.5 -36t55.5 -134v-98h123v-20h-123v-188h123v-20h-123v-108q0 -98 -55.5 -134t-139.5 -36q-46 0 -86 17.5z
M383 592q0 81 -46.5 115.5t-122.5 34.5q-45 0 -81.5 -14.5t-58 -43t-21.5 -68.5t22 -67.5t58 -41t78 -13.5h172v98zM336.5 42.5q46.5 34.5 46.5 115.5v108h-172q-42 0 -78 -14.5t-58 -43.5t-22 -69t21.5 -70t58 -45.5t81.5 -15.5q76 0 122.5 34.5z" />
    <glyph glyph-name="uni10F6" unicode="&#x10f6;" horiz-adv-x="691" 
d="M230 -180h15q38 0 56.5 7.5t25.5 26t7 55.5v90q-92 0 -158 31.5t-101 90t-35 140.5q0 78 36 135t102.5 87t155.5 30v137q0 39 11.5 61t35 31t64.5 10h13v-20h-15q-38 0 -56.5 -7.5t-25.5 -26t-7 -55.5v-130q91 -1 158 -30.5t103 -85t36 -134.5q0 -83 -36.5 -142
t-103.5 -90t-157 -32v-97q0 -39 -11.5 -61t-35 -31t-64.5 -10h-13v20zM188.5 466q-61.5 -28 -95 -80.5t-33.5 -124.5q0 -76 33.5 -130.5t95.5 -83t145 -28.5v475q-84 0 -145.5 -28zM500.5 48.5q62.5 28.5 96.5 83t34 131.5q0 75 -35 126t-97 77t-145 28v-475
q84 1 146.5 29.5z" />
    <glyph glyph-name="uni10F7" unicode="&#x10f7;" horiz-adv-x="497" 
d="M139.5 -185q-49.5 27 -78 75.5t-28.5 109.5q0 68 25 114t63 73t92 50q51 22 81.5 39t51 43.5t20.5 64.5q0 35 -16.5 59.5t-44 36.5t-59.5 12q-29 0 -57 -13t-46 -39t-18 -63h-20q0 46 22 76.5t54.5 44.5t64.5 14q37 0 69 -13.5t51.5 -42.5t19.5 -71q0 -45 -23 -75.5
t-56 -48.5t-90 -43q-49 -21 -84.5 -46.5t-57.5 -67.5t-22 -104q0 -52 26.5 -96.5t71.5 -70t98 -25.5q56 0 100.5 25.5t69.5 69.5t25 97q0 32 -7 58.5t-16 41.5h21q8 -14 15 -42t7 -58q0 -61 -28 -109.5t-77.5 -75.5t-110.5 -27q-59 0 -108.5 27z" />
    <glyph glyph-name="uni10F8" unicode="&#x10f8;" horiz-adv-x="502" 
d="M148 -186q-44 26 -68.5 76t-24.5 120v490h20v-198q2 -57 25 -103.5t64.5 -73.5t97.5 -27q50 0 91 25t65 71.5t24 107.5q0 58 -19 109.5t-45 88.5h21q26 -36 44.5 -86.5t18.5 -111.5q0 -68 -26.5 -119t-72 -78t-101.5 -27q-47 0 -85.5 17.5t-64 49t-35.5 72.5h-2v-207
q0 -61 21.5 -106.5t61 -70.5t92.5 -25q54 0 96 18.5t65.5 54t23.5 83.5q0 28 -8 50h20q8 -22 8 -50q0 -57 -26.5 -96.5t-73 -59.5t-105.5 -20q-58 0 -102 26z" />
    <glyph glyph-name="uni10F9" unicode="&#x10f9;" horiz-adv-x="501" 
d="M360 483.5q49 -28.5 77.5 -82.5t28.5 -126q0 -65 -24.5 -115.5t-69.5 -81.5t-105 -39q-42 -6 -72.5 -24.5t-46 -45t-15.5 -53.5q0 -35 16.5 -59.5t44 -36.5t59.5 -12q29 0 57 13t46 39t18 63h20q0 -46 -22 -76.5t-54.5 -44.5t-64.5 -14q-37 0 -69 13.5t-51.5 42.5
t-19.5 71q0 27 12 53t37 45.5t62 28.5v3q-53 3 -96 32.5t-68 81t-25 116.5q0 68 27.5 122t76.5 84.5t112 30.5q60 0 109 -28.5zM151.5 465q-44.5 -27 -70.5 -76.5t-26 -113.5q0 -65 26.5 -114.5t71.5 -76t98 -26.5q54 0 98.5 27t70.5 76.5t26 113.5q0 66 -26 115.5t-71 75.5
t-99 26t-98.5 -27z" />
    <glyph glyph-name="uni10FA" unicode="&#x10fa;" horiz-adv-x="457" 
d="M312.5 45q-25.5 22 -61 35.5t-72.5 13.5h-87v18h77v2q-43 12 -72 43t-43 73t-14 87q0 57 22.5 101t65.5 69t102 25q58 0 101 -24.5t66 -67t23 -94.5q0 -44 -18 -86h-20q18 42 18 86q0 46 -20.5 84t-59 60t-90.5 22t-90.5 -22.5t-59 -61.5t-20.5 -88q0 -172 170 -214
q55 -14 89 -42t45 -64h-20q-6 23 -31.5 45z" />
    <glyph glyph-name="uni10FB" unicode="&#x10fb;" horiz-adv-x="444" 
d="M149 514v-98h-20v98h20zM379 307v-98h-20v98h20zM149 98v-98h-20v98h20z" />
    <glyph glyph-name="uni10FC" unicode="&#x10fc;" horiz-adv-x="350" 
d="M97 428q-32 40 -32 111v188q0 49 24.5 71t75.5 22h113v-20h-113q-42 0 -61 -17.5t-19 -55.5v-116h1q11 34 37 54t64 20q37 0 64 -19.5t41 -52.5t14 -73q0 -72 -32 -112t-89 -40q-56 0 -88 40zM259.5 444q26.5 34 26.5 96q0 33 -11.5 61t-34 45t-52.5 17q-49 0 -76 -33
t-27 -90q0 -62 26 -96t74 -34t74.5 34z" />
    <glyph glyph-name="uni10FD" unicode="&#x10fd;" horiz-adv-x="571" 
d="M161.5 12q-58.5 29 -90 86t-31.5 139h20q0 -76 30 -128.5t84 -79t125 -26.5q57 0 105.5 20.5t77.5 59.5t29 93q0 64 -27 102t-74.5 59t-125.5 37q-65 14 -112.5 35t-79 62.5t-31.5 106.5q0 59 29.5 100.5t80.5 62.5t114 21q106 0 166 -55t66 -162h-20q-7 97 -61 147
t-151 50q-57 0 -103 -19t-73.5 -56t-27.5 -89q0 -68 47.5 -113.5t157.5 -69.5q91 -20 143 -44.5t77 -66t25 -109.5q0 -61 -32 -104.5t-85 -65.5t-115 -22q-79 0 -137.5 29z" />
    <glyph glyph-name="uni10FE" unicode="&#x10fe;" horiz-adv-x="498" 
d="M144 14.5q-45 26.5 -70 75t-25 112.5q0 43 16 92t56 93t107 67v1q-46 13 -92.5 19t-100.5 6v20q123 0 214 -34q91 34 214 34v-20q-54 0 -100.5 -6t-92.5 -19v-1q67 -23 107 -67t56 -93t16 -92q0 -64 -25 -112.5t-70 -75t-105 -26.5t-105 26.5zM343 32q41 24 63.5 68
t22.5 102q0 44 -16 90t-56.5 88t-107.5 68q-67 -26 -107.5 -68t-56.5 -88t-16 -90q0 -58 22.5 -102t63.5 -68t94 -24t94 24z" />
    <glyph glyph-name="uni10FF" unicode="&#x10ff;" horiz-adv-x="521" 
d="M143 22q-50 34 -76.5 94t-26.5 134q0 71 25.5 130.5t75.5 95.5t120 36q66 0 116 -34t77 -94t27 -134q0 -71 -25 -130.5t-75 -95.5t-121 -36q-67 0 -117 34zM368.5 40.5q45.5 32.5 69 87.5t23.5 122q0 68 -24.5 123t-70 87t-106.5 32q-62 0 -107 -32.5t-69 -87.5t-24 -122
q0 -69 24 -124t69.5 -86.5t107.5 -31.5t107.5 32.5z" />
    <glyph glyph-name="endash" unicode="&#x2013;" horiz-adv-x="500" 
d="M500 258h-500v20h500v-20z" />
    <glyph glyph-name="emdash" unicode="&#x2014;" horiz-adv-x="1000" 
d="M870 258h-740v20h740v-20z" />
    <glyph glyph-name="quoteleft" unicode="&#x2018;" horiz-adv-x="167" 
d="M98.5 666.5q-5.5 -19.5 -5.5 -53.5v-124h-20v124q0 33 4.5 51.5t13.5 29t27 20.5v-20q-14 -8 -19.5 -27.5z" />
    <glyph glyph-name="quoteright" unicode="&#x2019;" horiz-adv-x="167" 
d="M94 714v-123q0 -29 -3 -47.5t-13 -32t-29 -22.5v20q15 9 20 29t5 53v123h20z" />
    <glyph glyph-name="quotesinglbase" unicode="&#x201a;" horiz-adv-x="167" 
d="M93 98v-103q0 -44 -10.5 -71.5t-34.5 -42.5v20q14 12 19.5 33.5t5.5 59.5v104h20z" />
    <glyph glyph-name="quotedblleft" unicode="&#x201c;" horiz-adv-x="278" 
d="M108.5 666.5q-5.5 -18.5 -5.5 -53.5v-124h-20v123q0 32 4 50.5t13.5 30t27.5 21.5v-20q-14 -9 -19.5 -27.5zM208.5 667.5q-5.5 -18.5 -5.5 -54.5v-124h-20v124q0 33 4.5 51.5t13.5 29t27 20.5v-20q-14 -8 -19.5 -26.5z" />
    <glyph glyph-name="quotedblright" unicode="&#x201d;" horiz-adv-x="278" 
d="M95 714v-124q0 -29 -3 -47t-13 -31t-29 -23v20q15 9 20 28.5t5 53.5v123h20zM195 714v-124q0 -31 -3.5 -49t-13 -30t-28.5 -22v20q13 8 19 26t6 53v126h20z" />
    <glyph glyph-name="quotedblbase" unicode="&#x201e;" horiz-adv-x="278" 
d="M95 98v-103q0 -43 -10 -70.5t-35 -43.5v20q14 12 19.5 33.5t5.5 59.5v104h20zM195 98v-103q0 -44 -10.5 -71.5t-34.5 -42.5v20q13 11 19 33t6 60v104h20z" />
    <glyph glyph-name="dagger" unicode="&#x2020;" horiz-adv-x="556" 
d="M288 714v-243h208v-20h-208v-591h-20v591h-208v20h208v243h20z" />
    <glyph glyph-name="daggerdbl" unicode="&#x2021;" horiz-adv-x="556" 
d="M288 714v-197h208v-20h-208v-420h208v-20h-208v-197h-20v197h-208v20h208v420h-208v20h208v197h20z" />
    <glyph glyph-name="bullet" unicode="&#x2022;" horiz-adv-x="500" 
d="M339 511.5q41 -23.5 65.5 -64.5t24.5 -90q0 -48 -24 -89t-65 -65.5t-90 -24.5q-47 0 -88 23.5t-65.5 64.5t-24.5 91q0 47 23.5 88t64 65.5t90.5 24.5q48 0 89 -23.5z" />
    <glyph glyph-name="ellipsis" unicode="&#x2026;" horiz-adv-x="1000" 
d="M177 98v-98h-20v98h20zM510 98v-98h-20v98h20zM843 98v-98h-20v98h20z" />
    <glyph glyph-name="perthousand" unicode="&#x2030;" horiz-adv-x="1037" 
d="M588 714l-476 -748h-23l476 748h23zM257 670q35 -22 53 -61t18 -89q0 -48 -18.5 -86.5t-54 -61t-82.5 -22.5t-81.5 21.5t-52.5 60t-18 87.5q0 51 18.5 90.5t53 61t80.5 21.5q49 0 84 -22zM57 441q16 -34 46 -52.5t70 -18.5q42 0 72.5 19.5t46.5 53.5t16 77
q0 72 -34.5 112t-101.5 40q-63 0 -97 -40.5t-34 -112.5q0 -44 16 -78zM584 309q35 -21 53.5 -60t18.5 -91q0 -50 -19.5 -88.5t-54.5 -60t-81 -21.5t-80.5 21t-53 59t-18.5 89q0 52 19 91t53 60.5t80 21.5q48 0 83 -21zM944 308.5q35 -21.5 53.5 -60t18.5 -90.5
q0 -49 -19 -88t-54.5 -60.5t-81.5 -21.5q-47 0 -81.5 21.5t-52.5 60t-18 87.5q0 51 18.5 90.5t53 61t80.5 21.5q48 0 83 -21.5zM385.5 77.5q16.5 -33.5 46.5 -51.5t69 -18q41 0 71.5 19t47 53t16.5 78q0 72 -35 112t-101 40q-62 0 -96.5 -40t-34.5 -113q0 -46 16.5 -79.5z
M745 79q16 -34 46 -52.5t70 -18.5t71 19t47.5 53t16.5 78q0 72 -35 112t-101 40q-62 0 -96.5 -40t-34.5 -113q0 -44 16 -78z" />
    <glyph glyph-name="guilsinglleft" unicode="&#x2039;" horiz-adv-x="259" 
d="M169 380l-83 -112l83 -112v-35l-103 139v16l103 139v-35z" />
    <glyph glyph-name="guilsinglright" unicode="&#x203a;" horiz-adv-x="259" 
d="M193 276v-16l-103 -139v35l83 112l-83 112v35z" />
    <glyph glyph-name="fraction" unicode="&#x2044;" horiz-adv-x="167" 
d="M333 714l-476 -748h-23l476 748h23z" />
    <glyph glyph-name="Euro" unicode="&#x20ac;" horiz-adv-x="556" 
d="M462 679q45 -16 88 -50l-9 -16q-46 35 -86 49.5t-92 14.5q-74 0 -133.5 -34t-98 -96t-49.5 -144h407l-9 -17h-400q-1 -16 -1 -48q0 -35 2 -52h378l-9 -17h-367q15 -83 54 -143t96.5 -91.5t126.5 -31.5q125 0 207 97v-27q-88 -88 -210 -88q-76 0 -138 35t-103 99t-55 150
h-61l7 17h53q-2 28 -2 50q0 18 2 50h-60l7 17h55q12 90 53.5 155.5t105 101t143.5 35.5q53 0 98 -16z" />
    <glyph glyph-name="uni20BE" unicode="&#x20be;" horiz-adv-x="717" 
d="M131 19h140v3q-68 18 -118 65t-76.5 113.5t-26.5 142.5q0 81 26 151.5t78 120t127 67.5v92h20v-87q32 5 60 5q32 0 70 -7v89h20v-95q69 -18 119 -64.5t77 -116t27 -155.5h-20q0 76 -23 141t-68.5 111t-111.5 65v-316h-20v321q-35 8 -70 8q-32 0 -60 -6v-323h-20v319
q-68 -18 -115.5 -64.5t-71.5 -112.5t-24 -143q0 -87 38 -161t108.5 -118t164.5 -44h200v-20h-450v19z" />
    <glyph glyph-name="uni2113" unicode="&#x2113;" horiz-adv-x="500" 
d="M337.5 691q22.5 -30 22.5 -83q0 -70 -41 -155t-116 -172v-180q0 -47 23 -72.5t62 -25.5q23 0 46 10.5t43 30.5l10 -12q-22 -23 -48 -34.5t-53 -11.5q-48 0 -74.5 29.5t-26.5 82.5v167l-62 -72l-11 11l73 83v279q0 45 11.5 80.5t33 55t49.5 19.5q36 0 58.5 -30zM306 463
q37 80 37 142q0 28 -8.5 51t-23.5 35.5t-33 12.5q-21 0 -38.5 -17t-27 -48.5t-9.5 -72.5v-263q66 80 103 160z" />
    <glyph glyph-name="uni2116" unicode="&#x2116;" horiz-adv-x="969" 
d="M84 680l468 -655h2v655h20v-680h-30l-468 655h-2v-655h-20v680h30zM871.5 416.5q33.5 -21.5 51.5 -58t18 -80.5t-18.5 -81t-52 -58t-76.5 -21q-44 0 -77.5 21.5t-51.5 58t-18 80.5q0 45 18.5 81.5t52 57.5t76.5 21q44 0 77.5 -21.5zM683 209q16 -32 45 -51.5t66 -19.5
t66 18.5t45 51t16 70.5q0 37 -16 69t-45 51.5t-67 19.5q-36 0 -65 -18.5t-45 -50.5t-16 -71q0 -37 16 -69zM932 0h-276v20h276v-20z" />
    <glyph glyph-name="trademark" unicode="&#x2122;" horiz-adv-x="990" 
d="M402 694h-150v-392h-20v392h-150v20h320v-20zM530 714l162 -384l162 384h34v-412h-20v392h-2l-164 -392h-20l-164 392h-2v-392h-20v412h34z" />
    <glyph glyph-name="Omega" unicode="&#x2126;" horiz-adv-x="721" 
d="M489.5 706q59.5 -25 106.5 -75q46 -49 70 -114t24 -137q0 -121 -50 -209t-156 -148v-3h196v-20h-237v21q78 41 127.5 91t74 115.5t24.5 151.5q0 70 -22 130.5t-65 107.5t-99 70.5t-122 23.5t-123 -24t-99 -71q-86 -97 -86 -237q0 -86 24.5 -151.5t74 -115.5t127.5 -91
v-21h-237v20h196v3q-106 60 -156 147t-50 210q0 72 24 137t70 114q47 50 106.5 75t128.5 25t128.5 -25z" />
    <glyph glyph-name="partialdiff" unicode="&#x2202;" horiz-adv-x="444" 
d="M288 695q40 -25 66 -73q27 -50 40.5 -113t13.5 -135q0 -173 -54 -281q-53 -106 -155 -106q-35 0 -68 17.5t-56 50.5q-49 70 -49 154q0 42 12.5 81t36.5 69q50 62 132 62q52 0 99 -27.5t81 -76.5l2 69q0 63 -12.5 121t-37.5 103q-51 93 -143 93q-31 0 -57.5 -10t-62.5 -36
l-11 16q35 24 66 35.5t65 11.5q52 0 92 -25zM89 66q44 -63 111 -63q40 0 73.5 23t59.5 67q25 44 38.5 97t13.5 103q-41 57 -85 84t-97 27q-47 0 -83 -26.5t-55 -71.5t-19 -99q0 -76 43 -141z" />
    <glyph glyph-name="Delta" unicode="&#x2206;" horiz-adv-x="575" 
d="M304 714l282 -714h-598l290 714h26zM19 20h537l-264 674h-2z" />
    <glyph glyph-name="product" unicode="&#x220f;" horiz-adv-x="704" 
d="M611 -214h-18v982h-482v-982h-18v1000h518v-1000z" />
    <glyph glyph-name="summation" unicode="&#x2211;" horiz-adv-x="593" 
d="M538 768h-456l326 -478l-341 -486h481v-18h-504v18l341 486l-326 478v18h479v-18z" />
    <glyph glyph-name="minus" unicode="&#x2212;" horiz-adv-x="600" 
d="M552 243h-504v20h504v-20z" />
    <glyph glyph-name="uni2215" unicode="&#x2215;" horiz-adv-x="167" 
d="M333 714l-476 -748h-23l476 748h23z" />
    <glyph glyph-name="uni2219" unicode="&#x2219;" horiz-adv-x="278" 
d="M161.5 363.5q9.5 -8.5 9.5 -23.5q0 -14 -9 -23t-23 -9q-15 0 -23.5 9.5t-8.5 22.5q0 14 9 23t23 9q13 0 22.5 -8.5z" />
    <glyph glyph-name="radical" unicode="&#x221a;" horiz-adv-x="444" 
d="M444 777l-219 -996h-10l-188 386l-44 -21l-6 15l58 28l180 -373l211 962z" />
    <glyph glyph-name="infinity" unicode="&#x221e;" horiz-adv-x="722" 
d="M218.5 356q24.5 -9 58.5 -33t84 -69q68 62 111 86.5t78 24.5q34 0 61 -16t42 -44t15 -63q0 -37 -15 -65.5t-42 -44t-63 -15.5q-34 0 -66 15t-68 48l-16 15l-37 33q-6 -4 -18 -16l-28 -25q-41 -37 -72 -53t-68 -16q-56 0 -88.5 33.5t-32.5 90.5q0 35 16 63t42.5 44
t58.5 16q23 0 47.5 -9zM99 165q27 -29 74 -29q39 0 78.5 23.5t97.5 80.5q-60 56 -103 81.5t-79 25.5q-27 0 -48.5 -14t-34 -38t-12.5 -53q0 -48 27 -77zM471.5 159q40.5 -24 75.5 -24q48 0 75.5 28.5t27.5 78.5q0 30 -12.5 54t-34.5 37.5t-50 13.5q-33 0 -74.5 -24
t-105.5 -82q58 -58 98.5 -82z" />
    <glyph glyph-name="integral" unicode="&#x222b;" horiz-adv-x="537" 
d="M347.5 778.5q10.5 -7.5 10.5 -20.5q0 -9 -7 -15.5t-16 -6.5q-8 0 -13 3.5t-11.5 11.5t-11.5 8q-13 0 -23 -21.5t-16 -63.5t-6 -101v-532l1 -55q0 -102 -22 -151t-65 -49q-14 0 -23 7.5t-9 19.5q0 10 6 16.5t16 6.5q8 0 13.5 -4t12 -11.5t9.5 -7.5q21 0 31.5 47t10.5 110
v610q0 108 22 157t65 49q15 0 25.5 -7.5z" />
    <glyph glyph-name="approxequal" unicode="&#x2248;" horiz-adv-x="600" 
d="M487 312q-34 -20 -75 -20q-27 0 -54 8t-65 27q-36 19 -59 26t-46 7q-71 0 -124 -66l-16 12q34 40 66.5 57t73.5 17q26 0 52 -7.5t63 -26.5q39 -20 61.5 -27t47.5 -7q71 0 124 74l16 -12q-31 -42 -65 -62zM241.5 203q27.5 -8 60.5 -26q33 -17 59 -25.5t51 -8.5
q73 0 124 66l16 -12q-32 -39 -65.5 -56.5t-74.5 -17.5q-53 0 -116 34q-64 34 -108 34q-70 0 -124 -74l-16 12q33 44 66.5 63t73.5 19q26 0 53.5 -8z" />
    <glyph glyph-name="notequal" unicode="&#x2260;" horiz-adv-x="600" 
d="M463 488l-86 -128h175v-20h-189l-116 -174h305v-20h-319l-86 -129l-17 11l79 118h-161v20h174l117 174h-291v20h305l93 139z" />
    <glyph glyph-name="lessequal" unicode="&#x2264;" horiz-adv-x="600" 
d="M552 464l-484 -195l484 -193v-21l-504 203v22l504 205v-21zM552 0h-504v20h504v-20z" />
    <glyph glyph-name="greaterequal" unicode="&#x2265;" horiz-adv-x="600" 
d="M552 258l-504 -203v21l484 193l-484 195v21l504 -205v-22zM552 0h-504v20h504v-20z" />
    <glyph glyph-name="uniFB01" unicode="&#xfb01;" horiz-adv-x="333" 
d="M87 494h-88v20h88v114q0 44 22 65t73 21q18 0 32 -2t17 -2v-20q-29 4 -47 4q-28 0 -44.5 -6t-24.5 -21t-8 -42v-111h111v-20h-111v-494h-20v494zM278 714v-101h-20v101h20zM278 514v-514h-20v514h20z" />
    <glyph glyph-name="uniFB02" unicode="&#xfb02;" horiz-adv-x="333" 
d="M87 494h-88v20h88v114q0 44 22 65t73 21q18 0 32 -2t17 -2v-20q-29 4 -47 4q-28 0 -44.5 -6t-24.5 -21t-8 -42v-111h111v-20h-111v-494h-20v494zM278 714v-714h-20v714h20z" />
    <glyph glyph-name="uniFEFF" unicode="&#xfeff;" horiz-adv-x="0" 
 />
    <glyph glyph-name="glyph176" 
d="M-9 922l125 -144h-15l-139 144h29z" />
    <glyph glyph-name="glyph178" 
d="M171 922l-146 -144h-15l132 144h29z" />
    <glyph glyph-name="glyph180" 
d="M72 922l114 -144h-20l-102 125l-100 -125h-20l113 144h15z" />
    <glyph glyph-name="glyph182" 
d="M-36 922l102 -125l100 125h20l-113 -144h-15l-114 144h20z" />
    <glyph glyph-name="glyph183" 
d="M130 714l-65 -144h-15l51 144h29z" />
    <glyph glyph-name="glyph185" 
d="M33.5 876.5q15.5 -7.5 35.5 -22.5q21 -15 33.5 -21.5t25.5 -6.5q20 0 32 13t17 42h20q-11 -75 -69 -75q-19 0 -33.5 8t-35.5 23q-19 14 -31 20.5t-27 6.5q-20 0 -33 -17t-15 -42h-20q2 20 10.5 38t23.5 29.5t34 11.5q17 0 32.5 -7.5z" />
    <glyph glyph-name="glyph187" 
d="M-3 885v-81h-20v81h20zM153 885v-81h-20v81h20z" />
    <glyph glyph-name="glyph189" 
d="M181 830h-232v20h232v-20z" />
    <glyph glyph-name="glyph191" 
d="M-3.5 840q27.5 -23 65.5 -23q47 0 74.5 23t31.5 64h20q-6 -51 -40.5 -79t-85.5 -28q-47 0 -80 28.5t-40 78.5h20q7 -41 34.5 -64z" />
    <glyph glyph-name="glyph193" 
d="M109 926q20 -12 32 -32t12 -44t-12 -44t-32 -32t-44 -12t-44 12.5t-32 32.5t-12 43q0 24 12 44t32 32t44 12t44 -12zM6 816q9 -16 24.5 -25t34.5 -9q18 0 34 9t25 24.5t9 34.5q0 18 -9.5 33.5t-25 25t-34.5 9.5q-17 0 -32.5 -9t-25 -24.5t-9.5 -34.5q0 -18 9 -34z" />
    <glyph glyph-name="glyph195" 
d="M116 922l-146 -144h-15l132 144h29zM266 922l-146 -144h-15l132 144h29z" />
    <glyph glyph-name="glyph197" 
d="M75 885v-81h-20v81h20z" />
    <glyph glyph-name="uni10D0.case" horiz-adv-x="515" 
d="M141 13.5q-50 30.5 -78 84.5t-28 122q0 67 32 129h20q-15 -29 -23.5 -60t-8.5 -68q0 -61 25.5 -110.5t71.5 -78.5t103 -29t102.5 30t71.5 80.5t26 110.5q0 56 -17 102.5t-41 80.5t-65 82q-31 37 -52.5 69t-34.5 71t-13 85h20q0 -43 12.5 -80t33 -68t51.5 -68
q42 -50 66 -85t42 -83t18 -106q0 -68 -28.5 -123t-78.5 -86.5t-113 -31.5q-64 0 -114 30.5z" />
    <glyph glyph-name="uni10D1.case" horiz-adv-x="540" 
d="M152.5 16q-52.5 33 -82.5 89.5t-30 126.5q0 66 29.5 123t83.5 91t125 34v44q0 27 -7.5 44t-17.5 26t-28 22q-16 12 -26 22.5t-17 29t-7 46.5h20q0 -33 12 -52t34 -34q18 -13 29.5 -23.5t19.5 -28.5t8 -44v-54q55 -7 101.5 -41t73.5 -87.5t27 -117.5q0 -66 -29 -123
t-81.5 -91.5t-119.5 -34.5q-65 0 -117.5 33zM378.5 34q47.5 31 74.5 83.5t27 114.5q0 63 -27.5 115t-76 82.5t-106.5 30.5q-59 0 -107 -30.5t-75.5 -83t-27.5 -114.5q0 -64 27.5 -116.5t75.5 -82.5t108 -30t107.5 31z" />
    <glyph glyph-name="uni10D2.case" horiz-adv-x="551" 
d="M160 13.5q-54 30.5 -87 86t-33 126.5q0 64 29 117t79 86t111 41q43 6 76 23.5t50.5 43t17.5 56.5q0 38 -19.5 65t-51.5 40.5t-69 13.5q-34 0 -66.5 -14t-53.5 -41.5t-21 -65.5h-20q0 46 25 78t62 47t74 15q40 0 76.5 -15t60 -46t23.5 -76q0 -50 -31 -81.5t-90 -46.5v-2
q53 -3 101 -35t78 -85t30 -118q0 -67 -32.5 -123t-86.5 -88t-117 -32q-61 0 -115 30.5zM380.5 32q49.5 29 80 80t30.5 114q0 65 -30.5 116.5t-80.5 80t-105 28.5q-54 0 -103.5 -29t-80.5 -80.5t-31 -115.5q0 -66 31 -117t81 -78.5t104 -27.5q55 0 104.5 29z" />
    <glyph glyph-name="uni10D3.case" horiz-adv-x="823" 
d="M501 64q-36 28 -92 43t-119 15h-143v18h118v2q-51 10 -103.5 47t-89.5 107t-37 172q0 82 22.5 141t63 90.5t94.5 31.5q38 0 70.5 -16t54.5 -48.5t28 -79.5h2q15 46 44.5 78.5t70 49t86.5 16.5q61 0 110.5 -31.5t78 -87t28.5 -123.5q0 -64 -27 -119.5t-76.5 -88.5
t-114.5 -33t-114.5 31.5t-76.5 86.5t-27 123v62q0 50 -18 86.5t-48.5 55t-66.5 18.5q-50 0 -87 -29.5t-57 -84.5t-20 -129q0 -107 44.5 -179t110.5 -108t135 -43q55 -6 103 -24t79.5 -47.5t36.5 -66.5h-20q-7 36 -43 64zM673 298q45 30 70 80.5t25 110.5q0 61 -25.5 112
t-71 80.5t-101.5 29.5q-55 0 -100 -27t-71.5 -77.5t-26.5 -117.5q0 -62 25.5 -112.5t71 -79.5t102.5 -29t102 30z" />
    <glyph glyph-name="uni10D4.case" horiz-adv-x="530" 
d="M144 9q-50 26 -79.5 75t-29.5 115q0 25 7 54t14 42h20q-8 -18 -14.5 -46.5t-6.5 -49.5q0 -59 27 -103.5t73 -68.5t100 -24t99.5 24.5t73 72t27.5 112.5v305q0 53 -24 97.5t-66.5 70.5t-94.5 26q-56 0 -98 -23t-64 -61.5t-22 -84.5q0 -22 9 -54h-20q-9 30 -9 58
q0 51 26 93.5t72.5 67t105.5 24.5q58 0 105 -28.5t73.5 -77.5t26.5 -108v-305q0 -71 -29.5 -123t-79.5 -79t-111 -27t-111 26z" />
    <glyph glyph-name="uni10D5.case" horiz-adv-x="533" 
d="M150.5 8q-52.5 25 -84 74t-31.5 117q0 21 5.5 46t11.5 40h20q-8 -17 -12.5 -41.5t-4.5 -44.5q0 -61 29.5 -105.5t78 -67.5t103.5 -23q54 0 101.5 22t76.5 64t29 99q0 61 -23.5 103t-64.5 63t-94 21h-51v20h51q43 0 78 16.5t55.5 50.5t20.5 85q0 50 -24.5 87.5t-64.5 57
t-87 19.5q-50 0 -92 -21.5t-66.5 -59t-24.5 -83.5q0 -22 6 -46h-20q-6 24 -6 47q0 50 27 92t73.5 66.5t102.5 24.5q53 0 98 -23t71.5 -65t26.5 -96q0 -39 -13.5 -72.5t-41 -57t-67.5 -30.5v-2q41 -4 75.5 -30t54.5 -69.5t20 -97.5q0 -62 -31 -108.5t-83 -71.5t-113 -25
q-63 0 -115.5 25z" />
    <glyph glyph-name="uni10D6.case" horiz-adv-x="586" 
d="M192.5 15.5q-53.5 32.5 -84 89.5t-30.5 128q0 60 23 113.5t76 92.5v2q-48 0 -83.5 18t-54.5 51t-19 76t19.5 76t55 51t80.5 18q42 0 77 -18t55.5 -51t20.5 -76q0 -30 -11.5 -58.5t-36.5 -47.5q13 4 33 4q64 0 117.5 -33t84.5 -90t31 -128q0 -67 -29 -124.5t-82.5 -91.5
t-122.5 -34q-66 0 -119.5 32.5zM244 475.5q29 16.5 47 45.5t18 65t-18 65t-49 45.5t-68 16.5q-39 0 -69.5 -16.5t-48 -45.5t-17.5 -65q0 -60 39 -93.5t105 -33.5q32 0 61 16.5zM422.5 34q48.5 31 76 83.5t27.5 115.5q0 64 -28 116.5t-77 83t-109 30.5t-109 -30.5t-77 -83.5
t-28 -116q0 -65 28 -117.5t77 -82.5t110 -30t109.5 31z" />
    <glyph glyph-name="uni10D7.case" horiz-adv-x="862" 
d="M750 94.5q19 45.5 30.5 103.5t11.5 130v160q0 75 -21.5 125t-58 74t-84.5 24q-39 0 -73.5 -21.5t-54.5 -58t-20 -80.5v-311q0 -85 -28.5 -142.5t-77 -86t-109.5 -28.5t-109.5 28t-77 85.5t-28.5 142.5v236q0 85 28.5 142.5t77.5 85.5t109 28q56 0 98 -21.5t67.5 -54.5
t34.5 -69h2q7 43 31 76t58 51t72 18q52 0 93.5 -25.5t66 -81t24.5 -139.5v-157q0 -104 -23.5 -182.5t-63.5 -145.5h-21q27 49 46 94.5zM363 29q44 26 70.5 80t26.5 133v270q0 55 -24.5 100.5t-69 72t-101.5 26.5q-55 0 -99.5 -27.5t-70 -82t-25.5 -132.5v-226q0 -79 26 -133
t70.5 -80.5t98.5 -26.5t98 26z" />
    <glyph glyph-name="uni10D8.case" horiz-adv-x="540" 
d="M444 157q26 93 26 181v130q0 71 -25 126t-70 86t-104 31t-105 -31t-71 -86t-25 -126v-130q0 -88 26 -181t62 -157h-21q-37 62 -62 153.5t-25 184.5v136q0 78 28.5 136t78.5 89.5t114 31.5q63 0 113 -31.5t78 -89.5t28 -135v-137q0 -93 -25 -184.5t-62 -153.5h-21
q36 64 62 157z" />
    <glyph glyph-name="uni10D9.case" horiz-adv-x="521" 
d="M145 9q-52 26 -83.5 75t-31.5 115q0 21 5.5 46t11.5 40h20q-8 -17 -12.5 -41.5t-4.5 -44.5q0 -61 29 -105.5t76.5 -67.5t102.5 -23q54 0 100.5 24.5t74.5 70.5t28 107q0 58 -26.5 103.5t-69.5 71t-92 25.5h-63v20h63q45 0 80.5 16.5t55.5 47.5t20 72q0 35 -14.5 64.5
t-40 50t-59.5 27.5v21q64 -15 99 -58.5t35 -103.5q0 -39 -16.5 -70.5t-45.5 -51t-66 -24.5v-2q48 -8 84.5 -38t56 -74.5t19.5 -96.5q0 -67 -30 -117.5t-81 -77.5t-112 -27t-113 26z" />
    <glyph glyph-name="uni10DA.case" horiz-adv-x="950" 
d="M615 77.5q-58 29.5 -132.5 42t-135.5 12.5h-200v18h147v2q-59 12 -118 51.5t-100 111.5t-41 172q0 76 19.5 131t56 84t88.5 29q31 0 60 -15t49.5 -43.5t27.5 -66.5h3q6 40 26 68t49 42.5t61 14.5t61 -14.5t49.5 -42.5t26.5 -68h3q7 38 27.5 66.5t49.5 43.5t59 15
q51 0 88 -31.5t56.5 -91t19.5 -141.5q0 -107 -53 -220h-21q24 53 39 109.5t15 110.5q0 75 -17 130t-49.5 84.5t-77.5 29.5q-36 0 -65 -21.5t-46 -58t-17 -80.5v-194h-20v194q0 49 -17 85t-46.5 55.5t-64.5 19.5t-64.5 -19.5t-46.5 -56t-17 -84.5v-194h-20v194q0 44 -17.5 81
t-46.5 58t-64 21q-45 0 -77.5 -27t-49.5 -77.5t-17 -119.5q0 -114 55.5 -189t130.5 -110.5t134 -37.5q50 -2 107 -11t106 -28q47 -18 77.5 -46.5t35.5 -64.5h-20q-8 48 -66 77.5z" />
    <glyph glyph-name="uni10DB.case" horiz-adv-x="548" 
d="M151.5 15q-51.5 32 -81.5 91t-30 136q0 66 29 123t80 90.5t114 33.5q47 0 89 -16.5t73.5 -48.5t44.5 -78h2v156q0 67 -26 114t-69.5 71t-95.5 24q-50 0 -92 -19.5t-68.5 -51.5t-31.5 -69h-20q5 44 34.5 80.5t76.5 58t101 21.5q57 0 105.5 -27t77.5 -76.5t29 -114.5v-272
q0 -77 -30 -135.5t-81.5 -90.5t-114.5 -32q-64 0 -115.5 32zM373.5 33q46.5 30 72.5 84.5t26 124.5q0 69 -27 120.5t-75 79t-108 27.5q-57 0 -103 -31.5t-72.5 -83.5t-26.5 -112q0 -70 26.5 -124.5t73.5 -84.5t107 -30t106.5 30z" />
    <glyph glyph-name="uni10DC.case" horiz-adv-x="548" 
d="M77 346q13 45 44.5 77.5t74.5 49t89 16.5q63 0 114 -33.5t80 -90.5t29 -123q0 -77 -30 -136t-81.5 -91t-115.5 -32q-63 0 -114.5 32t-81.5 90.5t-30 135.5v318q0 83 41.5 119t128.5 36h229v-20h-229q-51 0 -84 -13t-49.5 -43t-16.5 -81v-211h2zM388 33q47 30 73.5 84.5
t26.5 124.5q0 60 -26.5 112t-72.5 83.5t-103 31.5q-60 0 -108 -27.5t-75.5 -79t-27.5 -120.5q0 -70 26.5 -124.5t73 -84.5t106.5 -30t107 30z" />
    <glyph glyph-name="uni10DD.case" horiz-adv-x="744" 
d="M649.5 149.5q24.5 79.5 24.5 178.5v160q0 75 -20 125t-54.5 74t-78.5 24q-40 0 -71.5 -22t-49.5 -60.5t-18 -87.5v-324h-20v324q0 49 -18 87.5t-49 60.5t-71 22q-45 0 -80 -25t-54.5 -76t-19.5 -127v-155q0 -98 24.5 -180t62.5 -148h-21q-40 68 -63 148t-23 180v156
q0 83 21.5 138.5t60.5 82t91 26.5q34 0 65.5 -15.5t53.5 -45t29 -68.5h3q7 39 29 68.5t53 45t65 15.5q80 0 126.5 -60t46.5 -186v-157q0 -104 -23.5 -182.5t-63.5 -145.5h-21q39 70 63.5 149.5z" />
    <glyph glyph-name="uni10DE.case" horiz-adv-x="503" 
d="M137 8.5q-50 25.5 -78.5 70.5t-28.5 101q0 30 10 63h20q-10 -35 -10 -60q0 -52 25.5 -93t71 -64t101.5 -23q55 0 99.5 23t70 63.5t25.5 90.5q0 55 -24.5 97.5t-63 65.5t-80.5 23h-64v20h73q41 0 69 13t41.5 34.5t13.5 46.5q0 29 -13 50t-33 34.5t-52 30.5
q-36 18 -56.5 31.5t-37 35t-20.5 52.5h20q5 -27 20.5 -45.5t35 -31t53.5 -29.5t54.5 -32t34.5 -38.5t14 -57.5q0 -40 -26.5 -68.5t-72.5 -36.5v-2q28 -7 59.5 -31t53 -65.5t21.5 -96.5q0 -56 -28 -101t-77.5 -70.5t-109.5 -25.5q-61 0 -111 25.5z" />
    <glyph glyph-name="uni10DF.case" horiz-adv-x="535" 
d="M152 6q-50 23 -81 71t-31 118q0 18 4 39.5t9 35.5h20q-5 -15 -9 -37.5t-4 -37.5q0 -63 28.5 -106t74.5 -64.5t97 -21.5q52 0 97.5 21.5t74 70.5t28.5 127v479l-285 -42v-2q30 -7 54.5 -25.5t38.5 -45t14 -56.5q0 -40 -21 -70t-59.5 -46t-89.5 -16h-71v19h71
q45 0 78.5 13.5t52.5 39t19 60.5q0 39 -23 66.5t-58 41t-69 13.5v18l333 49h35v-496q0 -84 -30.5 -137.5t-80 -77.5t-109.5 -24q-58 0 -108 23z" />
    <glyph glyph-name="uni10E0.case" horiz-adv-x="694" 
d="M634 255q0 63 -18 111t-51 74t-77 26q-35 0 -65.5 -20t-48 -55t-17.5 -76v-166h-20v166q0 42 -17 76.5t-46.5 54.5t-64.5 20q-38 0 -71.5 -22t-54.5 -69t-21 -117t16.5 -136t48.5 -122h-21q-36 62 -51 128t-15 166q0 119 32.5 193.5t89 112.5t137.5 53l88 16q77 14 91 45
h21q-6 -27 -38 -42.5t-81 -24.5l-83 -15q-73 -13 -121 -47t-75.5 -88t-39.5 -130h3q11 40 34.5 67t52.5 39.5t58 12.5q30 0 58 -14t49 -41t30 -64h3q10 37 31 64t49.5 41t58.5 14q49 0 86.5 -27.5t58.5 -79t21 -121.5q0 -75 -16.5 -137.5t-50.5 -120.5h-21q68 123 68 255z
" />
    <glyph glyph-name="uni10E1.case" horiz-adv-x="532" 
d="M166 11q-51 28 -81 83t-30 135v485h20v-484q0 -73 27.5 -124t74 -77t102.5 -26q53 0 98.5 22.5t72.5 61t27 82.5q0 40 -11 70.5t-28.5 52.5t-43.5 46q-27 25 -43 42t-29 40t-18 52h21q6 -25 18.5 -46t27 -36.5t39.5 -39.5q28 -27 45.5 -49.5t29.5 -55t12 -76.5
q0 -52 -30 -94.5t-80 -67t-108 -24.5q-62 0 -113 28z" />
    <glyph glyph-name="uni10E2.case" horiz-adv-x="650" 
d="M177 28q-65 45 -101 127t-36 189q0 105 34.5 185.5t96 126.5t140.5 50h5q-1 7 -1 35h20q0 -28 -1 -35h5q79 -3 140.5 -48.5t96 -126.5t34.5 -187q0 -108 -36 -190t-101 -126.5t-148 -44.5t-148 45zM463 47q60 44 93.5 122t33.5 175q0 95 -32 172t-89.5 122.5t-130.5 48.5
h-5q2 -72 2 -108v-235h-20v238q0 35 2 105h-5q-73 -4 -130.5 -49.5t-89.5 -122.5t-32 -171q0 -97 33.5 -174.5t94 -122t137.5 -44.5q78 0 138 44z" />
    <glyph glyph-name="uni10E3.case" horiz-adv-x="555" 
d="M155.5 7q-52.5 24 -84 73t-31.5 119q0 25 7 54t14 42h20q-8 -18 -14.5 -46.5t-6.5 -49.5q0 -63 29.5 -107.5t77.5 -66.5t103 -22q56 0 103.5 23.5t77 72.5t29.5 123v332q0 45 -15 80.5t-43.5 56t-67.5 20.5q-36 0 -63 -18.5t-41.5 -50.5t-14.5 -71v-110h-20v110
q0 61 -25.5 98t-76.5 37h-66v20h58q53 0 82 -23.5t37 -70.5h4q10 46 46 72.5t84 26.5q40 0 72 -20.5t51 -59t19 -89.5v-340q0 -80 -31.5 -133.5t-83.5 -79.5t-115 -26q-62 0 -114.5 24z" />
    <glyph glyph-name="uni10E4.case" horiz-adv-x="768" 
d="M335 -1q-54 16 -91 53.5t-44 97.5h21q7 -53 41.5 -86t84 -47t102.5 -14q57 0 111 18t89 57t35 97q0 42 -19 78.5t-54 58t-80 21.5h-28v20h45q44 0 81 24t58 65t21 91q0 57 -19 97t-52.5 60.5t-76.5 20.5q-38 0 -71 -19.5t-53 -56t-20 -84.5v-42q0 -64 -23 -114.5
t-67 -78.5t-104 -28q-61 0 -104.5 28.5t-65.5 78.5t-22 114q0 67 24 117.5t67.5 77.5t99.5 27q42 0 79.5 -15.5t64 -46.5t36.5 -75h3q6 43 29 74t56 47t71 16q50 0 87.5 -23t59 -67.5t21.5 -107.5q0 -49 -18 -89t-48 -66t-65 -35v-3q50 -20 78.5 -64t28.5 -102
q0 -65 -37 -108t-95 -63t-123 -20q-60 0 -114 16zM313.5 332q39.5 24 61 69.5t21.5 107.5q0 67 -22.5 112.5t-61.5 67.5t-90 22q-52 0 -91 -25t-60 -70.5t-21 -106.5q0 -60 20.5 -105.5t59 -70.5t91.5 -25t92.5 24z" />
    <glyph glyph-name="uni10E5.case" horiz-adv-x="520" 
d="M140 6.5q-49 23.5 -77 70t-28 112.5q0 12 2 28t6 27h20q-3 -13 -5.5 -29t-2.5 -26q0 -59 26 -101t70 -63.5t99 -21.5t99 21.5t70 66.5t26 111v154q0 69 -26 122.5t-70 83t-96 29.5q-48 0 -86.5 -20.5t-60 -57t-21.5 -82.5q0 -19 6 -43h-20q-6 22 -6 43q0 53 25 94
t67.5 63.5t92.5 22.5q48 0 87.5 -20.5t66.5 -54.5t39 -75h2v253h20v-512q0 -73 -28 -122t-76.5 -73t-110.5 -24q-61 0 -110 23.5z" />
    <glyph glyph-name="uni10E6.case" horiz-adv-x="714" 
d="M432 89.5q-49 32.5 -129 32.5h-171v18h132v3q-56 11 -109 54.5t-86.5 113.5t-33.5 157q0 77 22 137t61.5 93t90.5 33q55 0 94 -32.5t53 -92.5h3q16 61 53.5 93t92.5 32q51 0 90.5 -30.5t61.5 -87.5t22 -135q0 -61 -10.5 -112.5t-32.5 -98.5h-21q44 97 44 211
q0 69 -19.5 122t-54.5 82t-80 29q-39 0 -70.5 -21.5t-49.5 -58t-18 -80.5v-194h-20v194q0 46 -18 82.5t-49 57t-71 20.5q-45 0 -80 -31.5t-54.5 -87t-19.5 -124.5q0 -105 45 -177.5t111 -109.5t129 -43q52 -4 89 -24t58 -49.5t25 -64.5h-20q-11 57 -60 89.5z" />
    <glyph glyph-name="uni10E7.case" horiz-adv-x="542" 
d="M163.5 2.5q-50.5 19.5 -82 61t-31.5 102.5q0 18 5 43h20q-4 -19 -4 -40q0 -55 27.5 -92.5t73 -55.5t100.5 -18t99 21.5t70 66.5t26 114v223h-2q-13 -41 -43 -72.5t-72 -49t-90 -17.5q-57 0 -107.5 27.5t-81.5 78.5t-31 118q0 61 18.5 113t44.5 88h21q-26 -37 -45 -89.5
t-19 -111.5q0 -60 28.5 -106.5t75 -72t96.5 -25.5q56 0 104 28t75.5 75t27.5 103v199h20v-509q0 -78 -29 -127.5t-77 -72t-109 -22.5q-58 0 -108.5 19.5z" />
    <glyph glyph-name="uni10E8.case" horiz-adv-x="548" 
d="M151 14q-52 31 -81.5 88.5t-29.5 134.5q0 66 29 121.5t79.5 88t114.5 32.5q72 0 127 -33t81 -100h2v217q0 44 -15 77.5t-42.5 52t-65.5 18.5q-31 0 -57.5 -15.5t-42 -40.5t-15.5 -53v-36h-20v36q0 29 -13.5 52.5t-38.5 37.5t-57 14h-49v20h51q43 0 75.5 -22t40.5 -57h2
q9 26 29 45t46.5 29t52.5 10q39 0 70.5 -19t50 -55.5t18.5 -85.5v-335q0 -77 -30 -134t-81.5 -88t-114.5 -31q-64 0 -116 31zM373.5 32q46.5 29 73 82t26.5 123q0 69 -27.5 119t-75 76.5t-107.5 26.5q-58 0 -104 -30t-72.5 -81t-26.5 -111q0 -70 26.5 -123t73.5 -82t107 -29
t106.5 29z" />
    <glyph glyph-name="uni10E9.case" horiz-adv-x="536" 
d="M142.5 687.5q-33.5 -23.5 -50.5 -64t-17 -90.5v-194h2q12 46 43.5 80t74 52t88.5 18q59 0 107.5 -29.5t77 -84.5t28.5 -129q0 -68 -19.5 -126.5t-55.5 -119.5h-20q36 64 55.5 123t19.5 123q0 68 -26.5 118.5t-70.5 77.5t-96 27q-59 0 -106.5 -29.5t-74.5 -82.5t-27 -121
v-236h-20v535q0 55 19.5 99.5t57 70.5t90.5 26q56 0 94 -25.5t56.5 -68t18.5 -94.5h-20q0 46 -16.5 84t-50 61t-82.5 23q-46 0 -79.5 -23.5z" />
    <glyph glyph-name="uni10EA.case" horiz-adv-x="585" 
d="M175 25q-62 42 -98.5 124.5t-36.5 198.5q0 80 16 146t41 117.5t59 102.5h21q-52 -76 -84.5 -166t-32.5 -200q0 -109 35 -187.5t93 -118t126 -39.5q62 0 110 24.5t74.5 68t26.5 99.5q0 51 -23.5 94.5t-65.5 69.5t-95 26h-63v20h85q42 0 73.5 12.5t49 35t17.5 51.5
q0 25 -9.5 45t-23.5 35t-38 36q-30 27 -46.5 47t-23.5 47h20q7 -23 23 -41.5t43 -41.5q25 -21 39.5 -37t25 -38.5t10.5 -51.5q0 -44 -30.5 -73t-79.5 -39v-2q38 -11 68.5 -39.5t47 -69t16.5 -86.5q0 -62 -28.5 -110t-81 -75t-121.5 -27q-77 0 -139 42z" />
    <glyph glyph-name="uni10EB.case" horiz-adv-x="548" 
d="M151.5 15q-51.5 32 -81.5 91t-30 136q0 66 29 123t80 90.5t114 33.5q46 0 89 -16.5t74.5 -49t44.5 -77.5h2v368h20v-473q0 -77 -30 -135.5t-81.5 -90.5t-114.5 -32q-64 0 -115.5 32zM373.5 33q46.5 30 73 84.5t26.5 124.5q0 69 -27.5 120.5t-75.5 79t-108 27.5
q-57 0 -103 -31.5t-72.5 -83.5t-26.5 -112q0 -70 26.5 -124.5t73.5 -84.5t107 -30t106.5 30z" />
    <glyph glyph-name="uni10EC.case" horiz-adv-x="548" 
d="M166.5 14q-51.5 31 -81.5 88t-30 134v335q0 49 18.5 85.5t50 55.5t70.5 19q26 0 52.5 -10t46.5 -29t29 -45h2q8 35 40.5 57t75.5 22h51v-20h-49q-32 0 -57 -14t-38.5 -37.5t-13.5 -52.5v-36h-20v36q0 28 -15.5 53t-42 40.5t-57.5 15.5q-38 0 -65.5 -18.5t-42.5 -52
t-15 -77.5v-217h2q26 67 81 100t127 33q64 0 114.5 -32.5t79.5 -88t29 -121.5q0 -77 -29.5 -134.5t-81.5 -88.5t-116 -31q-63 0 -114.5 31zM388 32q47 29 73.5 82t26.5 123q0 60 -26.5 111t-72.5 81t-104 30q-60 0 -107.5 -26.5t-75 -76.5t-27.5 -119q0 -70 26.5 -123
t73 -82t106.5 -29t107 29z" />
    <glyph glyph-name="uni10ED.case" horiz-adv-x="584" 
d="M141 7q-49 24 -77.5 71t-28.5 113q0 10 2.5 25.5t6.5 27.5h20q-3 -13 -5 -28t-2 -27q0 -59 25.5 -101t69.5 -63.5t99 -21.5t99 21.5t70 66.5t26 111v228h-2q-22 -55 -76.5 -84t-123.5 -29q-47 0 -88 16.5t-66.5 49.5t-25.5 80t25 78t66 45t89 14h202v111h20v-111h103v-19
h-103v-379q0 -73 -28 -122t-76.5 -73t-110.5 -24q-61 0 -110 24zM343 356.5q45 19.5 74 61t29 103.5v60h-196q-72 0 -119 -29.5t-47 -88.5q0 -40 22.5 -68.5t60 -43t83.5 -14.5q48 0 93 19.5z" />
    <glyph glyph-name="uni10EE.case" horiz-adv-x="548" 
d="M166.5 15q-51.5 32 -81.5 90.5t-30 135.5v473h20v-368h2q13 45 44.5 77.5t74.5 49t89 16.5q63 0 114 -33.5t80 -90.5t29 -123q0 -77 -30 -136t-81.5 -91t-115.5 -32q-63 0 -114.5 32zM388 33q47 30 73.5 84.5t26.5 124.5q0 60 -26.5 112t-72.5 83.5t-103 31.5
q-60 0 -108 -27.5t-75.5 -79t-27.5 -120.5q0 -70 26.5 -124.5t73 -84.5t106.5 -30t107 30z" />
    <glyph glyph-name="uni10EF.case" horiz-adv-x="512" 
d="M148 8q-51 25 -82 73t-31 114q0 16 3 35t6 30h20q-3 -10 -6 -29t-3 -36q0 -62 29 -105.5t75.5 -65t96.5 -21.5t96.5 23t75.5 68.5t29 110.5q0 62 -27 110t-72.5 75t-98.5 27h-18v164h-192v19h192v121h20v-121h201v-19h-201v-144q59 -2 108.5 -31t78.5 -81t29 -120
q0 -69 -31 -119.5t-82 -76.5t-108 -26t-108 25z" />
    <glyph glyph-name="uni10F0.case" horiz-adv-x="502" 
d="M139 0q-49 17 -79 52t-30 86q0 26 9 57h20q-8 -30 -8 -51q0 -48 27.5 -80t71.5 -47t95 -15q53 0 98 14.5t72.5 46t27.5 80.5q0 41 -20 70.5t-53.5 44t-73.5 14.5h-109v20h120q51 0 81 19.5t30 57.5q0 40 -30.5 62t-80.5 22h-120v20h115q57 0 82 19.5t25 50.5
q0 24 -14.5 40.5t-36 26.5t-56.5 22t-55.5 20.5t-37 23t-22.5 35.5h20q9 -22 34 -35t70 -28q39 -13 62.5 -24.5t39.5 -31.5t16 -50q0 -28 -17.5 -49t-55.5 -29v-2q37 -5 59.5 -31t22.5 -62t-22 -58.5t-60 -28.5v-2q49 -12 77.5 -46.5t28.5 -90.5q0 -53 -29.5 -89
t-78.5 -53.5t-109 -17.5q-57 0 -106 17z" />
    <glyph glyph-name="uni10F1.case" horiz-adv-x="574" 
d="M190.5 23q-66.5 40 -108.5 123t-42 205q0 112 30.5 200.5t80.5 162.5h20q-47 -70 -79 -163t-32 -200q0 -116 40 -194.5t102.5 -116t129.5 -37.5q54 0 95 18t64 50t23 72q0 45 -21.5 74t-54.5 42t-69 13h-102v20h112q51 0 80.5 19.5t29.5 57.5q0 40 -30.5 62t-79.5 22
h-112v20h106q59 0 83 20.5t24 50.5q0 22 -7.5 37.5t-19.5 25.5t-32 23q-21 14 -32.5 23t-23.5 24.5t-19 36.5h19q10 -23 26 -38t41 -31q23 -14 36.5 -26t22.5 -30.5t9 -45.5q0 -28 -17.5 -50t-55.5 -28v-2q37 -6 60 -32t23 -62t-22.5 -58t-60.5 -29v-2q50 -12 78.5 -47
t28.5 -90q0 -46 -24.5 -82t-70.5 -57t-107 -21q-75 0 -141.5 40z" />
    <glyph glyph-name="uni10F2.case" horiz-adv-x="540" 
d="M368 14q-50 14 -98 41q-48 -27 -98 -41t-97 -14v20q42 0 87.5 12t87.5 34v2q-95 59 -152.5 156t-57.5 231q0 81 30.5 144t83 97.5t116.5 34.5t116.5 -34.5t83 -97.5t30.5 -144q0 -134 -57.5 -231t-152.5 -156v-2q42 -22 87.5 -34t87.5 -12v-20q-47 0 -97 14zM422.5 229.5
q57.5 95.5 57.5 225.5q0 74 -28 132.5t-76.5 91t-105.5 32.5t-105.5 -32.5t-76.5 -91t-28 -132.5q0 -130 57.5 -225.5t152.5 -153.5q95 58 152.5 153.5z" />
    <glyph glyph-name="uni10F3.case" horiz-adv-x="531" 
d="M151.5 7q-52.5 24 -84.5 73t-32 119q0 21 5.5 46t11.5 40h20q-8 -17 -12.5 -41.5t-4.5 -44.5q0 -63 29.5 -107.5t77.5 -66.5t104 -22q54 0 101 24.5t75.5 70.5t28.5 107q0 54 -23 97.5t-61 68t-82 24.5h-65v20h65q43 0 75 19t48.5 50.5t16.5 67.5v139h-364v20h384v-158
q0 -50 -27 -91t-79 -56v-2q40 -10 70 -39.5t46 -71t16 -88.5q0 -69 -30.5 -119.5t-81.5 -76.5t-113 -26t-114.5 24z" />
    <glyph glyph-name="uni10F4.case" horiz-adv-x="531" 
d="M151.5 7q-52.5 24 -84.5 73t-32 119q0 21 5.5 46t11.5 40h20q-8 -17 -12.5 -41.5t-4.5 -44.5q0 -63 29.5 -107.5t77.5 -66.5t104 -22q55 0 101.5 20.5t75 63t28.5 103.5q0 48 -24.5 87.5t-65 61.5t-84.5 22h-57v20h65q43 0 75 19t48.5 50.5t16.5 67.5v73h-217
q-50 0 -82 18t-46.5 47.5t-14.5 64.5h20q0 -48 31 -79t92 -31h237v-92q0 -50 -26.5 -90.5t-79.5 -55.5v-3q37 -11 67 -36.5t47.5 -63t17.5 -80.5q0 -64 -30.5 -111t-82 -71.5t-112.5 -24.5q-62 0 -114.5 24z" />
    <glyph glyph-name="uni10F5.case" horiz-adv-x="588" 
d="M135 0.5q-44 17.5 -69.5 51.5t-25.5 82t24.5 81t66.5 49.5t93 16.5h206v162h-206q-52 0 -93.5 15t-66 47t-24.5 80t25.5 81t69.5 49t100 16q52 0 100.5 -16t81.5 -56t33 -108v-88h123v-20h-123v-162h123v-20h-123v-98q0 -68 -33 -108t-81.5 -56t-100.5 -16
q-56 0 -100 17.5zM430 551q0 55 -27.5 91t-70 52.5t-91.5 16.5q-84 0 -132.5 -32.5t-48.5 -93.5q0 -40 22 -67.5t58 -41t78 -13.5h212v88zM332.5 19.5q42.5 16.5 70 52.5t27.5 91v98h-212q-42 0 -78 -14.5t-58 -43.5t-22 -69q0 -41 22.5 -70.5t63 -45t95.5 -15.5
q49 0 91.5 16.5z" />
    <glyph glyph-name="uni10F6.case" horiz-adv-x="711" 
d="M240 20h15q38 0 56.5 7.5t25.5 26t7 55.5v92q-92 0 -161 31.5t-106 90.5t-37 140q0 78 38.5 134.5t107 86.5t158.5 31v26h20v-26q91 -1 160.5 -30.5t108 -85.5t38.5 -134q0 -82 -39 -141.5t-108.5 -90.5t-159.5 -32v-99q0 -39 -11.5 -61t-35 -31t-64.5 -10h-13v20z
M195.5 667.5q-64.5 -27.5 -100 -80t-35.5 -124.5q0 -76 36 -130.5t100 -83t148 -28.5v475q-84 -1 -148.5 -28.5zM513 250.5q65 28.5 101.5 83t36.5 131.5q0 74 -37 125.5t-102 77.5t-148 28v-475q84 1 149 29.5z" />
    <glyph glyph-name="uni10F7.case" horiz-adv-x="551" 
d="M344 716.5q37 -14.5 60.5 -45t23.5 -74.5q0 -46 -24.5 -77t-59.5 -49.5t-95 -43.5q-58 -24 -97.5 -50.5t-65.5 -70.5t-26 -111q0 -56 31 -100t81 -68t104 -24q58 0 107 24t78.5 67.5t29.5 100.5q0 32 -7 58.5t-16 41.5h21q8 -14 15 -42t7 -58q0 -65 -32.5 -113
t-86.5 -73.5t-117 -25.5q-61 0 -115 25.5t-87 74t-33 112.5q0 72 28 120t70 75.5t103 53.5q57 24 89.5 41t55 44.5t22.5 66.5q0 37 -19.5 63t-51.5 39t-69 13q-35 0 -67.5 -14.5t-53 -41.5t-20.5 -64h-20q0 46 25 78t62 47t74 15q39 0 76 -14.5z" />
    <glyph glyph-name="uni10F8.case" horiz-adv-x="542" 
d="M161.5 7.5q-48.5 24.5 -77.5 74t-29 123.5v509h20v-199q0 -56 27.5 -103t75.5 -75t104 -28q50 0 96.5 25.5t75 72t28.5 106.5q0 59 -19 111.5t-45 89.5h21q26 -36 44.5 -88t18.5 -113q0 -67 -31 -118t-81.5 -78.5t-107.5 -27.5q-48 0 -90 17.5t-72 49t-43 72.5h-2v-223
q0 -64 26 -110t70.5 -69t98.5 -23t101 18.5t75.5 54t28.5 83.5q0 28 -8 50h20q8 -22 8 -50q0 -56 -31 -96t-82.5 -60t-111.5 -20t-108.5 24.5z" />
    <glyph glyph-name="uni10F9.case" horiz-adv-x="551" 
d="M389 700.5q54 -30.5 87 -86t33 -126.5q0 -64 -29 -117t-79 -86t-111 -41q-43 -6 -76 -23.5t-50.5 -43t-17.5 -56.5q0 -38 19.5 -65t51.5 -40.5t69 -13.5q34 0 66.5 14t53.5 41.5t21 65.5h20q0 -46 -25 -78t-62 -47t-74 -15q-40 0 -76.5 15t-60 46t-23.5 76q0 50 31 81.5
t90 46.5v2q-53 3 -101 35t-78 85t-30 118q0 67 32.5 123t86.5 88t117 32q61 0 115 -30.5zM168.5 682q-49.5 -29 -80 -80t-30.5 -114q0 -65 30.5 -116.5t80.5 -80t105 -28.5q54 0 103.5 29t80.5 80.5t31 115.5q0 66 -31 117t-81 78.5t-104 27.5q-55 0 -104.5 -29z" />
    <glyph glyph-name="uni10FA.case" horiz-adv-x="530" 
d="M366 64.5q-26 27.5 -65.5 42.5t-84.5 15h-108v18h112v2q-47 20 -87 58t-66.5 100.5t-26.5 148.5q0 94 30.5 157.5t81.5 94t113 30.5q63 0 113.5 -30.5t81 -94t30.5 -158.5q0 -32 -5.5 -63.5t-12.5 -55t-12 -32.5h-20q11 23 20.5 64t9.5 87q0 87 -28 146.5t-74.5 88
t-102.5 28.5q-55 0 -101.5 -29t-75 -88t-28.5 -145q0 -94 36.5 -161.5t89.5 -105.5t106 -51q33 -8 60.5 -28t45 -47t20.5 -56h-20q-6 37 -32 64.5z" />
    <glyph glyph-name="uni10FD.case" horiz-adv-x="601" 
d="M552 514h-20q-4 98 -62.5 147.5t-169.5 49.5q-66 0 -116.5 -18.5t-79 -55.5t-28.5 -90q0 -41 16.5 -70.5t57 -51.5t111.5 -37q67 -14 161 -41q76 -21 110 -61.5t34 -110.5q0 -61 -34 -104.5t-91.5 -65.5t-126.5 -22q-89 0 -151.5 28.5t-95 83t-32.5 132.5v10h20
q0 -117 65.5 -175.5t193.5 -58.5q67 0 119.5 20.5t82.5 59.5t30 93q0 61 -31 95.5t-79 51t-137 35.5q-91 19 -135 37t-66 41q-22 22 -32 48t-10 63q0 60 30.5 101t85.5 62t128 21q240 0 252 -217z" />
    <glyph glyph-name="uni10FE.case" horiz-adv-x="540" 
d="M153.5 17.5q-52.5 34.5 -83 97.5t-30.5 144q0 134 57.5 231t152.5 156v2q-42 22 -87.5 34t-87.5 12v20q47 0 97 -14t98 -41q48 27 98 41t97 14v-20q-42 0 -87.5 -12t-87.5 -34v-2q95 -59 152.5 -156t57.5 -231q0 -81 -30.5 -144t-83 -97.5t-116.5 -34.5t-116.5 34.5z
M375.5 35.5q48.5 32.5 76.5 91t28 132.5q0 130 -57.5 225.5t-152.5 153.5q-95 -58 -152.5 -153.5t-57.5 -225.5q0 -74 28 -132.5t76.5 -91t105.5 -32.5t105.5 32.5z" />
    <glyph glyph-name="uni10FF.case" horiz-adv-x="658" 
d="M183 27.5q-66 44.5 -104.5 129t-38.5 200.5q0 110 36.5 195t102 132t150.5 47q81 0 146.5 -42.5t104 -127t38.5 -204.5t-40 -204.5t-106 -127t-143 -42.5q-80 0 -146 44.5zM463 44q61 41 98 121t37 192q0 107 -35 187.5t-96.5 123.5t-138.5 43q-75 0 -136 -43
t-96.5 -123.5t-35.5 -187.5q0 -105 34.5 -185.5t95.5 -124.5t139 -44q73 0 134 41z" />
    <glyph glyph-name="uni10FB.case" horiz-adv-x="444" 
d="M149 608v-98h-20v98h20zM379 401v-98h-20v98h20zM149 192v-98h-20v98h20z" />
    </font>
</defs>
</svg>
