<?xml version="1.0" standalone="no"?>
<!DOCTYPE svg PUBLIC "-//W3C//DTD SVG 1.1//EN" "http://www.w3.org/Graphics/SVG/1.1/DTD/svg11.dtd" >
<svg xmlns="http://www.w3.org/2000/svg" xmlns:xlink="http://www.w3.org/1999/xlink" version="1.1">
<metadata>
Created by FontForge 20190801 at Thu Dec 10 14:25:57 2020
 By root
Copyright (c) 2020 by Muhittin Gu:nes. All rights reserved.
</metadata>
<defs>
<font id="Ranua-Medium" horiz-adv-x="597" >
  <font-face 
    font-family="Ranua Medium"
    font-weight="500"
    font-stretch="normal"
    units-per-em="1000"
    panose-1="0 0 6 0 0 0 0 0 0 0"
    ascent="800"
    descent="-200"
    x-height="505"
    cap-height="700"
    bbox="-738 -224 1484 919"
    underline-thickness="50"
    underline-position="-100"
    unicode-range="U+0020-25CF"
  />
<missing-glyph horiz-adv-x="480" 
d="M394 -210h-305v960h305v-960zM161 686v-32h63v-36h-64v-31h160v31h-64v36h64v32h-159zM160 562v-100h160v33h-64v67h-96zM224 495h-32v34h32v-34zM160 436v-32h64v-35h-64v-32h96v67h64v32h-160zM288 378v-63h-128v-33h160v96h-32zM224 261v-53h32v22h32v-45h-96v76h-32
v-108h160v108h-96zM160 95v-108h160v108h-160zM288 18h-96v46h96v-46zM160 -35v-32h68l-68 -45v-32h160v32h-98l67 45h31v32h-160z" />
    <glyph glyph-name="f_f" unicode="ff" horiz-adv-x="830" 
d="M669.5 605.5q-14.5 -15.5 -14.5 -49.5v-51h136v-96h-136v-409h-123v409h-49v-1h-155v1h-83v-409h-123v409h-98v96h98v63q0 76 37.5 111.5t104.5 35.5q60 0 118 -23v-90q-41 19 -77 19q-30 0 -45 -16t-15 -49v-51h287v63q0 76 37.5 111.5t103.5 35.5q60 0 118 -23v-90
q-41 19 -77 19q-30 0 -44.5 -15.5z" />
    <glyph glyph-name="f_f_i" unicode="ffi" horiz-adv-x="1072" 
d="M1003 0h-128v409h-220v-409h-123v409h-49v-1h-155v1h-83v-409h-123v409h-98v96h98v63q0 76 37.5 111.5t104.5 35.5q60 0 118 -23v-90q-41 19 -77 19q-30 0 -45 -16t-15 -49v-51h287v63q0 76 37.5 111.5t103.5 35.5q60 0 118 -23v-90q-41 19 -77 19q-30 0 -44.5 -15.5
t-14.5 -49.5v-51h348v-505zM865 700h148v-135h-148v135z" />
    <glyph glyph-name="f_f_l" unicode="ffl" horiz-adv-x="1126" 
d="M1094 97v-97h-67q-75 0 -108.5 40.5t-33.5 127.5v317q0 129 -121 129q-49 0 -81.5 -19.5t-32.5 -62.5v-27h132v-96h-132v-409h-123v409h-44v-1h-155v1h-83v-409h-123v409h-98v96h98v63q0 76 37.5 111.5t104.5 35.5q60 0 118 -23v-90q-41 19 -77 19q-30 0 -45 -16t-15 -49
v-51h282v33q0 87 67 128.5t170 41.5q249 0 249 -244v-294q0 -36 14 -54.5t46 -18.5h21z" />
    <glyph glyph-name="f_i" unicode="fi" horiz-adv-x="663" 
d="M593 0h-128v409h-220v-409h-123v409h-98v96h98v63q0 76 37.5 111.5t104.5 35.5q60 0 118 -23v-90q-41 19 -77 19q-30 0 -45 -16t-15 -49v-51h348v-505zM455 700h148v-135h-148v135z" />
    <glyph glyph-name="f_l" unicode="fl" horiz-adv-x="721" 
d="M622 115.5q14 -18.5 46 -18.5h21v-97h-67q-75 0 -108.5 40.5t-33.5 127.5v317q0 129 -121 129q-49 0 -81.5 -19.5t-32.5 -62.5v-27h132v-96h-132v-409h-123v409h-98v96h98v33q0 87 67 128.5t170 41.5q249 0 249 -244v-294q0 -36 14 -54.5z" />
    <glyph glyph-name=".notdef" horiz-adv-x="480" 
d="M394 -210h-305v960h305v-960zM161 686v-32h63v-36h-64v-31h160v31h-64v36h64v32h-159zM160 562v-100h160v33h-64v67h-96zM224 495h-32v34h32v-34zM160 436v-32h64v-35h-64v-32h96v67h64v32h-160zM288 378v-63h-128v-33h160v96h-32zM224 261v-53h32v22h32v-45h-96v76h-32
v-108h160v108h-96zM160 95v-108h160v108h-160zM288 18h-96v46h96v-46zM160 -35v-32h68l-68 -45v-32h160v32h-98l67 45h31v32h-160z" />
    <glyph glyph-name="space" unicode=" " horiz-adv-x="310" 
 />
    <glyph glyph-name="A" unicode="A" horiz-adv-x="705" 
d="M550 0l-62 160h-272l-62 -160h-140l268 700h140l268 -700h-140zM445 272l-35 90q-23 61 -33 101t-13 75l-2 20h-20l-2 -20q-3 -36 -13 -76t-33 -99l-35 -91h186z" />
    <glyph glyph-name="Aacute" unicode="&#xc1;" horiz-adv-x="705" 
d="M550 0l-62 160h-272l-62 -160h-140l268 700h140l268 -700h-140zM445 272l-35 90q-23 61 -33 101t-13 75l-2 20h-20l-2 -20q-3 -36 -13 -76t-33 -99l-35 -91h186zM371 895h136l-112 -136h-79z" />
    <glyph glyph-name="Abreve" unicode="&#x102;" horiz-adv-x="705" 
d="M550 0l-62 160h-272l-62 -160h-140l268 700h140l268 -700h-140zM445 272l-35 90q-23 61 -33 101t-13 75l-2 20h-20l-2 -20q-3 -36 -13 -76t-33 -99l-35 -91h186zM310.5 850.5q14.5 -18.5 42.5 -18.5q27 0 41 18.5t14 49.5h86q0 -70 -36.5 -108.5t-104.5 -38.5
q-69 0 -106 38.5t-37 108.5h86q0 -31 14.5 -49.5z" />
    <glyph glyph-name="uni01CD" unicode="&#x1cd;" horiz-adv-x="705" 
d="M550 0l-62 160h-272l-62 -160h-140l268 700h140l268 -700h-140zM445 272l-35 90q-23 61 -33 101t-13 75l-2 20h-20l-2 -20q-3 -36 -13 -76t-33 -99l-35 -91h186zM276 754l-75 141h103l39 -80h17l40 80h103l-75 -141h-152z" />
    <glyph glyph-name="Acircumflex" unicode="&#xc2;" horiz-adv-x="705" 
d="M550 0l-62 160h-272l-62 -160h-140l268 700h140l268 -700h-140zM445 272l-35 90q-23 61 -33 101t-13 75l-2 20h-20l-2 -20q-3 -36 -13 -76t-33 -99l-35 -91h186zM505 759h-103l-40 80h-17l-39 -80h-103l75 141h152z" />
    <glyph glyph-name="Adieresis" unicode="&#xc4;" horiz-adv-x="705" 
d="M550 0l-62 160h-272l-62 -160h-140l268 700h140l268 -700h-140zM445 272l-35 90q-23 61 -33 101t-13 75l-2 20h-20l-2 -20q-3 -36 -13 -76t-33 -99l-35 -91h186zM170 900h122v-135h-122v135zM411 900h122v-135h-122v135z" />
    <glyph glyph-name="uni1EA0" unicode="&#x1ea0;" horiz-adv-x="705" 
d="M550 0l-62 160h-272l-62 -160h-140l268 700h140l268 -700h-140zM445 272l-35 90q-23 61 -33 101t-13 75l-2 20h-20l-2 -20q-3 -36 -13 -76t-33 -99l-35 -91h186zM293 -75h122v-135h-122v135z" />
    <glyph glyph-name="Agrave" unicode="&#xc0;" horiz-adv-x="705" 
d="M550 0l-62 160h-272l-62 -160h-140l268 700h140l268 -700h-140zM445 272l-35 90q-23 61 -33 101t-13 75l-2 20h-20l-2 -20q-3 -36 -13 -76t-33 -99l-35 -91h186zM208 895h135l56 -136h-80z" />
    <glyph glyph-name="Amacron" unicode="&#x100;" horiz-adv-x="705" 
d="M550 0l-62 160h-272l-62 -160h-140l268 700h140l268 -700h-140zM445 272l-35 90q-23 61 -33 101t-13 75l-2 20h-20l-2 -20q-3 -36 -13 -76t-33 -99l-35 -91h186zM496 895v-86h-290v86h290z" />
    <glyph glyph-name="Aogonek" unicode="&#x104;" horiz-adv-x="705" 
d="M611.5 -118.5q11.5 -10.5 29.5 -10.5q21 0 41 12v-78q-42 -14 -68 -14q-44 0 -75.5 24t-30.5 68q2 77 104 117h-62l-62 160h-272l-62 -160h-140l268 700h140l268 -700l-29 -14q-61 -29 -61 -76q0 -18 11.5 -28.5zM445 272l-35 90q-23 61 -33 101t-13 75l-2 20h-20l-2 -20
q-3 -36 -13 -76t-33 -99l-35 -91h186z" />
    <glyph glyph-name="Aring" unicode="&#xc5;" horiz-adv-x="705" 
d="M488 160h-272l-62 -160h-140l268 700h13q-26 13 -41.5 37.5t-15.5 55.5q0 47 33 77t81 30t80 -30t32 -77q0 -31 -15 -55.5t-41 -37.5h14l268 -700h-140zM320.5 824q-12.5 -12 -12.5 -31t12.5 -30.5t31.5 -11.5t30.5 11.5t11.5 30.5t-11.5 31t-30.5 12t-31.5 -12zM445 272
l-35 90q-23 61 -33 101t-13 75l-2 20h-20l-2 -20q-3 -36 -13 -76t-33 -99l-35 -91h186z" />
    <glyph glyph-name="Atilde" unicode="&#xc3;" horiz-adv-x="705" 
d="M550 0l-62 160h-272l-62 -160h-140l268 700h140l268 -700h-140zM445 272l-35 90q-23 61 -33 101t-13 75l-2 20h-20l-2 -20q-3 -36 -13 -76t-33 -99l-35 -91h186zM494 790.5q-25 -30.5 -67 -30.5q-25 0 -42.5 9t-41.5 26q-22 15 -34 21.5t-28 6.5q-39 0 -39 -55h-68v20
q0 59 25 89.5t67 30.5q25 0 43.5 -9t41.5 -26q19 -14 32.5 -21t28.5 -7q39 0 39 55h68v-20q0 -59 -25 -89.5z" />
    <glyph glyph-name="AE" unicode="&#xc6;" horiz-adv-x="984" 
d="M598 115h321v-115h-454v169h-222l-84 -169h-145l342 700h558v-115h-316v-173h291v-110h-291v-187zM465 281v304h-30q-4 -28 -16 -56.5t-39 -85.5l-81 -162h166z" />
    <glyph glyph-name="B" unicode="B" horiz-adv-x="697" 
d="M398 700q113 0 174 -48t61 -130q0 -62 -34.5 -97t-92.5 -47l-23 -3v-21l22 -2q66 -9 108 -51t42 -110q0 -88 -67 -139.5t-176 -51.5h-327v700h313zM464 435q31 26 31 69t-30 70t-91 27h-156v-192h165q50 0 81 26zM392 101q62 0 93.5 31t31.5 77t-32.5 73.5t-92.5 27.5
h-174v-209h174z" />
    <glyph glyph-name="C" unicode="C" horiz-adv-x="749" 
d="M199 33.5q-74 48.5 -111.5 131t-37.5 184.5q0 103 38 186t112 131.5t178 48.5q90 0 159.5 -36.5t111.5 -101.5t51 -147h-138q-9 75 -58.5 121.5t-125.5 46.5q-93 0 -142.5 -68.5t-49.5 -178.5q0 -112 49.5 -180.5t142.5 -68.5q76 0 125 46.5t59 122.5h138
q-9 -82 -49.5 -147t-110.5 -102t-162 -37q-105 0 -179 48.5z" />
    <glyph glyph-name="Cacute" unicode="&#x106;" horiz-adv-x="749" 
d="M199 33.5q-74 48.5 -111.5 131t-37.5 184.5q0 103 38 186t112 131.5t178 48.5q90 0 159.5 -36.5t111.5 -101.5t51 -147h-138q-9 75 -58.5 121.5t-125.5 46.5q-93 0 -142.5 -68.5t-49.5 -178.5q0 -112 49.5 -180.5t142.5 -68.5q76 0 125 46.5t59 122.5h138
q-9 -82 -49.5 -147t-110.5 -102t-162 -37q-105 0 -179 48.5zM392 895h136l-112 -136h-79z" />
    <glyph glyph-name="Ccaron" unicode="&#x10c;" horiz-adv-x="749" 
d="M199 33.5q-74 48.5 -111.5 131t-37.5 184.5q0 103 38 186t112 131.5t178 48.5q90 0 159.5 -36.5t111.5 -101.5t51 -147h-138q-9 75 -58.5 121.5t-125.5 46.5q-93 0 -142.5 -68.5t-49.5 -178.5q0 -112 49.5 -180.5t142.5 -68.5q76 0 125 46.5t59 122.5h138
q-9 -82 -49.5 -147t-110.5 -102t-162 -37q-105 0 -179 48.5zM298 754l-75 141h103l39 -80h17l40 80h103l-75 -141h-152z" />
    <glyph glyph-name="Ccedilla" unicode="&#xc7;" horiz-adv-x="749" 
d="M503 148.5q49 46.5 59 122.5h138q-9 -82 -49.5 -147t-110.5 -102t-162 -37h-6l-8 -58h21l1 4q7 21 24 32.5t39 11.5q32 0 53.5 -22t21.5 -61q0 -51 -34 -76.5t-82 -25.5q-46 0 -76 22.5t-33 61.5l64 2q4 -17 16 -26t29 -9q20 0 32.5 12t12.5 34q0 20 -11.5 30.5
t-28.5 10.5q-30 0 -39 -33l-75 4l13 92q-85 15 -144 65t-88.5 126t-29.5 167q0 103 38 186t112 131.5t178 48.5q90 0 159.5 -36.5t111.5 -101.5t51 -147h-138q-9 75 -58.5 121.5t-125.5 46.5q-93 0 -142.5 -68.5t-49.5 -178.5q0 -112 49.5 -180.5t142.5 -68.5q76 0 125 46.5
z" />
    <glyph glyph-name="Cdotaccent" unicode="&#x10a;" horiz-adv-x="749" 
d="M199 33.5q-74 48.5 -111.5 131t-37.5 184.5q0 103 38 186t112 131.5t178 48.5q90 0 159.5 -36.5t111.5 -101.5t51 -147h-138q-9 75 -58.5 121.5t-125.5 46.5q-93 0 -142.5 -68.5t-49.5 -178.5q0 -112 49.5 -180.5t142.5 -68.5q76 0 125 46.5t59 122.5h138
q-9 -82 -49.5 -147t-110.5 -102t-162 -37q-105 0 -179 48.5zM313 900h122v-135h-122v135z" />
    <glyph glyph-name="D" unicode="D" horiz-adv-x="718" 
d="M630 167q-38 -79 -112.5 -123t-178.5 -44h-254v700h254q104 0 178.5 -44t112.5 -123t38 -183t-38 -183zM478.5 521q-53.5 62 -156.5 62h-104v-466h104q103 0 156.5 62t53.5 171t-53.5 171z" />
    <glyph glyph-name="Eth" unicode="&#xd0;" horiz-adv-x="724" 
d="M523 656q74 -44 112 -123t38 -183t-38 -183t-112 -123t-179 -44h-254v310h-65v102h65v288h254q105 0 179 -44zM484 179q53 62 53 171t-53 171t-157 62h-104v-171h163v-102h-163v-193h104q104 0 157 62z" />
    <glyph glyph-name="Dcaron" unicode="&#x10e;" horiz-adv-x="698" 
d="M630 167q-38 -79 -112.5 -123t-178.5 -44h-254v700h254q104 0 178.5 -44t112.5 -123t38 -183t-38 -183zM478.5 521q-53.5 62 -156.5 62h-104v-466h104q103 0 156.5 62t53.5 171t-53.5 171zM282 754l-75 141h103l39 -80h17l40 80h103l-75 -141h-152z" />
    <glyph glyph-name="Dcroat" unicode="&#x110;" horiz-adv-x="728" 
d="M528 656q74 -44 112 -123t38 -183t-38 -183t-112 -123t-179 -44h-254v310h-65v102h65v288h254q105 0 179 -44zM489 179q53 62 53 171t-53 171t-157 62h-104v-171h163v-102h-163v-193h104q104 0 157 62z" />
    <glyph glyph-name="uni1E0C" unicode="&#x1e0c;" horiz-adv-x="718" 
d="M630 167q-38 -79 -112.5 -123t-178.5 -44h-254v700h254q104 0 178.5 -44t112.5 -123t38 -183t-38 -183zM478.5 521q-53.5 62 -156.5 62h-104v-466h104q103 0 156.5 62t53.5 171t-53.5 171zM315 -75h122v-135h-122v135z" />
    <glyph glyph-name="E" unicode="E" horiz-adv-x="603" 
d="M534 700v-115h-316v-173h290v-110h-290v-187h320v-115h-453v700h449z" />
    <glyph glyph-name="Eacute" unicode="&#xc9;" horiz-adv-x="603" 
d="M534 700v-115h-316v-173h290v-110h-290v-187h320v-115h-453v700h449zM330 895h136l-112 -136h-79z" />
    <glyph glyph-name="Ecaron" unicode="&#x11a;" horiz-adv-x="603" 
d="M534 700v-115h-316v-173h290v-110h-290v-187h320v-115h-453v700h449zM236 754l-75 141h103l39 -80h17l40 80h103l-75 -141h-152z" />
    <glyph glyph-name="Ecircumflex" unicode="&#xca;" horiz-adv-x="603" 
d="M534 700v-115h-316v-173h290v-110h-290v-187h320v-115h-453v700h449zM465 759h-103l-40 80h-17l-39 -80h-103l75 141h152z" />
    <glyph glyph-name="Edieresis" unicode="&#xcb;" horiz-adv-x="603" 
d="M534 700v-115h-316v-173h290v-110h-290v-187h320v-115h-453v700h449zM130 900h122v-135h-122v135zM371 900h122v-135h-122v135z" />
    <glyph glyph-name="Edotaccent" unicode="&#x116;" horiz-adv-x="603" 
d="M534 700v-115h-316v-173h290v-110h-290v-187h320v-115h-453v700h449zM251 900h122v-135h-122v135z" />
    <glyph glyph-name="uni1EB8" unicode="&#x1eb8;" horiz-adv-x="603" 
d="M534 700v-115h-316v-173h290v-110h-290v-187h320v-115h-453v700h449zM253 -75h122v-135h-122v135z" />
    <glyph glyph-name="Egrave" unicode="&#xc8;" horiz-adv-x="603" 
d="M534 700v-115h-316v-173h290v-110h-290v-187h320v-115h-453v700h449zM168 895h135l56 -136h-80z" />
    <glyph glyph-name="Emacron" unicode="&#x112;" horiz-adv-x="603" 
d="M534 700v-115h-316v-173h290v-110h-290v-187h320v-115h-453v700h449zM456 895v-86h-290v86h290z" />
    <glyph glyph-name="Eogonek" unicode="&#x118;" horiz-adv-x="606" 
d="M448 -88q0 -19 11.5 -30t30.5 -11q21 0 40 12v-78q-42 -14 -68 -14q-43 0 -74 23t-31 66q0 80 104 120h-376v700h449v-115h-316v-173h290v-110h-290v-187h320v-115l-29 -14q-60 -29 -61 -74z" />
    <glyph glyph-name="uni1EBC" unicode="&#x1ebc;" horiz-adv-x="603" 
d="M534 700v-115h-316v-173h290v-110h-290v-187h320v-115h-453v700h449zM454 790.5q-25 -30.5 -67 -30.5q-25 0 -42.5 9t-41.5 26q-22 15 -34 21.5t-28 6.5q-39 0 -39 -55h-68v20q0 59 25 89.5t67 30.5q25 0 43.5 -9t41.5 -26q19 -14 32.5 -21t28.5 -7q39 0 39 55h68v-20
q0 -59 -25 -89.5z" />
    <glyph glyph-name="F" unicode="F" horiz-adv-x="588" 
d="M534 700v-115h-316v-189h290v-109h-290v-287h-133v700h449z" />
    <glyph glyph-name="G" unicode="G" horiz-adv-x="811" 
d="M187 33.5q-67 48.5 -102 131t-35 182.5q0 107 42 190.5t121 130.5t187 47q87 0 158 -32.5t117 -91.5t61 -137h-137q-18 66 -70.5 105t-128.5 39q-99 0 -156.5 -66.5t-57.5 -180.5q0 -111 53.5 -181t150.5 -70q79 0 133 46.5t61 123.5l2 18h-177v93h310v-381h-133v158h-20
q-24 -81 -80.5 -127t-141.5 -46q-90 0 -157 48.5z" />
    <glyph glyph-name="Gbreve" unicode="&#x11e;" horiz-adv-x="811" 
d="M187 33.5q-67 48.5 -102 131t-35 182.5q0 107 42 190.5t121 130.5t187 47q87 0 158 -32.5t117 -91.5t61 -137h-137q-18 66 -70.5 105t-128.5 39q-99 0 -156.5 -66.5t-57.5 -180.5q0 -111 53.5 -181t150.5 -70q79 0 133 46.5t61 123.5l2 18h-177v93h310v-381h-133v158h-20
q-24 -81 -80.5 -127t-141.5 -46q-90 0 -157 48.5zM357.5 850.5q14.5 -18.5 42.5 -18.5q27 0 41 18.5t14 49.5h86q0 -70 -36.5 -108.5t-104.5 -38.5q-69 0 -106 38.5t-37 108.5h86q0 -31 14.5 -49.5z" />
    <glyph glyph-name="Gcaron" unicode="&#x1e6;" horiz-adv-x="811" 
d="M187 33.5q-67 48.5 -102 131t-35 182.5q0 107 42 190.5t121 130.5t187 47q87 0 158 -32.5t117 -91.5t61 -137h-137q-18 66 -70.5 105t-128.5 39q-99 0 -156.5 -66.5t-57.5 -180.5q0 -111 53.5 -181t150.5 -70q79 0 133 46.5t61 123.5l2 18h-177v93h310v-381h-133v158h-20
q-24 -81 -80.5 -127t-141.5 -46q-90 0 -157 48.5zM324 754l-75 141h103l39 -80h17l40 80h103l-75 -141h-152z" />
    <glyph glyph-name="uni0122" unicode="&#x122;" horiz-adv-x="811" 
d="M187 33.5q-67 48.5 -102 131t-35 182.5q0 107 42 190.5t121 130.5t187 47q87 0 158 -32.5t117 -91.5t61 -137h-137q-18 66 -70.5 105t-128.5 39q-99 0 -156.5 -66.5t-57.5 -180.5q0 -111 53.5 -181t150.5 -70q79 0 133 46.5t61 123.5l2 18h-177v93h310v-381h-133v158h-20
q-24 -81 -80.5 -127t-141.5 -46q-90 0 -157 48.5zM453 -41l-93 -169h-71l56 169h108z" />
    <glyph glyph-name="Gdotaccent" unicode="&#x120;" horiz-adv-x="811" 
d="M187 33.5q-67 48.5 -102 131t-35 182.5q0 107 42 190.5t121 130.5t187 47q87 0 158 -32.5t117 -91.5t61 -137h-137q-18 66 -70.5 105t-128.5 39q-99 0 -156.5 -66.5t-57.5 -180.5q0 -111 53.5 -181t150.5 -70q79 0 133 46.5t61 123.5l2 18h-177v93h310v-381h-133v158h-20
q-24 -81 -80.5 -127t-141.5 -46q-90 0 -157 48.5zM338 900h122v-135h-122v135z" />
    <glyph glyph-name="H" unicode="H" horiz-adv-x="733" 
d="M85 700h133v-277h297v277h133v-700h-133v306h-297v-306h-133v700z" />
    <glyph glyph-name="Hbar" unicode="&#x126;" horiz-adv-x="733" 
d="M708 631v-95h-60v-536h-133v306h-297v-306h-133v536h-60v95h60v69h133v-69h297v69h133v-69h60zM515 423v113h-297v-113h297z" />
    <glyph glyph-name="uni1E24" unicode="&#x1e24;" horiz-adv-x="733" 
d="M85 700h133v-277h297v277h133v-700h-133v306h-297v-306h-133v700zM308 -75h122v-135h-122v135z" />
    <glyph glyph-name="I" unicode="I" horiz-adv-x="302" 
d="M85 0v700h133v-700h-133z" />
    <glyph glyph-name="Iacute" unicode="&#xcd;" horiz-adv-x="302" 
d="M85 0v700h133v-700h-133zM168 895h136l-112 -136h-79z" />
    <glyph glyph-name="uni01CF" unicode="&#x1cf;" horiz-adv-x="302" 
d="M85 0v700h133v-700h-133zM74 754l-75 141h103l39 -80h17l40 80h103l-75 -141h-152z" />
    <glyph glyph-name="Icircumflex" unicode="&#xce;" horiz-adv-x="255" 
d="M79 0v700h133v-700h-133zM297 759h-103l-40 80h-17l-39 -80h-103l75 141h152z" />
    <glyph glyph-name="Idieresis" unicode="&#xcf;" horiz-adv-x="280" 
d="M86 0v700h133v-700h-133zM-25 910h122v-135h-122v135zM216 910h122v-135h-122v135z" />
    <glyph glyph-name="Idotaccent" unicode="&#x130;" horiz-adv-x="302" 
d="M85 0v700h133v-700h-133zM91 910h122v-135h-122v135z" />
    <glyph glyph-name="uni1ECA" unicode="&#x1eca;" horiz-adv-x="302" 
d="M85 0v700h133v-700h-133zM91 -75h122v-135h-122v135z" />
    <glyph glyph-name="Igrave" unicode="&#xcc;" horiz-adv-x="279" 
d="M85 0v700h133v-700h-133zM27 888h135l56 -136h-80z" />
    <glyph glyph-name="Imacron" unicode="&#x12a;" horiz-adv-x="280" 
d="M85 0v700h133v-700h-133zM297 870v-86h-290v86h290z" />
    <glyph glyph-name="Iogonek" unicode="&#x12e;" horiz-adv-x="302" 
d="M128 -90q0 -18 11.5 -28.5t29.5 -10.5q21 0 41 12v-78q-42 -14 -68 -14q-44 0 -75.5 24t-30.5 68q2 77 104 117h-55v700h133v-700l-29 -14q-61 -29 -61 -76z" />
    <glyph glyph-name="Itilde" unicode="&#x128;" horiz-adv-x="302" 
d="M85 0v700h133v-700h-133zM292 790.5q-25 -30.5 -67 -30.5q-25 0 -42.5 9t-41.5 26q-22 15 -34 21.5t-28 6.5q-39 0 -39 -55h-68v20q0 59 25 89.5t67 30.5q25 0 43.5 -9t41.5 -26q19 -14 32.5 -21t28.5 -7q39 0 39 55h68v-20q0 -59 -25 -89.5z" />
    <glyph glyph-name="J" unicode="J" horiz-adv-x="625" 
d="M94.5 55.5q-66.5 70.5 -70.5 182.5h133q9 -136 130 -136q70 0 100 39t30 113v446h133v-448q0 -121 -65.5 -194t-197.5 -73q-126 0 -192.5 70.5z" />
    <glyph glyph-name="K" unicode="K" horiz-adv-x="687" 
d="M516 0l-148 368l-150 -174v-194h-133v700h133v-352h20q4 46 17.5 80.5t53.5 77.5l170 194h176l-193 -224l201 -476h-147z" />
    <glyph glyph-name="uni0136" unicode="&#x136;" horiz-adv-x="687" 
d="M516 0l-148 368l-150 -174v-194h-133v700h133v-352h20q4 46 17.5 80.5t53.5 77.5l170 194h176l-193 -224l201 -476h-147zM416 -41l-93 -169h-71l56 169h108z" />
    <glyph glyph-name="L" unicode="L" horiz-adv-x="545" 
d="M85 700h133v-583h303v-117h-436v700z" />
    <glyph glyph-name="Lacute" unicode="&#x139;" horiz-adv-x="545" 
d="M85 700h133v-583h303v-117h-436v700zM170 895h136l-112 -136h-79z" />
    <glyph glyph-name="Lcaron" unicode="&#x13d;" horiz-adv-x="545" 
d="M85 700h133v-583h303v-117h-436v700zM481 700l-93 -169h-71l56 169h108z" />
    <glyph glyph-name="uni013B" unicode="&#x13b;" horiz-adv-x="545" 
d="M85 700h133v-583h303v-117h-436v700zM333 -41l-93 -169h-71l56 169h108z" />
    <glyph glyph-name="Lslash" unicode="&#x141;" horiz-adv-x="545" 
d="M218 117h303v-117h-436v272l-70 -32v107l70 32v321h133v-260l115 53v-108l-115 -52v-216z" />
    <glyph glyph-name="M" unicode="M" horiz-adv-x="1015" 
d="M293 700l153 -363q27 -73 39.5 -123.5t12.5 -93.5h19q0 43 12 94t39 123l153 363h209v-700h-133v563h-20q0 -70 -41 -181l-157 -382h-144l-156 381q-25 68 -34 109.5t-9 72.5h-18v-563h-133v700h208z" />
    <glyph glyph-name="N" unicode="N" horiz-adv-x="788" 
d="M270 700l226 -383q33 -61 43.5 -95.5t13.5 -67.5h19v546h131v-700h-186l-224 383q-32 62 -43.5 97t-15.5 66h-18v-546h-131v700h185z" />
    <glyph glyph-name="Nacute" unicode="&#x143;" horiz-adv-x="788" 
d="M270 700l226 -383q33 -61 43.5 -95.5t13.5 -67.5h19v546h131v-700h-186l-224 383q-32 62 -43.5 97t-15.5 66h-18v-546h-131v700h185zM428 895h136l-112 -136h-79z" />
    <glyph glyph-name="Ncaron" unicode="&#x147;" horiz-adv-x="788" 
d="M270 700l226 -383q33 -61 43.5 -95.5t13.5 -67.5h19v546h131v-700h-186l-224 383q-32 62 -43.5 97t-15.5 66h-18v-546h-131v700h185zM334 754l-75 141h103l39 -80h17l40 80h103l-75 -141h-152z" />
    <glyph glyph-name="uni0145" unicode="&#x145;" horiz-adv-x="788" 
d="M270 700l226 -383q33 -61 43.5 -95.5t13.5 -67.5h19v546h131v-700h-186l-224 383q-32 62 -43.5 97t-15.5 66h-18v-546h-131v700h185zM468 -41l-93 -169h-71l56 169h108z" />
    <glyph glyph-name="Eng" unicode="&#x14a;" horiz-adv-x="784" 
d="M703 0h-3v-50q0 -81 -37 -119.5t-127 -38.5h-75v94h48q34 0 48.5 19.5t14.5 56.5v38h-55l-224 383q-32 62 -43.5 97t-15.5 66h-18v-546h-131v700h185l226 -383q33 -61 43.5 -95.5t13.5 -67.5h19v546h131v-700z" />
    <glyph glyph-name="Ntilde" unicode="&#xd1;" horiz-adv-x="788" 
d="M270 700l226 -383q33 -61 43.5 -95.5t13.5 -67.5h19v546h131v-700h-186l-224 383q-32 62 -43.5 97t-15.5 66h-18v-546h-131v700h185zM552 790.5q-25 -30.5 -67 -30.5q-25 0 -42.5 9t-41.5 26q-22 15 -34 21.5t-28 6.5q-39 0 -39 -55h-68v20q0 59 25 89.5t67 30.5
q25 0 43.5 -9t41.5 -26q19 -14 32.5 -21t28.5 -7q39 0 39 55h68v-20q0 -59 -25 -89.5z" />
    <glyph glyph-name="O" unicode="O" horiz-adv-x="777" 
d="M205.5 33q-76.5 48 -116.5 131t-40 185q0 103 40.5 186t117.5 131.5t181 48.5t180.5 -47.5t117.5 -130.5t41 -187q0 -102 -40 -185t-116.5 -131.5t-182.5 -48.5t-182.5 48zM537.5 171q53.5 69 53.5 180q0 109 -53.5 178t-149.5 69q-95 0 -148.5 -69t-53.5 -179t53 -179
t149 -69t149.5 69z" />
    <glyph glyph-name="Oacute" unicode="&#xd3;" horiz-adv-x="777" 
d="M205.5 33q-76.5 48 -116.5 131t-40 185q0 103 40.5 186t117.5 131.5t181 48.5t180.5 -47.5t117.5 -130.5t41 -187q0 -102 -40 -185t-116.5 -131.5t-182.5 -48.5t-182.5 48zM537.5 171q53.5 69 53.5 180q0 109 -53.5 178t-149.5 69q-95 0 -148.5 -69t-53.5 -179t53 -179
t149 -69t149.5 69zM407 895h136l-112 -136h-79z" />
    <glyph glyph-name="Ocircumflex" unicode="&#xd4;" horiz-adv-x="777" 
d="M205.5 33q-76.5 48 -116.5 131t-40 185q0 103 40.5 186t117.5 131.5t181 48.5t180.5 -47.5t117.5 -130.5t41 -187q0 -102 -40 -185t-116.5 -131.5t-182.5 -48.5t-182.5 48zM537.5 171q53.5 69 53.5 180q0 109 -53.5 178t-149.5 69q-95 0 -148.5 -69t-53.5 -179t53 -179
t149 -69t149.5 69zM542 759h-103l-40 80h-17l-39 -80h-103l75 141h152z" />
    <glyph glyph-name="Odieresis" unicode="&#xd6;" horiz-adv-x="777" 
d="M205.5 33q-76.5 48 -116.5 131t-40 185q0 103 40.5 186t117.5 131.5t181 48.5t180.5 -47.5t117.5 -130.5t41 -187q0 -102 -40 -185t-116.5 -131.5t-182.5 -48.5t-182.5 48zM537.5 171q53.5 69 53.5 180q0 109 -53.5 178t-149.5 69q-95 0 -148.5 -69t-53.5 -179t53 -179
t149 -69t149.5 69zM207 900h122v-135h-122v135zM448 900h122v-135h-122v135z" />
    <glyph glyph-name="uni1ECC" unicode="&#x1ecc;" horiz-adv-x="777" 
d="M205.5 33q-76.5 48 -116.5 131t-40 185q0 103 40.5 186t117.5 131.5t181 48.5t180.5 -47.5t117.5 -130.5t41 -187q0 -102 -40 -185t-116.5 -131.5t-182.5 -48.5t-182.5 48zM537.5 171q53.5 69 53.5 180q0 109 -53.5 178t-149.5 69q-95 0 -148.5 -69t-53.5 -179t53 -179
t149 -69t149.5 69zM330 -75h122v-135h-122v135z" />
    <glyph glyph-name="Ograve" unicode="&#xd2;" horiz-adv-x="777" 
d="M205.5 33q-76.5 48 -116.5 131t-40 185q0 103 40.5 186t117.5 131.5t181 48.5t180.5 -47.5t117.5 -130.5t41 -187q0 -102 -40 -185t-116.5 -131.5t-182.5 -48.5t-182.5 48zM537.5 171q53.5 69 53.5 180q0 109 -53.5 178t-149.5 69q-95 0 -148.5 -69t-53.5 -179t53 -179
t149 -69t149.5 69zM245 895h135l56 -136h-80z" />
    <glyph glyph-name="Ohungarumlaut" unicode="&#x150;" horiz-adv-x="777" 
d="M205.5 33q-76.5 48 -116.5 131t-40 185q0 103 40.5 186t117.5 131.5t181 48.5t180.5 -47.5t117.5 -130.5t41 -187q0 -102 -40 -185t-116.5 -131.5t-182.5 -48.5t-182.5 48zM537.5 171q53.5 69 53.5 180q0 109 -53.5 178t-149.5 69q-95 0 -148.5 -69t-53.5 -179t53 -179
t149 -69t149.5 69zM291 895h125l-111 -136h-69zM485 895h125l-111 -136h-69z" />
    <glyph glyph-name="Omacron" unicode="&#x14c;" horiz-adv-x="777" 
d="M205.5 33q-76.5 48 -116.5 131t-40 185q0 103 40.5 186t117.5 131.5t181 48.5t180.5 -47.5t117.5 -130.5t41 -187q0 -102 -40 -185t-116.5 -131.5t-182.5 -48.5t-182.5 48zM537.5 171q53.5 69 53.5 180q0 109 -53.5 178t-149.5 69q-95 0 -148.5 -69t-53.5 -179t53 -179
t149 -69t149.5 69zM533 895v-86h-290v86h290z" />
    <glyph glyph-name="Oslash" unicode="&#xd8;" horiz-adv-x="777" 
d="M701 502.5q26 -70.5 26 -152.5q0 -102 -40 -185t-116.5 -131.5t-182.5 -48.5q-68 0 -125 21t-99 59l-54 -65h-60l81 98q-40 48 -61 113t-21 138q0 103 40.5 186t117.5 131.5t181 48.5q117 0 203 -62l39 47h61l-65 -78q49 -49 75 -119.5zM218 203l293 353q-50 42 -123 42
q-95 0 -148.5 -69t-53.5 -179q0 -85 32 -147zM537.5 171q53.5 69 53.5 180q0 105 -48 171l-297 -359q53 -61 142 -61q96 0 149.5 69z" />
    <glyph glyph-name="Otilde" unicode="&#xd5;" horiz-adv-x="777" 
d="M205.5 33q-76.5 48 -116.5 131t-40 185q0 103 40.5 186t117.5 131.5t181 48.5t180.5 -47.5t117.5 -130.5t41 -187q0 -102 -40 -185t-116.5 -131.5t-182.5 -48.5t-182.5 48zM537.5 171q53.5 69 53.5 180q0 109 -53.5 178t-149.5 69q-95 0 -148.5 -69t-53.5 -179t53 -179
t149 -69t149.5 69zM531 790.5q-25 -30.5 -67 -30.5q-25 0 -42.5 9t-41.5 26q-22 15 -34 21.5t-28 6.5q-39 0 -39 -55h-68v20q0 59 25 89.5t67 30.5q25 0 43.5 -9t41.5 -26q19 -14 32.5 -21t28.5 -7q39 0 39 55h68v-20q0 -59 -25 -89.5z" />
    <glyph glyph-name="OE" unicode="&#x152;" horiz-adv-x="1113" 
d="M197.5 33q-70.5 48 -109 131t-38.5 185q0 103 38.5 186.5t109 131.5t164.5 48q75 0 130.5 -32t81.5 -82h21v99h449v-115h-316v-173h291v-110h-291v-187h321v-115h-454v99h-21q-26 -51 -81 -82.5t-131 -31.5q-94 0 -164.5 48zM538 171q53 69 53 180q0 110 -53 178.5
t-150 68.5t-149.5 -68.5t-52.5 -178.5q0 -111 52.5 -180t149.5 -69t150 69z" />
    <glyph glyph-name="P" unicode="P" horiz-adv-x="682" 
d="M394 700q74 0 128 -28t82 -78.5t28 -116.5q0 -105 -62.5 -164.5t-175.5 -59.5h-176v-255l-133 2v700h309zM466 396q30 29 30 80t-30.5 80t-89.5 29h-158v-218h159q59 0 89 29z" />
    <glyph glyph-name="Thorn" unicode="&#xde;" horiz-adv-x="666" 
d="M566.5 508q62.5 -61 62.5 -162q0 -105 -62 -164.5t-176 -59.5h-173v-122h-133v700h133v-130h173q113 -1 175.5 -62zM463 266q30 29 30 79q0 51 -30.5 80.5t-89.5 29.5h-155v-218h157q58 0 88 29z" />
    <glyph glyph-name="Q" unicode="Q" horiz-adv-x="777" 
d="M361 -171q-38 39 -38 117v20h59v20q-39 2 -59 6q-86 13 -147.5 63t-93.5 126.5t-32 167.5q0 102 40.5 185.5t117 132t180.5 48.5t180.5 -48t117.5 -131t41 -186q0 -93 -33 -170t-95.5 -126.5t-147.5 -61.5v-35q0 -38 14 -58t49 -20h47v-89h-75q-87 0 -125 39zM497 134
q46 32 70 88.5t24 128.5q0 71 -24 127t-70 88t-109 32q-62 0 -108 -32t-70 -88t-24 -127q0 -72 24 -128.5t69.5 -88.5t108.5 -32t109 32z" />
    <glyph glyph-name="R" unicode="R" horiz-adv-x="702" 
d="M426 700q104 0 158 -48.5t54 -126.5q0 -77 -47 -120.5t-112 -49.5v-21h11q77 -4 114.5 -48.5t42.5 -129.5l8 -156h-133l-9 157q-4 64 -34.5 93.5t-97.5 29.5h-163v-280h-133v700h341zM468.5 419q30.5 27 30.5 75q0 44 -27 68.5t-85 24.5h-169v-195h161q59 0 89.5 27z" />
    <glyph glyph-name="Racute" unicode="&#x154;" horiz-adv-x="702" 
d="M426 700q104 0 158 -48.5t54 -126.5q0 -77 -47 -120.5t-112 -49.5v-21h11q77 -4 114.5 -48.5t42.5 -129.5l8 -156h-133l-9 157q-4 64 -34.5 93.5t-97.5 29.5h-163v-280h-133v700h341zM468.5 419q30.5 27 30.5 75q0 44 -27 68.5t-85 24.5h-169v-195h161q59 0 89.5 27z
M383 895h136l-112 -136h-79z" />
    <glyph glyph-name="Rcaron" unicode="&#x158;" horiz-adv-x="702" 
d="M426 700q104 0 158 -48.5t54 -126.5q0 -77 -47 -120.5t-112 -49.5v-21h11q77 -4 114.5 -48.5t42.5 -129.5l8 -156h-133l-9 157q-4 64 -34.5 93.5t-97.5 29.5h-163v-280h-133v700h341zM468.5 419q30.5 27 30.5 75q0 44 -27 68.5t-85 24.5h-169v-195h161q59 0 89.5 27z
M288 754l-75 141h103l39 -80h17l40 80h103l-75 -141h-152z" />
    <glyph glyph-name="uni0156" unicode="&#x156;" horiz-adv-x="702" 
d="M426 700q104 0 158 -48.5t54 -126.5q0 -77 -47 -120.5t-112 -49.5v-21h11q77 -4 114.5 -48.5t42.5 -129.5l8 -156h-133l-9 157q-4 64 -34.5 93.5t-97.5 29.5h-163v-280h-133v700h341zM468.5 419q30.5 27 30.5 75q0 44 -27 68.5t-85 24.5h-169v-195h161q59 0 89.5 27z
M418 -41l-93 -169h-71l56 169h108z" />
    <glyph glyph-name="S" unicode="S" horiz-adv-x="637" 
d="M218.5 129q37.5 -33 103.5 -33q59 0 92.5 24t33.5 73q0 38 -23.5 60t-73.5 32l-125 22q-89 17 -139 69.5t-50 132.5q0 98 73 152t189 54q84 0 150.5 -28t106.5 -81.5t45 -128.5h-139q-4 63 -46.5 95t-112.5 32q-63 0 -96.5 -25t-33.5 -66q0 -36 25 -61t71 -34l129 -24
q89 -16 138 -65t49 -128q0 -69 -35.5 -118t-95.5 -73.5t-133 -24.5q-76 0 -138.5 27t-100.5 80t-42 127h138q3 -57 40.5 -90z" />
    <glyph glyph-name="Sacute" unicode="&#x15a;" horiz-adv-x="637" 
d="M218.5 129q37.5 -33 103.5 -33q59 0 92.5 24t33.5 73q0 38 -23.5 60t-73.5 32l-125 22q-89 17 -139 69.5t-50 132.5q0 98 73 152t189 54q84 0 150.5 -28t106.5 -81.5t45 -128.5h-139q-4 63 -46.5 95t-112.5 32q-63 0 -96.5 -25t-33.5 -66q0 -36 25 -61t71 -34l129 -24
q89 -16 138 -65t49 -128q0 -69 -35.5 -118t-95.5 -73.5t-133 -24.5q-76 0 -138.5 27t-100.5 80t-42 127h138q3 -57 40.5 -90zM335 895h136l-112 -136h-79z" />
    <glyph glyph-name="Scaron" unicode="&#x160;" horiz-adv-x="637" 
d="M218.5 129q37.5 -33 103.5 -33q59 0 92.5 24t33.5 73q0 38 -23.5 60t-73.5 32l-125 22q-89 17 -139 69.5t-50 132.5q0 98 73 152t189 54q84 0 150.5 -28t106.5 -81.5t45 -128.5h-139q-4 63 -46.5 95t-112.5 32q-63 0 -96.5 -25t-33.5 -66q0 -36 25 -61t71 -34l129 -24
q89 -16 138 -65t49 -128q0 -69 -35.5 -118t-95.5 -73.5t-133 -24.5q-76 0 -138.5 27t-100.5 80t-42 127h138q3 -57 40.5 -90zM241 754l-75 141h103l39 -80h17l40 80h103l-75 -141h-152z" />
    <glyph glyph-name="Scedilla" unicode="&#x15e;" horiz-adv-x="637" 
d="M536 329q49 -49 49 -128q0 -69 -35.5 -118t-95.5 -73.5t-133 -24.5h-5l-8 -58h21l1 4q7 21 24 32.5t39 11.5q32 0 53.5 -22t21.5 -61q0 -51 -34 -76.5t-82 -25.5q-46 0 -76 22.5t-33 61.5l64 2q4 -17 16 -26t29 -9q20 0 32.5 12t12.5 34q0 20 -11.5 30.5t-28.5 10.5
q-30 0 -39 -33l-75 4l13 92q-93 16 -152 75t-64 153h138q3 -57 40.5 -90t103.5 -33q59 0 92.5 24t33.5 73q0 38 -23.5 60t-73.5 32l-125 22q-89 17 -139 69.5t-50 132.5q0 98 73 152t189 54q84 0 150.5 -28t106.5 -81.5t45 -128.5h-139q-4 63 -46.5 95t-112.5 32
q-63 0 -96.5 -25t-33.5 -66q0 -36 25 -61t71 -34l129 -24q89 -16 138 -65z" />
    <glyph glyph-name="uni0218" unicode="&#x218;" horiz-adv-x="637" 
d="M218.5 129q37.5 -33 103.5 -33q59 0 92.5 24t33.5 73q0 38 -23.5 60t-73.5 32l-125 22q-89 17 -139 69.5t-50 132.5q0 98 73 152t189 54q84 0 150.5 -28t106.5 -81.5t45 -128.5h-139q-4 63 -46.5 95t-112.5 32q-63 0 -96.5 -25t-33.5 -66q0 -36 25 -61t71 -34l129 -24
q89 -16 138 -65t49 -128q0 -69 -35.5 -118t-95.5 -73.5t-133 -24.5q-76 0 -138.5 27t-100.5 80t-42 127h138q3 -57 40.5 -90zM372 -41l-93 -169h-71l56 169h108z" />
    <glyph glyph-name="uni1E9E" unicode="&#x1e9e;" horiz-adv-x="662" 
d="M157.5 655q72.5 60 193.5 60t184.5 -51t63.5 -133q0 -64 -36.5 -102.5t-96.5 -50.5l-22 -3v-21l22 -2q69 -9 111.5 -51.5t42.5 -109.5q0 -58 -30.5 -101.5t-82.5 -67t-115 -22.5l-46 1v100h20q55 0 85.5 31.5t30.5 76.5t-34 73t-99 28v99q49 0 80 29.5t31 74.5
q0 41 -28.5 68.5t-87.5 27.5q-126 0 -126 -144v-465h-133v456q0 139 72.5 199z" />
    <glyph glyph-name="T" unicode="T" horiz-adv-x="549" 
d="M341 585v-585h-133v585h-185v115h503v-115h-185z" />
    <glyph glyph-name="Tbar" unicode="&#x166;" horiz-adv-x="550" 
d="M526 585h-185v-186h113v-102h-113v-297h-133v297h-111v102h111v186h-185v115h503v-115z" />
    <glyph glyph-name="Tcaron" unicode="&#x164;" horiz-adv-x="549" 
d="M341 585v-585h-133v585h-185v115h503v-115h-185zM199 754l-75 141h103l39 -80h17l40 80h103l-75 -141h-152z" />
    <glyph glyph-name="uni0162" unicode="&#x162;" horiz-adv-x="549" 
d="M303 0l-10 -73h21l1 4q7 21 24 32.5t39 11.5q32 0 53.5 -22t21.5 -61q0 -51 -34 -76.5t-82 -25.5q-46 0 -76 22.5t-33 61.5l64 2q4 -17 16 -26t29 -9q20 0 32.5 12t12.5 34q0 20 -11.5 30.5t-28.5 10.5q-30 0 -39 -33l-75 4l14 101h-34v585h-185v115h503v-115h-185v-585
h-38z" />
    <glyph glyph-name="uni021A" unicode="&#x21a;" horiz-adv-x="549" 
d="M341 585v-585h-133v585h-185v115h503v-115h-185zM357 -41l-93 -169h-71l56 169h108z" />
    <glyph glyph-name="U" unicode="U" horiz-adv-x="710" 
d="M147.5 51.5q-72.5 66.5 -72.5 202.5v446h133v-450q0 -73 34.5 -110.5t112.5 -37.5q79 0 113.5 37t34.5 111v450h133v-446q0 -269 -281 -269q-135 0 -207.5 66.5z" />
    <glyph glyph-name="Uacute" unicode="&#xda;" horiz-adv-x="710" 
d="M147.5 51.5q-72.5 66.5 -72.5 202.5v446h133v-450q0 -73 34.5 -110.5t112.5 -37.5q79 0 113.5 37t34.5 111v450h133v-446q0 -269 -281 -269q-135 0 -207.5 66.5zM374 895h136l-112 -136h-79z" />
    <glyph glyph-name="uni01D3" unicode="&#x1d3;" horiz-adv-x="710" 
d="M147.5 51.5q-72.5 66.5 -72.5 202.5v446h133v-450q0 -73 34.5 -110.5t112.5 -37.5q79 0 113.5 37t34.5 111v450h133v-446q0 -269 -281 -269q-135 0 -207.5 66.5zM279 754l-75 141h103l39 -80h17l40 80h103l-75 -141h-152z" />
    <glyph glyph-name="Ucircumflex" unicode="&#xdb;" horiz-adv-x="710" 
d="M147.5 51.5q-72.5 66.5 -72.5 202.5v446h133v-450q0 -73 34.5 -110.5t112.5 -37.5q79 0 113.5 37t34.5 111v450h133v-446q0 -269 -281 -269q-135 0 -207.5 66.5zM509 759h-103l-40 80h-17l-39 -80h-103l75 141h152z" />
    <glyph glyph-name="Udieresis" unicode="&#xdc;" horiz-adv-x="710" 
d="M147.5 51.5q-72.5 66.5 -72.5 202.5v446h133v-450q0 -73 34.5 -110.5t112.5 -37.5q79 0 113.5 37t34.5 111v450h133v-446q0 -269 -281 -269q-135 0 -207.5 66.5zM174 900h122v-135h-122v135zM415 900h122v-135h-122v135z" />
    <glyph glyph-name="uni1EE4" unicode="&#x1ee4;" horiz-adv-x="710" 
d="M147.5 51.5q-72.5 66.5 -72.5 202.5v446h133v-450q0 -73 34.5 -110.5t112.5 -37.5q79 0 113.5 37t34.5 111v450h133v-446q0 -269 -281 -269q-135 0 -207.5 66.5zM297 -75h122v-135h-122v135z" />
    <glyph glyph-name="Ugrave" unicode="&#xd9;" horiz-adv-x="710" 
d="M147.5 51.5q-72.5 66.5 -72.5 202.5v446h133v-450q0 -73 34.5 -110.5t112.5 -37.5q79 0 113.5 37t34.5 111v450h133v-446q0 -269 -281 -269q-135 0 -207.5 66.5zM211 895h135l56 -136h-80z" />
    <glyph glyph-name="Uhungarumlaut" unicode="&#x170;" horiz-adv-x="710" 
d="M147.5 51.5q-72.5 66.5 -72.5 202.5v446h133v-450q0 -73 34.5 -110.5t112.5 -37.5q79 0 113.5 37t34.5 111v450h133v-446q0 -269 -281 -269q-135 0 -207.5 66.5zM258 895h125l-111 -136h-69zM452 895h125l-111 -136h-69z" />
    <glyph glyph-name="Umacron" unicode="&#x16a;" horiz-adv-x="710" 
d="M147.5 51.5q-72.5 66.5 -72.5 202.5v446h133v-450q0 -73 34.5 -110.5t112.5 -37.5q79 0 113.5 37t34.5 111v450h133v-446q0 -269 -281 -269q-135 0 -207.5 66.5zM500 895v-86h-290v86h290z" />
    <glyph glyph-name="Uogonek" unicode="&#x172;" horiz-adv-x="710" 
d="M636 700v-446q0 -269 -281 -269l-29 -14q-61 -29 -61 -76q0 -18 11.5 -28.5t29.5 -10.5q21 0 41 12v-78q-42 -14 -68 -14q-44 0 -75.5 24t-30.5 68q2 81 116 121q-104 15 -159 81t-55 184v446h133v-450q0 -73 34.5 -110.5t112.5 -37.5q79 0 113.5 37t34.5 111v450h133z
" />
    <glyph glyph-name="Uring" unicode="&#x16e;" horiz-adv-x="710" 
d="M147.5 51.5q-72.5 66.5 -72.5 202.5v446h133v-450q0 -73 34.5 -110.5t112.5 -37.5q79 0 113.5 37t34.5 111v450h133v-446q0 -269 -281 -269q-135 0 -207.5 66.5zM274 870q33 30 81 30t80 -30t32 -77t-32 -76.5t-80 -29.5t-81 30t-33 76q0 47 33 77zM385.5 824
q-11.5 12 -30.5 12t-31.5 -12t-12.5 -31t12.5 -30.5t31.5 -11.5t30.5 11.5t11.5 30.5t-11.5 31z" />
    <glyph glyph-name="Utilde" unicode="&#x168;" horiz-adv-x="710" 
d="M147.5 51.5q-72.5 66.5 -72.5 202.5v446h133v-450q0 -73 34.5 -110.5t112.5 -37.5q79 0 113.5 37t34.5 111v450h133v-446q0 -269 -281 -269q-135 0 -207.5 66.5zM498 790.5q-25 -30.5 -67 -30.5q-25 0 -42.5 9t-41.5 26q-22 15 -34 21.5t-28 6.5q-39 0 -39 -55h-68v20
q0 59 25 89.5t67 30.5q25 0 43.5 -9t41.5 -26q19 -14 32.5 -21t28.5 -7q39 0 39 55h68v-20q0 -59 -25 -89.5z" />
    <glyph glyph-name="V" unicode="V" horiz-adv-x="684" 
d="M153 700l131 -363q25 -71 34 -105.5t14 -68.5h20q5 35 14 69t34 106l131 362h140l-258 -700h-142l-257 700h139z" />
    <glyph glyph-name="W" unicode="W" horiz-adv-x="1036" 
d="M152 700l113 -386q22 -75 24 -149h19q2 67 26 152l118 383h130l120 -387q22 -77 24 -148h18q1 27 7 66t17 78l115 391h138l-205 -700h-156l-108 353q-23 77 -26 158h-18q-3 -81 -26 -158l-107 -353h-156l-205 700h138z" />
    <glyph glyph-name="Wacute" unicode="&#x1e82;" horiz-adv-x="1036" 
d="M152 700l113 -386q22 -75 24 -149h19q2 67 26 152l118 383h130l120 -387q22 -77 24 -148h18q1 27 7 66t17 78l115 391h138l-205 -700h-156l-108 353q-23 77 -26 158h-18q-3 -81 -26 -158l-107 -353h-156l-205 700h138zM536 895h136l-112 -136h-79z" />
    <glyph glyph-name="Wcircumflex" unicode="&#x174;" horiz-adv-x="1036" 
d="M152 700l113 -386q22 -75 24 -149h19q2 67 26 152l118 383h130l120 -387q22 -77 24 -148h18q1 27 7 66t17 78l115 391h138l-205 -700h-156l-108 353q-23 77 -26 158h-18q-3 -81 -26 -158l-107 -353h-156l-205 700h138zM670 759h-103l-40 80h-17l-39 -80h-103l75 141h152z
" />
    <glyph glyph-name="Wdieresis" unicode="&#x1e84;" horiz-adv-x="1035" 
d="M152 700l113 -386q22 -75 24 -149h19q2 67 26 152l118 383h130l120 -387q22 -77 24 -148h18q1 27 7 66t17 78l115 391h138l-205 -700h-156l-108 353q-23 77 -26 158h-18q-3 -81 -26 -158l-107 -353h-156l-205 700h138zM320 901h122v-135h-122v135zM561 901h122v-135h-122
v135z" />
    <glyph glyph-name="Wgrave" unicode="&#x1e80;" horiz-adv-x="1036" 
d="M152 700l113 -386q22 -75 24 -149h19q2 67 26 152l118 383h130l120 -387q22 -77 24 -148h18q1 27 7 66t17 78l115 391h138l-205 -700h-156l-108 353q-23 77 -26 158h-18q-3 -81 -26 -158l-107 -353h-156l-205 700h138zM373 895h135l56 -136h-80z" />
    <glyph glyph-name="X" unicode="X" horiz-adv-x="703" 
d="M249 361l-196 339h149l92 -156q42 -80 47 -121h21q5 43 47 121l92 156h149l-196 -339v-12l203 -349h-149l-96 163q-25 47 -36 73t-14 51h-20q-3 -24 -14 -49t-37 -75l-96 -163h-148l202 349v12z" />
    <glyph glyph-name="Y" unicode="Y" horiz-adv-x="630" 
d="M381 235v-235h-133v236l-234 464h148l107 -216q34 -75 37 -137h19q2 33 11.5 69.5t23.5 67.5l108 216h148z" />
    <glyph glyph-name="Yacute" unicode="&#xdd;" horiz-adv-x="630" 
d="M381 235v-235h-133v236l-234 464h148l107 -216q34 -75 37 -137h19q2 33 11.5 69.5t23.5 67.5l108 216h148zM334 895h136l-112 -136h-79z" />
    <glyph glyph-name="Ycircumflex" unicode="&#x176;" horiz-adv-x="630" 
d="M381 235v-235h-133v236l-234 464h148l107 -216q34 -75 37 -137h19q2 33 11.5 69.5t23.5 67.5l108 216h148zM468 759h-103l-40 80h-17l-39 -80h-103l75 141h152z" />
    <glyph glyph-name="Ydieresis" unicode="&#x178;" horiz-adv-x="630" 
d="M381 235v-235h-133v236l-234 464h148l107 -216q34 -75 37 -137h19q2 33 11.5 69.5t23.5 67.5l108 216h148zM134 900h122v-135h-122v135zM375 900h122v-135h-122v135z" />
    <glyph glyph-name="uni1EF4" unicode="&#x1ef4;" horiz-adv-x="630" 
d="M381 235v-235h-133v236l-234 464h148l107 -216q34 -75 37 -137h19q2 33 11.5 69.5t23.5 67.5l108 216h148zM256 -75h122v-135h-122v135z" />
    <glyph glyph-name="Ygrave" unicode="&#x1ef2;" horiz-adv-x="630" 
d="M381 235v-235h-133v236l-234 464h148l107 -216q34 -75 37 -137h19q2 33 11.5 69.5t23.5 67.5l108 216h148zM171 895h135l56 -136h-80z" />
    <glyph glyph-name="uni1EF8" unicode="&#x1ef8;" horiz-adv-x="630" 
d="M381 235v-235h-133v236l-234 464h148l107 -216q34 -75 37 -137h19q2 33 11.5 69.5t23.5 67.5l108 216h148zM457 790.5q-25 -30.5 -67 -30.5q-25 0 -42.5 9t-41.5 26q-22 15 -34 21.5t-28 6.5q-39 0 -39 -55h-68v20q0 59 25 89.5t67 30.5q25 0 43.5 -9t41.5 -26
q19 -14 32.5 -21t28.5 -7q39 0 39 55h68v-20q0 -59 -25 -89.5z" />
    <glyph glyph-name="Z" unicode="Z" horiz-adv-x="622" 
d="M293 217q-34 -40 -59 -58t-49 -26v-18h382v-115h-512v148l274 336q33 39 58 57t50 26v18h-382v115h512v-148z" />
    <glyph glyph-name="Zacute" unicode="&#x179;" horiz-adv-x="622" 
d="M293 217q-34 -40 -59 -58t-49 -26v-18h382v-115h-512v148l274 336q33 39 58 57t50 26v18h-382v115h512v-148zM330 895h136l-112 -136h-79z" />
    <glyph glyph-name="Zcaron" unicode="&#x17d;" horiz-adv-x="622" 
d="M293 217q-34 -40 -59 -58t-49 -26v-18h382v-115h-512v148l274 336q33 39 58 57t50 26v18h-382v115h512v-148zM235 754l-75 141h103l39 -80h17l40 80h103l-75 -141h-152z" />
    <glyph glyph-name="Zdotaccent" unicode="&#x17b;" horiz-adv-x="622" 
d="M293 217q-34 -40 -59 -58t-49 -26v-18h382v-115h-512v148l274 336q33 39 58 57t50 26v18h-382v115h512v-148zM250 900h122v-135h-122v135z" />
    <glyph glyph-name="A.ccmp" horiz-adv-x="323" 
d="M54.5 296q-27.5 25 -27.5 68q0 48 39 74.5t103 28.5l73 2v8q0 53 -68 53q-67 0 -69 -51h-77q1 54 40.5 83.5t106.5 29.5t105.5 -29t38.5 -87v-196h-77v64h-12q-12 -36 -41 -54.5t-65 -18.5q-42 0 -69.5 25zM216.5 356q25.5 24 25.5 59v8l-68 -2q-69 -2 -69 -45
q0 -22 14 -33t37 -11q35 0 60.5 24z" />
    <glyph glyph-name="B.ccmp" horiz-adv-x="364" 
d="M332.5 548.5q32.5 -43.5 32.5 -116.5t-32.5 -117t-88.5 -44q-35 0 -61 17t-38 51l-3 8h-13v-67h-77v420h77v-183h13l3 7q12 33 38.5 50.5t60.5 17.5q56 0 88.5 -43.5zM264.5 366q19.5 26 19.5 65t-19.5 66t-57.5 27t-58 -27t-20 -66q0 -38 20 -64.5t58 -26.5t57.5 26z
" />
    <glyph glyph-name="C.ccmp" horiz-adv-x="341" 
d="M69 316q-43 45 -43 116q0 72 43 116t116 44q64 0 105.5 -36.5t46.5 -94.5h-78q-4 30 -25 47t-50 17q-35 0 -56.5 -25t-21.5 -68q0 -44 22 -69t57 -25q29 0 49.5 17t24.5 47h78q-5 -58 -46.5 -94.5t-105.5 -36.5q-73 0 -116 45z" />
    <glyph glyph-name="D.ccmp" horiz-adv-x="364" 
d="M339 700v-420h-76v67h-14l-2 -8q-12 -34 -38.5 -51t-60.5 -17q-56 0 -89 44t-33 117t33 116.5t89 43.5q34 0 60.5 -17.5t38.5 -50.5l2 -7h14v183h76zM242.5 366.5q20.5 26.5 20.5 64.5t-20.5 65.5t-58.5 27.5t-57.5 -27t-19.5 -66t19.5 -65t57.5 -26t58.5 26.5z" />
    <glyph glyph-name="E.ccmp" horiz-adv-x="351" 
d="M348 379q-16 -55 -59.5 -81.5t-99.5 -26.5q-72 0 -115 45.5t-43 115.5q0 72 41.5 116t115.5 44q73 0 113.5 -42.5t40.5 -114.5v-24h-237q3 -41 26 -60.5t59 -19.5q29 0 50.5 12t30.5 36h77zM132 517q-22 -17 -26 -51h162q-4 35 -25 51.5t-55 16.5t-56 -17z" />
    <glyph glyph-name="F.ccmp" horiz-adv-x="231" 
d="M25 525v58h59v38q0 88 85 88q35 0 71 -14v-54q-24 12 -46 12q-36 0 -36 -39v-31h82v-58h-82v-245h-74v245h-59z" />
    <glyph glyph-name="G.ccmp" horiz-adv-x="361" 
d="M47.5 181.5q-20.5 27.5 -20.5 71.5v79q0 30 15.5 46t41.5 19l5 1v12l-3 2q-40 28 -40 75q0 50 36 77.5t95 27.5h174v-47l-83 1v-12l4 -1q41 -18 41 -67q0 -47 -38.5 -70.5t-91.5 -23.5q-18 0 -36.5 3t-24.5 3q-26 0 -26 -23q0 -25 29 -25h124q52 0 77.5 -24t25.5 -65
q0 -38 -23 -62.5t-79 -24.5h-125q-57 0 -77.5 27.5zM217.5 443.5q16.5 13.5 16.5 38.5q0 24 -16.5 38t-40.5 14q-25 0 -41 -14t-16 -38q0 -25 16 -38.5t41 -13.5q24 0 40.5 13.5zM278 242q0 30 -30 30h-138q-30 0 -30 -30q0 -29 30 -29h139q29 0 29 29z" />
    <glyph glyph-name="H.ccmp" horiz-adv-x="355" 
d="M320 567q23 -25 23 -76v-211h-77v180q0 28 -10.5 46.5t-40.5 18.5q-33 0 -53 -24.5t-20 -65.5v-155h-76v420h77v-135h-1v-46h13l3 8q13 29 38 47t61 18q40 0 63 -25z" />
    <glyph glyph-name="I.ccmp" horiz-adv-x="188" 
d="M50 700h88v-81h-88v81zM56 583h76v-303h-76v303z" />
    <glyph glyph-name="J.ccmp" horiz-adv-x="173" 
d="M35 700h88v-81h-88v81zM3 211q38 0 38 46v326h76v-333q0 -49 -21.5 -72t-75.5 -23h-46v56h29z" />
    <glyph glyph-name="K.ccmp" horiz-adv-x="320" 
d="M263 280l-59 161l-78 -79v-82h-77v420h77v-263h12l1 7q3 19 10.5 34.5t23.5 34.5l71 70h102l-84 -84l85 -219h-84z" />
    <glyph glyph-name="L.ccmp" horiz-adv-x="179" 
d="M117 382q0 -22 8.5 -33t27.5 -11h12v-58h-40q-45 0 -65 24.5t-20 76.5v319h77v-318z" />
    <glyph glyph-name="M.ccmp" horiz-adv-x="502" 
d="M122 583v-56h13l2 5q10 28 32 44t55 16q37 0 58 -19.5t23 -50.5h12l3 8q12 28 34.5 45t56.5 17q40 0 63 -25.5t23 -81.5v-205h-77v172q0 30 -9 51.5t-40 21.5q-30 0 -46 -20.5t-16 -52.5v-172h-76v181q0 64 -49 64q-30 0 -46 -20.5t-16 -52.5v-172h-76v303h76z" />
    <glyph glyph-name="N.ccmp" horiz-adv-x="329" 
d="M135 519l3 8q13 29 38 47t61 18q40 0 63 -25t23 -76v-211h-77v180q0 28 -10.5 46.5t-40.5 18.5q-33 0 -53 -24.5t-20 -65.5v-155h-76v303h76v-64h13z" />
    <glyph glyph-name="O.ccmp" horiz-adv-x="379" 
d="M72 316.5q-45 45.5 -45 115.5q0 71 45 115.5t118 44.5q72 0 117 -44.5t45 -115.5q0 -70 -45 -115.5t-117 -45.5q-73 0 -118 45.5zM130.5 499q-23.5 -25 -23.5 -67q0 -43 23.5 -67.5t59.5 -24.5t59 24.5t23 67.5q0 42 -23 67t-59 25t-59.5 -25z" />
    <glyph glyph-name="P.ccmp" horiz-adv-x="364" 
d="M326.5 548.5q32.5 -43.5 32.5 -116.5t-32.5 -117t-88.5 -44q-35 0 -61 17t-38 51l-3 8h-13v-191h-77v427h77v-66h13l3 7q12 33 38.5 50.5t60.5 17.5q56 0 88.5 -43.5zM258.5 366q19.5 26 19.5 65t-19.5 66t-57.5 27t-58 -27t-20 -66q0 -38 20 -64.5t58 -26.5t57.5 26z
" />
    <glyph glyph-name="Q.ccmp" horiz-adv-x="364" 
d="M339 583v-427h-76v191h-14l-2 -8q-12 -34 -38.5 -51t-60.5 -17q-56 0 -89 44t-33 117t33 116.5t89 43.5q34 0 60.5 -17.5t38.5 -50.5l2 -7h14v66h76zM242.5 366.5q20.5 26.5 20.5 64.5t-20.5 65.5t-58.5 27.5t-57.5 -27t-19.5 -66t19.5 -65t57.5 -26t58.5 26.5z" />
    <glyph glyph-name="R.ccmp" horiz-adv-x="246" 
d="M122 583v-71h13l1 7q9 37 34.5 55t58.5 18q14 0 26 -3v-70h-50q-46 0 -64.5 -30t-18.5 -72v-137h-76v303h76z" />
    <glyph glyph-name="S.ccmp" horiz-adv-x="316" 
d="M131 340.5q16 -11.5 41 -11.5q23 0 36.5 10t13.5 27q0 29 -41 36l-45 6q-51 7 -76.5 32.5t-25.5 60.5q0 44 35 67.5t92 23.5q61 0 98 -27t44 -80h-77q-8 49 -67 49q-51 0 -51 -32q0 -14 11 -23.5t26 -11.5l53 -8q98 -15 98 -91q0 -44 -33.5 -70.5t-90.5 -26.5
q-56 0 -94 27.5t-43 75.5h76q4 -22 20 -33.5z" />
    <glyph glyph-name="T.ccmp" horiz-adv-x="225" 
d="M81 371v154h-59v58h59v66l77 12v-78h79v-58h-79v-135q0 -30 7.5 -43.5t29.5 -13.5q19 0 42 10v-58q-32 -14 -69 -14q-87 0 -87 100z" />
    <glyph glyph-name="U.ccmp" horiz-adv-x="329" 
d="M229 344l-3 -8q-13 -29 -38.5 -47t-60.5 -18q-41 0 -63.5 25t-22.5 76v211h77v-180q0 -28 10 -46.5t41 -18.5q33 0 52.5 24.5t19.5 65.5v155h77v-303h-77v64h-12z" />
    <glyph glyph-name="V.ccmp" horiz-adv-x="313" 
d="M101 583l47 -125q22 -61 22 -98h12q2 38 22 98l47 125h79l-108 -303h-92l-109 303h80z" />
    <glyph glyph-name="W.ccmp" horiz-adv-x="451" 
d="M392 280h-95l-44 146q-8 40 -8 65h-12q0 -33 -8 -65l-44 -146h-95l-81 303h78l45 -162q4 -16 3.5 -31t-0.5 -21h13v19t5 33l49 162h81l48 -158q4 -15 5.5 -28.5t1.5 -27.5h12v19.5t4 37.5l45 157h78z" />
    <glyph glyph-name="X.ccmp" horiz-adv-x="329" 
d="M253 280l-40 64q-10 21 -13.5 33t-6.5 26h-11q-3 -15 -6.5 -27t-13.5 -33l-41 -63h-87l93 151l-93 152h87l39 -61q16 -31 22 -62h11q3 17 6.5 29t14.5 33l39 61h88l-93 -152l93 -151h-88z" />
    <glyph glyph-name="Y.ccmp" horiz-adv-x="312" 
d="M68 213q23 0 32.5 8.5t17.5 29.5l12 33l-108 299h80l47 -125q20 -60 22 -98h11q2 39 23 98l46 125h80l-114 -316q-21 -62 -48 -87.5t-80 -25.5h-58v59h37z" />
    <glyph glyph-name="Z.ccmp" horiz-adv-x="306" 
d="M177 389q-27 -32 -56 -40v-12h164v-57h-243v63l107 130q27 33 59 41v12h-166v57h243v-63z" />
    <glyph glyph-name="a" unicode="a" 
d="M91 27q-46 42 -46 113q0 79 65 124t171 47l123 4v13q0 47 -29.5 67.5t-84.5 20.5q-110 0 -115 -85h-128q1 91 67 140t177 49q112 0 176.5 -48.5t64.5 -144.5v-327h-128v107h-21q-19 -59 -68 -90.5t-108 -31.5q-70 0 -116 42zM331.5 104.5q33.5 17.5 53 49.5t19.5 71v13
l-113 -3q-117 -2 -117 -74q0 -36 24 -55t62 -19t71.5 17.5z" />
    <glyph glyph-name="aacute" unicode="&#xe1;" 
d="M91 27q-46 42 -46 113q0 79 65 124t171 47l123 4v13q0 47 -29.5 67.5t-84.5 20.5q-110 0 -115 -85h-128q1 91 67 140t177 49q112 0 176.5 -48.5t64.5 -144.5v-327h-128v107h-21q-19 -59 -68 -90.5t-108 -31.5q-70 0 -116 42zM331.5 104.5q33.5 17.5 53 49.5t19.5 71v13
l-113 -3q-117 -2 -117 -74q0 -36 24 -55t62 -19t71.5 17.5zM308 695h136l-112 -136h-79z" />
    <glyph glyph-name="abreve" unicode="&#x103;" 
d="M91 27q-46 42 -46 113q0 79 65 124t171 47l123 4v13q0 47 -29.5 67.5t-84.5 20.5q-110 0 -115 -85h-128q1 91 67 140t177 49q112 0 176.5 -48.5t64.5 -144.5v-327h-128v107h-21q-19 -59 -68 -90.5t-108 -31.5q-70 0 -116 42zM331.5 104.5q33.5 17.5 53 49.5t19.5 71v13
l-113 -3q-117 -2 -117 -74q0 -36 24 -55t62 -19t71.5 17.5zM247.5 650.5q14.5 -18.5 42.5 -18.5q27 0 41 18.5t14 49.5h86q0 -70 -36.5 -108.5t-104.5 -38.5q-69 0 -106 38.5t-37 108.5h86q0 -31 14.5 -49.5z" />
    <glyph glyph-name="uni01CE" unicode="&#x1ce;" 
d="M91 27q-46 42 -46 113q0 79 65 124t171 47l123 4v13q0 47 -29.5 67.5t-84.5 20.5q-110 0 -115 -85h-128q1 91 67 140t177 49q112 0 176.5 -48.5t64.5 -144.5v-327h-128v107h-21q-19 -59 -68 -90.5t-108 -31.5q-70 0 -116 42zM331.5 104.5q33.5 17.5 53 49.5t19.5 71v13
l-113 -3q-117 -2 -117 -74q0 -36 24 -55t62 -19t71.5 17.5zM214 554l-75 141h103l39 -80h17l40 80h103l-75 -141h-152z" />
    <glyph glyph-name="acircumflex" unicode="&#xe2;" 
d="M91 27q-46 42 -46 113q0 79 65 124t171 47l123 4v13q0 47 -29.5 67.5t-84.5 20.5q-110 0 -115 -85h-128q1 91 67 140t177 49q112 0 176.5 -48.5t64.5 -144.5v-327h-128v107h-21q-19 -59 -68 -90.5t-108 -31.5q-70 0 -116 42zM331.5 104.5q33.5 17.5 53 49.5t19.5 71v13
l-113 -3q-117 -2 -117 -74q0 -36 24 -55t62 -19t71.5 17.5zM443 559h-103l-40 80h-17l-39 -80h-103l75 141h152z" />
    <glyph glyph-name="adieresis" unicode="&#xe4;" 
d="M91 27q-46 42 -46 113q0 79 65 124t171 47l123 4v13q0 47 -29.5 67.5t-84.5 20.5q-110 0 -115 -85h-128q1 91 67 140t177 49q112 0 176.5 -48.5t64.5 -144.5v-327h-128v107h-21q-19 -59 -68 -90.5t-108 -31.5q-70 0 -116 42zM331.5 104.5q33.5 17.5 53 49.5t19.5 71v13
l-113 -3q-117 -2 -117 -74q0 -36 24 -55t62 -19t71.5 17.5zM108 700h122v-135h-122v135zM349 700h122v-135h-122v135z" />
    <glyph glyph-name="uni1EA1" unicode="&#x1ea1;" 
d="M91 27q-46 42 -46 113q0 79 65 124t171 47l123 4v13q0 47 -29.5 67.5t-84.5 20.5q-110 0 -115 -85h-128q1 91 67 140t177 49q112 0 176.5 -48.5t64.5 -144.5v-327h-128v107h-21q-19 -59 -68 -90.5t-108 -31.5q-70 0 -116 42zM331.5 104.5q33.5 17.5 53 49.5t19.5 71v13
l-113 -3q-117 -2 -117 -74q0 -36 24 -55t62 -19t71.5 17.5zM229 -75h122v-135h-122v135z" />
    <glyph glyph-name="agrave" unicode="&#xe0;" 
d="M91 27q-46 42 -46 113q0 79 65 124t171 47l123 4v13q0 47 -29.5 67.5t-84.5 20.5q-110 0 -115 -85h-128q1 91 67 140t177 49q112 0 176.5 -48.5t64.5 -144.5v-327h-128v107h-21q-19 -59 -68 -90.5t-108 -31.5q-70 0 -116 42zM331.5 104.5q33.5 17.5 53 49.5t19.5 71v13
l-113 -3q-117 -2 -117 -74q0 -36 24 -55t62 -19t71.5 17.5zM146 695h135l56 -136h-80z" />
    <glyph glyph-name="amacron" unicode="&#x101;" 
d="M91 27q-46 42 -46 113q0 79 65 124t171 47l123 4v13q0 47 -29.5 67.5t-84.5 20.5q-110 0 -115 -85h-128q1 91 67 140t177 49q112 0 176.5 -48.5t64.5 -144.5v-327h-128v107h-21q-19 -59 -68 -90.5t-108 -31.5q-70 0 -116 42zM331.5 104.5q33.5 17.5 53 49.5t19.5 71v13
l-113 -3q-117 -2 -117 -74q0 -36 24 -55t62 -19t71.5 17.5zM434 695v-86h-290v86h290z" />
    <glyph glyph-name="aogonek" unicode="&#x105;" 
d="M442 -90q0 -18 11.5 -28.5t29.5 -10.5q21 0 41 12v-78q-42 -14 -68 -14q-44 0 -75.5 24t-30.5 68q2 77 104 117h-50v107h-21q-19 -59 -68 -90.5t-108 -31.5q-70 0 -116 42t-46 113q0 79 65 124t171 47l123 4v13q0 47 -29.5 67.5t-84.5 20.5q-110 0 -115 -85h-128
q1 91 67 140t177 49q112 0 176.5 -48.5t64.5 -144.5v-327l-29 -14q-61 -29 -61 -76zM404 238l-113 -3q-117 -2 -117 -74q0 -36 24 -55t62 -19t71.5 17.5t53 49.5t19.5 71v13z" />
    <glyph glyph-name="aring" unicode="&#xe5;" 
d="M488.5 452q43.5 -47 43.5 -125v-327h-128v107h-21q-19 -59 -68 -90.5t-108 -31.5q-70 0 -116 42t-46 113q0 79 65 124t171 47l123 4v13q0 47 -29.5 67.5t-84.5 20.5q-110 0 -115 -85h-128q1 73 45 120t121 62q-18 14 -28 34.5t-10 45.5q0 47 33 77t81 30t80 -30t32 -77
q0 -25 -9 -45t-26 -34q79 -15 122.5 -62zM257.5 624q-12.5 -12 -12.5 -31t12.5 -30.5t31.5 -11.5t30.5 11.5t11.5 30.5t-11.5 31t-30.5 12t-31.5 -12zM404 238l-113 -3q-117 -2 -117 -74q0 -36 24 -55t62 -19t71.5 17.5t53 49.5t19.5 71v13z" />
    <glyph glyph-name="atilde" unicode="&#xe3;" 
d="M91 27q-46 42 -46 113q0 79 65 124t171 47l123 4v13q0 47 -29.5 67.5t-84.5 20.5q-110 0 -115 -85h-128q1 91 67 140t177 49q112 0 176.5 -48.5t64.5 -144.5v-327h-128v107h-21q-19 -59 -68 -90.5t-108 -31.5q-70 0 -116 42zM331.5 104.5q33.5 17.5 53 49.5t19.5 71v13
l-113 -3q-117 -2 -117 -74q0 -36 24 -55t62 -19t71.5 17.5zM432 590.5q-25 -30.5 -67 -30.5q-25 0 -42.5 9t-41.5 26q-22 15 -34 21.5t-28 6.5q-39 0 -39 -55h-68v20q0 59 25 89.5t67 30.5q25 0 43.5 -9t41.5 -26q19 -14 32.5 -21t28.5 -7q39 0 39 55h68v-20
q0 -59 -25 -89.5z" />
    <glyph glyph-name="ae" unicode="&#xe6;" horiz-adv-x="977" 
d="M92.5 27q-47.5 42 -47.5 115q0 79 60.5 122.5t173.5 46.5l125 3v17q0 46 -29.5 65.5t-84.5 19.5q-110 0 -115 -85h-128q1 91 67 140t173 49q51 0 86 -11t54.5 -25t42.5 -35h20q35 31 83.5 51t109.5 20q115 0 180.5 -71t65.5 -190v-41h-396q3 -67 42.5 -99.5t101.5 -32.5
q47 0 84 19t52 59h128q-28 -90 -101 -134.5t-166 -44.5q-77 0 -136 33t-97 93h-21q-28 -64 -82 -95t-118 -31q-80 0 -127.5 42zM767.5 395.5q-35.5 28.5 -94.5 28.5t-97 -29.5t-42 -84.5h273q-4 57 -39.5 85.5zM366.5 128.5q37.5 41.5 37.5 105.5v4l-113 -3
q-117 -2 -117 -74q0 -36 26.5 -55t67.5 -19q61 0 98.5 41.5z" />
    <glyph glyph-name="b" unicode="b" horiz-adv-x="639" 
d="M507.5 487q45.5 -33 70 -93.5t24.5 -140.5t-24.5 -140.5t-70 -94t-107.5 -33.5q-57 0 -101.5 28.5t-64.5 84.5l-4 13h-22v-111h-128v700h128v-306h22l4 13q20 56 64.5 84.5t101.5 28.5q62 0 107.5 -33zM433.5 142.5q32.5 43.5 32.5 109.5q0 65 -32.5 109.5t-95.5 44.5
t-96.5 -45t-33.5 -109t33.5 -108.5t96.5 -44.5t95.5 43.5z" />
    <glyph glyph-name="c" unicode="c" horiz-adv-x="592" 
d="M161 19.5q-60 34.5 -92 95.5t-32 139t32 138.5t91.5 94t140.5 33.5q71 0 127 -27.5t89.5 -77t38.5 -113.5h-131q-6 50 -41 78t-84 28q-58 0 -94 -41t-36 -114t36.5 -114.5t94.5 -41.5q48 0 83 28t41 78h131q-6 -63 -39.5 -112.5t-89 -77.5t-126.5 -28q-80 0 -140 34.5z
" />
    <glyph glyph-name="cacute" unicode="&#x107;" horiz-adv-x="592" 
d="M161 19.5q-60 34.5 -92 95.5t-32 139t32 138.5t91.5 94t140.5 33.5q71 0 127 -27.5t89.5 -77t38.5 -113.5h-131q-6 50 -41 78t-84 28q-58 0 -94 -41t-36 -114t36.5 -114.5t94.5 -41.5q48 0 83 28t41 78h131q-6 -63 -39.5 -112.5t-89 -77.5t-126.5 -28q-80 0 -140 34.5z
M316 695h136l-112 -136h-79z" />
    <glyph glyph-name="ccaron" unicode="&#x10d;" horiz-adv-x="592" 
d="M161 19.5q-60 34.5 -92 95.5t-32 139t32 138.5t91.5 94t140.5 33.5q71 0 127 -27.5t89.5 -77t38.5 -113.5h-131q-6 50 -41 78t-84 28q-58 0 -94 -41t-36 -114t36.5 -114.5t94.5 -41.5q48 0 83 28t41 78h131q-6 -63 -39.5 -112.5t-89 -77.5t-126.5 -28q-80 0 -140 34.5z
M222 554l-75 141h103l39 -80h17l40 80h103l-75 -141h-152z" />
    <glyph glyph-name="ccedilla" unicode="&#xe7;" horiz-adv-x="592" 
d="M384 125q35 28 41 78h131q-6 -63 -39.5 -112.5t-89 -77.5t-126.5 -28h-5l-8 -58h21l1 4q7 21 24 32.5t39 11.5q32 0 53.5 -22t21.5 -61q0 -51 -34 -76.5t-82 -25.5q-46 0 -76 22.5t-33 61.5l64 2q4 -17 16 -26t29 -9q20 0 32.5 12t12.5 34q0 20 -11.5 30.5t-28.5 10.5
q-30 0 -39 -33l-75 4l13 93q-93 19 -146 90t-53 172q0 78 32 138.5t91.5 94t140.5 33.5q71 0 127 -27.5t89.5 -77t38.5 -113.5h-131q-6 50 -41 78t-84 28q-58 0 -94 -41t-36 -114t36.5 -114.5t94.5 -41.5q48 0 83 28z" />
    <glyph glyph-name="cdotaccent" unicode="&#x10b;" horiz-adv-x="592" 
d="M161 19.5q-60 34.5 -92 95.5t-32 139t32 138.5t91.5 94t140.5 33.5q71 0 127 -27.5t89.5 -77t38.5 -113.5h-131q-6 50 -41 78t-84 28q-58 0 -94 -41t-36 -114t36.5 -114.5t94.5 -41.5q48 0 83 28t41 78h131q-6 -63 -39.5 -112.5t-89 -77.5t-126.5 -28q-80 0 -140 34.5z
M237 700h122v-135h-122v135z" />
    <glyph glyph-name="d" unicode="d" horiz-adv-x="639" 
d="M559 700v-700h-128v111h-22l-5 -13q-20 -56 -64 -84.5t-101 -28.5q-62 0 -108 33.5t-70.5 94t-24.5 140.5t24.5 140t70.5 93.5t108 33.5q57 0 101 -28.5t64 -84.5l5 -13h22v306h128zM397.5 143.5q33.5 44.5 33.5 108.5t-33.5 109t-96.5 45t-96 -44.5t-33 -109.5t33 -109
t96 -44t96.5 44.5z" />
    <glyph glyph-name="eth" unicode="&#xf0;" horiz-adv-x="598" 
d="M538.5 508.5q22.5 -81.5 22.5 -178.5q0 -152 -66 -248.5t-198 -96.5q-75 0 -134 32t-92.5 93t-33.5 145q0 106 53 169.5t148 63.5q55 0 101 -27t71 -86l4 -7h17q-2 70 -17 122t-47 84l-72 -48l-15 23l64 42q-36 22 -87 22q-63 0 -138 -32v92q36 18 80 30t90 12
q95 0 159 -54l81 54l16 -23l-77 -51q48 -51 70.5 -132.5zM391.5 129q36.5 42 36.5 110t-36 108t-95 40q-58 0 -93.5 -40.5t-35.5 -108.5t35 -109.5t93 -41.5q59 0 95.5 42z" />
    <glyph glyph-name="dcaron" unicode="&#x10f;" horiz-adv-x="706" 
d="M559 700v-700h-128v111h-22l-5 -13q-20 -56 -64 -84.5t-101 -28.5q-62 0 -108 33.5t-70.5 94t-24.5 140.5t24.5 140t70.5 93.5t108 33.5q57 0 101 -28.5t64 -84.5l5 -13h22v306h128zM397.5 143.5q33.5 44.5 33.5 108.5t-33.5 109t-96.5 45t-96 -44.5t-33 -109.5t33 -109
t96 -44t96.5 44.5zM778 700l-93 -169h-71l56 169h108z" />
    <glyph glyph-name="dcroat" unicode="&#x111;" horiz-adv-x="638" 
d="M619 551h-60v-551h-128v111h-22l-5 -13q-20 -56 -64 -84.5t-101 -28.5q-62 0 -108 33.5t-70.5 94t-24.5 140.5t24.5 140t70.5 93.5t108 33.5q57 0 101 -28.5t64 -84.5l5 -13h22v157h-154v88h154v61h128v-61h60v-88zM397.5 143.5q33.5 44.5 33.5 108.5t-33.5 109t-96.5 45
t-96 -44.5t-33 -109.5t33 -109t96 -44t96.5 44.5z" />
    <glyph glyph-name="uni1E0D" unicode="&#x1e0d;" horiz-adv-x="639" 
d="M559 700v-700h-128v111h-22l-5 -13q-20 -56 -64 -84.5t-101 -28.5q-62 0 -108 33.5t-70.5 94t-24.5 140.5t24.5 140t70.5 93.5t108 33.5q57 0 101 -28.5t64 -84.5l5 -13h22v306h128zM397.5 143.5q33.5 44.5 33.5 108.5t-33.5 109t-96.5 45t-96 -44.5t-33 -109.5t33 -109
t96 -44t96.5 44.5zM261 -75h122v-135h-122v135z" />
    <glyph glyph-name="e" unicode="e" horiz-adv-x="602" 
d="M565 164q-27 -90 -100 -134.5t-165 -44.5q-80 0 -140 34.5t-92 95.5t-32 138q0 79 31 139t90 94t142 34q121 0 188.5 -70.5t67.5 -190.5v-41h-395q4 -69 43 -100.5t99 -31.5q47 0 83 19.5t52 58.5h128zM205 395q-37 -29 -44 -85h269q-4 58 -39 86t-92 28t-94 -29z" />
    <glyph glyph-name="eacute" unicode="&#xe9;" horiz-adv-x="602" 
d="M565 164q-27 -90 -100 -134.5t-165 -44.5q-80 0 -140 34.5t-92 95.5t-32 138q0 79 31 139t90 94t142 34q121 0 188.5 -70.5t67.5 -190.5v-41h-395q4 -69 43 -100.5t99 -31.5q47 0 83 19.5t52 58.5h128zM205 395q-37 -29 -44 -85h269q-4 58 -39 86t-92 28t-94 -29z
M318 695h136l-112 -136h-79z" />
    <glyph glyph-name="ecaron" unicode="&#x11b;" horiz-adv-x="602" 
d="M565 164q-27 -90 -100 -134.5t-165 -44.5q-80 0 -140 34.5t-92 95.5t-32 138q0 79 31 139t90 94t142 34q121 0 188.5 -70.5t67.5 -190.5v-41h-395q4 -69 43 -100.5t99 -31.5q47 0 83 19.5t52 58.5h128zM205 395q-37 -29 -44 -85h269q-4 58 -39 86t-92 28t-94 -29z
M223 554l-75 141h103l39 -80h17l40 80h103l-75 -141h-152z" />
    <glyph glyph-name="ecircumflex" unicode="&#xea;" horiz-adv-x="602" 
d="M565 164q-27 -90 -100 -134.5t-165 -44.5q-80 0 -140 34.5t-92 95.5t-32 138q0 79 31 139t90 94t142 34q121 0 188.5 -70.5t67.5 -190.5v-41h-395q4 -69 43 -100.5t99 -31.5q47 0 83 19.5t52 58.5h128zM205 395q-37 -29 -44 -85h269q-4 58 -39 86t-92 28t-94 -29z
M452 559h-103l-40 80h-17l-39 -80h-103l75 141h152z" />
    <glyph glyph-name="edieresis" unicode="&#xeb;" horiz-adv-x="602" 
d="M565 164q-27 -90 -100 -134.5t-165 -44.5q-80 0 -140 34.5t-92 95.5t-32 138q0 79 31 139t90 94t142 34q121 0 188.5 -70.5t67.5 -190.5v-41h-395q4 -69 43 -100.5t99 -31.5q47 0 83 19.5t52 58.5h128zM205 395q-37 -29 -44 -85h269q-4 58 -39 86t-92 28t-94 -29z
M117 700h122v-135h-122v135zM358 700h122v-135h-122v135z" />
    <glyph glyph-name="edotaccent" unicode="&#x117;" horiz-adv-x="602" 
d="M565 164q-27 -90 -100 -134.5t-165 -44.5q-80 0 -140 34.5t-92 95.5t-32 138q0 79 31 139t90 94t142 34q121 0 188.5 -70.5t67.5 -190.5v-41h-395q4 -69 43 -100.5t99 -31.5q47 0 83 19.5t52 58.5h128zM205 395q-37 -29 -44 -85h269q-4 58 -39 86t-92 28t-94 -29z
M238 700h122v-135h-122v135z" />
    <glyph glyph-name="egrave" unicode="&#xe8;" horiz-adv-x="602" 
d="M565 164q-27 -90 -100 -134.5t-165 -44.5q-80 0 -140 34.5t-92 95.5t-32 138q0 79 31 139t90 94t142 34q121 0 188.5 -70.5t67.5 -190.5v-41h-395q4 -69 43 -100.5t99 -31.5q47 0 83 19.5t52 58.5h128zM205 395q-37 -29 -44 -85h269q-4 58 -39 86t-92 28t-94 -29z
M155 695h135l56 -136h-80z" />
    <glyph glyph-name="emacron" unicode="&#x113;" horiz-adv-x="602" 
d="M565 164q-27 -90 -100 -134.5t-165 -44.5q-80 0 -140 34.5t-92 95.5t-32 138q0 79 31 139t90 94t142 34q121 0 188.5 -70.5t67.5 -190.5v-41h-395q4 -69 43 -100.5t99 -31.5q47 0 83 19.5t52 58.5h128zM205 395q-37 -29 -44 -85h269q-4 58 -39 86t-92 28t-94 -29z
M443 695v-86h-290v86h290z" />
    <glyph glyph-name="eogonek" unicode="&#x119;" horiz-adv-x="602" 
d="M275 -47q-16 -19 -16 -43q0 -18 11.5 -28.5t29.5 -10.5q21 0 41 12v-78q-42 -14 -68 -14q-44 0 -75.5 24t-30.5 68q1 67 80 106q-98 16 -154.5 88.5t-56.5 175.5q0 79 31 139t90 94t142 34q121 0 188.5 -70.5t67.5 -190.5v-41h-395q4 -69 43 -100.5t99 -31.5
q47 0 83 19.5t52 58.5h128q-26 -85 -92.5 -129.5t-153.5 -49.5q-28 -13 -44 -32zM205 395q-37 -29 -44 -85h269q-4 58 -39 86t-92 28t-94 -29z" />
    <glyph glyph-name="uni1EBD" unicode="&#x1ebd;" horiz-adv-x="602" 
d="M565 164q-27 -90 -100 -134.5t-165 -44.5q-80 0 -140 34.5t-92 95.5t-32 138q0 79 31 139t90 94t142 34q121 0 188.5 -70.5t67.5 -190.5v-41h-395q4 -69 43 -100.5t99 -31.5q47 0 83 19.5t52 58.5h128zM205 395q-37 -29 -44 -85h269q-4 58 -39 86t-92 28t-94 -29z
M441 590.5q-25 -30.5 -67 -30.5q-25 0 -42.5 9t-41.5 26q-22 15 -34 21.5t-28 6.5q-39 0 -39 -55h-68v20q0 59 25 89.5t67 30.5q25 0 43.5 -9t41.5 -26q19 -14 32.5 -21t28.5 -7q39 0 39 55h68v-20q0 -59 -25 -89.5z" />
    <glyph glyph-name="f" unicode="f" horiz-adv-x="420" 
d="M24 409v96h98v63q0 76 37.5 111.5t104.5 35.5q60 0 118 -23v-90q-41 19 -77 19q-30 0 -45 -16t-15 -49v-51h137v-96h-137v-409h-123v409h-98z" />
    <glyph glyph-name="g" unicode="g" horiz-adv-x="601" 
d="M69.5 -164.5q-33.5 45.5 -33.5 119.5v132q0 51 25.5 76.5t68.5 31.5l8 1v21l-5 3q-66 45 -66 126q0 82 60.5 128.5t158.5 46.5h290v-79l-140 1v-20l7 -2q69 -30 69 -111q0 -53 -31.5 -88.5t-80.5 -52t-105 -16.5q-30 0 -72 7q-22 4 -30 4q-43 0 -43 -39q0 -41 48 -41h208
q87 0 129 -40.5t42 -107.5q0 -63 -38.5 -104.5t-131.5 -41.5h-209q-95 0 -128.5 45.5zM353 273q27 23 27 63q0 41 -27 64t-68 23t-68.5 -23t-27.5 -64t27 -63.5t69 -22.5q41 0 68 23zM453 -63q0 49 -49 49h-231q-49 0 -49 -49t49 -49h231q49 0 49 49z" />
    <glyph glyph-name="gbreve" unicode="&#x11f;" horiz-adv-x="601" 
d="M69.5 -164.5q-33.5 45.5 -33.5 119.5v132q0 51 25.5 76.5t68.5 31.5l8 1v21l-5 3q-66 45 -66 126q0 82 60.5 128.5t158.5 46.5h290v-79l-140 1v-20l7 -2q69 -30 69 -111q0 -53 -31.5 -88.5t-80.5 -52t-105 -16.5q-30 0 -72 7q-22 4 -30 4q-43 0 -43 -39q0 -41 48 -41h208
q87 0 129 -40.5t42 -107.5q0 -63 -38.5 -104.5t-131.5 -41.5h-209q-95 0 -128.5 45.5zM353 273q27 23 27 63q0 41 -27 64t-68 23t-68.5 -23t-27.5 -64t27 -63.5t69 -22.5q41 0 68 23zM453 -63q0 49 -49 49h-231q-49 0 -49 -49t49 -49h231q49 0 49 49zM258.5 655.5
q14.5 -18.5 42.5 -18.5q27 0 41 18.5t14 49.5h86q0 -70 -36.5 -108.5t-104.5 -38.5q-69 0 -106 38.5t-37 108.5h86q0 -31 14.5 -49.5z" />
    <glyph glyph-name="gcaron" unicode="&#x1e7;" horiz-adv-x="601" 
d="M69.5 -164.5q-33.5 45.5 -33.5 119.5v132q0 51 25.5 76.5t68.5 31.5l8 1v21l-5 3q-66 45 -66 126q0 82 60.5 128.5t158.5 46.5h290v-79l-140 1v-20l7 -2q69 -30 69 -111q0 -53 -31.5 -88.5t-80.5 -52t-105 -16.5q-30 0 -72 7q-22 4 -30 4q-43 0 -43 -39q0 -41 48 -41h208
q87 0 129 -40.5t42 -107.5q0 -63 -38.5 -104.5t-131.5 -41.5h-209q-95 0 -128.5 45.5zM353 273q27 23 27 63q0 41 -27 64t-68 23t-68.5 -23t-27.5 -64t27 -63.5t69 -22.5q41 0 68 23zM453 -63q0 49 -49 49h-231q-49 0 -49 -49t49 -49h231q49 0 49 49zM225 559l-75 141h103
l39 -80h17l40 80h103l-75 -141h-152z" />
    <glyph glyph-name="uni0123" unicode="&#x123;" horiz-adv-x="566" 
d="M69.5 -164.5q-33.5 45.5 -33.5 119.5v132q0 51 25.5 76.5t68.5 31.5l8 1v21l-5 3q-66 45 -66 126q0 82 60.5 128.5t158.5 46.5h290v-79l-140 1v-20l7 -2q69 -30 69 -111q0 -53 -31.5 -88.5t-80.5 -52t-105 -16.5q-30 0 -72 7q-22 4 -30 4q-43 0 -43 -39q0 -41 48 -41h208
q87 0 129 -40.5t42 -107.5q0 -63 -38.5 -104.5t-131.5 -41.5h-209q-95 0 -128.5 45.5zM353 273q27 23 27 63q0 41 -27 64t-68 23t-68.5 -23t-27.5 -64t27 -63.5t69 -22.5q41 0 68 23zM453 -63q0 49 -49 49h-231q-49 0 -49 -49t49 -49h231q49 0 49 49zM328 752
q-20 0 -27.5 -8t-7.5 -32v-27h54v-130h-122v154q0 50 21 74t71 24h30v-55h-19z" />
    <glyph glyph-name="gdotaccent" unicode="&#x121;" horiz-adv-x="566" 
d="M69.5 -164.5q-33.5 45.5 -33.5 119.5v132q0 51 25.5 76.5t68.5 31.5l8 1v21l-5 3q-66 45 -66 126q0 82 60.5 128.5t158.5 46.5h290v-79l-140 1v-20l7 -2q69 -30 69 -111q0 -53 -31.5 -88.5t-80.5 -52t-105 -16.5q-30 0 -72 7q-22 4 -30 4q-43 0 -43 -39q0 -41 48 -41h208
q87 0 129 -40.5t42 -107.5q0 -63 -38.5 -104.5t-131.5 -41.5h-209q-95 0 -128.5 45.5zM353 273q27 23 27 63q0 41 -27 64t-68 23t-68.5 -23t-27.5 -64t27 -63.5t69 -22.5q41 0 68 23zM453 -63q0 49 -49 49h-231q-49 0 -49 -49t49 -49h231q49 0 49 49zM246 700h122v-135h-122
v135z" />
    <glyph glyph-name="h" unicode="h" horiz-adv-x="606" 
d="M504 478.5q38 -41.5 38 -126.5v-352h-128v300q0 47 -17.5 77.5t-67.5 30.5q-56 0 -89 -40.5t-33 -108.5v-259h-128v505h1v195h128v-225h-1v-77h21l5 13q22 49 64 79t101 30q68 0 106 -41.5z" />
    <glyph glyph-name="hbar" unicode="&#x127;" horiz-adv-x="607" 
d="M504 478.5q38 -41.5 38 -126.5v-352h-128v300q0 47 -17.5 77.5t-67.5 30.5q-56 0 -89 -40.5t-33 -108.5v-259h-128v505h1v46h-61v88h61v61h128v-61h154v-88h-154v-76h-1v-77h21l5 13q22 49 64 79t101 30q68 0 106 -41.5z" />
    <glyph glyph-name="uni1E25" unicode="&#x1e25;" horiz-adv-x="606" 
d="M504 478.5q38 -41.5 38 -126.5v-352h-128v300q0 47 -17.5 77.5t-67.5 30.5q-56 0 -89 -40.5t-33 -108.5v-259h-128v505h1v195h128v-225h-1v-77h21l5 13q22 49 64 79t101 30q68 0 106 -41.5zM252 -75h122v-135h-122v135z" />
    <glyph glyph-name="i" unicode="i" horiz-adv-x="267" 
d="M60 700h148v-135h-148v135zM70 505h128v-505h-128v505z" />
    <glyph glyph-name="dotlessi" unicode="&#x131;" horiz-adv-x="267" 
d="M198 505v-505h-128v505h128z" />
    <glyph glyph-name="iacute" unicode="&#xed;" horiz-adv-x="267" 
d="M198 505v-505h-128v505h128zM152 700h136l-112 -136h-79z" />
    <glyph glyph-name="icircumflex" unicode="&#xee;" horiz-adv-x="267" 
d="M198 505v-505h-128v505h128zM287 564h-103l-40 80h-17l-39 -80h-103l75 141h152z" />
    <glyph glyph-name="idieresis" unicode="&#xef;" horiz-adv-x="343" 
d="M236 505v-505h-128v505h128zM-8 705h122v-135h-122v135zM233 705h122v-135h-122v135z" />
    <glyph glyph-name="i.loclTRK" horiz-adv-x="267" 
d="M198 505v-505h-128v505h128zM73 705h122v-135h-122v135z" />
    <glyph glyph-name="uni1ECB" unicode="&#x1ecb;" horiz-adv-x="267" 
d="M60 700h148v-135h-148v135zM70 505h128v-505h-128v505zM75 -75h122v-135h-122v135z" />
    <glyph glyph-name="igrave" unicode="&#xec;" horiz-adv-x="267" 
d="M198 505v-505h-128v505h128zM-10 700h135l56 -136h-80z" />
    <glyph glyph-name="imacron" unicode="&#x12b;" horiz-adv-x="267" 
d="M198 505v-505h-128v505h128zM278 700v-86h-290v86h290z" />
    <glyph glyph-name="iogonek" unicode="&#x12f;" horiz-adv-x="267" 
d="M195 705v-135h-122v135h122zM108 -90q0 -18 11.5 -28.5t29.5 -10.5q21 0 41 12v-78q-42 -14 -68 -14q-44 0 -75.5 24t-30.5 68q2 77 104 117h-50v505h128v-505l-29 -14q-61 -29 -61 -76z" />
    <glyph glyph-name="itilde" unicode="&#x129;" horiz-adv-x="267" 
d="M198 505v-505h-128v505h128zM276 595.5q-25 -30.5 -67 -30.5q-25 0 -42.5 9t-41.5 26q-22 15 -34 21.5t-28 6.5q-39 0 -39 -55h-68v20q0 59 25 89.5t67 30.5q25 0 43.5 -9t41.5 -26q19 -14 32.5 -21t28.5 -7q39 0 39 55h68v-20q0 -59 -25 -89.5z" />
    <glyph glyph-name="j" unicode="j" horiz-adv-x="273" 
d="M65 700h148v-135h-148v135zM12 -114q35 0 49 19.5t14 56.5v543h128v-555q0 -81 -36.5 -119.5t-126.5 -38.5h-75v94h47z" />
    <glyph glyph-name="k" unicode="k" horiz-adv-x="610" 
d="M437 0l-98 268l-131 -132v-136h-128v700h128v-438h20l2 11q6 33 18 59t39 56l119 117h169l-140 -141l142 -364h-140z" />
    <glyph glyph-name="uni0137" unicode="&#x137;" horiz-adv-x="610" 
d="M437 0l-98 268l-131 -132v-136h-128v700h128v-438h20l2 11q6 33 18 59t39 56l119 117h169l-140 -141l142 -364h-140zM354 -41l-93 -169h-71l56 169h108z" />
    <glyph glyph-name="l" unicode="l" horiz-adv-x="311" 
d="M198 170q0 -36 14 -54.5t46 -18.5h21v-97h-68q-75 0 -108 40.5t-33 127.5v532h128v-530z" />
    <glyph glyph-name="lacute" unicode="&#x13a;" horiz-adv-x="311" 
d="M198 170q0 -36 14 -54.5t46 -18.5h21v-97h-68q-75 0 -108 40.5t-33 127.5v532h128v-530zM167 919h136l-112 -136h-79z" />
    <glyph glyph-name="lcaron" unicode="&#x13e;" horiz-adv-x="345" 
d="M198 170q0 -36 14 -54.5t46 -18.5h21v-97h-68q-75 0 -108 40.5t-33 127.5v532h128v-530zM417 700l-93 -169h-71l56 169h108z" />
    <glyph glyph-name="uni013C" unicode="&#x13c;" horiz-adv-x="311" 
d="M198 170q0 -36 14 -54.5t46 -18.5h21v-97h-68q-75 0 -108 40.5t-33 127.5v532h128v-530zM251 -41l-93 -169h-71l56 169h108z" />
    <glyph glyph-name="lslash" unicode="&#x142;" horiz-adv-x="318" 
d="M284 97v-97h-68q-75 0 -108 40.5t-33 127.5v116l-65 -28v80l65 28v336h128v-280l75 33v-80l-75 -33v-170q0 -37 13.5 -55t46.5 -18h21z" />
    <glyph glyph-name="m" unicode="m" horiz-adv-x="887" 
d="M197 505v-94h21l3 8q17 47 54 74t92 27q62 0 96.5 -32.5t38.5 -83.5h20l5 12q19 47 56.5 75.5t95.5 28.5q66 0 104.5 -42.5t38.5 -135.5v-342h-128v287q0 50 -15 85.5t-67 35.5q-50 0 -76.5 -34t-26.5 -87v-287h-127v301q0 107 -81 107q-50 0 -77 -34.5t-27 -86.5v-287
h-128v505h128z" />
    <glyph glyph-name="n" unicode="n" 
d="M218 398l5 13q22 49 64 79t101 30q68 0 106 -41.5t38 -126.5v-352h-128v300q0 47 -17.5 77.5t-67.5 30.5q-56 0 -89 -40.5t-33 -108.5v-259h-128v505h128v-107h21z" />
    <glyph glyph-name="nacute" unicode="&#x144;" 
d="M218 398l5 13q22 49 64 79t101 30q68 0 106 -41.5t38 -126.5v-352h-128v300q0 47 -17.5 77.5t-67.5 30.5q-56 0 -89 -40.5t-33 -108.5v-259h-128v505h128v-107h21zM320 700h136l-112 -136h-79z" />
    <glyph glyph-name="ncaron" unicode="&#x148;" 
d="M218 398l5 13q22 49 64 79t101 30q68 0 106 -41.5t38 -126.5v-352h-128v300q0 47 -17.5 77.5t-67.5 30.5q-56 0 -89 -40.5t-33 -108.5v-259h-128v505h128v-107h21zM225 559l-75 141h103l39 -80h17l40 80h103l-75 -141h-152z" />
    <glyph glyph-name="uni0146" unicode="&#x146;" 
d="M218 398l5 13q22 49 64 79t101 30q68 0 106 -41.5t38 -126.5v-352h-128v300q0 47 -17.5 77.5t-67.5 30.5q-56 0 -89 -40.5t-33 -108.5v-259h-128v505h128v-107h21zM355 -41l-93 -169h-71l56 169h108z" />
    <glyph glyph-name="eng" unicode="&#x14b;" horiz-adv-x="596" 
d="M494 478.5q38 -41.5 38 -126.5v-402q0 -81 -37 -119.5t-127 -38.5h-75v94h48q34 0 48.5 19.5t14.5 56.5v338q0 47 -17.5 77.5t-67.5 30.5q-56 0 -89 -40.5t-33 -108.5v-259h-128v505h128v-107h21l5 13q22 49 64 79t101 30q68 0 106 -41.5z" />
    <glyph glyph-name="ntilde" unicode="&#xf1;" 
d="M218 398l5 13q22 49 64 79t101 30q68 0 106 -41.5t38 -126.5v-352h-128v300q0 47 -17.5 77.5t-67.5 30.5q-56 0 -89 -40.5t-33 -108.5v-259h-128v505h128v-107h21zM443 595.5q-25 -30.5 -67 -30.5q-25 0 -42.5 9t-41.5 26q-22 15 -34 21.5t-28 6.5q-39 0 -39 -55h-68v20
q0 59 25 89.5t67 30.5q25 0 43.5 -9t41.5 -26q19 -14 32.5 -21t28.5 -7q39 0 39 55h68v-20q0 -59 -25 -89.5z" />
    <glyph glyph-name="o" unicode="o" horiz-adv-x="616" 
d="M165.5 19.5q-61.5 34.5 -95.5 95.5t-34 138q0 78 34 138.5t95.5 94.5t142.5 34q80 0 141.5 -34t95.5 -94.5t34 -138.5q0 -77 -34 -138t-95.5 -95.5t-141.5 -34.5q-81 0 -142.5 34.5zM209 365q-39 -41 -39 -112q0 -72 39 -113t99 -41t99 41t39 113q0 71 -39 112t-99 41
t-99 -41z" />
    <glyph glyph-name="oacute" unicode="&#xf3;" horiz-adv-x="616" 
d="M165.5 19.5q-61.5 34.5 -95.5 95.5t-34 138q0 78 34 138.5t95.5 94.5t142.5 34q80 0 141.5 -34t95.5 -94.5t34 -138.5q0 -77 -34 -138t-95.5 -95.5t-141.5 -34.5q-81 0 -142.5 34.5zM209 365q-39 -41 -39 -112q0 -72 39 -113t99 -41t99 41t39 113q0 71 -39 112t-99 41
t-99 -41zM327 695h136l-112 -136h-79z" />
    <glyph glyph-name="uni01D2" unicode="&#x1d2;" horiz-adv-x="616" 
d="M165.5 19.5q-61.5 34.5 -95.5 95.5t-34 138q0 78 34 138.5t95.5 94.5t142.5 34q80 0 141.5 -34t95.5 -94.5t34 -138.5q0 -77 -34 -138t-95.5 -95.5t-141.5 -34.5q-81 0 -142.5 34.5zM209 365q-39 -41 -39 -112q0 -72 39 -113t99 -41t99 41t39 113q0 71 -39 112t-99 41
t-99 -41zM232 554l-75 141h103l39 -80h17l40 80h103l-75 -141h-152z" />
    <glyph glyph-name="ocircumflex" unicode="&#xf4;" horiz-adv-x="616" 
d="M165.5 19.5q-61.5 34.5 -95.5 95.5t-34 138q0 78 34 138.5t95.5 94.5t142.5 34q80 0 141.5 -34t95.5 -94.5t34 -138.5q0 -77 -34 -138t-95.5 -95.5t-141.5 -34.5q-81 0 -142.5 34.5zM209 365q-39 -41 -39 -112q0 -72 39 -113t99 -41t99 41t39 113q0 71 -39 112t-99 41
t-99 -41zM461 559h-103l-40 80h-17l-39 -80h-103l75 141h152z" />
    <glyph glyph-name="odieresis" unicode="&#xf6;" horiz-adv-x="616" 
d="M165.5 19.5q-61.5 34.5 -95.5 95.5t-34 138q0 78 34 138.5t95.5 94.5t142.5 34q80 0 141.5 -34t95.5 -94.5t34 -138.5q0 -77 -34 -138t-95.5 -95.5t-141.5 -34.5q-81 0 -142.5 34.5zM209 365q-39 -41 -39 -112q0 -72 39 -113t99 -41t99 41t39 113q0 71 -39 112t-99 41
t-99 -41zM127 700h122v-135h-122v135zM368 700h122v-135h-122v135z" />
    <glyph glyph-name="uni1ECD" unicode="&#x1ecd;" horiz-adv-x="616" 
d="M165.5 19.5q-61.5 34.5 -95.5 95.5t-34 138q0 78 34 138.5t95.5 94.5t142.5 34q80 0 141.5 -34t95.5 -94.5t34 -138.5q0 -77 -34 -138t-95.5 -95.5t-141.5 -34.5q-81 0 -142.5 34.5zM209 365q-39 -41 -39 -112q0 -72 39 -113t99 -41t99 41t39 113q0 71 -39 112t-99 41
t-99 -41zM249 -75h122v-135h-122v135z" />
    <glyph glyph-name="ograve" unicode="&#xf2;" horiz-adv-x="616" 
d="M165.5 19.5q-61.5 34.5 -95.5 95.5t-34 138q0 78 34 138.5t95.5 94.5t142.5 34q80 0 141.5 -34t95.5 -94.5t34 -138.5q0 -77 -34 -138t-95.5 -95.5t-141.5 -34.5q-81 0 -142.5 34.5zM209 365q-39 -41 -39 -112q0 -72 39 -113t99 -41t99 41t39 113q0 71 -39 112t-99 41
t-99 -41zM164 695h135l56 -136h-80z" />
    <glyph glyph-name="ohungarumlaut" unicode="&#x151;" horiz-adv-x="616" 
d="M165.5 19.5q-61.5 34.5 -95.5 95.5t-34 138q0 78 34 138.5t95.5 94.5t142.5 34q80 0 141.5 -34t95.5 -94.5t34 -138.5q0 -77 -34 -138t-95.5 -95.5t-141.5 -34.5q-81 0 -142.5 34.5zM209 365q-39 -41 -39 -112q0 -72 39 -113t99 -41t99 41t39 113q0 71 -39 112t-99 41
t-99 -41zM211 695h125l-111 -136h-69zM405 695h125l-111 -136h-69z" />
    <glyph glyph-name="omacron" unicode="&#x14d;" horiz-adv-x="616" 
d="M165.5 19.5q-61.5 34.5 -95.5 95.5t-34 138q0 78 34 138.5t95.5 94.5t142.5 34q80 0 141.5 -34t95.5 -94.5t34 -138.5q0 -77 -34 -138t-95.5 -95.5t-141.5 -34.5q-81 0 -142.5 34.5zM209 365q-39 -41 -39 -112q0 -72 39 -113t99 -41t99 41t39 113q0 71 -39 112t-99 41
t-99 -41zM452 695v-86h-290v86h290z" />
    <glyph glyph-name="oslash" unicode="&#xf8;" horiz-adv-x="616" 
d="M551 380q28 -57 28 -127q0 -77 -34 -138t-95.5 -95.5t-141.5 -34.5q-69 0 -128 27l-43 -67h-33l51 81q-57 35 -88 94t-31 133q0 78 34 138.5t95.5 94.5t142.5 34q77 0 140 -33l43 68h33l-52 -82q51 -36 79 -93zM221 129l162 256q-32 21 -75 21q-60 0 -99 -41t-39 -112
q0 -83 51 -124zM407 140q39 41 39 113q0 71 -41 114l-161 -254q30 -14 64 -14q60 0 99 41z" />
    <glyph glyph-name="otilde" unicode="&#xf5;" horiz-adv-x="616" 
d="M165.5 19.5q-61.5 34.5 -95.5 95.5t-34 138q0 78 34 138.5t95.5 94.5t142.5 34q80 0 141.5 -34t95.5 -94.5t34 -138.5q0 -77 -34 -138t-95.5 -95.5t-141.5 -34.5q-81 0 -142.5 34.5zM209 365q-39 -41 -39 -112q0 -72 39 -113t99 -41t99 41t39 113q0 71 -39 112t-99 41
t-99 -41zM450 590.5q-25 -30.5 -67 -30.5q-25 0 -42.5 9t-41.5 26q-22 15 -34 21.5t-28 6.5q-39 0 -39 -55h-68v20q0 59 25 89.5t67 30.5q25 0 43.5 -9t41.5 -26q19 -14 32.5 -21t28.5 -7q39 0 39 55h68v-20q0 -59 -25 -89.5z" />
    <glyph glyph-name="oe" unicode="&#x153;" horiz-adv-x="1020" 
d="M162 19.5q-61 34.5 -93.5 95.5t-32.5 138q0 78 32.5 138.5t93 94.5t141.5 34q68 0 118 -29t80 -81h20q20 52 75.5 81t126.5 29q116 0 182.5 -70.5t66.5 -190.5v-41h-394q3 -65 40.5 -98.5t100.5 -33.5q45 0 83 17.5t54 60.5h128q-29 -90 -99.5 -134.5t-161.5 -44.5
q-70 0 -122 30.5t-80 87.5h-20q-26 -57 -77 -87.5t-121 -30.5q-80 0 -141 34.5zM716 424q-60 0 -96 -29.5t-40 -84.5h267q-10 114 -131 114zM407 140q39 41 39 113q0 71 -39 112t-99 41t-99 -41t-39 -112q0 -72 39 -113t99 -41t99 41z" />
    <glyph glyph-name="p" unicode="p" horiz-adv-x="629" 
d="M497.5 487q45.5 -33 70 -93.5t24.5 -140.5t-24.5 -140.5t-70 -94t-107.5 -33.5q-57 0 -101.5 28.5t-64.5 84.5l-4 13h-22v-318h-128v712h128v-111h22l4 13q20 56 64.5 84.5t101.5 28.5q62 0 107.5 -33zM423.5 142.5q32.5 43.5 32.5 109.5q0 65 -32.5 109.5t-95.5 44.5
t-96.5 -45t-33.5 -109t33.5 -108.5t96.5 -44.5t95.5 43.5z" />
    <glyph glyph-name="thorn" unicode="&#xfe;" horiz-adv-x="639" 
d="M507.5 487q45.5 -33 70 -93.5t24.5 -140.5t-24.5 -140.5t-70 -94t-107.5 -33.5q-57 0 -101.5 28.5t-64.5 84.5l-4 13h-22v-318h-128v907h128v-306h22l4 13q20 56 64.5 84.5t101.5 28.5q62 0 107.5 -33zM433.5 142.5q32.5 43.5 32.5 109.5q0 65 -32.5 109.5t-95.5 44.5
t-96.5 -45t-33.5 -109t33.5 -108.5t96.5 -44.5t95.5 43.5z" />
    <glyph glyph-name="q" unicode="q" horiz-adv-x="629" 
d="M559 505v-712h-128v318h-22l-5 -13q-20 -56 -64 -84.5t-101 -28.5q-62 0 -108 33.5t-70.5 94t-24.5 140.5t24.5 140t70.5 93.5t108 33.5q57 0 101 -28.5t64 -84.5l5 -13h22v111h128zM397.5 143.5q33.5 44.5 33.5 108.5t-33.5 109t-96.5 45t-96 -44.5t-33 -109.5t33 -109
t96 -44t96.5 44.5z" />
    <glyph glyph-name="r" unicode="r" horiz-adv-x="451" 
d="M197 505v-119h21l3 12q15 61 56.5 91.5t96.5 30.5q22 0 44 -5v-117h-82q-78 0 -108.5 -50t-30.5 -120v-228h-128v505h128z" />
    <glyph glyph-name="racute" unicode="&#x155;" horiz-adv-x="451" 
d="M197 505v-119h21l3 12q15 61 56.5 91.5t96.5 30.5q22 0 44 -5v-117h-82q-78 0 -108.5 -50t-30.5 -120v-228h-128v505h128zM265 700h136l-112 -136h-79z" />
    <glyph glyph-name="rcaron" unicode="&#x159;" horiz-adv-x="451" 
d="M197 505v-119h21l3 12q15 61 56.5 91.5t96.5 30.5q22 0 44 -5v-117h-82q-78 0 -108.5 -50t-30.5 -120v-228h-128v505h128zM171 559l-75 141h103l39 -80h17l40 80h103l-75 -141h-152z" />
    <glyph glyph-name="uni0157" unicode="&#x157;" horiz-adv-x="451" 
d="M197 505v-119h21l3 12q15 61 56.5 91.5t96.5 30.5q22 0 44 -5v-117h-82q-78 0 -108.5 -50t-30.5 -120v-228h-128v505h128zM188 -41l-93 -169h-71l56 169h108z" />
    <glyph glyph-name="s" unicode="s" horiz-adv-x="531" 
d="M204 100.5q26 -19.5 67 -19.5q38 0 60.5 17t22.5 46q0 49 -67 59l-76 10q-85 13 -127 55t-42 101q0 72 58 111.5t154 39.5q101 0 163.5 -45t72.5 -134h-129q-11 83 -111 83q-85 0 -85 -54q0 -24 18 -39t44 -20l88 -13q88 -14 125.5 -54.5t37.5 -97.5q0 -74 -56 -117.5
t-150 -43.5t-157 45.5t-71 126.5h125q9 -37 35 -56.5z" />
    <glyph glyph-name="sacute" unicode="&#x15b;" horiz-adv-x="531" 
d="M204 100.5q26 -19.5 67 -19.5q38 0 60.5 17t22.5 46q0 49 -67 59l-76 10q-85 13 -127 55t-42 101q0 72 58 111.5t154 39.5q101 0 163.5 -45t72.5 -134h-129q-11 83 -111 83q-85 0 -85 -54q0 -24 18 -39t44 -20l88 -13q88 -14 125.5 -54.5t37.5 -97.5q0 -74 -56 -117.5
t-150 -43.5t-157 45.5t-71 126.5h125q9 -37 35 -56.5zM281 695h136l-112 -136h-79z" />
    <glyph glyph-name="scaron" unicode="&#x161;" horiz-adv-x="531" 
d="M204 100.5q26 -19.5 67 -19.5q38 0 60.5 17t22.5 46q0 49 -67 59l-76 10q-85 13 -127 55t-42 101q0 72 58 111.5t154 39.5q101 0 163.5 -45t72.5 -134h-129q-11 83 -111 83q-85 0 -85 -54q0 -24 18 -39t44 -20l88 -13q88 -14 125.5 -54.5t37.5 -97.5q0 -74 -56 -117.5
t-150 -43.5t-157 45.5t-71 126.5h125q9 -37 35 -56.5zM187 554l-75 141h103l39 -80h17l40 80h103l-75 -141h-152z" />
    <glyph glyph-name="scedilla" unicode="&#x15f;" horiz-adv-x="531" 
d="M440.5 243.5q37.5 -40.5 37.5 -97.5q0 -74 -56 -117.5t-150 -43.5h-8l-8 -58h21l1 4q7 21 24 32.5t39 11.5q32 0 53.5 -22t21.5 -61q0 -51 -34 -76.5t-82 -25.5q-46 0 -76 22.5t-33 61.5l64 2q4 -17 16 -26t29 -9q20 0 32.5 12t12.5 34q0 20 -11.5 30.5t-28.5 10.5
q-30 0 -39 -33l-75 4l13 93q-68 15 -110.5 57.5t-49.5 107.5h125q9 -37 35 -56.5t67 -19.5q38 0 60.5 17t22.5 46q0 49 -67 59l-76 10q-85 13 -127 55t-42 101q0 72 58 111.5t154 39.5q101 0 163.5 -45t72.5 -134h-129q-11 83 -111 83q-85 0 -85 -54q0 -24 18 -39t44 -20
l88 -13q88 -14 125.5 -54.5z" />
    <glyph glyph-name="uni0219" unicode="&#x219;" horiz-adv-x="531" 
d="M204 100.5q26 -19.5 67 -19.5q38 0 60.5 17t22.5 46q0 49 -67 59l-76 10q-85 13 -127 55t-42 101q0 72 58 111.5t154 39.5q101 0 163.5 -45t72.5 -134h-129q-11 83 -111 83q-85 0 -85 -54q0 -24 18 -39t44 -20l88 -13q88 -14 125.5 -54.5t37.5 -97.5q0 -74 -56 -117.5
t-150 -43.5t-157 45.5t-71 126.5h125q9 -37 35 -56.5zM320 -41l-93 -169h-71l56 169h108z" />
    <glyph glyph-name="germandbls" unicode="&#xdf;" horiz-adv-x="662" 
d="M157.5 655q72.5 60 193.5 60t184.5 -51t63.5 -133q0 -64 -36.5 -102.5t-96.5 -50.5l-22 -3v-21l22 -2q69 -9 111.5 -51.5t42.5 -109.5q0 -58 -30.5 -101.5t-82.5 -67t-115 -22.5l-46 1v100h20q55 0 85.5 31.5t30.5 76.5t-34 73t-99 28v99q49 0 80 29.5t31 74.5
q0 41 -28.5 68.5t-87.5 27.5q-126 0 -126 -144v-465h-133v456q0 139 72.5 199z" />
    <glyph glyph-name="t" unicode="t" horiz-adv-x="421" 
d="M122 152v256h-98v97h98v110l128 20v-130h132v-97h-132v-225q0 -50 12.5 -72t48.5 -22q32 0 71 16v-97q-56 -23 -116 -23q-144 0 -144 167z" />
    <glyph glyph-name="tbar" unicode="&#x167;" horiz-adv-x="430" 
d="M250 265v-82q0 -50 12.5 -72t48.5 -22q32 0 71 16v-97q-56 -23 -116 -23q-144 0 -144 167v113h-89v65h89v78h-98v97h98v110l128 20v-130h132v-97h-132v-78h141v-65h-141z" />
    <glyph glyph-name="tcaron" unicode="&#x165;" horiz-adv-x="421" 
d="M122 152v256h-98v97h98v110l128 20v-130h132v-97h-132v-225q0 -50 12.5 -72t48.5 -22q32 0 71 16v-97q-56 -23 -116 -23q-144 0 -144 167zM488 715l-93 -169h-71l56 169h108z" />
    <glyph glyph-name="uni0163" unicode="&#x163;" horiz-adv-x="421" 
d="M511.5 -39q21.5 -22 21.5 -61q0 -51 -34 -76.5t-82 -25.5q-46 0 -76 22.5t-33 61.5l64 2q4 -17 16 -26t29 -9q20 0 32.5 12t12.5 34q0 20 -11.5 30.5t-28.5 10.5q-30 0 -39 -33l-75 4l11 83q-30 -5 -53 -5q-144 0 -144 167v256h-98v97h98v110l128 20v-130h132v-97h-132
v-225q0 -50 12.5 -72t48.5 -22q32 0 71 16v-97h1l-10 -73h21l1 4q7 21 24 32.5t39 11.5q32 0 53.5 -22z" />
    <glyph glyph-name="uni021B" unicode="&#x21b;" horiz-adv-x="421" 
d="M122 152v256h-98v97h98v110l128 20v-130h132v-97h-132v-225q0 -50 12.5 -72t48.5 -22q32 0 71 16v-97q-56 -23 -116 -23q-144 0 -144 167zM311 -41l-93 -169h-71l56 169h108z" />
    <glyph glyph-name="u" unicode="u" 
d="M374 94q-22 -49 -64 -79t-101 -30q-68 0 -106 41.5t-38 126.5v352h128v-300q0 -47 17.5 -77.5t67.5 -30.5q56 0 89 40.5t33 108.5v259h128v-505h-128v107h-21z" />
    <glyph glyph-name="uacute" unicode="&#xfa;" 
d="M374 94q-22 -49 -64 -79t-101 -30q-68 0 -106 41.5t-38 126.5v352h128v-300q0 -47 17.5 -77.5t67.5 -30.5q56 0 89 40.5t33 108.5v259h128v-505h-128v107h-21zM305 700h136l-112 -136h-79z" />
    <glyph glyph-name="uni01D4" unicode="&#x1d4;" 
d="M374 94q-22 -49 -64 -79t-101 -30q-68 0 -106 41.5t-38 126.5v352h128v-300q0 -47 17.5 -77.5t67.5 -30.5q56 0 89 40.5t33 108.5v259h128v-505h-128v107h-21zM210 559l-75 141h103l39 -80h17l40 80h103l-75 -141h-152z" />
    <glyph glyph-name="ucircumflex" unicode="&#xfb;" 
d="M374 94q-22 -49 -64 -79t-101 -30q-68 0 -106 41.5t-38 126.5v352h128v-300q0 -47 17.5 -77.5t67.5 -30.5q56 0 89 40.5t33 108.5v259h128v-505h-128v107h-21zM439 564h-103l-40 80h-17l-39 -80h-103l75 141h152z" />
    <glyph glyph-name="udieresis" unicode="&#xfc;" horiz-adv-x="596" 
d="M374 94q-22 -49 -64 -79t-101 -30q-68 0 -106 41.5t-38 126.5v352h128v-300q0 -47 17.5 -77.5t67.5 -30.5q56 0 89 40.5t33 108.5v259h128v-505h-128v107h-21zM104 705h122v-135h-122v135zM345 705h122v-135h-122v135z" />
    <glyph glyph-name="uni1EE5" unicode="&#x1ee5;" 
d="M374 94q-22 -49 -64 -79t-101 -30q-68 0 -106 41.5t-38 126.5v352h128v-300q0 -47 17.5 -77.5t67.5 -30.5q56 0 89 40.5t33 108.5v259h128v-505h-128v107h-21zM219 -75h122v-135h-122v135z" />
    <glyph glyph-name="ugrave" unicode="&#xf9;" 
d="M374 94q-22 -49 -64 -79t-101 -30q-68 0 -106 41.5t-38 126.5v352h128v-300q0 -47 17.5 -77.5t67.5 -30.5q56 0 89 40.5t33 108.5v259h128v-505h-128v107h-21zM142 700h135l56 -136h-80z" />
    <glyph glyph-name="uhungarumlaut" unicode="&#x171;" horiz-adv-x="574" 
d="M374 94q-22 -49 -64 -79t-101 -30q-68 0 -106 41.5t-38 126.5v352h128v-300q0 -47 17.5 -77.5t67.5 -30.5q56 0 89 40.5t33 108.5v259h128v-505h-128v107h-21zM185 700h125l-111 -136h-69zM379 700h125l-111 -136h-69z" />
    <glyph glyph-name="umacron" unicode="&#x16b;" horiz-adv-x="574" 
d="M374 94q-22 -49 -64 -79t-101 -30q-68 0 -106 41.5t-38 126.5v352h128v-300q0 -47 17.5 -77.5t67.5 -30.5q56 0 89 40.5t33 108.5v259h128v-505h-128v107h-21zM431 700v-86h-290v86h290z" />
    <glyph glyph-name="uogonek" unicode="&#x173;" 
d="M528 505v-505h-11l-29 -14q-61 -29 -61 -76q0 -18 11.5 -28.5t29.5 -10.5q21 0 41 12v-78q-42 -14 -68 -14q-44 0 -75.5 24t-30.5 68q2 77 104 117h-39v107h-21l-5 -13q-22 -49 -64 -79t-101 -30q-68 0 -106 41.5t-38 126.5v352h128v-300q0 -47 17.5 -77.5t67.5 -30.5
q56 0 89 40.5t33 108.5v259h128z" />
    <glyph glyph-name="uring" unicode="&#x16f;" horiz-adv-x="574" 
d="M374 94q-22 -49 -64 -79t-101 -30q-68 0 -106 41.5t-38 126.5v352h128v-300q0 -47 17.5 -77.5t67.5 -30.5q56 0 89 40.5t33 108.5v259h128v-505h-128v107h-21zM190 696q33 30 81 30t80 -30t32 -77t-32 -76.5t-80 -29.5t-81 30t-33 76q0 47 33 77zM301.5 650
q-11.5 12 -30.5 12t-31.5 -12t-12.5 -31t12.5 -30.5t31.5 -11.5t30.5 11.5t11.5 30.5t-11.5 31z" />
    <glyph glyph-name="utilde" unicode="&#x169;" 
d="M374 94q-22 -49 -64 -79t-101 -30q-68 0 -106 41.5t-38 126.5v352h128v-300q0 -47 17.5 -77.5t67.5 -30.5q56 0 89 40.5t33 108.5v259h128v-505h-128v107h-21zM428 595.5q-25 -30.5 -67 -30.5q-25 0 -42.5 9t-41.5 26q-22 15 -34 21.5t-28 6.5q-39 0 -39 -55h-68v20
q0 59 25 89.5t67 30.5q25 0 43.5 -9t41.5 -26q19 -14 32.5 -21t28.5 -7q39 0 39 55h68v-20q0 -59 -25 -89.5z" />
    <glyph glyph-name="v" unicode="v" horiz-adv-x="562" 
d="M157 505l78 -209q35 -97 37 -162h20q2 65 37 162l77 209h133l-181 -505h-153l-181 505h133z" />
    <glyph glyph-name="w" unicode="w" horiz-adv-x="827" 
d="M668 0h-159l-72 243q-14 64 -14 109h-20q0 -56 -13 -109l-73 -243h-159l-134 505h129l76 -270q6 -23 6 -51l-1 -36h20q0 28 1.5 46t7.5 41l82 270h135l80 -263q7 -27 9 -46t2 -48h20v24t1.5 34t5.5 37l76 262h129z" />
    <glyph glyph-name="wacute" unicode="&#x1e83;" horiz-adv-x="827" 
d="M668 0h-159l-72 243q-14 64 -14 109h-20q0 -56 -13 -109l-73 -243h-159l-134 505h129l76 -270q6 -23 6 -51l-1 -36h20q0 28 1.5 46t7.5 41l82 270h135l80 -263q7 -27 9 -46t2 -48h20v24t1.5 34t5.5 37l76 262h129zM432 700h136l-112 -136h-79z" />
    <glyph glyph-name="wcircumflex" unicode="&#x175;" horiz-adv-x="827" 
d="M668 0h-159l-72 243q-14 64 -14 109h-20q0 -56 -13 -109l-73 -243h-159l-134 505h129l76 -270q6 -23 6 -51l-1 -36h20q0 28 1.5 46t7.5 41l82 270h135l80 -263q7 -27 9 -46t2 -48h20v24t1.5 34t5.5 37l76 262h129zM567 564h-103l-40 80h-17l-39 -80h-103l75 141h152z" />
    <glyph glyph-name="wdieresis" unicode="&#x1e85;" horiz-adv-x="827" 
d="M668 0h-159l-72 243q-14 64 -14 109h-20q0 -56 -13 -109l-73 -243h-159l-134 505h129l76 -270q6 -23 6 -51l-1 -36h20q0 28 1.5 46t7.5 41l82 270h135l80 -263q7 -27 9 -46t2 -48h20v24t1.5 34t5.5 37l76 262h129zM232 705h122v-135h-122v135zM473 705h122v-135h-122v135
z" />
    <glyph glyph-name="wgrave" unicode="&#x1e81;" horiz-adv-x="827" 
d="M668 0h-159l-72 243q-14 64 -14 109h-20q0 -56 -13 -109l-73 -243h-159l-134 505h129l76 -270q6 -23 6 -51l-1 -36h20q0 28 1.5 46t7.5 41l82 270h135l80 -263q7 -27 9 -46t2 -48h20v24t1.5 34t5.5 37l76 262h129zM270 700h135l56 -136h-80z" />
    <glyph glyph-name="x" unicode="x" horiz-adv-x="578" 
d="M398 0l-66 106q-18 35 -24.5 57t-9.5 43h-18q-4 -23 -10 -44.5t-24 -56.5l-67 -105h-145l155 252l-155 253h145l65 -101q27 -51 36 -104h18q4 24 10.5 46.5t25.5 57.5l64 101h146l-154 -253l154 -252h-146z" />
    <glyph glyph-name="y" unicode="y" horiz-adv-x="562" 
d="M24 505h133l78 -209q35 -97 37 -162h20q2 65 37 162l77 209h133l-267 -715h-138l79 216z" />
    <glyph glyph-name="yacute" unicode="&#xfd;" horiz-adv-x="562" 
d="M24 505h133l78 -209q35 -97 37 -162h20q2 65 37 162l77 209h133l-267 -715h-138l79 216zM299 700h136l-112 -136h-79z" />
    <glyph glyph-name="ycircumflex" unicode="&#x177;" horiz-adv-x="562" 
d="M24 505h133l78 -209q35 -97 37 -162h20q2 65 37 162l77 209h133l-267 -715h-138l79 216zM434 564h-103l-40 80h-17l-39 -80h-103l75 141h152z" />
    <glyph glyph-name="ydieresis" unicode="&#xff;" horiz-adv-x="562" 
d="M24 505h133l78 -209q35 -97 37 -162h20q2 65 37 162l77 209h133l-267 -715h-138l79 216zM99 705h122v-135h-122v135zM340 705h122v-135h-122v135z" />
    <glyph glyph-name="uni1EF5" unicode="&#x1ef5;" horiz-adv-x="562" 
d="M24 505h133l78 -209q35 -97 37 -162h20q2 65 37 162l77 209h133l-267 -715h-138l79 216zM403 -75h122v-135h-122v135z" />
    <glyph glyph-name="ygrave" unicode="&#x1ef3;" horiz-adv-x="562" 
d="M24 505h133l78 -209q35 -97 37 -162h20q2 65 37 162l77 209h133l-267 -715h-138l79 216zM137 700h135l56 -136h-80z" />
    <glyph glyph-name="uni1EF9" unicode="&#x1ef9;" horiz-adv-x="562" 
d="M24 505h133l78 -209q35 -97 37 -162h20q2 65 37 162l77 209h133l-267 -715h-138l79 216zM423 595.5q-25 -30.5 -67 -30.5q-25 0 -42.5 9t-41.5 26q-22 15 -34 21.5t-28 6.5q-39 0 -39 -55h-68v20q0 59 25 89.5t67 30.5q25 0 43.5 -9t41.5 -26q19 -14 32.5 -21t28.5 -7
q39 0 39 55h68v-20q0 -59 -25 -89.5z" />
    <glyph glyph-name="z" unicode="z" horiz-adv-x="499" 
d="M272 182q-45 -56 -93 -67v-20h273v-95h-406v105l179 217q27 33 50.5 47.5t48.5 20.5v21h-278v94h406v-105z" />
    <glyph glyph-name="zacute" unicode="&#x17a;" horiz-adv-x="499" 
d="M272 182q-45 -56 -93 -67v-20h273v-95h-406v105l179 217q27 33 50.5 47.5t48.5 20.5v21h-278v94h406v-105zM268 700h136l-112 -136h-79z" />
    <glyph glyph-name="zcaron" unicode="&#x17e;" horiz-adv-x="499" 
d="M272 182q-45 -56 -93 -67v-20h273v-95h-406v105l179 217q27 33 50.5 47.5t48.5 20.5v21h-278v94h406v-105zM177 559l-75 141h103l39 -80h17l40 80h103l-75 -141h-152z" />
    <glyph glyph-name="zdotaccent" unicode="&#x17c;" horiz-adv-x="499" 
d="M272 182q-45 -56 -93 -67v-20h273v-95h-406v105l179 217q27 33 50.5 47.5t48.5 20.5v21h-278v94h406v-105zM191 700h122v-135h-122v135z" />
    <glyph glyph-name="a.ss01" horiz-adv-x="629" 
d="M559 505v-505h-128v111h-22l-5 -13q-20 -56 -64 -84.5t-101 -28.5q-62 0 -108 33.5t-70.5 94t-24.5 140.5t24.5 140t70.5 93.5t108 33.5q57 0 101 -28.5t64 -84.5l5 -13h22v111h128zM397.5 143.5q33.5 44.5 33.5 108.5t-33.5 109t-96.5 45t-96 -44.5t-33 -109.5t33 -109
t96 -44t96.5 44.5z" />
    <glyph glyph-name="aacute.ss01" horiz-adv-x="629" 
d="M559 505v-505h-128v111h-22l-5 -13q-20 -56 -64 -84.5t-101 -28.5q-62 0 -108 33.5t-70.5 94t-24.5 140.5t24.5 140t70.5 93.5t108 33.5q57 0 101 -28.5t64 -84.5l5 -13h22v111h128zM397.5 143.5q33.5 44.5 33.5 108.5t-33.5 109t-96.5 45t-96 -44.5t-33 -109.5t33 -109
t96 -44t96.5 44.5zM325 700h136l-112 -136h-79z" />
    <glyph glyph-name="abreve.ss01" horiz-adv-x="629" 
d="M559 505v-505h-128v111h-22l-5 -13q-20 -56 -64 -84.5t-101 -28.5q-62 0 -108 33.5t-70.5 94t-24.5 140.5t24.5 140t70.5 93.5t108 33.5q57 0 101 -28.5t64 -84.5l5 -13h22v111h128zM397.5 143.5q33.5 44.5 33.5 108.5t-33.5 109t-96.5 45t-96 -44.5t-33 -109.5t33 -109
t96 -44t96.5 44.5zM264.5 655.5q14.5 -18.5 42.5 -18.5q27 0 41 18.5t14 49.5h86q0 -70 -36.5 -108.5t-104.5 -38.5q-69 0 -106 38.5t-37 108.5h86q0 -31 14.5 -49.5z" />
    <glyph glyph-name="uni01CE.ss01" horiz-adv-x="629" 
d="M559 505v-505h-128v111h-22l-5 -13q-20 -56 -64 -84.5t-101 -28.5q-62 0 -108 33.5t-70.5 94t-24.5 140.5t24.5 140t70.5 93.5t108 33.5q57 0 101 -28.5t64 -84.5l5 -13h22v111h128zM397.5 143.5q33.5 44.5 33.5 108.5t-33.5 109t-96.5 45t-96 -44.5t-33 -109.5t33 -109
t96 -44t96.5 44.5zM231 559l-75 141h103l39 -80h17l40 80h103l-75 -141h-152z" />
    <glyph glyph-name="acircumflex.ss01" horiz-adv-x="629" 
d="M559 505v-505h-128v111h-22l-5 -13q-20 -56 -64 -84.5t-101 -28.5q-62 0 -108 33.5t-70.5 94t-24.5 140.5t24.5 140t70.5 93.5t108 33.5q57 0 101 -28.5t64 -84.5l5 -13h22v111h128zM397.5 143.5q33.5 44.5 33.5 108.5t-33.5 109t-96.5 45t-96 -44.5t-33 -109.5t33 -109
t96 -44t96.5 44.5zM460 564h-103l-40 80h-17l-39 -80h-103l75 141h152z" />
    <glyph glyph-name="adieresis.ss01" horiz-adv-x="629" 
d="M559 505v-505h-128v111h-22l-5 -13q-20 -56 -64 -84.5t-101 -28.5q-62 0 -108 33.5t-70.5 94t-24.5 140.5t24.5 140t70.5 93.5t108 33.5q57 0 101 -28.5t64 -84.5l5 -13h22v111h128zM397.5 143.5q33.5 44.5 33.5 108.5t-33.5 109t-96.5 45t-96 -44.5t-33 -109.5t33 -109
t96 -44t96.5 44.5zM125 705h122v-135h-122v135zM366 705h122v-135h-122v135z" />
    <glyph glyph-name="uni1EA1.ss01" horiz-adv-x="629" 
d="M559 505v-505h-128v111h-22l-5 -13q-20 -56 -64 -84.5t-101 -28.5q-62 0 -108 33.5t-70.5 94t-24.5 140.5t24.5 140t70.5 93.5t108 33.5q57 0 101 -28.5t64 -84.5l5 -13h22v111h128zM397.5 143.5q33.5 44.5 33.5 108.5t-33.5 109t-96.5 45t-96 -44.5t-33 -109.5t33 -109
t96 -44t96.5 44.5zM248 -75h122v-135h-122v135z" />
    <glyph glyph-name="agrave.ss01" horiz-adv-x="629" 
d="M559 505v-505h-128v111h-22l-5 -13q-20 -56 -64 -84.5t-101 -28.5q-62 0 -108 33.5t-70.5 94t-24.5 140.5t24.5 140t70.5 93.5t108 33.5q57 0 101 -28.5t64 -84.5l5 -13h22v111h128zM397.5 143.5q33.5 44.5 33.5 108.5t-33.5 109t-96.5 45t-96 -44.5t-33 -109.5t33 -109
t96 -44t96.5 44.5zM163 700h135l56 -136h-80z" />
    <glyph glyph-name="amacron.ss01" horiz-adv-x="629" 
d="M559 505v-505h-128v111h-22l-5 -13q-20 -56 -64 -84.5t-101 -28.5q-62 0 -108 33.5t-70.5 94t-24.5 140.5t24.5 140t70.5 93.5t108 33.5q57 0 101 -28.5t64 -84.5l5 -13h22v111h128zM397.5 143.5q33.5 44.5 33.5 108.5t-33.5 109t-96.5 45t-96 -44.5t-33 -109.5t33 -109
t96 -44t96.5 44.5zM451 700v-86h-290v86h290z" />
    <glyph glyph-name="aogonek.ss01" horiz-adv-x="629" 
d="M469 -90q0 -18 11.5 -28.5t29.5 -10.5q21 0 41 12v-78q-42 -14 -68 -14q-44 0 -75.5 24t-30.5 68q2 77 104 117h-50v111h-22l-5 -13q-20 -56 -64 -84.5t-101 -28.5q-62 0 -108 33.5t-70.5 94t-24.5 140.5t24.5 140t70.5 93.5t108 33.5q57 0 101 -28.5t64 -84.5l5 -13h22
v111h128v-505l-29 -14q-61 -29 -61 -76zM397.5 143.5q33.5 44.5 33.5 108.5t-33.5 109t-96.5 45t-96 -44.5t-33 -109.5t33 -109t96 -44t96.5 44.5z" />
    <glyph glyph-name="aring.ss01" horiz-adv-x="629" 
d="M559 505v-505h-128v111h-22l-5 -13q-20 -56 -64 -84.5t-101 -28.5q-62 0 -108 33.5t-70.5 94t-24.5 140.5q0 77 23.5 136.5t67 93.5t101.5 37q-16 14 -25.5 34.5t-9.5 43.5q0 47 33 77t81 30t80 -30t32 -77q0 -39 -23.5 -67t-60.5 -36q49 -31 69 -88l5 -13h22v111h128z
M275.5 629q-12.5 -12 -12.5 -31t12.5 -30.5t31.5 -11.5t30.5 11.5t11.5 30.5t-11.5 31t-30.5 12t-31.5 -12zM397.5 143.5q33.5 44.5 33.5 108.5t-33.5 109t-96.5 45t-96 -44.5t-33 -109.5t33 -109t96 -44t96.5 44.5z" />
    <glyph glyph-name="atilde.ss01" horiz-adv-x="629" 
d="M559 505v-505h-128v111h-22l-5 -13q-20 -56 -64 -84.5t-101 -28.5q-62 0 -108 33.5t-70.5 94t-24.5 140.5t24.5 140t70.5 93.5t108 33.5q57 0 101 -28.5t64 -84.5l5 -13h22v111h128zM397.5 143.5q33.5 44.5 33.5 108.5t-33.5 109t-96.5 45t-96 -44.5t-33 -109.5t33 -109
t96 -44t96.5 44.5zM449 595.5q-25 -30.5 -67 -30.5q-25 0 -42.5 9t-41.5 26q-22 15 -34 21.5t-28 6.5q-39 0 -39 -55h-68v20q0 59 25 89.5t67 30.5q25 0 43.5 -9t41.5 -26q19 -14 32.5 -21t28.5 -7q39 0 39 55h68v-20q0 -59 -25 -89.5z" />
    <glyph glyph-name="g.ss01" horiz-adv-x="629" 
d="M559 505v-516q0 -95 -64.5 -147t-175.5 -52q-109 0 -176 47t-68 130h128q8 -84 115 -84q113 0 113 106v122h-22l-5 -13q-20 -56 -64 -84.5t-101 -28.5q-62 0 -108 33.5t-70.5 94t-24.5 140.5t24.5 140t70.5 93.5t108 33.5q57 0 101 -28.5t64 -84.5l5 -13h22v111h128z
M397.5 143.5q33.5 44.5 33.5 108.5t-33.5 109t-96.5 45t-96 -44.5t-33 -109.5t33 -109t96 -44t96.5 44.5z" />
    <glyph glyph-name="gbreve.ss01" horiz-adv-x="629" 
d="M559 505v-516q0 -95 -64.5 -147t-175.5 -52q-109 0 -176 47t-68 130h128q8 -84 115 -84q113 0 113 106v122h-22l-5 -13q-20 -56 -64 -84.5t-101 -28.5q-62 0 -108 33.5t-70.5 94t-24.5 140.5t24.5 140t70.5 93.5t108 33.5q57 0 101 -28.5t64 -84.5l5 -13h22v111h128z
M397.5 143.5q33.5 44.5 33.5 108.5t-33.5 109t-96.5 45t-96 -44.5t-33 -109.5t33 -109t96 -44t96.5 44.5zM275.5 655.5q14.5 -18.5 42.5 -18.5q27 0 41 18.5t14 49.5h86q0 -70 -36.5 -108.5t-104.5 -38.5q-69 0 -106 38.5t-37 108.5h86q0 -31 14.5 -49.5z" />
    <glyph glyph-name="gcaron.ss01" horiz-adv-x="629" 
d="M559 505v-516q0 -95 -64.5 -147t-175.5 -52q-109 0 -176 47t-68 130h128q8 -84 115 -84q113 0 113 106v122h-22l-5 -13q-20 -56 -64 -84.5t-101 -28.5q-62 0 -108 33.5t-70.5 94t-24.5 140.5t24.5 140t70.5 93.5t108 33.5q57 0 101 -28.5t64 -84.5l5 -13h22v111h128z
M397.5 143.5q33.5 44.5 33.5 108.5t-33.5 109t-96.5 45t-96 -44.5t-33 -109.5t33 -109t96 -44t96.5 44.5zM242 559l-75 141h103l39 -80h17l40 80h103l-75 -141h-152z" />
    <glyph glyph-name="uni0123.ss01" horiz-adv-x="629" 
d="M559 505v-516q0 -95 -64.5 -147t-175.5 -52q-109 0 -176 47t-68 130h128q8 -84 115 -84q113 0 113 106v122h-22l-5 -13q-20 -56 -64 -84.5t-101 -28.5q-62 0 -108 33.5t-70.5 94t-24.5 140.5t24.5 140t70.5 93.5t108 33.5q57 0 101 -28.5t64 -84.5l5 -13h22v111h128z
M397.5 143.5q33.5 44.5 33.5 108.5t-33.5 109t-96.5 45t-96 -44.5t-33 -109.5t33 -109t96 -44t96.5 44.5zM359 752q-20 0 -27.5 -8t-7.5 -32v-27h54v-130h-122v154q0 50 21 74t71 24h30v-55h-19z" />
    <glyph glyph-name="gdotaccent.ss01" horiz-adv-x="629" 
d="M559 505v-516q0 -95 -64.5 -147t-175.5 -52q-109 0 -176 47t-68 130h128q8 -84 115 -84q113 0 113 106v122h-22l-5 -13q-20 -56 -64 -84.5t-101 -28.5q-62 0 -108 33.5t-70.5 94t-24.5 140.5t24.5 140t70.5 93.5t108 33.5q57 0 101 -28.5t64 -84.5l5 -13h22v111h128z
M397.5 143.5q33.5 44.5 33.5 108.5t-33.5 109t-96.5 45t-96 -44.5t-33 -109.5t33 -109t96 -44t96.5 44.5zM256 705h122v-135h-122v135z" />
    <glyph glyph-name="l.ss01" horiz-adv-x="287" 
d="M80 0v700h128v-700h-128z" />
    <glyph glyph-name="lacute.ss01" horiz-adv-x="287" 
d="M80 0v700h128v-700h-128zM162 895h136l-112 -136h-79z" />
    <glyph glyph-name="lcaron.ss01" horiz-adv-x="354" 
d="M80 0v700h128v-700h-128zM427 700l-93 -169h-71l56 169h108z" />
    <glyph glyph-name="uni013C.ss01" horiz-adv-x="287" 
d="M80 0v700h128v-700h-128zM198 -41l-93 -169h-71l56 169h108z" />
    <glyph glyph-name="lslash.ss01" horiz-adv-x="287" 
d="M278 453v-80l-70 -31v-342h-128v287l-70 -31v80l70 31v333h128v-278z" />
    <glyph glyph-name="y.ss01" horiz-adv-x="565" 
d="M103 -111q39 0 55 13.5t28 48.5l20 56l-180 498h134l78 -209q35 -101 37 -162h19q2 65 37 162l78 209h132l-189 -526q-25 -70 -50.5 -109.5t-63.5 -59t-99 -19.5h-97v98h61z" />
    <glyph glyph-name="yacute.ss01" horiz-adv-x="540" 
d="M103 -111q39 0 55 13.5t28 48.5l20 56l-180 498h134l78 -209q35 -101 37 -162h19q2 65 37 162l78 209h132l-189 -526q-25 -70 -50.5 -109.5t-63.5 -59t-99 -19.5h-97v98h61zM278 700h136l-112 -136h-79z" />
    <glyph glyph-name="ycircumflex.ss01" horiz-adv-x="540" 
d="M103 -111q39 0 55 13.5t28 48.5l20 56l-180 498h134l78 -209q35 -101 37 -162h19q2 65 37 162l78 209h132l-189 -526q-25 -70 -50.5 -109.5t-63.5 -59t-99 -19.5h-97v98h61zM438 564h-103l-40 80h-17l-39 -80h-103l75 141h152z" />
    <glyph glyph-name="ydieresis.ss01" horiz-adv-x="540" 
d="M103 -111q39 0 55 13.5t28 48.5l20 56l-180 498h134l78 -209q35 -101 37 -162h19q2 65 37 162l78 209h132l-189 -526q-25 -70 -50.5 -109.5t-63.5 -59t-99 -19.5h-97v98h61zM102 705h122v-135h-122v135zM343 705h122v-135h-122v135z" />
    <glyph glyph-name="ygrave.ss01" horiz-adv-x="540" 
d="M103 -111q39 0 55 13.5t28 48.5l20 56l-180 498h134l78 -209q35 -101 37 -162h19q2 65 37 162l78 209h132l-189 -526q-25 -70 -50.5 -109.5t-63.5 -59t-99 -19.5h-97v98h61zM178 700h135l56 -136h-80z" />
    <glyph glyph-name="uni1EF9.ss01" horiz-adv-x="565" 
d="M103 -111q39 0 55 13.5t28 48.5l20 56l-180 498h134l78 -209q35 -101 37 -162h19q2 65 37 162l78 209h132l-189 -526q-25 -70 -50.5 -109.5t-63.5 -59t-99 -19.5h-97v98h61zM426 595.5q-25 -30.5 -67 -30.5q-25 0 -42.5 9t-41.5 26q-22 15 -34 21.5t-28 6.5
q-39 0 -39 -55h-68v20q0 59 25 89.5t67 30.5q25 0 43.5 -9t41.5 -26q19 -14 32.5 -21t28.5 -7q39 0 39 55h68v-20q0 -59 -25 -89.5z" />
    <glyph glyph-name="a.ss02" horiz-adv-x="618" 
d="M123.5 4q-36.5 19 -57.5 54t-21 82q0 77 57 124t154 49l148 4v5q0 50 -31 72t-83 22q-49 0 -80.5 -19.5t-33.5 -65.5h-129q1 91 67.5 140t176.5 49t173.5 -51t67.5 -147v-161q0 -34 12 -49t41 -15h9v-97h-49q-60 0 -95 26.5t-44 71.5l-2 15h-18q-21 -59 -72 -93.5
t-111 -34.5q-43 0 -79.5 19zM336 106.5q32 19.5 50 52.5t18 71v11l-113 -2q-48 -1 -82.5 -19.5t-34.5 -58.5q0 -34 26 -54t65 -20t71 19.5z" />
    <glyph glyph-name="aacute.ss02" horiz-adv-x="618" 
d="M123.5 4q-36.5 19 -57.5 54t-21 82q0 77 57 124t154 49l148 4v5q0 50 -31 72t-83 22q-49 0 -80.5 -19.5t-33.5 -65.5h-129q1 91 67.5 140t176.5 49t173.5 -51t67.5 -147v-161q0 -34 12 -49t41 -15h9v-97h-49q-60 0 -95 26.5t-44 71.5l-2 15h-18q-21 -59 -72 -93.5
t-111 -34.5q-43 0 -79.5 19zM336 106.5q32 19.5 50 52.5t18 71v11l-113 -2q-48 -1 -82.5 -19.5t-34.5 -58.5q0 -34 26 -54t65 -20t71 19.5zM317 700h136l-112 -136h-79z" />
    <glyph glyph-name="abreve.ss02" horiz-adv-x="618" 
d="M123.5 4q-36.5 19 -57.5 54t-21 82q0 77 57 124t154 49l148 4v5q0 50 -31 72t-83 22q-49 0 -80.5 -19.5t-33.5 -65.5h-129q1 91 67.5 140t176.5 49t173.5 -51t67.5 -147v-161q0 -34 12 -49t41 -15h9v-97h-49q-60 0 -95 26.5t-44 71.5l-2 15h-18q-21 -59 -72 -93.5
t-111 -34.5q-43 0 -79.5 19zM336 106.5q32 19.5 50 52.5t18 71v11l-113 -2q-48 -1 -82.5 -19.5t-34.5 -58.5q0 -34 26 -54t65 -20t71 19.5zM256.5 655.5q14.5 -18.5 42.5 -18.5q27 0 41 18.5t14 49.5h86q0 -70 -36.5 -108.5t-104.5 -38.5q-69 0 -106 38.5t-37 108.5h86
q0 -31 14.5 -49.5z" />
    <glyph glyph-name="uni01CE.ss02" horiz-adv-x="618" 
d="M123.5 4q-36.5 19 -57.5 54t-21 82q0 77 57 124t154 49l148 4v5q0 50 -31 72t-83 22q-49 0 -80.5 -19.5t-33.5 -65.5h-129q1 91 67.5 140t176.5 49t173.5 -51t67.5 -147v-161q0 -34 12 -49t41 -15h9v-97h-49q-60 0 -95 26.5t-44 71.5l-2 15h-18q-21 -59 -72 -93.5
t-111 -34.5q-43 0 -79.5 19zM336 106.5q32 19.5 50 52.5t18 71v11l-113 -2q-48 -1 -82.5 -19.5t-34.5 -58.5q0 -34 26 -54t65 -20t71 19.5zM222 559l-75 141h103l39 -80h17l40 80h103l-75 -141h-152z" />
    <glyph glyph-name="acircumflex.ss02" horiz-adv-x="618" 
d="M123.5 4q-36.5 19 -57.5 54t-21 82q0 77 57 124t154 49l148 4v5q0 50 -31 72t-83 22q-49 0 -80.5 -19.5t-33.5 -65.5h-129q1 91 67.5 140t176.5 49t173.5 -51t67.5 -147v-161q0 -34 12 -49t41 -15h9v-97h-49q-60 0 -95 26.5t-44 71.5l-2 15h-18q-21 -59 -72 -93.5
t-111 -34.5q-43 0 -79.5 19zM336 106.5q32 19.5 50 52.5t18 71v11l-113 -2q-48 -1 -82.5 -19.5t-34.5 -58.5q0 -34 26 -54t65 -20t71 19.5zM451 564h-103l-40 80h-17l-39 -80h-103l75 141h152z" />
    <glyph glyph-name="adieresis.ss02" horiz-adv-x="618" 
d="M123.5 4q-36.5 19 -57.5 54t-21 82q0 77 57 124t154 49l148 4v5q0 50 -31 72t-83 22q-49 0 -80.5 -19.5t-33.5 -65.5h-129q1 91 67.5 140t176.5 49t173.5 -51t67.5 -147v-161q0 -34 12 -49t41 -15h9v-97h-49q-60 0 -95 26.5t-44 71.5l-2 15h-18q-21 -59 -72 -93.5
t-111 -34.5q-43 0 -79.5 19zM336 106.5q32 19.5 50 52.5t18 71v11l-113 -2q-48 -1 -82.5 -19.5t-34.5 -58.5q0 -34 26 -54t65 -20t71 19.5zM117 705h122v-135h-122v135zM358 705h122v-135h-122v135z" />
    <glyph glyph-name="uni1EA1.ss02" horiz-adv-x="618" 
d="M123.5 4q-36.5 19 -57.5 54t-21 82q0 77 57 124t154 49l148 4v5q0 50 -31 72t-83 22q-49 0 -80.5 -19.5t-33.5 -65.5h-129q1 91 67.5 140t176.5 49t173.5 -51t67.5 -147v-161q0 -34 12 -49t41 -15h9v-97h-49q-60 0 -95 26.5t-44 71.5l-2 15h-18q-21 -59 -72 -93.5
t-111 -34.5q-43 0 -79.5 19zM336 106.5q32 19.5 50 52.5t18 71v11l-113 -2q-48 -1 -82.5 -19.5t-34.5 -58.5q0 -34 26 -54t65 -20t71 19.5zM235 -75h122v-135h-122v135z" />
    <glyph glyph-name="agrave.ss02" horiz-adv-x="618" 
d="M123.5 4q-36.5 19 -57.5 54t-21 82q0 77 57 124t154 49l148 4v5q0 50 -31 72t-83 22q-49 0 -80.5 -19.5t-33.5 -65.5h-129q1 91 67.5 140t176.5 49t173.5 -51t67.5 -147v-161q0 -34 12 -49t41 -15h9v-97h-49q-60 0 -95 26.5t-44 71.5l-2 15h-18q-21 -59 -72 -93.5
t-111 -34.5q-43 0 -79.5 19zM336 106.5q32 19.5 50 52.5t18 71v11l-113 -2q-48 -1 -82.5 -19.5t-34.5 -58.5q0 -34 26 -54t65 -20t71 19.5zM154 700h135l56 -136h-80z" />
    <glyph glyph-name="amacron.ss02" horiz-adv-x="618" 
d="M123.5 4q-36.5 19 -57.5 54t-21 82q0 77 57 124t154 49l148 4v5q0 50 -31 72t-83 22q-49 0 -80.5 -19.5t-33.5 -65.5h-129q1 91 67.5 140t176.5 49t173.5 -51t67.5 -147v-161q0 -34 12 -49t41 -15h9v-97h-49q-60 0 -95 26.5t-44 71.5l-2 15h-18q-21 -59 -72 -93.5
t-111 -34.5q-43 0 -79.5 19zM336 106.5q32 19.5 50 52.5t18 71v11l-113 -2q-48 -1 -82.5 -19.5t-34.5 -58.5q0 -34 26 -54t65 -20t71 19.5zM443 700v-86h-290v86h290z" />
    <glyph glyph-name="aogonek.ss02" horiz-adv-x="618" 
d="M504 -90q0 -18 11.5 -28.5t29.5 -10.5q21 0 41 12v-78q-42 -14 -68 -14q-44 0 -75.5 24t-30.5 68q2 77 108 118q-49 6 -77.5 31.5t-36.5 65.5l-2 15h-18q-21 -59 -72 -93.5t-111 -34.5q-43 0 -79.5 19t-57.5 54t-21 82q0 77 57 124t154 49l148 4v5q0 50 -31 72t-83 22
q-49 0 -80.5 -19.5t-33.5 -65.5h-129q1 91 67.5 140t176.5 49t173.5 -51t67.5 -147v-161q0 -34 12 -49t41 -15h9v-97l-29 -14q-61 -29 -61 -76zM404 241l-113 -2q-48 -1 -82.5 -19.5t-34.5 -58.5q0 -34 26 -54t65 -20t71 19.5t50 52.5t18 71v11z" />
    <glyph glyph-name="aring.ss02" horiz-adv-x="618" 
d="M594 97v-97h-49q-60 0 -95 26.5t-44 71.5l-2 15h-18q-21 -59 -72 -93.5t-111 -34.5q-43 0 -79.5 19t-57.5 54t-21 82q0 77 57 124t154 49l148 4v5q0 50 -31 72t-83 22q-49 0 -80.5 -19.5t-33.5 -65.5h-129q1 76 48.5 123t129.5 61q-19 15 -30 36t-11 47q0 47 33 77t81 30
t80 -30t32 -77q0 -27 -11.5 -49t-31.5 -36q76 -16 119 -64.5t46 -126.5v-161q0 -34 12 -49t41 -15h9zM266.5 629q-12.5 -12 -12.5 -31t12.5 -30.5t31.5 -11.5t30.5 11.5t11.5 30.5t-11.5 31t-30.5 12t-31.5 -12zM404 241l-113 -2q-48 -1 -82.5 -19.5t-34.5 -58.5
q0 -34 26 -54t65 -20t71 19.5t50 52.5t18 71v11z" />
    <glyph glyph-name="atilde.ss02" horiz-adv-x="618" 
d="M123.5 4q-36.5 19 -57.5 54t-21 82q0 77 57 124t154 49l148 4v5q0 50 -31 72t-83 22q-49 0 -80.5 -19.5t-33.5 -65.5h-129q1 91 67.5 140t176.5 49t173.5 -51t67.5 -147v-161q0 -34 12 -49t41 -15h9v-97h-49q-60 0 -95 26.5t-44 71.5l-2 15h-18q-21 -59 -72 -93.5
t-111 -34.5q-43 0 -79.5 19zM336 106.5q32 19.5 50 52.5t18 71v11l-113 -2q-48 -1 -82.5 -19.5t-34.5 -58.5q0 -34 26 -54t65 -20t71 19.5zM440 595.5q-25 -30.5 -67 -30.5q-25 0 -42.5 9t-41.5 26q-22 15 -34 21.5t-28 6.5q-39 0 -39 -55h-68v20q0 59 25 89.5t67 30.5
q25 0 43.5 -9t41.5 -26q19 -14 32.5 -21t28.5 -7q39 0 39 55h68v-20q0 -59 -25 -89.5z" />
    <glyph glyph-name="f.ss02" horiz-adv-x="411" 
d="M137 354.5q21 25.5 66 32.5l15 3v18l-194 1v96h98v46q0 77 35.5 113t106.5 36h108v-89h-52q-41 0 -58 -17.5t-17 -53.5v-35h127v-96h-141v-409h-115v283q0 46 21 71.5z" />
    <glyph glyph-name="t.ss02" horiz-adv-x="401" 
d="M157 38.5q-35 38.5 -35 118.5v252h-98v96h168v19h-9q-31 4 -50.5 18t-19.5 49v39h123v-125h126v-96h-117v-224q0 -96 76 -96h41v-89h-98q-72 0 -107 38.5z" />
    <glyph glyph-name="f_f_j" horiz-adv-x="1087" 
d="M1017 -50q0 -81 -36.5 -119.5t-126.5 -38.5h-75v94h48q34 0 48 19.5t14 56.5v446h-151v1h-88v-409h-123v409h-282v-409h-123v409h-98v96h98v63q0 76 37.5 111.5t104.5 35.5q60 0 118 -23v-90q-41 19 -77 19q-30 0 -45 -16t-15 -49v-51h282v63q0 76 37.5 111.5t104.5 35.5
q60 0 118 -23v-90q-41 19 -77 19q-30 0 -45 -16t-15 -49v-51h367v-555zM879 700h148v-135h-148v135z" />
    <glyph glyph-name="f_j" horiz-adv-x="682" 
d="M612 -50q0 -81 -36.5 -119.5t-126.5 -38.5h-75v94h48q34 0 48 19.5t14 56.5v446h-151v1h-88v-409h-123v409h-98v96h98v63q0 76 37.5 111.5t104.5 35.5q60 0 118 -23v-90q-41 19 -77 19q-30 0 -45 -16t-15 -49v-51h367v-555zM474 700h148v-135h-148v135z" />
    <glyph glyph-name="f_t" horiz-adv-x="831" 
d="M655 408v-225q0 -50 12.5 -72t48.5 -22q32 0 71 16v-97q-56 -23 -116 -23q-144 0 -144 167v256h-98v1h-184v-409h-123v409h-98v96h98v63q0 76 37.5 111.5t104.5 35.5q60 0 118 -23v-90q-41 19 -77 19q-30 0 -45 -16t-15 -49v-51h282v110l128 20v-130h132v-97h-132z" />
    <glyph glyph-name="idieresis_idieresis" horiz-adv-x="584" 
d="M114 705v-135h-122v135h122zM355 705v-135h-122v135h122zM474 705h122v-135h-122v135zM107 0v505h128v-505h-128zM349 0v505h128v-505h-128z" />
    <glyph glyph-name="t_f" horiz-adv-x="818" 
d="M657.5 605.5q-14.5 -15.5 -14.5 -49.5v-51h136v-96h-136v-409h-123v409h-24v-1h-246v-225q0 -50 12.5 -72t48.5 -22q32 0 71 16v-97q-56 -23 -116 -23q-144 0 -144 167v256h-98v97h98v110l128 20v-130h270v63q0 76 37.5 111.5t103.5 35.5q61 0 118 -23v-90q-39 19 -76 19
q-31 0 -45.5 -15.5z" />
    <glyph glyph-name="t_i" horiz-adv-x="652" 
d="M444 700h148v-135h-148v135zM582 0h-128v409h-72v-1h-132v-225q0 -50 12.5 -72t48.5 -22q32 0 71 16v-97q-56 -23 -116 -23q-144 0 -144 167v256h-98v97h98v110l128 20v-130h332v-505z" />
    <glyph glyph-name="t_t" horiz-adv-x="823" 
d="M648 408v-225q0 -50 12.5 -72t48.5 -22q32 0 71 16v-97q-57 -23 -116 -23q-144 0 -144 167v256h-98v1h-40v-1h-132v-225q0 -50 12.5 -72t48.5 -22q32 0 71 16v-97q-56 -23 -116 -23q-144 0 -144 167v256h-98v97h98v110l128 20v-130h270v110l128 20v-130h132v-97h-132z
" />
    <glyph glyph-name="t_u" horiz-adv-x="981" 
d="M912 505v-505h-128v107h-20l-6 -13q-21 -49 -63 -79t-101 -30q-68 0 -106 41.5t-38 126.5v256h-68v-1h-132v-225q0 -50 12.5 -72t48.5 -22q32 0 71 16v-97q-56 -23 -116 -23q-144 0 -144 167v256h-98v97h98v110l128 20v-130h328v-300q0 -47 17.5 -77.5t67.5 -30.5
q55 0 88 40.5t33 108.5v259h128z" />
    <glyph glyph-name="t_y" horiz-adv-x="949" 
d="M926 505l-189 -526q-25 -70 -50.5 -109.5t-64 -59t-99.5 -19.5h-97v98h62q39 0 55 13.5t28 48.5l20 56l-145 402h-64v-1h-132v-225q0 -50 12.5 -72t48.5 -22q32 0 71 16v-97q-56 -23 -116 -23q-144 0 -144 167v256h-98v97h98v110l128 20v-130h294l78 -209q35 -97 37 -162
h20q2 65 37 162l77 209h133z" />
    <glyph glyph-name="w_w_w" horiz-adv-x="1508" 
d="M153 505l76 -270q6 -23 6 -51l-1 -36h20q0 28 1.5 46t7.5 41l82 270h135l80 -263q7 -27 9 -46t2 -48h20v24t1.5 34t5.5 37l76 262h160l76 -270q5 -27 5 -57v-30h20q0 28 1.5 46t7.5 41l82 270h135l80 -263q7 -26 8.5 -43t2.5 -51h20v24t1.5 34t5.5 37l75 262h130
l-135 -505h-159l-72 243q-14 57 -14 109h-20q0 -50 -13 -109l-74 -243h-150l-69 243q-14 57 -14 109h-20q0 -50 -13 -109l-71 -243h-151l-72 243q-14 64 -14 109h-20q0 -56 -13 -109l-73 -243h-159l-134 505h129z" />
    <glyph glyph-name="ordfeminine" unicode="&#xaa;" horiz-adv-x="447" 
d="M77 350q-34 32 -34 84q0 58 42.5 93t115.5 37l111 3v3q0 71 -85 71q-82 0 -86 -64h-97q1 68 51 105t133 37q82 0 129.5 -38.5t50.5 -110.5v-120q0 -26 9 -37t31 -11h7v-73h-37q-45 0 -71.5 20t-32.5 54l-2 11h-13q-16 -44 -54.5 -70t-83.5 -26q-50 0 -84 32zM282 426.5
q30 31.5 30 74.5v9l-85 -2q-36 -1 -61.5 -14.5t-25.5 -43.5q0 -26 19 -40.5t49 -14.5q44 0 74 31.5z" />
    <glyph glyph-name="ordmasculine" unicode="&#xba;" horiz-adv-x="448" 
d="M133.5 344q-46.5 26 -72 71.5t-25.5 103.5q0 59 25.5 104t71.5 70.5t107 25.5q60 0 106 -25.5t71.5 -71t25.5 -104.5q0 -57 -25.5 -102.5t-71.5 -71.5t-106 -26t-106.5 26zM165 602.5q-29 -30.5 -29 -84.5q0 -53 29 -83.5t75 -30.5q45 0 74 30.5t29 83.5q0 54 -29 84.5
t-74 30.5q-46 0 -75 -30.5z" />
    <glyph glyph-name="zero" unicode="0" horiz-adv-x="690" 
d="M180.5 34.5q-66.5 47.5 -98.5 129.5t-32 186t32 186.5t98.5 130t165.5 47.5q98 0 164.5 -47.5t98.5 -130t32 -186.5t-32 -186t-98.5 -129.5t-164.5 -47.5q-99 0 -165.5 47.5zM224.5 531.5q-39.5 -65.5 -39.5 -181.5t39.5 -181t121.5 -65t120.5 65t38.5 181t-38.5 181.5
t-120.5 65.5t-121.5 -65.5z" />
    <glyph glyph-name="one" unicode="1" horiz-adv-x="461" 
d="M218 538l-4 -8q-18 -37 -51 -56t-91 -19h-25v122h30q75 0 108 35.5t45 87.5h136v-700h-128v538h-20z" />
    <glyph glyph-name="two" unicode="2" horiz-adv-x="587" 
d="M259 279q80 71 119 122.5t39 108.5q0 47 -29.5 74t-81.5 27q-58 0 -93 -33t-35 -93h-128q0 71 32 123t90 79.5t133 27.5q67 0 122 -23t87.5 -69.5t32.5 -113.5q0 -94 -60 -165.5t-168 -140.5l-86 -76v-15h287v-112h-448v116z" />
    <glyph glyph-name="three" unicode="3" horiz-adv-x="591" 
d="M202 124.5q34 -31.5 91 -31.5q53 0 89.5 28t36.5 76q0 50 -42 77t-102 27h-68v112h59q53 0 98.5 21t45.5 77q0 45 -32 73.5t-86 28.5q-55 0 -87.5 -31t-35.5 -87h-128q5 104 75.5 162t183.5 58q72 0 127.5 -23t86.5 -66.5t31 -101.5q0 -60 -34 -99.5t-94 -50.5l-17 -2
v-21l17 -2q62 -12 99.5 -54t37.5 -110q0 -60 -34.5 -105.5t-94 -70t-131.5 -24.5q-73 0 -130.5 28.5t-90.5 78.5t-36 115h128q3 -51 37 -82.5z" />
    <glyph glyph-name="four" unicode="4" horiz-adv-x="683" 
d="M647 248v-107h-104v-141h-133v141h-373v136l317 423h189v-452h104zM356 516l-134 -187q-37 -52 -68 -60v-21h256v351h-21q-5 -42 -33 -83z" />
    <glyph glyph-name="five" unicode="5" horiz-adv-x="633" 
d="M211.5 126q34.5 -40 95.5 -40q62 0 99 39.5t37 114.5t-35 111.5t-90 36.5q-47 0 -78 -25.5t-41 -64.5h-131l1 402h465v-112h-353l-1 -199h21l6 11q26 47 70 68.5t96 21.5q94 0 150 -63.5t56 -176.5q0 -79 -32.5 -139t-94 -93.5t-147.5 -33.5q-117 0 -186.5 65.5
t-71.5 176.5l127 -1q3 -59 37.5 -99z" />
    <glyph glyph-name="six" unicode="6" horiz-adv-x="605" 
d="M102 607.5q65 107.5 217 107.5q102 0 166.5 -53.5t79.5 -145.5h-133q-6 37 -32.5 67t-80.5 30q-73 0 -109 -68t-38 -173h20l4 10q22 54 66.5 80t101.5 26q95 0 148.5 -63.5t53.5 -169.5q0 -85 -32 -145.5t-91 -92.5t-137 -32q-139 0 -204 95.5t-65 249.5q0 170 65 277.5z
M210 346q-35 -39 -35 -107t36 -109t95 -41q58 0 92.5 40.5t34.5 108.5t-34.5 107.5t-93.5 39.5q-60 0 -95 -39z" />
    <glyph glyph-name="seven" unicode="7" horiz-adv-x="563" 
d="M360.5 522q27.5 30 60.5 41l10 4v20h-394v112h490v-124l-275 -575h-144l197 431q28 61 55.5 91z" />
    <glyph glyph-name="eight" unicode="8" horiz-adv-x="599" 
d="M109 36.5q-71 51.5 -71 145.5q0 73 41 116.5t102 55.5l10 3v20l-11 4q-54 12 -86.5 52.5t-32.5 100.5q0 52 28.5 93t82.5 64.5t127 23.5q72 0 125.5 -23t82.5 -64t29 -94q0 -60 -31.5 -99.5t-84.5 -53.5l-12 -4v-20l11 -3q61 -13 101.5 -56.5t40.5 -116.5
q0 -93 -71 -144.5t-190 -51.5q-120 0 -191 51.5zM381.5 445q33.5 27 33.5 73q0 47 -33 72.5t-82 25.5q-50 0 -82.5 -25.5t-32.5 -72.5q0 -46 33 -73t82 -27q48 0 81.5 27zM392.5 114q34.5 27 34.5 78q0 50 -35 78.5t-92 28.5q-58 0 -93 -28.5t-35 -78.5q0 -51 34.5 -78
t93.5 -27q58 0 92.5 27z" />
    <glyph glyph-name="nine" unicode="9" horiz-adv-x="605" 
d="M502.5 93q-65.5 -108 -216.5 -108q-103 0 -167 53.5t-79 145.5h133q6 -37 32.5 -67t80.5 -30q72 0 108.5 68t38.5 173h-20l-4 -10q-22 -54 -66.5 -80t-102.5 -26q-95 0 -148 63.5t-53 169.5q0 85 32 145.5t91 92.5t137 32q139 0 204 -95.5t65 -249.5q0 -169 -65.5 -277z
M394.5 354q35.5 39 35.5 107t-36 109t-95 41q-58 0 -92.5 -40.5t-34.5 -108.5t34.5 -107.5t93.5 -39.5t94.5 39z" />
    <glyph glyph-name="zero.zero" horiz-adv-x="690" 
d="M180.5 34.5q-66.5 47.5 -98.5 129.5t-32 186t32 186.5t98.5 130t165.5 47.5q98 0 164.5 -47.5t98.5 -130t32 -186.5t-32 -186t-98.5 -129.5t-164.5 -47.5q-99 0 -165.5 47.5zM224.5 531.5q-39.5 -65.5 -39.5 -181.5t39.5 -181t121.5 -65t120.5 65t38.5 181t-38.5 181.5
t-120.5 65.5t-121.5 -65.5zM300 418h91v-135h-91v135z" />
    <glyph glyph-name="uni24EA" unicode="&#x24ea;" horiz-adv-x="872" 
d="M624.5 668q83.5 -47 131 -129.5t47.5 -186.5q0 -105 -47.5 -188.5t-131 -131t-187.5 -47.5t-188 47.5t-131.5 131t-47.5 188.5q0 104 47.5 186.5t131.5 129.5t188 47t187.5 -47zM599 76.5q72 40.5 112.5 112.5t40.5 163t-40.5 162t-112.5 110.5t-162 39.5t-162.5 -41.5
t-113.5 -112.5t-41 -158q0 -91 41 -163t113 -112.5t163 -40.5q90 0 162 40.5zM304 194q-46 62 -46 155t46 156t133 63t133 -62.5t46 -156.5q0 -93 -46 -155t-133 -62t-133 62zM367.5 454q-22.5 -38 -22.5 -105t22.5 -104t69.5 -37q91 0 91 141q0 68 -22 105.5t-69 37.5
t-69.5 -38z" />
    <glyph glyph-name="uni2460" unicode="&#x2460;" horiz-adv-x="872" 
d="M624.5 668q83.5 -47 131 -129.5t47.5 -186.5q0 -105 -47.5 -188.5t-131 -131t-187.5 -47.5t-188 47.5t-131.5 131t-47.5 188.5q0 104 47.5 186.5t131.5 129.5t188 47t187.5 -47zM599 76.5q72 40.5 112.5 112.5t40.5 163t-40.5 162t-112.5 110.5t-162 39.5t-162.5 -41.5
t-113.5 -112.5t-41 -158q0 -91 41 -163t113 -112.5t163 -40.5q90 0 162 40.5zM404 460h13v-320h83v420h-88q-11 -70 -91 -71h-15v-79h8q68 0 90 50z" />
    <glyph glyph-name="uni2461" unicode="&#x2461;" horiz-adv-x="872" 
d="M624.5 668q83.5 -47 131 -129.5t47.5 -186.5q0 -105 -47.5 -188.5t-131 -131t-187.5 -47.5t-188 47.5t-131.5 131t-47.5 188.5q0 104 47.5 186.5t131.5 129.5t188 47t187.5 -47zM599 76.5q72 40.5 112.5 112.5t40.5 163t-40.5 162t-112.5 110.5t-162 39.5t-162.5 -41.5
t-113.5 -112.5t-41 -158q0 -91 41 -163t113 -112.5t163 -40.5q90 0 162 40.5zM411 307q47 41 70 71t23 63q0 26 -17 41.5t-47 15.5q-32 0 -52 -19t-20 -53h-83q0 64 42.5 101.5t112.5 37.5q63 0 105 -32t42 -93q0 -56 -36.5 -98.5t-101.5 -82.5l-48 -42v-10h169v-71h-272v74
z" />
    <glyph glyph-name="uni2462" unicode="&#x2462;" horiz-adv-x="872" 
d="M624.5 668q83.5 -47 131 -129.5t47.5 -186.5q0 -105 -47.5 -188.5t-131 -131t-187.5 -47.5t-188 47.5t-131.5 131t-47.5 188.5q0 104 47.5 186.5t131.5 129.5t188 47t187.5 -47zM599 76.5q72 40.5 112.5 112.5t40.5 163t-40.5 162t-112.5 110.5t-162 39.5t-162.5 -41.5
t-113.5 -112.5t-41 -158q0 -91 41 -163t113 -112.5t163 -40.5q90 0 162 40.5zM387 218.5q19 -17.5 52 -17.5q31 0 51 16t20 44q0 30 -24.5 45t-60.5 15h-39v66h33q32 0 58.5 13.5t26.5 45.5q0 25 -17.5 41.5t-46.5 16.5q-31 0 -49 -17.5t-20 -46.5h-82q1 58 45 93.5
t108 35.5q60 0 101.5 -31.5t41.5 -83.5q0 -37 -23 -61t-66 -28l-9 -1v-13l9 -1q44 -5 69 -30.5t25 -67.5q0 -54 -44 -87.5t-106 -33.5q-65 0 -109.5 38t-47.5 96h83q2 -29 21 -46.5z" />
    <glyph glyph-name="uni2463" unicode="&#x2463;" horiz-adv-x="872" 
d="M624.5 668q83.5 -47 131 -129.5t47.5 -186.5q0 -105 -47.5 -188.5t-131 -131t-187.5 -47.5t-188 47.5t-131.5 131t-47.5 188.5q0 104 47.5 186.5t131.5 129.5t188 47t187.5 -47zM599 76.5q72 40.5 112.5 112.5t40.5 163t-40.5 162t-112.5 110.5t-162 39.5t-162.5 -41.5
t-113.5 -112.5t-41 -158q0 -91 41 -163t113 -112.5t163 -40.5q90 0 162 40.5zM614 292v-68h-62v-84h-86v84h-224v87l188 249h122v-268h62zM443 445l-73 -103q-22 -33 -42 -37v-13h148v204h-12q-5 -29 -21 -51z" />
    <glyph glyph-name="uni2464" unicode="&#x2464;" horiz-adv-x="872" 
d="M624.5 668q83.5 -47 131 -129.5t47.5 -186.5q0 -105 -47.5 -188.5t-131 -131t-187.5 -47.5t-188 47.5t-131.5 131t-47.5 188.5q0 104 47.5 186.5t131.5 129.5t188 47t187.5 -47zM599 76.5q72 40.5 112.5 112.5t40.5 163t-40.5 162t-112.5 110.5t-162 39.5t-162.5 -41.5
t-113.5 -112.5t-41 -158q0 -91 41 -163t113 -112.5t163 -40.5q90 0 162 40.5zM379.5 224q19.5 -23 54.5 -23t56 22.5t21 65.5t-20.5 64t-51.5 21q-26 0 -44 -14.5t-24 -36.5h-83l1 242h282v-68h-211v-118h9q11 29 37.5 44.5t60.5 15.5q58 0 92.5 -38.5t34.5 -105.5
q0 -72 -42 -116t-120 -44q-71 0 -113 39.5t-43 106.5h82q2 -34 21.5 -57z" />
    <glyph glyph-name="uni2465" unicode="&#x2465;" horiz-adv-x="872" 
d="M624.5 668q83.5 -47 131 -129.5t47.5 -186.5q0 -105 -47.5 -188.5t-131 -131t-187.5 -47.5t-188 47.5t-131.5 131t-47.5 188.5q0 104 47.5 186.5t131.5 129.5t188 47t187.5 -47zM599 76.5q72 40.5 112.5 112.5t40.5 163t-40.5 162t-112.5 110.5t-162 39.5t-162.5 -41.5
t-113.5 -112.5t-41 -158q0 -91 41 -163t113 -112.5t163 -40.5q90 0 162 40.5zM317.5 503.5q41.5 65.5 129.5 65.5q60 0 98.5 -33t48.5 -87h-86q-4 22 -18.5 38.5t-45.5 16.5q-42 0 -63 -41t-21 -103h11l2 5q15 35 42 51t60 16q57 0 88 -37.5t31 -100.5q0 -76 -44.5 -119.5
t-113.5 -43.5q-80 0 -120 58t-40 149q0 100 41.5 165.5zM382.5 345q-20.5 -23 -20.5 -62t20.5 -63t54.5 -24q33 0 53 23.5t20 62.5t-20.5 62.5t-53.5 23.5t-53.5 -23z" />
    <glyph glyph-name="uni2466" unicode="&#x2466;" horiz-adv-x="872" 
d="M624.5 668q83.5 -47 131 -129.5t47.5 -186.5q0 -105 -47.5 -188.5t-131 -131t-187.5 -47.5t-188 47.5t-131.5 131t-47.5 188.5q0 104 47.5 186.5t131.5 129.5t188 47t187.5 -47zM599 76.5q72 40.5 112.5 112.5t40.5 163t-40.5 162t-112.5 110.5t-162 39.5t-162.5 -41.5
t-113.5 -112.5t-41 -158q0 -91 41 -163t113 -112.5t163 -40.5q90 0 162 40.5zM486 450q20 19 44 24v13h-234v72h279v-80l-143 -339h-89l106 250q17 41 37 60z" />
    <glyph glyph-name="uni2467" unicode="&#x2467;" horiz-adv-x="872" 
d="M624.5 668q83.5 -47 131 -129.5t47.5 -186.5q0 -105 -47.5 -188.5t-131 -131t-187.5 -47.5t-188 47.5t-131.5 131t-47.5 188.5q0 104 47.5 186.5t131.5 129.5t188 47t187.5 -47zM599 76.5q72 40.5 112.5 112.5t40.5 163t-40.5 162t-112.5 110.5t-162 39.5t-162.5 -41.5
t-113.5 -112.5t-41 -158q0 -91 41 -163t113 -112.5t163 -40.5q90 0 162 40.5zM294 305q16 24 41 36.5t50 13.5v11q-39 2 -66 27.5t-27 66.5q0 47 39.5 78t104.5 31q63 0 102 -30t39 -79q0 -41 -26 -66.5t-64 -27.5v-11q25 -1 50 -13.5t41 -36.5t16 -57q0 -53 -43.5 -85
t-114.5 -32t-114.5 32t-43.5 85q0 33 16 57zM385 494q-20 -16 -20 -42q0 -27 20 -44t51 -17q30 0 50 16.5t20 43.5t-19.5 43t-50.5 16t-51 -16zM379.5 207.5q21.5 -17.5 56.5 -17.5t56.5 17.5t21.5 47.5q0 29 -22 47t-56 18q-33 0 -55.5 -18.5t-22.5 -46.5q0 -30 21.5 -47.5
z" />
    <glyph glyph-name="uni2468" unicode="&#x2468;" horiz-adv-x="872" 
d="M624.5 668q83.5 -47 131 -129.5t47.5 -186.5q0 -105 -47.5 -188.5t-131 -131t-187.5 -47.5t-188 47.5t-131.5 131t-47.5 188.5q0 104 47.5 186.5t131.5 129.5t188 47t187.5 -47zM599 76.5q72 40.5 112.5 112.5t40.5 163t-40.5 162t-112.5 110.5t-162 39.5t-162.5 -41.5
t-113.5 -112.5t-41 -158q0 -91 41 -163t113 -112.5t163 -40.5q90 0 162 40.5zM554.5 196.5q-41.5 -65.5 -129.5 -65.5q-59 0 -98 33t-49 87h86q4 -21 19 -38t45 -17q42 0 63.5 40.5t21.5 102.5h-12l-2 -4q-24 -34 -48 -51t-54 -17q-56 0 -87.5 38t-31.5 101q0 76 44.5 119.5
t113.5 43.5q80 0 120 -57.5t40 -149.5q0 -100 -41.5 -165.5zM490.5 355q20.5 23 20.5 62t-21 63t-54 24q-34 0 -54 -23.5t-20 -62.5t20.5 -62.5t53.5 -23.5q34 0 54.5 23z" />
    <glyph glyph-name="zero.tf" horiz-adv-x="644" 
d="M157.5 36q-64.5 49 -94 130.5t-29.5 182.5q0 102 29.5 184t94 131.5t164.5 49.5q147 0 217 -103t70 -262q0 -158 -70 -260t-217 -102q-100 0 -164.5 49zM192.5 534q-39.5 -73 -39.5 -185t39.5 -183.5t129.5 -71.5t129.5 72t39.5 183q0 112 -39.5 185t-129.5 73
t-129.5 -73z" />
    <glyph glyph-name="one.tf" horiz-adv-x="644" 
d="M554 101v-101h-481v101h181v437h-20l-4 -8q-19 -37 -51.5 -56t-90.5 -19h-26v122h31q74 0 107.5 35.5t45.5 87.5h136v-599h172z" />
    <glyph glyph-name="two.tf" horiz-adv-x="676" 
d="M291 279q92 74 137 125.5t45 107.5q0 47 -36 74t-98 27q-70 0 -113 -33t-43 -93h-125q0 70 35 122t98.5 80t146.5 28q73 0 132.5 -23t94.5 -69.5t35 -113.5q0 -95 -67.5 -169t-182.5 -136l-108 -79v-15h330v-112h-489v116z" />
    <glyph glyph-name="three.tf" horiz-adv-x="676" 
d="M228.5 124.5q40.5 -31.5 107.5 -31.5q62 0 105.5 28t43.5 76q0 50 -50.5 78t-119.5 28h-72v110h64q58 0 113 21.5t55 78.5q0 45 -37.5 73.5t-101.5 28.5q-66 0 -105 -31.5t-42 -86.5h-125q4 104 81 162t198 58q76 0 136.5 -23.5t94.5 -66.5t34 -101q0 -60 -37.5 -99
t-105.5 -51l-17 -2v-23l17 -2q70 -13 111.5 -55t41.5 -109q0 -60 -38 -105.5t-102 -70t-142 -24.5t-140 28.5t-98 78.5t-39 115h125q4 -51 44.5 -82.5z" />
    <glyph glyph-name="four.tf" horiz-adv-x="676" 
d="M636 248v-107h-102v-141h-130v141h-364v136l310 425h184v-454h102zM353 517l-136 -186q-27 -52 -62 -62v-21h249v353h-20q-7 -42 -31 -84z" />
    <glyph glyph-name="five.tf" horiz-adv-x="676" 
d="M225.5 126q39.5 -40 105.5 -40q69 0 111 40.5t42 113.5q0 75 -39.5 112.5t-100.5 37.5q-52 0 -87 -26t-47 -66h-130l1 404h489v-112h-378l-1 -199h21l7 11q27 47 74.5 68.5t103.5 21.5q101 0 161 -64.5t60 -177.5q0 -78 -34.5 -138.5t-99.5 -94t-155 -33.5
q-81 0 -142.5 29.5t-95 84.5t-34.5 128l125 -1q4 -59 43.5 -99z" />
    <glyph glyph-name="six.tf" horiz-adv-x="676" 
d="M126 608q71 109 230 109q107 0 175.5 -54.5t84.5 -144.5h-131q-7 36 -38 66.5t-92 30.5q-81 0 -123 -69t-44 -176h18l5 11q26 56 77.5 82.5t109.5 26.5q103 0 161.5 -64.5t58.5 -170.5q0 -84 -34.5 -145t-97 -93t-144.5 -32q-148 0 -217.5 96t-69.5 249q0 169 71 278z
M233 347.5q-40 -39.5 -40 -108.5q0 -67 41 -108.5t108 -41.5t106.5 40.5t39.5 108.5t-40 108.5t-107 40.5q-68 0 -108 -39.5z" />
    <glyph glyph-name="seven.tf" horiz-adv-x="676" 
d="M449 523.5q27 30.5 60 41.5l10 4v20h-466v112h559v-124l-316 -577h-140l233 434q33 59 60 89.5z" />
    <glyph glyph-name="eight.tf" horiz-adv-x="676" 
d="M189 9q-65 24 -101.5 68.5t-36.5 104.5q0 73 46.5 118.5t110.5 55.5l16 3v22l-17 3q-58 9 -94 50t-36 102q0 52 31.5 93t90.5 64.5t138 23.5q78 0 136.5 -23t90 -64t31.5 -94q0 -61 -35 -100.5t-94 -52.5l-17 -4v-20l16 -3q68 -13 113 -58t45 -117q0 -60 -36 -104
t-100.5 -68t-148.5 -24t-149 24zM435 446q40 28 40 74q0 47 -39.5 72.5t-97.5 25.5t-99 -26t-41 -72q0 -45 40 -73.5t100 -28.5q57 0 97 28zM448.5 116q42.5 29 42.5 78q0 46 -43 76.5t-110 30.5q-66 0 -111 -30.5t-45 -78.5t44 -76.5t112 -28.5t110.5 29z" />
    <glyph glyph-name="nine.tf" horiz-adv-x="676" 
d="M547.5 94q-71.5 -109 -231.5 -109q-107 0 -176 54.5t-85 144.5h131q7 -36 38 -66.5t93 -30.5q81 0 124.5 68.5t45.5 176.5h-18l-5 -11q-25 -55 -77 -82t-111 -27q-105 0 -164 64.5t-59 170.5q0 84 34.5 145t97.5 93t146 32q148 0 218 -95.5t70 -249.5q0 -169 -71.5 -278z
M441.5 354.5q40.5 39.5 40.5 108.5q0 67 -41.5 108.5t-109.5 41.5q-67 0 -107 -40.5t-40 -108.5t40 -108.5t108 -40.5q69 0 109.5 39.5z" />
    <glyph glyph-name="zero.tnum.tf" horiz-adv-x="690" 
d="M510.5 666.5q66.5 -47.5 98.5 -130t32 -186.5t-32 -186t-98.5 -129.5t-164.5 -47.5q-99 0 -165.5 47.5t-98.5 129.5t-32 186t32 186.5t98.5 130t165.5 47.5q98 0 164.5 -47.5zM224.5 531.5q-39.5 -65.5 -39.5 -181.5q0 -87 22 -144l263 319q-41 72 -124 72
q-82 0 -121.5 -65.5zM466.5 169q38.5 65 38.5 181q0 97 -26 156l-264 -321q41 -81 131 -81q82 0 120.5 65z" />
    <glyph glyph-name="zero.subs" horiz-adv-x="394" 
d="M65 3q-45 61 -45 157t45 157t132 61t132 -61t45 -157t-45 -157t-132 -61t-132 61zM124.5 268.5q-23.5 -39.5 -23.5 -108.5t23.5 -108t72.5 -39t72.5 38.5t23.5 108.5t-23.5 109t-72.5 39t-72.5 -39.5z" />
    <glyph glyph-name="one.subs" horiz-adv-x="273" 
d="M117 268q-10 -22 -30 -33.5t-55 -11.5h-15v73h18q75 0 92 74h82v-420h-77v323h-12z" />
    <glyph glyph-name="two.subs" horiz-adv-x="328" 
d="M216.5 191q23.5 31 23.5 65q0 28 -17.5 44t-48.5 16q-35 0 -56.5 -19.5t-21.5 -55.5h-76q0 64 42 101t111 37q63 0 104 -32t41 -92q0 -56 -36 -99t-101 -84l-52 -46v-9h173v-67h-269v70l112 98q48 42 71.5 73z" />
    <glyph glyph-name="three.subs" horiz-adv-x="324" 
d="M106 24.5q20 -18.5 55 -18.5q32 0 53.5 16.5t21.5 45.5q0 30 -25 46t-61 16h-41v68h36q32 0 59 12.5t27 45.5q0 27 -19 44.5t-52 17.5t-53 -18.5t-21 -52.5h-77q3 62 45.5 97t110.5 35q65 0 106 -31t41 -84q0 -36 -20.5 -59.5t-56.5 -29.5l-10 -2v-12l10 -2
q37 -6 59.5 -31.5t22.5 -66.5q0 -54 -44.5 -87t-111.5 -33q-66 0 -109 37t-45 96h77q2 -31 22 -49.5z" />
    <glyph glyph-name="four.subs" horiz-adv-x="399" 
d="M373 40h-62v-85h-80v85h-224v81l190 254h114v-271h62v-64zM199 264l-81 -112q-21 -30 -41 -36v-12h154v210h-13q-2 -26 -19 -50z" />
    <glyph glyph-name="five.subs" horiz-adv-x="371" 
d="M126 26q21 -24 57 -24q37 0 59.5 24t22.5 68q0 45 -21 67t-54 22q-28 0 -47 -15.5t-25 -38.5h-78v241h279v-67h-212v-119h12l4 6q16 28 42 41t57 13q57 0 90.5 -38t33.5 -106q0 -72 -43.5 -116t-120.5 -44q-70 0 -111.5 39.5t-43.5 105.5h76q2 -35 23 -59z" />
    <glyph glyph-name="six.subs" horiz-adv-x="332" 
d="M46 314.5q39 64.5 130 64.5q62 0 100.5 -32t47.5 -87h-80q-3 22 -19 40t-49 18q-43 0 -65 -41t-23 -104h12l2 6q14 33 40.5 48.5t60.5 15.5q57 0 89.5 -38.5t32.5 -101.5q0 -76 -42.5 -119t-114.5 -43q-83 0 -122 57.5t-39 149.5q0 102 39 166.5zM111 157.5
q-21 -23.5 -21 -63.5q0 -41 21.5 -66t56.5 -25t56 24.5t21 65.5q0 40 -21 64t-56 24q-36 0 -57 -23.5z" />
    <glyph glyph-name="seven.subs" horiz-adv-x="307" 
d="M200.5 263q16.5 18 36.5 25l6 2v12h-236v67h294v-74l-165 -345h-86l118 258q16 37 32.5 55z" />
    <glyph glyph-name="eight.subs" horiz-adv-x="330" 
d="M51 -28q-43 31 -43 87q0 44 25 70.5t61 33.5l6 1v12l-7 2q-32 8 -51.5 32t-19.5 60q0 48 38.5 78.5t104.5 30.5q65 0 103.5 -30t38.5 -79q0 -36 -19 -59.5t-51 -32.5l-7 -2v-12l7 -1q36 -8 60.5 -34.5t24.5 -69.5q0 -56 -42.5 -87t-114.5 -31q-71 0 -114 31zM214.5 217
q19.5 16 19.5 44t-19.5 43.5t-49.5 15.5q-29 0 -49 -15.5t-20 -43.5t20 -44t49 -16q30 0 49.5 16zM221 18.5q21 16.5 21 46.5t-21 47t-56 17q-34 0 -55 -17t-21 -47t20.5 -46.5t55.5 -16.5t56 16.5z" />
    <glyph glyph-name="nine.subs" horiz-adv-x="332" 
d="M287 5.5q-39 -64.5 -131 -64.5q-61 0 -99.5 32t-47.5 87h80q3 -22 19 -40t48 -18q44 0 65.5 41t23.5 104h-13l-2 -6q-13 -33 -39.5 -48.5t-61.5 -15.5q-57 0 -89 38.5t-32 101.5q0 76 42.5 119t113.5 43q83 0 122.5 -57.5t39.5 -149.5q0 -102 -39 -166.5zM222 162.5
q21 23.5 21 63.5q0 41 -22 66t-57 25t-55.5 -24.5t-20.5 -65.5q0 -40 21 -64t56 -24q36 0 57 23.5z" />
    <glyph glyph-name="zero.dnom" horiz-adv-x="394" 
d="M65 53q-45 61 -45 157t45 157t132 61t132 -61t45 -157t-45 -157t-132 -61t-132 61zM124.5 318.5q-23.5 -39.5 -23.5 -108.5t23.5 -108t72.5 -39t72.5 38.5t23.5 108.5t-23.5 109t-72.5 39t-72.5 -39.5z" />
    <glyph glyph-name="one.dnom" horiz-adv-x="273" 
d="M117 318q-10 -22 -30 -33.5t-55 -11.5h-15v73h18q75 0 92 74h82v-420h-77v323h-12z" />
    <glyph glyph-name="two.dnom" horiz-adv-x="328" 
d="M216.5 241q23.5 31 23.5 65q0 28 -17.5 44t-48.5 16q-35 0 -56.5 -19.5t-21.5 -55.5h-76q0 64 42 101t111 37q63 0 104 -32t41 -92q0 -56 -36 -99t-101 -84l-52 -46v-9h173v-67h-269v70l112 98q48 42 71.5 73z" />
    <glyph glyph-name="three.dnom" horiz-adv-x="324" 
d="M106 74.5q20 -18.5 55 -18.5q32 0 53.5 16.5t21.5 45.5q0 30 -25 46t-61 16h-41v68h36q32 0 59 12.5t27 45.5q0 27 -19 44.5t-52 17.5t-53 -18.5t-21 -52.5h-77q3 62 45.5 97t110.5 35q65 0 106 -31t41 -84q0 -36 -20.5 -59.5t-56.5 -29.5l-10 -2v-12l10 -2
q37 -6 59.5 -31.5t22.5 -66.5q0 -54 -44.5 -87t-111.5 -33q-66 0 -109 37t-45 96h77q2 -31 22 -49.5z" />
    <glyph glyph-name="four.dnom" horiz-adv-x="399" 
d="M373 85h-62v-85h-80v85h-224v81l190 254h114v-271h62v-64zM199 310l-81 -113q-21 -30 -41 -36v-12h154v210h-13q-3 -26 -19 -49z" />
    <glyph glyph-name="five.dnom" horiz-adv-x="371" 
d="M126 76q21 -24 57 -24q37 0 59.5 24t22.5 68q0 45 -21 67t-54 22q-28 0 -47 -15.5t-25 -38.5h-78v241h279v-67h-212v-119h12l4 6q16 28 42 41t57 13q57 0 90.5 -38t33.5 -106q0 -72 -43.5 -116t-120.5 -44q-70 0 -111.5 39.5t-43.5 105.5h76q2 -35 23 -59z" />
    <glyph glyph-name="six.dnom" horiz-adv-x="332" 
d="M46 364.5q39 64.5 130 64.5q62 0 100.5 -32t47.5 -87h-80q-3 22 -19 40t-49 18q-43 0 -65 -41t-23 -104h12l2 6q14 33 40.5 48.5t60.5 15.5q57 0 89.5 -38.5t32.5 -101.5q0 -76 -42.5 -119t-114.5 -43q-83 0 -122 57.5t-39 149.5q0 102 39 166.5zM111 207.5
q-21 -23.5 -21 -63.5q0 -41 21.5 -66t56.5 -25t56 24.5t21 65.5q0 40 -21 64t-56 24q-36 0 -57 -23.5z" />
    <glyph glyph-name="seven.dnom" horiz-adv-x="307" 
d="M200.5 313q16.5 18 36.5 25l6 2v12h-236v67h294v-74l-165 -345h-86l118 258q16 37 32.5 55z" />
    <glyph glyph-name="eight.dnom" horiz-adv-x="330" 
d="M51 22q-43 31 -43 87q0 44 25 70.5t61 33.5l6 1v12l-7 2q-32 8 -51.5 32t-19.5 60q0 48 38.5 78.5t104.5 30.5q65 0 103.5 -30t38.5 -79q0 -36 -19 -59.5t-51 -32.5l-7 -2v-12l7 -1q36 -8 60.5 -34.5t24.5 -69.5q0 -56 -42.5 -87t-114.5 -31q-71 0 -114 31zM214.5 267
q19.5 16 19.5 44t-19.5 43.5t-49.5 15.5q-29 0 -49 -15.5t-20 -43.5t20 -44t49 -16q30 0 49.5 16zM221 68.5q21 16.5 21 46.5t-21 47t-56 17q-34 0 -55 -17t-21 -47t20.5 -46.5t55.5 -16.5t56 16.5z" />
    <glyph glyph-name="nine.dnom" horiz-adv-x="332" 
d="M287 55.5q-39 -64.5 -131 -64.5q-61 0 -99.5 32t-47.5 87h80q3 -22 19 -40t48 -18q44 0 65.5 41t23.5 104h-13l-2 -6q-13 -33 -39.5 -48.5t-61.5 -15.5q-57 0 -89 38.5t-32 101.5q0 76 42.5 119t113.5 43q83 0 122.5 -57.5t39.5 -149.5q0 -102 -39 -166.5zM222 212.5
q21 23.5 21 63.5q0 41 -22 66t-57 25t-55.5 -24.5t-20.5 -65.5q0 -40 21 -64t56 -24q36 0 57 23.5z" />
    <glyph glyph-name="zero.numr" horiz-adv-x="394" 
d="M65 333q-45 61 -45 157t45 157t132 61t132 -61t45 -157t-45 -157t-132 -61t-132 61zM124.5 598.5q-23.5 -39.5 -23.5 -108.5t23.5 -108t72.5 -39t72.5 38.5t23.5 108.5t-23.5 109t-72.5 39t-72.5 -39.5z" />
    <glyph glyph-name="one.numr" horiz-adv-x="273" 
d="M117 598q-10 -22 -30 -33.5t-55 -11.5h-15v73h18q75 0 92 74h82v-420h-77v323h-12z" />
    <glyph glyph-name="two.numr" horiz-adv-x="328" 
d="M216.5 520q23.5 31 23.5 65q0 28 -17.5 44t-48.5 16q-35 0 -56.5 -19.5t-21.5 -55.5h-76q0 64 42 101t111 37q63 0 104 -32t41 -92q0 -56 -36 -99t-101 -84l-52 -46v-9h173v-67h-269v70l112 98q48 42 71.5 73z" />
    <glyph glyph-name="three.numr" horiz-adv-x="324" 
d="M106 353.5q20 -18.5 55 -18.5q32 0 53.5 16.5t21.5 45.5q0 30 -25 46t-61 16h-41v68h36q32 0 59 12.5t27 45.5q0 27 -19 44.5t-52 17.5t-53 -18.5t-21 -52.5h-77q3 62 45.5 97t110.5 35q65 0 106 -31t41 -84q0 -36 -20.5 -59.5t-56.5 -29.5l-10 -2v-12l10 -2
q37 -6 59.5 -31.5t22.5 -66.5q0 -54 -44.5 -87t-111.5 -33q-66 0 -109 37t-45 96h77q2 -31 22 -49.5z" />
    <glyph glyph-name="four.numr" horiz-adv-x="399" 
d="M373 365h-62v-85h-80v85h-224v81l190 254h114v-271h62v-64zM199 590l-81 -113q-21 -30 -41 -36v-12h154v210h-13q-3 -26 -19 -49z" />
    <glyph glyph-name="five.numr" horiz-adv-x="371" 
d="M126 356q21 -24 57 -24q37 0 59.5 24t22.5 68q0 45 -21 67t-54 22q-28 0 -47 -15.5t-25 -38.5h-78v241h279v-67h-212v-119h12l4 6q16 28 42 41t57 13q57 0 90.5 -38t33.5 -106q0 -72 -43.5 -116t-120.5 -44q-70 0 -111.5 39.5t-43.5 105.5h76q2 -35 23 -59z" />
    <glyph glyph-name="six.numr" horiz-adv-x="332" 
d="M46 643.5q39 64.5 130 64.5q62 0 100.5 -32t47.5 -87h-80q-3 22 -19 40t-49 18q-43 0 -65 -41t-23 -104h12l2 6q14 33 40.5 48.5t60.5 15.5q57 0 89.5 -38.5t32.5 -101.5q0 -76 -42.5 -119t-114.5 -43q-83 0 -122 57.5t-39 149.5q0 102 39 166.5zM111 486.5
q-21 -23.5 -21 -63.5q0 -41 21.5 -66t56.5 -25t56 24.5t21 65.5q0 40 -21 64t-56 24q-36 0 -57 -23.5z" />
    <glyph glyph-name="seven.numr" horiz-adv-x="307" 
d="M200.5 594q16.5 18 36.5 25l6 2v12h-236v67h294v-74l-165 -345h-86l118 258q16 37 32.5 55z" />
    <glyph glyph-name="eight.numr" horiz-adv-x="330" 
d="M51 301q-43 31 -43 87q0 44 25 70.5t61 33.5l6 1v12l-7 2q-32 8 -51.5 32t-19.5 60q0 48 38.5 78.5t104.5 30.5q65 0 103.5 -30t38.5 -79q0 -36 -19 -59.5t-51 -32.5l-7 -2v-12l7 -1q36 -8 60.5 -34.5t24.5 -69.5q0 -56 -42.5 -87t-114.5 -31q-71 0 -114 31zM214.5 546
q19.5 16 19.5 44t-19.5 43.5t-49.5 15.5q-29 0 -49 -15.5t-20 -43.5t20 -44t49 -16q30 0 49.5 16zM221 347.5q21 16.5 21 46.5t-21 47t-56 17q-34 0 -55 -17t-21 -47t20.5 -46.5t55.5 -16.5t56 16.5z" />
    <glyph glyph-name="nine.numr" horiz-adv-x="332" 
d="M287 334.5q-39 -64.5 -131 -64.5q-61 0 -99.5 32t-47.5 87h80q3 -22 19 -40t48 -18q44 0 65.5 41t23.5 104h-13l-2 -6q-13 -33 -39.5 -48.5t-61.5 -15.5q-57 0 -89 38.5t-32 101.5q0 76 42.5 119t113.5 43q83 0 122.5 -57.5t39.5 -149.5q0 -102 -39 -166.5zM222 491.5
q21 23.5 21 63.5q0 41 -22 66t-57 25t-55.5 -24.5t-20.5 -65.5q0 -40 21 -64t56 -24q36 0 57 23.5z" />
    <glyph glyph-name="zero.sups" horiz-adv-x="394" 
d="M65 383q-45 61 -45 157t45 157t132 61t132 -61t45 -157t-45 -157t-132 -61t-132 61zM124.5 648.5q-23.5 -39.5 -23.5 -108.5t23.5 -108t72.5 -39t72.5 38.5t23.5 108.5t-23.5 109t-72.5 39t-72.5 -39.5z" />
    <glyph glyph-name="one.sups" horiz-adv-x="273" 
d="M117 648q-10 -22 -30 -33.5t-55 -11.5h-15v73h18q75 0 92 74h82v-420h-77v323h-12z" />
    <glyph glyph-name="two.sups" horiz-adv-x="328" 
d="M216.5 570q23.5 31 23.5 65q0 28 -17.5 44t-48.5 16q-35 0 -56.5 -19.5t-21.5 -55.5h-76q0 64 42 101t111 37q63 0 104 -32t41 -92q0 -56 -36 -99t-101 -84l-52 -46v-9h173v-67h-269v70l112 98q48 42 71.5 73z" />
    <glyph glyph-name="three.sups" horiz-adv-x="324" 
d="M106 403.5q20 -18.5 55 -18.5q32 0 53.5 16.5t21.5 45.5q0 30 -25 46t-61 16h-41v68h36q32 0 59 12.5t27 45.5q0 27 -19 44.5t-52 17.5t-53 -18.5t-21 -52.5h-77q3 62 45.5 97t110.5 35q65 0 106 -31t41 -84q0 -36 -20.5 -59.5t-56.5 -29.5l-10 -2v-12l10 -2
q37 -6 59.5 -31.5t22.5 -66.5q0 -54 -44.5 -87t-111.5 -33q-66 0 -109 37t-45 96h77q2 -31 22 -49.5z" />
    <glyph glyph-name="four.sups" horiz-adv-x="399" 
d="M373 415h-62v-85h-80v85h-224v81l190 254h114v-271h62v-64zM199 640l-81 -113q-21 -30 -41 -36v-12h154v210h-13q-3 -26 -19 -49z" />
    <glyph glyph-name="five.sups" horiz-adv-x="371" 
d="M126 406q21 -24 57 -24q37 0 59.5 24t22.5 68q0 45 -21 67t-54 22q-28 0 -47 -15.5t-25 -38.5h-78v241h279v-67h-212v-119h12l4 6q16 28 42 41t57 13q57 0 90.5 -38t33.5 -106q0 -72 -43.5 -116t-120.5 -44q-70 0 -111.5 39.5t-43.5 105.5h76q2 -35 23 -59z" />
    <glyph glyph-name="six.sups" horiz-adv-x="332" 
d="M46 693.5q39 64.5 130 64.5q62 0 100.5 -32t47.5 -87h-80q-3 22 -19 40t-49 18q-43 0 -65 -41t-23 -104h12l2 6q14 33 40.5 48.5t60.5 15.5q57 0 89.5 -38.5t32.5 -101.5q0 -76 -42.5 -119t-114.5 -43q-83 0 -122 57.5t-39 149.5q0 102 39 166.5zM111 536.5
q-21 -23.5 -21 -63.5q0 -41 21.5 -66t56.5 -25t56 24.5t21 65.5q0 40 -21 64t-56 24q-36 0 -57 -23.5z" />
    <glyph glyph-name="seven.sups" horiz-adv-x="307" 
d="M200.5 644q16.5 18 36.5 25l6 2v12h-236v67h294v-74l-165 -345h-86l118 258q16 37 32.5 55z" />
    <glyph glyph-name="eight.sups" horiz-adv-x="330" 
d="M51 351q-43 31 -43 87q0 44 25 70.5t61 33.5l6 1v12l-7 2q-32 8 -51.5 32t-19.5 60q0 48 38.5 78.5t104.5 30.5q65 0 103.5 -30t38.5 -79q0 -36 -19 -59.5t-51 -32.5l-7 -2v-12l7 -1q36 -8 60.5 -34.5t24.5 -69.5q0 -56 -42.5 -87t-114.5 -31q-71 0 -114 31zM214.5 596
q19.5 16 19.5 44t-19.5 43.5t-49.5 15.5q-29 0 -49 -15.5t-20 -43.5t20 -44t49 -16q30 0 49.5 16zM221 397.5q21 16.5 21 46.5t-21 47t-56 17q-34 0 -55 -17t-21 -47t20.5 -46.5t55.5 -16.5t56 16.5z" />
    <glyph glyph-name="nine.sups" horiz-adv-x="332" 
d="M287 384.5q-39 -64.5 -131 -64.5q-61 0 -99.5 32t-47.5 87h80q3 -22 19 -40t48 -18q44 0 65.5 41t23.5 104h-13l-2 -6q-13 -33 -39.5 -48.5t-61.5 -15.5q-57 0 -89 38.5t-32 101.5q0 76 42.5 119t113.5 43q83 0 122.5 -57.5t39.5 -149.5q0 -102 -39 -166.5zM222 541.5
q21 23.5 21 63.5q0 41 -22 66t-57 25t-55.5 -24.5t-20.5 -65.5q0 -40 21 -64t56 -24q36 0 57 23.5z" />
    <glyph glyph-name="fraction" unicode="&#x2044;" horiz-adv-x="201" 
d="M287 700h64l-436 -700h-65z" />
    <glyph glyph-name="onehalf" unicode="&#xbd;" horiz-adv-x="803" 
d="M117 598q-10 -22 -30 -33.5t-55 -11.5h-15v73h18q75 0 92 74h82v-420h-77v323h-12zM560 700h64l-436 -700h-65zM690.5 241q23.5 31 23.5 65q0 28 -17.5 44t-48.5 16q-35 0 -56.5 -19.5t-21.5 -55.5h-76q0 64 42 101t111 37q63 0 104 -32t41 -92q0 -56 -36 -99t-101 -84
l-52 -46v-9h173v-67h-269v70l112 98q48 42 71.5 73z" />
    <glyph glyph-name="onequarter" unicode="&#xbc;" horiz-adv-x="874" 
d="M117 598q-10 -22 -30 -33.5t-55 -11.5h-15v73h18q75 0 92 74h82v-420h-77v323h-12zM560 700h64l-436 -700h-65zM847 85h-62v-85h-80v85h-224v81l190 254h114v-271h62v-64zM673 310l-81 -113q-21 -30 -41 -36v-12h154v210h-13q-3 -26 -19 -49z" />
    <glyph glyph-name="threequarters" unicode="&#xbe;" horiz-adv-x="924" 
d="M106 353.5q20 -18.5 55 -18.5q32 0 53.5 16.5t21.5 45.5q0 30 -25 46t-61 16h-41v68h36q32 0 59 12.5t27 45.5q0 27 -19 44.5t-52 17.5t-53 -18.5t-21 -52.5h-77q3 62 45.5 97t110.5 35q65 0 106 -31t41 -84q0 -36 -20.5 -59.5t-56.5 -29.5l-10 -2v-12l10 -2
q37 -6 59.5 -31.5t22.5 -66.5q0 -54 -44.5 -87t-111.5 -33q-66 0 -109 37t-45 96h77q2 -31 22 -49.5zM611 700h64l-436 -700h-65zM898 85h-62v-85h-80v85h-224v81l190 254h114v-271h62v-64zM724 310l-81 -113q-21 -30 -41 -36v-12h154v210h-13q-3 -26 -19 -49z" />
    <glyph glyph-name="oneeighth" unicode="&#x215b;" horiz-adv-x="804" 
d="M117 598q-10 -22 -30 -33.5t-55 -11.5h-15v73h18q75 0 92 74h82v-420h-77v323h-12zM560 700h64l-436 -700h-65zM525 22q-43 31 -43 87q0 44 25 70.5t61 33.5l6 1v12l-7 2q-32 8 -51.5 32t-19.5 60q0 48 38.5 78.5t104.5 30.5q65 0 103.5 -30t38.5 -79q0 -36 -19 -59.5
t-51 -32.5l-7 -2v-12l7 -1q36 -8 60.5 -34.5t24.5 -69.5q0 -56 -42.5 -87t-114.5 -31q-71 0 -114 31zM688.5 267q19.5 16 19.5 44t-19.5 43.5t-49.5 15.5q-29 0 -49 -15.5t-20 -43.5t20 -44t49 -16q30 0 49.5 16zM695 68.5q21 16.5 21 46.5t-21 47t-56 17q-34 0 -55 -17
t-21 -47t20.5 -46.5t55.5 -16.5t56 16.5z" />
    <glyph glyph-name="threeeighths" unicode="&#x215c;" horiz-adv-x="855" 
d="M106 353.5q20 -18.5 55 -18.5q32 0 53.5 16.5t21.5 45.5q0 30 -25 46t-61 16h-41v68h36q32 0 59 12.5t27 45.5q0 27 -19 44.5t-52 17.5t-53 -18.5t-21 -52.5h-77q3 62 45.5 97t110.5 35q65 0 106 -31t41 -84q0 -36 -20.5 -59.5t-56.5 -29.5l-10 -2v-12l10 -2
q37 -6 59.5 -31.5t22.5 -66.5q0 -54 -44.5 -87t-111.5 -33q-66 0 -109 37t-45 96h77q2 -31 22 -49.5zM611 700h64l-436 -700h-65zM576 22q-43 31 -43 87q0 44 25 70.5t61 33.5l6 1v12l-7 2q-32 8 -51.5 32t-19.5 60q0 48 38.5 78.5t104.5 30.5q65 0 103.5 -30t38.5 -79
q0 -36 -19 -59.5t-51 -32.5l-7 -2v-12l7 -1q36 -8 60.5 -34.5t24.5 -69.5q0 -56 -42.5 -87t-114.5 -31q-71 0 -114 31zM739.5 267q19.5 16 19.5 44t-19.5 43.5t-49.5 15.5q-29 0 -49 -15.5t-20 -43.5t20 -44t49 -16q30 0 49.5 16zM746 68.5q21 16.5 21 46.5t-21 47t-56 17
q-34 0 -55 -17t-21 -47t20.5 -46.5t55.5 -16.5t56 16.5z" />
    <glyph glyph-name="fiveeighths" unicode="&#x215d;" horiz-adv-x="902" 
d="M126 356q21 -24 57 -24q37 0 59.5 24t22.5 68q0 45 -21 67t-54 22q-28 0 -47 -15.5t-25 -38.5h-78v241h279v-67h-212v-119h12l4 6q16 28 42 41t57 13q57 0 90.5 -38t33.5 -106q0 -72 -43.5 -116t-120.5 -44q-70 0 -111.5 39.5t-43.5 105.5h76q2 -35 23 -59zM658 700h64
l-436 -700h-65zM623 22q-43 31 -43 87q0 44 25 70.5t61 33.5l6 1v12l-7 2q-32 8 -51.5 32t-19.5 60q0 48 38.5 78.5t104.5 30.5q65 0 103.5 -30t38.5 -79q0 -36 -19 -59.5t-51 -32.5l-7 -2v-12l7 -1q36 -8 60.5 -34.5t24.5 -69.5q0 -56 -42.5 -87t-114.5 -31q-71 0 -114 31z
M786.5 267q19.5 16 19.5 44t-19.5 43.5t-49.5 15.5q-29 0 -49 -15.5t-20 -43.5t20 -44t49 -16q30 0 49.5 16zM793 68.5q21 16.5 21 46.5t-21 47t-56 17q-34 0 -55 -17t-21 -47t20.5 -46.5t55.5 -16.5t56 16.5z" />
    <glyph glyph-name="seveneighths" unicode="&#x215e;" horiz-adv-x="838" 
d="M200.5 594q16.5 18 36.5 25l6 2v12h-236v67h294v-74l-165 -345h-86l118 258q16 37 32.5 55zM594 700h64l-436 -700h-65zM559 22q-43 31 -43 87q0 44 25 70.5t61 33.5l6 1v12l-7 2q-32 8 -51.5 32t-19.5 60q0 48 38.5 78.5t104.5 30.5q65 0 103.5 -30t38.5 -79
q0 -36 -19 -59.5t-51 -32.5l-7 -2v-12l7 -1q36 -8 60.5 -34.5t24.5 -69.5q0 -56 -42.5 -87t-114.5 -31q-71 0 -114 31zM722.5 267q19.5 16 19.5 44t-19.5 43.5t-49.5 15.5q-29 0 -49 -15.5t-20 -43.5t20 -44t49 -16q30 0 49.5 16zM729 68.5q21 16.5 21 46.5t-21 47t-56 17
q-34 0 -55 -17t-21 -47t20.5 -46.5t55.5 -16.5t56 16.5z" />
    <glyph glyph-name="period" unicode="." horiz-adv-x="271" 
d="M75 165h122v-165h-122v165z" />
    <glyph glyph-name="comma" unicode="," horiz-adv-x="271" 
d="M94 -67q19 0 26.5 8t7.5 32v27h-53v155h122v-179q0 -50 -21.5 -74t-71.5 -24h-29v55h19z" />
    <glyph glyph-name="colon" unicode=":" horiz-adv-x="271" 
d="M75 165h122v-165h-122v165zM75 515h122v-165h-122v165z" />
    <glyph glyph-name="semicolon" unicode=";" horiz-adv-x="272" 
d="M95 -67q19 0 26.5 8t7.5 32v27h-53v155h122v-179q0 -50 -21.5 -74t-71.5 -24h-29v55h19zM75 515h122v-165h-122v165z" />
    <glyph glyph-name="ellipsis" unicode="&#x2026;" horiz-adv-x="694" 
d="M75 165h122v-165h-122v165zM286 165h122v-165h-122v165zM498 165h122v-165h-122v165z" />
    <glyph glyph-name="exclam" unicode="!" horiz-adv-x="271" 
d="M77 700h116l-23 -475h-72zM197 165v-165h-122v165h122z" />
    <glyph glyph-name="exclamdown" unicode="&#xa1;" horiz-adv-x="271" 
d="M75 535v165h122v-165h-122zM98 475h72l23 -475h-116z" />
    <glyph glyph-name="question" unicode="?" horiz-adv-x="571" 
d="M226 305q15 29 36 47.5t55 42.5q44 30 65.5 54.5t21.5 63.5q0 44 -29.5 71t-81.5 27q-58 0 -93 -33t-35 -93h-128q0 107 69.5 168.5t185.5 61.5q67 0 122 -22.5t87.5 -66.5t32.5 -108q0 -49 -18 -82.5t-43 -53t-66 -43.5q-33 -18 -51.5 -31.5t-31 -33t-12.5 -47.5v-20
h-101v29q0 40 15 69zM323 165v-165h-122v165h122z" />
    <glyph glyph-name="questiondown" unicode="&#xbf;" horiz-adv-x="571" 
d="M248 705h122v-165h-122v165zM345 400q-15 -29 -36 -47.5t-55 -42.5q-44 -30 -65.5 -54.5t-21.5 -63.5q0 -44 29.5 -71t81.5 -27q58 0 93 33t35 93h128q0 -107 -69.5 -168.5t-185.5 -61.5q-67 0 -122 22.5t-87.5 66.5t-32.5 108q0 49 18 82.5t43 53t66 43.5
q33 18 51.5 31.5t31 33t12.5 47.5v20h101v-29q0 -40 -15 -69z" />
    <glyph glyph-name="periodcentered" unicode="&#xb7;" horiz-adv-x="259" 
d="M80 443h122v-165h-122v165z" />
    <glyph glyph-name="bullet" unicode="&#x2022;" horiz-adv-x="380" 
d="M319.5 425q-20.5 34 -55 54.5t-74.5 20.5t-74.5 -20.5t-55 -54.5t-20.5 -73q0 -41 20.5 -76t55 -55.5t74.5 -20.5t74.5 20.5t55 55.5t20.5 76q0 39 -20.5 73z" />
    <glyph glyph-name="asterisk" unicode="*" horiz-adv-x="333" 
d="M192 400v60l-5 53l45 -31l52 -30l25 44l-52 30l-49 23l49 23l52 30l-25 44l-52 -29l-44 -32l4 55v60h-51v-60l5 -55l-45 31l-52 30l-25 -44l52 -30l48 -24l-48 -21l-52 -31l25 -44l53 30l44 32l-5 -54v-60h51z" />
    <glyph glyph-name="numbersign" unicode="#" horiz-adv-x="709" 
d="M672 424h-125l-20 -150h116v-81h-127l-26 -193h-81l26 193h-182l-26 -193h-81l26 193h-135v81h146l20 150h-137v81h148l26 195h82l-26 -195h181l26 195h81l-26 -195h114v-81zM446 274l20 150h-181l-21 -150h182z" />
    <glyph glyph-name="slash" unicode="/" horiz-adv-x="404" 
d="M393 750l-300 -750h-83l300 750h83z" />
    <glyph glyph-name="backslash" unicode="\" horiz-adv-x="404" 
d="M10 750l300 -750h83l-300 750h-83z" />
    <glyph glyph-name="uni208D" unicode="&#x208d;" horiz-adv-x="212" 
d="M51.5 99.5q-24.5 58.5 -24.5 133.5t24.5 133t66.5 110h61q-42 -59 -61.5 -117t-19.5 -126q0 -69 19.5 -127t61.5 -116h-61q-42 51 -66.5 109.5z" />
    <glyph glyph-name="uni208E" unicode="&#x208e;" horiz-adv-x="212" 
d="M104 106.5q20 58.5 20 126.5t-20 126t-62 117h61q43 -51 67 -109t24 -134t-24.5 -134.5t-66.5 -108.5h-61q42 58 62 116.5z" />
    <glyph glyph-name="parenleft" unicode="(" horiz-adv-x="326" 
d="M77.5 122.5q-40.5 97.5 -40.5 222.5t40.5 222.5t110.5 182.5h102q-70 -98 -103 -195t-33 -210q0 -114 33 -210t103 -195h-102q-70 85 -110.5 182.5z" />
    <glyph glyph-name="parenright" unicode=")" horiz-adv-x="326" 
d="M37 -60q70 99 102.5 195.5t32.5 209.5t-32.5 209.5t-102.5 195.5h101q71 -84 111.5 -181.5t40.5 -223.5t-40.5 -223.5t-111.5 -181.5h-101z" />
    <glyph glyph-name="braceleft" unicode="{" horiz-adv-x="341" 
d="M140.5 -36q-32.5 35 -32.5 106v150q0 35 -18.5 53t-52.5 18v97q34 0 52.5 18t18.5 53v149q0 72 32.5 107t99.5 35h65v-112h-27q-28 0 -42.5 -12.5t-14.5 -45.5v-132q0 -87 -76 -96v-26q76 -7 76 -95v-132q0 -33 14.5 -45.5t42.5 -12.5h27v-112h-65q-67 0 -99.5 35z" />
    <glyph glyph-name="braceright" unicode="}" horiz-adv-x="341" 
d="M37 -71v112h27q28 0 42 12.5t14 45.5v132q0 88 77 95v26q-77 9 -77 96v132q0 33 -14 45.5t-42 12.5h-27v112h64q68 0 100 -35t32 -107v-149q0 -35 19 -53t53 -18v-97q-34 0 -53 -18t-19 -53v-150q0 -72 -32 -106.5t-100 -34.5h-64z" />
    <glyph glyph-name="bracketleft" unicode="[" horiz-adv-x="325" 
d="M288 750v-81h-101v-648h101v-81h-203v810h203z" />
    <glyph glyph-name="bracketright" unicode="]" horiz-adv-x="325" 
d="M240 750v-810h-203v81h101v648h-101v81h203z" />
    <glyph glyph-name="uni207D" unicode="&#x207d;" horiz-adv-x="239" 
d="M74 373q-24 58 -24 134t24 134t67 109h61q-42 -59 -61.5 -117t-19.5 -126q0 -69 19.5 -126.5t61.5 -116.5h-61q-43 51 -67 109z" />
    <glyph glyph-name="uni207E" unicode="&#x207e;" horiz-adv-x="239" 
d="M98.5 380.5q19.5 57.5 19.5 126.5q0 68 -19.5 126t-61.5 117h61q42 -52 66.5 -110t24.5 -133t-24.5 -133t-66.5 -110h-61q42 59 61.5 116.5z" />
    <glyph glyph-name="parenleft.case" horiz-adv-x="301" 
d="M108 71.5q-31 52.5 -51 120.5t-20 153q0 124 39.5 213.5t111.5 176.5h76q-73 -104 -104.5 -190t-31.5 -200t31.5 -200t104.5 -190h-76q-49 64 -80 116.5z" />
    <glyph glyph-name="parenright.case" horiz-adv-x="301" 
d="M37 -45q72 104 103.5 190t31.5 200t-31 200.5t-104 189.5h75q73 -87 112.5 -176.5t39.5 -213.5q0 -85 -20 -153t-51.5 -120t-80.5 -117h-75z" />
    <glyph glyph-name="braceleft.case" horiz-adv-x="341" 
d="M138 -3q-30 34 -30 113v117q0 69 -71 77v76q71 8 71 76v113q0 79 30 112.5t102 33.5h65v-112h-22q-30 0 -46 -12.5t-16 -45.5v-90q0 -47 -17.5 -71.5t-58.5 -28.5v-26q41 -4 58.5 -29t17.5 -72v-94q0 -33 16 -46t46 -13h22v-112h-65q-72 0 -102 34z" />
    <glyph glyph-name="braceright.case" horiz-adv-x="341" 
d="M37 -37v112h21q30 0 46 13t16 46v94q0 47 18 72t59 29v26q-41 4 -59 28.5t-18 71.5v90q0 33 -15.5 45.5t-46.5 12.5h-21v112h65q72 0 101.5 -33.5t29.5 -112.5v-113q0 -68 72 -76v-76q-72 -8 -72 -77v-117q0 -79 -29.5 -113t-101.5 -34h-65z" />
    <glyph glyph-name="bracketleft.case" horiz-adv-x="320" 
d="M283 700v-81h-101v-538h101v-81h-198v700h198z" />
    <glyph glyph-name="bracketright.case" horiz-adv-x="320" 
d="M235 700v-700h-198v81h101v538h-101v81h198z" />
    <glyph glyph-name="hyphen" unicode="-" horiz-adv-x="389" 
d="M45 386h300v-105h-300v105z" />
    <glyph glyph-name="endash" unicode="&#x2013;" horiz-adv-x="590" 
d="M545 387v-107h-500v107h500z" />
    <glyph glyph-name="emdash" unicode="&#x2014;" horiz-adv-x="890" 
d="M845 387v-107h-800v107h800z" />
    <glyph glyph-name="underscore" unicode="_" horiz-adv-x="461" 
d="M416 0v-97h-371v97h371z" />
    <glyph glyph-name="hyphen.case" horiz-adv-x="390" 
d="M45 346h300v-105h-300v105z" />
    <glyph glyph-name="endash.case" horiz-adv-x="590" 
d="M545 349v-107h-500v107h500z" />
    <glyph glyph-name="emdash.case" horiz-adv-x="890" 
d="M845 347v-107h-800v107h800z" />
    <glyph glyph-name="quotesinglbase" unicode="&#x201a;" horiz-adv-x="271" 
d="M94 -67q19 0 26.5 8t7.5 32v27h-53v155h122v-179q0 -50 -21.5 -74t-71.5 -24h-29v55h19z" />
    <glyph glyph-name="quotedblbase" unicode="&#x201e;" horiz-adv-x="271" 
d="M197 155v-179q0 -50 -21.5 -74t-71.5 -24h-29v55h19q19 0 26.5 8t7.5 32v27h-53v155h122z" />
    <glyph glyph-name="quotedblleft" unicode="&#x201c;" horiz-adv-x="443" 
d="M130.5 637q-7.5 -8 -7.5 -32v-27h54v-155h-122v179q0 50 21 74t71 24h30v-55h-19q-20 0 -27.5 -8zM341.5 637q-7.5 -8 -7.5 -32v-27h54v-155h-122v179q0 50 21.5 74t71.5 24h29v-55h-19q-20 0 -27.5 -8z" />
    <glyph glyph-name="quotedblright" unicode="&#x201d;" horiz-adv-x="443" 
d="M74 478q19 0 26.5 8t7.5 32v27h-53v155h122v-179q0 -50 -21.5 -74t-71.5 -24h-29v55h19zM285 478q19 0 26.5 8t7.5 32v27h-53v155h122v-179q0 -50 -21.5 -74t-71.5 -24h-29v55h19z" />
    <glyph glyph-name="quoteleft" unicode="&#x2018;" horiz-adv-x="231" 
d="M130.5 637q-7.5 -8 -7.5 -32v-27h54v-155h-122v179q0 50 21 74t71 24h30v-55h-19q-20 0 -27.5 -8z" />
    <glyph glyph-name="quotteright" unicode="&#x2019;" horiz-adv-x="231" 
d="M74 478q19 0 26.5 8t7.5 32v27h-53v155h122v-179q0 -50 -21.5 -74t-71.5 -24h-29v55h19z" />
    <glyph glyph-name="guillemotleft" unicode="&#xab;" horiz-adv-x="580" 
d="M182 505h110l-103 -170q-19 -31 -32 -46t-34 -24l-4 -2v-21l4 -2q21 -9 35 -25t31 -45l103 -170h-110l-145 253zM434 505h110l-103 -170q-19 -31 -32 -46t-34 -24l-4 -2v-21l4 -2q21 -9 35 -25t31 -45l103 -170h-110l-145 253z" />
    <glyph glyph-name="guillemotright" unicode="&#xbb;" horiz-adv-x="580" 
d="M140 170q17 29 31 45t34 25l5 2v21l-5 2q-20 9 -33 24t-32 46l-103 170h110l145 -252l-145 -253h-110zM391 170q17 29 31 45t35 25l5 2v21l-5 2q-21 9 -34 25t-31 45l-104 170h110l146 -252l-146 -253h-110z" />
    <glyph glyph-name="guilsinglleft" unicode="&#x2039;" horiz-adv-x="329" 
d="M182 505h110l-103 -170q-19 -31 -32 -46t-34 -24l-4 -2v-21l4 -2q21 -9 35 -25t31 -45l103 -170h-110l-145 253z" />
    <glyph glyph-name="guilsinglright" unicode="&#x203a;" horiz-adv-x="329" 
d="M37 0l103 170q17 29 31 45t34 25l5 2v21l-5 2q-20 9 -33 24t-32 46l-103 170h110l145 -252l-145 -253h-110z" />
    <glyph glyph-name="quotedbl" unicode="&#x22;" horiz-adv-x="430" 
d="M133 460h-54l-34 240h123zM350 460h-54l-34 240h123z" />
    <glyph glyph-name="quotesingle" unicode="'" horiz-adv-x="213" 
d="M133 460h-54l-34 240h123z" />
    <glyph glyph-name="cent" unicode="&#xa2;" horiz-adv-x="592" 
d="M384 226q35 28 41 78h131q-8 -86 -65.5 -144.5t-146.5 -70.5v-71h-87v71q-102 14 -161 86.5t-59 179.5t58.5 178.5t161.5 84.5v66h87v-66q90 -12 147 -70t65 -145h-131q-6 50 -41 78t-84 28q-58 0 -94 -41t-36 -114t36.5 -114.5t94.5 -41.5q48 0 83 28z" />
    <glyph glyph-name="currency" unicode="&#xa4;" horiz-adv-x="630" 
d="M576 252.5q-17 -46.5 -49 -82.5l57 -57l-53 -54l-63 63q-63 -37 -146 -37q-93 0 -161 45l-71 -71l-53 54l68 70q-27 34 -41 77.5t-14 92.5q0 100 55 171l-68 70l53 54l72 -72q68 44 160 44q82 0 145 -36l64 64l53 -54l-57 -58q32 -35 49 -81.5t17 -101.5
q0 -54 -17 -100.5zM421 240q39 41 39 113q0 71 -39 112t-99 41t-99 -41t-39 -112q0 -72 39 -113t99 -41t99 41z" />
    <glyph glyph-name="dollar" unicode="$" horiz-adv-x="638" 
d="M536 329q49 -49 49 -128q0 -92 -62 -147.5t-159 -66.5v-72h-98v74q-97 14 -159 74t-67 156h138q3 -57 40.5 -90t103.5 -33q59 0 92.5 24t33.5 73q0 38 -23.5 60t-73.5 32l-125 22q-89 17 -139 69.5t-50 132.5q0 91 63 144t166 61v71h98v-75q103 -15 166.5 -75.5
t70.5 -157.5h-139q-4 63 -46.5 95t-112.5 32q-63 0 -96.5 -25t-33.5 -66q0 -36 25 -61t71 -34l129 -24q89 -16 138 -65z" />
    <glyph glyph-name="Euro" unicode="&#x20ac;" horiz-adv-x="701" 
d="M665 206q-15 -107 -88.5 -164t-178.5 -57q-113 0 -189 67t-98 200h-84l21 73h56q-1 10 -1 31q0 17 2 47h-64l15 73h58q25 123 99 183t181 60q111 0 180 -58.5t83 -162.5h-128q-11 53 -46.5 83.5t-88.5 30.5q-54 0 -93 -33t-57 -103h182l-13 -73h-180q-2 -28 -2 -45
q0 -22 1 -33h189l-21 -73h-160q29 -160 156 -160q50 0 85 29.5t45 84.5h139z" />
    <glyph glyph-name="sterling" unicode="&#xa3;" horiz-adv-x="609" 
d="M151 110h414v-110h-509v115q38 16 72.5 55t34.5 93q0 25 -8 47h-113v81h68q-17 28 -27 57t-10 66q0 97 67 149t170 52q76 0 133.5 -27.5t90 -79.5t32.5 -123h-128q0 60 -35.5 93t-93.5 33q-51 0 -79 -26.5t-28 -75.5q0 -27 8 -48t25 -49l12 -21h194v-81h-168v-13
q0 -59 -33 -104.5t-79 -58.5l-10 -4v-20z" />
    <glyph glyph-name="uni0192" unicode="&#x192;" horiz-adv-x="584" 
d="M546 700v-97h-60q-51 0 -76.5 -22t-34.5 -76l-8 -50h101v-91h-116l-60 -373q-12 -64 -27.5 -104.5t-50.5 -67t-97 -26.5h-93v97h39q55 0 84 26.5t40 92.5l56 355h-98v91h113l13 84q11 69 53 115t119 46h103z" />
    <glyph glyph-name="uni0E3F" unicode="&#xe3f;" horiz-adv-x="697" 
d="M589.5 53q-65.5 -51 -172.5 -53v-85h-119v85h-213v700h213v85h119v-85q104 -4 160 -52t56 -126q0 -62 -34.5 -97t-92.5 -47l-23 -3v-21l22 -2q66 -9 108 -51t42 -110q0 -87 -65.5 -138zM218 409h165q50 0 81 26t31 69t-30 70t-91 27h-156v-192zM485.5 132
q31.5 31 31.5 77t-32.5 73.5t-92.5 27.5h-174v-209h174q62 0 93.5 31z" />
    <glyph glyph-name="uni20A9" unicode="&#x20a9;" horiz-adv-x="1035" 
d="M935 406l-38 -130h144v-72h-165l-60 -204h-156l-108 353q-23 77 -26 158h-18q-3 -81 -26 -158l-107 -353h-156l-60 204h-165v72h144l-38 130h-106v72h85l-65 222h138l113 -386q22 -75 24 -149h19q2 67 26 152l118 383h130l120 -387q22 -77 24 -148h18q1 27 7 66t17 78
l115 391h138l-65 -222h85v-72h-106z" />
    <glyph glyph-name="uni20B8" unicode="&#x20b8;" horiz-adv-x="569" 
d="M33 700h503v-79h-503v79zM351 447v-447h-133v447h-185v114h503v-114h-185z" />
    <glyph glyph-name="uni20BA" unicode="&#x20ba;" horiz-adv-x="638" 
d="M598 309q0 -104 -46.5 -173t-125.5 -102.5t-179 -33.5h-112v267l-105 -38v92l105 38v87l-105 -38v82l105 38v172h129v-125l159 57v-81l-159 -58v-87l159 58v-92l-159 -58v-196q211 0 217 191h117z" />
    <glyph glyph-name="uni20BD" unicode="&#x20bd;" horiz-adv-x="666" 
d="M223 253v-58h206v-76h-206v-121l-133 2v119h-55v76h55v62h-55v114h55v329h309q112 0 175 -61t63 -162q0 -105 -62 -164.5t-176 -59.5h-176zM223 371h127v-4h32q59 0 89 29t30 80t-30.5 80t-89.5 29h-158v-214z" />
    <glyph glyph-name="yen" unicode="&#xa5;" horiz-adv-x="630" 
d="M396 265h106v-51h-121v-71h121v-51h-121v-92h-133v92h-120v51h120v71h-120v51h105l-219 435h148l107 -216q34 -75 37 -137h19q2 33 11.5 69.5t23.5 67.5l108 216h148z" />
    <glyph glyph-name="plus" unicode="+" horiz-adv-x="492" 
d="M455 354v-77h-170v-171h-78v171h-170v77h170v171h78v-171h170z" />
    <glyph glyph-name="minus" unicode="&#x2212;" horiz-adv-x="493" 
d="M456 356v-78h-419v78h419z" />
    <glyph glyph-name="multiply" unicode="&#xd7;" horiz-adv-x="424" 
d="M388 437l-121 -121l121 -120l-55 -55l-120 121l-122 -122l-54 55l121 121l-121 121l54 54l121 -120l121 121z" />
    <glyph glyph-name="divide" unicode="&#xf7;" horiz-adv-x="503" 
d="M313 619v-165h-122v165h122zM466 351v-78h-429v78h429zM313 180v-165h-122v165h122z" />
    <glyph glyph-name="equal" unicode="=" horiz-adv-x="507" 
d="M471 466v-77h-434v77h434zM471 239v-77h-434v77h434z" />
    <glyph glyph-name="notequal" unicode="&#x2260;" horiz-adv-x="507" 
d="M471 388h-152l-68 -149h220v-78h-255l-43 -94h-68l43 94h-111v78h146l67 149h-213v78h248l43 94h69l-43 -94h117v-78z" />
    <glyph glyph-name="greater" unicode="&#x3e;" horiz-adv-x="435" 
d="M278 305l5 1v20l-5 1q-50 7 -81 19l-160 71v125l374 -167v-119l-374 -164v124l161 70q42 15 80 19z" />
    <glyph glyph-name="less" unicode="&#x3c;" horiz-adv-x="435" 
d="M398 92l-374 164v119l374 167v-125l-160 -71q-31 -12 -81 -19l-5 -1v-20l5 -1q38 -4 80 -19l161 -70v-124z" />
    <glyph glyph-name="greaterequal" unicode="&#x2265;" horiz-adv-x="509" 
d="M233 348q44 9 81 10l6 1v21l-6 1q-49 4 -82 11l-175 51v104l394 -115v-125l-394 -114v105zM55 139h399v-92h-399v92z" />
    <glyph glyph-name="lessequal" unicode="&#x2264;" horiz-adv-x="488" 
d="M43 307v125l394 115v-104l-176 -51q-34 -7 -81 -11l-7 -1v-21l7 -1q35 -1 81 -10l176 -50v-105zM439 47h-399v92h399v-92z" />
    <glyph glyph-name="plusminus" unicode="&#xb1;" horiz-adv-x="514" 
d="M55 315v96h150v136h97v-136h152v-96h-152v-137h-97v137h-150zM60 139h399v-92h-399v92z" />
    <glyph glyph-name="logicalnot" unicode="&#xac;" horiz-adv-x="534" 
d="M50 350v80h415v-231h-87v151h-328z" />
    <glyph glyph-name="asciicircum" unicode="^" horiz-adv-x="437" 
d="M240 489q-6 28 -10 74l-1 6h-20l-1 -6q-4 -46 -10 -75l-54 -182h-107l116 394h137l111 -394h-108z" />
    <glyph glyph-name="integral" unicode="&#x222b;" horiz-adv-x="365" 
d="M224 -93q-31 -30 -95 -30h-92v99h36q49 0 49 48v632q0 61 31 91t83 30h93v-99h-28q-46 0 -46 -50v-630q0 -61 -31 -91z" />
    <glyph glyph-name="product" unicode="&#x220f;" horiz-adv-x="756" 
d="M24 653v97h709v-97h-107v-859h-133v859h-234v-859h-133v859h-102z" />
    <glyph glyph-name="summation" unicode="&#x2211;" horiz-adv-x="654" 
d="M318 202q26 29 43.5 43.5t39.5 21.5l9 4v20l-9 4q-21 7 -38.5 21.5t-44.5 43.5l-233 260v120h484v-110h-338v-20l6 -2q22 -7 38.5 -21t38.5 -42l223 -259v-10l-223 -262q-23 -28 -38.5 -41.5t-35.5 -19.5l-9 -5v-20h338v-109h-484v119z" />
    <glyph glyph-name="radical" unicode="&#x221a;" horiz-adv-x="759" 
d="M24 171v122h198l72 -184q30 -85 39 -114t12 -60h21q4 33 13 65.5t35 109.5l210 605h135l-323 -925h-174l-143 381h-95z" />
    <glyph glyph-name="uni00B5" unicode="&#xb5;" horiz-adv-x="596" 
d="M528 505v-505h-128v107h-21l-5 -13q-22 -49 -64 -79t-101 -30q-11 0 -16 1v-196h-128v715h128v-300q0 -47 17.5 -77.5t67.5 -30.5q56 0 89 40.5t33 108.5v259h128z" />
    <glyph glyph-name="percent" unicode="%" horiz-adv-x="871" 
d="M87 408q-46 48 -46 122t46 122t125 48t124.5 -48t45.5 -122t-45.5 -122t-124.5 -48t-125 48zM623 700h105l-473 -700h-105zM274.5 464q22.5 26 22.5 66t-22.5 66t-62.5 26t-63 -26t-23 -66t23 -66t63 -26t62.5 26zM535 43q-46 48 -46 122t46 122t125 48t124.5 -48
t45.5 -122t-45.5 -122t-124.5 -48t-125 48zM723 99q23 26 23 66t-23 66t-63 26t-63 -26t-23 -66t23 -66t63 -26t63 26z" />
    <glyph glyph-name="perthousand" unicode="&#x2030;" horiz-adv-x="1252" 
d="M87 408q-46 48 -46 122t46 122t125 48t124.5 -48t45.5 -122t-45.5 -122t-124.5 -48t-125 48zM728 700l-473 -700h-105l473 700h105zM274.5 464q22.5 26 22.5 66t-22.5 66t-62.5 26t-63 -26t-23 -66t23 -66t63 -26t62.5 26zM535 43q-46 48 -46 122t46 122t125 48
t124.5 -48t45.5 -122t-45.5 -122t-124.5 -48t-125 48zM920 43q-46 48 -46 122t46 122t125 48t125 -48t46 -122t-46 -122t-125 -48t-125 48zM723 99q23 26 23 66t-23 66t-63 26t-63 -26t-23 -66t23 -66t63 -26t63 26zM1108 99q23 26 23 66t-23 66t-63 26t-63 -26t-23 -66
t23 -66t63 -26t63 26z" />
    <glyph glyph-name="arrowup" unicode="&#x2191;" horiz-adv-x="669" 
d="M469 467q-46 49 -59 98h-20v-578h-110v578h-21q-13 -49 -59 -98l-112 -115l-64 65l311 311l311 -311l-65 -65z" />
    <glyph glyph-name="uni2197" unicode="&#x2197;" horiz-adv-x="656" 
d="M497 260q2 65 29 110l-15 15l-409 -409l-78 78l409 409l-14 14q-42 -24 -111 -28l-161 -1v91h440v-440h-91z" />
    <glyph glyph-name="arrowright" unicode="&#x2192;" horiz-adv-x="801" 
d="M517 177q50 46 98 58v21h-578v110h578v21q-48 12 -98 58l-115 113l65 64l311 -311l-311 -311l-65 64z" />
    <glyph glyph-name="uni2198" unicode="&#x2198;" horiz-adv-x="656" 
d="M419 71l14 15l-409 409l78 78l409 -409l14 14q-25 44 -28 111l-1 161h91v-440h-440v91l161 -1q68 -3 111 -29z" />
    <glyph glyph-name="arrowdown" unicode="&#x2193;" horiz-adv-x="669" 
d="M259 161h21v578h110v-578h20q13 49 59 98l112 115l65 -65l-311 -311l-311 311l64 65l113 -115q44 -48 58 -98z" />
    <glyph glyph-name="uni2199" unicode="&#x2199;" horiz-adv-x="656" 
d="M70 10v440h91l-2 -161q-2 -66 -28 -111l14 -14l410 409l78 -78l-410 -409l15 -15q42 26 111 29l160 1v-91h-439z" />
    <glyph glyph-name="arrowleft" unicode="&#x2190;" horiz-adv-x="801" 
d="M24 311l311 311l64 -64l-115 -113q-48 -46 -98 -58v-21h579v-110h-579v-21q50 -12 98 -58l115 -113l-64 -64z" />
    <glyph glyph-name="uni2196" unicode="&#x2196;" horiz-adv-x="656" 
d="M238 477l-15 -14l410 -410l-78 -78l-410 410l-14 -15q26 -43 28 -111l2 -161h-91v440h439v-91l-160 2q-68 2 -111 28z" />
    <glyph glyph-name="arrowboth" unicode="&#x2194;" horiz-adv-x="1085" 
d="M1049 311l-311 -311l-65 64l115 113q48 46 98 58v21h-687v-21q50 -12 98 -58l115 -113l-64 -64l-311 311l311 311l64 -64l-115 -113q-48 -46 -98 -58v-21h687v21q-50 12 -98 58l-115 113l65 64z" />
    <glyph glyph-name="arrowupdn" unicode="&#x2195;" horiz-adv-x="695" 
d="M594 179l65 -65l-311 -311l-311 311l64 65l113 -115q44 -48 58 -98h20v574h-20q-14 -50 -58 -98l-113 -115l-64 65l311 311l311 -311l-65 -65l-112 115q-46 49 -59 98h-20v-574h20q13 49 59 98z" />
    <glyph glyph-name="uni25CF" unicode="&#x25cf;" horiz-adv-x="609" 
d="M441.5 484q61.5 -36 96.5 -97t35 -133t-35 -133.5t-96.5 -97.5t-136.5 -36q-76 0 -137 36t-96 97.5t-35 133.5t35 133t96 97t137 36q75 0 136.5 -36z" />
    <glyph glyph-name="filledbox" unicode="&#x25a0;" horiz-adv-x="645" 
d="M575 505v-505h-505v505h505z" />
    <glyph glyph-name="at" unicode="@" horiz-adv-x="1088" 
d="M798.5 682q111.5 -54 175.5 -153.5t64 -231.5q0 -96 -27 -166.5t-75 -108t-109 -37.5q-65 0 -111 36.5t-47 109.5h-18l-6 -13q-49 -114 -161 -114q-58 0 -102.5 30.5t-69.5 86.5t-25 132q0 75 25 131.5t70 86.5t102 30q56 0 97 -29t64 -84l6 -13h18v105h113v-323
q0 -69 54 -69q50 0 75 55.5t25 149.5q0 103 -48.5 182.5t-136.5 124t-203 44.5q-109 0 -199 -45.5t-143.5 -133.5t-53.5 -210q0 -109 48.5 -194.5t131.5 -132.5t182 -47q112 0 226 63l37 -87q-60 -33 -127 -50t-136 -17q-135 0 -240.5 60t-164.5 165.5t-59 239.5
q0 161 71.5 269.5t185.5 160t242 51.5q138 0 249.5 -54zM636 142.5q33 45.5 33 109.5t-33 110t-97 46t-96.5 -45.5t-32.5 -110.5t32.5 -110t96.5 -45t97 45.5z" />
    <glyph glyph-name="ampersand" unicode="&#x26;" horiz-adv-x="669" 
d="M646 107v-107h-41q-75 0 -135 47q-83 -62 -192 -62q-66 0 -120.5 23t-87 67.5t-32.5 105.5q0 70 40.5 112.5t95.5 54.5l14 3v20l-15 8q-49 21 -80.5 62.5t-31.5 96.5q0 50 28.5 90t81 63.5t123.5 23.5q67 0 119 -21.5t80.5 -61t28.5 -90.5q0 -62 -43.5 -103.5
t-128.5 -69.5l-12 -3v-18l129 -148l5 -5q32 58 40 139l96 -19q-8 -106 -63 -188q31 -20 63 -20h38zM203 465q18 -24 52 -48l8 -6l15 6q59 23 90.5 46t31.5 64q0 44 -30.5 66.5t-74.5 22.5q-46 0 -78 -25t-32 -69q0 -33 18 -57zM207 114q35 -27 90 -27q58 0 104 30l-12 15
l-134 157l-9 -5q-35 -19 -54.5 -39.5t-19.5 -56.5q0 -47 35 -74z" />
    <glyph glyph-name="paragraph" unicode="&#xb6;" horiz-adv-x="698" 
d="M99.5 360.5q-59.5 48.5 -59.5 142.5q0 116 76.5 156.5t172.5 40.5h369v-83h-73v-824h-90v823h-149v-823h-90v519q-97 0 -156.5 48.5z" />
    <glyph glyph-name="copyright" unicode="&#xa9;" horiz-adv-x="872" 
d="M612.5 668q83.5 -47 131 -129.5t47.5 -186.5q0 -105 -47.5 -188.5t-131 -131t-187.5 -47.5t-188 47.5t-131.5 131t-47.5 188.5q0 104 47.5 186.5t131.5 129.5t188 47t187.5 -47zM587.5 76.5q72.5 40.5 113 112.5t40.5 163t-40.5 162t-112.5 110.5t-163 39.5
q-90 0 -162 -41.5t-113 -112.5t-41 -158q0 -91 40.5 -163t113 -112.5t162.5 -40.5t162.5 40.5zM322.5 160q-44.5 29 -67 79t-22.5 111t23 111t67.5 79t106.5 29q82 0 133.5 -47.5t59.5 -123.5h-82q-6 46 -35.5 73.5t-75.5 27.5q-55 0 -85 -41t-30 -107q0 -67 29.5 -108
t85.5 -41q46 0 75.5 27.5t35.5 73.5h82q-8 -76 -59 -124t-134 -48q-63 0 -107.5 29z" />
    <glyph glyph-name="registered" unicode="&#xae;" horiz-adv-x="872" 
d="M624.5 668q83.5 -47 131 -129.5t47.5 -186.5q0 -105 -47.5 -188.5t-131 -131t-187.5 -47.5t-188 47.5t-131.5 131t-47.5 188.5q0 104 47.5 186.5t131.5 129.5t188 47t187.5 -47zM599 76.5q72 40.5 112.5 112.5t40.5 163t-40.5 162t-112.5 110.5t-162 39.5t-162.5 -41.5
t-113.5 -112.5t-41 -158q0 -91 41 -163t113 -112.5t163 -40.5q90 0 162 40.5zM578 531q32 -29 32 -76q0 -46 -28 -72.5t-67 -29.5v-12l6 -1q47 -2 69 -28.5t25 -77.5l5 -94h-80l-5 94q-2 39 -20.5 56.5t-58.5 17.5h-98v-168h-80v420h205q63 0 95 -29zM508 391q18 16 18 45
q0 56 -67 56h-101v-117h97q35 0 53 16z" />
    <glyph glyph-name="uni2117" unicode="&#x2117;" horiz-adv-x="862" 
d="M619.5 668q83.5 -47 131 -129.5t47.5 -186.5q0 -105 -47.5 -188.5t-131 -131t-187.5 -47.5t-188 47.5t-131.5 131t-47.5 188.5q0 104 47.5 186.5t131.5 129.5t188 47t187.5 -47zM594 76.5q72 40.5 112.5 112.5t40.5 163t-40.5 162t-112.5 110.5t-162 39.5t-162.5 -41.5
t-113.5 -112.5t-41 -158q0 -91 41 -163t113 -112.5t163 -40.5q90 0 162 40.5zM581.5 523.5q37.5 -36.5 37.5 -97.5q0 -63 -37.5 -98.5t-105.5 -35.5h-105v-153l-80 1v420h185q68 0 105.5 -36.5zM519 377.5q18 17.5 18 47.5q0 31 -18 48.5t-54 17.5h-94v-131h95q35 0 53 17.5
z" />
    <glyph glyph-name="trademark" unicode="&#x2122;" horiz-adv-x="707" 
d="M90 648h-72v52h205v-52h-72v-228h-61v228zM384 700l56 -144q8 -29 11.5 -45.5t3.5 -33.5h8q0 17 3 33.5t11 45.5l56 144h100v-280h-61v212h-8q0 -15 -12 -62l-55 -150h-78l-54 150q-11 45 -11 62h-8v-212h-61v280h99z" />
    <glyph glyph-name="degree" unicode="&#xb0;" horiz-adv-x="403" 
d="M118.5 413.5q-37.5 20.5 -59.5 57t-22 83.5t22 83.5t59.5 57t82.5 20.5q46 0 83.5 -20.5t59.5 -57t22 -83.5t-22 -83.5t-59.5 -57t-83.5 -20.5q-45 0 -82.5 20.5zM256.5 496.5q22.5 21.5 22.5 57.5t-22.5 57.5t-55.5 21.5t-55 -21.5t-22 -57.5t22 -57.5t55 -21.5
t55.5 21.5z" />
    <glyph glyph-name="bar" unicode="|" horiz-adv-x="245" 
d="M161 750v-957h-76v957h76z" />
    <glyph glyph-name="brokenbar" unicode="&#xa6;" horiz-adv-x="245" 
d="M161 750v-421h-76v421h76zM161 213v-420h-76v420h76z" />
    <glyph glyph-name="dagger" unicode="&#x2020;" horiz-adv-x="354" 
d="M318 505v-77h-103v-635h-76v635h-102v77h102v245h76v-245h103z" />
    <glyph glyph-name="daggerdbl" unicode="&#x2021;" horiz-adv-x="354" 
d="M318 428h-103v-351h103v-77h-103v-207h-76v207h-102v77h102v351h-102v77h102v245h76v-245h103v-77z" />
    <glyph glyph-name="uni2116" unicode="&#x2116;" horiz-adv-x="862" 
d="M326 470q20 -37 26.5 -58t8.5 -40h11v328h78v-420h-111l-135 230q-30 59 -35 98h-11v-328h-78v420h111zM550.5 316q-44.5 45 -44.5 116t44.5 115.5t117.5 44.5t118 -44.5t45 -115.5q0 -70 -45 -115.5t-118 -45.5t-117.5 45zM609 499q-23 -25 -23 -67q0 -43 23 -67.5
t59 -24.5t59.5 24.5t23.5 67.5q0 42 -23.5 67t-59.5 25t-59 -25z" />
    <glyph glyph-name="at.ss01" horiz-adv-x="1088" 
d="M271.5 -150q-104.5 60 -163 165.5t-58.5 239.5q0 161 71.5 269.5t185.5 160t242 51.5q138 0 249.5 -54t175.5 -153.5t64 -231.5q0 -96 -27 -166.5t-75 -108t-109 -37.5q-60 0 -107 31t-58 86l-2 26h-17q-20 -69 -71 -106t-112 -37q-43 0 -79.5 18.5t-58 53t-21.5 80.5
q0 78 60 122t160 47l139 3v13q0 55 -30.5 80t-82.5 25q-49 0 -81 -22t-34 -74h-128q1 91 67.5 140t176.5 49q111 0 175.5 -51.5t64.5 -146.5v-166q0 -68 55 -68q93 0 93 205q0 103 -48.5 182.5t-136.5 124t-203 44.5q-109 0 -199 -45.5t-143.5 -133.5t-53.5 -210
q0 -109 48.5 -194.5t131.5 -132.5t182 -47q112 0 226 63l37 -82q-106 -72 -268 -72q-133 0 -237.5 60zM621.5 128.5q38.5 41.5 38.5 104.5v21l-97 -1q-55 -2 -93.5 -21.5t-38.5 -64.5q0 -36 26 -58t68 -22q58 0 96.5 41.5z" />
    <glyph glyph-name="uni0308" unicode="&#x308;" horiz-adv-x="0" 
d="M-400 700h122v-135h-122v135zM-159 700h122v-135h-122v135z" />
    <glyph glyph-name="uni0307" unicode="&#x307;" horiz-adv-x="0" 
d="M-158 700h122v-135h-122v135z" />
    <glyph glyph-name="gravecomb" unicode="&#x300;" horiz-adv-x="0" 
d="M-227 700h135l56 -136h-80z" />
    <glyph glyph-name="acutecomb" unicode="&#x301;" horiz-adv-x="0" 
d="M-172 700h136l-112 -136h-79z" />
    <glyph glyph-name="uni030B" unicode="&#x30b;" horiz-adv-x="0" 
d="M-356 700h125l-111 -136h-69zM-162 700h125l-111 -136h-69z" />
    <glyph glyph-name="uni0302" unicode="&#x302;" horiz-adv-x="0" 
d="M-36 559h-103l-40 80h-17l-39 -80h-103l75 141h152z" />
    <glyph glyph-name="uni030C" unicode="&#x30c;" horiz-adv-x="0" 
d="M-263 559l-75 141h103l39 -80h17l40 80h103l-75 -141h-152z" />
    <glyph glyph-name="uni0306" unicode="&#x306;" horiz-adv-x="0" 
d="M-173.5 650.5q14.5 -18.5 42.5 -18.5q27 0 41 18.5t14 49.5h86q0 -70 -36.5 -108.5t-104.5 -38.5q-69 0 -106 38.5t-37 108.5h86q0 -31 14.5 -49.5z" />
    <glyph glyph-name="uni030A" unicode="&#x30a;" horiz-adv-x="0" 
d="M-193 670q33 30 81 30t80 -30t32 -77t-32 -76.5t-80 -29.5t-81 30t-33 76q0 47 33 77zM-81.5 624q-11.5 12 -30.5 12t-31.5 -12t-12.5 -31t12.5 -30.5t31.5 -11.5t30.5 11.5t11.5 30.5t-11.5 31z" />
    <glyph glyph-name="tildecomb" unicode="&#x303;" horiz-adv-x="0" 
d="M-62 590.5q-25 -30.5 -67 -30.5q-25 0 -42.5 9t-41.5 26q-22 15 -34 21.5t-28 6.5q-39 0 -39 -55h-68v20q0 59 25 89.5t67 30.5q25 0 43.5 -9t41.5 -26q19 -14 32.5 -21t28.5 -7q39 0 39 55h68v-20q0 -59 -25 -89.5z" />
    <glyph glyph-name="uni0304" unicode="&#x304;" horiz-adv-x="0" 
d="M-36 700v-86h-290v86h290z" />
    <glyph glyph-name="uni0312" unicode="&#x312;" horiz-adv-x="0" 
d="M-55 752q-20 0 -27.5 -8t-7.5 -32v-27h54v-130h-122v154q0 50 21 74t71 24h30v-55h-19z" />
    <glyph glyph-name="dotbelowcomb" unicode="&#x323;" horiz-adv-x="0" 
d="M-158 -75h122v-135h-122v135z" />
    <glyph glyph-name="uni0326" unicode="&#x326;" horiz-adv-x="0" 
d="M11 -41l-93 -169h-71l56 169h108z" />
    <glyph glyph-name="uni0327" unicode="&#x327;" horiz-adv-x="0" 
d="M-160 -73h21l1 4q7 21 24 32.5t39 11.5q32 0 53.5 -22t21.5 -61q0 -51 -34 -76.5t-82 -25.5q-46 0 -76 22.5t-33 61.5l64 2q4 -17 16 -26t29 -9q20 0 32.5 12t12.5 34q0 20 -11.5 30.5t-28.5 10.5q-30 0 -39 -33l-75 4l14 102l61 -1z" />
    <glyph glyph-name="uni0328" unicode="&#x328;" horiz-adv-x="0" 
d="M-151.5 -185q-31.5 24 -30.5 68q1 52 40.5 81t94.5 47l38 -1l9 -10l-29 -14q-61 -29 -61 -76q0 -18 11.5 -28.5t29.5 -10.5q21 0 41 12v-78q-42 -14 -68 -14q-44 0 -75.5 24z" />
    <glyph glyph-name="uni0335" unicode="&#x335;" horiz-adv-x="0" 
d="M-408 406h357v-95h-357v95z" />
    <glyph glyph-name="uni0336" unicode="&#x336;" horiz-adv-x="0" 
d="M-738 367h702v-71h-702v71z" />
    <glyph glyph-name="uni0337" unicode="&#x337;" horiz-adv-x="0" 
d="M-237 348l252 136v-81l-252 -136v81z" />
    <glyph glyph-name="uni0338" unicode="&#x338;" horiz-adv-x="0" 
d="M-61 700h61l-581 -700h-60z" />
    <glyph glyph-name="bpart" horiz-adv-x="471" 
d="M131 18.5q-46 33.5 -70.5 94t-24.5 140.5t24.5 140t70.5 93.5t108 33.5q57 0 101 -28.5t64 -84.5l5 -13h25v-283h-25l-5 -13q-20 -56 -64 -84.5t-101 -28.5q-62 0 -108 33.5zM397.5 143.5q33.5 44.5 33.5 108.5t-33.5 109t-96.5 45t-96 -44.5t-33 -109.5t33 -109t96 -44
t96.5 44.5z" />
    </font>
</defs>
</svg>
