<?xml version="1.0" standalone="no"?>
<!DOCTYPE svg PUBLIC "-//W3C//DTD SVG 1.1//EN" "http://www.w3.org/Graphics/SVG/1.1/DTD/svg11.dtd" >
<svg xmlns="http://www.w3.org/2000/svg" xmlns:xlink="http://www.w3.org/1999/xlink" version="1.1">
<metadata>
Created by FontForge 20190801 at Thu Dec 10 14:25:53 2020
 By root
Copyright (c) 2020 by Muhittin Gu:nes. All rights reserved.
</metadata>
<defs>
<font id="Ranua-Regular" horiz-adv-x="0" >
  <font-face 
    font-family="Ranua"
    font-weight="400"
    font-stretch="normal"
    units-per-em="1000"
    panose-1="0 0 5 0 0 0 0 0 0 0"
    ascent="800"
    descent="-200"
    x-height="504"
    cap-height="700"
    bbox="-723 -223 1432 927"
    underline-thickness="50"
    underline-position="-100"
    unicode-range="U+0020-25CF"
  />
<missing-glyph horiz-adv-x="480" 
d="M394 -210h-305v960h305v-960zM161 686v-32h63v-36h-64v-31h160v31h-64v36h64v32h-159zM160 562v-100h160v33h-64v67h-96zM224 495h-32v34h32v-34zM160 436v-32h64v-35h-64v-32h96v67h64v32h-160zM288 378v-63h-128v-33h160v96h-32zM224 261v-53h32v22h32v-45h-96v76h-32
v-108h160v108h-96zM160 95v-108h160v108h-160zM288 18h-96v46h96v-46zM160 -35v-32h68l-68 -45v-32h160v32h-98l67 45h31v32h-160z" />
    <glyph glyph-name="f_f" unicode="ff" horiz-adv-x="804" 
d="M635.5 620.5q-16.5 -17.5 -16.5 -55.5v-61h145v-79h-145v-425h-98v425h-298v-425h-98v425h-99v79h99v68q0 76 35.5 109.5t96.5 33.5q53 0 110 -22v-74q-42 19 -79 19q-32 0 -48.5 -17.5t-16.5 -55.5v-61h298v68q0 143 133 143q53 0 110 -22v-74q-43 19 -80 19
q-32 0 -48.5 -17.5z" />
    <glyph glyph-name="f_f_i" unicode="ffi" horiz-adv-x="1021" 
d="M949 0h-102v425h-228v-425h-98v425h-298v-425h-98v425h-99v79h99v68q0 76 35.5 109.5t96.5 33.5q53 0 110 -22v-74q-42 19 -79 19q-32 0 -48.5 -17.5t-16.5 -55.5v-61h298v68q0 143 133 143q53 0 110 -22v-74q-43 19 -80 19q-32 0 -48.5 -17.5t-16.5 -55.5v-61h330v-504z
M837 700h122v-134h-122v134z" />
    <glyph glyph-name="f_f_l" unicode="ffl" horiz-adv-x="1083" 
d="M1048 79v-79h-54q-70 0 -100.5 37t-30.5 117v335q0 140 -129 140q-51 0 -85 -21.5t-34 -70.5v-33h138v-79h-138v-425h-98v425h-294v-425h-98v425h-99v79h99v68q0 76 35.5 109.5t96.5 33.5q53 0 110 -22v-74q-42 19 -79 19q-32 0 -48.5 -17.5t-16.5 -55.5v-61h294v35
q0 87 62 127t155 40q112 0 171.5 -57.5t59.5 -175.5v-320q0 -37 14 -55.5t47 -18.5h22z" />
    <glyph glyph-name="f_i" unicode="fi" horiz-adv-x="625" 
d="M553 0h-102v425h-228v-425h-98v425h-99v79h99v68q0 76 35.5 109.5t96.5 33.5q53 0 110 -22v-74q-42 19 -79 19q-32 0 -48.5 -17.5t-16.5 -55.5v-61h330v-504zM441 700h122v-134h-122v134z" />
    <glyph glyph-name="f_l" unicode="fl" horiz-adv-x="691" 
d="M587 97.5q14 -18.5 47 -18.5h22v-79h-54q-70 0 -100.5 37t-30.5 117v335q0 140 -129 140q-51 0 -85 -21.5t-34 -70.5v-33h138v-79h-138v-425h-98v425h-99v79h99v35q0 87 62 127t155 40q112 0 171.5 -57.5t59.5 -175.5v-320q0 -37 14 -55.5z" />
    <glyph glyph-name=".notdef" horiz-adv-x="480" 
d="M394 -210h-305v960h305v-960zM161 686v-32h63v-36h-64v-31h160v31h-64v36h64v32h-159zM160 562v-100h160v33h-64v67h-96zM224 495h-32v34h32v-34zM160 436v-32h64v-35h-64v-32h96v67h64v32h-160zM288 378v-63h-128v-33h160v96h-32zM224 261v-53h32v22h32v-45h-96v76h-32
v-108h160v108h-96zM160 95v-108h160v108h-160zM288 18h-96v46h96v-46zM160 -35v-32h68l-68 -45v-32h160v32h-98l67 45h31v32h-160z" />
    <glyph glyph-name="space" unicode=" " horiz-adv-x="312" 
 />
    <glyph glyph-name="A" unicode="A" horiz-adv-x="679" 
d="M553 0l-70 180h-288l-70 -180h-111l269 700h112l269 -700h-111zM448 270l-55 142q-21 55 -30.5 90.5t-12.5 67.5l-2 19h-18l-2 -19q-3 -32 -12.5 -68t-30.5 -89l-55 -143h218z" />
    <glyph glyph-name="Aacute" unicode="&#xc1;" horiz-adv-x="679" 
d="M553 0l-70 180h-288l-70 -180h-111l269 700h112l269 -700h-111zM448 270l-55 142q-21 55 -30.5 90.5t-12.5 67.5l-2 19h-18l-2 -19q-3 -32 -12.5 -68t-30.5 -89l-55 -143h218zM366 896h115l-106 -134h-68z" />
    <glyph glyph-name="Abreve" unicode="&#x102;" horiz-adv-x="679" 
d="M553 0l-70 180h-288l-70 -180h-111l269 700h112l269 -700h-111zM448 270l-55 142q-21 55 -30.5 90.5t-12.5 67.5l-2 19h-18l-2 -19q-3 -32 -12.5 -68t-30.5 -89l-55 -143h218zM291 844.5q16 -20.5 48 -20.5q31 0 47 21t16 55h72q0 -66 -35.5 -104t-99.5 -38
q-65 0 -100.5 38t-35.5 104h72q0 -35 16 -55.5z" />
    <glyph glyph-name="uni01CD" unicode="&#x1cd;" horiz-adv-x="679" 
d="M553 0l-70 180h-288l-70 -180h-111l269 700h112l269 -700h-111zM448 270l-55 142q-21 55 -30.5 90.5t-12.5 67.5l-2 19h-18l-2 -19q-3 -32 -12.5 -68t-30.5 -89l-55 -143h218zM280 755l-79 141h85l46 -85h14l45 85h85l-79 -141h-117z" />
    <glyph glyph-name="Acircumflex" unicode="&#xc2;" horiz-adv-x="679" 
d="M553 0l-70 180h-288l-70 -180h-111l269 700h112l269 -700h-111zM448 270l-55 142q-21 55 -30.5 90.5t-12.5 67.5l-2 19h-18l-2 -19q-3 -32 -12.5 -68t-30.5 -89l-55 -143h218zM478 759h-85l-45 85h-14l-46 -85h-85l79 141h117z" />
    <glyph glyph-name="Adieresis" unicode="&#xc4;" horiz-adv-x="679" 
d="M553 0l-70 180h-288l-70 -180h-111l269 700h112l269 -700h-111zM448 270l-55 142q-21 55 -30.5 90.5t-12.5 67.5l-2 19h-18l-2 -19q-3 -32 -12.5 -68t-30.5 -89l-55 -143h218zM172 900h103v-134h-103v134zM402 900h104v-134h-104v134z" />
    <glyph glyph-name="uni1EA0" unicode="&#x1ea0;" horiz-adv-x="679" 
d="M553 0l-70 180h-288l-70 -180h-111l269 700h112l269 -700h-111zM448 270l-55 142q-21 55 -30.5 90.5t-12.5 67.5l-2 19h-18l-2 -19q-3 -32 -12.5 -68t-30.5 -89l-55 -143h218zM289 -76h103v-134h-103v134z" />
    <glyph glyph-name="Agrave" unicode="&#xc0;" horiz-adv-x="679" 
d="M553 0l-70 180h-288l-70 -180h-111l269 700h112l269 -700h-111zM448 270l-55 142q-21 55 -30.5 90.5t-12.5 67.5l-2 19h-18l-2 -19q-3 -32 -12.5 -68t-30.5 -89l-55 -143h218zM204 896h115l59 -134h-68z" />
    <glyph glyph-name="Amacron" unicode="&#x100;" horiz-adv-x="679" 
d="M553 0l-70 180h-288l-70 -180h-111l269 700h112l269 -700h-111zM448 270l-55 142q-21 55 -30.5 90.5t-12.5 67.5l-2 19h-18l-2 -19q-3 -32 -12.5 -68t-30.5 -89l-55 -143h218zM479 896v-79h-281v79h281z" />
    <glyph glyph-name="Aogonek" unicode="&#x104;" horiz-adv-x="679" 
d="M578.5 -130.5q13.5 -11.5 34.5 -11.5t43 13v-65q-37 -14 -65 -14q-41 0 -71 23t-30 66q0 78 107 119h-44l-70 180h-288l-70 -180h-111l269 700h112l269 -700l-32 -16q-67 -30 -67 -81q0 -22 13.5 -33.5zM448 270l-55 142q-21 55 -30.5 90.5t-12.5 67.5l-2 19h-18l-2 -19
q-3 -32 -12.5 -68t-30.5 -89l-55 -143h218z" />
    <glyph glyph-name="Aring" unicode="&#xc5;" horiz-adv-x="679" 
d="M483 180h-288l-70 -180h-111l269 700h14q-31 11 -50 36.5t-19 59.5q0 46 32 75t79 29q46 0 77.5 -29t31.5 -75q0 -34 -18.5 -59.5t-49.5 -36.5h15l269 -700h-111zM306.5 827.5q-12.5 -12.5 -12.5 -31.5t12.5 -31t32.5 -12t32 12t12 31q0 20 -12 32t-32 12t-32.5 -12.5z
M448 270l-55 142q-21 55 -30.5 90.5t-12.5 67.5l-2 19h-18l-2 -19q-3 -32 -12.5 -68t-30.5 -89l-55 -143h218z" />
    <glyph glyph-name="Atilde" unicode="&#xc3;" horiz-adv-x="679" 
d="M553 0l-70 180h-288l-70 -180h-111l269 700h112l269 -700h-111zM448 270l-55 142q-21 55 -30.5 90.5t-12.5 67.5l-2 19h-18l-2 -19q-3 -32 -12.5 -68t-30.5 -89l-55 -143h218zM481.5 796q-24.5 -29 -65.5 -29q-25 0 -43.5 9.5t-42.5 28.5q-20 16 -33.5 23.5t-30.5 7.5
q-43 0 -43 -63h-58v17q0 57 24 86.5t65 29.5q26 0 44 -9.5t44 -28.5q20 -16 33.5 -23.5t29.5 -7.5q43 0 43 63h58v-18q0 -57 -24.5 -86z" />
    <glyph glyph-name="AE" unicode="&#xc6;" horiz-adv-x="960" 
d="M556 92h335v-92h-441v183h-228l-92 -183h-116l348 700h523v-92h-329v-206h305v-88h-305v-222zM450 273v335h-28q-5 -28 -17 -57t-35 -76l-102 -202h182z" />
    <glyph glyph-name="B" unicode="B" horiz-adv-x="683" 
d="M386 700q109 0 168.5 -48.5t59.5 -129.5q0 -59 -32.5 -94.5t-87.5 -50.5l-19 -4v-17l19 -2q65 -12 104.5 -54t39.5 -108q0 -56 -29 -99.5t-83 -68t-127 -24.5h-310v700h297zM469.5 430.5q34.5 29.5 34.5 78.5t-34.5 80t-102.5 31h-173v-219h186q55 0 89.5 29.5zM386 82
q70 0 106 35.5t36 87.5t-38 83.5t-104 31.5h-192v-238h192z" />
    <glyph glyph-name="C" unicode="C" horiz-adv-x="742" 
d="M199 33q-73 48 -110 131t-37 185q0 103 37.5 186t110.5 131.5t175 48.5q88 0 155.5 -36t108.5 -100.5t50 -146.5h-109q-11 85 -65 137t-140 52q-69 0 -117 -35.5t-72.5 -97t-24.5 -138.5q0 -120 55 -195.5t159 -75.5q86 0 140 52t65 137h109q-9 -81 -48.5 -145.5
t-107.5 -101t-158 -36.5q-103 0 -176 48z" />
    <glyph glyph-name="Cacute" unicode="&#x106;" horiz-adv-x="742" 
d="M199 33q-73 48 -110 131t-37 185q0 103 37.5 186t110.5 131.5t175 48.5q88 0 155.5 -36t108.5 -100.5t50 -146.5h-109q-11 85 -65 137t-140 52q-69 0 -117 -35.5t-72.5 -97t-24.5 -138.5q0 -120 55 -195.5t159 -75.5q86 0 140 52t65 137h109q-9 -81 -48.5 -145.5
t-107.5 -101t-158 -36.5q-103 0 -176 48zM400 896h115l-106 -134h-68z" />
    <glyph glyph-name="Ccaron" unicode="&#x10c;" horiz-adv-x="742" 
d="M199 33q-73 48 -110 131t-37 185q0 103 37.5 186t110.5 131.5t175 48.5q88 0 155.5 -36t108.5 -100.5t50 -146.5h-109q-11 85 -65 137t-140 52q-69 0 -117 -35.5t-72.5 -97t-24.5 -138.5q0 -120 55 -195.5t159 -75.5q86 0 140 52t65 137h109q-9 -81 -48.5 -145.5
t-107.5 -101t-158 -36.5q-103 0 -176 48zM314 755l-79 141h85l46 -85h14l45 85h85l-79 -141h-117z" />
    <glyph glyph-name="Ccedilla" unicode="&#xc7;" horiz-adv-x="742" 
d="M515 131q54 52 65 137h109q-9 -81 -48.5 -145.5t-107.5 -101t-158 -36.5h-4l-7 -60h17l2 5q7 22 24 33.5t40 11.5q33 0 55.5 -22.5t22.5 -61.5q0 -49 -32.5 -75t-78.5 -26q-44 0 -74 23t-34 61l56 1q4 -20 18 -30t33 -10q23 0 37.5 13.5t14.5 37.5q0 23 -13 35t-33 12
q-32 0 -43 -36l-68 3l11 89q-85 13 -145.5 63t-91 127t-30.5 170q0 103 37.5 186t110.5 131.5t175 48.5q88 0 155.5 -36t108.5 -100.5t50 -146.5h-109q-11 85 -65 137t-140 52q-69 0 -117 -35.5t-72.5 -97t-24.5 -138.5q0 -120 55 -195.5t159 -75.5q86 0 140 52z" />
    <glyph glyph-name="Cdotaccent" unicode="&#x10a;" horiz-adv-x="742" 
d="M199 33q-73 48 -110 131t-37 185q0 103 37.5 186t110.5 131.5t175 48.5q88 0 155.5 -36t108.5 -100.5t50 -146.5h-109q-11 85 -65 137t-140 52q-69 0 -117 -35.5t-72.5 -97t-24.5 -138.5q0 -120 55 -195.5t159 -75.5q86 0 140 52t65 137h109q-9 -81 -48.5 -145.5
t-107.5 -101t-158 -36.5q-103 0 -176 48zM321 900h103v-134h-103v134z" />
    <glyph glyph-name="D" unicode="D" horiz-adv-x="704" 
d="M614.5 167q-37.5 -79 -111 -123t-178.5 -44h-236v700h236q105 0 178.5 -44t111 -123t37.5 -183t-37.5 -183zM486 537.5q-58 68.5 -172 68.5h-120v-512h120q114 0 172 68.5t58 187.5t-58 187.5z" />
    <glyph glyph-name="Eth" unicode="&#xd0;" horiz-adv-x="709" 
d="M507.5 656q73.5 -44 111 -123t37.5 -183t-37.5 -183t-111 -123t-178.5 -44h-236v317h-64v94h64v289h236q105 0 178.5 -44zM490 162.5q58 68.5 58 187.5t-58 187.5t-172 68.5h-120v-195h181v-94h-181v-223h120q114 0 172 68.5z" />
    <glyph glyph-name="Dcaron" unicode="&#x10e;" horiz-adv-x="690" 
d="M614.5 167q-37.5 -79 -111 -123t-178.5 -44h-236v700h236q105 0 178.5 -44t111 -123t37.5 -183t-37.5 -183zM486 537.5q-58 68.5 -172 68.5h-120v-512h120q114 0 172 68.5t58 187.5t-58 187.5zM294 756l-79 141h85l46 -85h14l45 85h85l-79 -141h-117z" />
    <glyph glyph-name="Dcroat" unicode="&#x110;" horiz-adv-x="714" 
d="M513.5 656q73.5 -44 111 -123t37.5 -183t-37.5 -183t-111 -123t-178.5 -44h-236v317h-64v94h64v289h236q105 0 178.5 -44zM496 162.5q58 68.5 58 187.5t-58 187.5t-172 68.5h-120v-195h181v-94h-181v-223h120q114 0 172 68.5z" />
    <glyph glyph-name="uni1E0C" unicode="&#x1e0c;" horiz-adv-x="704" 
d="M614.5 167q-37.5 -79 -111 -123t-178.5 -44h-236v700h236q105 0 178.5 -44t111 -123t37.5 -183t-37.5 -183zM486 537.5q-58 68.5 -172 68.5h-120v-512h120q114 0 172 68.5t58 187.5t-58 187.5zM316 -76h103v-134h-103v134z" />
    <glyph glyph-name="E" unicode="E" horiz-adv-x="599" 
d="M524 700v-92h-330v-206h306v-88h-306v-222h336v-92h-441v700h435z" />
    <glyph glyph-name="Eacute" unicode="&#xc9;" horiz-adv-x="599" 
d="M524 700v-92h-330v-206h306v-88h-306v-222h336v-92h-441v700h435zM337 896h115l-106 -134h-68z" />
    <glyph glyph-name="Ecaron" unicode="&#x11a;" horiz-adv-x="599" 
d="M524 700v-92h-330v-206h306v-88h-306v-222h336v-92h-441v700h435zM250 755l-79 141h85l46 -85h14l45 85h85l-79 -141h-117z" />
    <glyph glyph-name="Ecircumflex" unicode="&#xca;" horiz-adv-x="599" 
d="M524 700v-92h-330v-206h306v-88h-306v-222h336v-92h-441v700h435zM448 759h-85l-45 85h-14l-46 -85h-85l79 141h117z" />
    <glyph glyph-name="Edieresis" unicode="&#xcb;" horiz-adv-x="599" 
d="M524 700v-92h-330v-206h306v-88h-306v-222h336v-92h-441v700h435zM142 900h103v-134h-103v134zM372 900h104v-134h-104v134z" />
    <glyph glyph-name="Edotaccent" unicode="&#x116;" horiz-adv-x="599" 
d="M524 700v-92h-330v-206h306v-88h-306v-222h336v-92h-441v700h435zM257 900h103v-134h-103v134z" />
    <glyph glyph-name="uni1EB8" unicode="&#x1eb8;" horiz-adv-x="599" 
d="M524 700v-92h-330v-206h306v-88h-306v-222h336v-92h-441v700h435zM259 -76h103v-134h-103v134z" />
    <glyph glyph-name="Egrave" unicode="&#xc8;" horiz-adv-x="599" 
d="M524 700v-92h-330v-206h306v-88h-306v-222h336v-92h-441v700h435zM174 896h115l59 -134h-68z" />
    <glyph glyph-name="Emacron" unicode="&#x112;" horiz-adv-x="599" 
d="M524 700v-92h-330v-206h306v-88h-306v-222h336v-92h-441v700h435zM449 896v-79h-281v79h281z" />
    <glyph glyph-name="Eogonek" unicode="&#x118;" horiz-adv-x="600" 
d="M430 -95q0 -22 13.5 -34.5t34.5 -12.5t44 13v-65q-39 -14 -65 -14q-41 0 -71.5 23t-30.5 66q0 78 107 119h-373v700h435v-92h-330v-206h306v-88h-306v-222h336v-92l-33 -16q-66 -30 -67 -79z" />
    <glyph glyph-name="uni1EBC" unicode="&#x1ebc;" horiz-adv-x="599" 
d="M524 700v-92h-330v-206h306v-88h-306v-222h336v-92h-441v700h435zM451.5 796q-24.5 -29 -65.5 -29q-25 0 -43.5 9.5t-42.5 28.5q-20 16 -33.5 23.5t-30.5 7.5q-43 0 -43 -63h-58v17q0 57 24 86.5t65 29.5q26 0 44 -9.5t44 -28.5q20 -16 33.5 -23.5t29.5 -7.5q43 0 43 63
h58v-18q0 -57 -24.5 -86z" />
    <glyph glyph-name="F" unicode="F" horiz-adv-x="582" 
d="M524 700v-92h-330v-220h306v-88h-306v-300h-105v700h435z" />
    <glyph glyph-name="G" unicode="G" horiz-adv-x="805" 
d="M191.5 33.5q-67.5 48.5 -103.5 131t-36 183.5q0 106 41 189.5t119 130.5t185 47q85 0 154.5 -32.5t115 -91t60.5 -135.5h-109q-19 76 -77.5 120.5t-144.5 44.5q-73 0 -126 -34.5t-81 -95.5t-28 -141q0 -77 26 -139t76.5 -98t121.5 -36q59 0 107 25t77.5 71t32.5 107l2 21
h-195v76h301v-377h-106v155h-18q-30 -81 -90 -125.5t-145 -44.5q-92 0 -159.5 48.5z" />
    <glyph glyph-name="Gbreve" unicode="&#x11e;" horiz-adv-x="805" 
d="M191.5 33.5q-67.5 48.5 -103.5 131t-36 183.5q0 106 41 189.5t119 130.5t185 47q85 0 154.5 -32.5t115 -91t60.5 -135.5h-109q-19 76 -77.5 120.5t-144.5 44.5q-73 0 -126 -34.5t-81 -95.5t-28 -141q0 -77 26 -139t76.5 -98t121.5 -36q59 0 107 25t77.5 71t32.5 107l2 21
h-195v76h301v-377h-106v155h-18q-30 -81 -90 -125.5t-145 -44.5q-92 0 -159.5 48.5zM346 844.5q16 -20.5 48 -20.5q31 0 47 21t16 55h72q0 -66 -35.5 -104t-99.5 -38q-65 0 -100.5 38t-35.5 104h72q0 -35 16 -55.5z" />
    <glyph glyph-name="Gcaron" unicode="&#x1e6;" horiz-adv-x="805" 
d="M191.5 33.5q-67.5 48.5 -103.5 131t-36 183.5q0 106 41 189.5t119 130.5t185 47q85 0 154.5 -32.5t115 -91t60.5 -135.5h-109q-19 76 -77.5 120.5t-144.5 44.5q-73 0 -126 -34.5t-81 -95.5t-28 -141q0 -77 26 -139t76.5 -98t121.5 -36q59 0 107 25t77.5 71t32.5 107l2 21
h-195v76h301v-377h-106v155h-18q-30 -81 -90 -125.5t-145 -44.5q-92 0 -159.5 48.5zM335 755l-79 141h85l46 -85h14l45 85h85l-79 -141h-117z" />
    <glyph glyph-name="uni0122" unicode="&#x122;" horiz-adv-x="805" 
d="M191.5 33.5q-67.5 48.5 -103.5 131t-36 183.5q0 106 41 189.5t119 130.5t185 47q85 0 154.5 -32.5t115 -91t60.5 -135.5h-109q-19 76 -77.5 120.5t-144.5 44.5q-73 0 -126 -34.5t-81 -95.5t-28 -141q0 -77 26 -139t76.5 -98t121.5 -36q59 0 107 25t77.5 71t32.5 107l2 21
h-195v76h301v-377h-106v155h-18q-30 -81 -90 -125.5t-145 -44.5q-92 0 -159.5 48.5zM439 -41l-89 -169h-60l58 169h91z" />
    <glyph glyph-name="Gdotaccent" unicode="&#x120;" horiz-adv-x="805" 
d="M191.5 33.5q-67.5 48.5 -103.5 131t-36 183.5q0 106 41 189.5t119 130.5t185 47q85 0 154.5 -32.5t115 -91t60.5 -135.5h-109q-19 76 -77.5 120.5t-144.5 44.5q-73 0 -126 -34.5t-81 -95.5t-28 -141q0 -77 26 -139t76.5 -98t121.5 -36q59 0 107 25t77.5 71t32.5 107l2 21
h-195v76h301v-377h-106v155h-18q-30 -81 -90 -125.5t-145 -44.5q-92 0 -159.5 48.5zM342 900h103v-134h-103v134z" />
    <glyph glyph-name="H" unicode="H" horiz-adv-x="716" 
d="M89 700h106v-290h326v290h106v-700h-106v316h-326v-316h-106v700z" />
    <glyph glyph-name="Hbar" unicode="&#x126;" horiz-adv-x="716" 
d="M687 626v-90h-60v-536h-106v316h-326v-316h-106v536h-60v90h60v74h106v-74h326v74h106v-74h60zM521 410v126h-326v-126h326z" />
    <glyph glyph-name="uni1E24" unicode="&#x1e24;" horiz-adv-x="716" 
d="M89 700h106v-290h326v290h106v-700h-106v316h-326v-316h-106v700zM308 -76h103v-134h-103v134z" />
    <glyph glyph-name="I" unicode="I" horiz-adv-x="283" 
d="M89 0v700h105v-700h-105z" />
    <glyph glyph-name="Iacute" unicode="&#xcd;" horiz-adv-x="283" 
d="M89 0v700h105v-700h-105zM168 896h115l-106 -134h-68z" />
    <glyph glyph-name="uni01CF" unicode="&#x1cf;" horiz-adv-x="283" 
d="M89 0v700h105v-700h-105zM82 755l-79 141h85l46 -85h14l45 85h85l-79 -141h-117z" />
    <glyph glyph-name="Icircumflex" unicode="&#xce;" horiz-adv-x="235" 
d="M81 0v700h105v-700h-105zM272 759h-85l-45 85h-14l-46 -85h-85l79 141h117z" />
    <glyph glyph-name="Idieresis" unicode="&#xcf;" horiz-adv-x="266" 
d="M89 0v700h105v-700h-105zM-22 908h103v-134h-103v134zM208 908h104v-134h-104v134z" />
    <glyph glyph-name="Idotaccent" unicode="&#x130;" horiz-adv-x="283" 
d="M89 0v700h105v-700h-105zM91 908h103v-134h-103v134z" />
    <glyph glyph-name="uni1ECA" unicode="&#x1eca;" horiz-adv-x="283" 
d="M89 0v700h105v-700h-105zM90 -76h103v-134h-103v134z" />
    <glyph glyph-name="Igrave" unicode="&#xcc;" horiz-adv-x="266" 
d="M89 0v700h105v-700h-105zM21 891h115l59 -134h-68z" />
    <glyph glyph-name="Imacron" unicode="&#x12a;" horiz-adv-x="266" 
d="M89 0v700h105v-700h-105zM283 878v-79h-281v79h281z" />
    <glyph glyph-name="Iogonek" unicode="&#x12e;" horiz-adv-x="283" 
d="M95 -97q0 -22 13.5 -33.5t34.5 -11.5t43 13v-65q-37 -14 -65 -14q-41 0 -71 23t-30 66q0 78 107 119h-38v700h105v-700l-32 -16q-67 -30 -67 -81z" />
    <glyph glyph-name="Itilde" unicode="&#x128;" horiz-adv-x="283" 
d="M89 0v700h105v-700h-105zM282.5 796q-24.5 -29 -65.5 -29q-25 0 -43.5 9.5t-42.5 28.5q-20 16 -33.5 23.5t-30.5 7.5q-43 0 -43 -63h-58v17q0 57 24 86.5t65 29.5q26 0 44 -9.5t44 -28.5q20 -16 33.5 -23.5t29.5 -7.5q43 0 43 63h58v-18q0 -57 -24.5 -86z" />
    <glyph glyph-name="J" unicode="J" horiz-adv-x="607" 
d="M94 52.5q-63 67.5 -68 171.5h106q7 -75 43.5 -110t101.5 -35q77 0 111 42.5t34 123.5v455h106v-456q0 -118 -62.5 -188.5t-188.5 -70.5q-120 0 -183 67.5z" />
    <glyph glyph-name="K" unicode="K" horiz-adv-x="659" 
d="M517 0l-161 389l-162 -187v-202h-105v700h105v-373h18q5 37 17.5 67t46.5 66l209 240h140l-195 -226l204 -474h-117z" />
    <glyph glyph-name="uni0136" unicode="&#x136;" horiz-adv-x="659" 
d="M517 0l-161 389l-162 -187v-202h-105v700h105v-373h18q5 37 17.5 67t46.5 66l209 240h140l-195 -226l204 -474h-117zM393 -41l-89 -169h-60l58 169h91z" />
    <glyph glyph-name="L" unicode="L" horiz-adv-x="539" 
d="M89 700h105v-606h319v-94h-424v700z" />
    <glyph glyph-name="Lacute" unicode="&#x139;" horiz-adv-x="539" 
d="M89 700h105v-606h319v-94h-424v700zM169 896h115l-106 -134h-68z" />
    <glyph glyph-name="Lcaron" unicode="&#x13d;" horiz-adv-x="539" 
d="M89 700h105v-606h319v-94h-424v700zM461 700l-89 -169h-60l58 169h91z" />
    <glyph glyph-name="uni013B" unicode="&#x13b;" horiz-adv-x="539" 
d="M89 700h105v-606h319v-94h-424v700zM319 -41l-89 -169h-60l58 169h91z" />
    <glyph glyph-name="Lslash" unicode="&#x141;" horiz-adv-x="539" 
d="M194 94h319v-94h-424v278l-70 -32v99l70 33v322h105v-273l129 60v-100l-129 -60v-233z" />
    <glyph glyph-name="M" unicode="M" horiz-adv-x="986" 
d="M246 700l183 -405q56 -127 56 -200h16q0 76 55 199l183 406h158v-700h-106v592h-16q0 -64 -46 -168l-190 -424h-94l-189 423q-28 63 -37 101.5t-9 67.5h-15v-592h-106v700h157z" />
    <glyph glyph-name="N" unicode="N" horiz-adv-x="762" 
d="M226 700l270 -438q32 -52 42.5 -82t13.5 -59h15v579h106v-700h-138l-269 437q-32 52 -42.5 82.5t-13.5 59.5h-15v-579h-106v700h137z" />
    <glyph glyph-name="Nacute" unicode="&#x143;" horiz-adv-x="762" 
d="M226 700l270 -438q32 -52 42.5 -82t13.5 -59h15v579h106v-700h-138l-269 437q-32 52 -42.5 82.5t-13.5 59.5h-15v-579h-106v700h137zM428 896h115l-106 -134h-68z" />
    <glyph glyph-name="Ncaron" unicode="&#x147;" horiz-adv-x="762" 
d="M226 700l270 -438q32 -52 42.5 -82t13.5 -59h15v579h106v-700h-138l-269 437q-32 52 -42.5 82.5t-13.5 59.5h-15v-579h-106v700h137zM342 755l-79 141h85l46 -85h14l45 85h85l-79 -141h-117z" />
    <glyph glyph-name="uni0145" unicode="&#x145;" horiz-adv-x="762" 
d="M226 700l270 -438q32 -52 42.5 -82t13.5 -59h15v579h106v-700h-138l-269 437q-32 52 -42.5 82.5t-13.5 59.5h-15v-579h-106v700h137zM446 -41l-89 -169h-60l58 169h91z" />
    <glyph glyph-name="Eng" unicode="&#x14a;" horiz-adv-x="758" 
d="M673 0h-4v-53q0 -80 -35 -118t-118 -38h-66v77h48q69 0 69 85v47h-32l-269 437q-32 52 -42.5 82.5t-13.5 59.5h-15v-579h-106v700h137l270 -438q32 -52 42.5 -82t13.5 -59h15v579h106v-700z" />
    <glyph glyph-name="Ntilde" unicode="&#xd1;" horiz-adv-x="762" 
d="M226 700l270 -438q32 -52 42.5 -82t13.5 -59h15v579h106v-700h-138l-269 437q-32 52 -42.5 82.5t-13.5 59.5h-15v-579h-106v700h137zM543.5 796q-24.5 -29 -65.5 -29q-25 0 -43.5 9.5t-42.5 28.5q-20 16 -33.5 23.5t-30.5 7.5q-43 0 -43 -63h-58v17q0 57 24 86.5t65 29.5
q26 0 44 -9.5t44 -28.5q20 -16 33.5 -23.5t29.5 -7.5q43 0 43 63h58v-18q0 -57 -24.5 -86z" />
    <glyph glyph-name="O" unicode="O" horiz-adv-x="768" 
d="M205.5 33.5q-75.5 48.5 -114.5 131t-39 184.5t40 185.5t115 132t177 48.5q101 0 176 -48t115 -131t40 -186q0 -102 -39 -185t-113.5 -131.5t-178.5 -48.5q-103 0 -178.5 48.5zM504.5 114.5q50.5 35.5 76.5 97.5t26 139t-26 138t-76.5 96.5t-120.5 35.5t-120 -35.5
t-76.5 -97t-26.5 -138.5t26 -138.5t76.5 -97t120.5 -35.5t120.5 35.5z" />
    <glyph glyph-name="Oacute" unicode="&#xd3;" horiz-adv-x="768" 
d="M205.5 33.5q-75.5 48.5 -114.5 131t-39 184.5t40 185.5t115 132t177 48.5q101 0 176 -48t115 -131t40 -186q0 -102 -39 -185t-113.5 -131.5t-178.5 -48.5q-103 0 -178.5 48.5zM504.5 114.5q50.5 35.5 76.5 97.5t26 139t-26 138t-76.5 96.5t-120.5 35.5t-120 -35.5
t-76.5 -97t-26.5 -138.5t26 -138.5t76.5 -97t120.5 -35.5t120.5 35.5zM411 896h115l-106 -134h-68z" />
    <glyph glyph-name="Ocircumflex" unicode="&#xd4;" horiz-adv-x="768" 
d="M205.5 33.5q-75.5 48.5 -114.5 131t-39 184.5t40 185.5t115 132t177 48.5q101 0 176 -48t115 -131t40 -186q0 -102 -39 -185t-113.5 -131.5t-178.5 -48.5q-103 0 -178.5 48.5zM504.5 114.5q50.5 35.5 76.5 97.5t26 139t-26 138t-76.5 96.5t-120.5 35.5t-120 -35.5
t-76.5 -97t-26.5 -138.5t26 -138.5t76.5 -97t120.5 -35.5t120.5 35.5zM523 759h-85l-45 85h-14l-46 -85h-85l79 141h117z" />
    <glyph glyph-name="Odieresis" unicode="&#xd6;" horiz-adv-x="768" 
d="M205.5 33.5q-75.5 48.5 -114.5 131t-39 184.5t40 185.5t115 132t177 48.5q101 0 176 -48t115 -131t40 -186q0 -102 -39 -185t-113.5 -131.5t-178.5 -48.5q-103 0 -178.5 48.5zM504.5 114.5q50.5 35.5 76.5 97.5t26 139t-26 138t-76.5 96.5t-120.5 35.5t-120 -35.5
t-76.5 -97t-26.5 -138.5t26 -138.5t76.5 -97t120.5 -35.5t120.5 35.5zM217 900h103v-134h-103v134zM447 900h104v-134h-104v134z" />
    <glyph glyph-name="uni1ECC" unicode="&#x1ecc;" horiz-adv-x="768" 
d="M205.5 33.5q-75.5 48.5 -114.5 131t-39 184.5t40 185.5t115 132t177 48.5q101 0 176 -48t115 -131t40 -186q0 -102 -39 -185t-113.5 -131.5t-178.5 -48.5q-103 0 -178.5 48.5zM504.5 114.5q50.5 35.5 76.5 97.5t26 139t-26 138t-76.5 96.5t-120.5 35.5t-120 -35.5
t-76.5 -97t-26.5 -138.5t26 -138.5t76.5 -97t120.5 -35.5t120.5 35.5zM334 -76h103v-134h-103v134z" />
    <glyph glyph-name="Ograve" unicode="&#xd2;" horiz-adv-x="768" 
d="M205.5 33.5q-75.5 48.5 -114.5 131t-39 184.5t40 185.5t115 132t177 48.5q101 0 176 -48t115 -131t40 -186q0 -102 -39 -185t-113.5 -131.5t-178.5 -48.5q-103 0 -178.5 48.5zM504.5 114.5q50.5 35.5 76.5 97.5t26 139t-26 138t-76.5 96.5t-120.5 35.5t-120 -35.5
t-76.5 -97t-26.5 -138.5t26 -138.5t76.5 -97t120.5 -35.5t120.5 35.5zM249 896h115l59 -134h-68z" />
    <glyph glyph-name="Ohungarumlaut" unicode="&#x150;" horiz-adv-x="768" 
d="M205.5 33.5q-75.5 48.5 -114.5 131t-39 184.5t40 185.5t115 132t177 48.5q101 0 176 -48t115 -131t40 -186q0 -102 -39 -185t-113.5 -131.5t-178.5 -48.5q-103 0 -178.5 48.5zM504.5 114.5q50.5 35.5 76.5 97.5t26 139t-26 138t-76.5 96.5t-120.5 35.5t-120 -35.5
t-76.5 -97t-26.5 -138.5t26 -138.5t76.5 -97t120.5 -35.5t120.5 35.5zM300 896h107l-106 -134h-60zM484 896h107l-106 -134h-60z" />
    <glyph glyph-name="Omacron" unicode="&#x14c;" horiz-adv-x="768" 
d="M205.5 33.5q-75.5 48.5 -114.5 131t-39 184.5t40 185.5t115 132t177 48.5q101 0 176 -48t115 -131t40 -186q0 -102 -39 -185t-113.5 -131.5t-178.5 -48.5q-103 0 -178.5 48.5zM504.5 114.5q50.5 35.5 76.5 97.5t26 139t-26 138t-76.5 96.5t-120.5 35.5t-120 -35.5
t-76.5 -97t-26.5 -138.5t26 -138.5t76.5 -97t120.5 -35.5t120.5 35.5zM524 896v-79h-281v79h281z" />
    <glyph glyph-name="Oslash" unicode="&#xd8;" horiz-adv-x="768" 
d="M690.5 500q24.5 -69 24.5 -150q0 -102 -39 -185t-113.5 -131.5t-178.5 -48.5q-134 0 -221 81l-54 -66h-57l81 98q-40 48 -60.5 113t-20.5 138q0 102 40 185.5t115 132t177 48.5q120 0 203 -66l42 51h56l-66 -81q47 -50 71.5 -119zM202 182l321 389q-56 50 -139 50
q-70 0 -120 -35.5t-76.5 -97t-26.5 -138.5q0 -98 41 -168zM504.5 114.5q50.5 35.5 76.5 97.5t26 139q0 56 -14 104t-41 84l-323 -394q60 -66 155 -66q70 0 120.5 35.5z" />
    <glyph glyph-name="Otilde" unicode="&#xd5;" horiz-adv-x="768" 
d="M205.5 33.5q-75.5 48.5 -114.5 131t-39 184.5t40 185.5t115 132t177 48.5q101 0 176 -48t115 -131t40 -186q0 -102 -39 -185t-113.5 -131.5t-178.5 -48.5q-103 0 -178.5 48.5zM504.5 114.5q50.5 35.5 76.5 97.5t26 139t-26 138t-76.5 96.5t-120.5 35.5t-120 -35.5
t-76.5 -97t-26.5 -138.5t26 -138.5t76.5 -97t120.5 -35.5t120.5 35.5zM526.5 796q-24.5 -29 -65.5 -29q-25 0 -43.5 9.5t-42.5 28.5q-20 16 -33.5 23.5t-30.5 7.5q-43 0 -43 -63h-58v17q0 57 24 86.5t65 29.5q26 0 44 -9.5t44 -28.5q20 -16 33.5 -23.5t29.5 -7.5q43 0 43 63
h58v-18q0 -57 -24.5 -86z" />
    <glyph glyph-name="OE" unicode="&#x152;" horiz-adv-x="1120" 
d="M199 33q-71 48 -109 131t-38 185q0 103 38 186.5t109 131.5t166 48q81 0 140.5 -36.5t87.5 -94.5h17v116h435v-92h-329v-206h305v-88h-305v-222h335v-92h-441v115h-17q-27 -57 -86.5 -93.5t-141.5 -36.5q-95 0 -166 48zM505.5 114.5q50.5 35.5 76 97t25.5 139.5
q0 77 -25.5 138t-76 96.5t-121.5 35.5t-121.5 -35.5t-76 -97t-25.5 -138.5q0 -78 25.5 -139t75.5 -96.5t122 -35.5q71 0 121.5 35.5z" />
    <glyph glyph-name="P" unicode="P" horiz-adv-x="672" 
d="M387 700q111 0 172 -60t61 -158q0 -101 -60.5 -159t-172.5 -58h-193v-267l-105 2v700h298zM477 390.5q35 33.5 35 91.5t-35 92t-103 34h-180v-251h181q67 0 102 33.5z" />
    <glyph glyph-name="Thorn" unicode="&#xde;" horiz-adv-x="657" 
d="M556 504.5q61 -59.5 61 -157.5q0 -101 -60.5 -159t-172.5 -58h-190v-130h-105v700h105v-134l190 -1q111 -1 172 -60.5zM474 255q35 34 35 92t-35 92t-103 34h-177v-252h178q67 0 102 34z" />
    <glyph glyph-name="Q" unicode="Q" horiz-adv-x="768" 
d="M368 -172q-36 38 -36 116v24h47v17q-30 2 -47 5q-87 11 -150.5 61t-96.5 127.5t-33 170.5q0 102 40 185.5t115 132t177 48.5q101 0 176 -48t115 -131t40 -186q0 -95 -33.5 -173t-97 -127.5t-150.5 -59.5v-40q0 -87 69 -87h47v-73h-65q-81 0 -117 38zM504.5 114.5
q50.5 35.5 76.5 97.5t26 139t-26 138t-76.5 96.5t-120.5 35.5t-120 -35.5t-76.5 -97t-26.5 -138.5t26 -138.5t76.5 -97t120.5 -35.5t120.5 35.5z" />
    <glyph glyph-name="R" unicode="R" horiz-adv-x="689" 
d="M415 700q103 0 156 -49t53 -127q0 -76 -45 -119.5t-104 -52.5v-17l9 -1q134 -9 145 -173l9 -161h-106l-9 161q-4 67 -38.5 99t-106.5 32h-184v-292h-105v700h326zM478.5 414q35.5 32 35.5 88q0 50 -31 79t-97 29h-192v-228h181q68 0 103.5 32z" />
    <glyph glyph-name="Racute" unicode="&#x154;" horiz-adv-x="689" 
d="M415 700q103 0 156 -49t53 -127q0 -76 -45 -119.5t-104 -52.5v-17l9 -1q134 -9 145 -173l9 -161h-106l-9 161q-4 67 -38.5 99t-106.5 32h-184v-292h-105v700h326zM478.5 414q35.5 32 35.5 88q0 50 -31 79t-97 29h-192v-228h181q68 0 103.5 32zM384 896h115l-106 -134h-68
z" />
    <glyph glyph-name="Rcaron" unicode="&#x158;" horiz-adv-x="689" 
d="M415 700q103 0 156 -49t53 -127q0 -76 -45 -119.5t-104 -52.5v-17l9 -1q134 -9 145 -173l9 -161h-106l-9 161q-4 67 -38.5 99t-106.5 32h-184v-292h-105v700h326zM478.5 414q35.5 32 35.5 88q0 50 -31 79t-97 29h-192v-228h181q68 0 103.5 32zM298 755l-79 141h85l46 -85
h14l45 85h85l-79 -141h-117z" />
    <glyph glyph-name="uni0156" unicode="&#x156;" horiz-adv-x="689" 
d="M415 700q103 0 156 -49t53 -127q0 -76 -45 -119.5t-104 -52.5v-17l9 -1q134 -9 145 -173l9 -161h-106l-9 161q-4 67 -38.5 99t-106.5 32h-184v-292h-105v700h326zM478.5 414q35.5 32 35.5 88q0 50 -31 79t-97 29h-192v-228h181q68 0 103.5 32zM402 -41l-89 -169h-60
l58 169h91z" />
    <glyph glyph-name="S" unicode="S" horiz-adv-x="630" 
d="M199.5 114.5q42.5 -37.5 118.5 -37.5q68 0 106.5 27.5t38.5 84.5q0 44 -25.5 70t-81.5 36l-134 25q-85 16 -133.5 66.5t-48.5 128.5q0 95 71 147.5t184 52.5q125 0 206 -61t89 -173h-110q-5 70 -54 106t-128 36q-73 0 -111.5 -28.5t-38.5 -76.5q0 -41 28 -70t80 -39
l140 -26q84 -15 130 -63t46 -125q0 -67 -34 -114.5t-91.5 -71.5t-129.5 -24q-75 0 -135.5 27t-97 79.5t-40.5 125.5h110q3 -65 45.5 -102.5z" />
    <glyph glyph-name="Sacute" unicode="&#x15a;" horiz-adv-x="630" 
d="M199.5 114.5q42.5 -37.5 118.5 -37.5q68 0 106.5 27.5t38.5 84.5q0 44 -25.5 70t-81.5 36l-134 25q-85 16 -133.5 66.5t-48.5 128.5q0 95 71 147.5t184 52.5q125 0 206 -61t89 -173h-110q-5 70 -54 106t-128 36q-73 0 -111.5 -28.5t-38.5 -76.5q0 -41 28 -70t80 -39
l140 -26q84 -15 130 -63t46 -125q0 -67 -34 -114.5t-91.5 -71.5t-129.5 -24q-75 0 -135.5 27t-97 79.5t-40.5 125.5h110q3 -65 45.5 -102.5zM340 896h115l-106 -134h-68z" />
    <glyph glyph-name="Scaron" unicode="&#x160;" horiz-adv-x="630" 
d="M199.5 114.5q42.5 -37.5 118.5 -37.5q68 0 106.5 27.5t38.5 84.5q0 44 -25.5 70t-81.5 36l-134 25q-85 16 -133.5 66.5t-48.5 128.5q0 95 71 147.5t184 52.5q125 0 206 -61t89 -173h-110q-5 70 -54 106t-128 36q-73 0 -111.5 -28.5t-38.5 -76.5q0 -41 28 -70t80 -39
l140 -26q84 -15 130 -63t46 -125q0 -67 -34 -114.5t-91.5 -71.5t-129.5 -24q-75 0 -135.5 27t-97 79.5t-40.5 125.5h110q3 -65 45.5 -102.5zM254 755l-79 141h85l46 -85h14l45 85h85l-79 -141h-117z" />
    <glyph glyph-name="Scedilla" unicode="&#x15e;" horiz-adv-x="630" 
d="M526 320q46 -48 46 -125q0 -67 -34 -114.5t-91.5 -71.5t-129.5 -24h-4l-7 -60h17l2 5q7 22 24 33.5t40 11.5q33 0 55.5 -22.5t22.5 -61.5q0 -49 -32.5 -75t-78.5 -26q-44 0 -74 23t-34 61l56 1q4 -20 18 -30t33 -10q23 0 37.5 13.5t14.5 37.5q0 23 -13 35t-33 12
q-32 0 -43 -36l-68 3l11 89q-94 14 -152.5 73t-64.5 155h110q3 -65 45.5 -102.5t118.5 -37.5q68 0 106.5 27.5t38.5 84.5q0 44 -25.5 70t-81.5 36l-134 25q-85 16 -133.5 66.5t-48.5 128.5q0 95 71 147.5t184 52.5q125 0 206 -61t89 -173h-110q-5 70 -54 106t-128 36
q-73 0 -111.5 -28.5t-38.5 -76.5q0 -41 28 -70t80 -39l140 -26q84 -15 130 -63z" />
    <glyph glyph-name="uni0218" unicode="&#x218;" horiz-adv-x="630" 
d="M199.5 114.5q42.5 -37.5 118.5 -37.5q68 0 106.5 27.5t38.5 84.5q0 44 -25.5 70t-81.5 36l-134 25q-85 16 -133.5 66.5t-48.5 128.5q0 95 71 147.5t184 52.5q125 0 206 -61t89 -173h-110q-5 70 -54 106t-128 36q-73 0 -111.5 -28.5t-38.5 -76.5q0 -41 28 -70t80 -39
l140 -26q84 -15 130 -63t46 -125q0 -67 -34 -114.5t-91.5 -71.5t-129.5 -24q-75 0 -135.5 27t-97 79.5t-40.5 125.5h110q3 -65 45.5 -102.5zM360 -41l-89 -169h-60l58 169h91z" />
    <glyph glyph-name="uni1E9E" unicode="&#x1e9e;" horiz-adv-x="644" 
d="M157.5 657.5q68.5 57.5 182.5 57.5q115 0 175 -50t60 -132q0 -61 -33.5 -101.5t-89.5 -54.5l-19 -4v-17l18 -2q67 -12 107.5 -54.5t40.5 -107.5q0 -55 -29 -99t-79 -68.5t-111 -24.5h-43v82h23q60 0 94.5 36.5t34.5 86.5q0 51 -39 83t-109 32v81q54 0 89.5 34t35.5 85
q0 47 -32.5 78t-99.5 31q-140 0 -140 -156v-473h-105v467q0 133 68.5 190.5z" />
    <glyph glyph-name="T" unicode="T" horiz-adv-x="534" 
d="M319 608v-608h-105v608h-192v92h489v-92h-192z" />
    <glyph glyph-name="Tbar" unicode="&#x166;" horiz-adv-x="534" 
d="M511 608h-192v-213h121v-94h-121v-301h-105v301h-119v94h119v213h-192v92h489v-92z" />
    <glyph glyph-name="Tcaron" unicode="&#x164;" horiz-adv-x="534" 
d="M319 608v-608h-105v608h-192v92h489v-92h-192zM208 755l-79 141h85l46 -85h14l45 85h85l-79 -141h-117z" />
    <glyph glyph-name="uni0162" unicode="&#x162;" horiz-adv-x="534" 
d="M291 0l-9 -75h17l2 5q7 22 24 33.5t40 11.5q33 0 55.5 -22.5t22.5 -61.5q0 -49 -32.5 -75t-78.5 -26q-44 0 -74 23t-34 61l56 1q4 -20 18 -30t33 -10q23 0 37.5 13.5t14.5 37.5q0 23 -13 35t-33 12q-32 0 -43 -36l-68 3l13 100h-25v608h-192v92h489v-92h-192v-608h-28z
" />
    <glyph glyph-name="uni021A" unicode="&#x21a;" horiz-adv-x="534" 
d="M319 608v-608h-105v608h-192v92h489v-92h-192zM336 -41l-89 -169h-60l58 169h91z" />
    <glyph glyph-name="U" unicode="U" horiz-adv-x="699" 
d="M148.5 49.5q-69.5 64.5 -69.5 195.5v455h105v-458q0 -81 40 -122t126 -41t125.5 40.5t39.5 122.5v458h105v-455q0 -131 -69 -195.5t-201 -64.5t-201.5 64.5z" />
    <glyph glyph-name="Uacute" unicode="&#xda;" horiz-adv-x="699" 
d="M148.5 49.5q-69.5 64.5 -69.5 195.5v455h105v-458q0 -81 40 -122t126 -41t125.5 40.5t39.5 122.5v458h105v-455q0 -131 -69 -195.5t-201 -64.5t-201.5 64.5zM377 896h115l-106 -134h-68z" />
    <glyph glyph-name="uni01D3" unicode="&#x1d3;" horiz-adv-x="699" 
d="M148.5 49.5q-69.5 64.5 -69.5 195.5v455h105v-458q0 -81 40 -122t126 -41t125.5 40.5t39.5 122.5v458h105v-455q0 -131 -69 -195.5t-201 -64.5t-201.5 64.5zM291 755l-79 141h85l46 -85h14l45 85h85l-79 -141h-117z" />
    <glyph glyph-name="Ucircumflex" unicode="&#xdb;" horiz-adv-x="699" 
d="M148.5 49.5q-69.5 64.5 -69.5 195.5v455h105v-458q0 -81 40 -122t126 -41t125.5 40.5t39.5 122.5v458h105v-455q0 -131 -69 -195.5t-201 -64.5t-201.5 64.5zM488 759h-85l-45 85h-14l-46 -85h-85l79 141h117z" />
    <glyph glyph-name="Udieresis" unicode="&#xdc;" horiz-adv-x="699" 
d="M148.5 49.5q-69.5 64.5 -69.5 195.5v455h105v-458q0 -81 40 -122t126 -41t125.5 40.5t39.5 122.5v458h105v-455q0 -131 -69 -195.5t-201 -64.5t-201.5 64.5zM183 900h103v-134h-103v134zM413 900h104v-134h-104v134z" />
    <glyph glyph-name="uni1EE4" unicode="&#x1ee4;" horiz-adv-x="699" 
d="M148.5 49.5q-69.5 64.5 -69.5 195.5v455h105v-458q0 -81 40 -122t126 -41t125.5 40.5t39.5 122.5v458h105v-455q0 -131 -69 -195.5t-201 -64.5t-201.5 64.5zM299 -76h103v-134h-103v134z" />
    <glyph glyph-name="Ugrave" unicode="&#xd9;" horiz-adv-x="699" 
d="M148.5 49.5q-69.5 64.5 -69.5 195.5v455h105v-458q0 -81 40 -122t126 -41t125.5 40.5t39.5 122.5v458h105v-455q0 -131 -69 -195.5t-201 -64.5t-201.5 64.5zM215 896h115l59 -134h-68z" />
    <glyph glyph-name="Uhungarumlaut" unicode="&#x170;" horiz-adv-x="699" 
d="M148.5 49.5q-69.5 64.5 -69.5 195.5v455h105v-458q0 -81 40 -122t126 -41t125.5 40.5t39.5 122.5v458h105v-455q0 -131 -69 -195.5t-201 -64.5t-201.5 64.5zM265 896h107l-106 -134h-60zM449 896h107l-106 -134h-60z" />
    <glyph glyph-name="Umacron" unicode="&#x16a;" horiz-adv-x="699" 
d="M148.5 49.5q-69.5 64.5 -69.5 195.5v455h105v-458q0 -81 40 -122t126 -41t125.5 40.5t39.5 122.5v458h105v-455q0 -131 -69 -195.5t-201 -64.5t-201.5 64.5zM490 896v-79h-281v79h281z" />
    <glyph glyph-name="Uogonek" unicode="&#x172;" horiz-adv-x="699" 
d="M620 700v-455q0 -131 -69 -195.5t-201 -64.5h-1v0l-32 -16q-67 -30 -67 -81q0 -22 13.5 -33.5t34.5 -11.5t43 13v-65q-37 -14 -65 -14q-41 0 -71 23t-30 66q0 80 116 123q-103 13 -157.5 76.5t-54.5 179.5v455h105v-458q0 -81 40 -122t126 -41t125.5 40.5t39.5 122.5v458
h105z" />
    <glyph glyph-name="Uring" unicode="&#x16e;" horiz-adv-x="699" 
d="M148.5 49.5q-69.5 64.5 -69.5 195.5v455h105v-458q0 -81 40 -122t126 -41t125.5 40.5t39.5 122.5v458h105v-455q0 -131 -69 -195.5t-201 -64.5t-201.5 64.5zM271 871q32 29 79 29q46 0 77.5 -29t31.5 -75q0 -45 -31.5 -74t-77.5 -29q-47 0 -79 29t-32 74q0 46 32 75z
M381.5 828q-12.5 12 -31.5 12q-20 0 -32.5 -12.5t-12.5 -31.5t12.5 -31t32.5 -12t32 12t12 31q0 20 -12.5 32z" />
    <glyph glyph-name="Utilde" unicode="&#x168;" horiz-adv-x="699" 
d="M148.5 49.5q-69.5 64.5 -69.5 195.5v455h105v-458q0 -81 40 -122t126 -41t125.5 40.5t39.5 122.5v458h105v-455q0 -131 -69 -195.5t-201 -64.5t-201.5 64.5zM491.5 796q-24.5 -29 -65.5 -29q-25 0 -43.5 9.5t-42.5 28.5q-20 16 -33.5 23.5t-30.5 7.5q-43 0 -43 -63h-58
v17q0 57 24 86.5t65 29.5q26 0 44 -9.5t44 -28.5q20 -16 33.5 -23.5t29.5 -7.5q43 0 43 63h58v-18q0 -57 -24.5 -86z" />
    <glyph glyph-name="V" unicode="V" horiz-adv-x="659" 
d="M125 700l150 -413q24 -67 32.5 -98t12.5 -60h18q4 31 12.5 61.5t32.5 97.5l150 412h111l-258 -700h-114l-258 700h111z" />
    <glyph glyph-name="W" unicode="W" horiz-adv-x="1004" 
d="M125 700l128 -437q20 -70 22 -131h16q2 57 24 133l135 435h102l137 -440q20 -67 22 -128h15q2 59 22 125l130 443h111l-209 -700h-118l-126 401q-16 49 -20.5 80.5t-7.5 66.5h-15q-3 -70 -27 -147l-125 -401h-118l-209 700h111z" />
    <glyph glyph-name="Wacute" unicode="&#x1e82;" horiz-adv-x="1004" 
d="M125 700l128 -437q20 -70 22 -131h16q2 57 24 133l135 435h102l137 -440q20 -67 22 -128h15q2 59 22 125l130 443h111l-209 -700h-118l-126 401q-16 49 -20.5 80.5t-7.5 66.5h-15q-3 -70 -27 -147l-125 -401h-118l-209 700h111zM528 896h115l-106 -134h-68z" />
    <glyph glyph-name="Wcircumflex" unicode="&#x174;" horiz-adv-x="1004" 
d="M125 700l128 -437q20 -70 22 -131h16q2 57 24 133l135 435h102l137 -440q20 -67 22 -128h15q2 59 22 125l130 443h111l-209 -700h-118l-126 401q-16 49 -20.5 80.5t-7.5 66.5h-15q-3 -70 -27 -147l-125 -401h-118l-209 700h111zM640 759h-85l-45 85h-14l-46 -85h-85
l79 141h117z" />
    <glyph glyph-name="Wdieresis" unicode="&#x1e84;" horiz-adv-x="1003" 
d="M125 700l128 -437q20 -70 22 -131h16q2 57 24 133l135 435h102l137 -440q20 -67 22 -128h15q2 59 22 125l130 443h111l-209 -700h-118l-126 401q-16 49 -20.5 80.5t-7.5 66.5h-15q-3 -70 -27 -147l-125 -401h-118l-209 700h111zM326 895h103v-134h-103v134zM556 895h104
v-134h-104v134z" />
    <glyph glyph-name="Wgrave" unicode="&#x1e80;" horiz-adv-x="1004" 
d="M125 700l128 -437q20 -70 22 -131h16q2 57 24 133l135 435h102l137 -440q20 -67 22 -128h15q2 59 22 125l130 443h111l-209 -700h-118l-126 401q-16 49 -20.5 80.5t-7.5 66.5h-15q-3 -70 -27 -147l-125 -401h-118l-209 700h111zM366 896h115l59 -134h-68z" />
    <glyph glyph-name="X" unicode="X" horiz-adv-x="678" 
d="M257 360l-200 340h118l109 -180q41 -73 46 -111h18q5 36 45 111l110 180h118l-200 -340v-10l207 -350h-118l-113 186q-25 45 -35.5 69t-13.5 46h-18q-3 -21 -14 -45t-36 -70l-112 -186h-118l207 350v10z" />
    <glyph glyph-name="Y" unicode="Y" horiz-adv-x="603" 
d="M354 239v-239h-106v240l-234 460h118l127 -252q33 -74 36 -122h15q1 27 10 59.5t23 62.5l128 252h117z" />
    <glyph glyph-name="Yacute" unicode="&#xdd;" horiz-adv-x="603" 
d="M354 239v-239h-106v240l-234 460h118l127 -252q33 -74 36 -122h15q1 27 10 59.5t23 62.5l128 252h117zM329 896h115l-106 -134h-68z" />
    <glyph glyph-name="Ycircumflex" unicode="&#x176;" horiz-adv-x="603" 
d="M354 239v-239h-106v240l-234 460h118l127 -252q33 -74 36 -122h15q1 27 10 59.5t23 62.5l128 252h117zM441 759h-85l-45 85h-14l-46 -85h-85l79 141h117z" />
    <glyph glyph-name="Ydieresis" unicode="&#x178;" horiz-adv-x="603" 
d="M354 239v-239h-106v240l-234 460h118l127 -252q33 -74 36 -122h15q1 27 10 59.5t23 62.5l128 252h117zM135 900h103v-134h-103v134zM365 900h104v-134h-104v134z" />
    <glyph glyph-name="uni1EF4" unicode="&#x1ef4;" horiz-adv-x="603" 
d="M354 239v-239h-106v240l-234 460h118l127 -252q33 -74 36 -122h15q1 27 10 59.5t23 62.5l128 252h117zM252 -76h103v-134h-103v134z" />
    <glyph glyph-name="Ygrave" unicode="&#x1ef2;" horiz-adv-x="603" 
d="M354 239v-239h-106v240l-234 460h118l127 -252q33 -74 36 -122h15q1 27 10 59.5t23 62.5l128 252h117zM167 896h115l59 -134h-68z" />
    <glyph glyph-name="uni1EF8" unicode="&#x1ef8;" horiz-adv-x="603" 
d="M354 239v-239h-106v240l-234 460h118l127 -252q33 -74 36 -122h15q1 27 10 59.5t23 62.5l128 252h117zM444.5 796q-24.5 -29 -65.5 -29q-25 0 -43.5 9.5t-42.5 28.5q-20 16 -33.5 23.5t-30.5 7.5q-43 0 -43 -63h-58v17q0 57 24 86.5t65 29.5q26 0 44 -9.5t44 -28.5
q20 -16 33.5 -23.5t29.5 -7.5q43 0 43 63h58v-18q0 -57 -24.5 -86z" />
    <glyph glyph-name="Z" unicode="Z" horiz-adv-x="615" 
d="M252 195q-31 -40 -55.5 -59t-48.5 -27v-15h408v-94h-497v116l303 389q31 40 56 59t50 27v15h-409v94h497v-116z" />
    <glyph glyph-name="Zacute" unicode="&#x179;" horiz-adv-x="615" 
d="M252 195q-31 -40 -55.5 -59t-48.5 -27v-15h408v-94h-497v116l303 389q31 40 56 59t50 27v15h-409v94h497v-116zM336 896h115l-106 -134h-68z" />
    <glyph glyph-name="Zcaron" unicode="&#x17d;" horiz-adv-x="615" 
d="M252 195q-31 -40 -55.5 -59t-48.5 -27v-15h408v-94h-497v116l303 389q31 40 56 59t50 27v15h-409v94h497v-116zM250 755l-79 141h85l46 -85h14l45 85h85l-79 -141h-117z" />
    <glyph glyph-name="Zdotaccent" unicode="&#x17b;" horiz-adv-x="615" 
d="M252 195q-31 -40 -55.5 -59t-48.5 -27v-15h408v-94h-497v116l303 389q31 40 56 59t50 27v15h-409v94h497v-116zM257 900h103v-134h-103v134z" />
    <glyph glyph-name="A.ccmp" horiz-adv-x="322" 
d="M57.5 296.5q-28.5 25.5 -28.5 68.5q0 47 40 74t104 29l77 2v7q0 33 -20 46.5t-58 13.5q-78 0 -80 -57h-61q1 53 39 82t102 29q66 0 102.5 -29t36.5 -85v-197h-61v62h-11q-14 -35 -44 -53t-66 -18q-43 0 -71.5 25.5zM220 348q30 27 30 68v8l-79 -2q-80 0 -80 -51
q0 -25 16 -37.5t42 -12.5q41 0 71 27z" />
    <glyph glyph-name="B.ccmp" horiz-adv-x="364" 
d="M322 547q34 -44 34 -116t-34 -116t-91 -44q-34 0 -61 16t-40 48l-3 7h-12v-62h-62v420h62v-179h12l3 7q13 31 40 47t61 16q57 0 91 -44zM270 356.5q22 30.5 22 74.5t-22 74.5t-66 30.5q-43 0 -66 -31.5t-23 -73.5q0 -43 22.5 -74t66.5 -31t66 30.5z" />
    <glyph glyph-name="C.ccmp" horiz-adv-x="341" 
d="M69.5 316q-41.5 45 -41.5 116q0 70 41.5 114.5t112.5 44.5q63 0 104 -35.5t46 -92.5h-63q-4 35 -28.5 54.5t-58.5 19.5q-40 0 -65 -28t-25 -78t25.5 -78t65.5 -28q34 0 58 19.5t28 55.5h63q-5 -57 -46 -93t-104 -36q-71 0 -112.5 45z" />
    <glyph glyph-name="D.ccmp" horiz-adv-x="364" 
d="M331 700v-420h-61v62h-12l-3 -7q-13 -32 -40 -48t-62 -16q-57 0 -91 44t-34 116t34 116t91 44q34 0 61.5 -16t40.5 -47l3 -7h12v179h61zM247 357q23 31 23 74t-23 74t-67 31q-43 0 -65 -30.5t-22 -74.5t22 -74.5t65 -30.5q44 0 67 31z" />
    <glyph glyph-name="E.ccmp" horiz-adv-x="351" 
d="M344 378q-16 -53 -58.5 -80t-96.5 -27q-72 0 -114 45.5t-42 114.5q0 71 40.5 115.5t114.5 44.5q71 0 110.5 -42t39.5 -113v-24h-245q4 -46 30 -67t67 -21q32 0 57 13.5t35 40.5h62zM124 520.5q-25 -19.5 -30 -57.5h183q-3 40 -26.5 58.5t-62.5 18.5t-64 -19.5z" />
    <glyph glyph-name="F.ccmp" horiz-adv-x="231" 
d="M27 535v47h59v41q0 86 79 86q32 0 66 -13v-45q-24 12 -47 12q-39 0 -39 -44v-37h86v-47h-86v-255h-59v255h-59z" />
    <glyph glyph-name="G.ccmp" horiz-adv-x="361" 
d="M29 247v92q0 27 15 41.5t38 16.5l4 1v10l-3 2q-36 29 -36 76q0 49 35.5 77t92.5 28h168v-39l-82 1v-10l4 -2q42 -21 42 -71q0 -48 -38 -73t-91 -25q-19 0 -37.5 3t-24.5 3q-28 0 -28 -26q0 -28 32 -28h123q50 0 75 -24t25 -62q0 -34 -22.5 -59t-76.5 -25h-120
q-95 0 -95 93zM222 437.5q19 15.5 19 43.5q0 29 -19 44.5t-47 15.5t-47 -15.5t-19 -44.5q0 -28 19 -43.5t47 -15.5t47 15.5zM282 239q0 35 -33 35h-135q-33 0 -33 -35t33 -35h135q33 0 33 35z" />
    <glyph glyph-name="H.ccmp" horiz-adv-x="355" 
d="M306 565.5q23 -25.5 23 -76.5v-209h-61v187q0 30 -11.5 50t-45.5 20q-37 0 -60 -28t-23 -74v-155h-61v420h62v-134h-1v-43h11l4 8q14 27 39.5 43.5t59.5 16.5q41 0 64 -25.5z" />
    <glyph glyph-name="I.ccmp" horiz-adv-x="178" 
d="M52 700h74v-80h-74v80zM58 582h62v-302h-62v302z" />
    <glyph glyph-name="J.ccmp" horiz-adv-x="159" 
d="M33 700h74v-80h-74v80zM-2 201q41 0 41 51v330h62v-334q0 -47 -21 -70t-71 -23h-40v46h29z" />
    <glyph glyph-name="K.ccmp" horiz-adv-x="320" 
d="M262 280l-65 172l-85 -86v-86h-62v420h62v-273h10l2 6q3 17 10.5 31t22.5 30l89 88h81l-84 -84l85 -218h-66z" />
    <glyph glyph-name="L.ccmp" horiz-adv-x="174" 
d="M103 372q0 -22 8.5 -33.5t28.5 -11.5h12v-47h-32q-42 0 -60.5 22t-18.5 70v328h62v-328z" />
    <glyph glyph-name="M.ccmp" horiz-adv-x="502" 
d="M108 582v-49h11l2 4q11 25 33 39.5t53 14.5q36 0 57 -18.5t24 -45.5h11l3 7q29 57 90 57q40 0 63.5 -26.5t23.5 -82.5v-202h-61v177q0 32 -10 56t-45 24q-34 0 -52 -23t-18 -57v-177h-60v188q0 69 -55 69q-33 0 -51.5 -23.5t-18.5 -56.5v-177h-61v302h61z" />
    <glyph glyph-name="N.ccmp" horiz-adv-x="329" 
d="M119 523l4 8q14 27 39.5 43.5t59.5 16.5q41 0 64 -25.5t23 -76.5v-209h-61v187q0 30 -11.5 50t-45.5 20q-37 0 -60 -28t-23 -74v-155h-61v302h61v-59h11z" />
    <glyph glyph-name="O.ccmp" horiz-adv-x="378" 
d="M74 316.5q-44 45.5 -44 114.5q0 70 44 115t115 45q72 0 115.5 -44.5t43.5 -115.5q0 -69 -43.5 -114.5t-115.5 -45.5q-71 0 -115 45.5zM121 508q-27 -28 -27 -77t27 -77t68 -28q42 0 69 28t27 77t-27 77t-69 28q-41 0 -68 -28z" />
    <glyph glyph-name="P.ccmp" horiz-adv-x="364" 
d="M316 547q34 -44 34 -116t-34 -116t-91 -44q-34 0 -61 16t-40 48l-3 7h-12v-186h-62v426h62v-61h12l3 7q13 31 40 47t61 16q57 0 91 -44zM264 356.5q22 30.5 22 74.5t-22 74.5t-66 30.5q-43 0 -66 -31.5t-23 -73.5q0 -43 22.5 -74t66.5 -31t66 30.5z" />
    <glyph glyph-name="Q.ccmp" horiz-adv-x="364" 
d="M331 582v-426h-61v186h-12l-3 -7q-13 -32 -40 -48t-62 -16q-57 0 -91 44t-34 116t34 116t91 44q34 0 61.5 -16t40.5 -47l3 -7h12v61h61zM247 357q23 31 23 74t-23 74t-67 31q-43 0 -65 -30.5t-22 -74.5t22 -74.5t65 -30.5q44 0 67 31z" />
    <glyph glyph-name="R.ccmp" horiz-adv-x="246" 
d="M108 582v-65h11l2 6q10 35 35 51.5t58 16.5q14 0 26 -3v-55h-45q-48 0 -67.5 -34t-19.5 -79v-140h-61v302h61z" />
    <glyph glyph-name="S.ccmp" horiz-adv-x="316" 
d="M122 334.5q18 -13.5 46 -13.5q27 0 42.5 12t15.5 32q0 34 -46 40l-47 7q-48 7 -72.5 32t-24.5 59q0 41 33.5 64.5t88.5 23.5q59 0 94.5 -27t41.5 -79h-62q-9 56 -77 56q-29 0 -44 -9.5t-15 -27.5q0 -16 12 -26.5t29 -13.5l57 -9q49 -8 70.5 -32.5t21.5 -58.5
q0 -42 -32 -67.5t-85 -25.5q-54 0 -90.5 27t-40.5 75h59q7 -25 25 -38.5z" />
    <glyph glyph-name="T.ccmp" horiz-adv-x="225" 
d="M102.5 295q-19.5 24 -19.5 74v166h-59v47h59v68l61 10v-78h83v-47h-83v-154q0 -31 8 -45.5t31 -14.5q21 0 44 11v-48q-32 -13 -65 -13q-40 0 -59.5 24z" />
    <glyph glyph-name="U.ccmp" horiz-adv-x="329" 
d="M233 339l-4 -8q-14 -27 -39.5 -43.5t-59.5 -16.5q-42 0 -65 25.5t-23 76.5v209h62v-186q0 -30 11.5 -50.5t45.5 -20.5q37 0 59.5 28t22.5 74v155h62v-302h-62v59h-10z" />
    <glyph glyph-name="V.ccmp" horiz-adv-x="313" 
d="M87 582l54 -143q22 -60 22 -94h10q2 35 23 94l54 143h63l-109 -302h-71l-110 302h64z" />
    <glyph glyph-name="W.ccmp" horiz-adv-x="451" 
d="M369 280h-74l-53 171q-7 31 -7 55h-11q0 -29 -7 -55l-53 -171h-73l-84 302h62l54 -181q3 -16 3 -29v-17h10q0 28 5 46l57 181h63l56 -179q6 -24 6 -48h10v16.5t4 32.5l54 178h62z" />
    <glyph glyph-name="X.ccmp" horiz-adv-x="329" 
d="M253 280l-48 74q-15 29 -21 54h-9q-6 -25 -21 -54l-49 -74h-69l96 151l-96 151h69l47 -70q17 -31 23 -58h9q6 27 23 58l46 70h71l-96 -151l96 -151h-71z" />
    <glyph glyph-name="Y.ccmp" horiz-adv-x="312" 
d="M65 202q24 0 34 9.5t19 33.5l14 40l-109 297h64l55 -143q22 -60 22 -94h10q2 35 23 94l54 143h63l-118 -326q-20 -55 -44 -78.5t-72 -23.5h-50v48h35z" />
    <glyph glyph-name="Z.ccmp" horiz-adv-x="306" 
d="M155 376q-24 -30 -50 -38v-11h174v-47h-235v53l124 152q24 31 53 39v11h-177v47h235v-52z" />
    <glyph glyph-name="a" unicode="a" horiz-adv-x="587" 
d="M96 27q-47 42 -47 114q0 79 66.5 124.5t173.5 47.5l128 3v13q0 55 -34 77.5t-97 22.5q-56 0 -93 -20.5t-40 -75.5h-102q1 89 65 137.5t171 48.5q110 0 171 -49t61 -142v-328h-102v104h-18q-23 -58 -73.5 -88.5t-110.5 -30.5q-72 0 -119 42zM332.5 88.5q38.5 20.5 61.5 57
t23 81.5v13l-132 -3q-133 -2 -133 -85q0 -42 26.5 -63t70.5 -21q45 0 83.5 20.5z" />
    <glyph glyph-name="aacute" unicode="&#xe1;" horiz-adv-x="587" 
d="M96 27q-47 42 -47 114q0 79 66.5 124.5t173.5 47.5l128 3v13q0 55 -34 77.5t-97 22.5q-56 0 -93 -20.5t-40 -75.5h-102q1 89 65 137.5t171 48.5q110 0 171 -49t61 -142v-328h-102v104h-18q-23 -58 -73.5 -88.5t-110.5 -30.5q-72 0 -119 42zM332.5 88.5q38.5 20.5 61.5 57
t23 81.5v13l-132 -3q-133 -2 -133 -85q0 -42 26.5 -63t70.5 -21q45 0 83.5 20.5zM315 696h115l-106 -134h-68z" />
    <glyph glyph-name="abreve" unicode="&#x103;" horiz-adv-x="587" 
d="M96 27q-47 42 -47 114q0 79 66.5 124.5t173.5 47.5l128 3v13q0 55 -34 77.5t-97 22.5q-56 0 -93 -20.5t-40 -75.5h-102q1 89 65 137.5t171 48.5q110 0 171 -49t61 -142v-328h-102v104h-18q-23 -58 -73.5 -88.5t-110.5 -30.5q-72 0 -119 42zM332.5 88.5q38.5 20.5 61.5 57
t23 81.5v13l-132 -3q-133 -2 -133 -85q0 -42 26.5 -63t70.5 -21q45 0 83.5 20.5zM240 644.5q16 -20.5 48 -20.5q31 0 47 21t16 55h72q0 -66 -35.5 -104t-99.5 -38q-65 0 -100.5 38t-35.5 104h72q0 -35 16 -55.5z" />
    <glyph glyph-name="uni01CE" unicode="&#x1ce;" horiz-adv-x="587" 
d="M96 27q-47 42 -47 114q0 79 66.5 124.5t173.5 47.5l128 3v13q0 55 -34 77.5t-97 22.5q-56 0 -93 -20.5t-40 -75.5h-102q1 89 65 137.5t171 48.5q110 0 171 -49t61 -142v-328h-102v104h-18q-23 -58 -73.5 -88.5t-110.5 -30.5q-72 0 -119 42zM332.5 88.5q38.5 20.5 61.5 57
t23 81.5v13l-132 -3q-133 -2 -133 -85q0 -42 26.5 -63t70.5 -21q45 0 83.5 20.5zM229 555l-79 141h85l46 -85h14l45 85h85l-79 -141h-117z" />
    <glyph glyph-name="acircumflex" unicode="&#xe2;" horiz-adv-x="587" 
d="M96 27q-47 42 -47 114q0 79 66.5 124.5t173.5 47.5l128 3v13q0 55 -34 77.5t-97 22.5q-56 0 -93 -20.5t-40 -75.5h-102q1 89 65 137.5t171 48.5q110 0 171 -49t61 -142v-328h-102v104h-18q-23 -58 -73.5 -88.5t-110.5 -30.5q-72 0 -119 42zM332.5 88.5q38.5 20.5 61.5 57
t23 81.5v13l-132 -3q-133 -2 -133 -85q0 -42 26.5 -63t70.5 -21q45 0 83.5 20.5zM427 559h-85l-45 85h-14l-46 -85h-85l79 141h117z" />
    <glyph glyph-name="adieresis" unicode="&#xe4;" horiz-adv-x="587" 
d="M96 27q-47 42 -47 114q0 79 66.5 124.5t173.5 47.5l128 3v13q0 55 -34 77.5t-97 22.5q-56 0 -93 -20.5t-40 -75.5h-102q1 89 65 137.5t171 48.5q110 0 171 -49t61 -142v-328h-102v104h-18q-23 -58 -73.5 -88.5t-110.5 -30.5q-72 0 -119 42zM332.5 88.5q38.5 20.5 61.5 57
t23 81.5v13l-132 -3q-133 -2 -133 -85q0 -42 26.5 -63t70.5 -21q45 0 83.5 20.5zM121 700h103v-134h-103v134zM351 700h104v-134h-104v134z" />
    <glyph glyph-name="uni1EA1" unicode="&#x1ea1;" horiz-adv-x="587" 
d="M96 27q-47 42 -47 114q0 79 66.5 124.5t173.5 47.5l128 3v13q0 55 -34 77.5t-97 22.5q-56 0 -93 -20.5t-40 -75.5h-102q1 89 65 137.5t171 48.5q110 0 171 -49t61 -142v-328h-102v104h-18q-23 -58 -73.5 -88.5t-110.5 -30.5q-72 0 -119 42zM332.5 88.5q38.5 20.5 61.5 57
t23 81.5v13l-132 -3q-133 -2 -133 -85q0 -42 26.5 -63t70.5 -21q45 0 83.5 20.5zM233 -76h103v-134h-103v134z" />
    <glyph glyph-name="agrave" unicode="&#xe0;" horiz-adv-x="587" 
d="M96 27q-47 42 -47 114q0 79 66.5 124.5t173.5 47.5l128 3v13q0 55 -34 77.5t-97 22.5q-56 0 -93 -20.5t-40 -75.5h-102q1 89 65 137.5t171 48.5q110 0 171 -49t61 -142v-328h-102v104h-18q-23 -58 -73.5 -88.5t-110.5 -30.5q-72 0 -119 42zM332.5 88.5q38.5 20.5 61.5 57
t23 81.5v13l-132 -3q-133 -2 -133 -85q0 -42 26.5 -63t70.5 -21q45 0 83.5 20.5zM153 696h115l59 -134h-68z" />
    <glyph glyph-name="amacron" unicode="&#x101;" horiz-adv-x="587" 
d="M96 27q-47 42 -47 114q0 79 66.5 124.5t173.5 47.5l128 3v13q0 55 -34 77.5t-97 22.5q-56 0 -93 -20.5t-40 -75.5h-102q1 89 65 137.5t171 48.5q110 0 171 -49t61 -142v-328h-102v104h-18q-23 -58 -73.5 -88.5t-110.5 -30.5q-72 0 -119 42zM332.5 88.5q38.5 20.5 61.5 57
t23 81.5v13l-132 -3q-133 -2 -133 -85q0 -42 26.5 -63t70.5 -21q45 0 83.5 20.5zM428 696v-79h-281v79h281z" />
    <glyph glyph-name="aogonek" unicode="&#x105;" horiz-adv-x="587" 
d="M420 -97q0 -22 13.5 -33.5t34.5 -11.5t43 13v-65q-37 -14 -65 -14q-41 0 -71 23t-30 66q0 78 107 119h-35v104h-18q-23 -58 -73.5 -88.5t-110.5 -30.5q-72 0 -119 42t-47 114q0 79 66.5 124.5t173.5 47.5l128 3v13q0 55 -34 77.5t-97 22.5q-56 0 -93 -20.5t-40 -75.5
h-102q1 89 65 137.5t171 48.5q110 0 171 -49t61 -142v-328l-32 -16q-67 -30 -67 -81zM417 240l-132 -3q-133 -2 -133 -85q0 -42 26.5 -63t70.5 -21q45 0 83.5 20.5t61.5 57t23 81.5v13z" />
    <glyph glyph-name="aring" unicode="&#xe5;" horiz-adv-x="587" 
d="M476.5 452.5q42.5 -46.5 42.5 -124.5v-328h-102v104h-18q-23 -58 -73.5 -88.5t-110.5 -30.5q-72 0 -119 42t-47 114q0 79 66.5 124.5t173.5 47.5l128 3v13q0 55 -34 77.5t-97 22.5q-56 0 -93 -20.5t-40 -75.5h-102q1 74 46 120t123 60q-20 15 -31.5 36t-11.5 47
q0 46 32 75t79 29q46 0 77.5 -29t31.5 -75q0 -26 -11 -47t-31 -36q79 -14 121.5 -60.5zM255.5 627.5q-12.5 -12.5 -12.5 -31.5t12.5 -31t32.5 -12t32 12t12 31q0 20 -12 32t-32 12t-32.5 -12.5zM417 240l-132 -3q-133 -2 -133 -85q0 -42 26.5 -63t70.5 -21q45 0 83.5 20.5
t61.5 57t23 81.5v13z" />
    <glyph glyph-name="atilde" unicode="&#xe3;" horiz-adv-x="587" 
d="M96 27q-47 42 -47 114q0 79 66.5 124.5t173.5 47.5l128 3v13q0 55 -34 77.5t-97 22.5q-56 0 -93 -20.5t-40 -75.5h-102q1 89 65 137.5t171 48.5q110 0 171 -49t61 -142v-328h-102v104h-18q-23 -58 -73.5 -88.5t-110.5 -30.5q-72 0 -119 42zM332.5 88.5q38.5 20.5 61.5 57
t23 81.5v13l-132 -3q-133 -2 -133 -85q0 -42 26.5 -63t70.5 -21q45 0 83.5 20.5zM430.5 596q-24.5 -29 -65.5 -29q-25 0 -43.5 9.5t-42.5 28.5q-20 16 -33.5 23.5t-30.5 7.5q-43 0 -43 -63h-58v17q0 57 24 86.5t65 29.5q26 0 44 -9.5t44 -28.5q20 -16 33.5 -23.5t29.5 -7.5
q43 0 43 63h58v-18q0 -57 -24.5 -86z" />
    <glyph glyph-name="ae" unicode="&#xe6;" horiz-adv-x="981" 
d="M97 27.5q-48 42.5 -48 116.5q0 79 61 122.5t176 45.5l131 3v18q0 53 -34 74.5t-97 21.5q-56 0 -93 -20.5t-40 -75.5h-102q1 89 65 137.5t171 48.5q52 0 87 -11.5t52.5 -25t45.5 -39.5h17q34 32 84 54t114 22q75 0 130 -32t84 -91t29 -136v-40h-410q3 -74 47.5 -110.5
t115.5 -36.5q55 0 97.5 22.5t58.5 67.5h102q-27 -89 -98 -133.5t-162 -44.5q-77 0 -137 33.5t-99 96.5h-18q-27 -66 -82.5 -98t-120.5 -32q-79 0 -127 42.5zM788.5 401.5q-40.5 31.5 -109.5 31.5q-68 0 -111 -33.5t-47 -94.5h312q-4 65 -44.5 96.5zM373.5 116
q43.5 48 43.5 122v2l-132 -3q-133 -2 -133 -85q0 -41 30 -62.5t77 -21.5q71 0 114.5 48z" />
    <glyph glyph-name="b" unicode="b" horiz-adv-x="627" 
d="M488.5 485.5q47.5 -33.5 73 -93.5t25.5 -140t-25.5 -140.5t-72.5 -93.5t-111 -33q-57 0 -102 26.5t-67 79.5l-5 12h-20v-103h-102v700h102v-299h20l5 12q22 52 67.5 79t101.5 27q63 0 110.5 -33.5zM442 127.5q37 50.5 37 123.5q0 74 -37 125t-109 51q-49 0 -83 -25
t-50 -65.5t-16 -85.5t16.5 -85t50 -64.5t82.5 -24.5q72 0 109 50.5z" />
    <glyph glyph-name="c" unicode="c" horiz-adv-x="586" 
d="M160 20q-58 35 -89 96t-31 137q0 77 31 137.5t89 94.5t137 34q70 0 124.5 -27.5t87 -76.5t37.5 -111h-105q-6 60 -46.5 92.5t-97.5 32.5q-67 0 -109 -47t-42 -130t42.5 -130t109.5 -47q56 0 96.5 32.5t47.5 91.5h104q-6 -62 -38.5 -110.5t-87 -76t-123.5 -27.5
q-79 0 -137 35z" />
    <glyph glyph-name="cacute" unicode="&#x107;" horiz-adv-x="586" 
d="M160 20q-58 35 -89 96t-31 137q0 77 31 137.5t89 94.5t137 34q70 0 124.5 -27.5t87 -76.5t37.5 -111h-105q-6 60 -46.5 92.5t-97.5 32.5q-67 0 -109 -47t-42 -130t42.5 -130t109.5 -47q56 0 96.5 32.5t47.5 91.5h104q-6 -62 -38.5 -110.5t-87 -76t-123.5 -27.5
q-79 0 -137 35zM321 696h115l-106 -134h-68z" />
    <glyph glyph-name="ccaron" unicode="&#x10d;" horiz-adv-x="586" 
d="M160 20q-58 35 -89 96t-31 137q0 77 31 137.5t89 94.5t137 34q70 0 124.5 -27.5t87 -76.5t37.5 -111h-105q-6 60 -46.5 92.5t-97.5 32.5q-67 0 -109 -47t-42 -130t42.5 -130t109.5 -47q56 0 96.5 32.5t47.5 91.5h104q-6 -62 -38.5 -110.5t-87 -76t-123.5 -27.5
q-79 0 -137 35zM235 555l-79 141h85l46 -85h14l45 85h85l-79 -141h-117z" />
    <glyph glyph-name="ccedilla" unicode="&#xe7;" horiz-adv-x="586" 
d="M394.5 107.5q40.5 32.5 47.5 91.5h104q-6 -62 -38.5 -110.5t-87 -76t-123.5 -27.5h-4l-7 -60h17l2 5q7 22 24 33.5t40 11.5q33 0 55.5 -22.5t22.5 -61.5q0 -49 -32.5 -75t-78.5 -26q-44 0 -74 23t-34 61l56 1q4 -20 18 -30t33 -10q23 0 37.5 13.5t14.5 37.5q0 23 -13 35
t-33 12q-32 0 -43 -36l-68 3l11 90q-94 18 -147.5 89.5t-53.5 173.5q0 77 31 137.5t89 94.5t137 34q70 0 124.5 -27.5t87 -76.5t37.5 -111h-105q-6 60 -46.5 92.5t-97.5 32.5q-67 0 -109 -47t-42 -130t42.5 -130t109.5 -47q56 0 96.5 32.5z" />
    <glyph glyph-name="cdotaccent" unicode="&#x10b;" horiz-adv-x="586" 
d="M160 20q-58 35 -89 96t-31 137q0 77 31 137.5t89 94.5t137 34q70 0 124.5 -27.5t87 -76.5t37.5 -111h-105q-6 60 -46.5 92.5t-97.5 32.5q-67 0 -109 -47t-42 -130t42.5 -130t109.5 -47q56 0 96.5 32.5t47.5 91.5h104q-6 -62 -38.5 -110.5t-87 -76t-123.5 -27.5
q-79 0 -137 35zM242 700h103v-134h-103v134z" />
    <glyph glyph-name="d" unicode="d" horiz-adv-x="627" 
d="M545 700v-700h-102v103h-20l-5 -12q-22 -53 -67 -79.5t-102 -26.5q-64 0 -111 33t-72.5 93.5t-25.5 140.5t25.5 140t73 93.5t110.5 33.5q56 0 101.5 -27t67.5 -79l5 -12h20v299h102zM376.5 101.5q33.5 24.5 50 64.5t16.5 85t-16 85.5t-50 65.5t-83 25q-72 0 -109 -51
t-37 -125q0 -73 37 -123.5t109 -50.5q49 0 82.5 24.5z" />
    <glyph glyph-name="eth" unicode="&#xf0;" horiz-adv-x="588" 
d="M526.5 509q21.5 -81 21.5 -180q0 -96 -27 -173.5t-84 -124t-145 -46.5q-73 0 -130 32.5t-89.5 93t-32.5 141.5q0 107 55.5 172t153.5 65q55 0 102.5 -27t74.5 -85l5 -10h13q-5 156 -66 220l-76 -50l-15 23l69 46q-40 27 -98 27q-62 0 -138 -32v76q82 38 162 38
q95 0 157 -54l82 54l15 -23l-77 -51q46 -51 67.5 -132zM399 115.5q41 48.5 41 125.5q0 76 -40.5 121.5t-107.5 45.5t-107.5 -46t-40.5 -123t40 -124.5t107 -47.5t108 48.5z" />
    <glyph glyph-name="dcaron" unicode="&#x10f;" horiz-adv-x="695" 
d="M545 700v-700h-102v103h-20l-5 -12q-22 -53 -67 -79.5t-102 -26.5q-64 0 -111 33t-72.5 93.5t-25.5 140.5t25.5 140t73 93.5t110.5 33.5q56 0 101.5 -27t67.5 -79l5 -12h20v299h102zM376.5 101.5q33.5 24.5 50 64.5t16.5 85t-16 85.5t-50 65.5t-83 25q-72 0 -109 -51
t-37 -125q0 -73 37 -123.5t109 -50.5q49 0 82.5 24.5zM753 700l-89 -169h-60l58 169h91z" />
    <glyph glyph-name="dcroat" unicode="&#x111;" horiz-adv-x="627" 
d="M605 557h-60v-557h-102v103h-20l-5 -12q-22 -53 -67 -79.5t-102 -26.5q-64 0 -111 33t-72.5 93.5t-25.5 140.5t25.5 140t73 93.5t110.5 33.5q56 0 101.5 -27t67.5 -79l5 -12h20v156h-171v79h171v64h102v-64h60v-79zM376.5 101.5q33.5 24.5 50 64.5t16.5 85t-16 85.5
t-50 65.5t-83 25q-72 0 -109 -51t-37 -125q0 -73 37 -123.5t109 -50.5q49 0 82.5 24.5z" />
    <glyph glyph-name="uni1E0D" unicode="&#x1e0d;" horiz-adv-x="627" 
d="M545 700v-700h-102v103h-20l-5 -12q-22 -53 -67 -79.5t-102 -26.5q-64 0 -111 33t-72.5 93.5t-25.5 140.5t25.5 140t73 93.5t110.5 33.5q56 0 101.5 -27t67.5 -79l5 -12h20v299h102zM376.5 101.5q33.5 24.5 50 64.5t16.5 85t-16 85.5t-50 65.5t-83 25q-72 0 -109 -51
t-37 -125q0 -73 37 -123.5t109 -50.5q49 0 82.5 24.5zM264 -76h103v-134h-103v134z" />
    <glyph glyph-name="e" unicode="e" horiz-adv-x="598" 
d="M558 163q-26 -89 -97 -133.5t-161 -44.5q-80 0 -138.5 35t-90 95.5t-31.5 136.5q0 77 30 137.5t88 95t140 34.5q119 0 185 -70.5t66 -188.5v-40h-408q5 -76 48.5 -111.5t111.5 -35.5q54 0 95.5 22.5t58.5 67.5h103zM191.5 400.5q-41.5 -32.5 -49.5 -95.5h305
q-6 66 -45 97t-104 31t-106.5 -32.5z" />
    <glyph glyph-name="eacute" unicode="&#xe9;" horiz-adv-x="598" 
d="M558 163q-26 -89 -97 -133.5t-161 -44.5q-80 0 -138.5 35t-90 95.5t-31.5 136.5q0 77 30 137.5t88 95t140 34.5q119 0 185 -70.5t66 -188.5v-40h-408q5 -76 48.5 -111.5t111.5 -35.5q54 0 95.5 22.5t58.5 67.5h103zM191.5 400.5q-41.5 -32.5 -49.5 -95.5h305
q-6 66 -45 97t-104 31t-106.5 -32.5zM326 696h115l-106 -134h-68z" />
    <glyph glyph-name="ecaron" unicode="&#x11b;" horiz-adv-x="598" 
d="M558 163q-26 -89 -97 -133.5t-161 -44.5q-80 0 -138.5 35t-90 95.5t-31.5 136.5q0 77 30 137.5t88 95t140 34.5q119 0 185 -70.5t66 -188.5v-40h-408q5 -76 48.5 -111.5t111.5 -35.5q54 0 95.5 22.5t58.5 67.5h103zM191.5 400.5q-41.5 -32.5 -49.5 -95.5h305
q-6 66 -45 97t-104 31t-106.5 -32.5zM240 555l-79 141h85l46 -85h14l45 85h85l-79 -141h-117z" />
    <glyph glyph-name="ecircumflex" unicode="&#xea;" horiz-adv-x="598" 
d="M558 163q-26 -89 -97 -133.5t-161 -44.5q-80 0 -138.5 35t-90 95.5t-31.5 136.5q0 77 30 137.5t88 95t140 34.5q119 0 185 -70.5t66 -188.5v-40h-408q5 -76 48.5 -111.5t111.5 -35.5q54 0 95.5 22.5t58.5 67.5h103zM191.5 400.5q-41.5 -32.5 -49.5 -95.5h305
q-6 66 -45 97t-104 31t-106.5 -32.5zM438 559h-85l-45 85h-14l-46 -85h-85l79 141h117z" />
    <glyph glyph-name="edieresis" unicode="&#xeb;" horiz-adv-x="598" 
d="M558 163q-26 -89 -97 -133.5t-161 -44.5q-80 0 -138.5 35t-90 95.5t-31.5 136.5q0 77 30 137.5t88 95t140 34.5q119 0 185 -70.5t66 -188.5v-40h-408q5 -76 48.5 -111.5t111.5 -35.5q54 0 95.5 22.5t58.5 67.5h103zM191.5 400.5q-41.5 -32.5 -49.5 -95.5h305
q-6 66 -45 97t-104 31t-106.5 -32.5zM132 700h103v-134h-103v134zM362 700h104v-134h-104v134z" />
    <glyph glyph-name="edotaccent" unicode="&#x117;" horiz-adv-x="598" 
d="M558 163q-26 -89 -97 -133.5t-161 -44.5q-80 0 -138.5 35t-90 95.5t-31.5 136.5q0 77 30 137.5t88 95t140 34.5q119 0 185 -70.5t66 -188.5v-40h-408q5 -76 48.5 -111.5t111.5 -35.5q54 0 95.5 22.5t58.5 67.5h103zM191.5 400.5q-41.5 -32.5 -49.5 -95.5h305
q-6 66 -45 97t-104 31t-106.5 -32.5zM247 700h103v-134h-103v134z" />
    <glyph glyph-name="egrave" unicode="&#xe8;" horiz-adv-x="598" 
d="M558 163q-26 -89 -97 -133.5t-161 -44.5q-80 0 -138.5 35t-90 95.5t-31.5 136.5q0 77 30 137.5t88 95t140 34.5q119 0 185 -70.5t66 -188.5v-40h-408q5 -76 48.5 -111.5t111.5 -35.5q54 0 95.5 22.5t58.5 67.5h103zM191.5 400.5q-41.5 -32.5 -49.5 -95.5h305
q-6 66 -45 97t-104 31t-106.5 -32.5zM164 696h115l59 -134h-68z" />
    <glyph glyph-name="emacron" unicode="&#x113;" horiz-adv-x="598" 
d="M558 163q-26 -89 -97 -133.5t-161 -44.5q-80 0 -138.5 35t-90 95.5t-31.5 136.5q0 77 30 137.5t88 95t140 34.5q119 0 185 -70.5t66 -188.5v-40h-408q5 -76 48.5 -111.5t111.5 -35.5q54 0 95.5 22.5t58.5 67.5h103zM191.5 400.5q-41.5 -32.5 -49.5 -95.5h305
q-6 66 -45 97t-104 31t-106.5 -32.5zM439 696v-79h-281v79h281z" />
    <glyph glyph-name="eogonek" unicode="&#x119;" horiz-adv-x="598" 
d="M247 -97q0 -22 13.5 -33.5t34.5 -11.5t43 13v-65q-37 -14 -65 -14q-41 0 -71 23t-30 66q0 68 81 107q-100 15 -156.5 87.5t-56.5 176.5q0 77 30 137.5t88 95t140 34.5q119 0 185 -70.5t66 -188.5v-40h-408q5 -76 48.5 -111.5t111.5 -35.5q54 0 95.5 22.5t58.5 67.5h103
q-25 -85 -90.5 -129.5t-150.5 -48.5l-3 -1q-67 -30 -67 -81zM191.5 400.5q-41.5 -32.5 -49.5 -95.5h305q-6 66 -45 97t-104 31t-106.5 -32.5z" />
    <glyph glyph-name="uni1EBD" unicode="&#x1ebd;" horiz-adv-x="598" 
d="M558 163q-26 -89 -97 -133.5t-161 -44.5q-80 0 -138.5 35t-90 95.5t-31.5 136.5q0 77 30 137.5t88 95t140 34.5q119 0 185 -70.5t66 -188.5v-40h-408q5 -76 48.5 -111.5t111.5 -35.5q54 0 95.5 22.5t58.5 67.5h103zM191.5 400.5q-41.5 -32.5 -49.5 -95.5h305
q-6 66 -45 97t-104 31t-106.5 -32.5zM441.5 596q-24.5 -29 -65.5 -29q-25 0 -43.5 9.5t-42.5 28.5q-20 16 -33.5 23.5t-30.5 7.5q-43 0 -43 -63h-58v17q0 57 24 86.5t65 29.5q26 0 44 -9.5t44 -28.5q20 -16 33.5 -23.5t29.5 -7.5q43 0 43 63h58v-18q0 -57 -24.5 -86z" />
    <glyph glyph-name="f" unicode="f" horiz-adv-x="408" 
d="M26 425v79h99v68q0 76 35.5 109.5t96.5 33.5q53 0 110 -22v-74q-42 19 -79 19q-32 0 -48.5 -17.5t-16.5 -55.5v-61h144v-79h-144v-425h-98v425h-99z" />
    <glyph glyph-name="g" unicode="g" horiz-adv-x="588" 
d="M73 -167q-34 43 -34 112v153q0 44 25 68.5t63 28.5l6 1v18l-4 3q-61 49 -61 126q0 82 59.5 129t154.5 47h279v-66l-136 2v-17l7 -3q69 -34 69 -118q0 -80 -62.5 -122t-152.5 -42q-29 0 -69 7q-26 4 -34 4q-47 0 -47 -44q0 -46 54 -46h205q83 0 125 -40.5t42 -103.5
q0 -57 -37.5 -98.5t-127.5 -41.5h-200q-90 0 -124 43zM359.5 262.5q31.5 25.5 31.5 72.5t-31.5 73.5t-78.5 26.5t-78.5 -26.5t-31.5 -73.5t31.5 -72.5t78.5 -25.5t78.5 25.5zM460 -68q0 58 -55 58h-225q-55 0 -55 -58t55 -58h225q55 0 55 58z" />
    <glyph glyph-name="gbreve" unicode="&#x11f;" horiz-adv-x="588" 
d="M73 -167q-34 43 -34 112v153q0 44 25 68.5t63 28.5l6 1v18l-4 3q-61 49 -61 126q0 82 59.5 129t154.5 47h279v-66l-136 2v-17l7 -3q69 -34 69 -118q0 -80 -62.5 -122t-152.5 -42q-29 0 -69 7q-26 4 -34 4q-47 0 -47 -44q0 -46 54 -46h205q83 0 125 -40.5t42 -103.5
q0 -57 -37.5 -98.5t-127.5 -41.5h-200q-90 0 -124 43zM359.5 262.5q31.5 25.5 31.5 72.5t-31.5 73.5t-78.5 26.5t-78.5 -26.5t-31.5 -73.5t31.5 -72.5t78.5 -25.5t78.5 25.5zM460 -68q0 58 -55 58h-225q-55 0 -55 -58t55 -58h225q55 0 55 58zM246 648.5q16 -20.5 48 -20.5
q31 0 47 21t16 55h72q0 -66 -35.5 -104t-99.5 -38q-65 0 -100.5 38t-35.5 104h72q0 -35 16 -55.5z" />
    <glyph glyph-name="gcaron" unicode="&#x1e7;" horiz-adv-x="588" 
d="M73 -167q-34 43 -34 112v153q0 44 25 68.5t63 28.5l6 1v18l-4 3q-61 49 -61 126q0 82 59.5 129t154.5 47h279v-66l-136 2v-17l7 -3q69 -34 69 -118q0 -80 -62.5 -122t-152.5 -42q-29 0 -69 7q-26 4 -34 4q-47 0 -47 -44q0 -46 54 -46h205q83 0 125 -40.5t42 -103.5
q0 -57 -37.5 -98.5t-127.5 -41.5h-200q-90 0 -124 43zM359.5 262.5q31.5 25.5 31.5 72.5t-31.5 73.5t-78.5 26.5t-78.5 -26.5t-31.5 -73.5t31.5 -72.5t78.5 -25.5t78.5 25.5zM460 -68q0 58 -55 58h-225q-55 0 -55 -58t55 -58h225q55 0 55 58zM235 559l-79 141h85l46 -85h14
l45 85h85l-79 -141h-117z" />
    <glyph glyph-name="uni0123" unicode="&#x123;" horiz-adv-x="560" 
d="M73 -167q-34 43 -34 112v153q0 44 25 68.5t63 28.5l6 1v18l-4 3q-61 49 -61 126q0 82 59.5 129t154.5 47h279v-66l-136 2v-17l7 -3q69 -34 69 -118q0 -80 -62.5 -122t-152.5 -42q-29 0 -69 7q-26 4 -34 4q-47 0 -47 -44q0 -46 54 -46h205q83 0 125 -40.5t42 -103.5
q0 -57 -37.5 -98.5t-127.5 -41.5h-200q-90 0 -124 43zM359.5 262.5q31.5 25.5 31.5 72.5t-31.5 73.5t-78.5 26.5t-78.5 -26.5t-31.5 -73.5t31.5 -72.5t78.5 -25.5t78.5 25.5zM460 -68q0 58 -55 58h-225q-55 0 -55 -58t55 -58h225q55 0 55 58zM320 754q-18 0 -25 -7.5
t-7 -29.5v-32h46v-130h-103v157q0 46 18 68t63 22h22v-48h-14z" />
    <glyph glyph-name="gdotaccent" unicode="&#x121;" horiz-adv-x="560" 
d="M73 -167q-34 43 -34 112v153q0 44 25 68.5t63 28.5l6 1v18l-4 3q-61 49 -61 126q0 82 59.5 129t154.5 47h279v-66l-136 2v-17l7 -3q69 -34 69 -118q0 -80 -62.5 -122t-152.5 -42q-29 0 -69 7q-26 4 -34 4q-47 0 -47 -44q0 -46 54 -46h205q83 0 125 -40.5t42 -103.5
q0 -57 -37.5 -98.5t-127.5 -41.5h-200q-90 0 -124 43zM359.5 262.5q31.5 25.5 31.5 72.5t-31.5 73.5t-78.5 26.5t-78.5 -26.5t-31.5 -73.5t31.5 -72.5t78.5 -25.5t78.5 25.5zM460 -68q0 58 -55 58h-225q-55 0 -55 -58t55 -58h225q55 0 55 58zM246 700h103v-134h-103v134z
" />
    <glyph glyph-name="h" unicode="h" horiz-adv-x="586" 
d="M481 476q38 -43 38 -127v-349h-102v311q0 118 -95 118q-63 0 -100.5 -47t-37.5 -124v-258h-102v700h102v-295h18l6 13q23 46 66 73.5t99 27.5q70 0 108 -43z" />
    <glyph glyph-name="hbar" unicode="&#x127;" horiz-adv-x="587" 
d="M481 476q38 -43 38 -127v-349h-102v311q0 118 -95 118q-63 0 -100.5 -47t-37.5 -124v-258h-102v557h-60v79h60v64h102v-64h172v-79h-172v-152h18l6 13q23 46 66 73.5t99 27.5q70 0 108 -43z" />
    <glyph glyph-name="uni1E25" unicode="&#x1e25;" horiz-adv-x="586" 
d="M481 476q38 -43 38 -127v-349h-102v311q0 118 -95 118q-63 0 -100.5 -47t-37.5 -124v-258h-102v700h102v-295h18l6 13q23 46 66 73.5t99 27.5q70 0 108 -43zM251 -76h103v-134h-103v134z" />
    <glyph glyph-name="i" unicode="i" horiz-adv-x="247" 
d="M62 700h122v-134h-122v134zM72 504h102v-504h-102v504z" />
    <glyph glyph-name="dotlessi" unicode="&#x131;" horiz-adv-x="247" 
d="M174 504v-504h-102v504h102z" />
    <glyph glyph-name="iacute" unicode="&#xed;" horiz-adv-x="247" 
d="M174 504v-504h-102v504h102zM151 700h115l-106 -134h-68z" />
    <glyph glyph-name="icircumflex" unicode="&#xee;" horiz-adv-x="247" 
d="M174 504v-504h-102v504h102zM262 563h-85l-45 85h-14l-46 -85h-85l79 141h117z" />
    <glyph glyph-name="idieresis" unicode="&#xef;" horiz-adv-x="318" 
d="M210 504v-504h-102v504h102zM-7 704h103v-134h-103v134zM223 704h104v-134h-104v134z" />
    <glyph glyph-name="i.loclTRK" horiz-adv-x="247" 
d="M174 504v-504h-102v504h102zM72 704h103v-134h-103v134z" />
    <glyph glyph-name="uni1ECB" unicode="&#x1ecb;" horiz-adv-x="247" 
d="M62 700h122v-134h-122v134zM72 504h102v-504h-102v504zM73 -76h103v-134h-103v134z" />
    <glyph glyph-name="igrave" unicode="&#xec;" horiz-adv-x="247" 
d="M174 504v-504h-102v504h102zM-11 700h115l59 -134h-68z" />
    <glyph glyph-name="imacron" unicode="&#x12b;" horiz-adv-x="247" 
d="M174 504v-504h-102v504h102zM263 700v-79h-281v79h281z" />
    <glyph glyph-name="iogonek" unicode="&#x12f;" horiz-adv-x="247" 
d="M72 704h103v-134h-103v134zM72 504h102v-504l-32 -16q-67 -30 -67 -81q0 -22 13.5 -33.5t34.5 -11.5t43 13v-65q-37 -14 -65 -14q-41 0 -71 23t-30 66q0 78 107 119h-35v504z" />
    <glyph glyph-name="itilde" unicode="&#x129;" horiz-adv-x="247" 
d="M174 504v-504h-102v504h102zM265.5 600q-24.5 -29 -65.5 -29q-25 0 -43.5 9.5t-42.5 28.5q-20 16 -33.5 23.5t-30.5 7.5q-43 0 -43 -63h-58v17q0 57 24 86.5t65 29.5q26 0 44 -9.5t44 -28.5q20 -16 33.5 -23.5t29.5 -7.5q43 0 43 63h58v-18q0 -57 -24.5 -86z" />
    <glyph glyph-name="j" unicode="j" horiz-adv-x="251" 
d="M66 700h122v-134h-122v134zM7 -132q69 0 69 85v551h102v-557q0 -80 -35 -118t-118 -38h-66v77h48z" />
    <glyph glyph-name="k" unicode="k" horiz-adv-x="581" 
d="M434 0l-108 287l-142 -143v-144h-102v700h102v-455h18l3 10q6 28 17.5 51t36.5 51l150 147h134l-140 -141l142 -363h-111z" />
    <glyph glyph-name="uni0137" unicode="&#x137;" horiz-adv-x="581" 
d="M434 0l-108 287l-142 -143v-144h-102v700h102v-455h18l3 10q6 28 17.5 51t36.5 51l150 147h134l-140 -141l142 -363h-111zM331 -41l-89 -169h-60l58 169h91z" />
    <glyph glyph-name="l" unicode="l" horiz-adv-x="293" 
d="M174 153q0 -37 14.5 -55.5t47.5 -18.5h21v-79h-53q-70 0 -101 37t-31 117v546h102v-547z" />
    <glyph glyph-name="lacute" unicode="&#x13a;" horiz-adv-x="293" 
d="M174 153q0 -37 14.5 -55.5t47.5 -18.5h21v-79h-53q-70 0 -101 37t-31 117v546h102v-547zM169 927h115l-106 -134h-68z" />
    <glyph glyph-name="lcaron" unicode="&#x13e;" horiz-adv-x="322" 
d="M174 153q0 -37 14.5 -55.5t47.5 -18.5h21v-79h-53q-70 0 -101 37t-31 117v546h102v-547zM380 700l-89 -169h-60l58 169h91z" />
    <glyph glyph-name="uni013C" unicode="&#x13c;" horiz-adv-x="293" 
d="M174 153q0 -37 14.5 -55.5t47.5 -18.5h21v-79h-53q-70 0 -101 37t-31 117v546h102v-547zM231 -41l-89 -169h-60l58 169h91z" />
    <glyph glyph-name="lslash" unicode="&#x142;" horiz-adv-x="301" 
d="M264 79v-79h-54q-70 0 -100.5 37t-30.5 117v143l-67 -29v67l67 29v336h102v-292l73 31v-67l-73 -31v-188q0 -37 14 -55.5t47 -18.5h22z" />
    <glyph glyph-name="m" unicode="m" horiz-adv-x="860" 
d="M174 504v-83h18l3 7q19 43 55 67t88 24q61 0 95.5 -31.5t39.5 -75.5h18l6 12q21 43 58.5 69t91.5 26q67 0 106 -44t39 -138v-337h-102v295q0 53 -16.5 93.5t-75.5 40.5q-57 0 -86.5 -38.5t-29.5 -95.5v-295h-101v313q0 116 -91 116q-56 0 -86 -39t-30 -95v-295h-102v504
h102z" />
    <glyph glyph-name="n" unicode="n" horiz-adv-x="577" 
d="M192 405l6 13q23 46 66 73.5t99 27.5q70 0 108 -43t38 -127v-349h-102v311q0 118 -95 118q-63 0 -100.5 -47t-37.5 -124v-258h-102v504h102v-99h18z" />
    <glyph glyph-name="nacute" unicode="&#x144;" horiz-adv-x="577" 
d="M192 405l6 13q23 46 66 73.5t99 27.5q70 0 108 -43t38 -127v-349h-102v311q0 118 -95 118q-63 0 -100.5 -47t-37.5 -124v-258h-102v504h102v-99h18zM318 700h115l-106 -134h-68z" />
    <glyph glyph-name="ncaron" unicode="&#x148;" horiz-adv-x="577" 
d="M192 405l6 13q23 46 66 73.5t99 27.5q70 0 108 -43t38 -127v-349h-102v311q0 118 -95 118q-63 0 -100.5 -47t-37.5 -124v-258h-102v504h102v-99h18zM232 559l-79 141h85l46 -85h14l45 85h85l-79 -141h-117z" />
    <glyph glyph-name="uni0146" unicode="&#x146;" horiz-adv-x="577" 
d="M192 405l6 13q23 46 66 73.5t99 27.5q70 0 108 -43t38 -127v-349h-102v311q0 118 -95 118q-63 0 -100.5 -47t-37.5 -124v-258h-102v504h102v-99h18zM336 -41l-89 -169h-60l58 169h91z" />
    <glyph glyph-name="eng" unicode="&#x14b;" horiz-adv-x="576" 
d="M471 476q38 -43 38 -127v-402q0 -80 -35 -118t-118 -38h-66v77h48q69 0 69 85v358q0 118 -95 118q-63 0 -100.5 -47t-37.5 -124v-258h-102v504h102v-99h18l6 13q23 46 66 73.5t99 27.5q70 0 108 -43z" />
    <glyph glyph-name="ntilde" unicode="&#xf1;" horiz-adv-x="577" 
d="M192 405l6 13q23 46 66 73.5t99 27.5q70 0 108 -43t38 -127v-349h-102v311q0 118 -95 118q-63 0 -100.5 -47t-37.5 -124v-258h-102v504h102v-99h18zM433.5 600q-24.5 -29 -65.5 -29q-25 0 -43.5 9.5t-42.5 28.5q-20 16 -33.5 23.5t-30.5 7.5q-43 0 -43 -63h-58v17
q0 57 24 86.5t65 29.5q26 0 44 -9.5t44 -28.5q20 -16 33.5 -23.5t29.5 -7.5q43 0 43 63h58v-18q0 -57 -24.5 -86z" />
    <glyph glyph-name="o" unicode="o" horiz-adv-x="610" 
d="M166 20q-60 35 -93 95.5t-33 136.5q0 77 33 137.5t93 95t139 34.5t139 -34.5t93 -95t33 -137.5q0 -76 -33 -136.5t-93 -95.5t-139 -35t-139 35zM191 380q-45 -47 -45 -128q0 -82 45 -128.5t114 -46.5t114 46.5t45 128.5q0 81 -45 128t-114 47t-114 -47z" />
    <glyph glyph-name="oacute" unicode="&#xf3;" horiz-adv-x="610" 
d="M166 20q-60 35 -93 95.5t-33 136.5q0 77 33 137.5t93 95t139 34.5t139 -34.5t93 -95t33 -137.5q0 -76 -33 -136.5t-93 -95.5t-139 -35t-139 35zM191 380q-45 -47 -45 -128q0 -82 45 -128.5t114 -46.5t114 46.5t45 128.5q0 81 -45 128t-114 47t-114 -47zM332 696h115
l-106 -134h-68z" />
    <glyph glyph-name="uni01D2" unicode="&#x1d2;" horiz-adv-x="610" 
d="M166 20q-60 35 -93 95.5t-33 136.5q0 77 33 137.5t93 95t139 34.5t139 -34.5t93 -95t33 -137.5q0 -76 -33 -136.5t-93 -95.5t-139 -35t-139 35zM191 380q-45 -47 -45 -128q0 -82 45 -128.5t114 -46.5t114 46.5t45 128.5q0 81 -45 128t-114 47t-114 -47zM246 555l-79 141
h85l46 -85h14l45 85h85l-79 -141h-117z" />
    <glyph glyph-name="ocircumflex" unicode="&#xf4;" horiz-adv-x="610" 
d="M166 20q-60 35 -93 95.5t-33 136.5q0 77 33 137.5t93 95t139 34.5t139 -34.5t93 -95t33 -137.5q0 -76 -33 -136.5t-93 -95.5t-139 -35t-139 35zM191 380q-45 -47 -45 -128q0 -82 45 -128.5t114 -46.5t114 46.5t45 128.5q0 81 -45 128t-114 47t-114 -47zM444 559h-85
l-45 85h-14l-46 -85h-85l79 141h117z" />
    <glyph glyph-name="odieresis" unicode="&#xf6;" horiz-adv-x="610" 
d="M166 20q-60 35 -93 95.5t-33 136.5q0 77 33 137.5t93 95t139 34.5t139 -34.5t93 -95t33 -137.5q0 -76 -33 -136.5t-93 -95.5t-139 -35t-139 35zM191 380q-45 -47 -45 -128q0 -82 45 -128.5t114 -46.5t114 46.5t45 128.5q0 81 -45 128t-114 47t-114 -47zM138 700h103v-134
h-103v134zM368 700h104v-134h-104v134z" />
    <glyph glyph-name="uni1ECD" unicode="&#x1ecd;" horiz-adv-x="610" 
d="M166 20q-60 35 -93 95.5t-33 136.5q0 77 33 137.5t93 95t139 34.5t139 -34.5t93 -95t33 -137.5q0 -76 -33 -136.5t-93 -95.5t-139 -35t-139 35zM191 380q-45 -47 -45 -128q0 -82 45 -128.5t114 -46.5t114 46.5t45 128.5q0 81 -45 128t-114 47t-114 -47zM255 -76h103v-134
h-103v134z" />
    <glyph glyph-name="ograve" unicode="&#xf2;" horiz-adv-x="610" 
d="M166 20q-60 35 -93 95.5t-33 136.5q0 77 33 137.5t93 95t139 34.5t139 -34.5t93 -95t33 -137.5q0 -76 -33 -136.5t-93 -95.5t-139 -35t-139 35zM191 380q-45 -47 -45 -128q0 -82 45 -128.5t114 -46.5t114 46.5t45 128.5q0 81 -45 128t-114 47t-114 -47zM170 696h115
l59 -134h-68z" />
    <glyph glyph-name="ohungarumlaut" unicode="&#x151;" horiz-adv-x="610" 
d="M166 20q-60 35 -93 95.5t-33 136.5q0 77 33 137.5t93 95t139 34.5t139 -34.5t93 -95t33 -137.5q0 -76 -33 -136.5t-93 -95.5t-139 -35t-139 35zM191 380q-45 -47 -45 -128q0 -82 45 -128.5t114 -46.5t114 46.5t45 128.5q0 81 -45 128t-114 47t-114 -47zM221 696h107
l-106 -134h-60zM405 696h107l-106 -134h-60z" />
    <glyph glyph-name="omacron" unicode="&#x14d;" horiz-adv-x="610" 
d="M166 20q-60 35 -93 95.5t-33 136.5q0 77 33 137.5t93 95t139 34.5t139 -34.5t93 -95t33 -137.5q0 -76 -33 -136.5t-93 -95.5t-139 -35t-139 35zM191 380q-45 -47 -45 -128q0 -82 45 -128.5t114 -46.5t114 46.5t45 128.5q0 81 -45 128t-114 47t-114 -47zM445 696v-79h-281
v79h281z" />
    <glyph glyph-name="oslash" unicode="&#xf8;" horiz-adv-x="610" 
d="M543.5 377.5q26.5 -56.5 26.5 -125.5q0 -76 -33 -136.5t-93 -95.5t-139 -35q-71 0 -127 28l-43 -67h-33l52 81q-54 35 -84 94t-30 131q0 77 33 137.5t93 95t139 34.5q81 0 140 -35l44 70h33l-54 -85q49 -35 75.5 -91.5zM161.5 168q15.5 -36 44.5 -58l186 292
q-39 25 -87 25q-69 0 -114 -47t-45 -128q0 -48 15.5 -84zM419 123.5q45 46.5 45 128.5q0 85 -50 133l-184 -290q33 -18 75 -18q69 0 114 46.5z" />
    <glyph glyph-name="otilde" unicode="&#xf5;" horiz-adv-x="610" 
d="M166 20q-60 35 -93 95.5t-33 136.5q0 77 33 137.5t93 95t139 34.5t139 -34.5t93 -95t33 -137.5q0 -76 -33 -136.5t-93 -95.5t-139 -35t-139 35zM191 380q-45 -47 -45 -128q0 -82 45 -128.5t114 -46.5t114 46.5t45 128.5q0 81 -45 128t-114 47t-114 -47zM447.5 596
q-24.5 -29 -65.5 -29q-25 0 -43.5 9.5t-42.5 28.5q-20 16 -33.5 23.5t-30.5 7.5q-43 0 -43 -63h-58v17q0 57 24 86.5t65 29.5q26 0 44 -9.5t44 -28.5q20 -16 33.5 -23.5t29.5 -7.5q43 0 43 63h58v-18q0 -57 -24.5 -86z" />
    <glyph glyph-name="oe" unicode="&#x153;" horiz-adv-x="1029" 
d="M163 19.5q-59 34.5 -91 95.5t-32 137q0 77 32 137.5t91 95t138 34.5q72 0 123.5 -33t80.5 -92h17q16 59 75 92t135 33t131.5 -32t85 -91t29.5 -136v-40h-407q3 -72 45.5 -109.5t113.5 -37.5q52 0 95.5 20.5t61.5 69.5h102q-28 -89 -97 -133.5t-159 -44.5q-74 0 -129 34.5
t-82 96.5h-17q-24 -62 -76.5 -96.5t-127.5 -34.5q-79 0 -138 34.5zM727 433q-68 0 -109.5 -33t-45.5 -95h304q-9 128 -149 128zM419 123.5q45 46.5 45 128.5q0 81 -45 128t-114 47t-114 -47t-45 -128q0 -82 45 -128.5t114 -46.5t114 46.5z" />
    <glyph glyph-name="p" unicode="p" horiz-adv-x="617" 
d="M478.5 485.5q47.5 -33.5 73 -93.5t25.5 -140t-25.5 -140.5t-72.5 -93.5t-111 -33q-57 0 -102 26.5t-67 79.5l-5 12h-20v-310h-102v711h102v-103h20l5 12q22 52 67.5 79t101.5 27q63 0 110.5 -33.5zM432 127.5q37 50.5 37 123.5q0 74 -37 125t-109 51q-49 0 -83 -25
t-50 -65.5t-16 -85.5t16.5 -85t50 -64.5t82.5 -24.5q72 0 109 50.5z" />
    <glyph glyph-name="thorn" unicode="&#xfe;" horiz-adv-x="627" 
d="M488.5 485.5q47.5 -33.5 73 -93.5t25.5 -140t-25.5 -140.5t-72.5 -93.5t-111 -33q-57 0 -102 26.5t-67 79.5l-5 12h-20v-310h-102v907h102v-299h20l5 12q22 52 67.5 79t101.5 27q63 0 110.5 -33.5zM442 127.5q37 50.5 37 123.5q0 74 -37 125t-109 51q-49 0 -83 -25
t-50 -65.5t-16 -85.5t16.5 -85t50 -64.5t82.5 -24.5q72 0 109 50.5z" />
    <glyph glyph-name="q" unicode="q" horiz-adv-x="617" 
d="M545 504v-711h-102v310h-20l-5 -12q-22 -53 -67 -79.5t-102 -26.5q-64 0 -111 33t-72.5 93.5t-25.5 140.5t25.5 140t73 93.5t110.5 33.5q56 0 101.5 -27t67.5 -79l5 -12h20v103h102zM376.5 101.5q33.5 24.5 50 64.5t16.5 85t-16 85.5t-50 65.5t-83 25q-72 0 -109 -51
t-37 -125q0 -73 37 -123.5t109 -50.5q49 0 82.5 24.5z" />
    <glyph glyph-name="r" unicode="r" horiz-adv-x="429" 
d="M174 504v-109h18l3 10q17 58 58.5 86t96.5 28q21 0 43 -5v-93h-74q-81 0 -113 -56.5t-32 -131.5v-233h-102v504h102z" />
    <glyph glyph-name="racute" unicode="&#x155;" horiz-adv-x="429" 
d="M174 504v-109h18l3 10q17 58 58.5 86t96.5 28q21 0 43 -5v-93h-74q-81 0 -113 -56.5t-32 -131.5v-233h-102v504h102zM263 700h115l-106 -134h-68z" />
    <glyph glyph-name="rcaron" unicode="&#x159;" horiz-adv-x="429" 
d="M174 504v-109h18l3 10q17 58 58.5 86t96.5 28q21 0 43 -5v-93h-74q-81 0 -113 -56.5t-32 -131.5v-233h-102v504h102zM177 559l-79 141h85l46 -85h14l45 85h85l-79 -141h-117z" />
    <glyph glyph-name="uni0157" unicode="&#x157;" horiz-adv-x="429" 
d="M174 504v-109h18l3 10q17 58 58.5 86t96.5 28q21 0 43 -5v-93h-74q-81 0 -113 -56.5t-32 -131.5v-233h-102v504h102zM168 -41l-89 -169h-60l58 169h91z" />
    <glyph glyph-name="s" unicode="s" horiz-adv-x="520" 
d="M187.5 91q29.5 -22 77.5 -22q45 0 71 19t26 53q0 57 -77 68l-78 11q-81 12 -121.5 53.5t-40.5 98.5q0 69 56 108t148 39q98 0 157 -45t69 -132h-103q-15 93 -129 93q-47 0 -72.5 -15.5t-25.5 -45.5q0 -27 20 -44.5t49 -22.5l94 -15q82 -13 118 -54t36 -97
q0 -70 -53.5 -113t-142.5 -43t-149.5 45t-68.5 125h99q11 -42 40.5 -64z" />
    <glyph glyph-name="sacute" unicode="&#x15b;" horiz-adv-x="520" 
d="M187.5 91q29.5 -22 77.5 -22q45 0 71 19t26 53q0 57 -77 68l-78 11q-81 12 -121.5 53.5t-40.5 98.5q0 69 56 108t148 39q98 0 157 -45t69 -132h-103q-15 93 -129 93q-47 0 -72.5 -15.5t-25.5 -45.5q0 -27 20 -44.5t49 -22.5l94 -15q82 -13 118 -54t36 -97
q0 -70 -53.5 -113t-142.5 -43t-149.5 45t-68.5 125h99q11 -42 40.5 -64zM282 696h115l-106 -134h-68z" />
    <glyph glyph-name="scaron" unicode="&#x161;" horiz-adv-x="520" 
d="M187.5 91q29.5 -22 77.5 -22q45 0 71 19t26 53q0 57 -77 68l-78 11q-81 12 -121.5 53.5t-40.5 98.5q0 69 56 108t148 39q98 0 157 -45t69 -132h-103q-15 93 -129 93q-47 0 -72.5 -15.5t-25.5 -45.5q0 -27 20 -44.5t49 -22.5l94 -15q82 -13 118 -54t36 -97
q0 -70 -53.5 -113t-142.5 -43t-149.5 45t-68.5 125h99q11 -42 40.5 -64zM196 555l-79 141h85l46 -85h14l45 85h85l-79 -141h-117z" />
    <glyph glyph-name="scedilla" unicode="&#x15f;" horiz-adv-x="520" 
d="M426 238q36 -41 36 -97q0 -70 -53.5 -113t-142.5 -43h-8l-7 -60h17l2 5q7 22 24 33.5t40 11.5q33 0 55.5 -22.5t22.5 -61.5q0 -49 -32.5 -75t-78.5 -26q-44 0 -74 23t-34 61l56 1q4 -20 18 -30t33 -10q23 0 37.5 13.5t14.5 37.5q0 23 -13 35t-33 12q-32 0 -43 -36l-68 3
l12 91q-67 13 -109.5 55.5t-49.5 108.5h99q11 -42 40.5 -64t77.5 -22q45 0 71 19t26 53q0 57 -77 68l-78 11q-81 12 -121.5 53.5t-40.5 98.5q0 69 56 108t148 39q98 0 157 -45t69 -132h-103q-15 93 -129 93q-47 0 -72.5 -15.5t-25.5 -45.5q0 -27 20 -44.5t49 -22.5l94 -15
q82 -13 118 -54z" />
    <glyph glyph-name="uni0219" unicode="&#x219;" horiz-adv-x="520" 
d="M187.5 91q29.5 -22 77.5 -22q45 0 71 19t26 53q0 57 -77 68l-78 11q-81 12 -121.5 53.5t-40.5 98.5q0 69 56 108t148 39q98 0 157 -45t69 -132h-103q-15 93 -129 93q-47 0 -72.5 -15.5t-25.5 -45.5q0 -27 20 -44.5t49 -22.5l94 -15q82 -13 118 -54t36 -97
q0 -70 -53.5 -113t-142.5 -43t-149.5 45t-68.5 125h99q11 -42 40.5 -64zM305 -41l-89 -169h-60l58 169h91z" />
    <glyph glyph-name="germandbls" unicode="&#xdf;" horiz-adv-x="644" 
d="M157.5 657.5q68.5 57.5 182.5 57.5q115 0 175 -50t60 -132q0 -61 -33.5 -101.5t-89.5 -54.5l-19 -4v-17l18 -2q67 -12 107.5 -54.5t40.5 -107.5q0 -55 -29 -99t-79 -68.5t-111 -24.5h-43v82h23q60 0 94.5 36.5t34.5 86.5q0 51 -39 83t-109 32v81q54 0 89.5 34t35.5 85
q0 47 -32.5 78t-99.5 31q-140 0 -140 -156v-473h-105v467q0 133 68.5 190.5z" />
    <glyph glyph-name="t" unicode="t" horiz-adv-x="406" 
d="M157.5 25q-32.5 40 -32.5 123v277h-99v79h99v112l102 18v-130h138v-79h-138v-256q0 -53 12.5 -76.5t51.5 -23.5q33 0 74 17v-79q-54 -22 -108 -22q-67 0 -99.5 40z" />
    <glyph glyph-name="tbar" unicode="&#x167;" horiz-adv-x="416" 
d="M227 281v-112q0 -53 12.5 -76.5t51.5 -23.5q33 0 74 17v-79q-54 -22 -108 -22q-67 0 -99.5 40t-32.5 123v133h-89v56h89v88h-99v79h99v112l102 18v-130h138v-79h-138v-88h148v-56h-148z" />
    <glyph glyph-name="tcaron" unicode="&#x165;" horiz-adv-x="406" 
d="M157.5 25q-32.5 40 -32.5 123v277h-99v79h99v112l102 18v-130h138v-79h-138v-256q0 -53 12.5 -76.5t51.5 -23.5q33 0 74 17v-79q-54 -22 -108 -22q-67 0 -99.5 40zM456 715l-89 -169h-60l58 169h91z" />
    <glyph glyph-name="uni0163" unicode="&#x163;" horiz-adv-x="406" 
d="M494.5 -40.5q22.5 -22.5 22.5 -61.5q0 -49 -32.5 -75t-78.5 -26q-44 0 -74 23t-34 61l56 1q4 -20 18 -30t33 -10q23 0 37.5 13.5t14.5 37.5q0 23 -13 35t-33 12q-32 0 -43 -36l-68 3l11 83q-30 -5 -54 -5q-67 0 -99.5 40t-32.5 123v277h-99v79h99v112l102 18v-130h138
v-79h-138v-256q0 -53 12.5 -76.5t51.5 -23.5q33 0 74 17v-79l-9 -75h17l2 5q7 22 24 33.5t40 11.5q33 0 55.5 -22.5z" />
    <glyph glyph-name="uni021B" unicode="&#x21b;" horiz-adv-x="406" 
d="M157.5 25q-32.5 40 -32.5 123v277h-99v79h99v112l102 18v-130h138v-79h-138v-256q0 -53 12.5 -76.5t51.5 -23.5q33 0 74 17v-79q-54 -22 -108 -22q-67 0 -99.5 40zM294 -41l-89 -169h-60l58 169h91z" />
    <glyph glyph-name="u" unicode="u" horiz-adv-x="577" 
d="M379 86q-23 -46 -66 -73.5t-99 -27.5q-70 0 -108 43t-38 127v349h102v-311q0 -118 95 -118q63 0 100.5 47t37.5 124v258h102v-504h-102v99h-18z" />
    <glyph glyph-name="uacute" unicode="&#xfa;" horiz-adv-x="577" 
d="M379 86q-23 -46 -66 -73.5t-99 -27.5q-70 0 -108 43t-38 127v349h102v-311q0 -118 95 -118q63 0 100.5 47t37.5 124v258h102v-504h-102v99h-18zM302 700h115l-106 -134h-68z" />
    <glyph glyph-name="uni01D4" unicode="&#x1d4;" horiz-adv-x="577" 
d="M379 86q-23 -46 -66 -73.5t-99 -27.5q-70 0 -108 43t-38 127v349h102v-311q0 -118 95 -118q63 0 100.5 47t37.5 124v258h102v-504h-102v99h-18zM216 559l-79 141h85l46 -85h14l45 85h85l-79 -141h-117z" />
    <glyph glyph-name="ucircumflex" unicode="&#xfb;" horiz-adv-x="577" 
d="M379 86q-23 -46 -66 -73.5t-99 -27.5q-70 0 -108 43t-38 127v349h102v-311q0 -118 95 -118q63 0 100.5 47t37.5 124v258h102v-504h-102v99h-18zM413 563h-85l-45 85h-14l-46 -85h-85l79 141h117z" />
    <glyph glyph-name="udieresis" unicode="&#xfc;" horiz-adv-x="576" 
d="M379 86q-23 -46 -66 -73.5t-99 -27.5q-70 0 -108 43t-38 127v349h102v-311q0 -118 95 -118q63 0 100.5 47t37.5 124v258h102v-504h-102v99h-18zM107 704h103v-134h-103v134zM337 704h104v-134h-104v134z" />
    <glyph glyph-name="uni1EE5" unicode="&#x1ee5;" horiz-adv-x="577" 
d="M379 86q-23 -46 -66 -73.5t-99 -27.5q-70 0 -108 43t-38 127v349h102v-311q0 -118 95 -118q63 0 100.5 47t37.5 124v258h102v-504h-102v99h-18zM216 -76h103v-134h-103v134z" />
    <glyph glyph-name="ugrave" unicode="&#xf9;" horiz-adv-x="577" 
d="M379 86q-23 -46 -66 -73.5t-99 -27.5q-70 0 -108 43t-38 127v349h102v-311q0 -118 95 -118q63 0 100.5 47t37.5 124v258h102v-504h-102v99h-18zM140 700h115l59 -134h-68z" />
    <glyph glyph-name="uhungarumlaut" unicode="&#x171;" horiz-adv-x="560" 
d="M379 86q-23 -46 -66 -73.5t-99 -27.5q-70 0 -108 43t-38 127v349h102v-311q0 -118 95 -118q63 0 100.5 47t37.5 124v258h102v-504h-102v99h-18zM187 700h107l-106 -134h-60zM371 700h107l-106 -134h-60z" />
    <glyph glyph-name="umacron" unicode="&#x16b;" horiz-adv-x="560" 
d="M379 86q-23 -46 -66 -73.5t-99 -27.5q-70 0 -108 43t-38 127v349h102v-311q0 -118 95 -118q63 0 100.5 47t37.5 124v258h102v-504h-102v99h-18zM415 700v-79h-281v79h281z" />
    <glyph glyph-name="uogonek" unicode="&#x173;" horiz-adv-x="577" 
d="M505 504v-504h-11l-32 -16q-67 -30 -67 -81q0 -22 13.5 -33.5t34.5 -11.5t43 13v-65q-37 -14 -65 -14q-41 0 -71 23t-30 66q0 78 107 119h-24v99h-18l-6 -13q-23 -46 -66 -73.5t-99 -27.5q-70 0 -108 43t-38 127v349h102v-311q0 -118 95 -118q63 0 100.5 47t37.5 124v258
h102z" />
    <glyph glyph-name="uring" unicode="&#x16f;" horiz-adv-x="560" 
d="M379 86q-23 -46 -66 -73.5t-99 -27.5q-70 0 -108 43t-38 127v349h102v-311q0 -118 95 -118q63 0 100.5 47t37.5 124v258h102v-504h-102v99h-18zM185 690q32 29 79 29q46 0 77.5 -29t31.5 -75q0 -45 -31.5 -74t-77.5 -29q-47 0 -79 29t-32 74q0 46 32 75zM295.5 647
q-12.5 12 -31.5 12q-20 0 -32.5 -12.5t-12.5 -31.5t12.5 -31t32.5 -12t32 12t12 31q0 20 -12.5 32z" />
    <glyph glyph-name="utilde" unicode="&#x169;" horiz-adv-x="577" 
d="M379 86q-23 -46 -66 -73.5t-99 -27.5q-70 0 -108 43t-38 127v349h102v-311q0 -118 95 -118q63 0 100.5 47t37.5 124v258h102v-504h-102v99h-18zM416.5 600q-24.5 -29 -65.5 -29q-25 0 -43.5 9.5t-42.5 28.5q-20 16 -33.5 23.5t-30.5 7.5q-43 0 -43 -63h-58v17
q0 57 24 86.5t65 29.5q26 0 44 -9.5t44 -28.5q20 -16 33.5 -23.5t29.5 -7.5q43 0 43 63h58v-18q0 -57 -24.5 -86z" />
    <glyph glyph-name="v" unicode="v" horiz-adv-x="537" 
d="M133 504l90 -240q36 -98 38 -155h16q2 57 38 155l90 240h106l-183 -504h-118l-184 504h107z" />
    <glyph glyph-name="w" unicode="w" horiz-adv-x="796" 
d="M629 0h-122l-88 284q-12 51 -12 93h-18q0 -44 -12 -93l-88 -284h-123l-140 504h103l91 -303q6 -25 5.5 -47.5t-0.5 -29.5h17q0 25 1.5 41t6.5 36l95 303h105l93 -298q6 -24 8 -40.5t2 -41.5h18q0 6 -0.5 29t6.5 53l90 298h103z" />
    <glyph glyph-name="wacute" unicode="&#x1e83;" horiz-adv-x="796" 
d="M629 0h-122l-88 284q-12 51 -12 93h-18q0 -44 -12 -93l-88 -284h-123l-140 504h103l91 -303q6 -25 5.5 -47.5t-0.5 -29.5h17q0 25 1.5 41t6.5 36l95 303h105l93 -298q6 -24 8 -40.5t2 -41.5h18q0 6 -0.5 29t6.5 53l90 298h103zM425 700h115l-106 -134h-68z" />
    <glyph glyph-name="wcircumflex" unicode="&#x175;" horiz-adv-x="796" 
d="M629 0h-122l-88 284q-12 51 -12 93h-18q0 -44 -12 -93l-88 -284h-123l-140 504h103l91 -303q6 -25 5.5 -47.5t-0.5 -29.5h17q0 25 1.5 41t6.5 36l95 303h105l93 -298q6 -24 8 -40.5t2 -41.5h18q0 6 -0.5 29t6.5 53l90 298h103zM537 563h-85l-45 85h-14l-46 -85h-85
l79 141h117z" />
    <glyph glyph-name="wdieresis" unicode="&#x1e85;" horiz-adv-x="796" 
d="M629 0h-122l-88 284q-12 51 -12 93h-18q0 -44 -12 -93l-88 -284h-123l-140 504h103l91 -303q6 -25 5.5 -47.5t-0.5 -29.5h17q0 25 1.5 41t6.5 36l95 303h105l93 -298q6 -24 8 -40.5t2 -41.5h18q0 6 -0.5 29t6.5 53l90 298h103zM231 704h103v-134h-103v134zM461 704h104
v-134h-104v134z" />
    <glyph glyph-name="wgrave" unicode="&#x1e81;" horiz-adv-x="796" 
d="M629 0h-122l-88 284q-12 51 -12 93h-18q0 -44 -12 -93l-88 -284h-123l-140 504h103l91 -303q6 -25 5.5 -47.5t-0.5 -29.5h17q0 25 1.5 41t6.5 36l95 303h105l93 -298q6 -24 8 -40.5t2 -41.5h18q0 6 -0.5 29t6.5 53l90 298h103zM263 700h115l59 -134h-68z" />
    <glyph glyph-name="x" unicode="x" horiz-adv-x="552" 
d="M399 0l-80 123q-28 52 -35 91h-16q-4 -19 -10.5 -38.5t-24.5 -52.5l-81 -123h-116l160 251l-160 253h116l78 -118q30 -52 38 -96h16q8 44 38 96l77 118h117l-160 -253l160 -251h-117z" />
    <glyph glyph-name="y" unicode="y" horiz-adv-x="537" 
d="M26 504h107l90 -240q36 -98 38 -155h16q2 57 38 155l90 240h106l-267 -714h-110l80 217z" />
    <glyph glyph-name="yacute" unicode="&#xfd;" horiz-adv-x="537" 
d="M26 504h107l90 -240q36 -98 38 -155h16q2 57 38 155l90 240h106l-267 -714h-110l80 217zM295 700h115l-106 -134h-68z" />
    <glyph glyph-name="ycircumflex" unicode="&#x177;" horiz-adv-x="537" 
d="M26 504h107l90 -240q36 -98 38 -155h16q2 57 38 155l90 240h106l-267 -714h-110l80 217zM406 563h-85l-45 85h-14l-46 -85h-85l79 141h117z" />
    <glyph glyph-name="ydieresis" unicode="&#xff;" horiz-adv-x="537" 
d="M26 504h107l90 -240q36 -98 38 -155h16q2 57 38 155l90 240h106l-267 -714h-110l80 217zM101 704h103v-134h-103v134zM331 704h104v-134h-104v134z" />
    <glyph glyph-name="uni1EF5" unicode="&#x1ef5;" horiz-adv-x="537" 
d="M26 504h107l90 -240q36 -98 38 -155h16q2 57 38 155l90 240h106l-267 -714h-110l80 217zM383 -76h103v-134h-103v134z" />
    <glyph glyph-name="ygrave" unicode="&#x1ef3;" horiz-adv-x="537" 
d="M26 504h107l90 -240q36 -98 38 -155h16q2 57 38 155l90 240h106l-267 -714h-110l80 217zM132 700h115l59 -134h-68z" />
    <glyph glyph-name="uni1EF9" unicode="&#x1ef9;" horiz-adv-x="537" 
d="M26 504h107l90 -240q36 -98 38 -155h16q2 57 38 155l90 240h106l-267 -714h-110l80 217zM409.5 600q-24.5 -29 -65.5 -29q-25 0 -43.5 9.5t-42.5 28.5q-20 16 -33.5 23.5t-30.5 7.5q-43 0 -43 -63h-58v17q0 57 24 86.5t65 29.5q26 0 44 -9.5t44 -28.5q20 -16 33.5 -23.5
t29.5 -7.5q43 0 43 63h58v-18q0 -57 -24.5 -86z" />
    <glyph glyph-name="z" unicode="z" horiz-adv-x="492" 
d="M235 160q-40 -50 -83 -64v-17h290v-79h-392v88l206 254q24 30 45.5 44.5t43.5 20.5v18h-295v79h392v-88z" />
    <glyph glyph-name="zacute" unicode="&#x17a;" horiz-adv-x="492" 
d="M235 160q-40 -50 -83 -64v-17h290v-79h-392v88l206 254q24 30 45.5 44.5t43.5 20.5v18h-295v79h392v-88zM274 700h115l-106 -134h-68z" />
    <glyph glyph-name="zcaron" unicode="&#x17e;" horiz-adv-x="492" 
d="M235 160q-40 -50 -83 -64v-17h290v-79h-392v88l206 254q24 30 45.5 44.5t43.5 20.5v18h-295v79h392v-88zM190 559l-79 141h85l46 -85h14l45 85h85l-79 -141h-117z" />
    <glyph glyph-name="zdotaccent" unicode="&#x17c;" horiz-adv-x="492" 
d="M235 160q-40 -50 -83 -64v-17h290v-79h-392v88l206 254q24 30 45.5 44.5t43.5 20.5v18h-295v79h392v-88zM196 700h103v-134h-103v134z" />
    <glyph glyph-name="a.ss01" horiz-adv-x="618" 
d="M545 504v-504h-102v103h-20l-5 -12q-22 -53 -67 -79.5t-102 -26.5q-64 0 -111 33t-72.5 93.5t-25.5 140.5t25.5 140t73 93.5t110.5 33.5q56 0 101.5 -27t67.5 -79l5 -12h20v103h102zM376.5 101.5q33.5 24.5 50 64.5t16.5 85t-16 85.5t-50 65.5t-83 25q-72 0 -109 -51
t-37 -125q0 -73 37 -123.5t109 -50.5q49 0 82.5 24.5z" />
    <glyph glyph-name="aacute.ss01" horiz-adv-x="618" 
d="M545 504v-504h-102v103h-20l-5 -12q-22 -53 -67 -79.5t-102 -26.5q-64 0 -111 33t-72.5 93.5t-25.5 140.5t25.5 140t73 93.5t110.5 33.5q56 0 101.5 -27t67.5 -79l5 -12h20v103h102zM376.5 101.5q33.5 24.5 50 64.5t16.5 85t-16 85.5t-50 65.5t-83 25q-72 0 -109 -51
t-37 -125q0 -73 37 -123.5t109 -50.5q49 0 82.5 24.5zM327 700h115l-106 -134h-68z" />
    <glyph glyph-name="abreve.ss01" horiz-adv-x="618" 
d="M545 504v-504h-102v103h-20l-5 -12q-22 -53 -67 -79.5t-102 -26.5q-64 0 -111 33t-72.5 93.5t-25.5 140.5t25.5 140t73 93.5t110.5 33.5q56 0 101.5 -27t67.5 -79l5 -12h20v103h102zM376.5 101.5q33.5 24.5 50 64.5t16.5 85t-16 85.5t-50 65.5t-83 25q-72 0 -109 -51
t-37 -125q0 -73 37 -123.5t109 -50.5q49 0 82.5 24.5zM252 648.5q16 -20.5 48 -20.5q31 0 47 21t16 55h72q0 -66 -35.5 -104t-99.5 -38q-65 0 -100.5 38t-35.5 104h72q0 -35 16 -55.5z" />
    <glyph glyph-name="uni01CE.ss01" horiz-adv-x="618" 
d="M545 504v-504h-102v103h-20l-5 -12q-22 -53 -67 -79.5t-102 -26.5q-64 0 -111 33t-72.5 93.5t-25.5 140.5t25.5 140t73 93.5t110.5 33.5q56 0 101.5 -27t67.5 -79l5 -12h20v103h102zM376.5 101.5q33.5 24.5 50 64.5t16.5 85t-16 85.5t-50 65.5t-83 25q-72 0 -109 -51
t-37 -125q0 -73 37 -123.5t109 -50.5q49 0 82.5 24.5zM241 559l-79 141h85l46 -85h14l45 85h85l-79 -141h-117z" />
    <glyph glyph-name="acircumflex.ss01" horiz-adv-x="618" 
d="M545 504v-504h-102v103h-20l-5 -12q-22 -53 -67 -79.5t-102 -26.5q-64 0 -111 33t-72.5 93.5t-25.5 140.5t25.5 140t73 93.5t110.5 33.5q56 0 101.5 -27t67.5 -79l5 -12h20v103h102zM376.5 101.5q33.5 24.5 50 64.5t16.5 85t-16 85.5t-50 65.5t-83 25q-72 0 -109 -51
t-37 -125q0 -73 37 -123.5t109 -50.5q49 0 82.5 24.5zM439 563h-85l-45 85h-14l-46 -85h-85l79 141h117z" />
    <glyph glyph-name="adieresis.ss01" horiz-adv-x="618" 
d="M545 504v-504h-102v103h-20l-5 -12q-22 -53 -67 -79.5t-102 -26.5q-64 0 -111 33t-72.5 93.5t-25.5 140.5t25.5 140t73 93.5t110.5 33.5q56 0 101.5 -27t67.5 -79l5 -12h20v103h102zM376.5 101.5q33.5 24.5 50 64.5t16.5 85t-16 85.5t-50 65.5t-83 25q-72 0 -109 -51
t-37 -125q0 -73 37 -123.5t109 -50.5q49 0 82.5 24.5zM133 704h103v-134h-103v134zM363 704h104v-134h-104v134z" />
    <glyph glyph-name="uni1EA1.ss01" horiz-adv-x="618" 
d="M545 504v-504h-102v103h-20l-5 -12q-22 -53 -67 -79.5t-102 -26.5q-64 0 -111 33t-72.5 93.5t-25.5 140.5t25.5 140t73 93.5t110.5 33.5q56 0 101.5 -27t67.5 -79l5 -12h20v103h102zM376.5 101.5q33.5 24.5 50 64.5t16.5 85t-16 85.5t-50 65.5t-83 25q-72 0 -109 -51
t-37 -125q0 -73 37 -123.5t109 -50.5q49 0 82.5 24.5zM250 -76h103v-134h-103v134z" />
    <glyph glyph-name="agrave.ss01" horiz-adv-x="618" 
d="M545 504v-504h-102v103h-20l-5 -12q-22 -53 -67 -79.5t-102 -26.5q-64 0 -111 33t-72.5 93.5t-25.5 140.5t25.5 140t73 93.5t110.5 33.5q56 0 101.5 -27t67.5 -79l5 -12h20v103h102zM376.5 101.5q33.5 24.5 50 64.5t16.5 85t-16 85.5t-50 65.5t-83 25q-72 0 -109 -51
t-37 -125q0 -73 37 -123.5t109 -50.5q49 0 82.5 24.5zM165 700h115l59 -134h-68z" />
    <glyph glyph-name="amacron.ss01" horiz-adv-x="618" 
d="M545 504v-504h-102v103h-20l-5 -12q-22 -53 -67 -79.5t-102 -26.5q-64 0 -111 33t-72.5 93.5t-25.5 140.5t25.5 140t73 93.5t110.5 33.5q56 0 101.5 -27t67.5 -79l5 -12h20v103h102zM376.5 101.5q33.5 24.5 50 64.5t16.5 85t-16 85.5t-50 65.5t-83 25q-72 0 -109 -51
t-37 -125q0 -73 37 -123.5t109 -50.5q49 0 82.5 24.5zM440 700v-79h-281v79h281z" />
    <glyph glyph-name="aogonek.ss01" horiz-adv-x="618" 
d="M446 -97q0 -22 13.5 -33.5t34.5 -11.5t43 13v-65q-37 -14 -65 -14q-41 0 -71 23t-30 66q0 78 107 119h-35v103h-20l-5 -12q-22 -53 -67 -79.5t-102 -26.5q-64 0 -111 33t-72.5 93.5t-25.5 140.5t25.5 140t73 93.5t110.5 33.5q56 0 101.5 -27t67.5 -79l5 -12h20v103h102
v-504l-32 -16q-67 -30 -67 -81zM376.5 101.5q33.5 24.5 50 64.5t16.5 85t-16 85.5t-50 65.5t-83 25q-72 0 -109 -51t-37 -125q0 -73 37 -123.5t109 -50.5q49 0 82.5 24.5z" />
    <glyph glyph-name="aring.ss01" horiz-adv-x="618" 
d="M545 504v-504h-102v103h-20l-5 -12q-22 -53 -67 -79.5t-102 -26.5q-64 0 -111 33t-72.5 93.5t-25.5 140.5q0 115 51.5 187t139.5 79q-20 14 -31 35t-11 47q0 46 32 75t79 29q46 0 77.5 -29t31.5 -75q0 -36 -21 -62.5t-55 -36.5q58 -25 85 -88l5 -12h20v103h102z
M267.5 631.5q-12.5 -12.5 -12.5 -31.5t12.5 -31t32.5 -12t32 12t12 31q0 20 -12 32t-32 12t-32.5 -12.5zM376.5 101.5q33.5 24.5 50 64.5t16.5 85t-16 85.5t-50 65.5t-83 25q-72 0 -109 -51t-37 -125q0 -73 37 -123.5t109 -50.5q49 0 82.5 24.5z" />
    <glyph glyph-name="atilde.ss01" horiz-adv-x="618" 
d="M545 504v-504h-102v103h-20l-5 -12q-22 -53 -67 -79.5t-102 -26.5q-64 0 -111 33t-72.5 93.5t-25.5 140.5t25.5 140t73 93.5t110.5 33.5q56 0 101.5 -27t67.5 -79l5 -12h20v103h102zM376.5 101.5q33.5 24.5 50 64.5t16.5 85t-16 85.5t-50 65.5t-83 25q-72 0 -109 -51
t-37 -125q0 -73 37 -123.5t109 -50.5q49 0 82.5 24.5zM442.5 600q-24.5 -29 -65.5 -29q-25 0 -43.5 9.5t-42.5 28.5q-20 16 -33.5 23.5t-30.5 7.5q-43 0 -43 -63h-58v17q0 57 24 86.5t65 29.5q26 0 44 -9.5t44 -28.5q20 -16 33.5 -23.5t29.5 -7.5q43 0 43 63h58v-18
q0 -57 -24.5 -86z" />
    <glyph glyph-name="g.ss01" horiz-adv-x="617" 
d="M545 504v-516q0 -95 -61.5 -146.5t-170.5 -51.5q-106 0 -170 47t-65 129h102q7 -100 133 -100q130 0 130 122v115h-20l-5 -12q-22 -53 -67 -79.5t-102 -26.5q-64 0 -111 33t-72.5 93.5t-25.5 140.5t25.5 140t73 93.5t110.5 33.5q56 0 101.5 -27t67.5 -79l5 -12h20v103
h102zM376.5 101.5q33.5 24.5 50 64.5t16.5 85t-16 85.5t-50 65.5t-83 25q-72 0 -109 -51t-37 -125q0 -73 37 -123.5t109 -50.5q49 0 82.5 24.5z" />
    <glyph glyph-name="gbreve.ss01" horiz-adv-x="617" 
d="M545 504v-516q0 -95 -61.5 -146.5t-170.5 -51.5q-106 0 -170 47t-65 129h102q7 -100 133 -100q130 0 130 122v115h-20l-5 -12q-22 -53 -67 -79.5t-102 -26.5q-64 0 -111 33t-72.5 93.5t-25.5 140.5t25.5 140t73 93.5t110.5 33.5q56 0 101.5 -27t67.5 -79l5 -12h20v103
h102zM376.5 101.5q33.5 24.5 50 64.5t16.5 85t-16 85.5t-50 65.5t-83 25q-72 0 -109 -51t-37 -125q0 -73 37 -123.5t109 -50.5q49 0 82.5 24.5zM264 648.5q16 -20.5 48 -20.5q31 0 47 21t16 55h72q0 -66 -35.5 -104t-99.5 -38q-65 0 -100.5 38t-35.5 104h72q0 -35 16 -55.5z
" />
    <glyph glyph-name="gcaron.ss01" horiz-adv-x="617" 
d="M545 504v-516q0 -95 -61.5 -146.5t-170.5 -51.5q-106 0 -170 47t-65 129h102q7 -100 133 -100q130 0 130 122v115h-20l-5 -12q-22 -53 -67 -79.5t-102 -26.5q-64 0 -111 33t-72.5 93.5t-25.5 140.5t25.5 140t73 93.5t110.5 33.5q56 0 101.5 -27t67.5 -79l5 -12h20v103
h102zM376.5 101.5q33.5 24.5 50 64.5t16.5 85t-16 85.5t-50 65.5t-83 25q-72 0 -109 -51t-37 -125q0 -73 37 -123.5t109 -50.5q49 0 82.5 24.5zM253 559l-79 141h85l46 -85h14l45 85h85l-79 -141h-117z" />
    <glyph glyph-name="uni0123.ss01" horiz-adv-x="617" 
d="M545 504v-516q0 -95 -61.5 -146.5t-170.5 -51.5q-106 0 -170 47t-65 129h102q7 -100 133 -100q130 0 130 122v115h-20l-5 -12q-22 -53 -67 -79.5t-102 -26.5q-64 0 -111 33t-72.5 93.5t-25.5 140.5t25.5 140t73 93.5t110.5 33.5q56 0 101.5 -27t67.5 -79l5 -12h20v103
h102zM376.5 101.5q33.5 24.5 50 64.5t16.5 85t-16 85.5t-50 65.5t-83 25q-72 0 -109 -51t-37 -125q0 -73 37 -123.5t109 -50.5q49 0 82.5 24.5zM348 754q-18 0 -25 -7.5t-7 -29.5v-32h46v-130h-103v157q0 46 18 68t63 22h22v-48h-14z" />
    <glyph glyph-name="gdotaccent.ss01" horiz-adv-x="617" 
d="M545 504v-516q0 -95 -61.5 -146.5t-170.5 -51.5q-106 0 -170 47t-65 129h102q7 -100 133 -100q130 0 130 122v115h-20l-5 -12q-22 -53 -67 -79.5t-102 -26.5q-64 0 -111 33t-72.5 93.5t-25.5 140.5t25.5 140t73 93.5t110.5 33.5q56 0 101.5 -27t67.5 -79l5 -12h20v103
h102zM376.5 101.5q33.5 24.5 50 64.5t16.5 85t-16 85.5t-50 65.5t-83 25q-72 0 -109 -51t-37 -125q0 -73 37 -123.5t109 -50.5q49 0 82.5 24.5zM260 704h103v-134h-103v134z" />
    <glyph glyph-name="l.ss01" horiz-adv-x="267" 
d="M82 0v700h102v-700h-102z" />
    <glyph glyph-name="lacute.ss01" horiz-adv-x="267" 
d="M82 0v700h102v-700h-102zM161 896h115l-106 -134h-68z" />
    <glyph glyph-name="lcaron.ss01" horiz-adv-x="334" 
d="M82 0v700h102v-700h-102zM392 700l-89 -169h-60l58 169h91z" />
    <glyph glyph-name="uni013C.ss01" horiz-adv-x="267" 
d="M82 0v700h102v-700h-102zM179 -41l-89 -169h-60l58 169h91z" />
    <glyph glyph-name="lslash.ss01" horiz-adv-x="267" 
d="M254 439v-67l-70 -30v-342h-102v298l-70 -30v67l70 30v335h102v-291z" />
    <glyph glyph-name="y.ss01" horiz-adv-x="540" 
d="M98 -130q40 0 57 16t31 55l24 68l-181 495h107l90 -240q36 -98 38 -155h16q4 62 38 155l90 240h106l-198 -543q-22 -63 -44.5 -98.5t-57.5 -54t-90 -18.5h-85v80h59z" />
    <glyph glyph-name="yacute.ss01" horiz-adv-x="522" 
d="M98 -130q40 0 57 16t31 55l24 68l-181 495h107l90 -240q36 -98 38 -155h16q4 62 38 155l90 240h106l-198 -543q-22 -63 -44.5 -98.5t-57.5 -54t-90 -18.5h-85v80h59zM280 700h115l-106 -134h-68z" />
    <glyph glyph-name="ycircumflex.ss01" horiz-adv-x="522" 
d="M98 -130q40 0 57 16t31 55l24 68l-181 495h107l90 -240q36 -98 38 -155h16q4 62 38 155l90 240h106l-198 -543q-22 -63 -44.5 -98.5t-57.5 -54t-90 -18.5h-85v80h59zM411 563h-85l-45 85h-14l-46 -85h-85l79 141h117z" />
    <glyph glyph-name="ydieresis.ss01" horiz-adv-x="522" 
d="M98 -130q40 0 57 16t31 55l24 68l-181 495h107l90 -240q36 -98 38 -155h16q4 62 38 155l90 240h106l-198 -543q-22 -63 -44.5 -98.5t-57.5 -54t-90 -18.5h-85v80h59zM104 704h103v-134h-103v134zM334 704h104v-134h-104v134z" />
    <glyph glyph-name="ygrave.ss01" horiz-adv-x="522" 
d="M98 -130q40 0 57 16t31 55l24 68l-181 495h107l90 -240q36 -98 38 -155h16q4 62 38 155l90 240h106l-198 -543q-22 -63 -44.5 -98.5t-57.5 -54t-90 -18.5h-85v80h59zM164 700h115l59 -134h-68z" />
    <glyph glyph-name="uni1EF9.ss01" horiz-adv-x="540" 
d="M98 -130q40 0 57 16t31 55l24 68l-181 495h107l90 -240q36 -98 38 -155h16q4 62 38 155l90 240h106l-198 -543q-22 -63 -44.5 -98.5t-57.5 -54t-90 -18.5h-85v80h59zM413.5 600q-24.5 -29 -65.5 -29q-25 0 -43.5 9.5t-42.5 28.5q-20 16 -33.5 23.5t-30.5 7.5
q-43 0 -43 -63h-58v17q0 57 24 86.5t65 29.5q26 0 44 -9.5t44 -28.5q20 -16 33.5 -23.5t29.5 -7.5q43 0 43 63h58v-18q0 -57 -24.5 -86z" />
    <glyph glyph-name="a.ss02" horiz-adv-x="613" 
d="M130 4q-37 19 -59 54.5t-22 83.5q0 76 56.5 123.5t151.5 49.5l160 4v2q0 58 -36 83t-95 25q-55 0 -92 -21.5t-40 -74.5h-103q1 89 65 137.5t171 48.5q108 0 167.5 -51.5t64.5 -146.5v-172q0 -38 13.5 -54t44.5 -16h10v-79h-39q-55 0 -87.5 25.5t-40.5 67.5l-3 16h-14
q-24 -56 -77.5 -90t-114.5 -34q-44 0 -81 19zM338 91q37 23 58 61t21 81v11l-132 -2q-54 -1 -93.5 -22t-39.5 -68q0 -39 29 -61.5t74 -22.5q46 0 83 23z" />
    <glyph glyph-name="aacute.ss02" horiz-adv-x="613" 
d="M130 4q-37 19 -59 54.5t-22 83.5q0 76 56.5 123.5t151.5 49.5l160 4v2q0 58 -36 83t-95 25q-55 0 -92 -21.5t-40 -74.5h-103q1 89 65 137.5t171 48.5q108 0 167.5 -51.5t64.5 -146.5v-172q0 -38 13.5 -54t44.5 -16h10v-79h-39q-55 0 -87.5 25.5t-40.5 67.5l-3 16h-14
q-24 -56 -77.5 -90t-114.5 -34q-44 0 -81 19zM338 91q37 23 58 61t21 81v11l-132 -2q-54 -1 -93.5 -22t-39.5 -68q0 -39 29 -61.5t74 -22.5q46 0 83 23zM323 700h115l-106 -134h-68z" />
    <glyph glyph-name="abreve.ss02" horiz-adv-x="613" 
d="M130 4q-37 19 -59 54.5t-22 83.5q0 76 56.5 123.5t151.5 49.5l160 4v2q0 58 -36 83t-95 25q-55 0 -92 -21.5t-40 -74.5h-103q1 89 65 137.5t171 48.5q108 0 167.5 -51.5t64.5 -146.5v-172q0 -38 13.5 -54t44.5 -16h10v-79h-39q-55 0 -87.5 25.5t-40.5 67.5l-3 16h-14
q-24 -56 -77.5 -90t-114.5 -34q-44 0 -81 19zM338 91q37 23 58 61t21 81v11l-132 -2q-54 -1 -93.5 -22t-39.5 -68q0 -39 29 -61.5t74 -22.5q46 0 83 23zM248 648.5q16 -20.5 48 -20.5q31 0 47 21t16 55h72q0 -66 -35.5 -104t-99.5 -38q-65 0 -100.5 38t-35.5 104h72
q0 -35 16 -55.5z" />
    <glyph glyph-name="uni01CE.ss02" horiz-adv-x="613" 
d="M130 4q-37 19 -59 54.5t-22 83.5q0 76 56.5 123.5t151.5 49.5l160 4v2q0 58 -36 83t-95 25q-55 0 -92 -21.5t-40 -74.5h-103q1 89 65 137.5t171 48.5q108 0 167.5 -51.5t64.5 -146.5v-172q0 -38 13.5 -54t44.5 -16h10v-79h-39q-55 0 -87.5 25.5t-40.5 67.5l-3 16h-14
q-24 -56 -77.5 -90t-114.5 -34q-44 0 -81 19zM338 91q37 23 58 61t21 81v11l-132 -2q-54 -1 -93.5 -22t-39.5 -68q0 -39 29 -61.5t74 -22.5q46 0 83 23zM237 559l-79 141h85l46 -85h14l45 85h85l-79 -141h-117z" />
    <glyph glyph-name="acircumflex.ss02" horiz-adv-x="613" 
d="M130 4q-37 19 -59 54.5t-22 83.5q0 76 56.5 123.5t151.5 49.5l160 4v2q0 58 -36 83t-95 25q-55 0 -92 -21.5t-40 -74.5h-103q1 89 65 137.5t171 48.5q108 0 167.5 -51.5t64.5 -146.5v-172q0 -38 13.5 -54t44.5 -16h10v-79h-39q-55 0 -87.5 25.5t-40.5 67.5l-3 16h-14
q-24 -56 -77.5 -90t-114.5 -34q-44 0 -81 19zM338 91q37 23 58 61t21 81v11l-132 -2q-54 -1 -93.5 -22t-39.5 -68q0 -39 29 -61.5t74 -22.5q46 0 83 23zM435 563h-85l-45 85h-14l-46 -85h-85l79 141h117z" />
    <glyph glyph-name="adieresis.ss02" horiz-adv-x="613" 
d="M130 4q-37 19 -59 54.5t-22 83.5q0 76 56.5 123.5t151.5 49.5l160 4v2q0 58 -36 83t-95 25q-55 0 -92 -21.5t-40 -74.5h-103q1 89 65 137.5t171 48.5q108 0 167.5 -51.5t64.5 -146.5v-172q0 -38 13.5 -54t44.5 -16h10v-79h-39q-55 0 -87.5 25.5t-40.5 67.5l-3 16h-14
q-24 -56 -77.5 -90t-114.5 -34q-44 0 -81 19zM338 91q37 23 58 61t21 81v11l-132 -2q-54 -1 -93.5 -22t-39.5 -68q0 -39 29 -61.5t74 -22.5q46 0 83 23zM129 704h103v-134h-103v134zM359 704h104v-134h-104v134z" />
    <glyph glyph-name="uni1EA1.ss02" horiz-adv-x="613" 
d="M130 4q-37 19 -59 54.5t-22 83.5q0 76 56.5 123.5t151.5 49.5l160 4v2q0 58 -36 83t-95 25q-55 0 -92 -21.5t-40 -74.5h-103q1 89 65 137.5t171 48.5q108 0 167.5 -51.5t64.5 -146.5v-172q0 -38 13.5 -54t44.5 -16h10v-79h-39q-55 0 -87.5 25.5t-40.5 67.5l-3 16h-14
q-24 -56 -77.5 -90t-114.5 -34q-44 0 -81 19zM338 91q37 23 58 61t21 81v11l-132 -2q-54 -1 -93.5 -22t-39.5 -68q0 -39 29 -61.5t74 -22.5q46 0 83 23zM238 -76h103v-134h-103v134z" />
    <glyph glyph-name="agrave.ss02" horiz-adv-x="613" 
d="M130 4q-37 19 -59 54.5t-22 83.5q0 76 56.5 123.5t151.5 49.5l160 4v2q0 58 -36 83t-95 25q-55 0 -92 -21.5t-40 -74.5h-103q1 89 65 137.5t171 48.5q108 0 167.5 -51.5t64.5 -146.5v-172q0 -38 13.5 -54t44.5 -16h10v-79h-39q-55 0 -87.5 25.5t-40.5 67.5l-3 16h-14
q-24 -56 -77.5 -90t-114.5 -34q-44 0 -81 19zM338 91q37 23 58 61t21 81v11l-132 -2q-54 -1 -93.5 -22t-39.5 -68q0 -39 29 -61.5t74 -22.5q46 0 83 23zM161 700h115l59 -134h-68z" />
    <glyph glyph-name="amacron.ss02" horiz-adv-x="613" 
d="M130 4q-37 19 -59 54.5t-22 83.5q0 76 56.5 123.5t151.5 49.5l160 4v2q0 58 -36 83t-95 25q-55 0 -92 -21.5t-40 -74.5h-103q1 89 65 137.5t171 48.5q108 0 167.5 -51.5t64.5 -146.5v-172q0 -38 13.5 -54t44.5 -16h10v-79h-39q-55 0 -87.5 25.5t-40.5 67.5l-3 16h-14
q-24 -56 -77.5 -90t-114.5 -34q-44 0 -81 19zM338 91q37 23 58 61t21 81v11l-132 -2q-54 -1 -93.5 -22t-39.5 -68q0 -39 29 -61.5t74 -22.5q46 0 83 23zM436 700v-79h-281v79h281z" />
    <glyph glyph-name="aogonek.ss02" horiz-adv-x="613" 
d="M488 -97q0 -22 13.5 -33.5t34.5 -11.5t43 13v-65q-37 -14 -65 -14q-41 0 -71 23t-30 66q0 78 110 120q-44 6 -70 30.5t-33 61.5l-3 16h-14q-24 -56 -77.5 -90t-114.5 -34q-44 0 -81 19t-59 54.5t-22 83.5q0 76 56.5 123.5t151.5 49.5l160 4v2q0 58 -36 83t-95 25
q-55 0 -92 -21.5t-40 -74.5h-103q1 89 65 137.5t171 48.5q108 0 167.5 -51.5t64.5 -146.5v-172q0 -38 13.5 -54t44.5 -16h10v-79l-32 -16q-67 -30 -67 -81zM417 244l-132 -2q-54 -1 -93.5 -22t-39.5 -68q0 -39 29 -61.5t74 -22.5q46 0 83 23t58 61t21 81v11z" />
    <glyph glyph-name="aring.ss02" horiz-adv-x="613" 
d="M587 79v-79h-39q-55 0 -87.5 25.5t-40.5 67.5l-3 16h-14q-24 -56 -77.5 -90t-114.5 -34q-44 0 -81 19t-59 54.5t-22 83.5q0 76 56.5 123.5t151.5 49.5l160 4v2q0 58 -36 83t-95 25q-55 0 -92 -21.5t-40 -74.5h-103q1 77 49 124t131 58q-22 14 -34 36t-12 49q0 46 32 75
t79 29q46 0 77.5 -29t31.5 -75q0 -29 -13 -51.5t-36 -35.5q76 -15 117.5 -64t45.5 -128v-172q0 -38 13.5 -54t44.5 -16h10zM263.5 631.5q-12.5 -12.5 -12.5 -31.5t12.5 -31t32.5 -12t32 12t12 31q0 20 -12 32t-32 12t-32.5 -12.5zM417 244l-132 -2q-54 -1 -93.5 -22
t-39.5 -68q0 -39 29 -61.5t74 -22.5q46 0 83 23t58 61t21 81v11z" />
    <glyph glyph-name="atilde.ss02" horiz-adv-x="613" 
d="M130 4q-37 19 -59 54.5t-22 83.5q0 76 56.5 123.5t151.5 49.5l160 4v2q0 58 -36 83t-95 25q-55 0 -92 -21.5t-40 -74.5h-103q1 89 65 137.5t171 48.5q108 0 167.5 -51.5t64.5 -146.5v-172q0 -38 13.5 -54t44.5 -16h10v-79h-39q-55 0 -87.5 25.5t-40.5 67.5l-3 16h-14
q-24 -56 -77.5 -90t-114.5 -34q-44 0 -81 19zM338 91q37 23 58 61t21 81v11l-132 -2q-54 -1 -93.5 -22t-39.5 -68q0 -39 29 -61.5t74 -22.5q46 0 83 23zM438.5 600q-24.5 -29 -65.5 -29q-25 0 -43.5 9.5t-42.5 28.5q-20 16 -33.5 23.5t-30.5 7.5q-43 0 -43 -63h-58v17
q0 57 24 86.5t65 29.5q26 0 44 -9.5t44 -28.5q20 -16 33.5 -23.5t29.5 -7.5q43 0 43 63h58v-18q0 -57 -24.5 -86z" />
    <glyph glyph-name="f.ss02" horiz-adv-x="396" 
d="M136.5 380q16.5 20 52.5 27l12 3v15h-175v79h99v52q0 74 34.5 109t102.5 35h93v-73h-51q-44 0 -62.5 -20t-18.5 -59v-44h132v-79h-142v-425h-93v322q0 38 16.5 58z" />
    <glyph glyph-name="t.ss02" horiz-adv-x="386" 
d="M159 38q-34 38 -34 117v270h-99v79h157v15l-7 1q-28 5 -44.5 18.5t-16.5 44.5v47h102v-126h128v-79h-122v-252q0 -100 79 -100h43v-73h-83q-69 0 -103 38z" />
    <glyph glyph-name="f_f_j" horiz-adv-x="1039" 
d="M967 -53q0 -80 -35.5 -118t-118.5 -38h-65v77h47q70 0 70 85v472h-250v-425h-98v425h-294v-425h-98v425h-99v79h99v68q0 76 35.5 109.5t96.5 33.5q53 0 110 -22v-74q-42 19 -79 19q-32 0 -48.5 -17.5t-16.5 -55.5v-61h294v68q0 76 35.5 109.5t96.5 33.5q53 0 110 -22v-74
q-42 19 -79 19q-32 0 -48.5 -17.5t-16.5 -55.5v-61h352v-557zM855 700h122v-134h-122v134z" />
    <glyph glyph-name="f_j" horiz-adv-x="647" 
d="M575 -53q0 -80 -35.5 -118t-118.5 -38h-65v77h47q70 0 70 85v472h-250v-425h-98v425h-99v79h99v68q0 76 35.5 109.5t96.5 33.5q53 0 110 -22v-74q-42 19 -79 19q-32 0 -48.5 -17.5t-16.5 -55.5v-61h352v-557zM463 700h122v-134h-122v134z" />
    <glyph glyph-name="f_t" horiz-adv-x="804" 
d="M619 425v-256q0 -53 12.5 -76.5t51.5 -23.5q33 0 74 17v-79q-54 -22 -108 -22q-67 0 -99.5 40t-32.5 123v277h-294v-425h-98v425h-99v79h99v68q0 76 35.5 109.5t96.5 33.5q53 0 110 -22v-74q-42 19 -79 19q-32 0 -48.5 -17.5t-16.5 -55.5v-61h294v112l102 18v-130h138
v-79h-138z" />
    <glyph glyph-name="idieresis_idieresis" horiz-adv-x="549" 
d="M-6 570v134h103v-134h-103zM224 570v134h103v-134h-103zM455 704h103v-134h-103v134zM108 0v504h102v-504h-102zM338 0v504h102v-504h-102z" />
    <glyph glyph-name="t_f" horiz-adv-x="791" 
d="M622.5 620.5q-16.5 -17.5 -16.5 -55.5v-61h144v-79h-144v-425h-99v425h-280v-256q0 -53 12.5 -76.5t51.5 -23.5q33 0 74 17v-79q-54 -22 -108 -22q-67 0 -99.5 40t-32.5 123v277h-99v79h99v112l102 18v-130h280v68q0 143 133 143q53 0 110 -22v-74q-42 19 -79 19
q-32 0 -48.5 -17.5z" />
    <glyph glyph-name="t_i" horiz-adv-x="614" 
d="M429 700h122v-134h-122v134zM541 0h-102v425h-212v-256q0 -53 12.5 -76.5t51.5 -23.5q33 0 74 17v-79q-54 -22 -108 -22q-67 0 -99.5 40t-32.5 123v277h-99v79h99v112l102 18v-130h314v-504z" />
    <glyph glyph-name="t_t" horiz-adv-x="795" 
d="M610 425v-256q0 -53 12.5 -76.5t51.5 -23.5q33 0 74 17v-79q-54 -22 -108 -22q-67 0 -99.5 40t-32.5 123v277h-281v-256q0 -53 12.5 -76.5t51.5 -23.5q33 0 74 17v-79q-54 -22 -108 -22q-67 0 -99.5 40t-32.5 123v277h-99v79h99v112l102 18v-130h281v112l102 18v-130h138
v-79h-138z" />
    <glyph glyph-name="t_u" horiz-adv-x="943" 
d="M872 504v-504h-102v99h-18l-6 -13q-23 -46 -66 -73.5t-99 -27.5q-70 0 -108 43t-38 127v270h-208v-256q0 -53 12.5 -76.5t51.5 -23.5q33 0 74 17v-79q-54 -22 -108 -22q-67 0 -99.5 40t-32.5 123v277h-99v79h99v112l102 18v-130h310v-311q0 -118 95 -118q63 0 100.5 47
t37.5 124v258h102z" />
    <glyph glyph-name="t_y" horiz-adv-x="907" 
d="M881 504l-198 -543q-22 -63 -44.5 -98.5t-57.5 -54t-90 -18.5h-85v80h59q40 0 57 16t31 55l24 68l-152 416h-198v-256q0 -53 12.5 -76.5t51.5 -23.5q33 0 74 17v-79q-54 -22 -108 -22q-67 0 -99.5 40t-32.5 123v277h-99v79h99v112l102 18v-130h276l90 -240
q36 -98 38 -155h16q2 57 38 155l90 240h106z" />
    <glyph glyph-name="w_w_w" horiz-adv-x="1458" 
d="M129 504l91 -303q6 -25 5.5 -47.5t-0.5 -29.5h17q0 25 1.5 41t6.5 36l95 303h105l93 -298q6 -24 8 -40.5t2 -41.5h18q0 6 -0.5 29t6.5 53l90 298h124l90 -303q6 -22 6 -46l-1 -31h18q0 25 1.5 41t6.5 36l94 303h106l93 -298q6 -24 8 -40.5t2 -41.5h18q0 6 -0.5 29t6.5 53
l90 298h103l-141 -504h-123l-87 284q-12 51 -12 93h-18q0 -44 -12 -93l-88 -284h-116l-85 284q-12 51 -12 93h-18q0 -49 -12 -93l-84 -284h-117l-88 284q-12 51 -12 93h-18q0 -44 -12 -93l-88 -284h-123l-140 504h103z" />
    <glyph glyph-name="ordfeminine" unicode="&#xaa;" horiz-adv-x="447" 
d="M81 350q-35 32 -35 86q0 57 42.5 92.5t113.5 36.5l120 3v2q0 43 -27 62t-71 19q-95 0 -99 -72h-78q1 67 49 103t128 36q81 0 126 -38.5t48 -109.5v-129q0 -29 10 -41t34 -12h7v-59h-29q-42 0 -66 19t-30 51l-2 12h-11q-18 -42 -58 -67.5t-86 -25.5q-51 0 -86 32zM262 397
q28 17 44 46t16 61v8l-99 -1q-41 -1 -70.5 -16.5t-29.5 -51.5q0 -29 22 -46t55 -17q34 0 62 17z" />
    <glyph glyph-name="ordmasculine" unicode="&#xba;" horiz-adv-x="448" 
d="M133.5 344q-45.5 26 -70 71.5t-24.5 102.5q0 58 24.5 103.5t70 71t104.5 25.5t104.5 -25.5t70 -71t24.5 -103.5q0 -57 -24.5 -102.5t-70 -71.5t-104.5 -26t-104.5 26zM152.5 614q-33.5 -35 -33.5 -96t33.5 -96t85.5 -35t85.5 35t33.5 96t-33.5 96t-85.5 35t-85.5 -35z
" />
    <glyph glyph-name="zero" unicode="0" horiz-adv-x="678" 
d="M177.5 35q-64.5 48 -95 130t-30.5 185t30.5 185.5t95 130.5t161.5 48t161 -48t94.5 -130t30.5 -186q0 -103 -30.5 -185t-94.5 -130t-161 -48t-161.5 48zM204 548q-44 -72 -44 -198t44 -197.5t135 -71.5q92 0 135.5 71.5t43.5 197.5q0 127 -43.5 198.5t-135.5 71.5
q-91 0 -135 -72z" />
    <glyph glyph-name="one" unicode="1" horiz-adv-x="444" 
d="M226 553l-4 -8q-18 -39 -52 -58.5t-96 -19.5h-24v98h33q129 0 152 135h110v-700h-102v553h-17z" />
    <glyph glyph-name="two" unicode="2" horiz-adv-x="578" 
d="M262 260q84 76 127 133.5t43 121.5q0 53 -34 84.5t-94 31.5q-68 0 -109 -38.5t-41 -106.5h-102q0 70 31.5 122t88.5 79.5t131 27.5q65 0 117.5 -22.5t83.5 -68t31 -110.5q0 -92 -59 -166t-164 -148l-106 -97v-13h305v-90h-435v96z" />
    <glyph glyph-name="three" unicode="3" horiz-adv-x="583" 
d="M185 108q39 -36 105 -36q62 0 103.5 32t41.5 88q0 57 -49 88.5t-117 31.5h-62v91h57q57 0 109.5 22.5t52.5 88.5q0 51 -36.5 85t-99.5 34q-65 0 -102.5 -36.5t-40.5 -100.5h-102q4 103 72 161t178 58q70 0 124 -23.5t84.5 -66.5t30.5 -101q0 -60 -34.5 -99.5t-96.5 -52.5
l-15 -2v-18l15 -3q64 -13 102 -56.5t38 -109.5q0 -59 -33.5 -104.5t-91.5 -70t-128 -24.5q-71 0 -127 28t-88 78.5t-35 114.5h102q4 -61 43 -97z" />
    <glyph glyph-name="four" unicode="4" horiz-adv-x="662" 
d="M622 233v-86h-104v-147h-106v147h-372v108l330 445h148v-467h104zM362 539l-166 -232q-19 -28 -33.5 -40.5t-28.5 -16.5v-17h278v382h-17q-7 -39 -33 -76z" />
    <glyph glyph-name="five" unicode="5" horiz-adv-x="626" 
d="M196 110q40 -43 107 -43q71 0 113.5 44.5t42.5 128.5t-39.5 126.5t-101.5 42.5q-55 0 -90 -29.5t-48 -76.5h-105l1 397h446v-90h-357v-220h17l8 12q27 47 71.5 68t96.5 21q95 0 152 -64t57 -179q0 -79 -31.5 -138.5t-91 -92.5t-142.5 -33q-75 0 -131.5 29.5t-87.5 83.5
t-32 126h101q4 -70 44 -113z" />
    <glyph glyph-name="six" unicode="6" horiz-adv-x="594" 
d="M103.5 607.5q63.5 107.5 210.5 107.5q99 0 160 -54t75 -144h-106q-5 43 -36 79.5t-94 36.5q-80 0 -121.5 -72.5t-43.5 -186.5h17l4 10q25 54 71 79.5t104 25.5q97 0 152.5 -65t55.5 -172q0 -82 -31 -142.5t-88 -92.5t-133 -32q-134 0 -197 96.5t-63 247.5
q0 171 63.5 278.5zM192 361.5q-40 -44.5 -40 -120.5q0 -77 41 -124.5t108 -47.5t106 46.5t39 123.5t-39.5 122t-106.5 45q-68 0 -108 -44.5z" />
    <glyph glyph-name="seven" unicode="7" horiz-adv-x="561" 
d="M386 550q23 27 51 38l9 3v18h-406v90h481v-100l-280 -599h-115l212 468q25 55 48 82z" />
    <glyph glyph-name="eight" unicode="8" horiz-adv-x="595" 
d="M110.5 36.5q-69.5 51.5 -69.5 144.5q0 72 40.5 116t101.5 58l12 3v17l-13 4q-54 15 -85.5 55.5t-31.5 100.5q0 51 27.5 92t80 64.5t124.5 23.5q71 0 123.5 -23t80.5 -64t28 -93q0 -60 -31 -100t-85 -56l-12 -4v-17l11 -3q61 -15 101.5 -58.5t40.5 -115.5
q0 -93 -69.5 -144.5t-186.5 -51.5q-118 0 -187.5 51.5zM392.5 438.5q38.5 31.5 38.5 83.5q0 54 -38 83t-95 29t-95.5 -29t-38.5 -83q0 -52 39 -83.5t95 -31.5t94.5 31.5zM407.5 98.5q40.5 31.5 40.5 90.5q0 58 -41 90.5t-109 32.5t-109 -32.5t-41 -90.5q0 -59 40.5 -90.5
t109.5 -31.5t109.5 31.5z" />
    <glyph glyph-name="nine" unicode="9" horiz-adv-x="594" 
d="M490.5 92.5q-63.5 -107.5 -210.5 -107.5q-100 0 -160.5 54t-75.5 144h106q6 -44 37 -80t94 -36q80 0 121.5 72.5t43.5 186.5h-18l-3 -10q-25 -54 -71 -79.5t-104 -25.5q-98 0 -153 65t-55 172q0 82 31 142.5t88 92.5t132 32q135 0 198 -96.5t63 -247.5
q0 -171 -63.5 -278.5zM401.5 338.5q40.5 44.5 40.5 120.5q0 77 -41 124.5t-108 47.5t-106.5 -46.5t-39.5 -123.5t40 -122t107 -45t107.5 44.5z" />
    <glyph glyph-name="zero.zero" horiz-adv-x="678" 
d="M177.5 35q-64.5 48 -95 130t-30.5 185t30.5 185.5t95 130.5t161.5 48t161 -48t94.5 -130t30.5 -186q0 -103 -30.5 -185t-94.5 -130t-161 -48t-161.5 48zM204 548q-44 -72 -44 -198t44 -197.5t135 -71.5q92 0 135.5 71.5t43.5 197.5q0 127 -43.5 198.5t-135.5 71.5
q-91 0 -135 -72zM299 418h81v-134h-81v134z" />
    <glyph glyph-name="uni24EA" unicode="&#x24ea;" horiz-adv-x="878" 
d="M626.5 668q83.5 -47 131 -129.5t47.5 -186.5q0 -105 -47.5 -188.5t-131 -131t-187.5 -47.5t-188 47.5t-131.5 131t-47.5 188.5q0 104 47.5 186.5t131.5 129.5t188 47t187.5 -47zM604 71.5q73 41.5 114.5 115t41.5 165.5t-41.5 164.5t-114.5 113t-165 40.5
q-91 0 -164.5 -42t-115 -115t-41.5 -161q0 -92 41.5 -165.5t114.5 -115t165 -41.5t165 41.5zM309.5 194q-44.5 62 -44.5 155q0 94 44.5 156.5t130.5 62.5t130 -62.5t44 -156.5q0 -93 -44 -155t-130 -62t-130.5 62zM362.5 463.5q-25.5 -41.5 -25.5 -114.5t25.5 -113.5
t77.5 -40.5t77 40.5t25 113.5t-25 114.5t-77 41.5t-77.5 -41.5z" />
    <glyph glyph-name="uni2460" unicode="&#x2460;" horiz-adv-x="878" 
d="M626.5 668q83.5 -47 131 -129.5t47.5 -186.5q0 -105 -47.5 -188.5t-131 -131t-187.5 -47.5t-188 47.5t-131.5 131t-47.5 188.5q0 104 47.5 186.5t131.5 129.5t188 47t187.5 -47zM604 71.5q73 41.5 114.5 115t41.5 165.5t-41.5 164.5t-114.5 113t-165 40.5
q-91 0 -164.5 -42t-115 -115t-41.5 -161q0 -92 41.5 -165.5t114.5 -115t165 -41.5t165 41.5zM415 468h12v-328h68v420h-73q-13 -78 -92 -78h-16v-65h9q70 0 92 51z" />
    <glyph glyph-name="uni2461" unicode="&#x2461;" horiz-adv-x="878" 
d="M626.5 668q83.5 -47 131 -129.5t47.5 -186.5q0 -105 -47.5 -188.5t-131 -131t-187.5 -47.5t-188 47.5t-131.5 131t-47.5 188.5q0 104 47.5 186.5t131.5 129.5t188 47t187.5 -47zM604 71.5q73 41.5 114.5 115t41.5 165.5t-41.5 164.5t-114.5 113t-165 40.5
q-91 0 -164.5 -42t-115 -115t-41.5 -161q0 -92 41.5 -165.5t114.5 -115t165 -41.5t165 41.5zM418 297q49 43 74 76t25 70q0 30 -19.5 47.5t-53.5 17.5q-38 0 -60.5 -21.5t-22.5 -60.5h-69q0 64 41.5 101t110.5 37q61 0 101.5 -31.5t40.5 -90.5q0 -55 -35.5 -98t-99.5 -87
l-59 -53v-9h179v-60h-265v63z" />
    <glyph glyph-name="uni2462" unicode="&#x2462;" horiz-adv-x="878" 
d="M626.5 668q83.5 -47 131 -129.5t47.5 -186.5q0 -105 -47.5 -188.5t-131 -131t-187.5 -47.5t-188 47.5t-131.5 131t-47.5 188.5q0 104 47.5 186.5t131.5 129.5t188 47t187.5 -47zM604 71.5q73 41.5 114.5 115t41.5 165.5t-41.5 164.5t-114.5 113t-165 40.5
q-91 0 -164.5 -42t-115 -115t-41.5 -161q0 -92 41.5 -165.5t114.5 -115t165 -41.5t165 41.5zM381.5 209.5q21.5 -20.5 59.5 -20.5q35 0 58.5 18t23.5 51q0 34 -28.5 51.5t-68.5 17.5h-36v55h32q34 0 64.5 14t30.5 51q0 29 -20.5 48t-54.5 19q-36 0 -57 -20t-23 -54h-68
q2 58 44 93.5t105 35.5q60 0 100.5 -31.5t40.5 -82.5q0 -38 -22.5 -62.5t-64.5 -28.5l-9 -1v-12l9 -1q43 -4 68 -31.5t25 -68.5q0 -53 -43.5 -86.5t-105.5 -33.5q-64 0 -106.5 37.5t-45.5 96.5h69q2 -34 23.5 -54.5z" />
    <glyph glyph-name="uni2463" unicode="&#x2463;" horiz-adv-x="878" 
d="M626.5 668q83.5 -47 131 -129.5t47.5 -186.5q0 -105 -47.5 -188.5t-131 -131t-187.5 -47.5t-188 47.5t-131.5 131t-47.5 188.5q0 104 47.5 186.5t131.5 129.5t188 47t187.5 -47zM604 71.5q73 41.5 114.5 115t41.5 165.5t-41.5 164.5t-114.5 113t-165 40.5
q-91 0 -164.5 -42t-115 -115t-41.5 -161q0 -92 41.5 -165.5t114.5 -115t165 -41.5t165 41.5zM607 284v-58h-62v-86h-71v86h-224v73l194 261h101v-276h62zM450 457l-91 -127q-20 -29 -39 -35v-11h161v221h-11q-5 -27 -20 -48z" />
    <glyph glyph-name="uni2464" unicode="&#x2464;" horiz-adv-x="878" 
d="M626.5 668q83.5 -47 131 -129.5t47.5 -186.5q0 -105 -47.5 -188.5t-131 -131t-187.5 -47.5t-188 47.5t-131.5 131t-47.5 188.5q0 104 47.5 186.5t131.5 129.5t188 47t187.5 -47zM604 71.5q73 41.5 114.5 115t41.5 165.5t-41.5 164.5t-114.5 113t-165 40.5
q-91 0 -164.5 -42t-115 -115t-41.5 -161q0 -92 41.5 -165.5t114.5 -115t165 -41.5t165 41.5zM375 215q23 -25 61 -25q40 0 64 25.5t24 73.5t-22.5 72t-58.5 24q-30 0 -50 -17t-27 -43h-70v240h274v-57h-214v-129h9q11 29 38.5 44.5t61.5 15.5q58 0 93 -38t35 -107
q0 -72 -41.5 -115.5t-116.5 -43.5q-69 0 -110 39.5t-43 105.5l68 -1q2 -39 25 -64z" />
    <glyph glyph-name="uni2465" unicode="&#x2465;" horiz-adv-x="878" 
d="M626.5 668q83.5 -47 131 -129.5t47.5 -186.5q0 -105 -47.5 -188.5t-131 -131t-187.5 -47.5t-188 47.5t-131.5 131t-47.5 188.5q0 104 47.5 186.5t131.5 129.5t188 47t187.5 -47zM604 71.5q73 41.5 114.5 115t41.5 165.5t-41.5 164.5t-114.5 113t-165 40.5
q-91 0 -164.5 -42t-115 -115t-41.5 -161q0 -92 41.5 -165.5t114.5 -115t165 -41.5t165 41.5zM323 503.5q40 65.5 127 65.5q58 0 95.5 -33t46.5 -86h-71q-4 24 -21.5 44t-52.5 20q-47 0 -70.5 -43t-23.5 -111h9l3 6q15 34 43.5 50.5t61.5 16.5q58 0 90.5 -38.5t32.5 -102.5
q0 -74 -43 -117.5t-111 -43.5q-79 0 -117.5 58t-38.5 148q0 101 40 166.5zM378 353.5q-23 -25.5 -23 -69.5t23.5 -71t61.5 -27t60.5 26.5t22.5 70.5q0 43 -23 69.5t-61 26.5t-61 -25.5z" />
    <glyph glyph-name="uni2466" unicode="&#x2466;" horiz-adv-x="878" 
d="M626.5 668q83.5 -47 131 -129.5t47.5 -186.5q0 -105 -47.5 -188.5t-131 -131t-187.5 -47.5t-188 47.5t-131.5 131t-47.5 188.5q0 104 47.5 186.5t131.5 129.5t188 47t187.5 -47zM604 71.5q73 41.5 114.5 115t41.5 165.5t-41.5 164.5t-114.5 113t-165 40.5
q-91 0 -164.5 -42t-115 -115t-41.5 -161q0 -92 41.5 -165.5t114.5 -115t165 -41.5t165 41.5zM501.5 464.5q17.5 17.5 38.5 23.5v11h-240v60h277v-66l-150 -353h-74l116 271q15 36 32.5 53.5z" />
    <glyph glyph-name="uni2467" unicode="&#x2467;" horiz-adv-x="878" 
d="M626.5 668q83.5 -47 131 -129.5t47.5 -186.5q0 -105 -47.5 -188.5t-131 -131t-187.5 -47.5t-188 47.5t-131.5 131t-47.5 188.5q0 104 47.5 186.5t131.5 129.5t188 47t187.5 -47zM604 71.5q73 41.5 114.5 115t41.5 165.5t-41.5 164.5t-114.5 113t-165 40.5
q-91 0 -164.5 -42t-115 -115t-41.5 -161q0 -92 41.5 -165.5t114.5 -115t165 -41.5t165 41.5zM299 305q16 24 40 36.5t48 13.5v10q-36 2 -63 28.5t-27 67.5q0 47 38.5 77.5t102.5 30.5q62 0 100.5 -30t38.5 -78q0 -42 -25.5 -68t-61.5 -28v-10q24 -1 48 -13.5t39.5 -36.5
t15.5 -57q0 -53 -42.5 -85t-112.5 -32t-112.5 32t-42.5 85q0 33 16 57zM381 501.5q-23 -17.5 -23 -47.5t22.5 -49t57.5 -19q34 0 56.5 18.5t22.5 48.5q0 31 -22 48.5t-57 17.5q-34 0 -57 -17.5zM374.5 200.5q24.5 -19.5 63.5 -19.5q40 0 64.5 20t24.5 53q0 32 -25 52.5
t-64 20.5q-38 0 -63 -20.5t-25 -53.5t24.5 -52.5z" />
    <glyph glyph-name="uni2468" unicode="&#x2468;" horiz-adv-x="878" 
d="M626.5 668q83.5 -47 131 -129.5t47.5 -186.5q0 -105 -47.5 -188.5t-131 -131t-187.5 -47.5t-188 47.5t-131.5 131t-47.5 188.5q0 104 47.5 186.5t131.5 129.5t188 47t187.5 -47zM604 71.5q73 41.5 114.5 115t41.5 165.5t-41.5 164.5t-114.5 113t-165 40.5
q-91 0 -164.5 -42t-115 -115t-41.5 -161q0 -92 41.5 -165.5t114.5 -115t165 -41.5t165 41.5zM555 196.5q-40 -65.5 -127 -65.5q-58 0 -95.5 33t-46.5 86h71q4 -24 21.5 -44t52.5 -20q46 0 70 43t24 110h-9l-3 -5q-43 -67 -105 -67q-58 0 -90.5 38.5t-32.5 102.5
q0 74 43 117.5t111 43.5q78 0 117 -58t39 -149q0 -100 -40 -165.5zM500 346.5q23 25.5 23 69.5t-23.5 71t-61.5 27q-37 0 -60 -26.5t-23 -70.5t23 -70t61 -26t61 25.5z" />
    <glyph glyph-name="zero.tf" horiz-adv-x="632" 
d="M104 89q-68 102 -68 260q0 159 68 262t212 103t212 -103t68 -262q0 -158 -68 -260t-212 -102t-212 102zM177 545.5q-43 -78.5 -43 -196.5t43 -195t139 -77q97 0 139.5 77.5t42.5 194.5q0 118 -42.5 196.5t-139.5 78.5q-96 0 -139 -78.5z" />
    <glyph glyph-name="one.tf" horiz-adv-x="632" 
d="M536 82v-82h-464v82h183v471h-18l-4 -8q-17 -39 -51 -58.5t-96 -19.5h-24v98h33q76 0 108.5 40t43.5 95h110v-618h179z" />
    <glyph glyph-name="two.tf" horiz-adv-x="669" 
d="M294 260q64 52 103.5 90t65 80.5t25.5 86.5q0 53 -40.5 84.5t-110.5 31.5q-79 0 -127.5 -38.5t-48.5 -106.5h-99q0 69 34.5 121t96.5 80t143 28q70 0 127 -22.5t91 -68t34 -110.5q0 -94 -66 -170t-179 -144l-127 -99v-13h347v-90h-475v96z" />
    <glyph glyph-name="three.tf" horiz-adv-x="669" 
d="M211.5 108q45.5 -36 121.5 -36q71 0 120 32t49 88q0 57 -57 89.5t-135 32.5h-66v89h61q63 0 125 23.5t62 89.5q0 51 -42.5 85t-115.5 34q-76 0 -120 -37t-46 -100h-99q4 103 77.5 161t191.5 58q75 0 134 -23.5t92 -67t33 -100.5q0 -59 -38 -98.5t-106 -53.5l-16 -2v-20
l16 -3q71 -14 112.5 -57.5t41.5 -108.5q0 -59 -36.5 -104.5t-99.5 -70t-138 -24.5q-77 0 -137 28t-95 78.5t-38 114.5h99q4 -61 49.5 -97z" />
    <glyph glyph-name="four.tf" horiz-adv-x="669" 
d="M623 233v-86h-104v-147h-104v147h-369v108l328 447h145v-469h104zM367 540l-171 -232q-29 -48 -58 -58v-17h277v384h-17q-7 -38 -31 -77z" />
    <glyph glyph-name="five.tf" horiz-adv-x="669" 
d="M209 110.5q45 -43.5 118 -43.5q78 0 125.5 44.5t47.5 128.5q0 85 -43.5 128t-113.5 43q-59 0 -98.5 -30t-53.5 -78h-105l1 399h471v-90h-382l-1 -220h19l7 12q28 47 76 68t104 21q102 0 163 -65t61 -180q0 -79 -33 -138.5t-96 -92.5t-150 -33q-79 0 -138.5 29.5t-93 84
t-34.5 125.5h99q5 -69 50 -112.5z" />
    <glyph glyph-name="six.tf" horiz-adv-x="669" 
d="M129 608q69 109 224 109q104 0 170 -54.5t80 -143.5h-103q-7 43 -42.5 79.5t-106.5 36.5q-90 0 -137 -74t-49 -192h14l6 12q28 57 81.5 83.5t112.5 26.5q70 0 121.5 -30t79 -84t27.5 -125q0 -82 -33 -142t-93.5 -92.5t-141.5 -32.5q-144 0 -211.5 97t-67.5 247
q0 170 69 279zM216 362.5q-46 -45.5 -46 -121.5q0 -77 46.5 -124.5t122.5 -47.5q75 0 120 46.5t45 123.5t-45 123t-121 46t-122 -45.5z" />
    <glyph glyph-name="seven.tf" horiz-adv-x="669" 
d="M471.5 552q23.5 27 50.5 38l8 3v18h-473v90h544v-100l-320 -601h-111l248 472q30 53 53.5 80z" />
    <glyph glyph-name="eight.tf" horiz-adv-x="669" 
d="M188 9q-64 24 -99.5 68.5t-35.5 103.5q0 72 45.5 118t110.5 58l16 3v18l-17 4q-58 12 -93.5 53.5t-35.5 101.5q0 51 31 92t88.5 64.5t135.5 23.5q76 0 133 -23t87.5 -64t30.5 -93q0 -60 -34 -100t-92 -55l-17 -5v-17l15 -4q68 -15 112 -59.5t44 -115.5q0 -59 -35 -103.5
t-98 -68.5t-146 -24q-82 0 -146 24zM444 439q45 32 45 85q0 54 -44.5 83t-109.5 29t-112 -29t-47 -82q0 -33 21 -60t57 -42.5t80 -15.5q65 0 110 32zM460.5 101q48.5 34 48.5 90q0 54 -48.5 88.5t-125.5 34.5q-50 0 -90.5 -16t-64 -44.5t-23.5 -64.5q0 -55 50 -88.5
t127 -33.5q78 0 126.5 34z" />
    <glyph glyph-name="nine.tf" horiz-adv-x="669" 
d="M538 94q-69 -109 -225 -109q-105 0 -170.5 55t-80.5 143h103q8 -44 43.5 -80t106.5 -36q89 0 137 73t51 193h-14l-6 -12q-27 -56 -81 -83t-114 -27q-71 0 -123 30t-79.5 84t-27.5 125q0 81 33.5 141.5t94.5 93t142 32.5q145 0 212 -96.5t67 -247.5q0 -170 -69 -279z
M452 339.5q46 45.5 46 121.5q0 77 -47.5 124.5t-123.5 47.5q-75 0 -120.5 -46.5t-45.5 -123.5t45.5 -123t122.5 -46t123 45.5z" />
    <glyph glyph-name="zero.tnum.tf" horiz-adv-x="678" 
d="M500 666q64 -48 94.5 -130t30.5 -186q0 -103 -30.5 -185t-94.5 -130t-161 -48t-161.5 48t-95 130t-30.5 185t30.5 185.5t95 130.5t161.5 48t161 -48zM204 548q-44 -72 -44 -198q0 -101 26 -163l294 353q-45 80 -141 80q-91 0 -135 -72zM474.5 152.5q43.5 71.5 43.5 197.5
q0 106 -29 171l-294 -354q46 -86 144 -86q92 0 135.5 71.5z" />
    <glyph glyph-name="zero.subs" horiz-adv-x="389" 
d="M65.5 3q-43.5 61 -43.5 157t43.5 157.5t129.5 61.5q85 0 128 -61.5t43 -157.5t-42.5 -157t-128.5 -61t-129.5 61zM113.5 278.5q-26.5 -43.5 -26.5 -118.5t26.5 -118.5t81.5 -43.5t81 43t26 119t-26 119t-81 43t-81.5 -43.5z" />
    <glyph glyph-name="one.subs" horiz-adv-x="266" 
d="M123 277q-10 -24 -30.5 -35.5t-57.5 -11.5h-15v59h20q78 0 91 81h66v-420h-61v332h-10z" />
    <glyph glyph-name="two.subs" horiz-adv-x="325" 
d="M224.5 185.5q25.5 34.5 25.5 73.5q0 32 -20.5 50.5t-56.5 18.5q-40 0 -64.5 -23t-24.5 -63h-62q0 63 41.5 100t109.5 37q60 0 99.5 -31.5t39.5 -89.5q0 -56 -35.5 -100t-98.5 -88l-64 -58v-8h183v-54h-261v57l112 99q51 45 76.5 79.5z" />
    <glyph glyph-name="three.subs" horiz-adv-x="322" 
d="M96.5 14.5q23.5 -21.5 63.5 -21.5q37 0 62 19t25 53q0 35 -29 53.5t-70 18.5h-38v55h34q35 0 66.5 13.5t31.5 52.5q0 31 -22 51.5t-60 20.5q-39 0 -61 -22t-24 -60h-61q2 61 43 96t106 35q64 0 103.5 -31t39.5 -83q0 -36 -20.5 -60t-57.5 -32l-9 -1v-11l9 -1
q38 -9 61 -35t23 -65q0 -53 -43.5 -86t-108.5 -33t-106 36.5t-44 95.5h61q2 -37 25.5 -58.5z" />
    <glyph glyph-name="four.subs" horiz-adv-x="389" 
d="M360 44h-63v-88h-63v88h-224v66l198 266h89v-280h63v-52zM203 279l-99 -139q-20 -28 -37 -34v-10h167v229h-11q-2 -21 -20 -46z" />
    <glyph glyph-name="five.subs" horiz-adv-x="369" 
d="M117.5 16q24.5 -26 64.5 -26q43 0 68.5 26.5t25.5 77.5t-23.5 76t-61.5 25q-33 0 -54 -17.5t-29 -45.5h-63l1 238h268v-54h-215v-132h11l4 7q17 28 43.5 41t57.5 13q57 0 91 -38.5t34 -107.5q0 -72 -42 -115.5t-116 -43.5q-68 0 -109 39.5t-42 104.5h60q2 -42 26.5 -68z
" />
    <glyph glyph-name="six.subs" horiz-adv-x="329" 
d="M48 314.5q38 64.5 127 64.5q59 0 95.5 -32.5t45.5 -86.5h-64q-3 27 -21.5 48.5t-56.5 21.5q-48 0 -73 -44t-26 -112h10l3 6q14 33 41.5 48.5t62.5 15.5q58 0 91.5 -39t33.5 -104q0 -74 -41 -117t-110 -43q-80 0 -118 58t-38 149q0 102 38 166.5zM101 167q-24 -27 -24 -73
t25 -74.5t65 -28.5t63.5 28t23.5 74t-23.5 73.5t-64.5 27.5t-65 -27z" />
    <glyph glyph-name="seven.subs" horiz-adv-x="309" 
d="M218 280q14 16 31 23l5 2v10h-244v54h289v-60l-168 -359h-69l127 281q15 33 29 49z" />
    <glyph glyph-name="eight.subs" horiz-adv-x="330" 
d="M53 -28q-42 31 -42 87q0 43 24.5 69.5t60.5 34.5l7 2v10l-7 3q-32 8 -51 32t-19 61q0 47 37.5 77.5t101.5 30.5t101.5 -30t37.5 -78q0 -36 -18.5 -60t-50.5 -33l-8 -3v-10l7 -2q37 -9 61 -35t24 -69q0 -56 -42 -87t-112 -31t-112 31zM221.5 213q23.5 19 23.5 50
q0 32 -23 50t-57 18t-57 -18t-23 -50q0 -31 23.5 -50t56.5 -19t56.5 19zM231 9q24 19 24 55q0 35 -24.5 54t-65.5 19t-65.5 -19t-24.5 -54q0 -36 24.5 -55t65.5 -19q42 0 66 19z" />
    <glyph glyph-name="nine.subs" horiz-adv-x="329" 
d="M280 5.5q-38 -64.5 -126 -64.5q-60 0 -96 32.5t-45 86.5h63q4 -27 22.5 -48.5t56.5 -21.5q48 0 72.5 44t26.5 112h-11l-2 -6q-15 -33 -43 -48.5t-62 -15.5q-58 0 -91.5 39t-33.5 104q0 74 41 117t110 43q81 0 118.5 -58t37.5 -149q0 -102 -38 -166.5zM227 153
q24 27 24 73t-24.5 74.5t-64.5 28.5t-63.5 -28t-23.5 -74t23.5 -73.5t64.5 -27.5q40 0 64 27z" />
    <glyph glyph-name="zero.dnom" horiz-adv-x="389" 
d="M65.5 53q-43.5 61 -43.5 157t43.5 157.5t129.5 61.5q85 0 128 -61.5t43 -157.5t-42.5 -157t-128.5 -61t-129.5 61zM113.5 328.5q-26.5 -43.5 -26.5 -118.5t26.5 -118.5t81.5 -43.5t81 43t26 119t-26 119t-81 43t-81.5 -43.5z" />
    <glyph glyph-name="one.dnom" horiz-adv-x="266" 
d="M123 327q-10 -24 -30.5 -35.5t-57.5 -11.5h-15v59h20q78 0 91 81h66v-420h-61v332h-10z" />
    <glyph glyph-name="two.dnom" horiz-adv-x="325" 
d="M224.5 235.5q25.5 34.5 25.5 73.5q0 32 -20.5 50.5t-56.5 18.5q-40 0 -64.5 -23t-24.5 -63h-62q0 63 41.5 100t109.5 37q60 0 99.5 -31.5t39.5 -89.5q0 -56 -35.5 -100t-98.5 -88l-64 -58v-8h183v-54h-261v57l112 99q51 45 76.5 79.5z" />
    <glyph glyph-name="three.dnom" horiz-adv-x="322" 
d="M96.5 64.5q23.5 -21.5 63.5 -21.5q37 0 62 19t25 53q0 35 -29 53.5t-70 18.5h-38v55h34q35 0 66.5 13.5t31.5 52.5q0 31 -22 51.5t-60 20.5q-39 0 -61 -22t-24 -60h-61q2 61 43 96t106 35q64 0 103.5 -31t39.5 -83q0 -36 -20.5 -60t-57.5 -32l-9 -1v-11l9 -1
q38 -9 61 -35t23 -65q0 -53 -43.5 -86t-108.5 -33t-106 36.5t-44 95.5h61q2 -37 25.5 -58.5z" />
    <glyph glyph-name="four.dnom" horiz-adv-x="389" 
d="M360 88h-63v-88h-63v88h-224v65l198 267h89v-280h63v-52zM203 323l-99 -139q-20 -28 -37 -34v-10h167v229h-11q-2 -21 -20 -46z" />
    <glyph glyph-name="five.dnom" horiz-adv-x="369" 
d="M117.5 66q24.5 -26 64.5 -26q43 0 68.5 26.5t25.5 77.5t-23.5 76t-61.5 25q-33 0 -54 -17.5t-29 -45.5h-63l1 238h268v-54h-215v-132h11l4 7q17 28 43.5 41t57.5 13q57 0 91 -38.5t34 -107.5q0 -72 -42 -115.5t-116 -43.5q-68 0 -109 39.5t-42 104.5h60q2 -42 26.5 -68z
" />
    <glyph glyph-name="six.dnom" horiz-adv-x="329" 
d="M48 364.5q38 64.5 127 64.5q59 0 95.5 -32.5t45.5 -86.5h-64q-3 27 -21.5 48.5t-56.5 21.5q-48 0 -73 -44t-26 -112h10l3 6q14 33 41.5 48.5t62.5 15.5q58 0 91.5 -39t33.5 -104q0 -74 -41 -117t-110 -43q-80 0 -118 58t-38 149q0 102 38 166.5zM101 217q-24 -27 -24 -73
t25 -74.5t65 -28.5t63.5 28t23.5 74t-23.5 73.5t-64.5 27.5t-65 -27z" />
    <glyph glyph-name="seven.dnom" horiz-adv-x="309" 
d="M218 330q14 16 31 23l5 2v10h-244v54h289v-60l-168 -359h-69l127 281q15 33 29 49z" />
    <glyph glyph-name="eight.dnom" horiz-adv-x="330" 
d="M53 22q-42 31 -42 87q0 43 24.5 69.5t60.5 34.5l7 2v10l-7 3q-32 8 -51 32t-19 61q0 47 37.5 77.5t101.5 30.5t101.5 -30t37.5 -78q0 -36 -18.5 -60t-50.5 -33l-8 -3v-10l7 -2q37 -9 61 -35t24 -69q0 -56 -42 -87t-112 -31t-112 31zM221.5 263q23.5 19 23.5 50
q0 32 -23 50t-57 18t-57 -18t-23 -50q0 -31 23.5 -50t56.5 -19t56.5 19zM231 59q24 19 24 55q0 35 -24.5 54t-65.5 19t-65.5 -19t-24.5 -54q0 -36 24.5 -55t65.5 -19q42 0 66 19z" />
    <glyph glyph-name="nine.dnom" horiz-adv-x="329" 
d="M280 55.5q-38 -64.5 -126 -64.5q-60 0 -96 32.5t-45 86.5h63q4 -27 22.5 -48.5t56.5 -21.5q48 0 72.5 44t26.5 112h-11l-2 -6q-15 -33 -43 -48.5t-62 -15.5q-58 0 -91.5 39t-33.5 104q0 74 41 117t110 43q81 0 118.5 -58t37.5 -149q0 -102 -38 -166.5zM227 203
q24 27 24 73t-24.5 74.5t-64.5 28.5t-63.5 -28t-23.5 -74t23.5 -73.5t64.5 -27.5q40 0 64 27z" />
    <glyph glyph-name="zero.numr" horiz-adv-x="389" 
d="M65.5 333q-43.5 61 -43.5 157t43.5 157.5t129.5 61.5q85 0 128 -61.5t43 -157.5t-42.5 -157t-128.5 -61t-129.5 61zM113.5 608.5q-26.5 -43.5 -26.5 -118.5t26.5 -118.5t81.5 -43.5t81 43t26 119t-26 119t-81 43t-81.5 -43.5z" />
    <glyph glyph-name="one.numr" horiz-adv-x="266" 
d="M123 607q-10 -24 -30.5 -35.5t-57.5 -11.5h-15v59h20q78 0 91 81h66v-420h-61v332h-10z" />
    <glyph glyph-name="two.numr" horiz-adv-x="325" 
d="M224.5 514.5q25.5 34.5 25.5 73.5q0 32 -20.5 50.5t-56.5 18.5q-40 0 -64.5 -23t-24.5 -63h-62q0 63 41.5 100t109.5 37q60 0 99.5 -31.5t39.5 -89.5q0 -56 -35.5 -100t-98.5 -88l-64 -58v-8h183v-54h-261v57l112 99q51 45 76.5 79.5z" />
    <glyph glyph-name="three.numr" horiz-adv-x="322" 
d="M96.5 343.5q23.5 -21.5 63.5 -21.5q37 0 62 19t25 53q0 35 -29 53.5t-70 18.5h-38v55h34q35 0 66.5 13.5t31.5 52.5q0 31 -22 51.5t-60 20.5q-39 0 -61 -22t-24 -60h-61q2 61 43 96t106 35q64 0 103.5 -31t39.5 -83q0 -36 -20.5 -60t-57.5 -32l-9 -1v-11l9 -1
q38 -9 61 -35t23 -65q0 -53 -43.5 -86t-108.5 -33t-106 36.5t-44 95.5h61q2 -37 25.5 -58.5z" />
    <glyph glyph-name="four.numr" horiz-adv-x="389" 
d="M360 368h-63v-88h-63v88h-224v65l198 267h89v-280h63v-52zM203 603l-99 -139q-20 -28 -37 -34v-10h167v229h-11q-2 -21 -20 -46z" />
    <glyph glyph-name="five.numr" horiz-adv-x="369" 
d="M117.5 346q24.5 -26 64.5 -26q43 0 68.5 26.5t25.5 77.5t-23.5 76t-61.5 25q-33 0 -54 -17.5t-29 -45.5h-63l1 238h268v-54h-215v-132h11l4 7q17 28 43.5 41t57.5 13q57 0 91 -38.5t34 -107.5q0 -72 -42 -115.5t-116 -43.5q-68 0 -109 39.5t-42 104.5h60q2 -42 26.5 -68z
" />
    <glyph glyph-name="six.numr" horiz-adv-x="329" 
d="M48 643.5q38 64.5 127 64.5q59 0 95.5 -32.5t45.5 -86.5h-64q-3 27 -21.5 48.5t-56.5 21.5q-48 0 -73 -44t-26 -112h10l3 6q14 33 41.5 48.5t62.5 15.5q58 0 91.5 -39t33.5 -104q0 -74 -41 -117t-110 -43q-80 0 -118 58t-38 149q0 102 38 166.5zM101 496q-24 -27 -24 -73
t25 -74.5t65 -28.5t63.5 28t23.5 74t-23.5 73.5t-64.5 27.5t-65 -27z" />
    <glyph glyph-name="seven.numr" horiz-adv-x="309" 
d="M218 611q14 16 31 23l5 2v10h-244v54h289v-60l-168 -359h-69l127 281q15 33 29 49z" />
    <glyph glyph-name="eight.numr" horiz-adv-x="330" 
d="M53 301q-42 31 -42 87q0 43 24.5 69.5t60.5 34.5l7 2v10l-7 3q-32 8 -51 32t-19 61q0 47 37.5 77.5t101.5 30.5t101.5 -30t37.5 -78q0 -36 -18.5 -60t-50.5 -33l-8 -3v-10l7 -2q37 -9 61 -35t24 -69q0 -56 -42 -87t-112 -31t-112 31zM221.5 542q23.5 19 23.5 50
q0 32 -23 50t-57 18t-57 -18t-23 -50q0 -31 23.5 -50t56.5 -19t56.5 19zM231 338q24 19 24 55q0 35 -24.5 54t-65.5 19t-65.5 -19t-24.5 -54q0 -36 24.5 -55t65.5 -19q42 0 66 19z" />
    <glyph glyph-name="nine.numr" horiz-adv-x="329" 
d="M280 334.5q-38 -64.5 -126 -64.5q-60 0 -96 32.5t-45 86.5h63q4 -27 22.5 -48.5t56.5 -21.5q48 0 72.5 44t26.5 112h-11l-2 -6q-15 -33 -43 -48.5t-62 -15.5q-58 0 -91.5 39t-33.5 104q0 74 41 117t110 43q81 0 118.5 -58t37.5 -149q0 -102 -38 -166.5zM227 482
q24 27 24 73t-24.5 74.5t-64.5 28.5t-63.5 -28t-23.5 -74t23.5 -73.5t64.5 -27.5q40 0 64 27z" />
    <glyph glyph-name="zero.sups" horiz-adv-x="389" 
d="M65.5 383q-43.5 61 -43.5 157t43.5 157.5t129.5 61.5q85 0 128 -61.5t43 -157.5t-42.5 -157t-128.5 -61t-129.5 61zM113.5 658.5q-26.5 -43.5 -26.5 -118.5t26.5 -118.5t81.5 -43.5t81 43t26 119t-26 119t-81 43t-81.5 -43.5z" />
    <glyph glyph-name="one.sups" horiz-adv-x="266" 
d="M123 657q-10 -24 -30.5 -35.5t-57.5 -11.5h-15v59h20q78 0 91 81h66v-420h-61v332h-10z" />
    <glyph glyph-name="two.sups" horiz-adv-x="325" 
d="M224.5 564.5q25.5 34.5 25.5 73.5q0 32 -20.5 50.5t-56.5 18.5q-40 0 -64.5 -23t-24.5 -63h-62q0 63 41.5 100t109.5 37q60 0 99.5 -31.5t39.5 -89.5q0 -56 -35.5 -100t-98.5 -88l-64 -58v-8h183v-54h-261v57l112 99q51 45 76.5 79.5z" />
    <glyph glyph-name="three.sups" horiz-adv-x="322" 
d="M96.5 393.5q23.5 -21.5 63.5 -21.5q37 0 62 19t25 53q0 35 -29 53.5t-70 18.5h-38v55h34q35 0 66.5 13.5t31.5 52.5q0 31 -22 51.5t-60 20.5q-39 0 -61 -22t-24 -60h-61q2 61 43 96t106 35q64 0 103.5 -31t39.5 -83q0 -36 -20.5 -60t-57.5 -32l-9 -1v-11l9 -1
q38 -9 61 -35t23 -65q0 -53 -43.5 -86t-108.5 -33t-106 36.5t-44 95.5h61q2 -37 25.5 -58.5z" />
    <glyph glyph-name="four.sups" horiz-adv-x="389" 
d="M360 418h-63v-88h-63v88h-224v65l198 267h89v-280h63v-52zM203 653l-99 -139q-20 -28 -37 -34v-10h167v229h-11q-2 -21 -20 -46z" />
    <glyph glyph-name="five.sups" horiz-adv-x="369" 
d="M117.5 396q24.5 -26 64.5 -26q43 0 68.5 26.5t25.5 77.5t-23.5 76t-61.5 25q-33 0 -54 -17.5t-29 -45.5h-63l1 238h268v-54h-215v-132h11l4 7q17 28 43.5 41t57.5 13q57 0 91 -38.5t34 -107.5q0 -72 -42 -115.5t-116 -43.5q-68 0 -109 39.5t-42 104.5h60q2 -42 26.5 -68z
" />
    <glyph glyph-name="six.sups" horiz-adv-x="329" 
d="M48 693.5q38 64.5 127 64.5q59 0 95.5 -32.5t45.5 -86.5h-64q-3 27 -21.5 48.5t-56.5 21.5q-48 0 -73 -44t-26 -112h10l3 6q14 33 41.5 48.5t62.5 15.5q58 0 91.5 -39t33.5 -104q0 -74 -41 -117t-110 -43q-80 0 -118 58t-38 149q0 102 38 166.5zM101 546q-24 -27 -24 -73
t25 -74.5t65 -28.5t63.5 28t23.5 74t-23.5 73.5t-64.5 27.5t-65 -27z" />
    <glyph glyph-name="seven.sups" horiz-adv-x="309" 
d="M218 661q14 16 31 23l5 2v10h-244v54h289v-60l-168 -359h-69l127 281q15 33 29 49z" />
    <glyph glyph-name="eight.sups" horiz-adv-x="330" 
d="M53 351q-42 31 -42 87q0 43 24.5 69.5t60.5 34.5l7 2v10l-7 3q-32 8 -51 32t-19 61q0 47 37.5 77.5t101.5 30.5t101.5 -30t37.5 -78q0 -36 -18.5 -60t-50.5 -33l-8 -3v-10l7 -2q37 -9 61 -35t24 -69q0 -56 -42 -87t-112 -31t-112 31zM221.5 592q23.5 19 23.5 50
q0 32 -23 50t-57 18t-57 -18t-23 -50q0 -31 23.5 -50t56.5 -19t56.5 19zM231 388q24 19 24 55q0 35 -24.5 54t-65.5 19t-65.5 -19t-24.5 -54q0 -36 24.5 -55t65.5 -19q42 0 66 19z" />
    <glyph glyph-name="nine.sups" horiz-adv-x="329" 
d="M280 384.5q-38 -64.5 -126 -64.5q-60 0 -96 32.5t-45 86.5h63q4 -27 22.5 -48.5t56.5 -21.5q48 0 72.5 44t26.5 112h-11l-2 -6q-15 -33 -43 -48.5t-62 -15.5q-58 0 -91.5 39t-33.5 104q0 74 41 117t110 43q81 0 118.5 -58t37.5 -149q0 -102 -38 -166.5zM227 532
q24 27 24 73t-24.5 74.5t-64.5 28.5t-63.5 -28t-23.5 -74t23.5 -73.5t64.5 -27.5q40 0 64 27z" />
    <glyph glyph-name="fraction" unicode="&#x2044;" horiz-adv-x="192" 
d="M286 700h56l-435 -700h-57z" />
    <glyph glyph-name="onehalf" unicode="&#xbd;" horiz-adv-x="783" 
d="M123 607q-10 -24 -30.5 -35.5t-57.5 -11.5h-15v59h20q78 0 91 81h66v-420h-61v332h-10zM552 700h56l-435 -700h-57zM682.5 235.5q25.5 34.5 25.5 73.5q0 32 -20.5 50.5t-56.5 18.5q-40 0 -64.5 -23t-24.5 -63h-62q0 63 41.5 100t109.5 37q60 0 99.5 -31.5t39.5 -89.5
q0 -56 -35.5 -100t-98.5 -88l-64 -58v-8h183v-54h-261v57l112 99q51 45 76.5 79.5z" />
    <glyph glyph-name="onequarter" unicode="&#xbc;" horiz-adv-x="847" 
d="M123 607q-10 -24 -30.5 -35.5t-57.5 -11.5h-15v59h20q78 0 91 81h66v-420h-61v332h-10zM552 700h56l-435 -700h-57zM818 88h-63v-88h-63v88h-224v65l198 267h89v-280h63v-52zM661 323l-99 -139q-20 -28 -37 -34v-10h167v229h-11q-2 -21 -20 -46z" />
    <glyph glyph-name="threequarters" unicode="&#xbe;" horiz-adv-x="903" 
d="M96.5 343.5q23.5 -21.5 63.5 -21.5q37 0 62 19t25 53q0 35 -29 53.5t-70 18.5h-38v55h34q35 0 66.5 13.5t31.5 52.5q0 31 -22 51.5t-60 20.5q-39 0 -61 -22t-24 -60h-61q2 61 43 96t106 35q64 0 103.5 -31t39.5 -83q0 -36 -20.5 -60t-57.5 -32l-9 -1v-11l9 -1
q38 -9 61 -35t23 -65q0 -53 -43.5 -86t-108.5 -33t-106 36.5t-44 95.5h61q2 -37 25.5 -58.5zM608 700h56l-435 -700h-57zM874 88h-63v-88h-63v88h-224v65l198 267h89v-280h63v-52zM717 323l-99 -139q-20 -28 -37 -34v-10h167v229h-11q-2 -21 -20 -46z" />
    <glyph glyph-name="oneeighth" unicode="&#x215b;" horiz-adv-x="788" 
d="M123 607q-10 -24 -30.5 -35.5t-57.5 -11.5h-15v59h20q78 0 91 81h66v-420h-61v332h-10zM552 700h56l-435 -700h-57zM511 22q-42 31 -42 87q0 43 24.5 69.5t60.5 34.5l7 2v10l-7 3q-32 8 -51 32t-19 61q0 47 37.5 77.5t101.5 30.5t101.5 -30t37.5 -78q0 -36 -18.5 -60
t-50.5 -33l-8 -3v-10l7 -2q37 -9 61 -35t24 -69q0 -56 -42 -87t-112 -31t-112 31zM679.5 263q23.5 19 23.5 50q0 32 -23 50t-57 18t-57 -18t-23 -50q0 -31 23.5 -50t56.5 -19t56.5 19zM689 59q24 19 24 55q0 35 -24.5 54t-65.5 19t-65.5 -19t-24.5 -54q0 -36 24.5 -55
t65.5 -19q42 0 66 19z" />
    <glyph glyph-name="threeeighths" unicode="&#x215c;" horiz-adv-x="844" 
d="M96.5 343.5q23.5 -21.5 63.5 -21.5q37 0 62 19t25 53q0 35 -29 53.5t-70 18.5h-38v55h34q35 0 66.5 13.5t31.5 52.5q0 31 -22 51.5t-60 20.5q-39 0 -61 -22t-24 -60h-61q2 61 43 96t106 35q64 0 103.5 -31t39.5 -83q0 -36 -20.5 -60t-57.5 -32l-9 -1v-11l9 -1
q38 -9 61 -35t23 -65q0 -53 -43.5 -86t-108.5 -33t-106 36.5t-44 95.5h61q2 -37 25.5 -58.5zM608 700h56l-435 -700h-57zM567 22q-42 31 -42 87q0 43 24.5 69.5t60.5 34.5l7 2v10l-7 3q-32 8 -51 32t-19 61q0 47 37.5 77.5t101.5 30.5t101.5 -30t37.5 -78q0 -36 -18.5 -60
t-50.5 -33l-8 -3v-10l7 -2q37 -9 61 -35t24 -69q0 -56 -42 -87t-112 -31t-112 31zM735.5 263q23.5 19 23.5 50q0 32 -23 50t-57 18t-57 -18t-23 -50q0 -31 23.5 -50t56.5 -19t56.5 19zM745 59q24 19 24 55q0 35 -24.5 54t-65.5 19t-65.5 -19t-24.5 -54q0 -36 24.5 -55
t65.5 -19q42 0 66 19z" />
    <glyph glyph-name="fiveeighths" unicode="&#x215d;" horiz-adv-x="891" 
d="M117.5 346q24.5 -26 64.5 -26q43 0 68.5 26.5t25.5 77.5t-23.5 76t-61.5 25q-33 0 -54 -17.5t-29 -45.5h-63l1 238h268v-54h-215v-132h11l4 7q17 28 43.5 41t57.5 13q57 0 91 -38.5t34 -107.5q0 -72 -42 -115.5t-116 -43.5q-68 0 -109 39.5t-42 104.5h60q2 -42 26.5 -68z
M655 700h56l-435 -700h-57zM614 22q-42 31 -42 87q0 43 24.5 69.5t60.5 34.5l7 2v10l-7 3q-32 8 -51 32t-19 61q0 47 37.5 77.5t101.5 30.5t101.5 -30t37.5 -78q0 -36 -18.5 -60t-50.5 -33l-8 -3v-10l7 -2q37 -9 61 -35t24 -69q0 -56 -42 -87t-112 -31t-112 31zM782.5 263
q23.5 19 23.5 50q0 32 -23 50t-57 18t-57 -18t-23 -50q0 -31 23.5 -50t56.5 -19t56.5 19zM792 59q24 19 24 55q0 35 -24.5 54t-65.5 19t-65.5 -19t-24.5 -54q0 -36 24.5 -55t65.5 -19q42 0 66 19z" />
    <glyph glyph-name="seveneighths" unicode="&#x215e;" horiz-adv-x="831" 
d="M218 611q14 16 31 23l5 2v10h-244v54h289v-60l-168 -359h-69l127 281q15 33 29 49zM595 700h56l-435 -700h-57zM554 22q-42 31 -42 87q0 43 24.5 69.5t60.5 34.5l7 2v10l-7 3q-32 8 -51 32t-19 61q0 47 37.5 77.5t101.5 30.5t101.5 -30t37.5 -78q0 -36 -18.5 -60
t-50.5 -33l-8 -3v-10l7 -2q37 -9 61 -35t24 -69q0 -56 -42 -87t-112 -31t-112 31zM722.5 263q23.5 19 23.5 50q0 32 -23 50t-57 18t-57 -18t-23 -50q0 -31 23.5 -50t56.5 -19t56.5 19zM732 59q24 19 24 55q0 35 -24.5 54t-65.5 19t-65.5 -19t-24.5 -54q0 -36 24.5 -55
t65.5 -19q42 0 66 19z" />
    <glyph glyph-name="period" unicode="." horiz-adv-x="260" 
d="M79 161h103v-161h-103v161z" />
    <glyph glyph-name="comma" unicode="," horiz-adv-x="260" 
d="M93 -69q18 0 25 7.5t7 29.5v32h-46v154h103v-181q0 -46 -18 -68t-63 -22h-22v48h14z" />
    <glyph glyph-name="colon" unicode=":" horiz-adv-x="260" 
d="M79 161h103v-161h-103v161zM79 511h103v-161h-103v161z" />
    <glyph glyph-name="semicolon" unicode=";" horiz-adv-x="261" 
d="M94 -69q18 0 25 7.5t7 29.5v32h-46v154h103v-181q0 -46 -18 -68t-63 -22h-22v48h14zM79 511h103v-161h-103v161z" />
    <glyph glyph-name="ellipsis" unicode="&#x2026;" horiz-adv-x="661" 
d="M79 161h103v-161h-103v161zM279 161h103v-161h-103v161zM480 161h103v-161h-103v161z" />
    <glyph glyph-name="exclam" unicode="!" horiz-adv-x="260" 
d="M81 700h97l-19 -477h-60zM182 161v-161h-103v161h103z" />
    <glyph glyph-name="exclamdown" unicode="&#xa1;" horiz-adv-x="260" 
d="M79 539v161h103v-161h-103zM99 477h60l19 -477h-97z" />
    <glyph glyph-name="question" unicode="?" horiz-adv-x="563" 
d="M230 302q15 28 36 46t58 43q32 21 50.5 36.5t31.5 38t13 52.5q0 51 -34 82t-94 31q-67 0 -108 -38.5t-41 -106.5h-102q0 70 31 122t87.5 79.5t131.5 27.5q65 0 118 -22t84 -66t31 -106q0 -48 -18 -81t-43 -52.5t-67 -44.5q-49 -28 -73 -52t-24 -64v-21h-83v29q0 39 15 67
zM309 161v-161h-104v161h104z" />
    <glyph glyph-name="questiondown" unicode="&#xbf;" horiz-adv-x="563" 
d="M254 705h103v-161h-103v161zM332 403q-15 -28 -36 -46t-57 -43q-48 -31 -71.5 -57.5t-23.5 -69.5q0 -51 34 -82t94 -31q67 0 108 38.5t41 106.5h102q0 -70 -31 -122t-87.5 -79.5t-131.5 -27.5q-65 0 -118 22t-84 66t-31 106q0 48 18 81t43 52.5t67 44.5q49 28 73 52
t24 64v21h82v-29q0 -39 -15 -67z" />
    <glyph glyph-name="periodcentered" unicode="&#xb7;" horiz-adv-x="256" 
d="M85 444h103v-161h-103v161z" />
    <glyph glyph-name="bullet" unicode="&#x2022;" horiz-adv-x="380" 
d="M319.5 425q-20.5 34 -55 54.5t-74.5 20.5t-74.5 -20.5t-55 -54.5t-20.5 -73q0 -41 20.5 -76t55 -55.5t74.5 -20.5t74.5 20.5t55 55.5t20.5 76q0 39 -20.5 73z" />
    <glyph glyph-name="asterisk" unicode="*" horiz-adv-x="335" 
d="M191 400v60l-4 55l47 -31l52 -30l23 40l-52 30l-51 25l51 25l52 30l-22 40l-52 -29l-48 -32l4 57v60h-46v-60l3 -58l-47 32l-52 30l-23 -40l52 -30l50 -26l-49 -23l-52 -31l22 -40l52 30l47 32l-3 -56v-60h46z" />
    <glyph glyph-name="numbersign" unicode="#" horiz-adv-x="702" 
d="M662 437h-123l-22 -165h116v-68h-126l-27 -204h-68l27 204h-194l-28 -204h-68l27 204h-136v68h146l22 165h-139v67h148l26 196h69l-27 -196h195l26 196h68l-26 -196h114v-67zM449 272l22 165h-195l-22 -165h195z" />
    <glyph glyph-name="slash" unicode="/" horiz-adv-x="384" 
d="M377 750l-300 -750h-69l300 750h69z" />
    <glyph glyph-name="backslash" unicode="\" horiz-adv-x="384" 
d="M8 750l300 -750h69l-300 750h-69z" />
    <glyph glyph-name="uni208D" unicode="&#x208d;" horiz-adv-x="214" 
d="M55.5 94.5q-23.5 57.5 -23.5 131.5t23.5 131.5t66.5 111.5h50q-43 -60 -63.5 -118t-20.5 -125t20.5 -125t63.5 -118h-50q-43 54 -66.5 111.5z" />
    <glyph glyph-name="uni208E" unicode="&#x208e;" horiz-adv-x="214" 
d="M110 100.5q20 58.5 20 125.5t-20 125.5t-63 117.5h50q43 -54 66.5 -111.5t23.5 -131.5t-23.5 -131.5t-66.5 -111.5h-50q43 59 63 117.5z" />
    <glyph glyph-name="parenleft" unicode="(" horiz-adv-x="314" 
d="M79.5 125.5q-39.5 95.5 -39.5 219.5t39.5 219.5t111.5 185.5h83q-71 -98 -105 -195.5t-34 -209.5q0 -113 34 -210t105 -195h-83q-72 90 -111.5 185.5z" />
    <glyph glyph-name="parenright" unicode=")" horiz-adv-x="314" 
d="M40 -60q72 98 106 195.5t34 209.5t-34 209.5t-106 195.5h84q71 -90 110.5 -185.5t39.5 -219.5t-39.5 -219.5t-110.5 -185.5h-84z" />
    <glyph glyph-name="braceleft" unicode="{" horiz-adv-x="333" 
d="M142 -32q-29 34 -29 103v159q0 34 -19.5 51.5t-53.5 17.5v87q34 0 53.5 17t19.5 51v160q0 69 29 102.5t92 33.5h59v-90h-31q-28 0 -43 -13.5t-15 -46.5v-151q0 -87 -77 -96v-22q77 -7 77 -96v-151q0 -33 15 -46.5t43 -13.5h31v-90h-59q-63 0 -92 34z" />
    <glyph glyph-name="braceright" unicode="}" horiz-adv-x="333" 
d="M40 -66v90h31q29 0 44 13.5t15 46.5v151q0 89 76 96v22q-76 9 -76 96v151q0 33 -15 46.5t-44 13.5h-31v90h60q62 0 91 -33.5t29 -102.5v-160q0 -34 19.5 -51t53.5 -17v-87q-34 0 -53.5 -17.5t-19.5 -51.5v-159q0 -69 -29 -103t-91 -34h-60z" />
    <glyph glyph-name="bracketleft" unicode="[" horiz-adv-x="321" 
d="M281 750v-67h-109v-676h109v-67h-192v810h192z" />
    <glyph glyph-name="bracketright" unicode="]" horiz-adv-x="321" 
d="M233 750v-810h-193v67h110v676h-110v67h193z" />
    <glyph glyph-name="uni207D" unicode="&#x207d;" horiz-adv-x="233" 
d="M76.5 375.5q-23.5 57.5 -23.5 131.5t23.5 131.5t66.5 111.5h50q-43 -60 -63.5 -118t-20.5 -125t20.5 -125t63.5 -118h-50q-43 54 -66.5 111.5z" />
    <glyph glyph-name="uni207E" unicode="&#x207e;" horiz-adv-x="233" 
d="M103.5 381.5q20.5 58.5 20.5 125.5t-20.5 125.5t-63.5 117.5h50q43 -54 67 -111.5t24 -131.5t-24 -131.5t-67 -111.5h-50q43 59 63.5 117.5z" />
    <glyph glyph-name="parenleft.case" horiz-adv-x="295" 
d="M110.5 73q-31.5 53 -51 120.5t-19.5 151.5q0 123 39 211t112 178h64q-74 -100 -106.5 -188t-32.5 -201q0 -112 32.5 -200t106.5 -189h-64q-49 64 -80.5 117z" />
    <glyph glyph-name="parenright.case" horiz-adv-x="295" 
d="M40 -44q74 101 107 189t33 200t-33 200t-107 189h65q73 -91 111.5 -179t38.5 -210q0 -84 -19.5 -151.5t-50.5 -120t-80 -117.5h-65z" />
    <glyph glyph-name="braceleft.case" horiz-adv-x="333" 
d="M140 5.5q-27 32.5 -27 109.5v122q0 34 -19.5 52t-53.5 20v72q73 7 73 72v116q0 77 27 109.5t96 32.5h57v-90h-25q-31 0 -47.5 -12.5t-16.5 -44.5v-108q0 -47 -18 -71.5t-59 -28.5v-22q41 -4 59 -28.5t18 -71.5v-114q0 -57 64 -57h25v-90h-57q-69 0 -96 32.5z" />
    <glyph glyph-name="braceright.case" horiz-adv-x="333" 
d="M40 -27v90h25q65 0 65 57v114q0 48 18 72t58 28v22q-40 4 -58 28.5t-18 71.5v108q0 32 -17 44.5t-48 12.5h-25v90h57q70 0 96.5 -32t26.5 -110v-116q0 -65 73 -72v-72q-34 -2 -53.5 -20t-19.5 -52v-122q0 -77 -26.5 -109.5t-96.5 -32.5h-57z" />
    <glyph glyph-name="bracketleft.case" horiz-adv-x="318" 
d="M278 700v-67h-110v-566h110v-67h-189v700h189z" />
    <glyph glyph-name="bracketright.case" horiz-adv-x="318" 
d="M229 700v-700h-189v67h110v566h-110v67h189z" />
    <glyph glyph-name="hyphen" unicode="-" horiz-adv-x="392" 
d="M46 377h300v-90h-300v90z" />
    <glyph glyph-name="endash" unicode="&#x2013;" horiz-adv-x="592" 
d="M546 375v-86h-500v86h500z" />
    <glyph glyph-name="emdash" unicode="&#x2014;" horiz-adv-x="892" 
d="M846 375v-86h-800v86h800z" />
    <glyph glyph-name="underscore" unicode="_" horiz-adv-x="455" 
d="M409 0v-79h-363v79h363z" />
    <glyph glyph-name="hyphen.case" horiz-adv-x="392" 
d="M46 337h300v-90h-300v90z" />
    <glyph glyph-name="endash.case" horiz-adv-x="592" 
d="M546 337v-86h-500v86h500z" />
    <glyph glyph-name="emdash.case" horiz-adv-x="892" 
d="M846 335v-86h-800v86h800z" />
    <glyph glyph-name="quotesinglbase" unicode="&#x201a;" horiz-adv-x="260" 
d="M93 -69q18 0 25 7.5t7 29.5v32h-46v154h103v-181q0 -46 -18 -68t-63 -22h-22v48h14z" />
    <glyph glyph-name="quotedblbase" unicode="&#x201e;" horiz-adv-x="260" 
d="M182 154v-181q0 -46 -18 -68t-63 -22h-22v48h14q18 0 25 7.5t7 29.5v32h-46v154h103z" />
    <glyph glyph-name="quotedblleft" unicode="&#x201c;" horiz-adv-x="421" 
d="M122.5 645q-7.5 -8 -7.5 -30v-32h47v-153h-103v181q0 45 18 67t63 22h22v-47h-15q-17 0 -24.5 -8zM323 645q-7 -8 -7 -30v-32h46v-153h-103v181q0 45 18 67t63 22h22v-47h-15q-17 0 -24 -8z" />
    <glyph glyph-name="quotedblright" unicode="&#x201d;" horiz-adv-x="421" 
d="M73 477q18 0 25 7.5t7 29.5v32h-46v154h103v-181q0 -46 -18 -68t-63 -22h-22v48h14zM273 477q18 0 25 7.5t7 29.5v32h-46v154h103v-181q0 -46 -18 -68t-63 -22h-22v48h14z" />
    <glyph glyph-name="quoteleft" unicode="&#x2018;" horiz-adv-x="220" 
d="M122.5 645q-7.5 -8 -7.5 -30v-32h47v-153h-103v181q0 45 18 67t63 22h22v-47h-15q-17 0 -24.5 -8z" />
    <glyph glyph-name="quotteright" unicode="&#x2019;" horiz-adv-x="220" 
d="M73 477q18 0 25 7.5t7 29.5v32h-46v154h103v-181q0 -46 -18 -68t-63 -22h-22v48h14z" />
    <glyph glyph-name="guillemotleft" unicode="&#xab;" horiz-adv-x="555" 
d="M187 504h90l-107 -177q-17 -28 -29.5 -42.5t-29.5 -21.5l-4 -2v-18l4 -2q18 -8 30.5 -23t28.5 -41l107 -177h-90l-147 252zM425 504h90l-107 -177q-17 -28 -29.5 -42.5t-29.5 -21.5l-4 -2v-18l4 -2q18 -8 30.5 -23t28.5 -41l107 -177h-90l-147 252z" />
    <glyph glyph-name="guillemotright" unicode="&#xbb;" horiz-adv-x="555" 
d="M147 177q15 25 28.5 40.5t30.5 23.5l4 2v18l-4 2q-17 8 -30 23t-28 41l-108 177h90l147 -252l-147 -252h-90zM385 177q15 25 28.5 40.5t30.5 23.5l4 2v18l-4 2q-17 7 -30 22t-29 42l-107 177h90l147 -252l-147 -252h-90z" />
    <glyph glyph-name="guilsinglleft" unicode="&#x2039;" horiz-adv-x="317" 
d="M187 504h90l-107 -177q-17 -28 -29.5 -42.5t-29.5 -21.5l-4 -2v-18l4 -2q18 -8 30.5 -23t28.5 -41l107 -177h-90l-147 252z" />
    <glyph glyph-name="guilsinglright" unicode="&#x203a;" horiz-adv-x="317" 
d="M40 0l107 177q15 25 28.5 40.5t30.5 23.5l4 2v18l-4 2q-17 8 -30 23t-28 41l-108 177h90l147 -252l-147 -252h-90z" />
    <glyph glyph-name="quotedbl" unicode="&#x22;" horiz-adv-x="413" 
d="M122 461h-45l-28 239h102zM335 461h-45l-28 239h102z" />
    <glyph glyph-name="quotesingle" unicode="'" horiz-adv-x="199" 
d="M122 461h-45l-28 239h102z" />
    <glyph glyph-name="cent" unicode="&#xa2;" horiz-adv-x="586" 
d="M394.5 208.5q40.5 32.5 47.5 91.5h104q-8 -84 -64.5 -142t-144.5 -69v-71h-72v70q-70 7 -120.5 43t-77.5 94t-27 129q0 110 60 182t165 82v66h72v-66q89 -12 145 -70t64 -143h-105q-6 60 -46.5 92.5t-97.5 32.5q-67 0 -109 -47t-42 -130t42.5 -130t109.5 -47
q56 0 96.5 32.5z" />
    <glyph glyph-name="currency" unicode="&#xa4;" horiz-adv-x="620" 
d="M563.5 251q-16.5 -47 -48.5 -82l58 -59l-45 -46l-63 63q-64 -42 -150 -42q-94 0 -160 49l-70 -70l-45 46l67 68q-27 35 -42 79.5t-15 94.5t15 95t42 80l-67 68l45 45l70 -69q65 48 160 48q85 0 150 -41l63 62l45 -45l-58 -59q32 -35 48.5 -82t16.5 -102q0 -54 -16.5 -101
zM429 223.5q45 46.5 45 128.5q0 81 -45 128t-114 47t-114 -47t-45 -128q0 -82 45 -128.5t114 -46.5t114 46.5z" />
    <glyph glyph-name="dollar" unicode="$" horiz-adv-x="631" 
d="M526 320q46 -48 46 -125q0 -92 -62 -146t-160 -63v-71h-79v73q-97 12 -159 71.5t-68 157.5h110q3 -65 45.5 -102.5t118.5 -37.5q68 0 106.5 27.5t38.5 84.5q0 44 -25.5 70t-81.5 36l-134 25q-85 16 -133.5 66.5t-48.5 128.5q0 90 63.5 142t167.5 57v71h79v-73
q103 -13 168 -72.5t72 -158.5h-110q-5 70 -54 106t-128 36q-73 0 -111.5 -28.5t-38.5 -76.5q0 -41 28 -70t80 -39l140 -26q84 -15 130 -63z" />
    <glyph glyph-name="Euro" unicode="&#x20ac;" horiz-adv-x="691" 
d="M650 205q-15 -106 -84.5 -163t-173.5 -57q-112 0 -185.5 68.5t-93.5 204.5h-83l18 62h59q-1 12 -1 36q0 19 2 55h-63l13 61h58q23 125 95 186t177 61q108 0 174 -58.5t80 -161.5h-102q-10 62 -50.5 98t-102.5 36t-106 -39t-62 -122h205l-12 -61h-202q-2 -34 -2 -54
q0 -25 1 -37h209l-18 -62h-185q30 -187 178 -187q56 0 96.5 34.5t51.5 99.5h109z" />
    <glyph glyph-name="sterling" unicode="&#xa3;" horiz-adv-x="599" 
d="M137 89h413v-89h-495v95q39 20 75.5 62.5t36.5 101.5q0 32 -13 61h-109v67h72q-20 33 -30.5 62.5t-10.5 68.5q0 95 63.5 146t162.5 51q74 0 130.5 -27.5t88 -79.5t31.5 -122h-102q0 68 -41 106.5t-108 38.5q-59 0 -90.5 -31t-31.5 -86q0 -31 9.5 -55t21.5 -44t17 -28h205
v-67h-179q3 -16 3 -35q0 -63 -34 -110.5t-76 -63.5l-9 -5v-17z" />
    <glyph glyph-name="uni0192" unicode="&#x192;" horiz-adv-x="572" 
d="M531 700v-79h-56q-51 0 -78 -24.5t-36 -80.5l-10 -62h102v-75h-114l-63 -400q-11 -58 -26 -96.5t-49.5 -64t-94.5 -25.5h-80v79h41q54 0 83.5 27.5t39.5 92.5l61 387h-101v75h113l14 88q10 68 50 113t116 45h88z" />
    <glyph glyph-name="uni0E3F" unicode="&#xe3f;" horiz-adv-x="683" 
d="M598.5 300q39.5 -42 39.5 -108q0 -56 -29 -99.5t-83 -68t-127 -24.5h-4v-85h-95v85h-211v700h211v85h95v-85q105 -2 162 -50t57 -128q0 -59 -32.5 -94.5t-87.5 -50.5l-19 -4v-17l19 -2q65 -12 104.5 -54zM194 401h186q55 0 89.5 29.5t34.5 78.5t-34.5 80t-102.5 31h-173
v-219zM492 117.5q36 35.5 36 87.5t-38 83.5t-104 31.5h-192v-238h192q70 0 106 35.5z" />
    <glyph glyph-name="uni20A9" unicode="&#x20a9;" horiz-adv-x="1003" 
d="M903 411l-42 -141h148v-61h-167l-62 -209h-118l-126 401q-16 49 -20.5 80.5t-7.5 66.5h-15q-3 -70 -27 -147l-125 -401h-118l-62 209h-167v61h148l-42 141h-106v61h88l-68 228h111l128 -437q20 -70 22 -131h16q2 57 24 133l135 435h102l137 -440q20 -67 22 -128h15
q2 59 22 125l130 443h111l-68 -228h88v-61h-106z" />
    <glyph glyph-name="uni20B8" unicode="&#x20b8;" horiz-adv-x="554" 
d="M32 700h489v-65h-489v65zM329 480v-480h-105v480h-192v92h489v-92h-192z" />
    <glyph glyph-name="uni20BA" unicode="&#x20ba;" horiz-adv-x="624" 
d="M579 305q0 -102 -45 -170.5t-123 -101.5t-178 -33h-92v274l-110 -41v76l110 41v98l-110 -41v69l110 41v183h102v-146l169 63v-69l-169 -63v-98l169 63v-76l-169 -63v-217q238 0 241 211h95z" />
    <glyph glyph-name="uni20BD" unicode="&#x20bd;" horiz-adv-x="648" 
d="M198 265v-69h230v-63h-230v-135l-106 2v133h-53v63h53v72h-53v92h53v340h299q111 0 172 -60t61 -158q0 -101 -60.5 -159t-172.5 -58h-193zM198 360h145v-3h36q67 0 101.5 33.5t34.5 91.5t-34.5 92t-102.5 34h-180v-248z" />
    <glyph glyph-name="yen" unicode="&#xa5;" horiz-adv-x="603" 
d="M366 263h116v-46h-128v-76h128v-46h-128v-95h-106v95h-127v46h127v76h-127v46h115l-222 437h118l127 -252q33 -74 36 -122h15q1 27 10 59.5t23 62.5l128 252h117z" />
    <glyph glyph-name="plus" unicode="+" horiz-adv-x="493" 
d="M453 348v-65h-174v-175h-65v175h-174v65h174v175h65v-175h174z" />
    <glyph glyph-name="minus" unicode="&#x2212;" horiz-adv-x="494" 
d="M454 349v-64h-414v64h414z" />
    <glyph glyph-name="multiply" unicode="&#xd7;" horiz-adv-x="419" 
d="M378 439l-123 -124l123 -123l-46 -46l-123 123l-123 -123l-46 46l123 123l-123 123l46 46l123 -123l124 123z" />
    <glyph glyph-name="divide" unicode="&#xf7;" horiz-adv-x="504" 
d="M304 615v-161h-103v161h103zM464 344v-64h-424v64h424zM304 180v-161h-103v161h103z" />
    <glyph glyph-name="equal" unicode="=" horiz-adv-x="514" 
d="M474 460v-64h-434v64h434zM474 232v-65h-434v65h434z" />
    <glyph glyph-name="notequal" unicode="&#x2260;" horiz-adv-x="514" 
d="M474 395h-154l-74 -163h228v-65h-258l-45 -100h-58l45 100h-118v65h148l73 163h-221v65h251l45 100h59l-45 -100h124v-65z" />
    <glyph glyph-name="greater" unicode="&#x3e;" horiz-adv-x="435" 
d="M303 306l6 1v18l-6 1q-33 5 -74 20l-189 86v100l369 -167v-99l-369 -165v100l189 86q34 12 74 19z" />
    <glyph glyph-name="less" unicode="&#x3c;" horiz-adv-x="435" 
d="M395 101l-369 165v99l369 167v-100l-189 -86q-41 -15 -74 -20l-5 -1v-18l5 -1q40 -7 74 -19l189 -86v-100z" />
    <glyph glyph-name="greaterequal" unicode="&#x2265;" horiz-adv-x="511" 
d="M268 347q32 7 73 12l7 1v17l-7 2q-36 3 -74 12l-209 63v85l394 -118v-104l-394 -117v84zM56 136h399v-76h-399v76z" />
    <glyph glyph-name="lessequal" unicode="&#x2264;" horiz-adv-x="496" 
d="M45 317v104l394 118v-85l-209 -63q-35 -9 -73 -12l-8 -2v-17l8 -1q41 -5 73 -12l209 -63v-84zM441 60h-399v76h399v-76z" />
    <glyph glyph-name="plusminus" unicode="&#xb1;" horiz-adv-x="518" 
d="M56 322v79h159v144h80v-144h160v-79h-160v-143h-80v143h-159zM62 136h399v-76h-399v76z" />
    <glyph glyph-name="logicalnot" unicode="&#xac;" horiz-adv-x="527" 
d="M50 358v66h405v-225h-72v159h-333z" />
    <glyph glyph-name="asciicircum" unicode="^" horiz-adv-x="427" 
d="M235 520q-5 21 -11 69l-1 7h-18l-1 -7q-3 -35 -11 -69l-65 -214h-88l119 394h113l115 -394h-88z" />
    <glyph glyph-name="integral" unicode="&#x222b;" horiz-adv-x="358" 
d="M209.5 -83q-29.5 -28 -92.5 -28h-77v81h41q25 0 39 13t14 38v641q0 58 29.5 86.5t76.5 28.5h78v-81h-30q-24 0 -36.5 -14t-12.5 -39v-639q0 -59 -29.5 -87z" />
    <glyph glyph-name="product" unicode="&#x220f;" horiz-adv-x="761" 
d="M26 671v79h709v-79h-117v-877h-105v877h-271v-877h-106v877h-110z" />
    <glyph glyph-name="summation" unicode="&#x2211;" horiz-adv-x="652" 
d="M347 216q22 23 37 35.5t33 19.5l9 4v18l-9 4q-18 6 -33.5 19t-36.5 37l-258 288v96h474v-88h-357v-18l6 -2q18 -6 32 -18t33 -35l250 -287v-10l-250 -291q-18 -22 -31.5 -33t-30.5 -18l-9 -5v-18h357v-88h-474v96z" />
    <glyph glyph-name="radical" unicode="&#x221a;" horiz-adv-x="745" 
d="M26 188v98h182l88 -224q28 -75 37 -102.5t13 -55.5h18q4 29 12 58t33 101l227 652h109l-325 -925h-140l-153 398h-101z" />
    <glyph glyph-name="uni00B5" unicode="&#xb5;" horiz-adv-x="576" 
d="M505 504v-504h-102v99h-18l-6 -13q-23 -46 -66 -73.5t-99 -27.5q-22 0 -45 5v-200h-102v510h1v204h102v-311q0 -118 95 -118q63 0 100.5 47t37.5 124v258h102z" />
    <glyph glyph-name="percent" unicode="%" horiz-adv-x="863" 
d="M89.5 408.5q-45.5 48.5 -45.5 121.5t45.5 121.5t123.5 48.5t123.5 -48.5t45.5 -121.5t-45.5 -121.5t-123.5 -48.5t-123.5 48.5zM628 700h87l-473 -700h-87zM285.5 454.5q26.5 29.5 26.5 75.5t-26.5 75.5t-72.5 29.5t-72.5 -29.5t-26.5 -75.5t26.5 -75.5t72.5 -29.5
t72.5 29.5zM560.5 17.5q-38.5 22.5 -59 61t-20.5 86.5t20.5 86.5t59 61t90.5 22.5q78 0 123 -48.5t45 -121.5t-45 -121.5t-123 -48.5q-52 0 -90.5 22.5zM723 89.5q26 29.5 26 75.5t-26 75.5t-72 29.5t-73 -29.5t-27 -75.5t27 -75.5t73 -29.5t72 29.5z" />
    <glyph glyph-name="perthousand" unicode="&#x2030;" horiz-adv-x="1242" 
d="M89.5 408.5q-45.5 48.5 -45.5 121.5t45.5 121.5t123.5 48.5t123.5 -48.5t45.5 -121.5t-45.5 -121.5t-123.5 -48.5t-123.5 48.5zM715 700l-473 -700h-87l473 700h87zM285.5 454.5q26.5 29.5 26.5 75.5t-26.5 75.5t-72.5 29.5t-72.5 -29.5t-26.5 -75.5t26.5 -75.5
t72.5 -29.5t72.5 29.5zM560.5 17.5q-38.5 22.5 -59 61t-20.5 86.5t20.5 86.5t59 61t90.5 22.5q78 0 123 -48.5t45 -121.5t-45 -121.5t-123 -48.5q-52 0 -90.5 22.5zM943.5 17.5q-38.5 22.5 -59 61t-20.5 86.5t20.5 86.5t59 61t90.5 22.5q78 0 123 -48.5t45 -121.5
t-45 -121.5t-123 -48.5q-52 0 -90.5 22.5zM723 89.5q26 29.5 26 75.5t-26 75.5t-72 29.5t-73 -29.5t-27 -75.5t27 -75.5t73 -29.5t72 29.5zM1106 89.5q26 29.5 26 75.5t-26 75.5t-72 29.5t-72.5 -29.5t-26.5 -75.5t26.5 -75.5t72.5 -29.5t72 29.5z" />
    <glyph glyph-name="arrowup" unicode="&#x2191;" horiz-adv-x="674" 
d="M462 502q-47 49 -63 95h-18v-607h-89v607h-17q-15 -44 -64 -95l-132 -135l-53 53l311 311l311 -311l-53 -53z" />
    <glyph glyph-name="uni2197" unicode="&#x2197;" horiz-adv-x="654" 
d="M508 282q2 71 23 113l-13 12l-429 -429l-63 63l429 429l-12 13q-42 -21 -113 -23l-188 -1v74h439v-439h-74z" />
    <glyph glyph-name="arrowright" unicode="&#x2192;" horiz-adv-x="807" 
d="M552 186q49 47 95 63v17h-607v90h607v17q-44 15 -95 64l-135 132l53 53l311 -311l-311 -311l-53 53z" />
    <glyph glyph-name="uni2198" unicode="&#x2198;" horiz-adv-x="654" 
d="M443 58l12 13l-429 429l63 63l429 -429l12 12q-20 43 -22 113l-1 188h74v-439h-440v74l189 -1q71 -2 113 -23z" />
    <glyph glyph-name="arrowdown" unicode="&#x2193;" horiz-adv-x="674" 
d="M275 129h17v607h89v-607h18q15 44 64 95l132 135l53 -53l-311 -311l-311 311l53 53l132 -135q48 -48 64 -95z" />
    <glyph glyph-name="uni2199" unicode="&#x2199;" horiz-adv-x="654" 
d="M72 8v439h75l-1 -188q-2 -71 -23 -113l13 -12l429 429l63 -63l-429 -429l12 -13q42 21 112 23l189 1v-74h-440z" />
    <glyph glyph-name="arrowleft" unicode="&#x2190;" horiz-adv-x="807" 
d="M26 311l311 311l53 -53l-134 -132q-53 -49 -96 -64v-17h607v-90h-607v-17q45 -15 96 -63l134 -133l-53 -53z" />
    <glyph glyph-name="uni2196" unicode="&#x2196;" horiz-adv-x="654" 
d="M211 482l-12 -12l429 -429l-63 -63l-429 429l-13 -12q21 -42 23 -113l1 -189h-75v440h440v-74l-189 1q-65 0 -112 22z" />
    <glyph glyph-name="arrowboth" unicode="&#x2194;" horiz-adv-x="1084" 
d="M1044 311l-311 -311l-53 53l134 133q51 48 96 63v17h-736v-17q44 -15 96 -63l134 -133l-53 -53l-311 311l311 311l53 -53l-134 -132q-54 -50 -96 -64v-17h736v17q-43 15 -96 64l-134 132l53 53z" />
    <glyph glyph-name="arrowupdn" unicode="&#x2195;" horiz-adv-x="702" 
d="M609 164l53 -53l-311 -311l-311 311l53 53l133 -135q47 -49 63 -95h18v638h-18q-16 -46 -63 -95l-133 -135l-53 53l311 311l311 -311l-53 -53l-132 135q-49 51 -64 95h-17v-638h17q15 44 64 95z" />
    <glyph glyph-name="uni25CF" unicode="&#x25cf;" horiz-adv-x="615" 
d="M443.5 483q61.5 -36 96.5 -97t35 -133t-35 -133t-96.5 -97t-136.5 -36t-136.5 36t-96 97t-34.5 133t35 133t96 97t136 36t136.5 -36z" />
    <glyph glyph-name="filledbox" unicode="&#x25a0;" horiz-adv-x="649" 
d="M576 504v-504h-504v504h504z" />
    <glyph glyph-name="at" unicode="@" horiz-adv-x="1069" 
d="M780 677.5q109 -52.5 172.5 -151t63.5 -230.5q0 -93 -24 -163t-69 -109t-106 -39q-60 0 -102 35t-42 104v2h-16l-6 -15q-25 -55 -67.5 -83.5t-98.5 -28.5q-60 0 -106.5 31t-72.5 88t-26 134q0 76 26 133.5t73 88.5t106 31q57 0 99.5 -28.5t66.5 -83.5l6 -14h16v107h91
v-347q0 -36 16.5 -53.5t43.5 -17.5q56 0 82.5 61.5t26.5 163.5q0 110 -51 191.5t-141 125.5t-203 45q-111 1 -202.5 -46t-146 -138t-54.5 -217q0 -110 49 -199t136 -139.5t195 -50.5q120 0 228 65l31 -71q-114 -69 -260 -69q-137 0 -242 61t-162.5 167t-57.5 236
q0 156 68.5 263.5t179.5 160t238 52.5q133 0 242 -52.5zM636 127.5q37 52.5 37 123.5q0 45 -16 86t-49 66.5t-82 25.5q-73 0 -110.5 -52.5t-37.5 -125.5t37.5 -124.5t110.5 -51.5t110 52.5z" />
    <glyph glyph-name="ampersand" unicode="&#x26;" horiz-adv-x="662" 
d="M636 86v-86h-36q-39 0 -70.5 13t-61.5 37q-83 -65 -192 -65q-65 0 -118.5 23t-85 67t-31.5 104q0 69 39.5 111t94.5 57l13 3v18l-16 10q-47 25 -77 67t-30 95q0 49 27.5 89t78.5 63t120 23q65 0 114.5 -21.5t77 -60t27.5 -88.5q0 -62 -46 -104t-140 -77l-11 -3v-14
l142 -162l15 -16q43 67 51 159l78 -15q-4 -55 -22 -106t-48 -93q37 -28 72 -28h35zM183.5 464.5q19.5 -27.5 57.5 -57.5l10 -8l17 7q51 22 78 35.5t47 36.5t20 56q0 50 -36 75t-86 25q-52 0 -89.5 -28.5t-37.5 -77.5q0 -36 19.5 -63.5zM187.5 99q39.5 -31 99.5 -31
q70 0 125 39l-21 25l-146 167l-10 -5q-41 -21 -64 -44t-23 -66q0 -54 39.5 -85z" />
    <glyph glyph-name="paragraph" unicode="&#xb6;" horiz-adv-x="698" 
d="M99.5 360.5q-59.5 48.5 -59.5 142.5q0 116 76.5 156.5t172.5 40.5h369v-72h-75v-835h-79v834h-170v-834h-78v519q-97 0 -156.5 48.5z" />
    <glyph glyph-name="copyright" unicode="&#xa9;" horiz-adv-x="878" 
d="M618.5 668q83.5 -47 131 -129.5t47.5 -186.5q0 -105 -47.5 -188.5t-131 -131t-187.5 -47.5t-188 47.5t-131.5 131t-47.5 188.5q0 104 47.5 186.5t131.5 129.5t188 47t187.5 -47zM596 71.5q73 41.5 114.5 115t41.5 165.5t-41.5 164.5t-114.5 113t-165 40.5t-165.5 -42
t-115 -115t-41.5 -161q0 -92 41.5 -165.5t115 -115t165.5 -41.5t165 41.5zM293 193.5q-51 61.5 -51 156.5q0 62 22.5 112t66.5 79t105 29q79 0 129.5 -47.5t58.5 -122.5h-65q-6 51 -39 82t-84 31q-62 0 -95.5 -45.5t-33.5 -116.5q0 -72 33.5 -117.5t95.5 -45.5
q51 0 83.5 31.5t39.5 82.5h65q-8 -75 -58 -122.5t-130 -47.5q-92 0 -143 61.5z" />
    <glyph glyph-name="registered" unicode="&#xae;" horiz-adv-x="878" 
d="M626.5 668q83.5 -47 131 -129.5t47.5 -186.5q0 -105 -47.5 -188.5t-131 -131t-187.5 -47.5t-188 47.5t-131.5 131t-47.5 188.5q0 104 47.5 186.5t131.5 129.5t188 47t187.5 -47zM604 71.5q73 41.5 114.5 115t41.5 165.5t-41.5 164.5t-114.5 113t-165 40.5
q-91 0 -164.5 -42t-115 -115t-41.5 -161q0 -92 41.5 -165.5t114.5 -115t165 -41.5t165 41.5zM577 530.5q32 -29.5 32 -76.5q0 -45 -27 -71.5t-63 -31.5v-10h6q81 -6 87 -104l5 -97h-63l-6 96q-2 41 -23 60t-64 19h-110v-175h-64v420h196q62 0 94 -29.5zM521.5 388.5
q21.5 19.5 21.5 52.5q0 30 -19 47.5t-58 17.5h-115v-137h108q41 0 62.5 19.5z" />
    <glyph glyph-name="uni2117" unicode="&#x2117;" horiz-adv-x="870" 
d="M623.5 668q83.5 -47 131 -129.5t47.5 -186.5q0 -105 -47.5 -188.5t-131 -131t-187.5 -47.5t-188 47.5t-131.5 131t-47.5 188.5q0 104 47.5 186.5t131.5 129.5t188 47t187.5 -47zM601 71.5q73 41.5 114 115t41 165.5t-41 164.5t-114 113t-165 40.5t-165.5 -42t-115 -115
t-41.5 -161q0 -92 41.5 -165.5t115 -115t165.5 -41.5t165 41.5zM584.5 524q36.5 -36 36.5 -95q0 -60 -36.5 -95t-103.5 -35h-116v-160l-63 1v420h179q67 0 103.5 -36zM535 374q21 20 21 55t-21 55.5t-62 20.5h-108v-151h109q40 0 61 20z" />
    <glyph glyph-name="trademark" unicode="&#x2122;" horiz-adv-x="695" 
d="M92 656h-75v44h201v-44h-75v-236h-51v236zM364 700l66 -160q7 -22 11 -40t4 -31h7q0 25 14 71l66 160h84v-280h-51v223h-7q0 -11 -12 -57l-66 -166h-64l-65 166q-12 44 -12 57h-7v-223h-51v280h83z" />
    <glyph glyph-name="degree" unicode="&#xb0;" horiz-adv-x="404" 
d="M120 416.5q-37 20.5 -58.5 57t-21.5 82.5t21.5 82.5t58.5 56.5t82 20t82 -20t58.5 -56.5t21.5 -82.5t-21.5 -82.5t-58.5 -57t-82 -20.5t-82 20.5zM266 489q26 25 26 67t-26 66.5t-64 24.5t-64 -24.5t-26 -66.5t26 -67t64 -25t64 25z" />
    <glyph glyph-name="bar" unicode="|" horiz-adv-x="241" 
d="M153 750v-957h-64v957h64z" />
    <glyph glyph-name="brokenbar" unicode="&#xa6;" horiz-adv-x="241" 
d="M153 750v-419h-64v419h64zM153 211v-418h-64v418h64z" />
    <glyph glyph-name="dagger" unicode="&#x2020;" horiz-adv-x="345" 
d="M304 504v-64h-100v-647h-64v647h-100v64h100v246h64v-246h100z" />
    <glyph glyph-name="daggerdbl" unicode="&#x2021;" horiz-adv-x="345" 
d="M304 440h-100v-376h100v-64h-100v-207h-64v207h-100v64h100v376h-100v64h100v246h64v-246h100v-64z" />
    <glyph glyph-name="uni2116" unicode="&#x2116;" horiz-adv-x="846" 
d="M328 437q19 -31 25.5 -49t8.5 -35h9v347h63v-420h-83l-161 262q-19 32 -25.5 50t-8.5 35h-9v-347h-63v420h82zM536.5 316.5q-43.5 45.5 -43.5 114.5q0 71 43.5 115.5t115.5 44.5t115.5 -44.5t43.5 -115.5q0 -69 -43.5 -114.5t-115.5 -45.5t-115.5 45.5zM584 508
q-27 -28 -27 -77t27 -77t68 -28t68 28t27 77t-27 77t-68 28t-68 -28z" />
    <glyph glyph-name="at.ss01" horiz-adv-x="1069" 
d="M271.5 -149q-104.5 61 -162 167t-57.5 236q0 156 68.5 263.5t179.5 160t238 52.5q133 0 242 -52.5t172.5 -151t63.5 -230.5q0 -93 -24 -163t-69 -109t-106 -39q-57 0 -99 30t-49 84l-2 29h-14q-24 -69 -76 -106t-115 -37q-44 0 -81.5 18.5t-59.5 53.5t-22 81q0 77 60 121
t158 46l150 4v12q0 121 -130 121q-56 0 -93.5 -24.5t-39.5 -84.5h-102q1 89 64.5 137.5t170.5 48.5q109 0 170.5 -51.5t61.5 -146.5v-182q0 -37 16.5 -54t43.5 -17q104 0 104 225q0 110 -51 191.5t-141 125.5t-203 45q-111 1 -202.5 -46t-146 -138t-54.5 -217
q0 -110 49 -199t136 -139.5t195 -50.5q120 0 228 65l31 -67q-104 -73 -263 -73q-135 0 -239.5 61zM590 90.5q36 22.5 56.5 61.5t20.5 86v23l-112 -2q-63 -1 -108 -23.5t-45 -75.5q0 -42 30 -67t78 -25q44 0 80 22.5z" />
    <glyph glyph-name="uni0308" unicode="&#x308;" 
d="M-374 700h103v-134h-103v134zM-144 700h104v-134h-104v134z" />
    <glyph glyph-name="uni0307" unicode="&#x307;" 
d="M-143 700h103v-134h-103v134z" />
    <glyph glyph-name="gravecomb" unicode="&#x300;" 
d="M-214 700h115l59 -134h-68z" />
    <glyph glyph-name="acutecomb" unicode="&#x301;" 
d="M-155 700h115l-106 -134h-68z" />
    <glyph glyph-name="uni030B" unicode="&#x30b;" 
d="M-332 700h107l-106 -134h-60zM-148 700h107l-106 -134h-60z" />
    <glyph glyph-name="uni0302" unicode="&#x302;" 
d="M-40 559h-85l-45 85h-14l-46 -85h-85l79 141h117z" />
    <glyph glyph-name="uni030C" unicode="&#x30c;" 
d="M-236 559l-79 141h85l46 -85h14l45 85h85l-79 -141h-117z" />
    <glyph glyph-name="uni0306" unicode="&#x306;" 
d="M-175 644.5q16 -20.5 48 -20.5q31 0 47 21t16 55h72q0 -66 -35.5 -104t-99.5 -38q-65 0 -100.5 38t-35.5 104h72q0 -35 16 -55.5z" />
    <glyph glyph-name="uni030A" unicode="&#x30a;" 
d="M-188 671q32 29 79 29q46 0 77.5 -29t31.5 -75q0 -45 -31.5 -74t-77.5 -29q-47 0 -79 29t-32 74q0 46 32 75zM-77.5 628q-12.5 12 -31.5 12q-20 0 -32.5 -12.5t-12.5 -31.5t12.5 -31t32.5 -12t32 12t12 31q0 20 -12.5 32z" />
    <glyph glyph-name="tildecomb" unicode="&#x303;" 
d="M-64.5 596q-24.5 -29 -65.5 -29q-25 0 -43.5 9.5t-42.5 28.5q-20 16 -33.5 23.5t-30.5 7.5q-43 0 -43 -63h-58v17q0 57 24 86.5t65 29.5q26 0 44 -9.5t44 -28.5q20 -16 33.5 -23.5t29.5 -7.5q43 0 43 63h58v-18q0 -57 -24.5 -86z" />
    <glyph glyph-name="uni0304" unicode="&#x304;" 
d="M-40 700v-79h-281v79h281z" />
    <glyph glyph-name="uni0312" unicode="&#x312;" 
d="M-54 754q-18 0 -25 -7.5t-7 -29.5v-32h46v-130h-103v157q0 46 18 68t63 22h22v-48h-14z" />
    <glyph glyph-name="dotbelowcomb" unicode="&#x323;" 
d="M-143 -76h103v-134h-103v134z" />
    <glyph glyph-name="uni0326" unicode="&#x326;" 
d="M8 -41l-89 -169h-60l58 169h91z" />
    <glyph glyph-name="uni0327" unicode="&#x327;" 
d="M-161 -75h17l2 5q7 22 24 33.5t40 11.5q33 0 55.5 -22.5t22.5 -61.5q0 -49 -32.5 -75t-78.5 -26q-44 0 -74 23t-34 61l56 1q4 -20 18 -30t33 -10q23 0 37.5 13.5t14.5 37.5q0 23 -13 35t-33 12q-32 0 -43 -36l-68 3l13 102l52 -2z" />
    <glyph glyph-name="uni0328" unicode="&#x328;" 
d="M-144 -185q-30 23 -30 66q0 52 40.5 82t96.5 48l30 -1l7 -10l-32 -16q-67 -30 -67 -81q0 -22 13.5 -33.5t34.5 -11.5t43 13v-65q-37 -14 -65 -14q-41 0 -71 23z" />
    <glyph glyph-name="uni0335" unicode="&#x335;" 
d="M-398 409h345v-94h-345v94z" />
    <glyph glyph-name="uni0336" unicode="&#x336;" 
d="M-723 365h683v-61h-683v61z" />
    <glyph glyph-name="uni0337" unicode="&#x337;" 
d="M-223 342l234 129v-68l-234 -129v68z" />
    <glyph glyph-name="uni0338" unicode="&#x338;" 
d="M-57 700h57l-577 -700h-56z" />
    <glyph glyph-name="bpart" horiz-adv-x="486" 
d="M138 18q-47 33 -72.5 93.5t-25.5 140.5t25.5 140t73 93.5t110.5 33.5q56 0 101.5 -27t67.5 -79l5 -12h23v-298h-23l-5 -12q-22 -53 -67 -79.5t-102 -26.5q-64 0 -111 33zM376.5 101.5q33.5 24.5 50 64.5t16.5 85t-16 85.5t-50 65.5t-83 25q-72 0 -109 -51t-37 -125
q0 -73 37 -123.5t109 -50.5q49 0 82.5 24.5z" />
    </font>
</defs>
</svg>
