<svg width="735" height="856" viewBox="0 0 735 856" fill="none" xmlns="http://www.w3.org/2000/svg">
<path d="M2 7.68977H1.48366L1.50026 8.20584L28.4752 847.015L28.4908 847.499H28.9749H109.391H109.87L109.89 847.02L132.285 320.967L132.285 320.958L136.366 157.059L140.446 320.958L140.447 320.967L162.841 847.02L162.862 847.499H163.341H243.757H244.241L244.256 847.015L271.231 8.20584L271.248 7.68977H270.731H208.638H208.144L208.138 8.18434L203.558 429.985L203.558 429.987L201.61 709.353L193.869 464.726L193.869 464.717L171.475 8.16527L171.451 7.68977H170.975H101.756H101.28L101.257 8.16527L78.8626 464.717L78.8623 464.726L71.1211 709.353L69.1739 429.987L69.1739 429.985L64.5932 8.18434L64.5879 7.68977H64.0933H2ZM309.495 829.94L309.497 829.943L425.67 829.623L426.055 829.943C426.055 829.942 426.056 829.942 426.056 829.942C439.728 813.444 446.529 789.947 446.529 759.523V95.6656C446.529 65.2412 439.728 41.7444 426.056 25.2464C412.54 8.73292 393.13 0.5 367.903 0.5C342.676 0.5 323.182 8.73357 309.497 25.2461L309.495 25.2485C295.993 41.7463 289.278 65.2423 289.278 95.6656V759.523C289.278 789.946 295.993 813.442 309.495 829.94ZM464.24 7.68977H463.724L463.74 8.20584L490.715 847.015L490.731 847.499H491.215H571.631H572.11L572.13 847.02L594.525 320.967L594.525 320.958L598.606 157.058L602.686 320.958L602.687 320.967L625.081 847.02L625.102 847.499H625.581H705.997H706.481L706.496 847.015L733.471 8.20584L733.488 7.68977H732.971H670.878H670.384L670.378 8.18434L665.798 429.985V429.987L663.85 709.353L656.109 464.726L656.109 464.717L633.715 8.16527L633.691 7.68977H633.215H563.996H563.52L563.497 8.16527L541.103 464.717L541.102 464.726L533.361 709.353L531.414 429.987V429.985L526.833 8.18434L526.828 7.68977H526.333H464.24ZM382.418 759.523C382.418 767.878 381.169 774.061 378.735 778.14C376.325 782.178 372.737 784.187 367.903 784.187C363.069 784.187 359.481 782.178 357.072 778.14C354.638 774.061 353.389 767.878 353.389 759.523V95.6656C353.389 87.3109 354.638 81.1277 357.072 77.0486C359.481 73.0103 363.069 71.0013 367.903 71.0013C372.737 71.0013 376.325 73.0103 378.735 77.0486C381.169 81.1277 382.418 87.3109 382.418 95.6656V759.523Z" stroke="currentColor" fill="transparent" stroke-opacity="0.12"/>
</svg>
