<svg width="9" height="9" viewBox="0 0 9 9" fill="none" xmlns="http://www.w3.org/2000/svg">
<g clip-path="url(#clip0)">
<path d="M8.85614 2.28609L8.56134 1.98924C8.46856 1.89653 8.34512 1.84546 8.21319 1.84546C8.08133 1.84546 7.95775 1.89653 7.86497 1.98924L4.50201 5.35234L1.13518 1.98551C1.04255 1.8928 0.918959 1.8418 0.787104 1.8418C0.655249 1.8418 0.53159 1.8928 0.438882 1.98551L0.144001 2.28053C-0.0480004 2.47239 -0.0480004 2.7849 0.144001 2.97676L4.15262 6.99979C4.24525 7.09242 4.36869 7.15769 4.50172 7.15769H4.50326C4.63518 7.15769 4.75862 7.09235 4.85126 6.99979L8.85614 2.98766C8.94893 2.89502 8.99985 2.76785 9 2.636C9 2.50407 8.94893 2.37865 8.85614 2.28609Z" fill="black"/>
</g>
<defs>
<clipPath id="clip0">
<rect width="9" height="9" fill="white"/>
</clipPath>
</defs>
</svg>
