<svg width="353" height="49" viewBox="0 0 353 49" fill="none" xmlns="http://www.w3.org/2000/svg">
<path fill-rule="evenodd" clip-rule="evenodd" d="M168.899 11.8532C170.691 10.6016 172.733 9.48765 174.976 8.49609C174.184 8.1986 173.373 7.909 172.542 7.62776C157.215 2.44059 135.306 0.121557 107.857 3.66053C85.8907 6.49271 63.5578 12.0788 44.4909 18.5123C25.7033 24.8516 10.1237 32.0013 1.19365 38.1279C0.965941 38.2841 0.658096 38.2264 0.499958 38V38C0.34182 37.7736 0.393297 37.4643 0.620982 37.3081C9.66323 31.1028 25.3471 23.9164 44.1712 17.5648C63.2908 11.1135 85.6882 5.51054 107.729 2.66874C135.291 -0.884772 157.359 1.43359 172.862 6.68054C174.047 7.08142 175.193 7.49952 176.301 7.93355C179.837 6.49261 183.818 5.32952 188.068 4.39017C203.226 1.04009 221.993 0.5 236.769 0.5C250.057 0.5 299.104 0.674927 350.82 44.9487V41.6743C350.744 41.2769 350.683 40.8723 350.651 40.4613C350.596 39.7487 350.584 38.3464 350.585 37.3146C350.586 36.7948 350.59 36.3598 350.594 36.14C350.594 36.0855 350.595 36.0413 350.597 36.0116C350.597 36.0005 350.598 35.9785 350.599 35.959C350.6 35.9568 350.6 35.9525 350.601 35.9467C350.602 35.9398 350.603 35.9309 350.604 35.921C350.605 35.9134 350.609 35.8914 350.617 35.8641C350.621 35.8494 350.634 35.8128 350.644 35.791C350.662 35.7548 350.732 35.6592 350.79 35.6064C350.917 35.5341 351.219 35.5147 351.366 35.5778C351.439 35.6342 351.527 35.7422 351.549 35.7837C351.577 35.8428 351.587 35.895 351.589 35.9032C351.594 35.9307 351.596 35.9541 351.597 35.9591C351.601 36.0033 351.601 36.1228 351.601 36.2779C351.601 36.4543 351.641 36.6356 351.698 36.8857L351.701 36.9001C351.754 37.1293 351.82 37.4192 351.82 37.729V41.5773C351.894 41.9489 351.984 42.323 352.08 42.704C352.115 42.84 352.15 42.9772 352.185 43.1155C352.353 43.7692 352.526 44.4472 352.642 45.1327C352.678 45.3475 352.718 45.5388 352.76 45.7359C352.791 45.8848 352.824 46.0376 352.855 46.2057C352.919 46.545 352.976 46.9346 352.918 47.2726C352.887 47.4512 352.82 47.6437 352.682 47.8107C352.539 47.9829 352.349 48.0931 352.133 48.1481C351.735 48.2497 351.233 48.168 350.643 47.9779C346.865 46.7602 343.122 45.4516 339.545 43.7428C338.796 43.3849 338.047 42.9752 337.308 42.5711C337.06 42.4356 336.814 42.3008 336.569 42.1687C335.582 41.6371 334.607 41.1424 333.61 40.7827C333.351 40.689 333.216 40.4024 333.31 40.1427C333.404 39.8829 333.69 39.7484 333.95 39.8421C335.019 40.2282 336.048 40.7523 337.043 41.2884C337.3 41.4267 337.553 41.5653 337.805 41.7027L337.808 41.7043C338.54 42.1048 339.254 42.4955 339.976 42.8405C343.491 44.5198 347.183 45.812 350.95 47.0262C351.486 47.199 351.757 47.2066 351.874 47.1821C351.606 46.9487 351.339 46.7164 351.072 46.4853C351.016 46.453 350.966 46.41 350.926 46.3589C299.196 1.66158 250.02 1.5 236.769 1.5C221.996 1.5 203.326 2.04222 188.284 5.36661C184.452 6.21358 180.866 7.23883 177.647 8.47634C183.172 10.7704 187.676 13.4705 191.087 16.4036C195.434 20.1408 198.033 24.2811 198.661 28.4596C199.303 32.7317 197.116 36.1255 193.614 38.4188C190.124 40.7043 185.282 41.9399 180.411 41.9572C175.54 41.9745 170.573 40.7733 166.848 38.1088C163.101 35.4291 160.636 31.285 160.792 25.5197C160.949 19.7283 164.01 15.2664 168.899 11.8532ZM161.792 25.5467C161.937 20.1538 164.768 15.957 169.471 12.6731C171.447 11.2933 173.749 10.0792 176.309 9.01184C182.197 11.3561 186.927 14.1457 190.435 17.1618C194.665 20.7984 197.091 24.7394 197.672 28.6082C198.239 32.3833 196.346 35.4341 193.066 37.5822C189.774 39.738 185.133 40.9404 180.408 40.9572C175.682 40.974 170.939 39.8054 167.429 37.2954C163.941 34.8007 161.645 30.9657 161.792 25.5467Z" fill="#243628"/>
</svg>
