<svg width="223" height="97" viewBox="0 0 223 97" fill="none" xmlns="http://www.w3.org/2000/svg">
<path fill-rule="evenodd" clip-rule="evenodd" d="M162.184 0.991519C173.568 0.576561 187.389 4.38367 198.837 10.7977C210.299 17.2192 219.288 26.1982 221.156 36.065C223.335 47.5732 216.334 59.8371 199.15 68.5012C183.86 76.2105 160.562 81.0296 128.722 79.8632C131.461 78.0292 133.617 75.5571 134.487 72.247C137.551 60.5804 127.806 49.143 114.474 50.1509C106.01 50.7908 99.855 57.6614 99.1485 64.6587C98.7939 68.17 99.8111 71.7197 102.598 74.5188C105.38 77.3133 109.893 79.3271 116.472 79.8488C119.837 80.1156 123.119 80.3201 126.317 80.4652C124.013 81.6543 121.425 82.4977 118.872 83.0861C69.8627 94.3824 38.0045 93.5762 3.3063 92.2016C4.1804 91.7904 4.94561 91.2941 5.65846 90.76C5.74547 90.6948 5.83086 90.6299 5.91536 90.5658L5.91557 90.5656C6.11683 90.4127 6.31305 90.2636 6.51421 90.1231C6.81741 89.9689 7.24893 89.7584 7.59702 89.589L7.67122 89.5529L7.67301 89.552C7.85836 89.4618 8.01287 89.3867 8.09503 89.3456C8.11781 89.3342 8.13865 89.3236 8.15367 89.3156L8.15427 89.3153L8.15435 89.3152C8.15872 89.3129 8.17612 89.3036 8.19321 89.2922L8.19335 89.2921L8.19342 89.2921C8.19783 89.2891 8.21391 89.2784 8.2321 89.2622C8.23968 89.2555 8.26306 89.2345 8.28606 89.2019C8.29778 89.1841 8.32204 89.1373 8.33308 89.1077C8.34452 89.062 8.34649 88.9503 8.33132 88.8872C8.26178 88.6831 8.06854 88.6561 8.04736 88.6532C7.9998 88.6467 7.96227 88.6519 7.95192 88.6533C7.92523 88.657 7.90463 88.6631 7.89951 88.6646L7.89919 88.6647C7.87171 88.6728 7.83886 88.6872 7.8265 88.6926L7.82386 88.6937C7.80189 88.7033 7.77198 88.7166 7.73396 88.7337C7.64033 88.7758 7.53971 88.811 7.42148 88.8523L7.39489 88.8616C7.27152 88.9048 7.1292 88.9554 6.99305 89.0221C6.69112 89.1702 6.41425 89.3418 6.15454 89.5208C6.08419 89.5568 6.0211 89.5897 5.96802 89.6181C5.70454 89.7592 5.44823 89.9006 5.19497 90.0403L5.1948 90.0403C4.277 90.5466 3.39932 91.0307 2.36597 91.3984C1.9902 91.5321 1.62142 91.6627 1.24463 91.7811C1.23383 91.7844 1.21569 91.7892 1.18205 91.7974L1.17143 91.8L1.17095 91.8001C1.14294 91.8069 1.10769 91.8155 1.07298 91.8251C1.0337 91.8359 0.985932 91.8503 0.938803 91.8695C0.895877 91.887 0.829312 91.918 0.768927 91.9713C0.662608 92.0653 0.643069 92.19 0.652104 92.2733C0.659624 92.3425 0.685881 92.3918 0.696273 92.4103C0.719208 92.451 0.745746 92.4791 0.753876 92.4877C0.776059 92.5112 0.800678 92.5322 0.817542 92.5461C0.855102 92.5772 0.905539 92.6153 0.960106 92.6553C1.0712 92.7366 1.22092 92.8412 1.37161 92.9449C1.67348 93.1525 1.99098 93.3644 2.03853 93.3955C2.40222 93.6339 2.7848 93.8611 3.15967 94.0838C3.26914 94.1488 3.37795 94.2135 3.48545 94.2779C3.96625 94.566 4.42648 94.8528 4.83979 95.1674C4.97147 95.2676 5.10599 95.3732 5.24286 95.4806L5.24419 95.4816L5.24433 95.4817C5.4923 95.6763 5.74796 95.8769 6.00829 96.0629C6.03363 96.081 6.05337 96.0967 6.07886 96.117C6.08895 96.1251 6.09994 96.1338 6.11254 96.1437C6.1237 96.1525 6.13612 96.1622 6.15029 96.1731C6.20728 96.2168 6.28551 96.2737 6.37652 96.3166C6.55138 96.399 6.75992 96.3241 6.84232 96.1492C6.92471 95.9743 6.84975 95.7658 6.67489 95.6834C6.65415 95.6736 6.62426 95.6545 6.57664 95.6179C6.56632 95.61 6.55235 95.5989 6.53639 95.5863L6.53626 95.5862C6.49955 95.5572 6.45239 95.5199 6.41517 95.4933C6.16531 95.3148 5.93443 95.1335 5.69667 94.9467L5.69638 94.9465C5.55632 94.8365 5.41388 94.7247 5.26376 94.6104C4.81767 94.2708 4.32926 93.9674 3.84523 93.6774C3.73397 93.6107 3.6232 93.5449 3.51312 93.4796L3.50855 93.4768C3.16926 93.2753 2.83651 93.0776 2.51569 92.8708C37.5316 94.2641 69.5701 95.1682 119.029 83.7682C121.996 83.0843 125.044 82.0536 127.666 80.5231C160.109 81.835 183.872 76.9886 199.465 69.1262C216.796 60.388 224.104 47.8738 221.844 35.9348C219.918 25.7613 210.704 16.6435 199.18 10.187C187.642 3.72324 173.695 -0.128539 162.158 0.291983C161.965 0.299024 161.814 0.461329 161.821 0.6545C161.828 0.847671 161.991 0.99856 162.184 0.991519ZM128.182 79.3809C127.955 79.5299 127.724 79.6747 127.488 79.8152C123.94 79.669 120.286 79.449 116.528 79.151C110.058 78.638 105.724 76.6662 103.094 74.025C100.469 71.3885 99.5093 68.0524 99.8449 64.729C100.519 58.0569 106.413 51.4623 114.526 50.8489C127.429 49.8734 136.74 60.9151 133.81 72.0692C132.979 75.2299 130.894 77.6032 128.182 79.3809Z" fill="black"/>
</svg>
