<?xml version="1.0" encoding="utf-8"?>
<!-- Generator: Adobe Illustrator 24.3.0, SVG Export Plug-In . SVG Version: 6.00 Build 0)  -->
<svg version="1.1" id="Layer_1" xmlns="http://www.w3.org/2000/svg" xmlns:xlink="http://www.w3.org/1999/xlink" x="0px" y="0px"
	 viewBox="0 0 23.1 13.2" style="enable-background:new 0 0 23.1 13.2;" xml:space="preserve">
<path d="M20.3,5.8l-4.4-4.4c-0.2-0.2-0.2-0.4-0.2-0.6c0-0.2,0.1-0.4,0.2-0.6C16.1,0.1,16.3,0,16.5,0c0.2,0,0.4,0.1,0.6,0.2L22.8,6
	C22.9,6,23,6.1,23,6.2c0.1,0.1,0.1,0.2,0.1,0.3v0c0,0.1,0,0.2-0.1,0.3c0,0.1-0.1,0.2-0.2,0.3l0,0l-5.8,5.8c-0.1,0.1-0.2,0.1-0.3,0.2
	c-0.1,0-0.2,0.1-0.3,0.1c-0.1,0-0.2,0-0.3-0.1c-0.1,0-0.2-0.1-0.3-0.2c-0.1-0.1-0.1-0.2-0.2-0.3c0-0.1-0.1-0.2-0.1-0.3
	c0-0.1,0-0.2,0.1-0.3c0-0.1,0.1-0.2,0.2-0.3l4.4-4.4H0.8c-0.2,0-0.4-0.1-0.6-0.2C0.1,7,0,6.8,0,6.6C0,6.4,0.1,6.2,0.2,6
	c0.2-0.2,0.4-0.2,0.6-0.2H20.3z"/>
</svg>
