<svg width="114" height="68" viewBox="0 0 114 68" fill="none" xmlns="http://www.w3.org/2000/svg">
<path d="M7.46928 67.8037C7.27443 67.8037 6.88472 66.179 6.75482 66.179C6.68987 66.179 6.55997 66.309 6.30017 66.6989C5.78057 67.4788 4.93622 67.9337 4.09186 67.9987C2.14335 68.0637 0 65.7241 0 54.8709C0 50.2567 0 45.6425 0 41.0283C0 30.955 2.40316 28.2905 4.41661 28.2255C5.32592 28.1605 6.04037 28.6154 6.55997 29.5253C6.75482 29.8502 6.88472 29.9802 6.94967 29.9802C7.01462 29.9802 7.07957 29.8502 7.07957 29.4603C7.07957 25.5609 7.07957 21.7266 7.07957 17.8272C7.07957 17.5023 7.20947 17.1774 7.40432 17.1124C9.09303 16.9824 10.7168 16.8524 12.4055 16.7224C12.6003 16.7224 12.7302 16.9174 12.7302 17.2423C12.7302 33.8145 12.7302 50.3217 12.7302 66.8939C12.7302 67.2188 12.5354 67.5438 12.4055 67.5438C10.7168 67.5438 9.09303 67.6738 7.46928 67.8037ZM7.01462 40.2484C7.01462 39.2736 6.68987 38.5587 6.30017 38.5587C5.97542 38.5587 5.78057 39.2086 5.78057 39.8585C5.78057 45.3826 5.78057 50.9716 5.78057 56.4957C5.78057 56.8856 5.78057 57.7304 6.30017 57.7304C6.43007 57.7304 6.62492 57.6005 6.75482 57.4055C6.88472 57.1455 7.07957 56.7556 7.07957 56.1057C7.01462 50.7766 7.01462 45.5125 7.01462 40.2484Z" fill="#243628"/>
<path d="M14.5489 38.1038C14.5489 30.3051 18.0562 26.9257 21.1738 26.4058C25.5254 25.6909 27.9936 30.955 27.9936 37.4539C27.9936 38.8187 27.9936 40.1834 27.9936 41.4832C27.9936 41.8082 27.8637 42.1331 27.6688 42.1331C25.5254 42.523 23.3821 42.913 21.2387 43.3029C21.1088 43.3029 20.9789 43.5629 20.9789 43.8878C20.9789 47.3322 20.9789 50.8416 20.9789 54.286C20.9789 55.3259 21.2387 55.7158 21.5635 55.6508C21.8233 55.5858 22.148 55.1309 22.148 54.1561C22.148 52.7913 22.148 51.4265 22.148 50.1267C22.148 49.8668 22.2779 49.6068 22.4728 49.5418C24.0965 49.4119 25.7852 49.2819 27.409 49.0869C27.6688 49.0869 27.7987 49.3469 27.7987 49.7368C27.7987 51.1666 27.7987 52.5963 27.7987 53.9611C27.7987 62.4746 24.4213 65.6591 20.849 66.244C16.7572 66.8939 14.354 62.0847 14.354 54.546C14.5489 49.0219 14.5489 43.5629 14.5489 38.1038ZM20.9789 39.4036C20.9789 39.5985 21.1088 39.7285 21.2387 39.7285C22.148 39.5985 22.213 39.5336 22.213 39.2086C22.213 34.9843 22.148 34.5294 21.5635 34.5944C21.2387 34.6594 20.9789 35.1143 20.9789 36.0891C20.9789 37.1939 20.9789 38.2988 20.9789 39.4036Z" fill="#243628"/>
<path d="M30.3318 51.4915C30.0071 51.5565 29.8772 51.2316 29.8772 50.7766C29.8772 34.7894 29.8772 18.8021 29.8772 2.81481C29.8772 2.2949 30.072 1.77498 30.3968 1.70999C32.6701 1.25507 35.0083 0.735161 37.2815 0.21525C43.3868 -1.21451 47.0241 4.50452 47.0241 16.5925C47.0241 20.6868 47.0241 24.8461 47.0241 28.9404C47.0241 39.6635 43.5168 48.502 37.5413 49.9318C35.1382 50.4517 32.735 51.0366 30.3318 51.4915ZM39.23 14.6428C39.23 13.9929 39.1001 13.473 38.9053 13.213C38.7754 13.0831 38.4506 12.9531 38.2558 12.9531C38.1259 13.0181 37.996 13.213 37.996 13.603C37.996 20.9467 37.996 28.2905 37.996 35.6342C37.996 36.0242 38.0609 36.1541 38.2558 36.0891C38.5156 36.0242 39.23 35.8292 39.23 33.9445C39.23 27.5106 39.23 21.0767 39.23 14.6428Z" fill="#243628"/>
<path d="M49.2972 20.5568C49.0374 20.6218 49.0374 20.2968 49.0374 17.1774C49.0374 11.9133 51.3756 6.58417 55.4025 5.54435C59.6243 4.43954 61.9625 8.40386 61.9625 13.538C61.9625 19.517 61.9625 25.5609 61.9625 31.5399C61.9625 32.0598 62.0924 32.0598 62.9367 31.7999C63.0666 31.7349 63.1966 31.9948 63.1966 32.2548C63.1966 33.6196 63.1966 34.9843 63.1966 36.3491C63.1966 39.5985 61.5728 43.8878 59.3645 44.4727C57.6108 44.9276 56.8964 44.1478 56.3118 42.783C56.117 42.3931 55.9871 42.2631 55.9221 42.2631C55.8572 42.2631 55.7273 42.4581 55.4675 43.043C55.0128 44.1478 54.1035 45.6425 52.8045 46.0324C51.1808 46.4874 48.7776 44.7327 48.7776 38.1038C48.7776 36.4791 48.7776 34.8544 48.7776 33.1646C48.7776 27.9005 50.7911 24.5861 52.9344 22.5065C55.7273 19.7119 55.9221 18.9321 55.9221 16.5925C55.9221 15.6826 55.6623 15.2277 55.3376 15.3577C54.753 15.5526 54.753 15.9426 54.753 18.9971C54.753 19.322 54.6231 19.582 54.4283 19.6469C52.6746 19.9719 50.9859 20.2318 49.2972 20.5568ZM55.9221 28.1605C55.9221 27.9005 55.8572 27.7056 55.6623 27.7056C55.4025 27.7706 54.6881 28.5504 54.6881 30.0452C54.6881 31.6699 54.6881 33.2946 54.6881 34.9843C54.6881 35.7642 55.0128 36.0242 55.2726 35.9592C55.5974 35.8942 55.8572 35.4393 55.8572 34.6594C55.9221 32.4498 55.9221 30.3051 55.9221 28.1605Z" fill="#243628"/>
<path d="M65.0152 26.7307C65.0152 18.8671 68.5225 15.0327 71.6401 14.3179C75.9918 13.213 78.4599 18.4771 78.4599 24.976C78.4599 26.3408 78.4599 27.7056 78.4599 29.0053C78.4599 29.3303 78.33 29.6552 78.1351 29.6552C75.9918 30.1752 73.8484 30.6301 71.705 31.215C71.5751 31.28 71.4452 31.4749 71.4452 31.7999C71.4452 35.2443 71.4452 38.7537 71.4452 42.1981C71.4452 43.2379 71.705 43.5629 72.0298 43.4979C72.2896 43.4329 72.6143 42.978 72.6143 41.9381C72.6143 40.5734 72.6143 39.2086 72.6143 37.9088C72.6143 37.6489 72.7442 37.3239 72.9391 37.3239C74.5629 37.064 76.2516 36.804 77.8753 36.6091C78.1351 36.6091 78.265 36.869 78.265 37.2589C78.265 38.6887 78.265 40.1185 78.265 41.4832C78.265 49.9968 74.8876 53.2462 71.3153 54.1561C67.2235 55.1959 64.8203 50.7766 64.8203 43.1729C65.0152 37.7139 65.0152 32.2548 65.0152 26.7307ZM71.5102 27.3806C71.5102 27.5756 71.6401 27.7056 71.77 27.6406C72.6793 27.4456 72.7442 27.3806 72.7442 27.0557C72.7442 22.8314 72.6793 22.3765 72.0947 22.5065C71.77 22.5714 71.5102 23.0264 71.5102 24.0662C71.5102 25.171 71.5102 26.2758 71.5102 27.3806Z" fill="#243628"/>
<path d="M80.6683 61.3698C80.5384 61.4348 80.3435 61.1749 80.3435 60.7849C80.3435 47.9171 80.3435 34.9843 80.3435 22.1165C80.3435 21.8566 80.4734 21.5966 80.6033 21.5966C82.2271 21.2717 83.7859 20.8817 85.4096 20.5568C85.6694 20.4918 85.9942 23.2213 86.1241 23.2213C86.189 23.2213 86.254 23.1563 86.3839 22.7664C87.0983 21.0767 87.7478 20.1019 89.3716 19.8419C91.2551 19.517 93.1387 21.7266 93.1387 26.2108C93.1387 36.999 93.1387 47.8521 93.1387 58.6403C93.1387 58.8353 93.0737 58.9652 92.9438 59.0302C91.1902 59.2902 89.3716 59.6151 87.6179 59.9401C87.488 59.9401 87.3581 59.8101 87.3581 59.5502C87.3581 50.5167 87.3581 41.4832 87.3581 32.3848C87.3581 31.4099 87.0334 31.085 86.7736 31.15C86.4488 31.215 86.189 31.6049 86.189 32.5797C86.189 41.6782 86.189 50.7117 86.189 59.8101C86.189 60.0701 86.1241 60.2 85.9292 60.265C84.1756 60.655 82.4219 60.9799 80.6683 61.3698Z" fill="#243628"/>
<path d="M108.207 7.62399C108.467 7.62399 108.662 8.01393 108.727 8.46885C110.48 24.1962 112.234 39.9885 113.988 55.7808C114.053 56.4957 113.858 57.2105 113.468 57.2105C111.39 57.2105 109.311 57.2755 107.233 57.4055C106.973 57.4055 106.778 57.1456 106.713 56.7556C106.453 53.4412 106.194 50.1268 105.934 46.8773C105.869 46.5524 105.739 46.3574 105.544 46.3574C104.83 46.4224 104.18 46.4874 103.466 46.5524C103.336 46.5524 103.141 46.8773 103.141 47.2672C102.881 50.5167 102.621 53.8311 102.427 57.0806C102.362 57.5355 102.102 57.8604 101.907 57.8604C99.7636 58.0554 97.6852 58.3154 95.5418 58.6403C95.2171 58.7053 95.0222 58.2504 95.0872 57.6005C96.7759 41.4182 98.5295 25.236 100.218 9.05375C100.283 8.72881 100.478 8.20889 100.673 8.20889C103.206 7.94894 105.674 7.75397 108.207 7.62399ZM104.765 32.8397C104.7 31.9299 104.635 31.3449 104.505 31.3449C104.375 31.3449 104.31 31.7999 104.245 32.9047C104.05 35.0493 103.92 37.129 103.726 39.2736C103.661 39.5985 103.79 39.9235 103.985 39.9235C105.219 39.7935 105.349 39.7935 105.284 39.2086C105.154 37.064 104.96 34.9193 104.765 32.8397Z" fill="#243628"/>
</svg>
