<svg width="25" height="70" viewBox="0 0 25 70" fill="none" xmlns="http://www.w3.org/2000/svg">
<path d="M0.877451 26.4388C0.44068 26.5476 0.440678 26.0033 0.440678 20.7772C0.440678 11.9583 4.37162 3.03052 11.1416 1.28851C18.2391 -0.562372 22.17 6.07903 22.17 14.6802C22.17 24.6967 22.17 34.8222 22.17 44.8387C22.17 45.7097 22.3884 45.7097 23.8079 45.2742C24.0263 45.1653 24.2447 45.6008 24.2447 46.0364C24.2447 48.3227 24.2447 50.6091 24.2447 52.8955C24.2447 58.3393 21.5149 65.5251 17.8023 66.5049C14.8541 67.2671 13.653 65.9606 12.6703 63.6742C12.3427 63.0209 12.1243 62.8032 12.0151 62.8032C11.9059 62.8032 11.6875 63.1298 11.2508 64.1097C10.4864 65.9606 8.95771 68.4647 6.77385 69.118C4.04404 69.8801 0.00390625 66.9404 0.00390625 55.8351C0.00390625 53.1133 0.00390625 50.3914 0.00390625 47.5606C0.00390625 38.7417 3.38888 33.189 6.99224 29.705C11.6875 25.0234 12.0151 23.7169 12.0151 19.7973C12.0151 18.2731 11.5783 17.511 11.0324 17.7287C10.0496 18.0553 10.0496 18.7086 10.0496 23.8257C10.0496 24.3701 9.83125 24.8056 9.50367 24.9145C6.55547 25.4589 3.71646 25.8944 0.877451 26.4388ZM12.0151 39.1772C12.0151 38.7417 11.9059 38.4151 11.5783 38.4151C11.1416 38.5239 9.94044 39.8304 9.94044 42.3346C9.94044 45.0565 9.94044 47.7784 9.94044 50.6091C9.94044 51.9156 10.4864 52.3511 10.9232 52.2423C11.4691 52.1334 11.9059 51.3713 11.9059 50.0647C12.0151 46.363 12.0151 42.7701 12.0151 39.1772Z" fill="#243628"/>
</svg>
