<svg width="33" height="87" viewBox="0 0 33 87" fill="none" xmlns="http://www.w3.org/2000/svg">
<path d="M22.8061 0.663696C23.2429 0.663696 23.5704 1.31695 23.6796 2.07908C26.6278 28.427 29.5761 54.8837 32.5243 81.3405C32.6334 82.5381 32.3059 83.7357 31.6507 83.7357C28.1565 83.7357 24.6624 83.8446 21.1682 84.0624C20.7315 84.0624 20.4039 83.6269 20.2947 82.9736C19.8579 77.421 19.4211 71.8683 18.9844 66.4245C18.8752 65.8801 18.6568 65.5535 18.3292 65.5535C17.1281 65.6624 16.0362 65.7713 14.8351 65.8801C14.6167 65.8801 14.2891 66.4245 14.2891 67.0778C13.8523 72.5215 13.4155 78.0742 13.088 83.518C12.9788 84.2801 12.542 84.8245 12.2144 84.8245C8.61106 85.1511 5.11691 85.5866 1.51355 86.131C0.967591 86.2399 0.64 85.4777 0.749192 84.389C3.5882 57.279 6.53641 30.169 9.37542 3.05896C9.48461 2.51458 9.81219 1.64358 10.1398 1.64358C14.3983 1.20807 18.6568 0.881447 22.8061 0.663696ZM17.1281 43.0163C17.0189 41.492 16.9097 40.5121 16.6913 40.5121C16.4729 40.5121 16.3638 41.2743 16.2546 43.1252C15.927 46.718 15.7086 50.2021 15.381 53.795C15.2718 54.3393 15.4902 54.8837 15.8178 54.8837C17.8924 54.666 18.1108 54.666 18.0016 53.6861C17.6741 50.0932 17.4557 46.5003 17.1281 43.0163Z" fill="#243628"/>
</svg>
