<svg width="29" height="87" viewBox="0 0 29 87" fill="none" xmlns="http://www.w3.org/2000/svg">
<path d="M0.883734 86.2634C0.337771 86.3723 0.119385 85.8279 0.119385 85.0658C0.119385 58.2824 0.119385 31.4991 0.119385 4.71569C0.119385 3.84468 0.446962 2.97368 0.992925 2.8648C4.81467 2.10268 8.74561 1.23167 12.5674 0.360667C22.8315 -2.03459 28.9463 7.54645 28.9463 27.7973C28.9463 34.6565 28.9463 41.6245 28.9463 48.4836C28.9463 66.4481 23.0498 81.2552 13.0041 83.6504C8.96399 84.5214 4.92386 85.3924 0.883734 86.2634ZM15.9523 24.531C15.9523 23.4423 15.7339 22.5713 15.4064 22.1358C15.188 21.918 14.642 21.7003 14.3144 21.7003C14.096 21.8091 13.8777 22.1358 13.8777 22.789C13.8777 35.092 13.8777 47.3949 13.8777 59.6978C13.8777 60.3511 13.9869 60.5688 14.3144 60.4599C14.7512 60.3511 15.9523 60.0244 15.9523 56.8671C15.9523 46.0884 15.9523 35.3097 15.9523 24.531Z" fill="#243628"/>
</svg>
