<svg width="22" height="86" viewBox="0 0 22 86" fill="none" xmlns="http://www.w3.org/2000/svg">
<path d="M12.5572 85.5913C12.2296 85.5913 11.5744 82.8694 11.356 82.8694C11.2468 82.8694 11.0285 83.0871 10.5917 83.7404C9.71815 85.0469 8.29864 85.809 6.87914 85.9179C3.60336 86.0268 0 82.1073 0 63.9251C0 56.1949 0 48.4647 0 40.7346C0 23.8589 4.04013 19.395 7.4251 19.2861C8.9538 19.1772 10.1549 19.9394 11.0285 21.4636C11.356 22.008 11.5744 22.2257 11.6836 22.2257C11.7928 22.2257 11.902 22.008 11.902 21.3547C11.902 14.8222 11.902 8.39855 11.902 1.86602C11.902 1.32164 12.1204 0.777266 12.448 0.66839C15.287 0.450639 18.0168 0.232888 20.8558 0.0151367C21.1834 0.0151367 21.4018 0.341764 21.4018 0.886142C21.4018 28.6494 21.4018 56.3038 21.4018 84.067C21.4018 84.6114 21.0742 85.1558 20.8558 85.1558C18.0168 85.1558 15.287 85.3735 12.5572 85.5913ZM11.6836 39.3192C11.6836 37.6861 11.1377 36.4884 10.4825 36.4884C9.93653 36.4884 9.60895 37.5772 9.60895 38.6659C9.60895 47.9204 9.60895 57.2837 9.60895 66.5381C9.60895 67.1913 9.60895 68.6067 10.4825 68.6067C10.7009 68.6067 11.0285 68.389 11.2468 68.0623C11.4652 67.6268 11.7928 66.9736 11.7928 65.8848C11.6836 57.0659 11.6836 48.247 11.6836 39.3192Z" fill="#243628"/>
</svg>
