<svg width="24" height="67" viewBox="0 0 24 67" fill="none" xmlns="http://www.w3.org/2000/svg">
<path d="M0.459169 19.7262C0.459169 6.66119 6.35558 0.999662 11.5968 0.128659C18.9127 -1.06897 23.0621 7.74994 23.0621 18.6375C23.0621 20.9239 23.0621 23.2103 23.0621 25.3878C23.0621 25.9321 22.8437 26.4765 22.5161 26.4765C18.9127 27.1298 15.3094 27.783 11.706 28.4363C11.4876 28.4363 11.2692 28.8718 11.2692 29.4162C11.2692 35.1866 11.2692 41.0658 11.2692 46.8362C11.2692 48.5783 11.706 49.2315 12.252 49.1226C12.6888 49.0138 13.2347 48.2516 13.2347 46.6185C13.2347 44.3321 13.2347 42.0457 13.2347 39.8682C13.2347 39.4327 13.4531 38.9972 13.7807 38.8883C16.5105 38.6706 19.3495 38.4528 22.0793 38.1262C22.5161 38.1262 22.7345 38.5617 22.7345 39.215C22.7345 41.6102 22.7345 44.0055 22.7345 46.2919C22.7345 60.5546 17.0565 65.8895 11.0509 66.8693C4.17172 67.9581 0.131592 59.9013 0.131592 47.2717C0.45917 38.1262 0.459169 28.9807 0.459169 19.7262ZM11.2692 22.0126C11.2692 22.3393 11.4876 22.557 11.706 22.557C13.2347 22.3393 13.3439 22.2304 13.3439 21.686C13.3439 14.6091 13.2347 13.847 12.252 13.9558C11.706 14.0647 11.2692 14.8268 11.2692 16.46C11.2692 18.3109 11.2692 20.1618 11.2692 22.0126Z" fill="#243628"/>
</svg>
