<svg width="23" height="70" viewBox="0 0 23 70" fill="none" xmlns="http://www.w3.org/2000/svg">
<path d="M1.50837 69.8125C1.28998 69.9214 0.962402 69.4859 0.962402 68.8327C0.962402 47.2753 0.962402 25.6091 0.962402 4.05173C0.962402 3.61623 1.18079 3.18073 1.39917 3.18073C4.12899 2.63635 6.74962 1.9831 9.47944 1.43872C9.91621 1.32984 10.4622 5.90261 10.6806 5.90261C10.7898 5.90261 10.8989 5.79374 11.1173 5.14049C12.3185 2.30972 13.4104 0.676591 16.1402 0.241088C19.3068 -0.303289 22.4734 3.39848 22.4734 10.9109C22.4734 28.9842 22.4734 47.1664 22.4734 65.2398C22.4734 65.5664 22.3642 65.7842 22.1458 65.893C19.1976 66.3285 16.1402 66.8729 13.192 67.4173C12.9736 67.4173 12.7552 67.1995 12.7552 66.764C12.7552 51.6303 12.7552 36.4966 12.7552 21.2541C12.7552 19.6209 12.2093 19.0766 11.7725 19.1854C11.2265 19.2943 10.7897 19.9476 10.7897 21.5807C10.7897 36.8233 10.7897 51.957 10.7897 67.1995C10.7897 67.635 10.6806 67.8528 10.353 67.9617C7.51397 68.506 4.56576 69.1593 1.50837 69.8125Z" fill="#243628"/>
</svg>
